<svg xmlns="http://www.w3.org/2000/svg" width="100" height="100" viewBox="0 0 100 100" fill="none"><g clip-path="url(#clip0_101_22054)"><path d="M50 100C77.6142 100 100 77.6142 100 50C100 22.3858 77.6142 0 50 0C22.3858 0 0 22.3858 0 50C0 77.6142 22.3858 100 50 100Z" fill="black"></path><path d="M50 2.53333C76.1714 2.53333 97.4667 23.8286 97.4667 50C97.4667 76.1714 76.1714 97.4667 50 97.4667C23.8286 97.4667 2.53333 76.1714 2.53333 50C2.53333 23.8286 23.8286 2.53333 50 2.53333ZM50 0C22.3857 0 0 22.3857 0 50C0 77.6143 22.3857 100 50 100C77.6143 100 100 77.6143 100 50C100 22.3857 77.6143 0 50 0Z" fill="#E0071B"></path><path d="M30.2715 50.0048C30.2715 32.5715 38.9762 18.3143 50.0048 18.2715C61.0334 18.3191 69.7191 32.5762 69.7334 50.0048C69.7239 67.4239 61.0334 81.681 50.0048 81.7286C38.9762 81.6762 30.2762 67.4191 30.2715 50.0048Z" fill="black"></path><path d="M51.486 69.0714C51.2003 69.0999 50.586 69.2714 50.6479 70.0238C50.7098 70.8142 51.2431 70.938 51.6717 70.9047C52.0717 70.8714 52.486 70.5761 52.4336 69.9618C52.386 69.3666 52.0717 69.019 51.486 69.0714ZM51.486 69.0714C51.2003 69.0999 50.586 69.2714 50.6479 70.0238C50.7098 70.8142 51.2431 70.938 51.6717 70.9047C52.0717 70.8714 52.486 70.5761 52.4336 69.9618C52.386 69.3666 52.0717 69.019 51.486 69.0714ZM57.1193 68.819C56.9241 68.2571 56.5384 68 55.986 68.1952C55.7098 68.2857 55.1622 68.6142 55.405 69.3238C55.6574 70.0714 56.205 70.0618 56.6098 69.9238C56.9908 69.7904 57.3193 69.4142 57.1193 68.819ZM57.1193 68.819C56.9241 68.2571 56.5384 68 55.986 68.1952C55.7098 68.2857 55.1622 68.6142 55.405 69.3238C55.6574 70.0714 56.205 70.0618 56.6098 69.9238C56.9908 69.7904 57.3193 69.4142 57.1193 68.819ZM46.6336 70.9285C46.2289 70.8523 45.7098 71.0142 45.6098 71.5761C45.5289 72.0761 45.8622 72.4761 46.3765 72.5666C46.9574 72.6714 47.3098 72.2619 47.3717 71.9047C47.4384 71.5333 47.2527 71.0428 46.6336 70.9333M47.0574 68.8714C46.5527 68.7761 46.2003 68.9952 46.1289 69.3761C46.0812 69.6857 46.305 70.0714 46.7908 70.1571C47.2336 70.238 47.5717 70.0142 47.6384 69.6476C47.705 69.2476 47.4146 68.938 47.0574 68.8714ZM47.0574 68.8714C46.5527 68.7761 46.2003 68.9952 46.1289 69.3761C46.0812 69.6857 46.305 70.0714 46.7908 70.1571C47.2336 70.238 47.5717 70.0142 47.6384 69.6476C47.705 69.2476 47.4146 68.938 47.0574 68.8714ZM46.6336 70.9333C46.2289 70.8571 45.7098 71.019 45.6098 71.5809C45.5289 72.0809 45.8622 72.4809 46.3765 72.5714C46.9574 72.6761 47.3098 72.2666 47.3717 71.9095C47.4384 71.538 47.2527 71.0476 46.6336 70.938M50.8908 52.4523V66.1047C52.2193 66.0333 53.5003 65.7761 54.7289 65.3999V52.4666L50.8908 52.4523ZM50.8908 33.9047V47.019H54.7289V34.7476V34.6047C53.505 34.2333 52.2193 33.9809 50.886 33.9M60.7384 37.9714V47.0142H65.8527C65.186 43.4476 63.3431 40.2952 60.7384 37.9714ZM60.7384 52.4523V62.0285C63.4765 59.5904 65.3574 56.238 65.9336 52.4523H60.7384ZM44.0908 27.1999L42.4955 30.4857L44.805 29.5714L44.0908 27.1999ZM44.0908 27.1999L42.4955 30.4857L44.805 29.5714L44.0908 27.1999ZM61.205 30.3285C58.3241 25.2999 54.3574 22.2142 50.005 22.2095C49.9955 22.2095 49.9955 22.2095 49.9812 22.2095C45.6336 22.219 41.6622 25.2999 38.7812 30.3238C36.9717 33.4761 35.6098 37.4047 34.8384 41.7857C37.7574 36.4095 43.4431 32.7666 49.9955 32.7666C51.6384 32.7666 53.2193 32.9999 54.7241 33.438V33.4238L54.7812 33.4476C59.2479 34.738 62.9669 37.7809 65.1431 41.7952C64.3717 37.4047 63.0146 33.4714 61.205 30.3238M45.5431 32.019L45.1241 30.6142L41.8003 31.938L40.7336 34.138C40.1336 34.5238 39.5574 34.9428 39.0098 35.3952L43.3431 26.3999L44.7193 25.519L46.6003 31.7761C46.2527 31.8428 45.8955 31.9238 45.5479 32.0238M50.3003 31.4761C48.1908 31.4761 46.4669 29.7666 46.4669 27.6476C46.4669 25.5285 48.186 23.819 50.3003 23.819C51.4098 23.819 52.4146 24.2904 53.1146 25.0523L52.2908 25.8095C51.7955 25.2761 51.0812 24.9428 50.2955 24.9428C48.805 24.9428 47.586 26.1523 47.586 27.6476C47.586 29.1428 48.805 30.3571 50.2955 30.3571C51.0812 30.3571 51.7955 30.0238 52.2908 29.4857L53.1146 30.238C52.4098 31.0047 51.4098 31.4761 50.2955 31.4761M59.3241 34.1761L58.1098 30.0476L56.9574 32.8999C56.7669 32.819 56.5717 32.7333 56.386 32.6523L55.5622 28.3761L54.4527 32.019C54.105 31.9238 53.7479 31.8428 53.3955 31.7666L55.3003 25.5142L56.2146 26.1285L57.005 29.8809L57.9479 27.5285L58.6146 28.0619L60.7193 35.1666C60.2717 34.8142 59.805 34.4904 59.3289 34.1761M42.5098 30.4809L44.8193 29.5666L44.105 27.1952L42.5098 30.4809ZM44.105 27.1952L42.5098 30.4809L44.8193 29.5666L44.105 27.1952ZM44.105 27.1952L42.5098 30.4809L44.8193 29.5666L44.105 27.1952ZM46.6384 70.9238C46.2336 70.8476 45.7146 71.0095 45.6146 71.5714C45.5336 72.0714 45.8669 72.4714 46.3812 72.5619C46.9622 72.6666 47.3146 72.2571 47.3765 71.8999C47.4431 71.5285 47.2574 71.038 46.6384 70.9285M47.0622 68.8666C46.5574 68.7714 46.205 68.9904 46.1336 69.3714C46.086 69.6809 46.3098 70.0666 46.7955 70.1523C47.2384 70.2333 47.5765 70.0095 47.6431 69.6428C47.7098 69.2428 47.4193 68.9333 47.0622 68.8666ZM47.0622 68.8666C46.5574 68.7714 46.205 68.9904 46.1336 69.3714C46.086 69.6809 46.3098 70.0666 46.7955 70.1523C47.2384 70.2333 47.5765 70.0095 47.6431 69.6428C47.7098 69.2428 47.4193 68.9333 47.0622 68.8666ZM46.6384 70.9285C46.2336 70.8523 45.7146 71.0142 45.6146 71.5761C45.5336 72.0761 45.8669 72.4761 46.3812 72.5666C46.9622 72.6714 47.3146 72.2619 47.3765 71.9047C47.4431 71.5333 47.2574 71.0428 46.6384 70.9333M46.6384 70.9333C46.2336 70.8571 45.7146 71.019 45.6146 71.5809C45.5336 72.0809 45.8669 72.4809 46.3812 72.5714C46.9622 72.6761 47.3146 72.2666 47.3765 71.9095C47.4431 71.538 47.2574 71.0476 46.6384 70.938M47.0622 68.8761C46.5574 68.7809 46.205 68.9999 46.1336 69.3809C46.086 69.6904 46.3098 70.0761 46.7955 70.1618C47.2384 70.2428 47.5765 70.019 47.6431 69.6523C47.7098 69.2523 47.4193 68.9428 47.0622 68.8761ZM51.4908 69.0809C51.205 69.1095 50.5908 69.2809 50.6527 70.0333C50.7146 70.8238 51.2479 70.9476 51.6765 70.9142C52.0765 70.8809 52.4908 70.5857 52.4384 69.9714C52.3908 69.3761 52.0765 69.0285 51.4908 69.0809ZM57.1241 68.8285C56.9289 68.2666 56.5431 68.0095 55.9908 68.2047C55.7146 68.2952 55.1669 68.6238 55.4098 69.3333C55.6622 70.0809 56.2098 70.0714 56.6146 69.9333C56.9955 69.7999 57.3241 69.4238 57.1241 68.8285ZM57.1241 68.8285C56.9289 68.2666 56.5431 68.0095 55.9908 68.2047C55.7146 68.2952 55.1669 68.6238 55.4098 69.3333C55.6622 70.0809 56.2098 70.0714 56.6146 69.9333C56.9955 69.7999 57.3241 69.4238 57.1241 68.8285ZM51.4908 69.0809C51.205 69.1095 50.5908 69.2809 50.6527 70.0333C50.7146 70.8238 51.2479 70.9476 51.6765 70.9142C52.0765 70.8809 52.4908 70.5857 52.4384 69.9714C52.3908 69.3761 52.0765 69.0285 51.4908 69.0809ZM47.0622 68.8761C46.5574 68.7809 46.205 68.9999 46.1336 69.3809C46.086 69.6904 46.3098 70.0761 46.7955 70.1618C47.2384 70.2428 47.5765 70.019 47.6431 69.6523C47.7098 69.2523 47.4193 68.9428 47.0622 68.8761ZM46.6384 70.938C46.2336 70.8619 45.7146 71.0238 45.6146 71.5857C45.5336 72.0857 45.8669 72.4857 46.3812 72.5761C46.9622 72.6809 47.3146 72.2714 47.3765 71.9142C47.4431 71.5428 47.2574 71.0523 46.6384 70.9428M46.6384 70.9428C46.2336 70.8666 45.7146 71.0285 45.6146 71.5904C45.5336 72.0904 45.8669 72.4904 46.3812 72.5809C46.9622 72.6857 47.3146 72.2761 47.3765 71.919C47.4431 71.5476 47.2574 71.0571 46.6384 70.9476M47.0622 68.8857C46.5574 68.7904 46.205 69.0095 46.1336 69.3904C46.086 69.6999 46.3098 70.0857 46.7955 70.1714C47.2384 70.2523 47.5765 70.0285 47.6431 69.6618C47.7098 69.2618 47.4193 68.9523 47.0622 68.8857ZM51.4908 69.0904C51.205 69.119 50.5908 69.2904 50.6527 70.0428C50.7146 70.8333 51.2479 70.9571 51.6765 70.9238C52.0765 70.8904 52.4908 70.5952 52.4384 69.9809C52.3908 69.3857 52.0765 69.038 51.4908 69.0904ZM57.1241 68.838C56.9289 68.2761 56.5431 68.019 55.9908 68.2142C55.7146 68.3047 55.1669 68.6333 55.4098 69.3428C55.6622 70.0904 56.2098 70.0809 56.6146 69.9428C56.9955 69.8095 57.3241 69.4333 57.1241 68.838ZM57.1241 68.838C56.9289 68.2761 56.5431 68.019 55.9908 68.2142C55.7146 68.3047 55.1669 68.6333 55.4098 69.3428C55.6622 70.0904 56.2098 70.0809 56.6146 69.9428C56.9955 69.8095 57.3241 69.4333 57.1241 68.838ZM51.4908 69.0904C51.205 69.119 50.5908 69.2904 50.6527 70.0428C50.7146 70.8333 51.2479 70.9571 51.6765 70.9238C52.0765 70.8904 52.4908 70.5952 52.4384 69.9809C52.3908 69.3857 52.0765 69.038 51.4908 69.0904ZM47.0622 68.8857C46.5574 68.7904 46.205 69.0095 46.1336 69.3904C46.086 69.6999 46.3098 70.0857 46.7955 70.1714C47.2384 70.2523 47.5765 70.0285 47.6431 69.6618C47.7098 69.2618 47.4193 68.9523 47.0622 68.8857ZM46.6384 70.9476C46.2336 70.8714 45.7146 71.0333 45.6146 71.5952C45.5336 72.0952 45.8669 72.4952 46.3812 72.5857C46.9622 72.6904 47.3146 72.2809 47.3765 71.9238C47.4431 71.5523 47.2574 71.0619 46.6384 70.9523M50.0098 67.2523C43.4669 67.2523 37.7812 63.6095 34.8622 58.2476C35.6384 62.6142 36.9908 66.538 38.8003 69.6952C41.6812 74.7142 45.6527 77.7999 50.0098 77.7999H50.1003C54.4193 77.7666 58.3574 74.6904 61.2241 69.6952C63.0336 66.5428 64.386 62.619 65.1574 58.2476C62.2431 63.6142 56.5527 67.2523 50.0146 67.2523M42.6098 72.2904L41.5289 71.919L42.6622 68.5904C42.4146 68.6857 42.0384 68.6857 41.486 68.4952L41.2765 68.4238L41.386 68.1238V68.1142L41.5955 67.4952L41.7574 67.5476C42.5765 67.8333 43.2241 67.2809 43.3003 67.0571L44.2812 67.3952L42.6098 72.2904ZM48.7003 69.7333C48.6193 70.1809 48.3527 70.5333 47.8574 70.6618C48.3574 71.0095 48.6098 71.3952 48.4908 72.0714C48.3765 72.7285 47.7336 73.6761 46.2289 73.3999C44.7669 73.1428 44.4193 72.1809 44.5431 71.4714C44.5908 71.2142 44.7098 70.519 45.6384 70.2999C45.2289 70.0285 45.0479 69.6523 45.1289 69.1714C45.286 68.2809 46.1527 67.8857 47.1384 68.0618C48.3146 68.2761 48.8289 69.019 48.705 69.7428M51.8193 73.6142C50.9336 73.6904 50.2336 73.319 49.986 72.6333L50.786 72.3333V72.3428C50.9527 72.6904 51.3003 72.8857 51.7669 72.7857C52.2146 72.6904 52.6622 72.3571 52.586 71.2571L52.5669 71.2476C52.3336 71.6142 51.9003 71.7428 51.5098 71.7714C50.4098 71.8666 49.705 71.1666 49.6336 70.2904C49.5193 69.0047 50.3098 68.338 51.4336 68.2476C53.4241 68.0857 53.6146 70.0285 53.6717 70.7619C53.8384 72.7809 52.8527 73.5142 51.8146 73.6095M57.405 72.5095C56.5622 72.8047 55.8003 72.6142 55.3908 72.0142L56.0955 71.5238V71.5333C56.3431 71.8285 56.7289 71.9333 57.1431 71.7285C57.5622 71.519 57.9146 71.0857 57.5622 70.038L57.5479 70.0285C57.4146 70.4523 57.0193 70.6761 56.6574 70.7999C55.6146 71.1618 54.7622 70.6523 54.4765 69.8285C54.0622 68.6095 54.6574 67.7714 55.7241 67.4095C57.6098 66.7618 58.2717 68.5999 58.5146 69.2952C59.1717 71.219 58.3908 72.1761 57.405 72.5095ZM55.9908 68.219C55.7146 68.3095 55.1669 68.638 55.4098 69.3476C55.6622 70.0952 56.2098 70.0857 56.6146 69.9476C56.9955 69.8142 57.3241 69.438 57.1241 68.8428C56.9289 68.2809 56.5431 68.0238 55.9908 68.219ZM51.4908 69.0952C51.205 69.1238 50.5908 69.2952 50.6527 70.0476C50.7146 70.838 51.2479 70.9618 51.6765 70.9285C52.0765 70.8952 52.4908 70.5999 52.4384 69.9857C52.3908 69.3904 52.0765 69.0428 51.4908 69.0952ZM47.0622 68.8904C46.5574 68.7952 46.205 69.0142 46.1336 69.3952C46.086 69.7047 46.3098 70.0904 46.7955 70.1761C47.2384 70.2571 47.5765 70.0333 47.6431 69.6666C47.7098 69.2666 47.4193 68.9571 47.0622 68.8904ZM46.6384 70.9523C46.2336 70.8761 45.7146 71.038 45.6146 71.5999C45.5336 72.0999 45.8669 72.4999 46.3812 72.5904C46.9622 72.6952 47.3146 72.2857 47.3765 71.9285C47.4431 71.5571 47.2574 71.0666 46.6384 70.9571M46.6384 70.9571C46.2336 70.8809 45.7146 71.0428 45.6146 71.6047C45.5336 72.1047 45.8669 72.5047 46.3812 72.5952C46.9622 72.6999 47.3146 72.2904 47.3765 71.9333C47.4431 71.5619 47.2574 71.0714 46.6384 70.9619M47.0622 68.8999C46.5574 68.8047 46.205 69.0238 46.1336 69.4047C46.086 69.7142 46.3098 70.0999 46.7955 70.1857C47.2384 70.2666 47.5765 70.0428 47.6431 69.6761C47.7098 69.2761 47.4193 68.9666 47.0622 68.8999ZM51.4908 69.1047C51.205 69.1333 50.5908 69.3047 50.6527 70.0571C50.7146 70.8476 51.2479 70.9714 51.6765 70.938C52.0765 70.9047 52.4908 70.6095 52.4384 69.9952C52.3908 69.3999 52.0765 69.0523 51.4908 69.1047ZM57.1241 68.8523C56.9289 68.2904 56.5431 68.0333 55.9908 68.2285C55.7146 68.319 55.1669 68.6476 55.4098 69.3571C55.6622 70.1047 56.2098 70.0952 56.6146 69.9571C56.9955 69.8238 57.3241 69.4476 57.1241 68.8523ZM57.1241 68.8523C56.9289 68.2904 56.5431 68.0333 55.9908 68.2285C55.7146 68.319 55.1669 68.6476 55.4098 69.3571C55.6622 70.1047 56.2098 70.0952 56.6146 69.9571C56.9955 69.8238 57.3241 69.4476 57.1241 68.8523ZM51.4908 69.1047C51.205 69.1333 50.5908 69.3047 50.6527 70.0571C50.7146 70.8476 51.2479 70.9714 51.6765 70.938C52.0765 70.9047 52.4908 70.6095 52.4384 69.9952C52.3908 69.3999 52.0765 69.0523 51.4908 69.1047ZM47.0622 68.8999C46.5574 68.8047 46.205 69.0238 46.1336 69.4047C46.086 69.7142 46.3098 70.0999 46.7955 70.1857C47.2384 70.2666 47.5765 70.0428 47.6431 69.6761C47.7098 69.2761 47.4193 68.9666 47.0622 68.8999ZM46.6384 70.9619C46.2336 70.8857 45.7146 71.0476 45.6146 71.6095C45.5336 72.1095 45.8669 72.5095 46.3812 72.5999C46.9622 72.7047 47.3146 72.2952 47.3765 71.938C47.4431 71.5666 47.2574 71.0761 46.6384 70.9666M46.6384 70.9666C46.2336 70.8904 45.7146 71.0523 45.6146 71.6142C45.5336 72.1142 45.8669 72.5142 46.3812 72.6047C46.9622 72.7095 47.3146 72.2999 47.3765 71.9428C47.4431 71.5714 47.2574 71.0809 46.6384 70.9714M47.0622 68.9095C46.5574 68.8142 46.205 69.0333 46.1336 69.4142C46.086 69.7238 46.3098 70.1095 46.7955 70.1952C47.2384 70.2761 47.5765 70.0523 47.6431 69.6857C47.7098 69.2857 47.4193 68.9761 47.0622 68.9095ZM51.4908 69.1142C51.205 69.1428 50.5908 69.3142 50.6527 70.0666C50.7146 70.8571 51.2479 70.9809 51.6765 70.9476C52.0765 70.9142 52.4908 70.619 52.4384 70.0047C52.3908 69.4095 52.0765 69.0619 51.4908 69.1142ZM51.4908 69.1142C51.205 69.1428 50.5908 69.3142 50.6527 70.0666C50.7146 70.8571 51.2479 70.9809 51.6765 70.9476C52.0765 70.9142 52.4908 70.619 52.4384 70.0047C52.3908 69.4095 52.0765 69.0619 51.4908 69.1142ZM47.0622 68.9095C46.5574 68.8142 46.205 69.0333 46.1336 69.4142C46.086 69.7238 46.3098 70.1095 46.7955 70.1952C47.2384 70.2761 47.5765 70.0523 47.6431 69.6857C47.7098 69.2857 47.4193 68.9761 47.0622 68.9095ZM46.6384 70.9714C46.2336 70.8952 45.7146 71.0571 45.6146 71.619C45.5336 72.119 45.8669 72.519 46.3812 72.6095C46.9622 72.7142 47.3146 72.3047 47.3765 71.9476C47.4431 71.5761 47.2574 71.0857 46.6384 70.9761" fill="white"></path><path d="M63.4574 27.9525C59.9812 22.324 55.2098 18.9049 50.0051 18.9097C44.7908 18.9049 40.0289 22.324 36.5479 27.9525C33.0765 33.5811 30.9051 41.3811 30.9146 50.0049C30.9098 58.624 33.0765 66.424 36.5479 72.0478C40.0289 77.6668 44.7955 81.0906 50.0051 81.0859C55.2146 81.0906 59.9812 77.6668 63.4574 72.0478C66.9384 66.424 69.1003 58.624 69.0955 50.0049C69.0955 41.3811 66.9384 33.5811 63.4574 27.9525ZM50.0051 79.3001C40.2432 79.2478 32.6146 66.0811 32.6003 50.0049C32.6146 33.9287 40.2432 20.7573 50.0051 20.7002C59.767 20.7573 67.3955 33.9287 67.4051 50.0049C67.3955 66.0811 59.7717 79.2478 50.0051 79.3001ZM50.8955 51.6001V47.8668H55.5908V34.8811C57.1622 35.4573 58.6051 36.2763 59.8908 37.2763V47.8668H65.9908C66.086 48.5716 66.1479 49.2763 66.1479 50.0049C66.1479 50.5382 66.1146 51.0763 66.0622 51.6001H59.8908V62.7192C58.6003 63.724 57.1574 64.543 55.586 65.124V51.6097L50.8908 51.6001H50.8955ZM47.886 34.0144V65.9906C46.8479 65.8525 45.8384 65.6192 44.867 65.3002V34.7049C45.8384 34.3811 46.8432 34.1478 47.886 34.0144ZM41.8574 36.0811V63.9192C40.7717 63.2811 39.7574 62.524 38.8479 61.6525V38.3478C39.7574 37.4811 40.7717 36.7287 41.8574 36.0811ZM33.867 50.0097C33.867 47.2001 34.5765 44.5668 35.8384 42.2621V57.743C34.5813 55.443 33.867 52.8144 33.867 50.0097Z" fill="#E0071B"></path><path d="M30.7095 11.3384L31.1143 12.0717L28.9 13.2955L29.2476 13.9289L31.2143 12.8431L31.6143 13.5717L29.6476 14.6574L30.1333 15.5336L29.2714 16.0098L27.6333 13.0431L30.7095 11.3431V11.3384Z" fill="white"></path><path d="M36.3001 12.6237L35.762 12.1523L33.8286 12.938L33.7715 13.6523L32.7905 14.0523L33.1334 10.2571L34.3905 9.74756L37.281 12.2285L36.3048 12.6237H36.3001ZM33.8953 12.1142L35.1334 11.6095L34.0143 10.6333L33.8953 12.1142Z" fill="white"></path><path d="M41.3476 10.1764L40.7619 7.81927L41.7095 7.58594L42.5238 10.8764L41.1286 11.224L38.6048 9.34784L39.1905 11.705L38.2381 11.9431L37.4238 8.6526L38.8238 8.30499L41.3476 10.1812V10.1764Z" fill="white"></path><path d="M46.1191 6.96208L50.2001 6.79541L50.2334 7.62874L48.6858 7.69065L48.7906 10.243L47.8096 10.2811L47.7049 7.72874L46.1525 7.79065L46.1191 6.95731V6.96208Z" fill="white"></path><path d="M51.3903 8.49526C51.4855 7.37622 52.3141 6.78098 53.7379 6.90479C55.1569 7.0286 55.876 7.75717 55.7807 8.87145C55.6855 9.9905 54.8522 10.5953 53.4331 10.4715C52.0093 10.3476 51.295 9.61907 51.3903 8.49526ZM54.7569 8.78574C54.8093 8.20003 54.5045 7.80955 53.6664 7.73812C52.8331 7.66669 52.4665 7.9905 52.4188 8.58574C52.3665 9.18098 52.676 9.57145 53.5045 9.64288C54.3379 9.71431 54.7093 9.38098 54.7617 8.7905L54.7569 8.78574Z" fill="white"></path><path d="M61.6239 8.36681L59.6334 9.38109L60.881 11.6763L59.6763 11.4049L58.8096 9.8049L57.862 10.2859L57.7096 10.9573L56.7524 10.7382L57.5001 7.42871L58.462 7.643L58.1286 9.12871L60.1953 8.03823L61.6334 8.36204L61.6239 8.36681Z" fill="white"></path><path d="M66.3286 9.99541L66.0667 10.7192L63.6858 9.85732L63.5 10.3668L65.7905 11.1954L65.5286 11.9192L63.2381 11.0906L63.0524 11.6002L65.4334 12.4573L65.1715 13.1811L61.8667 11.9859L63.0191 8.79541L66.3238 9.99065L66.3286 9.99541Z" fill="white"></path><path d="M69.7621 14.3526L70.8764 12.1907L71.7478 12.6383L70.1907 15.6526L68.9097 14.9907L68.2478 11.9097L67.1335 14.0716L66.2573 13.6193L67.8145 10.605L69.1002 11.2669L69.7621 14.3478V14.3526Z" fill="white"></path><path d="M27.395 85.4763C27.2474 85.7192 27.395 86.0239 28.1569 86.4858C28.8569 86.9049 29.095 86.9001 29.2045 86.7192C29.3331 86.5097 29.2236 86.3906 28.395 85.8144C27.2665 85.024 26.8903 84.4763 27.276 83.8335C27.6426 83.2287 28.4617 83.3478 29.4665 83.9525C30.5855 84.6239 31.0236 85.3525 30.6617 86.0144L29.7807 85.4859C29.9331 85.2287 29.7141 84.962 29.0617 84.5716C28.4426 84.2001 28.2426 84.2192 28.1474 84.3763C28.0379 84.5573 28.1474 84.6954 28.895 85.2335C29.9141 85.9573 30.5617 86.4478 30.1045 87.2097C29.6569 87.9525 28.8379 87.7573 27.8045 87.1335C26.6284 86.4239 26.0903 85.7382 26.5093 84.9478L27.3903 85.4811L27.395 85.4763Z" fill="white"></path><path d="M31.5236 87.1909C31.9712 86.1576 32.9426 85.8623 34.2569 86.429C35.5664 86.9957 36.014 87.9147 35.5712 88.9433C35.1236 89.9766 34.1426 90.2814 32.8331 89.7147C31.5188 89.148 31.0759 88.229 31.5236 87.1909ZM34.6283 88.5385C34.8616 87.9957 34.695 87.5338 33.9236 87.1957C33.1569 86.8623 32.7045 87.0576 32.4712 87.6004C32.2331 88.1481 32.4045 88.6147 33.1664 88.948C33.9331 89.2814 34.395 89.0814 34.6283 88.5338V88.5385Z" fill="white"></path><path d="M39.3047 88.2194C40.5047 88.5575 41.0428 89.2623 40.9047 90.129L39.9 89.848C39.919 89.529 39.6857 89.1909 39.0809 89.0242C38.3809 88.829 37.9476 89.0766 37.7857 89.648C37.6238 90.2242 37.8714 90.6671 38.5666 90.8623C39.1714 91.029 39.5476 90.8623 39.6952 90.5718L40.7 90.8528C40.3666 91.6718 39.5428 92.0004 38.3381 91.6671C37.0285 91.3004 36.4809 90.4909 36.7905 89.3718C37.1047 88.2575 37.9905 87.8528 39.3 88.2194H39.3047Z" fill="white"></path><path d="M43.3948 89.2289L42.7948 92.5623L41.8281 92.3861L42.4281 89.0527L43.3948 89.2289Z" fill="white"></path><path d="M44.4187 91.1481C44.5091 90.029 45.3329 89.4338 46.7567 89.5481C48.1758 89.6624 48.8996 90.3909 48.8091 91.5052C48.7187 92.6243 47.8901 93.229 46.471 93.1147C45.0472 93.0005 44.3282 92.2719 44.4234 91.1481H44.4187ZM47.7853 91.4243C47.8329 90.8386 47.5282 90.4528 46.6901 90.3814C45.8567 90.3148 45.4948 90.6433 45.4425 91.2338C45.3948 91.829 45.7044 92.2148 46.5329 92.2862C47.3663 92.3528 47.7377 92.0195 47.7853 91.4243Z" fill="white"></path><path d="M51.1187 92.048C51.1329 92.3337 51.4234 92.5051 52.3139 92.4575C53.1282 92.4146 53.3234 92.2766 53.3091 92.0623C53.2949 91.8146 53.1425 91.7813 52.1329 91.767C50.7568 91.7432 50.1329 91.5004 50.0949 90.748C50.0568 90.0432 50.8044 89.6813 51.9758 89.6242C53.2806 89.5575 54.052 89.9099 54.1187 90.6623L53.0949 90.7146C53.0806 90.4146 52.7472 90.3194 51.9853 90.3575C51.2663 90.3956 51.1091 90.5242 51.1187 90.7051C51.1282 90.9146 51.2949 90.9718 52.2187 91.0004C53.4663 91.0289 54.2806 91.0718 54.3282 91.9623C54.3758 92.8289 53.5853 93.1242 52.3806 93.1861C51.0091 93.2575 50.1758 92.9861 50.0806 92.0956L51.1091 92.0432L51.1187 92.048Z" fill="white"></path><path d="M55.7426 92.0429L56.6806 91.9048L56.7854 92.6334L55.8473 92.7715L55.7378 92.0429H55.7426Z" fill="white"></path><path d="M59.4808 88.5382C60.6951 88.243 61.5094 88.5953 61.8141 89.4191L60.7999 89.6668C60.6618 89.3763 60.2903 89.2001 59.6808 89.3477C58.9761 89.5192 58.7189 89.9477 58.857 90.5287C58.9999 91.1096 59.4332 91.3763 60.1332 91.2049C60.7427 91.0572 60.9903 90.7239 60.9761 90.3953L61.9903 90.1477C62.0999 91.0239 61.5427 91.7191 60.3284 92.0144C59.0046 92.3382 58.1284 91.9001 57.8522 90.7715C57.576 89.6477 58.1522 88.862 59.4761 88.5382H59.4808Z" fill="white"></path><path d="M63.1522 89.3956C62.7379 88.348 63.2189 87.4527 64.5474 86.9242C65.8712 86.4003 66.8427 86.7337 67.2522 87.7765C67.6665 88.8242 67.1855 89.7337 65.8617 90.2575C64.5331 90.7813 63.5665 90.448 63.1522 89.3956ZM66.2998 88.1527C66.0855 87.6051 65.6379 87.3908 64.857 87.7003C64.0808 88.0051 63.8951 88.4622 64.1141 89.0146C64.3331 89.5718 64.7855 89.7813 65.557 89.4765C66.3331 89.1718 66.5189 88.7051 66.2998 88.1527Z" fill="white"></path><path d="M69.3381 88.6907L67.6333 85.7574L68.9571 84.986L71.1095 86.3383L70.9952 83.8002L72.319 83.0288L74.0238 85.9621L73.1762 86.4526L71.9428 84.3288L72.0762 87.0955L71.2904 87.5526L68.9524 86.0717L70.1904 88.1955L69.3381 88.6907Z" fill="white"></path><path d="M23.019 81.8382C13.9952 74.1811 8.2666 62.7573 8.2666 50.0001C8.2666 37.243 14.2999 25.2144 23.738 17.562" stroke="#E0071B" stroke-miterlimit="10"></path><path d="M76.2666 17.5669C85.7047 25.2193 91.7333 36.905 91.7333 50.0002C91.7333 63.0955 86.0047 74.1859 76.9809 81.8431" stroke="#E0071B" stroke-miterlimit="10"></path></g><defs><clipPath id="clip0_101_22054"><rect width="100" height="100" fill="white"></rect></clipPath></defs></svg>