<svg xmlns="http://www.w3.org/2000/svg" width="100" height="100" viewBox="0 0 100 100" fill="none"><g clip-path="url(#clip0_101_22053)"><path d="M50 100C77.6142 100 100 77.6142 100 50C100 22.3858 77.6142 0 50 0C22.3858 0 0 22.3858 0 50C0 77.6142 22.3858 100 50 100Z" fill="#005596"></path><path d="M49.9999 98.7333C76.9146 98.7333 98.7333 76.9146 98.7333 49.9999C98.7333 23.0853 76.9146 1.2666 49.9999 1.2666C23.0853 1.2666 1.2666 23.0853 1.2666 49.9999C1.2666 76.9146 23.0853 98.7333 49.9999 98.7333Z" fill="#005596"></path><path d="M50 2.53333C76.1714 2.53333 97.4667 23.8286 97.4667 50C97.4667 76.1714 76.1714 97.4667 50 97.4667C23.8286 97.4667 2.53333 76.1714 2.53333 50C2.53333 23.8286 23.8286 2.53333 50 2.53333ZM50 0C22.3857 0 0 22.3857 0 50C0 77.6143 22.3857 100 50 100C77.6143 100 100 77.6143 100 50C100 22.3857 77.6143 0 50 0Z" fill="#005596"></path><path d="M50 100C77.6142 100 100 77.6142 100 50C100 22.3858 77.6142 0 50 0C22.3858 0 0 22.3858 0 50C0 77.6142 22.3858 100 50 100Z" fill="#E30613"></path><path d="M50 2.53333C76.1714 2.53333 97.4667 23.8286 97.4667 50C97.4667 76.1714 76.1714 97.4667 50 97.4667C23.8286 97.4667 2.53333 76.1714 2.53333 50C2.53333 23.8286 23.8286 2.53333 50 2.53333ZM50 0C22.3857 0 0 22.3857 0 50C0 77.6143 22.3857 100 50 100C77.6143 100 100 77.6143 100 50C100 22.3857 77.6143 0 50 0Z" fill="white"></path><path d="M49.9996 22.3569C57.3472 22.3569 64.4663 23.8665 71.152 26.8474C72.5425 32.5046 73.4187 38.4046 73.4377 42.2712C73.4377 42.3426 73.4377 42.4093 73.4377 42.4807C73.4377 46.2903 72.8901 50.0141 71.8091 53.5522C70.7472 57.0236 69.1663 60.3188 67.1091 63.3379C65.0853 66.3046 62.5901 69.0331 59.6949 71.4331C56.6187 73.9855 53.0044 76.2807 49.9996 77.5903C46.9949 76.2807 43.3806 73.9855 40.3044 71.4331C37.4091 69.0284 34.9139 66.3046 32.8901 63.3379C30.833 60.3188 29.252 57.0236 28.1901 53.5522C27.1091 50.0141 26.5615 46.295 26.5615 42.4807C26.5615 42.4093 26.5615 42.3426 26.5615 42.2712C26.5806 38.4046 27.4568 32.5046 28.8472 26.8474C35.533 23.8665 42.652 22.3569 49.9996 22.3569Z" fill="white"></path><path d="M50 44.1239C51.6286 44.1239 53.1619 44.5429 54.4857 45.2858H68.1429C68.1714 44.3334 68.1524 43.2572 68.1333 42.2429C68.0524 38.062 66.8381 31.0001 65.6476 26.1049C60.8048 24.5382 55.6048 23.6191 50.0048 23.6191V44.1239H50Z" fill="#CA0538"></path><path d="M50.0046 23.6333C44.5284 23.6333 39.4856 24.4523 34.3713 26.0952C33.1141 31.1714 32.076 37.8904 31.9189 41.1143C31.6903 45.8381 32.0332 49.2523 32.9808 52.9904C33.5141 55.0904 34.2189 57.0666 35.1189 59.0666C36.0903 58.5571 37.0998 57.9142 38.1141 57.1571C39.1856 56.3571 40.1141 55.3381 40.8713 54.3714C40.8332 54.0238 40.8094 53.6666 40.8094 53.3095C40.8094 52.7571 40.857 52.2143 40.9522 51.6904C39.0618 51.7571 37.9903 51.7809 37.1475 51.7809C36.1332 51.7809 35.2046 51.0714 34.757 49.9904H34.2808C33.9237 49.9904 33.3141 49.6857 33.3141 48.5333C33.3141 47.3809 33.9237 47.0762 34.2808 47.0762H34.757C35.2046 45.9904 36.1332 45.2809 37.1522 45.2809H45.5237C46.8475 44.5381 48.3808 44.1143 50.0046 44.1143V23.6333Z" fill="#E30613"></path><path d="M41.6855 69.6381C39.1046 67.0667 36.9712 64.2238 35.2855 61.1905C33.5712 58.1095 32.3569 54.6857 31.6379 51.2571C30.8998 47.7333 30.6665 44.1714 30.9141 40.3952C31.1474 36.8429 32.0855 31.4571 33.2426 26.481C32.1331 26.8714 31.0331 27.3 29.9474 27.7667C28.7284 32.6571 27.876 38.8667 27.8569 42.2571C27.8379 46.0381 28.376 49.7048 29.4284 53.1476C30.5331 56.7619 31.9998 59.7 33.9617 62.581C35.9141 65.4476 38.3284 68.081 41.1331 70.4095C43.7522 72.5857 46.7379 74.4952 49.995 76.1095C46.8998 74.2095 44.095 72.0333 41.6855 69.6286V69.6381Z" fill="#003671"></path><path d="M58.3095 69.638C60.8905 67.0666 63.0238 64.2237 64.7095 61.1904C66.4238 58.1094 67.6381 54.6856 68.3571 51.257C69.0952 47.7332 69.3286 44.1713 69.081 40.3951C68.8476 36.8427 67.9048 31.4523 66.7476 26.4761C67.8571 26.8666 68.9619 27.2999 70.0476 27.7666C71.2667 32.657 72.1191 38.8666 72.1381 42.2618C72.1571 46.0427 71.619 49.7094 70.5667 53.1523C69.5429 56.4999 68.0143 59.6761 66.0333 62.5856C64.081 65.4523 61.6667 68.0856 58.8619 70.4142C56.2429 72.5904 53.2571 74.4999 50 76.1142C53.0952 74.2142 55.9 72.038 58.3095 69.6332V69.638Z" fill="#003671"></path><path d="M49.9949 44.5811C45.1711 44.5811 41.2568 48.4906 41.2568 53.3144C41.2568 58.1382 45.1664 62.0525 49.9949 62.0525C54.8235 62.0525 58.7283 58.143 58.7283 53.3144C58.7283 48.4858 54.8187 44.5811 49.9949 44.5811Z" fill="#A2863F"></path><path d="M49.9998 62.5094C47.0331 62.5094 44.3855 61.0999 42.7045 58.9189C40.6522 60.0904 38.495 61.0142 36.4331 61.6475C38.0617 64.5094 40.0855 67.1856 42.5188 69.6332C44.7141 71.8428 47.2236 73.8618 49.9998 75.6618V62.5094Z" fill="#E30613"></path><path d="M37.1378 51.3284C36.1949 51.3284 35.3854 50.5855 35.0616 49.5379H34.2664C34.0616 49.5379 33.7568 49.2903 33.7568 48.5379C33.7568 47.7855 34.0616 47.5379 34.2664 47.5379H35.0616C35.3806 46.4903 36.1902 45.7427 37.1378 45.7427H44.7759C42.9235 47.0236 41.5616 48.9665 41.0378 51.2332C39.3473 51.2903 38.0473 51.3284 37.1378 51.3284Z" fill="#A2863F"></path><path d="M71.3426 26.6666C64.8522 23.7619 57.7141 22.1143 49.9998 22.1143C42.2855 22.1143 35.1426 23.7619 28.6569 26.6666C27.1617 32.7238 26.3569 38.5952 26.3379 42.2524C26.3188 46.1571 26.8712 49.9762 27.976 53.5952C29.0474 57.0905 30.6379 60.4047 32.7093 63.4428C34.7426 66.4285 37.2522 69.1666 40.1664 71.5857C42.9045 73.8619 46.6188 76.3571 50.0045 77.8143C53.3903 76.3524 57.0998 73.8571 59.8426 71.5857C62.7569 69.1666 65.2665 66.4285 67.2998 63.4428C69.3712 60.4047 70.9617 57.0905 72.0331 53.5952C73.1426 49.9762 73.695 46.1571 73.6712 42.2524C73.6522 38.6 72.8474 32.7238 71.3522 26.6666H71.3426ZM66.0331 62.5857C64.0807 65.4523 61.6665 68.0857 58.8617 70.4143C56.2426 72.5904 53.2522 74.5047 49.995 76.1143C46.7426 74.5 43.7522 72.5857 41.1331 70.4143C38.3284 68.0857 35.9188 65.4523 33.9617 62.5857C33.8045 62.3571 33.6569 62.1285 33.5045 61.9C36.3569 61.419 39.5141 60.2047 42.4284 58.5476C41.7045 57.5 41.1855 56.2952 40.9474 54.9952C40.2188 55.8904 39.3474 56.8 38.3522 57.5428C36.7426 58.7428 34.795 59.9381 32.695 60.5857C31.3188 58.2428 30.2236 55.7524 29.4284 53.1571C28.376 49.7143 27.8379 46.0476 27.8569 42.2666C27.876 38.8714 28.7284 32.6666 29.9474 27.7762C36.2903 25.0381 43.0331 23.6476 49.995 23.6476C56.9569 23.6476 63.6998 25.0381 70.0426 27.7762C71.2617 32.6666 72.1141 38.8762 72.1331 42.2666C72.1379 43.4428 72.0903 44.6047 71.9903 45.7524H55.195C57.2712 47.1857 58.7331 49.4524 59.0903 52.0666L62.2903 51.3047C63.0045 51.1428 63.2998 50.6619 63.376 50.219L71.4331 49.6762C71.1998 50.8571 70.9093 52.019 70.5617 53.1571C69.5379 56.5047 68.0093 59.6809 66.0284 62.5905L66.0331 62.5857Z" fill="#A2863F"></path><path d="M50.5713 55.7331V60.4378C52.7665 60.2617 54.6856 59.0902 55.8713 57.3807L51.7951 55.0283C51.4665 55.3712 51.0475 55.6188 50.5713 55.7331Z" fill="white"></path><path d="M49.4141 46.1953C47.2141 46.3715 45.2999 47.5429 44.1094 49.2572L48.176 51.6048C48.5046 51.2572 48.9284 51.0048 49.4094 50.8906V46.1953H49.4141Z" fill="white"></path><path d="M49.9902 52.043C49.2902 52.043 48.7188 52.6096 48.7188 53.3144C48.7188 54.0192 49.2854 54.5858 49.9902 54.5858C50.6949 54.5858 51.2616 54.0192 51.2616 53.3144C51.2616 52.6096 50.6949 52.043 49.9902 52.043Z" fill="white"></path><path d="M50.5713 46.1953V50.8906C51.0522 51.0048 51.4761 51.2572 51.8046 51.6048L55.8713 49.2572C54.6856 47.5429 52.7665 46.3715 50.5713 46.1953Z" fill="white"></path><path d="M49.4143 55.7331C49.0285 55.6426 48.6762 55.4569 48.3809 55.2093C48.3143 55.1521 48.2476 55.0902 48.1904 55.0283L44.1143 57.3807C44.2095 57.514 44.3047 57.6474 44.4095 57.7759C45.6047 59.2712 47.3904 60.2807 49.4143 60.4426V55.7378V55.7331Z" fill="white"></path><path d="M52.3809 54.024L56.4523 56.3764C57.2571 54.7335 57.4761 52.3811 56.4523 50.2573L52.3809 52.6049C52.5094 53.0288 52.5237 53.5383 52.3809 54.024Z" fill="white"></path><path d="M44.7904 49.124L48.1095 51.0383C48.3618 50.8288 48.6475 50.6621 48.9571 50.5526V46.7192C47.3142 46.9669 45.8285 47.824 44.7856 49.124H44.7904Z" fill="#A2863F"></path><path d="M51.0381 46.7192V50.5621C51.3428 50.6764 51.619 50.824 51.8714 51.0383L55.2 49.124C54.1619 47.8192 52.6809 46.9669 51.0381 46.7192Z" fill="#A2863F"></path><path d="M56.6523 52.6237C56.5904 52.038 56.4523 51.4666 56.2332 50.9189L52.8999 52.8332C52.9285 52.9904 52.9428 53.1523 52.9428 53.3142C52.9428 53.3808 52.9428 53.4428 52.9332 53.5094C53.8761 53.2523 54.8666 53.0047 55.8713 52.7951C56.1142 52.7428 56.3761 52.6856 56.6475 52.6285L56.6523 52.6237Z" fill="#A2863F"></path><path d="M49.9999 75.6621C52.7761 73.8668 55.2904 71.8382 57.4856 69.6287C60.057 67.0382 62.1808 64.1811 63.8523 61.1335C65.5523 58.0383 66.7523 54.5954 67.4523 51.1573C67.5046 50.8906 67.557 50.6382 67.6046 50.3716L63.7332 50.6478C63.5285 51.1906 63.0666 51.5906 62.4142 51.7383H62.4189C62.3951 51.743 60.9761 52.0954 59.1475 52.5192C59.1713 52.7811 59.1808 53.0478 59.1808 53.3144C59.1808 58.3906 55.0713 62.5097 49.9951 62.5097V75.6621H49.9999Z" fill="#CA0538"></path><path d="M50.8095 53.3142C50.8095 52.8618 50.4428 52.4951 49.9904 52.4951C49.5381 52.4951 49.1714 52.8618 49.1714 53.3142C49.1714 53.7665 49.5381 54.1332 49.9904 54.1332C50.4428 54.1332 50.8095 53.7665 50.8095 53.3142Z" fill="#A2863F"></path><path d="M51.0283 59.914C52.6712 59.6664 54.1617 58.814 55.1997 57.5093L51.8569 55.5854C51.6045 55.795 51.3331 55.9569 51.0283 56.0712C51.0283 56.0712 51.0331 59.914 51.0283 59.914Z" fill="#CA0538"></path><path d="M44.79 57.5141L48.1186 55.5903C48.371 55.7999 48.6519 55.957 48.9567 56.0713L48.9472 59.9189C47.3043 59.6713 45.8281 58.8189 44.79 57.5189V57.5141Z" fill="#E30613"></path><path d="M56.6854 53.3188C56.6854 53.2283 56.6854 53.1378 56.6807 53.0474C56.4283 53.1045 56.1854 53.1521 55.9616 53.2045C54.9474 53.4188 53.9616 53.6664 53.0854 53.9045L56.2331 55.7236C56.5331 54.9616 56.6854 54.1521 56.6854 53.3188Z" fill="#CA0538"></path><path d="M43.5281 50.2617C42.5853 52.257 42.6472 54.4998 43.5424 56.3855L47.6043 54.0284C47.4662 53.5712 47.4615 53.076 47.6043 52.6046L43.5329 50.2665L43.5281 50.2617Z" fill="white"></path><path d="M43.7663 55.7332L47.0806 53.8094C47.0234 53.4856 47.0234 53.157 47.0806 52.8285L43.7568 50.9189C43.152 52.4666 43.1568 54.1809 43.7663 55.7332Z" fill="#A2863F"></path><path d="M53.3236 38.3521C53.314 38.5331 53.2664 39.1331 53.2521 39.314H55.8998C55.7426 38.6045 55.6807 37.6236 55.6521 36.8902L55.6093 35.3616C55.6045 35.214 55.6474 35.095 55.7283 35.0093C55.8045 34.9283 55.9093 34.8855 56.0188 34.8807C56.1426 34.8807 56.3474 34.8807 56.3664 35.3093L56.4236 36.9331C56.4521 37.6664 56.4617 38.6902 56.3664 39.314H58.9474C58.9045 39.0902 58.8283 38.5616 58.814 38.414C59.1379 39.0997 59.8331 39.4521 60.7617 39.4521C61.3093 39.4521 61.7426 39.2521 62.0569 39.0569C62.0664 39.0759 62.1902 39.314 62.1902 39.314H66.9569C66.7426 38.595 66.614 37.6045 66.5283 36.8616L65.8759 31.5235L63.4188 31.1283C63.6188 31.795 63.7664 32.8188 63.8474 33.5521L64.214 36.9616C64.2855 37.5855 64.3474 38.2521 64.3426 38.9188V38.9997L64.2426 38.7569C64.0712 38.3426 63.9617 37.7569 63.9045 36.9712C63.9045 36.9664 63.8045 35.8759 63.8045 35.8759C63.676 34.1426 62.7188 33.3521 60.6521 33.3521C60.2998 33.3521 59.4188 33.4426 58.8855 33.595L59.0283 35.5712L59.5807 35.2331C60.0331 34.9569 60.395 34.8378 60.7998 34.8378C61.1283 34.8378 61.3426 34.9616 61.4426 35.1855C61.0379 35.2521 60.5998 35.3616 60.114 35.5759C59.3807 35.9045 58.9045 36.3759 58.714 36.9426C58.714 36.9283 58.714 36.9093 58.714 36.895L58.6283 35.0855C58.5855 33.914 57.8569 33.1855 56.7283 33.1855C56.2093 33.1855 55.7426 33.3331 55.3426 33.6236C55.3188 33.5521 55.295 33.4855 55.2712 33.4283L55.1712 33.2188L53.0521 33.1235C53.1474 33.5045 53.2807 34.5712 53.3093 34.9855C53.195 34.4093 52.895 33.795 52.3283 33.3997C51.895 33.0997 51.3521 32.9378 50.7569 32.9378C49.9712 32.9378 49.1759 33.2664 48.6331 33.8235C48.095 34.3712 47.7998 35.1188 47.7712 35.9997C47.5712 35.7807 47.3045 35.595 46.9759 35.4378L45.9998 34.9759L45.9521 34.9521C45.7188 34.8426 45.7093 34.8045 45.714 34.7426C45.7236 34.6426 45.9474 34.5378 46.2664 34.5378C46.6664 34.5378 47.2474 34.7378 47.714 35.0378L47.7521 33.295C47.4045 33.1378 46.9188 33.0093 46.2283 33.0093C45.8664 33.0093 45.1712 33.0616 44.5712 33.3997C44.4045 33.495 44.2569 33.5997 44.1236 33.7188L44.1521 33.2045C43.5902 33.1426 42.9855 33.1236 42.2474 33.8093C42.2426 33.7616 42.195 33.5236 42.1426 33.3855L39.8521 33.5236C40.0236 34.1378 40.0426 35.0664 39.995 35.895L39.9521 36.7664L39.9474 36.8664C39.9236 37.3235 39.895 37.7902 39.8474 38.2283C39.6569 37.6378 39.4474 36.8283 39.2855 36.1569L38.1569 31.0664L34.9283 31.5283C34.9569 31.595 34.9998 31.7569 35.0236 31.9188C35.0521 32.1331 35.0426 32.5712 34.7379 33.4664C34.2188 34.9759 33.4712 37.2045 32.7617 38.7426C32.6617 38.9569 32.4902 39.3093 32.4902 39.3093H35.0045C35.0379 38.914 35.2045 38.2664 35.3664 37.7902C35.714 37.7807 36.6283 37.7569 37.0474 37.7474C37.1236 38.114 37.2283 38.6283 37.2521 38.9331L37.2807 39.3093H42.3426C42.2236 38.514 42.2712 37.414 42.3045 36.795C42.3426 36.0855 42.4902 35.6378 42.7855 35.3283C43.014 35.0902 43.2855 35.0378 43.4712 35.0283C43.4474 35.9759 44.0664 36.414 44.6236 36.695L45.614 37.1997C45.9712 37.3855 45.9617 37.4807 45.9569 37.5426C45.9426 37.7331 45.6569 37.8045 45.395 37.7997C44.8807 37.7902 44.1664 37.4331 43.3617 36.5997L43.3188 38.8521C43.9569 39.2093 44.7283 39.3378 45.4283 39.3378C46.5759 39.3378 47.8045 38.8378 48.1379 37.7712C48.7045 38.8521 49.8331 39.3521 50.9474 39.3521C51.9426 39.3521 52.6855 39.0331 53.3379 38.3426L53.3236 38.3521ZM35.9759 36.095C36.1045 35.7188 36.2093 35.4188 36.4331 34.7807C36.5664 35.4188 36.6379 35.7521 36.7045 36.0712C36.4236 36.0807 36.2998 36.0855 35.9759 36.095ZM50.1093 35.5283C50.1093 35.5283 50.1093 35.514 50.1093 35.5093C50.1093 34.7426 50.395 34.4426 50.6664 34.414C50.7474 34.4045 50.9664 34.3855 51.0617 34.7474C51.0998 34.8855 51.1188 34.9902 51.1188 35.0712C51.1188 35.2807 51.0045 35.3188 50.8759 35.3664H50.8664C50.8664 35.3664 50.4759 35.5188 50.114 35.6569C50.114 35.614 50.1093 35.5664 50.1093 35.5235V35.5283ZM52.7426 37.095C52.2664 37.5045 51.9093 37.7712 51.3331 37.7616C50.8807 37.7521 50.5998 37.4474 50.4283 37.1045C50.9283 36.9188 52.7855 36.2188 53.3188 36.0188C53.3236 36.4093 53.3331 36.9331 53.3331 36.9331C53.3426 37.2474 53.3474 37.5474 53.3426 37.8474V37.8569L52.7426 37.095ZM61.3569 37.8188C60.9188 37.8331 60.8236 37.5378 60.814 37.3188C60.814 37.0902 60.8902 36.7521 61.5902 36.5664C61.6093 36.8045 61.6236 37.0474 61.6236 37.0474L61.6379 37.2664C61.6474 37.4188 61.6569 37.5616 61.6712 37.714C61.5807 37.7759 61.4712 37.8188 61.3474 37.8236L61.3569 37.8188Z" fill="#A1853E"></path><path d="M47.3476 33.5618C47.1238 33.4809 46.7666 33.3999 46.2238 33.3999C45.7761 33.3999 45.2095 33.4856 44.7619 33.738C44.2476 34.0285 43.8904 34.4904 43.8571 34.9809C43.8095 35.7094 44.2142 36.057 44.7857 36.3475C45.1761 36.5428 45.5476 36.7332 45.7809 36.8523C46.0952 37.0189 46.3666 37.2189 46.338 37.5809C46.3095 37.9523 45.9714 38.1999 45.3857 38.1999C44.8999 38.1999 44.2047 37.9142 43.7285 37.4809L43.7095 38.6189C44.1238 38.8285 44.7999 38.9523 45.4142 38.9523C46.4809 38.9523 47.7952 38.4666 47.819 37.219C47.838 36.3332 47.1857 35.9666 46.7999 35.7856C46.4142 35.6047 46.0095 35.4094 45.819 35.3189C45.6428 35.2332 45.2761 35.0951 45.3095 34.6951C45.338 34.3094 45.7809 34.1285 46.2523 34.1285C46.6523 34.1285 47.038 34.238 47.3333 34.3999L47.3476 33.557V33.5618Z" fill="white"></path><path d="M37.8476 31.514L35.4095 31.8617C35.4714 32.2093 35.3762 32.8188 35.1095 33.595C34.5952 35.0902 33.7714 37.4998 33.1143 38.9188H34.6524C34.7285 38.4664 34.8571 37.9998 35.0762 37.4093L37.3571 37.3474C37.4571 37.795 37.6143 38.514 37.6428 38.9188H39.6762C39.4238 38.3331 39.1 37.0902 38.9 36.2378L37.8476 31.5093V31.514ZM35.4095 36.514L36.5238 33.3045L37.1857 36.4569L35.4047 36.514H35.4095Z" fill="white"></path><path d="M43.7284 33.571L43.676 34.6519C43.3189 34.6043 42.8475 34.6853 42.4856 35.0615C42.1522 35.4091 41.9427 35.9139 41.8951 36.7758C41.857 37.4853 41.8284 38.2662 41.8903 38.9186H40.1475C40.2617 38.271 40.2998 37.4996 40.3427 36.79L40.3856 35.9186C40.4237 35.2091 40.4284 34.5377 40.3189 33.89L41.8379 33.7948C41.9094 34.0472 41.9427 34.3948 41.9284 34.771C42.5951 33.771 43.2427 33.5472 43.7284 33.571Z" fill="white"></path><path d="M65.5143 31.871L63.9429 31.6187C64.0953 32.2758 64.1572 32.7996 64.2381 33.5044L64.6048 36.9187C64.6857 37.6282 64.7429 38.2758 64.7333 38.9234H66.4333C66.281 38.2758 66.2048 37.6329 66.1238 36.9187L65.5095 31.871H65.5143Z" fill="white"></path><path d="M58.4809 38.9186C58.3762 38.2709 58.3381 37.6281 58.3143 36.9138L58.2286 35.109C58.1905 34.1519 57.6429 33.5805 56.719 33.5805C56.2143 33.5805 55.6095 33.7424 55.0952 34.3947C55.0809 34.2566 55 33.8043 54.9048 33.5995L53.519 33.5376C53.6381 34.209 53.6762 34.8805 53.7 35.5852L53.719 36.9138C53.7476 37.6233 53.7286 38.2709 53.6762 38.9186H55.419C55.3143 38.2709 55.2762 37.6281 55.2524 36.9138L55.2095 35.3805C55.1905 34.8376 55.5952 34.49 56.0143 34.4852C56.5 34.4805 56.7381 34.7995 56.7571 35.2852L56.8143 36.909C56.8429 37.6186 56.8524 38.2662 56.7952 38.9138H58.4714L58.4809 38.9186Z" fill="white"></path><path d="M63.8763 38.9187C63.6667 38.4045 63.562 37.7235 63.5096 37.014L63.4096 35.9235C63.3144 34.6378 62.7715 33.7568 60.6429 33.7568C60.2763 33.7568 59.7382 33.814 59.3048 33.914L59.3763 34.9045C59.8096 34.6378 60.2572 34.4473 60.8048 34.4473C61.3525 34.4473 61.862 34.6806 61.9096 35.5283C61.362 35.5902 60.8429 35.6854 60.2667 35.9426C59.6191 36.233 58.9477 36.7568 59.0144 37.6473C59.0858 38.633 59.8286 39.0616 60.7667 39.0616C61.4715 39.0616 61.9667 38.6949 62.2334 38.4235C62.281 38.6045 62.3525 38.7902 62.4286 38.9283H63.8763V38.9187ZM61.3524 38.2092C60.862 38.233 60.4334 37.9711 60.4191 37.3378C60.4048 36.7711 60.7905 36.2711 61.9572 36.0806L62.0239 37.0092C62.0477 37.3283 62.0572 37.5568 62.0953 37.8616C61.9286 38.0616 61.6524 38.1949 61.3524 38.2092Z" fill="white"></path><path d="M52.0907 33.7235C51.7049 33.4568 51.2383 33.333 50.7478 33.333C49.6192 33.333 48.1145 34.133 48.1526 36.2282C48.1907 38.3282 49.8002 38.9711 50.9335 38.9711C51.9288 38.9711 52.5288 38.6187 53.024 38.0997L52.6764 37.6568C52.4097 37.8663 52.0002 38.1759 51.324 38.1616C50.6097 38.1473 50.1383 37.614 49.9097 36.8806L53.0383 35.7044C52.943 34.6711 52.5859 34.0711 52.0907 33.7235ZM51.0049 35.7473L49.7621 36.2235C49.7288 35.9997 49.7145 35.7663 49.7145 35.533C49.7049 34.2378 50.4049 34.0473 50.6288 34.0235C51.0145 33.9901 51.324 34.1997 51.443 34.6473C51.5811 35.1521 51.5478 35.5521 51.0049 35.7473Z" fill="white"></path><path d="M55.8378 75.9097C56.3759 75.9097 56.8092 76.3478 56.8092 76.8954C56.8092 77.443 56.3806 77.8859 55.833 77.8859C55.2854 77.8859 54.8521 77.4525 54.8521 76.8954C54.8521 76.3382 55.2901 75.9097 55.833 75.9097H55.8378ZM55.8378 76.062C55.4044 76.062 55.0473 76.4335 55.0473 76.8954C55.0473 77.3573 55.4044 77.7335 55.8425 77.7335C56.2806 77.7335 56.633 77.3668 56.633 76.9001C56.633 76.4335 56.2806 76.062 55.8425 76.062H55.8378ZM55.6521 77.4716H55.4759V76.3716C55.5663 76.3573 55.6568 76.343 55.7854 76.343C55.9521 76.343 56.0616 76.3763 56.1282 76.4287C56.1949 76.4763 56.2282 76.5525 56.2282 76.6573C56.2282 76.8001 56.133 76.8906 56.014 76.9239V76.9335C56.1092 76.9525 56.1759 77.0382 56.1997 77.2001C56.2282 77.3716 56.252 77.4382 56.2711 77.4716H56.0854C56.0568 77.4382 56.033 77.3335 56.0092 77.1906C55.9806 77.0525 55.914 76.9954 55.7711 76.9954H55.6473V77.4716H55.6521ZM55.6521 76.862H55.7806C55.9235 76.862 56.0473 76.8097 56.0473 76.6716C56.0473 76.5763 55.9759 76.4763 55.7806 76.4763C55.7235 76.4763 55.6854 76.4763 55.6521 76.4859V76.8573V76.862Z" fill="black"></path><path d="M30.7095 11.3384L31.1143 12.0717L28.9 13.2955L29.2476 13.9289L31.2143 12.8431L31.6143 13.5717L29.6476 14.6574L30.1333 15.5336L29.2714 16.0098L27.6333 13.0431L30.7095 11.3431V11.3384Z" fill="white"></path><path d="M36.3001 12.6237L35.762 12.1523L33.8286 12.938L33.7715 13.6523L32.7905 14.0523L33.1334 10.2571L34.3905 9.74756L37.281 12.2285L36.3048 12.6237H36.3001ZM33.8953 12.1142L35.1334 11.6095L34.0143 10.6333L33.8953 12.1095V12.1142Z" fill="white"></path><path d="M41.3476 10.1764L40.7619 7.81927L41.7095 7.58594L42.5238 10.8764L41.1286 11.224L38.6048 9.34784L39.1905 11.705L38.2381 11.9431L37.4238 8.6526L38.8238 8.30499L41.3476 10.1812V10.1764Z" fill="white"></path><path d="M46.1191 6.96208L50.2001 6.79541L50.2334 7.62874L48.6858 7.69065L48.7906 10.243L47.8096 10.2811L47.7049 7.72874L46.1525 7.79065L46.1191 6.95731V6.96208Z" fill="white"></path><path d="M51.3903 8.49526C51.4855 7.37622 52.3141 6.78098 53.7379 6.90479C55.1569 7.0286 55.876 7.75717 55.7807 8.87145C55.6855 9.9905 54.8522 10.5905 53.4331 10.4715C52.0093 10.3476 51.295 9.61907 51.3903 8.49526ZM54.7569 8.78574C54.8093 8.20003 54.5045 7.80955 53.6664 7.73812C52.8331 7.66669 52.4665 7.9905 52.4188 8.58574C52.3665 9.18098 52.676 9.57145 53.5045 9.64288C54.3379 9.71431 54.7093 9.38098 54.7617 8.7905L54.7569 8.78574Z" fill="white"></path><path d="M61.6239 8.36693L59.6334 9.38121L60.881 11.6765L59.6763 11.405L58.8096 9.80502L57.862 10.286L57.7096 10.9574L56.7524 10.7431L57.5001 7.43359L58.462 7.65264L58.1286 9.13836L60.1953 8.04788L61.6334 8.37169L61.6239 8.36693Z" fill="white"></path><path d="M66.3286 9.99553L66.0667 10.7193L63.6858 9.85744L63.5 10.367L65.7905 11.1955L65.5286 11.9193L63.2381 11.0908L63.0524 11.6003L65.4334 12.4622L65.1715 13.186L61.8667 11.9908L63.0191 8.80029L66.3238 9.99553H66.3286Z" fill="white"></path><path d="M69.7621 14.3526L70.8764 12.1907L71.7478 12.6383L70.1907 15.6526L68.9097 14.9907L68.2478 11.9097L67.1335 14.0716L66.2573 13.6193L67.8145 10.605L69.1002 11.2669L69.7621 14.3478V14.3526Z" fill="white"></path><path d="M27.395 85.4763C27.2474 85.7192 27.395 86.0239 28.1569 86.4858C28.8569 86.9049 29.095 86.9001 29.2045 86.7192C29.3331 86.5097 29.2236 86.3906 28.395 85.8144C27.2665 85.024 26.8903 84.4763 27.276 83.8335C27.6426 83.2287 28.4617 83.3478 29.4665 83.9525C30.5855 84.6239 31.0236 85.3525 30.6617 86.0144L29.7807 85.4859C29.9331 85.2287 29.7141 84.962 29.0617 84.5716C28.4426 84.2001 28.2426 84.2192 28.1474 84.3763C28.0379 84.5573 28.1474 84.6954 28.895 85.2335C29.9141 85.9573 30.5617 86.4478 30.1045 87.2097C29.6569 87.9525 28.8379 87.7573 27.8045 87.1335C26.6284 86.4239 26.0903 85.7382 26.5093 84.9478L27.3903 85.4811L27.395 85.4763Z" fill="white"></path><path d="M31.5236 87.1909C31.9712 86.1576 32.9426 85.8623 34.2569 86.429C35.5664 86.9957 36.014 87.9147 35.5712 88.9433C35.1236 89.9766 34.1426 90.2814 32.8331 89.7147C31.5188 89.148 31.0759 88.229 31.5236 87.1909ZM34.6283 88.5385C34.8616 87.9957 34.695 87.5338 33.9236 87.1957C33.1569 86.8623 32.7045 87.0576 32.4712 87.6004C32.2331 88.1481 32.4045 88.6147 33.1664 88.948C33.9331 89.2814 34.395 89.0814 34.6283 88.5338V88.5385Z" fill="white"></path><path d="M39.3047 88.2194C40.5047 88.5575 41.0428 89.2623 40.9047 90.129L39.9 89.848C39.919 89.529 39.6857 89.1909 39.0809 89.0242C38.3809 88.829 37.9476 89.0766 37.7857 89.648C37.6238 90.2242 37.8714 90.6671 38.5666 90.8623C39.1714 91.029 39.5476 90.8623 39.6952 90.5718L40.7 90.8528C40.3666 91.6718 39.5428 92.0004 38.3381 91.6671C37.0285 91.3004 36.4809 90.4909 36.7905 89.3718C37.1047 88.2575 37.9905 87.8528 39.3 88.2194H39.3047Z" fill="white"></path><path d="M43.3948 89.2289L42.7948 92.5623L41.8281 92.3861L42.4281 89.0527L43.3948 89.2289Z" fill="white"></path><path d="M44.4187 91.1481C44.5091 90.029 45.3329 89.4338 46.7567 89.5481C48.1758 89.6624 48.8996 90.3909 48.8091 91.5052C48.7187 92.6243 47.8901 93.229 46.471 93.1147C45.0472 93.0005 44.3282 92.2719 44.4234 91.1481H44.4187ZM47.7853 91.4243C47.8329 90.8386 47.5282 90.4528 46.6901 90.3814C45.8567 90.3148 45.4948 90.6433 45.4425 91.2338C45.3948 91.829 45.7044 92.2148 46.5329 92.2862C47.3663 92.3528 47.7377 92.0195 47.7853 91.4243Z" fill="white"></path><path d="M51.1187 92.048C51.1329 92.3337 51.4234 92.5051 52.3139 92.4575C53.1282 92.4146 53.3234 92.2766 53.3091 92.0623C53.2949 91.8146 53.1425 91.7813 52.1329 91.767C50.7568 91.7432 50.1329 91.5004 50.0949 90.748C50.0568 90.0432 50.8044 89.6813 51.9758 89.6242C53.2806 89.5575 54.052 89.9099 54.1187 90.6623L53.0949 90.7146C53.0806 90.4146 52.7472 90.3194 51.9853 90.3575C51.2663 90.3956 51.1091 90.5242 51.1187 90.7051C51.1282 90.9146 51.2949 90.9718 52.2187 91.0004C53.4663 91.0289 54.2806 91.0718 54.3282 91.9623C54.3758 92.8289 53.5853 93.1242 52.3806 93.1861C51.0091 93.2575 50.1758 92.9861 50.0806 92.0956L51.1091 92.0432L51.1187 92.048Z" fill="white"></path><path d="M55.7426 92.0429L56.6806 91.9048L56.7854 92.6334L55.8473 92.7715L55.7378 92.0429H55.7426Z" fill="white"></path><path d="M59.4808 88.5382C60.6951 88.243 61.5094 88.5953 61.8141 89.4191L60.7999 89.6668C60.6618 89.3763 60.2903 89.2001 59.6808 89.3477C58.9761 89.5192 58.7189 89.9477 58.857 90.5287C58.9999 91.1096 59.4332 91.3763 60.1332 91.2049C60.7427 91.0572 60.9903 90.7239 60.9761 90.3953L61.9903 90.1477C62.0999 91.0239 61.5427 91.7191 60.3284 92.0144C59.0046 92.3382 58.1284 91.9001 57.8522 90.7715C57.576 89.6477 58.1522 88.862 59.4761 88.5382H59.4808Z" fill="white"></path><path d="M63.1522 89.3956C62.7379 88.348 63.2189 87.4527 64.5474 86.9242C65.8712 86.4003 66.8427 86.7337 67.2522 87.7765C67.6665 88.8242 67.1855 89.7337 65.8617 90.2575C64.5331 90.7813 63.5665 90.448 63.1522 89.3956ZM66.2998 88.1527C66.0855 87.6051 65.6379 87.3908 64.857 87.7003C64.0808 88.0051 63.8951 88.4622 64.1141 89.0146C64.3331 89.5718 64.7855 89.7813 65.557 89.4765C66.3331 89.1718 66.5189 88.7051 66.2998 88.1527Z" fill="white"></path><path d="M69.3381 88.6907L67.6333 85.7574L68.9571 84.986L71.1095 86.3383L70.9952 83.8002L72.319 83.0288L74.0238 85.9621L73.1762 86.4526L71.9428 84.3288L72.0762 87.0955L71.2904 87.5526L68.9524 86.0717L70.1904 88.1955L69.3381 88.6907Z" fill="white"></path><path d="M23.019 81.8382C13.9952 74.1811 8.2666 62.7573 8.2666 50.0001C8.2666 37.243 14.2999 25.2144 23.738 17.562" stroke="white" stroke-miterlimit="10"></path><path d="M76.2666 17.5669C85.7047 25.2193 91.7333 36.905 91.7333 50.0002C91.7333 63.0955 86.0047 74.1859 76.9809 81.8431" stroke="white" stroke-miterlimit="10"></path></g><defs><clipPath id="clip0_101_22053"><rect width="100" height="100" fill="white"></rect></clipPath></defs></svg>