<svg xmlns="http://www.w3.org/2000/svg" width="100" height="100" viewBox="0 0 100 100" fill="none"><g clip-path="url(#clip0_101_22124)"><path d="M83.5621 16.4381C79.2002 12.0762 74.124 8.65713 68.4717 6.26666C62.6193 3.79047 56.405 2.53809 49.9955 2.53809C43.586 2.53809 37.3717 3.79047 31.5193 6.26666C25.8669 8.65713 20.7907 12.0809 16.4288 16.4381C12.0669 20.8 8.64786 25.8762 6.25738 31.5286C3.78119 37.3809 2.52881 43.5952 2.52881 50.0048C2.52881 56.4143 3.78119 62.6286 6.25738 68.4809C8.64786 74.1333 12.0717 79.2095 16.4288 83.5714C20.7907 87.9333 25.8669 91.3524 31.5193 93.7429C37.3717 96.219 43.586 97.4714 49.9955 97.4714C56.405 97.4714 62.6193 96.219 68.4717 93.7429C74.124 91.3524 79.2002 87.9286 83.5621 83.5714C87.924 79.2095 91.3431 74.1333 93.7336 68.4809C96.2098 62.6286 97.4621 56.4143 97.4621 50.0048C97.4621 43.5952 96.2098 37.3809 93.7336 31.5286C91.3431 25.8762 87.9193 20.8 83.5621 16.4381Z" fill="white"></path><path d="M98.4238 37.5048C98.219 36.7048 97.9952 35.9143 97.7524 35.1333C97.5095 34.3524 97.2476 33.5762 96.9667 32.8095C96.8286 32.4286 96.681 32.0476 96.5333 31.6667C96.2333 30.9095 95.919 30.1619 95.5857 29.4238C95.419 29.0524 95.2476 28.6857 95.0714 28.3238C94.719 27.5952 94.3524 26.8762 93.9667 26.1667C93.7762 25.8143 93.5762 25.4619 93.3762 25.1095C92.9762 24.4095 92.5571 23.7238 92.1238 23.0476C91.6905 22.3714 91.2429 21.7048 90.7762 21.0524C90.5429 20.7238 90.3095 20.4 90.0667 20.081C89.5857 19.4381 89.0905 18.8095 88.581 18.1905C87.8191 17.2667 87.0191 16.3667 86.1905 15.5C84.5333 13.7619 82.7571 12.1476 80.8667 10.6619C79.9238 9.91905 78.9524 9.20952 77.9524 8.5381C76.9571 7.86191 75.9333 7.22381 74.8857 6.62381C73.1429 5.61905 71.3286 4.71905 69.4619 3.92857C63.4809 1.4 56.9048 0 50 0C43.0952 0 36.519 1.4 30.5381 3.92857C28.6667 4.71905 26.8571 5.61905 25.1143 6.62381C24.0667 7.22381 23.0429 7.86667 22.0476 8.5381C21.0524 9.21429 20.0762 9.91905 19.1333 10.6619C17.2429 12.1476 15.4667 13.7619 13.8095 15.5C12.981 16.3667 12.1857 17.2667 11.419 18.1905C10.9095 18.8095 10.4143 19.4381 9.93333 20.081C9.69524 20.4 9.45714 20.7238 9.22381 21.0524C8.75714 21.7048 8.30952 22.3714 7.87619 23.0476C7.44286 23.7238 7.02381 24.4095 6.62381 25.1095C6.42381 25.4571 6.22857 25.8095 6.03333 26.1667C5.64762 26.8762 5.28095 27.5952 4.92857 28.3238C4.75238 28.6905 4.58095 29.0571 4.41429 29.4238C4.08095 30.1619 3.7619 30.9095 3.46667 31.6667C3.31905 32.0429 3.17143 32.4238 3.03333 32.8095C2.75238 33.5762 2.49048 34.3476 2.24762 35.1333C2.00476 35.9143 1.78095 36.7095 1.57619 37.5048C0.547619 41.5 0 45.6857 0 50C0 54.3143 0.547619 58.5 1.57619 62.4952C1.78095 63.2952 2.00476 64.0857 2.24762 64.8667C2.49048 65.6476 2.75238 66.4238 3.03333 67.1905C3.45238 68.3381 3.91429 69.4667 4.41429 70.5762C4.91429 71.6857 5.45714 72.7714 6.03333 73.8333C6.60952 74.8952 7.22381 75.9333 7.87619 76.9476C8.30952 77.6238 8.75714 78.2905 9.22381 78.9429C9.45714 79.2714 9.69048 79.5952 9.93333 79.9143C10.6524 80.8762 11.4048 81.8143 12.1905 82.719C12.7143 83.3238 13.2524 83.9143 13.8048 84.4952C15.4619 86.2333 17.2381 87.8476 19.1286 89.3333C20.0714 90.0762 21.0429 90.7857 22.0429 91.4571C24.7048 93.2524 27.5429 94.8 30.5381 96.0667C36.519 98.5952 43.0952 99.9952 50 99.9952C56.9048 99.9952 63.4809 98.5952 69.4619 96.0667C72.4524 94.8 75.2952 93.2524 77.9571 91.4571C78.9524 90.781 79.9286 90.0762 80.8714 89.3333C82.7619 87.8476 84.5381 86.2333 86.1952 84.4952C86.7476 83.9143 87.2857 83.3238 87.8095 82.719C88.5952 81.8095 89.3476 80.8762 90.0667 79.9143C90.3048 79.5952 90.5429 79.2714 90.7762 78.9429C91.2429 78.2905 91.6905 77.6238 92.1238 76.9476C92.7762 75.9333 93.3905 74.8952 93.9667 73.8333C94.5429 72.7714 95.0857 71.6857 95.5857 70.5762C96.0857 69.4667 96.5476 68.3381 96.9667 67.1905C97.2476 66.4238 97.5095 65.6524 97.7524 64.8667C97.9952 64.0857 98.219 63.2905 98.4238 62.4952C99.4524 58.5 100 54.3143 100 50C100 45.6857 99.4524 41.5 98.4238 37.5048ZM93.7333 68.4762C91.3429 74.1286 87.919 79.2048 83.5619 83.5667C79.2 87.9286 74.1238 91.3476 68.4714 93.7381C62.619 96.2143 56.4048 97.4667 49.9952 97.4667C43.5857 97.4667 37.3714 96.2143 31.519 93.7381C25.8667 91.3476 20.7905 87.9238 16.4286 83.5667C12.0667 79.2048 8.64762 74.1286 6.25714 68.4762C3.78095 62.6238 2.52857 56.4095 2.52857 50C2.52857 43.5905 3.78095 37.3762 6.25714 31.5238C8.64762 25.8714 12.0714 20.7952 16.4286 16.4333C20.7905 12.0714 25.8667 8.65238 31.519 6.2619C37.3714 3.78571 43.5857 2.53333 49.9952 2.53333C56.4048 2.53333 62.619 3.78571 68.4714 6.2619C74.1238 8.65238 79.2 12.0762 83.5619 16.4333C87.9238 20.7952 91.3429 25.8714 93.7333 31.5238C96.2095 37.3762 97.4619 43.5905 97.4619 50C97.4619 56.4095 96.2095 62.6238 93.7333 68.4762Z" fill="#F48120"></path><path fill-rule="evenodd" clip-rule="evenodd" d="M50 16.519C68.4905 16.519 83.4809 31.5095 83.4809 50C83.4809 68.4905 68.4905 83.4809 50 83.4809C31.5095 83.4809 16.519 68.4905 16.519 50C16.519 31.5095 31.5095 16.519 50 16.519Z" fill="#231F20"></path><path fill-rule="evenodd" clip-rule="evenodd" d="M50 16.519C68.4905 16.519 83.4809 31.5095 83.4809 50C83.4809 68.4905 68.4905 83.4809 50 83.4809C31.5095 83.4809 16.519 68.4905 16.519 50C16.519 31.5095 31.5095 16.519 50 16.519Z" fill="#231F20"></path><path fill-rule="evenodd" clip-rule="evenodd" d="M50.0002 17.2764C68.0716 17.2764 82.724 31.9287 82.724 50.0002C82.724 68.0716 68.0716 82.724 50.0002 82.724C31.9287 82.724 17.2764 68.0716 17.2764 50.0002C17.2764 31.9287 31.9287 17.2764 50.0002 17.2764Z" fill="white"></path><path fill-rule="evenodd" clip-rule="evenodd" d="M49.9998 25.2998C63.6427 25.2998 74.6998 36.3569 74.6998 49.9998C74.6998 63.6427 63.6427 74.6998 49.9998 74.6998C36.3569 74.6998 25.2998 63.6427 25.2998 49.9998C25.2998 36.3569 36.3569 25.2998 49.9998 25.2998Z" fill="#231F20"></path><path fill-rule="evenodd" clip-rule="evenodd" d="M50 26.1333C63.1809 26.1333 73.8666 36.819 73.8666 50C73.8666 63.1809 63.1809 73.8666 50 73.8666C36.819 73.8666 26.1333 63.1809 26.1333 50C26.1333 36.819 36.819 26.1333 50 26.1333Z" fill="#F48120"></path><path fill-rule="evenodd" clip-rule="evenodd" d="M49.7427 55.543C44.8713 55.7906 40.9951 59.8001 40.9951 64.7096C40.9951 69.6192 45.1237 73.8906 50.2189 73.8906C55.3142 73.8906 59.4427 69.7811 59.4427 64.7096C59.4427 59.9287 55.7713 56.0049 51.0808 55.5715L50.3856 56.3001L49.7475 55.543H49.7427Z" fill="white"></path><path fill-rule="evenodd" clip-rule="evenodd" d="M78.4859 67.2474C61.7859 49.0379 38.4573 48.4141 21.6812 67.2855C31.8526 51.1951 41.3716 34.3379 49.9335 16.8951C50.524 16.4665 50.3621 16.7284 50.8478 16.8617C59.6526 34.6284 68.9478 51.2522 78.5526 67.1617C78.5193 67.1808 78.5002 67.2141 78.4907 67.2474" fill="#231F20"></path><path fill-rule="evenodd" clip-rule="evenodd" d="M75.4333 63.4237C59.5999 48.8761 40.0809 48.6951 24.2476 63.9999C33.919 48.7047 42.338 33.9666 50.4428 17.3618C58.8666 34.4285 66.2238 48.1856 75.4333 63.4237Z" fill="#439142"></path><path fill-rule="evenodd" clip-rule="evenodd" d="M50.3809 34.1094C40.8952 41.5332 42.0237 54.6665 50.0666 60.7189C58.5904 55.5475 59.6952 40.376 50.3809 34.1094Z" fill="#231F20"></path><path fill-rule="evenodd" clip-rule="evenodd" d="M55.0617 42.9045C55.8426 44.8712 55.9188 46.795 55.7236 49.1807C52.9807 47.2903 50.676 46.3712 47.9331 44.4807C47.995 42.0712 48.4712 39.8522 50.1379 38.9141C51.1855 39.6331 52.4664 41.2283 52.7141 42.8664C53.7093 42.9188 54.0617 42.8522 55.0617 42.9045Z" fill="#FFF100"></path><path fill-rule="evenodd" clip-rule="evenodd" d="M51.495 54.976C56.3236 55.6045 60.0522 59.7141 60.0522 64.695C60.0522 70.1093 55.6426 74.495 50.2046 74.495C44.7665 74.495 40.3569 70.1093 40.3569 64.695C40.3569 59.576 44.2998 55.3712 49.3284 54.9331C49.4522 55.1379 49.5855 55.3379 49.7284 55.5283C44.8569 55.776 40.9807 59.7855 40.9807 64.695C40.9807 69.6045 45.1093 73.876 50.2046 73.876C55.2998 73.876 59.4284 69.7664 59.4284 64.695C59.4284 59.9141 55.7569 55.9902 51.0665 55.5569C51.2188 55.3712 51.3617 55.176 51.495 54.9807" fill="#231F20"></path><path d="M53.3808 67.8334C53.3808 67.7191 53.3666 67.6381 53.338 67.6C53.3094 67.5619 53.2666 67.5429 53.2047 67.5429C53.1428 67.5429 53.0999 67.5619 53.0761 67.6C53.0475 67.6381 53.038 67.7143 53.038 67.8334V68.2286C53.038 68.3619 53.0523 68.4429 53.0808 68.481C53.1094 68.5191 53.157 68.5381 53.2189 68.5381C53.2808 68.5381 53.3285 68.5191 53.3475 68.481C53.3713 68.4429 53.3808 68.3572 53.3808 68.2238V67.8334ZM53.3618 66.5715C53.3618 66.4667 53.3523 66.4 53.3285 66.3667C53.3047 66.3334 53.2666 66.3191 53.2047 66.3191C53.1428 66.3191 53.1047 66.3381 53.0808 66.3715C53.0618 66.4096 53.0475 66.4762 53.0475 66.5715V66.8C53.0475 66.8905 53.0618 66.9572 53.0856 66.9905C53.1094 67.0238 53.1523 67.0429 53.2094 67.0429C53.2713 67.0429 53.3094 67.0238 53.3332 66.9905C53.3523 66.9572 53.3666 66.8858 53.3666 66.7762V66.5667L53.3618 66.5715ZM53.8713 67.2238C54.0047 67.2667 54.1094 67.3381 54.1808 67.4238C54.2523 67.5143 54.2904 67.7286 54.2904 68.0619C54.2904 68.3096 54.2618 68.4858 54.2047 68.6048C54.1475 68.7191 54.038 68.8143 53.8713 68.8905C53.7047 68.9667 53.4856 69 53.2047 69C52.9237 69 52.7189 68.9619 52.5618 68.8953C52.4047 68.8238 52.2904 68.7286 52.2237 68.6096C52.157 68.4905 52.1189 68.2953 52.1189 68.0239C52.1189 67.8381 52.138 67.681 52.1713 67.5477C52.2047 67.4143 52.3094 67.3048 52.4904 67.2238C52.3761 67.1762 52.2904 67.1048 52.238 67.0096C52.1808 66.9096 52.1523 66.7857 52.1523 66.6334C52.1523 66.3715 52.238 66.1762 52.4142 66.0429C52.5904 65.9143 52.8475 65.8477 53.1951 65.8477C53.5951 65.8477 53.8761 65.9191 54.0285 66.0572C54.1808 66.1953 54.257 66.3953 54.257 66.6524C54.257 66.8143 54.2332 66.9334 54.1808 67.0096C54.1285 67.081 54.0285 67.1524 53.8713 67.2238ZM50.7713 67.8953V66.6048L50.3713 67.8953H50.7713ZM51.6808 65.9096V67.8953H51.938V68.4143H51.6808V68.9477H50.7713V68.4143H49.6904V67.8953L50.4761 65.9096H51.6808ZM48.2332 67.1953C48.2332 67.3238 48.2523 67.4 48.2904 67.4334C48.3285 67.4619 48.3713 67.4762 48.4142 67.4762C48.4761 67.4762 48.5237 67.4572 48.5523 67.4191C48.5808 67.381 48.5951 67.3048 48.5951 67.1953V66.6429C48.5951 66.5096 48.5808 66.4238 48.5523 66.381C48.5237 66.3381 48.4761 66.3191 48.4142 66.3191C48.3761 66.3191 48.3332 66.3334 48.2904 66.3667C48.2475 66.4 48.2285 66.4858 48.2285 66.6238V67.1905L48.2332 67.1953ZM47.3237 68.1429H48.2332C48.2332 68.2858 48.2332 68.3715 48.238 68.4096C48.238 68.4477 48.2618 68.4762 48.2951 68.5048C48.3285 68.5286 48.3713 68.5429 48.4285 68.5429C48.4761 68.5429 48.5142 68.5334 48.5428 68.5096C48.5713 68.4857 48.5904 68.4572 48.5951 68.4191C48.5951 68.381 48.5999 68.3048 48.5999 68.1905V67.7048C48.557 67.7857 48.4856 67.8477 48.3951 67.8858C48.3047 67.9286 48.1951 67.9477 48.0618 67.9477C47.8951 67.9477 47.7475 67.9096 47.6189 67.8334C47.4904 67.7572 47.4094 67.6667 47.3761 67.5619C47.3428 67.4572 47.3237 67.3143 47.3237 67.1381V66.8953C47.3237 66.681 47.3332 66.5238 47.3523 66.4191C47.3713 66.3143 47.4237 66.2191 47.5094 66.1286C47.5951 66.0381 47.7094 65.9715 47.857 65.9238C48.0047 65.8762 48.1808 65.8524 48.3761 65.8524C48.6189 65.8524 48.8189 65.881 48.9761 65.9381C49.1332 65.9953 49.2523 66.0762 49.338 66.181C49.4237 66.2858 49.4713 66.4 49.4856 66.5143C49.4999 66.6286 49.5047 66.8572 49.5047 67.1905V67.6143C49.5047 67.9762 49.4999 68.2191 49.4856 68.3381C49.4761 68.4619 49.4237 68.5762 49.3285 68.6858C49.238 68.7953 49.1094 68.8762 48.9523 68.9286C48.7951 68.981 48.6142 69.0096 48.4047 69.0096C48.1475 69.0096 47.938 68.9762 47.7761 68.9048C47.6142 68.8334 47.4951 68.7381 47.4237 68.6143C47.3523 68.4905 47.3189 68.3334 47.3189 68.1429H47.3237ZM46.9713 65.9096V68.9477H46.0618V67.3191C46.0618 67.0857 46.057 66.9429 46.0428 66.8953C46.0285 66.8477 45.9904 66.8143 45.9332 66.7858C45.8713 66.7619 45.738 66.7477 45.5285 66.7477H45.438V66.3953C45.8761 66.3143 46.2142 66.1524 46.4428 65.9096H46.9808H46.9713Z" fill="#231F20"></path><path fill-rule="evenodd" clip-rule="evenodd" d="M45.4618 52.3095C44.6809 50.3428 44.5856 48.0809 44.7809 45.6904C47.5237 47.5809 50.2666 49.4714 53.0094 51.3619C52.5618 53.3047 51.738 54.9857 50.3856 56.3C49.4428 55.2904 48.6951 54.1047 48.4523 52.4666C47.457 52.4142 46.4618 52.3619 45.4666 52.3095" fill="#FFF100"></path><path d="M47.1002 60.3046C47.1907 60.2093 47.324 60.1665 47.4526 60.1569C47.6335 60.1427 47.8097 60.2046 47.9573 60.2998C48.1621 60.4284 48.3288 60.6046 48.4954 60.776C48.6192 60.8998 48.7431 61.0236 48.8907 61.1188C48.8145 61.2379 48.7431 61.3617 48.6669 61.476C48.4383 61.3284 48.2526 61.1236 48.0573 60.9331C47.9383 60.8188 47.8192 60.7046 47.6764 60.6236C47.5954 60.5807 47.4954 60.5569 47.4097 60.595C47.3859 60.676 47.4002 60.7617 47.4097 60.8474C47.4478 61.1141 47.5383 61.376 47.5478 61.6474C47.5526 61.7903 47.505 61.9474 47.3812 62.0331C47.2669 62.1141 47.1192 62.1046 46.9859 62.0855C46.7145 62.0427 46.4764 61.8998 46.2716 61.7236C45.9954 61.4903 45.7669 61.2093 45.4954 60.9712C45.3764 60.8665 45.2431 60.7665 45.0954 60.7046C45.1859 60.8998 45.2954 61.0903 45.3573 61.295C45.3954 61.4284 45.4097 61.5807 45.3383 61.7046C45.2669 61.8379 45.1145 61.8998 44.9716 61.9188C44.7526 61.9522 44.5335 61.8617 44.3478 61.7522C44.105 61.6141 43.8859 61.4236 43.6288 61.3093C43.6812 61.1807 43.7288 61.0474 43.7812 60.9141C44.0288 61.0141 44.2431 61.1807 44.4669 61.3236C44.5669 61.3855 44.6716 61.4474 44.7859 61.4807C44.8478 61.4998 44.9145 61.4998 44.9716 61.4807C44.9621 61.4141 44.9431 61.3569 44.9192 61.295C44.8431 61.1046 44.7383 60.9284 44.6621 60.7379C44.624 60.6379 44.5907 60.5284 44.6192 60.4236C44.6431 60.3236 44.7288 60.2474 44.8288 60.2284C44.9383 60.2093 45.0431 60.2379 45.1478 60.2665C45.4669 60.3617 45.7288 60.5855 45.9621 60.8141C46.1954 61.0426 46.4097 61.2998 46.6812 61.4903C46.8145 61.5855 46.9669 61.6569 47.1335 61.6617C47.1335 61.5331 47.105 61.4093 47.0764 61.2855C47.0335 61.0855 46.9812 60.8807 46.9859 60.676C46.9859 60.5426 47.0192 60.3998 47.1145 60.295M48.8431 63.6807C48.8954 63.595 48.9907 63.5426 49.0907 63.5379C49.3716 63.5188 49.6478 63.5998 49.8954 63.7188C50.3478 63.9379 50.7192 64.2807 51.1669 64.5093C51.305 64.5807 51.4573 64.6331 51.6097 64.6569C51.6431 64.4474 51.6097 64.2284 51.6764 64.0284C51.7097 63.9236 51.7812 63.8284 51.8812 63.7903C51.9812 63.7474 52.0859 63.7712 52.1859 63.7807C52.5764 63.8427 52.924 64.0379 53.2526 64.2427C53.5526 64.4284 53.8478 64.6331 54.1859 64.7522C54.2859 64.7855 54.3907 64.8093 54.4954 64.8188C54.4383 64.6426 54.3621 64.4712 54.3002 64.295C54.2669 64.1903 54.2335 64.0807 54.2478 63.9712C54.2573 63.8712 54.3145 63.776 54.405 63.7331C54.4812 63.6903 54.5716 63.695 54.6573 63.695C54.9954 63.7046 55.3192 63.7998 55.6288 63.9331C56.1907 64.176 56.6954 64.5379 57.2621 64.7712C57.2097 64.9046 57.1573 65.0331 57.105 65.1665C56.5764 64.9522 56.1097 64.6284 55.5954 64.3855C55.3097 64.2474 55.0002 64.1379 54.6812 64.1236C54.7383 64.3093 54.824 64.4807 54.8812 64.6665C54.9145 64.776 54.9478 64.8903 54.924 65.0093C54.905 65.0998 54.8431 65.1855 54.7573 65.2236C54.6716 65.2665 54.5716 65.2569 54.4764 65.2522C54.1431 65.2284 53.8288 65.0903 53.5431 64.9284C53.1907 64.7331 52.8669 64.4855 52.4954 64.3236C52.3573 64.2617 52.2097 64.2141 52.0573 64.1998C52.0192 64.4236 52.0573 64.6569 51.9764 64.8712C51.9288 64.9998 51.8002 65.0998 51.6621 65.095C51.4002 65.0855 51.1431 64.9903 50.9097 64.8665C50.4764 64.6427 50.1145 64.3093 49.6764 64.095C49.5288 64.0284 49.3764 63.976 49.2145 63.9665C49.2812 64.2188 49.405 64.4522 49.4573 64.7093C49.4812 64.8188 49.4859 64.9331 49.4335 65.0379C49.3859 65.1331 49.2907 65.195 49.1859 65.2046C48.9192 65.2284 48.6526 65.1665 48.405 65.0569C47.9478 64.8569 47.5621 64.5236 47.1145 64.3046C46.9621 64.2284 46.7954 64.1712 46.6288 64.1522C46.6764 64.3665 46.7621 64.5712 46.7859 64.7903C46.8002 64.9046 46.7859 65.0236 46.7097 65.1141C46.6621 65.176 46.5859 65.2141 46.5097 65.2284C46.2669 65.2665 46.0192 65.2284 45.7907 65.1474C45.4907 65.0426 45.2145 64.8807 44.9288 64.7379C44.7335 64.6379 44.5288 64.5474 44.3097 64.5046C44.2288 64.4903 44.1431 64.4807 44.0573 64.495C43.9764 64.5236 43.924 64.5998 43.8764 64.6665C43.7478 64.8665 43.6573 65.0903 43.5002 65.276C43.3954 65.1855 43.2859 65.0903 43.1812 64.9998C43.3478 64.7903 43.4335 64.5284 43.605 64.3188C43.7145 64.1855 43.8669 64.0855 44.0431 64.0712C44.2716 64.0569 44.505 64.1046 44.7192 64.1855C45.0097 64.2903 45.2764 64.4522 45.5526 64.5903C45.805 64.7141 46.0764 64.8379 46.3621 64.8236C46.324 64.5998 46.2288 64.3903 46.2002 64.1617C46.1859 64.0522 46.2002 63.9379 46.2669 63.8474C46.324 63.7712 46.4145 63.7331 46.5097 63.7284C46.7621 63.7284 47.005 63.7903 47.2335 63.895C47.6526 64.0855 48.0097 64.3807 48.4145 64.595C48.6097 64.6998 48.8192 64.7807 49.0431 64.7903C48.9764 64.5284 48.8478 64.2903 48.7954 64.0284C48.7716 63.9188 48.7716 63.7903 48.8335 63.695L48.8431 63.6807ZM48.9478 69.3712C49.024 69.2712 49.1526 69.2188 49.2764 69.2284C49.6145 69.2331 49.924 69.4046 50.1954 69.595C50.4288 69.7617 50.6478 69.9522 50.8907 70.1046C51.0288 70.1903 51.1812 70.2617 51.3431 70.2855C51.3621 70.0807 51.324 69.8665 51.3716 69.6665C51.3954 69.5569 51.4573 69.4474 51.5573 69.3903C51.6335 69.3474 51.7192 69.3379 51.805 69.3379C52.0431 69.3331 52.2716 69.4141 52.4812 69.5188C52.7002 69.6284 52.905 69.7665 53.1288 69.8712C53.2621 69.9331 53.4097 69.9855 53.5573 69.9807C53.6288 69.9046 53.6621 69.8093 53.7145 69.7188C53.7764 69.5998 53.8526 69.476 53.9669 69.3998C54.0764 69.3236 54.2145 69.3141 54.3431 69.2998C54.8669 69.2522 55.3716 69.4236 55.8907 69.4665C55.8812 69.6093 55.8669 69.7474 55.8573 69.8903C55.5192 69.8665 55.1907 69.7807 54.8573 69.7379C54.6431 69.7093 54.424 69.6998 54.2145 69.7474C54.1859 69.7522 54.1716 69.7807 54.1573 69.7998C54.0907 69.895 54.0526 69.9998 53.9954 70.0998C53.9383 70.2046 53.8573 70.3093 53.7478 70.3665C53.6669 70.4093 53.5716 70.4188 53.4812 70.4093C53.224 70.395 52.9859 70.2903 52.7669 70.1665C52.5573 70.0569 52.3573 69.9236 52.1383 69.8379C52.024 69.795 51.905 69.7617 51.7812 69.776C51.7478 69.9855 51.7954 70.2046 51.7526 70.4141C51.7335 70.5046 51.6907 70.5998 51.6145 70.6569C51.5478 70.7141 51.4573 70.7331 51.3716 70.7284C51.1192 70.7141 50.8812 70.6141 50.6669 70.4807C50.4145 70.3236 50.1859 70.1284 49.9478 69.9569C49.7478 69.8141 49.524 69.6807 49.2716 69.6712C49.224 69.8807 49.2478 70.095 49.2145 70.3093C49.1954 70.4569 49.1383 70.6093 49.0097 70.695C48.8954 70.7712 48.7526 70.7569 48.624 70.7522C48.2669 70.7188 47.9383 70.5474 47.6383 70.3617C47.3145 70.1665 47.005 69.9379 46.6383 69.8379C46.6621 69.9998 46.7002 70.1807 46.6145 70.3331C46.5383 70.4665 46.3764 70.5093 46.2335 70.5331C45.9002 70.576 45.5907 70.4284 45.2621 70.3903C45.2716 70.2474 45.2859 70.1093 45.2954 69.9665C45.5002 69.9855 45.7002 70.0474 45.9002 70.0903C46.0145 70.1141 46.1288 70.1284 46.2431 70.095C46.2383 69.9379 46.1812 69.7807 46.205 69.6236C46.2192 69.5284 46.2812 69.4331 46.3764 69.3998C46.4716 69.3617 46.5716 69.3855 46.6669 69.4046C47.0573 69.4855 47.4002 69.7093 47.7383 69.9188C47.9859 70.0712 48.2431 70.2331 48.5335 70.2998C48.6145 70.3188 48.6954 70.3284 48.7812 70.3284C48.824 70.1855 48.8145 70.0331 48.824 69.8807C48.8335 69.7093 48.8478 69.5284 48.9526 69.3855L48.9478 69.3712ZM52.2954 70.595C52.524 70.5474 52.7573 70.6093 52.9716 70.6998C53.1859 70.7855 53.3859 70.8998 53.6097 70.9569C53.5764 71.095 53.5478 71.2331 53.5145 71.3665C53.2288 71.2998 52.9716 71.1379 52.6954 71.0427C52.5859 71.0046 52.4621 70.9807 52.3431 71.0141C52.3526 71.1331 52.4002 71.2427 52.4383 71.3569C52.4812 71.495 52.5383 71.6379 52.5145 71.7855C52.5002 71.8903 52.4288 71.9807 52.3335 72.0236C52.2573 72.0569 52.1716 72.0522 52.0907 72.0522C51.824 72.0426 51.5716 71.9569 51.3335 71.8426C51.0621 71.7141 50.8097 71.5522 50.5431 71.4188C50.3669 71.3284 50.1764 71.2522 49.9812 71.2236C50.0526 71.3617 50.1383 71.4998 50.1954 71.6426C50.2383 71.7474 50.2669 71.8665 50.2335 71.9807C50.2002 72.0807 50.1145 72.1569 50.0097 72.1855C49.7716 72.2569 49.5145 72.2188 49.2812 72.1331C48.9002 71.995 48.5669 71.7427 48.1716 71.6522C48.0431 71.6141 47.9192 71.5617 47.7859 71.5331C47.7288 71.5188 47.6669 71.5093 47.605 71.5331C47.605 71.6474 47.6716 71.7522 47.724 71.8474C47.805 71.8474 47.8812 71.8284 47.9621 71.8426C47.9431 71.9807 47.9288 72.1236 47.9097 72.2617C47.7812 72.2617 47.6478 72.295 47.5288 72.2379C47.4335 72.195 47.3764 72.0998 47.3288 72.0141C47.2478 71.8712 47.1812 71.7188 47.1812 71.5569C47.1812 71.4427 47.2192 71.3236 47.3002 71.2427C47.4097 71.1379 47.5621 71.095 47.7097 71.1046C47.9383 71.1141 48.1431 71.2236 48.3573 71.276C48.705 71.3712 49.0097 71.5712 49.3383 71.7141C49.4812 71.776 49.6383 71.8236 49.7954 71.8093C49.7335 71.6665 49.6526 71.5379 49.5812 71.3998C49.5335 71.2998 49.4859 71.195 49.4859 71.0855C49.4859 70.9855 49.5431 70.8903 49.6288 70.8474C49.7097 70.7998 49.805 70.8093 49.8954 70.8093C50.1716 70.8188 50.4383 70.9141 50.6859 71.0379C50.9526 71.1665 51.2002 71.3284 51.4669 71.4617C51.6573 71.5569 51.8573 71.6331 52.0716 71.6474C52.0192 71.4712 51.9431 71.2998 51.9145 71.1141C51.9002 70.9998 51.9145 70.8712 51.9859 70.776C52.0573 70.6807 52.1764 70.6426 52.2859 70.6141L52.2954 70.595ZM55.0383 60.0046C55.1812 59.9379 55.3478 59.9236 55.5002 59.9617C55.6573 59.9998 55.7954 60.0855 55.9192 60.1855C56.0907 60.3188 56.2383 60.4807 56.3907 60.6331C56.4907 60.7284 56.5907 60.8284 56.7097 60.9046C56.6335 61.0236 56.5621 61.1426 56.4859 61.2617C56.1859 61.0712 55.9669 60.7807 55.7002 60.5522C55.6192 60.4807 55.5288 60.4188 55.4288 60.3807C55.3669 60.3569 55.2907 60.3522 55.2288 60.3807C55.2002 60.4998 55.2288 60.6188 55.2478 60.7379C55.2859 60.9522 55.3526 61.1665 55.3621 61.3855C55.3716 61.5141 55.3478 61.6569 55.2621 61.7569C55.1907 61.8379 55.0812 61.8807 54.9764 61.876C54.7145 61.876 54.4621 61.776 54.2526 61.6284C53.8716 61.3617 53.5954 60.9807 53.2383 60.6855C53.1383 60.6046 53.0335 60.5331 52.9145 60.4855C53.0097 60.6903 53.124 60.8855 53.1812 61.1046C53.2145 61.2331 53.2192 61.376 53.1478 61.495C53.0764 61.6188 52.9335 61.676 52.8002 61.6998C52.5812 61.7331 52.3669 61.6522 52.1812 61.5474C51.9288 61.4093 51.7097 61.2093 51.4431 61.095C51.4954 60.9617 51.5431 60.8331 51.5954 60.6998C51.8573 60.8046 52.0764 60.9807 52.3097 61.1284C52.405 61.1855 52.505 61.2474 52.6145 61.2712C52.6716 61.2855 52.7288 61.2855 52.7812 61.2665C52.7812 61.2046 52.7526 61.1426 52.7288 61.0855C52.6573 60.9046 52.5573 60.7331 52.4764 60.5522C52.4288 60.4379 52.3859 60.3046 52.4335 60.1807C52.4764 60.0665 52.5954 59.9998 52.7145 60.0046C52.9716 60.0188 53.2097 60.1331 53.4145 60.2855C53.7716 60.5474 54.0383 60.9046 54.3764 61.1903C54.5383 61.3236 54.724 61.4426 54.9383 61.4474C54.9383 61.2617 54.8812 61.0855 54.8478 60.9046C54.8097 60.7141 54.7716 60.5188 54.805 60.3236C54.8288 60.1855 54.9097 60.0569 55.0383 59.995V60.0046Z" fill="#282828"></path><path d="M59.2523 63.1189C58.6999 62.8903 58.2047 62.5903 57.657 62.3618C57.3475 62.2332 57.0189 62.1332 56.6713 62.1046C56.6094 62.3141 56.638 62.5379 56.538 62.7427C56.4856 62.857 56.3713 62.957 56.2237 62.9951C56.0189 63.0475 55.7999 63.0379 55.5951 62.9951C55.3142 62.9379 55.057 62.8284 54.7951 62.7332C54.6047 62.6665 54.3999 62.5998 54.1904 62.6141C54.1713 62.7332 54.1951 62.857 54.1951 62.976C54.1951 63.0808 54.1808 63.1951 54.0999 63.2856C54.0285 63.3665 53.9047 63.4094 53.7808 63.4046C53.5761 63.3998 53.3713 63.3665 53.1808 63.3141C52.6713 63.176 52.2332 62.9237 51.7618 62.7284C51.4999 62.6237 51.2189 62.5284 50.9189 62.5189C50.9047 62.6617 50.9285 62.8046 50.9285 62.9475C50.9285 63.0713 50.9189 63.2046 50.8285 63.3094C50.7523 63.3998 50.6142 63.4522 50.4761 63.4475C50.0808 63.4475 49.7094 63.3094 49.3808 63.1475C49.0666 62.9951 48.7808 62.8141 48.457 62.6713C48.2475 62.5808 48.0142 62.5094 47.7713 62.5141C47.6951 62.6237 47.6856 62.7522 47.6523 62.876C47.6094 63.057 47.5761 63.2522 47.4142 63.3951C47.3142 63.4856 47.1666 63.5332 47.0142 63.5332C46.6999 63.5427 46.3951 63.4617 46.1189 63.3522C45.7999 63.2237 45.5142 63.057 45.2094 62.9141C44.9999 62.8189 44.7761 62.7332 44.5285 62.7141C44.5189 62.9189 44.5904 63.1237 44.5523 63.3284C44.5142 63.4903 44.4951 63.457 44.3523 63.4903C43.9951 63.5522 43.6142 63.5332 43.2666 63.4427C42.757 63.3094 42.3189 63.0522 41.938 62.757C42.057 62.6617 42.1808 62.5713 42.2999 62.476C42.538 62.657 42.7951 62.8237 43.0856 62.9475C43.3761 63.0713 43.7142 63.1475 44.0475 63.1237C44.038 62.957 43.9951 62.7856 44.0285 62.6141C44.0523 62.5046 44.1332 62.3951 44.2666 62.3475C44.3761 62.3046 44.5047 62.3141 44.6237 62.3237C44.9237 62.3522 45.1999 62.4522 45.457 62.5713C45.7713 62.7141 46.057 62.8856 46.3761 63.0141C46.5761 63.0951 46.7999 63.157 47.0285 63.1427C47.0761 63.0808 47.0951 63.0094 47.1142 62.9427C47.1618 62.7665 47.1761 62.5856 47.2666 62.4189C47.3189 62.3141 47.4142 62.2141 47.5475 62.1665C47.6808 62.1141 47.8332 62.1284 47.9808 62.1379C48.2808 62.1665 48.557 62.2665 48.8094 62.3856C49.1285 62.5332 49.4142 62.7141 49.7332 62.8617C49.938 62.957 50.1618 63.0379 50.4047 63.057C50.4189 62.9189 50.3951 62.7808 50.3904 62.6379C50.3904 62.5189 50.3951 62.3951 50.4713 62.2903C50.538 62.1951 50.6666 62.1332 50.8047 62.1284C51.1999 62.1189 51.5808 62.2237 51.9285 62.3618C52.2856 62.5046 52.6142 62.6808 52.9713 62.8237C53.1904 62.9094 53.4237 62.9856 53.6713 63.0094C53.6713 62.8141 53.6142 62.5999 53.7285 62.4141C53.7808 62.3284 53.8856 62.2618 54.0047 62.2379C54.2475 62.1951 54.4999 62.2237 54.7285 62.2903C55.0237 62.3713 55.2904 62.4951 55.5808 62.5808C55.7285 62.6237 55.8856 62.6522 56.038 62.6237C56.0761 62.557 56.0856 62.4808 56.0951 62.4094C56.1142 62.257 56.1189 62.1046 56.1808 61.9617C56.2285 61.8617 56.3189 61.7665 56.4523 61.7284C56.5666 61.6951 56.6856 61.7094 56.8047 61.7237C57.0856 61.7522 57.3618 61.8237 57.6189 61.9141C58.1285 62.0951 58.5808 62.3522 59.057 62.5808L59.2428 63.1237L59.2523 63.1189Z" fill="#282828"></path><path d="M66.7571 70.957L66.9571 70.7999C67.3523 70.4856 67.4904 70.6666 67.7333 70.9761C67.9571 71.2666 68.138 71.4999 67.7904 71.7713L67.5428 71.9666L66.7571 70.9523V70.957ZM68.5999 75.4475L69.6142 74.6475L68.1285 72.7285L68.3142 72.5809C68.5999 72.357 68.7856 72.3856 68.9856 72.6428L69.538 73.357C69.7666 73.6523 70.0761 74.0523 70.3047 74.1047L71.3095 73.3142C71.0809 73.2618 70.7809 72.8523 70.5523 72.557L69.9428 71.7713C69.6523 71.3999 69.219 71.319 68.8047 71.5285L68.7952 71.5189C69.2047 70.9237 69.0142 70.5285 68.6095 70.0047C67.9904 69.2047 67.3952 69.2285 66.4904 69.9428L65.1475 70.9999L68.5904 75.4475H68.5999ZM63.6666 76.6713C64.1571 77.5428 65.019 77.7761 65.9095 77.2666C66.7999 76.757 67.0476 75.8951 66.5571 75.0189L65.3047 72.7856C64.7666 71.8285 63.8999 71.7142 63.0618 72.1904C62.2285 72.6666 61.8761 73.4761 62.4142 74.438L63.6666 76.6713ZM63.4809 73.6999C63.3856 73.5332 63.2285 73.2523 63.5523 73.0666C63.8761 72.8809 64.0333 73.1666 64.1285 73.3332L65.4904 75.7618C65.5618 75.8904 65.7428 76.2094 65.419 76.3951C65.0952 76.5808 64.919 76.2618 64.8428 76.1285L63.4809 73.6999ZM59.8952 79.9047L61.0952 79.4332L60.2904 77.3475L60.9714 77.0808C62.0475 76.657 61.9285 75.7809 61.6285 75.0094C61.0999 73.6332 60.4714 73.6237 59.1523 74.138L57.8666 74.6428L59.8952 79.9047ZM59.4285 75.1094L59.5666 75.057C59.9714 74.8999 60.1714 74.819 60.419 75.457C60.5999 75.9332 60.619 76.1428 60.2333 76.2951L59.9333 76.4142L59.4285 75.1094ZM54.6618 79.2237L54.7999 79.8142C54.9333 80.3856 55.4952 81.0856 56.738 80.7951C58.0476 80.4856 58.2428 79.5189 58.119 78.9904C57.8618 77.8809 57.2237 77.7523 56.6618 77.4475C56.0618 77.1809 55.4428 76.9285 55.3666 76.5999C55.3095 76.3475 55.4333 76.1475 55.6999 76.0856C56.0523 76.0047 56.1714 76.3237 56.2333 76.5999L56.2999 76.8951L57.4714 76.6189L57.3571 76.1237C57.1618 75.2761 56.5618 74.8523 55.4714 75.1094C54.4666 75.3428 53.9761 75.9475 54.2237 77.0285C54.419 77.8666 54.9904 78.0523 55.5952 78.3523C56.1761 78.5999 56.7476 78.8047 56.8618 79.2904C56.919 79.5332 56.8095 79.7523 56.5237 79.8189C56.1714 79.8999 56.038 79.6428 55.9714 79.3475L55.8761 78.9428L54.6618 79.2285V79.2237ZM51.6428 76.5856H51.6571L52.1618 79.3142L51.519 79.3618L51.6428 76.5809V76.5856ZM50.119 81.4856L51.4047 81.3856L51.4618 80.3761L52.3618 80.3094L52.5571 81.2999L53.9047 81.1951L52.4333 75.6475L50.7285 75.7761L50.119 81.4856ZM47.2237 79.0237L47.0571 81.2523L48.3428 81.3523L48.5142 79.0332L49.8095 75.7999L48.5047 75.6999L47.9856 77.5713H47.9714L47.7571 75.6428L46.4285 75.5428L47.219 79.0237H47.2237ZM41.0618 80.1428L42.2761 80.419L43.038 77.0142H43.0523L43.3095 80.6523L44.6761 80.9618L45.9095 75.457L44.6952 75.1809L43.9714 78.4285H43.9571L43.6714 74.9475L42.2999 74.6332L41.0666 80.138L41.0618 80.1428ZM39.7333 74.5523H39.7476L39.0285 77.2428L38.4285 77.0047L39.7333 74.5523ZM36.2571 78.2999L37.4571 78.7713L37.9428 77.8856L38.7856 78.2189L38.5333 79.1951L39.7904 79.6904L40.8475 74.0475L39.2571 73.4189L36.2523 78.2951L36.2571 78.2999ZM32.8999 76.3332L35.2333 77.6809L35.7714 76.738L34.5571 76.0332L36.8047 72.0808L35.6856 71.4332L32.9047 76.3285L32.8999 76.3332ZM33.1666 70.6189L33.1761 70.6285L31.7428 72.9999L31.2333 72.6047L33.1666 70.6189ZM28.7856 73.2332L29.8047 74.0285L30.519 73.3142L31.2333 73.8713L30.719 74.738L31.7904 75.5713L34.3761 70.4523L33.0237 69.3999L28.7856 73.2285V73.2332Z" fill="#231F20"></path><path d="M30.7095 11.3384L31.1143 12.0717L28.9 13.2955L29.2476 13.9289L31.2143 12.8431L31.6143 13.5717L29.6476 14.6574L30.1333 15.5336L29.2714 16.0098L27.6333 13.0431L30.7095 11.3431V11.3384Z" fill="#231F20"></path><path d="M36.3001 12.6237L35.762 12.1523L33.8286 12.938L33.7715 13.6523L32.7905 14.0523L33.1334 10.2571L34.3905 9.74756L37.281 12.2285L36.3048 12.6237H36.3001ZM33.8953 12.1142L35.1334 11.6095L34.0143 10.6333L33.8953 12.1142Z" fill="#231F20"></path><path d="M41.3476 10.1764L40.7619 7.81927L41.7095 7.58594L42.5238 10.8764L41.1286 11.224L38.6048 9.34784L39.1905 11.705L38.2381 11.9431L37.4238 8.6526L38.8238 8.30499L41.3476 10.1812V10.1764Z" fill="#231F20"></path><path d="M46.1191 6.96208L50.2001 6.79541L50.2334 7.62874L48.6858 7.69065L48.7906 10.243L47.8096 10.2811L47.7049 7.72874L46.1525 7.79065L46.1191 6.95731V6.96208Z" fill="#231F20"></path><path d="M51.3903 8.49526C51.4855 7.37622 52.3141 6.78098 53.7379 6.90479C55.1569 7.0286 55.876 7.75717 55.7807 8.87145C55.6855 9.9905 54.8522 10.5953 53.4331 10.4715C52.0093 10.3476 51.295 9.61907 51.3903 8.49526ZM54.7569 8.78574C54.8093 8.20003 54.5045 7.80955 53.6664 7.73812C52.8331 7.66669 52.4665 7.9905 52.4188 8.58574C52.3665 9.18098 52.676 9.57145 53.5045 9.64288C54.3379 9.71431 54.7093 9.38098 54.7617 8.7905L54.7569 8.78574Z" fill="#231F20"></path><path d="M61.6239 8.36681L59.6334 9.38109L60.881 11.6763L59.6763 11.4049L58.8096 9.8049L57.862 10.2859L57.7096 10.9573L56.7524 10.7382L57.5001 7.42871L58.462 7.643L58.1286 9.12871L60.1953 8.03823L61.6334 8.36204L61.6239 8.36681Z" fill="#231F20"></path><path d="M66.3286 9.99553L66.0667 10.7193L63.6858 9.85744L63.5 10.367L65.7905 11.1955L65.5286 11.9193L63.2381 11.0908L63.0524 11.6003L65.4334 12.4622L65.1715 13.186L61.8667 11.9908L63.0191 8.80029L66.3238 9.99553H66.3286Z" fill="#231F20"></path><path d="M69.7621 14.3526L70.8764 12.1907L71.7478 12.6383L70.1907 15.6526L68.9097 14.9907L68.2478 11.9097L67.1335 14.0716L66.2573 13.6193L67.8145 10.605L69.1002 11.2669L69.7621 14.3478V14.3526Z" fill="#231F20"></path><path d="M27.395 85.4763C27.2474 85.7192 27.395 86.0239 28.1569 86.4858C28.8569 86.9049 29.095 86.9001 29.2045 86.7192C29.3331 86.5097 29.2236 86.3906 28.395 85.8144C27.2665 85.024 26.8903 84.4763 27.276 83.8335C27.6426 83.2287 28.4617 83.3478 29.4665 83.9525C30.5855 84.6239 31.0236 85.3525 30.6617 86.0144L29.7807 85.4859C29.9331 85.2287 29.7141 84.962 29.0617 84.5716C28.4426 84.2001 28.2426 84.2192 28.1474 84.3763C28.0379 84.5573 28.1474 84.6954 28.895 85.2335C29.9141 85.9573 30.5617 86.4478 30.1045 87.2097C29.6569 87.9525 28.8379 87.7573 27.8045 87.1335C26.6284 86.4239 26.0903 85.7382 26.5093 84.9478L27.3903 85.4811L27.395 85.4763Z" fill="#231F20"></path><path d="M31.5236 87.1909C31.9712 86.1576 32.9426 85.8623 34.2569 86.429C35.5664 86.9957 36.014 87.9147 35.5712 88.9433C35.1236 89.9766 34.1426 90.2814 32.8331 89.7147C31.5188 89.148 31.0759 88.229 31.5236 87.1909ZM34.6283 88.5385C34.8616 87.9957 34.695 87.5338 33.9236 87.1957C33.1569 86.8623 32.7045 87.0576 32.4712 87.6004C32.2331 88.1481 32.4045 88.6147 33.1664 88.948C33.9331 89.2814 34.395 89.0814 34.6283 88.5338V88.5385Z" fill="#231F20"></path><path d="M39.3047 88.2194C40.5047 88.5575 41.0428 89.2623 40.9047 90.129L39.9 89.848C39.919 89.529 39.6857 89.1909 39.0809 89.0242C38.3809 88.829 37.9476 89.0766 37.7857 89.648C37.6238 90.2242 37.8714 90.6671 38.5666 90.8623C39.1714 91.029 39.5476 90.8623 39.6952 90.5718L40.7 90.8528C40.3666 91.6718 39.5428 92.0004 38.3381 91.6671C37.0285 91.3004 36.4809 90.4909 36.7905 89.3718C37.1047 88.2575 37.9905 87.8528 39.3 88.2194H39.3047Z" fill="#231F20"></path><path d="M43.3948 89.2289L42.7948 92.5623L41.8281 92.3861L42.4281 89.0527L43.3948 89.2289Z" fill="#231F20"></path><path d="M44.4187 91.1481C44.5091 90.029 45.3329 89.4338 46.7567 89.5481C48.1758 89.6624 48.8996 90.3909 48.8091 91.5052C48.7187 92.6243 47.8901 93.229 46.471 93.1147C45.0472 93.0005 44.3282 92.2719 44.4234 91.1481H44.4187ZM47.7853 91.4243C47.8329 90.8386 47.5282 90.4528 46.6901 90.3814C45.8567 90.3148 45.4948 90.6433 45.4425 91.2338C45.3948 91.829 45.7044 92.2148 46.5329 92.2862C47.3663 92.3528 47.7377 92.0195 47.7853 91.4243Z" fill="#231F20"></path><path d="M51.1188 92.048C51.1331 92.3337 51.4235 92.5051 52.314 92.4575C53.1283 92.4146 53.3235 92.2766 53.3093 92.0623C53.295 91.8146 53.1426 91.7813 52.1331 91.767C50.7569 91.7432 50.1331 91.5004 50.095 90.748C50.0569 90.0432 50.8045 89.6813 51.9759 89.6242C53.2807 89.5575 54.0521 89.9099 54.1188 90.6623L53.095 90.7146C53.0807 90.4146 52.7474 90.3194 51.9854 90.3575C51.2664 90.3956 51.1093 90.5242 51.1188 90.7051C51.1283 90.9146 51.295 90.9718 52.2188 91.0004C53.4664 91.0289 54.2807 91.0718 54.3283 91.9623C54.3712 92.8289 53.5854 93.1242 52.3807 93.1861C51.0093 93.2575 50.1759 92.9861 50.0854 92.0956L51.114 92.0432L51.1188 92.048Z" fill="#231F20"></path><path d="M55.7426 92.0429L56.6806 91.9048L56.7854 92.6334L55.8473 92.7715L55.7378 92.0429H55.7426Z" fill="#231F20"></path><path d="M59.4808 88.5382C60.6951 88.243 61.5094 88.5953 61.8141 89.4191L60.7999 89.6668C60.6618 89.3763 60.2903 89.2001 59.6808 89.3477C58.9761 89.5192 58.7189 89.9477 58.857 90.5287C58.9999 91.1096 59.4332 91.3763 60.1332 91.2049C60.7427 91.0572 60.9903 90.7239 60.9761 90.3953L61.9903 90.1477C62.0999 91.0239 61.5427 91.7191 60.3284 92.0144C59.0046 92.3382 58.1284 91.9001 57.8522 90.7715C57.576 89.6477 58.1522 88.862 59.4761 88.5382H59.4808Z" fill="#231F20"></path><path d="M63.1522 89.3907C62.7379 88.3431 63.2189 87.4431 64.5474 86.9193C65.8712 86.3955 66.8427 86.7288 67.2522 87.7717C67.6665 88.8193 67.1855 89.7288 65.8617 90.2526C64.5331 90.7764 63.5665 90.4431 63.1522 89.3907ZM66.2998 88.1478C66.0855 87.6002 65.6379 87.3859 64.857 87.6955C64.0808 88.0002 63.8951 88.4574 64.1141 89.0097C64.3331 89.5669 64.7855 89.7764 65.557 89.4717C66.3331 89.1669 66.5189 88.7002 66.2998 88.1478Z" fill="#231F20"></path><path d="M69.3381 88.6907L67.6333 85.7574L68.9571 84.986L71.1095 86.3383L70.9952 83.8002L72.319 83.0288L74.0238 85.9621L73.1762 86.4526L71.9428 84.3288L72.0762 87.0955L71.2904 87.5526L68.9524 86.0717L70.1904 88.1955L69.3381 88.6907Z" fill="#231F20"></path><path d="M23.019 81.8382C13.9952 74.1811 8.2666 62.7573 8.2666 50.0001C8.2666 37.243 14.2999 25.2144 23.738 17.562" stroke="#439142" stroke-miterlimit="10"></path><path d="M76.2666 17.5669C85.7047 25.2193 91.7333 36.905 91.7333 50.0002C91.7333 63.0955 86.0047 74.1859 76.9809 81.8431" stroke="#439142" stroke-miterlimit="10"></path></g><defs><clipPath id="clip0_101_22124"><rect width="100" height="100" fill="white"></rect></clipPath></defs></svg>