<svg xmlns="http://www.w3.org/2000/svg" width="100" height="100" viewBox="0 0 100 100" fill="none"><g clip-path="url(#clip0_101_22050)"><path d="M50 100C77.6142 100 100 77.6142 100 50C100 22.3858 77.6142 0 50 0C22.3858 0 0 22.3858 0 50C0 77.6142 22.3858 100 50 100Z" fill="white"></path><path d="M50 2.53333C76.1714 2.53333 97.4667 23.8286 97.4667 50C97.4667 76.1714 76.1714 97.4667 50 97.4667C23.8286 97.4667 2.53333 76.1714 2.53333 50C2.53333 23.8286 23.8286 2.53333 50 2.53333ZM50 0C22.3857 0 0 22.3857 0 50C0 77.6143 22.3857 100 50 100C77.6143 100 100 77.6143 100 50C100 22.3857 77.6143 0 50 0Z" fill="#D50B32"></path><mask id="mask0_101_22050" style="mask-type:luminance" maskUnits="userSpaceOnUse" x="31" y="17" width="38" height="66"><path d="M68.6618 17.5H31.3428V82.5H68.6618V17.5Z" fill="white"></path></mask><g mask="url(#mask0_101_22050)"><path d="M39.8954 33.9715C39.9763 34.0048 40.043 34.0191 40.1001 34.0143C40.1811 34.0096 40.2382 33.9715 40.2906 33.9096C40.3716 33.8096 40.3525 33.6857 40.2668 33.581C40.2287 33.5381 39.2573 32.5715 38.3049 31.5143C37.2382 30.3286 36.7192 29.3 36.9287 28.6619C37.0954 28.1477 37.4525 27.8048 38.0097 27.6381C37.7906 27.2334 37.6239 26.8477 37.5192 26.4667C37.143 26.4429 36.7906 26.4477 36.4716 26.4857C35.9287 26.5477 35.4573 26.7 35.0811 26.9286C34.5478 27.2524 34.1478 27.7381 34.0097 28.3238C33.3858 30.8715 37.9573 33.0238 39.9001 33.9715" fill="#B39247"></path><path d="M44.7144 33.4476C44.8144 33.5142 44.9239 33.5142 44.9287 33.5142C44.9953 33.5142 45.0668 33.4904 45.1191 33.4476C45.2334 33.3571 45.2477 33.2142 45.1572 33.1047C43.6049 31.2857 40.7763 27.6047 41.8001 25.3238C42.6572 23.7523 45.0668 24.4619 45.6287 24.6095C45.9382 24.6904 46.1715 24.7571 46.343 24.5142C46.4239 24.3761 46.243 24.1904 46.2191 24.1666C44.5811 22.5381 43.0953 22.1714 42.1287 22.1714C42.062 22.1714 42.0001 22.1714 41.9382 22.1761C40.4858 22.2523 39.3477 22.919 38.7096 24.1C37.5144 26.3047 39.5763 28.6047 40.9049 30.1333C42.4763 31.9381 44.5049 33.3 44.7144 33.4523" fill="#B39247"></path><path d="M40.3285 30.4949L40.2523 30.4139C40.1285 30.2711 39.9952 30.1235 39.8666 29.9663C39.6095 30.4187 39.6809 31.0473 40.0999 31.7806C40.8618 33.1044 41.1809 33.4615 41.1809 33.4615C41.1809 33.4615 41.9857 33.3758 43.4095 33.2758C42.1857 32.3473 41.138 31.4187 40.3333 30.4949" fill="#B39247"></path><path d="M45.8334 32.9426C45.8334 32.9426 45.9762 33.0902 46.0143 33.1378C46.9429 33.0997 47.8905 33.0711 48.9191 33.0616C48.7858 32.6902 47.8429 30.0235 47.7524 27.1426C46.2286 27.2711 44.1477 27.8092 42.8286 28.3426C43.5096 29.8664 44.6762 31.5807 45.8334 32.9426Z" fill="#B39247"></path><path d="M49.5902 20.7761C48.9759 20.9475 48.5235 21.4999 48.5235 22.1523C48.5235 22.9427 49.1854 23.5856 49.9997 23.5856C50.814 23.5856 51.4759 22.9427 51.4759 22.1523C51.4759 21.4999 51.0235 20.9475 50.4092 20.7761V19.538H51.7235V18.7618H50.4092V17.4951H49.5902V18.7618H48.2759V19.538H49.5902V20.7761Z" fill="#B39247"></path><path d="M67.538 38.8236C67.3332 38.7189 62.0142 36.7998 49.9999 36.7998C37.9856 36.7998 32.6666 38.7189 32.4618 38.8236C32.3047 38.9855 31.3428 44.5569 31.3428 50.1522C31.3428 55.7474 32.4571 62.995 36.3904 68.7284C40.319 74.4569 48.5475 81.6903 50.0047 82.495C51.4571 81.6855 59.6904 74.4569 63.619 68.7284C67.5475 62.995 68.6666 55.7474 68.6666 50.1522C68.6666 44.5569 67.7047 38.9808 67.5475 38.8236" fill="#B39247"></path><path d="M59.7331 33.5854C59.6521 33.6854 59.6283 33.8092 59.7093 33.914C59.7617 33.9759 59.8188 34.014 59.895 34.0187C59.9521 34.0235 60.014 34.0092 60.0998 33.9759C62.0474 33.0282 66.614 30.8759 65.9902 28.3282C65.8521 27.7425 65.4521 27.2568 64.9188 26.933C64.5426 26.7044 64.076 26.552 63.5283 26.4901C63.2045 26.452 62.8569 26.4473 62.4807 26.4711C62.3712 26.852 62.2093 27.2378 61.9902 27.6425C62.5474 27.814 62.9045 28.152 63.0712 28.6663C63.2807 29.3044 62.7617 30.333 61.695 31.5187C60.7426 32.5759 59.7664 33.5425 59.7331 33.5854Z" fill="#B39247"></path><path d="M54.3667 24.6045C54.9286 24.4569 57.3382 23.7473 58.1953 25.3188C59.2191 27.5997 56.3905 31.2807 54.8382 33.0997C54.7477 33.2092 54.762 33.3521 54.8762 33.4426C54.9334 33.4854 55.0001 33.5092 55.0667 33.5092C55.0715 33.5092 55.181 33.5092 55.281 33.4426C55.4905 33.2902 57.5191 31.9283 59.0905 30.1235C60.4191 28.595 62.481 26.295 61.2858 24.0902C60.6477 22.9092 59.5143 22.2426 58.0572 22.1664C57.9953 22.1616 57.9334 22.1616 57.8667 22.1616C56.9048 22.1616 55.4143 22.533 53.7762 24.1569C53.7477 24.1854 53.5715 24.3711 53.6524 24.5045C53.8191 24.7473 54.0572 24.6807 54.3667 24.5997" fill="#B39247"></path><path d="M60.1333 29.9663C60 30.1235 59.8714 30.2711 59.7476 30.4139L59.6714 30.4949C58.8666 31.4187 57.819 32.3473 56.5952 33.2758C58.019 33.3711 58.8238 33.4615 58.8238 33.4615C58.8238 33.4615 59.1428 33.0996 59.9047 31.7806C60.3238 31.052 60.3952 30.4187 60.1381 29.9663" fill="#B39247"></path><path d="M53.9858 33.1427C54.0239 33.0951 54.1477 32.9665 54.1668 32.9475C55.3239 31.5856 56.4906 29.8713 57.1715 28.3475C55.8525 27.8141 53.7715 27.276 52.2477 27.1475C52.1572 30.0284 51.2191 32.6951 51.0811 33.0665C52.1096 33.076 53.0572 33.1046 53.9858 33.1427Z" fill="#B39247"></path><path d="M49.9999 24.0762C49.2618 24.0762 48.6428 25.2809 48.6761 27.7428C48.6999 29.2571 49.3618 32.4381 49.8189 33.219C49.8856 33.3333 49.9475 33.3762 49.9999 33.3762C50.0523 33.3762 50.1142 33.3333 50.1809 33.219C50.638 32.4381 51.2999 29.2571 51.3237 27.7428C51.357 25.2857 50.738 24.0762 49.9999 24.0762Z" fill="#B39247"></path><path d="M50 34.1475C45.2952 34.1475 41.6523 34.5094 41.6523 34.5094V36.0475C41.6523 36.0475 45.2523 35.6856 50 35.6856C54.7476 35.6856 58.3476 36.0475 58.3476 36.0475V34.5094C58.3476 34.5094 54.7095 34.1475 50 34.1475Z" fill="#B39247"></path><path d="M65.7238 40.3092C65.5429 40.2282 60.6476 38.8521 50 38.8521C39.3524 38.8521 34.4572 40.2282 34.2762 40.3092C34.1381 40.4521 33.4238 45.9854 33.4238 50.9044C33.4238 55.8235 34.4143 62.4759 37.9048 67.5187C41.3619 72.514 48.6143 79.0187 50 79.8235C51.3857 79.0187 58.6333 72.514 62.0953 67.5187C65.5857 62.4759 66.5762 55.8235 66.5762 50.9044C66.5762 45.9854 65.8667 40.4521 65.7238 40.3092Z" fill="white"></path><path d="M61.3143 66.338C58.0571 70.9856 51.2095 77.3523 50 78.0094C48.7905 77.3523 41.9429 70.9856 38.6857 66.338C35.4238 61.6856 34.5 55.5427 34.5 51.0046C34.5 46.4666 35.1476 41.3523 35.281 41.2237C35.4571 41.1475 40.0333 39.957 50 39.957C59.9667 39.957 64.5429 41.1475 64.7191 41.2237C64.8524 41.3523 65.5 46.4666 65.5 51.0046C65.5 55.5427 64.5714 61.6856 61.3143 66.338Z" fill="#DB0032"></path><path d="M64.4573 49.0093H35.543C35.5192 49.6712 35.5049 50.3426 35.5049 51.0045C35.5049 53.7236 35.8954 60.6093 39.5144 65.7712C42.462 69.9759 48.1525 75.3283 50.0001 76.7902C51.8525 75.3283 57.5382 69.9759 60.4858 65.7712C64.1049 60.6093 64.4954 53.7236 64.4954 51.0045C64.4954 50.3426 64.4811 49.6712 64.4573 49.0093Z" fill="white"></path><path d="M64.4573 49.0095C64.3477 46.0191 64.0382 43.1762 63.862 42.0333C62.4573 41.7286 58.0573 40.9429 50.0001 40.9429C41.943 40.9429 37.543 41.7286 36.1382 42.0333C35.962 43.1762 35.6525 46.0238 35.543 49.0095H64.4573Z" fill="#DB0032"></path><path d="M39.3045 44.3426C39.3045 44.1284 39.4378 43.9998 39.6521 43.9998C39.7807 43.9998 39.8997 44.0426 40.0045 44.1093L40.1569 43.5474C39.9664 43.4331 39.7664 43.376 39.5426 43.376C38.9426 43.376 38.6235 43.8569 38.6235 44.4093C38.6235 44.9236 38.8712 45.1855 39.2712 45.4569C39.4664 45.595 39.6807 45.6998 39.6807 45.9712C39.6807 46.2046 39.5045 46.3522 39.2807 46.3522C39.1569 46.3522 39.0521 46.3236 38.9473 46.2807L38.7521 46.8331C38.9092 46.9474 39.1521 47.0093 39.3473 47.0093C39.9997 47.0093 40.3616 46.5379 40.3616 45.9141C40.3616 44.9617 39.2997 44.9284 39.2997 44.3474" fill="white"></path><path d="M40.7235 46.9477H41.7283L41.8521 43.9049H41.8664V43.9858L42.4664 46.9477H43.0045L43.5521 43.9049H43.5616L43.7616 46.9477H44.7235C44.7235 46.9477 44.6092 46.7858 44.5759 46.5192C44.5473 46.2668 44.2235 42.9239 44.1807 42.5049C43.7997 42.5287 43.4235 42.5525 43.0473 42.5763L42.7187 45.2192H42.7045L42.3045 42.6287C41.9283 42.6573 41.5568 42.6906 41.1902 42.7239C41.1378 43.3192 40.8854 46.3192 40.8616 46.5382C40.8378 46.7811 40.7188 46.9477 40.7188 46.9477" fill="white"></path><path d="M54.1143 44.7142C54.1143 45.8665 54.7952 46.9951 56.0285 46.9951C56.3333 46.9951 56.4857 46.9475 56.619 46.8665L56.4238 46.0999C56.3143 46.1332 56.2047 46.1618 56.0952 46.1618C55.3524 46.1618 55.0238 45.357 55.0238 44.7094C55.0238 44.0618 55.3476 43.3427 56.1 43.3427C56.2095 43.3427 56.3143 43.3618 56.4238 43.3904L56.6381 42.6665C56.5095 42.6046 56.3381 42.5475 56.1619 42.5237C56.0952 42.5237 56.0333 42.5142 55.9666 42.5142C54.8143 42.5284 54.1143 43.638 54.1143 44.7189" fill="white"></path><path d="M61.6665 44.0806L61.876 43.4282H60.2046V46.9473H60.9046V45.4854H61.4903V44.833H60.9046V44.0806H61.6665Z" fill="white"></path><path d="M63.4144 46.3664C62.8192 46.3854 62.4906 45.7902 62.4716 45.2045C62.4525 44.5712 62.7906 44.0521 63.3287 44.0521C63.443 44.0521 63.5049 44.0521 63.5906 44.0712L63.7382 43.5426C63.6049 43.4807 63.462 43.4473 63.2668 43.4521C62.343 43.4807 61.8001 44.3759 61.8287 45.2283C61.8573 46.1331 62.4287 46.9997 63.4097 46.9712C63.6525 46.9616 63.7859 46.914 63.8763 46.8426L63.6906 46.314C63.6192 46.3426 63.543 46.3664 63.4144 46.3712" fill="white"></path><path d="M48.0811 46.9477H49.0239V44.6953L48.9811 44.2429L48.9953 44.2334L50.0239 46.9524H50.8144V42.8191C50.8144 42.6191 50.8858 42.4477 50.943 42.3477C50.6287 42.3477 50.3144 42.3477 50.0001 42.3477H49.9811V44.4762C49.9811 44.7096 50.0001 44.9429 50.0477 45.1572L50.0382 45.1667L49.0382 42.3524C48.7572 42.3524 48.4715 42.3572 48.1953 42.3619V46.5381C48.1953 46.8238 48.0906 46.9572 48.0906 46.9572" fill="white"></path><path d="M46.3094 46.1665C45.7523 46.1665 45.7142 45.0284 45.7142 44.6712C45.7142 44.2712 45.7523 43.176 46.3094 43.176C46.8666 43.176 46.9047 44.2712 46.9047 44.6712C46.9047 45.0284 46.8666 46.1665 46.3094 46.1665ZM46.3094 42.3569C45.5618 42.3569 44.8237 42.9855 44.8237 44.6712C44.8237 46.3569 45.5618 46.9855 46.3094 46.9855C47.0571 46.9855 47.7952 46.3569 47.7952 44.6712C47.7952 42.9855 47.0571 42.3569 46.3094 42.3569Z" fill="white"></path><path d="M52.5378 44.1713L52.6283 43.6047H52.6378L52.733 44.1713L52.9473 45.3713H52.3569L52.5378 44.1713ZM52.0711 46.9475L52.2235 46.0761H53.0711L53.2283 46.9475H54.1711C54.1711 46.9475 54.033 46.7809 53.9759 46.5332C53.9188 46.3047 53.1807 42.9094 53.0664 42.3856C52.7711 42.3761 52.4711 42.3713 52.1759 42.3618L51.1997 46.9475H52.0807H52.0711Z" fill="white"></path><path d="M58.1665 46.2473C57.6094 46.2473 57.5665 45.1807 57.5665 44.8473C57.5665 44.4759 57.6046 43.4473 58.1665 43.4473C58.7284 43.4473 58.7665 44.4711 58.7665 44.8473C58.7665 45.1854 58.7284 46.2473 58.1665 46.2473ZM58.1665 42.6807C57.4141 42.6807 56.6665 43.2711 56.6665 44.8473C56.6665 46.4235 57.4141 47.0188 58.1665 47.0188C58.9189 47.0188 59.6617 46.4283 59.6617 44.8473C59.6617 43.2664 58.9189 42.6807 58.1665 42.6807Z" fill="white"></path><path d="M37.0378 45.7187L37.1854 44.7949L37.2569 44.3758H37.2664L37.3473 44.7949L37.5188 45.7187H37.0378ZM37.6473 43.4854H36.9235L36.1235 46.9473H36.7997L36.9235 46.2615H37.6188L37.7473 46.9473H38.5426C38.5426 46.9473 38.4521 46.8473 38.4093 46.6663C38.3712 46.4854 37.6473 43.4854 37.6473 43.4854Z" fill="white"></path><path d="M62.4856 59.2475V49.9189H56.957V68.7142C57.9951 67.5428 58.9666 66.3523 59.7427 65.2475C61.0475 63.3856 61.9142 61.2809 62.4856 59.2428" fill="#DB0032"></path><path d="M37.5142 49.9189V59.2475C38.0904 61.2856 38.957 63.3904 40.257 65.2523C41.0332 66.357 42.0046 67.5428 43.0427 68.7189V49.9237H37.5142V49.9189Z" fill="#DB0032"></path><path d="M46.7998 49.9189V72.6475C48.0712 73.8951 49.2189 74.9428 49.9998 75.6094C50.776 74.9428 51.9284 73.8951 53.1998 72.6475V49.9189H46.8046H46.7998Z" fill="#DB0032"></path></g><path d="M30.7095 11.3384L31.1143 12.0717L28.9 13.2955L29.2476 13.9289L31.2143 12.8431L31.6143 13.5717L29.6476 14.6574L30.1333 15.5336L29.2714 16.0098L27.6333 13.0431L30.7095 11.3431V11.3384Z" fill="#4A4A49"></path><path d="M36.3001 12.6237L35.762 12.1523L33.8286 12.938L33.7715 13.6523L32.7905 14.0523L33.1334 10.2571L34.3905 9.74756L37.281 12.2285L36.3048 12.6237H36.3001ZM33.8953 12.1142L35.1334 11.6095L34.0143 10.6333L33.8953 12.1142Z" fill="#4A4A49"></path><path d="M41.3476 10.1764L40.7619 7.81927L41.7095 7.58594L42.5238 10.8764L41.1286 11.224L38.6048 9.34784L39.1905 11.705L38.2381 11.9431L37.4238 8.6526L38.8238 8.30499L41.3476 10.1812V10.1764Z" fill="#4A4A49"></path><path d="M46.1191 6.96208L50.2001 6.79541L50.2334 7.62874L48.6858 7.69065L48.7906 10.243L47.8096 10.2811L47.7049 7.72874L46.1525 7.79065L46.1191 6.95731V6.96208Z" fill="#4A4A49"></path><path d="M51.3903 8.49526C51.4855 7.37622 52.3141 6.78098 53.7379 6.90479C55.1569 7.0286 55.876 7.75717 55.7807 8.87145C55.6855 9.9905 54.8522 10.5953 53.4331 10.4715C52.0093 10.3476 51.295 9.61907 51.3903 8.49526ZM54.7569 8.78574C54.8093 8.20003 54.5045 7.80955 53.6664 7.73812C52.8331 7.66669 52.4665 7.9905 52.4188 8.58574C52.3665 9.18098 52.676 9.57145 53.5045 9.64288C54.3379 9.71431 54.7093 9.38098 54.7617 8.7905L54.7569 8.78574Z" fill="#4A4A49"></path><path d="M61.6239 8.36681L59.6334 9.38109L60.881 11.6763L59.6763 11.4049L58.8096 9.8049L57.862 10.2859L57.7096 10.9573L56.7524 10.7382L57.5001 7.42871L58.462 7.643L58.1286 9.12871L60.1953 8.03823L61.6334 8.36204L61.6239 8.36681Z" fill="#4A4A49"></path><path d="M66.3286 9.99541L66.0667 10.7192L63.6858 9.85732L63.5 10.3668L65.7905 11.1954L65.5286 11.9192L63.2381 11.0906L63.0524 11.6002L65.4334 12.4573L65.1715 13.1811L61.8667 11.9859L63.0191 8.79541L66.3238 9.99065L66.3286 9.99541Z" fill="#4A4A49"></path><path d="M69.7621 14.3526L70.8764 12.1907L71.7478 12.6383L70.1907 15.6526L68.9097 14.9907L68.2478 11.9097L67.1335 14.0716L66.2573 13.6193L67.8145 10.605L69.1002 11.2669L69.7621 14.3478V14.3526Z" fill="#4A4A49"></path><path d="M27.395 85.4763C27.2474 85.7192 27.395 86.0239 28.1569 86.4858C28.8569 86.9049 29.095 86.9001 29.2045 86.7192C29.3331 86.5097 29.2236 86.3906 28.395 85.8144C27.2665 85.024 26.8903 84.4763 27.276 83.8335C27.6426 83.2287 28.4617 83.3478 29.4665 83.9525C30.5855 84.6239 31.0236 85.3525 30.6617 86.0144L29.7807 85.4859C29.9331 85.2287 29.7141 84.962 29.0617 84.5716C28.4426 84.2001 28.2426 84.2192 28.1474 84.3763C28.0379 84.5573 28.1474 84.6954 28.895 85.2335C29.9141 85.9573 30.5617 86.4478 30.1045 87.2097C29.6569 87.9525 28.8379 87.7573 27.8045 87.1335C26.6284 86.4239 26.0903 85.7382 26.5093 84.9478L27.3903 85.4811L27.395 85.4763Z" fill="#4A4A49"></path><path d="M31.5236 87.1909C31.9712 86.1576 32.9426 85.8623 34.2569 86.429C35.5664 86.9957 36.014 87.9147 35.5712 88.9433C35.1236 89.9766 34.1426 90.2814 32.8331 89.7147C31.5188 89.148 31.0759 88.229 31.5236 87.1909ZM34.6283 88.5385C34.8616 87.9957 34.695 87.5338 33.9236 87.1957C33.1569 86.8623 32.7045 87.0576 32.4712 87.6004C32.2331 88.1481 32.4045 88.6147 33.1664 88.948C33.9331 89.2814 34.395 89.0814 34.6283 88.5338V88.5385Z" fill="#4A4A49"></path><path d="M39.295 88.2146C40.495 88.5527 41.0331 89.2574 40.895 90.1241L39.8902 89.8431C39.9093 89.5241 39.6759 89.186 39.0712 89.0193C38.3712 88.8241 37.9378 89.0717 37.7759 89.6431C37.614 90.2193 37.8616 90.6622 38.5569 90.8574C39.1616 91.0241 39.5378 90.8574 39.6854 90.5669L40.6902 90.8479C40.3569 91.6669 39.5331 91.9955 38.3283 91.6622C37.0188 91.2955 36.4712 90.486 36.7807 89.3669C37.095 88.2527 37.9807 87.8479 39.2902 88.2146H39.295Z" fill="#4A4A49"></path><path d="M43.3948 89.2289L42.7948 92.5623L41.8281 92.3861L42.4281 89.0527L43.3948 89.2289Z" fill="#4A4A49"></path><path d="M44.4189 91.1481C44.5094 90.029 45.3332 89.4338 46.757 89.5481C48.176 89.6624 48.8999 90.3909 48.8046 91.5052C48.7141 92.6243 47.8856 93.229 46.4618 93.1147C45.0379 93.0005 44.3189 92.2719 44.4141 91.1481H44.4189ZM47.7856 91.4243C47.8332 90.8386 47.5284 90.4528 46.6903 90.3814C45.857 90.3148 45.4951 90.6433 45.4427 91.2338C45.3951 91.829 45.7046 92.2148 46.5332 92.2862C47.3665 92.3528 47.7379 92.0195 47.7856 91.4243Z" fill="#4A4A49"></path><path d="M51.1188 92.048C51.1331 92.3337 51.4235 92.5051 52.314 92.4575C53.1283 92.4146 53.3235 92.2766 53.3093 92.0623C53.295 91.8146 53.1426 91.7813 52.1331 91.767C50.7569 91.7432 50.1331 91.5004 50.095 90.748C50.0569 90.0432 50.8045 89.6813 51.9759 89.6242C53.2807 89.5575 54.0521 89.9099 54.1188 90.6623L53.095 90.7146C53.0807 90.4146 52.7474 90.3194 51.9854 90.3575C51.2664 90.3956 51.1093 90.5242 51.1188 90.7051C51.1283 90.9146 51.295 90.9718 52.2188 91.0004C53.4664 91.0289 54.2807 91.0718 54.3283 91.9623C54.3712 92.8289 53.5854 93.1242 52.3807 93.1861C51.0093 93.2575 50.1759 92.9861 50.0854 92.0956L51.114 92.0432L51.1188 92.048Z" fill="#4A4A49"></path><path d="M55.7426 92.0434L56.6806 91.9053L56.7854 92.6338L55.8473 92.7719L55.7378 92.0434H55.7426Z" fill="#4A4A49"></path><path d="M59.4808 88.5387C60.6951 88.2434 61.5094 88.5958 61.8141 89.4196L60.7999 89.6673C60.6618 89.3768 60.2903 89.2006 59.6808 89.3482C58.9761 89.5196 58.7189 89.9482 58.857 90.5292C58.9999 91.1101 59.4332 91.3768 60.1332 91.2054C60.7427 91.0577 60.9903 90.7244 60.9761 90.3958L61.9903 90.1482C62.0999 91.0244 61.5427 91.7196 60.3284 92.0149C59.0046 92.3387 58.1284 91.9006 57.8522 90.772C57.576 89.6482 58.1522 88.8625 59.4761 88.5387H59.4808Z" fill="#4A4A49"></path><path d="M63.1522 89.3956C62.7379 88.348 63.2189 87.4527 64.5474 86.9242C65.8712 86.4003 66.8427 86.7337 67.2522 87.7765C67.6665 88.8242 67.1855 89.7337 65.8617 90.2575C64.5331 90.7813 63.5665 90.448 63.1522 89.3956ZM66.2998 88.1527C66.0855 87.6051 65.6379 87.3908 64.857 87.7003C64.0808 88.0051 63.8951 88.4622 64.1141 89.0146C64.3331 89.5718 64.7855 89.7813 65.557 89.4765C66.3331 89.1718 66.5189 88.7051 66.2998 88.1527Z" fill="#4A4A49"></path><path d="M69.3332 88.6956L67.6284 85.7623L68.9522 84.9908L71.1046 86.3432L70.9903 83.8051L72.3141 83.0337L74.0189 85.967L73.1713 86.4575L71.9379 84.3337L72.0713 87.1004L71.2856 87.5575L68.9475 86.0765L70.1856 88.2004L69.3332 88.6956Z" fill="#4A4A49"></path><path d="M23.019 81.8382C13.9952 74.1811 8.2666 62.7573 8.2666 50.0001C8.2666 37.243 14.2999 25.2144 23.738 17.562" stroke="#D50B32" stroke-miterlimit="10"></path><path d="M76.2666 17.5669C85.7047 25.2193 91.7333 36.905 91.7333 50.0002C91.7333 63.0955 86.0047 74.1859 76.9809 81.8431" stroke="#D50B32" stroke-miterlimit="10"></path></g><defs><clipPath id="clip0_101_22050"><rect width="100" height="100" fill="white"></rect></clipPath></defs></svg>