<svg xmlns="http://www.w3.org/2000/svg" width="100" height="100" viewBox="0 0 100 100" fill="none"><g clip-path="url(#clip0_101_22049)"><path d="M50 100C77.6142 100 100 77.6142 100 50C100 22.3858 77.6142 0 50 0C22.3858 0 0 22.3858 0 50C0 77.6142 22.3858 100 50 100Z" fill="#F6B817"></path><path d="M50 2.53333C76.1714 2.53333 97.4667 23.8286 97.4667 50C97.4667 76.1714 76.1714 97.4667 50 97.4667C23.8286 97.4667 2.53333 76.1714 2.53333 50C2.53333 23.8286 23.8286 2.53333 50 2.53333ZM50 0C22.3857 0 0 22.3857 0 50C0 77.6143 22.3857 100 50 100C77.6143 100 100 77.6143 100 50C100 22.3857 77.6143 0 50 0Z" fill="#971A2E"></path><path d="M49.3096 80.676C43.5573 77.2236 38.7049 72.795 34.8811 67.5093C31.362 62.6379 28.862 57.2379 27.4477 51.4569L27.3239 50.9474L26.8763 48.7522C25.8715 43.2426 25.8858 37.6284 26.9192 32.0569L27.0858 31.1617L27.9715 30.976C28.0335 30.9617 33.8858 29.7284 39.0811 26.8093C46.4906 22.6426 48.9906 20.0045 49.0192 19.976L50.0096 18.895L51.0001 19.9807C51.0001 19.9807 53.5192 22.6379 60.9335 26.8093C66.1382 29.7284 71.9811 30.9617 72.0382 30.9712L72.9239 31.1569L73.0906 32.0474C74.1239 37.6236 74.1382 43.2331 73.1335 48.7426L72.9906 49.5331L72.5573 51.4474C71.143 57.2284 68.643 62.6236 65.1192 67.4998C61.3001 72.7855 56.4477 77.2141 50.6954 80.6665L50.0049 81.0807L49.3144 80.6665L49.3096 80.676Z" fill="#1D1C1A"></path><path d="M71.938 32.0806C71.938 32.0806 65.8333 30.8186 60.3476 27.7567C52.4714 23.3472 49.9952 20.6377 49.9952 20.6377C49.9952 20.6377 47.5238 23.3425 39.6428 27.7567C34.1618 30.8186 28.0571 32.0806 28.0571 32.0806C26.9333 38.1234 27.0618 44.1758 28.338 49.9425H71.6571C72.9333 44.1758 73.0619 38.1234 71.938 32.0806Z" fill="#F6B817"></path><path d="M49.9951 79.9142C61.3999 73.1046 68.9047 62.4475 71.5332 50.5713H28.457C31.0808 62.4475 38.5856 73.1046 49.9904 79.9142H49.9951Z" fill="#971A2E"></path><path d="M67.7474 46.2759C67.6284 46.1235 67.4951 45.9616 67.357 45.795C66.7331 45.0426 65.3522 43.1855 65.3522 43.1855C65.3522 37.1569 64.2712 36.0378 63.1617 35.0902C62.1808 34.2569 60.6236 33.8283 58.9474 33.5712C58.4903 33.4997 57.9903 33.4664 57.4141 33.4664C56.8379 33.4664 56.2951 33.495 55.7474 33.5283C55.2951 33.5569 47.4379 33.8855 44.9141 33.4569C43.8189 33.2712 42.2903 33.4855 41.3855 33.595C40.9665 33.6426 38.6998 34.0093 38.4331 33.5759C38.3808 33.495 38.3903 33.3188 38.4046 33.1188C38.4379 32.7997 38.5665 32.414 38.3189 32.0712C37.9808 31.5997 37.6093 31.0854 37.4046 31.0854C37.3427 31.0854 36.7808 31.5474 36.6427 31.6855C36.4141 31.914 36.3427 32.295 36.3522 32.7331C36.3617 33.0045 36.3427 32.9521 36.3189 32.9712C36.2855 33.0093 34.8379 33.0093 34.4712 33.0331C34.4712 32.9569 34.457 32.5854 34.2141 32.2283C34.057 31.9997 33.9236 31.2331 33.9236 31.2331C33.9236 31.2331 33.3998 32.1426 33.2236 32.3855C33.0236 32.6521 32.8236 32.9283 32.7046 33.2474C32.657 33.3664 32.6522 33.514 32.6427 33.6616C32.6379 33.7616 32.6236 33.9807 32.5808 34.014C32.3046 34.214 32.1474 34.495 32.1236 34.8474C32.1189 34.9474 32.1427 35.0855 32.176 35.2426C32.1951 35.3426 32.2284 35.5045 32.2284 35.5807C32.2046 35.595 32.176 35.614 32.1427 35.6331C31.8998 35.795 31.557 36.014 31.5808 36.3997C31.6141 36.9902 31.7474 37.2188 31.9379 37.5378C31.9903 37.6283 32.0427 37.7188 32.1046 37.8283C32.1855 37.9855 32.2236 38.2093 32.257 38.4283C32.3046 38.7331 32.0189 39.0712 32.2141 39.2616C32.4665 39.514 33.1284 39.5283 33.4189 39.5283C33.4998 39.5283 33.7998 39.5188 33.876 39.5188C33.9855 39.5188 34.0712 39.5235 34.1474 39.5378C34.6998 39.6474 35.2522 39.695 35.7903 39.7378C36.5284 39.7997 37.2236 39.8521 37.9236 40.0616C39.2189 40.4426 40.4951 40.9712 41.8189 41.6807C41.8903 41.7188 41.957 41.7521 42.0236 41.7902C42.5141 42.0426 42.6189 42.0093 42.8522 42.6854C43.0808 43.3616 42.657 48.6521 42.5617 49.1997C42.4141 50.0807 42.1331 50.6188 41.676 50.7854C41.0617 51.0093 40.8093 51.4902 40.5665 51.9569C40.4903 52.1093 40.4998 52.2902 40.4046 52.4426C40.4046 52.4426 40.2046 52.6616 40.2712 52.7188C40.3379 52.7759 40.9617 52.6235 40.9617 52.6235C41.176 52.6378 40.9427 52.7474 41.157 52.7474C41.676 52.7474 42.3141 52.7474 42.957 52.3712C43.2284 52.3712 43.0474 52.7188 43.2951 52.6712C44.0665 52.5283 44.1379 51.9378 44.2331 51.3712C44.3903 50.414 44.3665 50.2474 44.476 50.1616C44.5808 50.0759 44.9236 50.2188 45.0141 50.114C45.0855 50.0378 45.0046 49.3426 45.0474 48.714C45.1046 47.8188 45.3522 46.7712 45.6189 45.8997L45.6331 45.8569C45.6903 45.6664 45.7808 45.4331 45.876 45.1902C46.1284 44.5283 46.4331 43.7283 46.3951 43.0807C46.6712 43.1283 46.7141 43.1474 46.8712 43.3616C46.8951 43.395 46.9379 43.4664 46.9808 43.5378C47.2855 44.0331 47.4427 44.1759 47.6427 44.1759C47.6617 44.1759 47.6855 44.1759 47.7046 44.1664C48.0331 44.0807 48.2093 43.8045 48.3951 43.4378C48.576 43.0807 48.7712 42.7093 49.076 42.6378C49.0903 42.6378 49.1046 42.6331 49.1189 42.6331C49.3665 42.6331 49.8093 42.8569 50.057 43.2426C50.6093 44.0997 51.0808 43.4997 51.1284 43.4283C51.1903 43.3283 51.6331 42.5997 51.7427 42.4331C51.876 42.2283 51.957 42.2045 51.9855 42.2045C51.9903 42.2045 51.9951 42.2045 51.9998 42.2045C52.2665 42.2474 53.4427 43.6569 53.857 43.5616C54.2617 43.5188 54.7141 41.9712 54.9617 41.9712C54.976 41.9712 54.9855 41.9712 54.9998 41.9759C55.0617 42.0283 55.1998 42.2378 55.2903 42.3807C55.6046 42.8521 55.6712 43.1664 55.9189 43.1664C55.9951 43.1664 56.1331 43.0997 56.2189 42.895C56.2427 42.8426 56.3379 42.6093 56.3474 42.5855C56.357 42.595 56.4427 42.8807 56.6331 42.9331C56.5951 42.9521 56.5474 42.9712 56.5046 42.9997C56.5046 42.9997 56.1189 43.2616 56.0998 43.5712V43.6045C56.0903 43.714 56.0712 43.895 56.1903 44.095C56.2331 44.1616 56.2808 44.2378 56.3284 44.2997C56.3236 44.314 56.3141 44.3283 56.3093 44.3426C56.257 44.3759 56.2046 44.4093 56.1617 44.4474C56.1427 44.4521 56.1093 44.4616 56.0855 44.4712C55.9808 44.5045 55.8808 44.5331 55.795 44.6045C55.7379 44.6569 55.576 44.795 55.4427 45.1045L55.1522 44.814C54.9712 44.495 54.9046 44.4426 54.8046 44.3997C54.7522 44.3807 54.5808 44.3235 54.5141 44.3093C54.5141 44.3093 54.5046 44.3093 54.4665 44.2854L54.4474 44.2712L54.4331 44.2616C54.3189 44.2093 54.2189 44.1855 54.1236 44.1855C53.9522 44.1855 53.8093 44.2664 53.7379 44.4045C53.7141 44.4474 53.6998 44.4902 53.6998 44.5378C53.6331 44.495 53.5522 44.4616 53.4617 44.4616H53.4141L53.376 44.4712C53.2379 44.4997 53.157 44.5664 53.1093 44.6331C53.0998 44.6331 53.0903 44.6426 53.0855 44.6426C52.9808 44.695 52.9046 44.7997 52.8855 44.9188C52.8665 45.0616 52.9284 45.2045 53.0522 45.3093C53.4284 45.6283 53.4998 45.6426 53.557 45.6664C53.5998 45.6759 53.6474 45.695 54.2331 45.7235C54.4522 46.1235 54.6808 46.5474 54.7427 46.6283C54.7808 46.6854 55.1331 47.0854 55.4093 47.1426C55.4427 47.1521 55.476 47.1569 55.5093 47.1569C55.6141 47.1569 55.7427 47.1188 55.8665 47.0521C55.8808 47.1426 55.8665 47.2474 55.857 47.2807C55.8522 47.3045 55.8427 47.3331 55.8379 47.3616C55.4093 47.4616 54.9522 47.6235 54.657 47.7807C53.857 48.2235 54.776 49.6283 54.9808 50.0378C54.9474 50.0569 54.9189 50.0712 54.8903 50.0902C54.5474 49.8902 54.0951 49.914 53.9189 50.0902C53.9046 50.0807 53.8951 50.0664 53.8855 50.0569C53.7903 49.9855 53.5093 49.8188 53.3808 49.7378C53.1712 49.514 53.0808 49.4616 53.0379 49.4426C52.8665 49.3378 52.5331 49.2188 52.2522 49.1521C52.1951 48.5521 52.1522 48.414 52.1189 48.3474C52.1189 48.3283 52.1855 47.7997 52.176 47.4664C52.357 47.4997 52.595 47.5378 52.7808 47.5378C52.8903 47.5378 52.976 47.5235 53.0427 47.4997C53.2284 47.4521 53.5284 47.3474 53.657 47.1474L53.6855 47.1045L53.6951 47.0521C53.7093 47.0093 53.7903 46.6188 53.557 46.2474C53.3951 45.9902 52.9474 45.5188 52.6951 45.2854C52.7046 45.1426 52.7141 45.0093 52.7141 45.0045C52.7236 44.8902 52.6903 44.7712 52.5617 44.6331C52.5189 44.595 52.2189 44.2474 52.1331 44.1997C52.0522 44.1474 51.9189 44.114 51.8093 44.114C51.7712 44.114 51.7331 44.114 51.6998 44.1283C51.4046 44.1902 51.4331 44.6426 51.4427 44.6807C51.4046 44.6616 51.3665 44.6378 51.3236 44.6235C51.2236 44.514 51.076 44.4474 50.9236 44.4188C50.8474 44.3616 50.7379 44.3093 50.5951 44.3093C50.5855 44.3093 50.576 44.3093 50.5617 44.3093C50.3712 44.3188 50.3665 44.3378 50.276 44.414C50.1331 44.4426 50.0046 44.5283 49.9093 44.6474C49.8236 44.695 49.7284 44.7759 49.6474 44.9188C49.5665 44.9902 49.4712 45.1045 49.3951 45.3045L49.3665 45.3807C49.2998 45.5569 49.2236 45.7569 49.2808 45.9616C49.2808 45.9616 49.2808 45.9712 49.2855 45.9807C49.1236 46.0235 48.8903 46.1188 48.7617 46.3712C48.7046 46.4807 48.6474 46.6331 48.5951 46.7664C48.5236 46.7712 47.695 46.8712 47.7141 47.2616C47.7236 47.3807 47.776 47.5045 47.8903 47.5854C47.8141 47.7188 47.8093 47.8569 47.8808 47.9712C47.9427 48.0712 48.0189 48.1474 48.1141 48.1807C48.1427 48.2807 48.1903 48.3807 48.2617 48.4712C48.3427 48.5759 48.4331 48.6521 48.5046 48.7045C48.3474 48.7569 48.1855 48.8283 48.0284 48.9426C47.7998 49.0997 47.457 49.4378 47.757 49.9616C47.8046 50.0474 47.9474 50.2045 48.6712 50.9188C48.6474 50.9474 48.0712 51.995 49.0093 52.0378C49.2236 52.395 49.9474 51.8807 49.9712 51.8664C50.0236 51.8759 50.9998 51.8807 50.7427 51.1283C50.8093 51.1188 51.1474 51.0235 51.1617 51.0235C51.2712 51.0712 51.5141 51.1712 51.6522 51.1807C51.7189 51.1902 51.8236 51.1902 51.8998 51.1902C51.9998 51.1902 52.2379 51.1902 52.357 51.1664C52.3855 51.1616 52.4236 51.1521 52.4617 51.1426C52.5617 51.3093 52.7236 51.5093 52.9236 51.6283C53.1712 51.7712 53.7331 52.0188 53.9189 52.0997C53.957 52.1378 54.3522 52.4664 54.6093 52.4664C55.4331 52.4664 55.1808 51.714 55.1951 51.6712C55.2236 51.595 55.257 51.4093 55.276 51.1997C55.3617 51.1997 55.4331 51.195 55.4855 51.195H55.5093C55.5998 51.1997 55.7189 51.214 55.8046 51.2235L55.8665 51.2331C55.8665 51.2331 55.8903 51.2331 55.9046 51.2331C55.9665 51.2474 56.057 51.2664 56.1617 51.2664C56.2808 51.2664 56.3951 51.2378 56.4951 51.1854C56.8379 50.995 56.795 50.6521 56.7808 50.4997V50.4902C56.7617 50.3854 56.7379 49.995 56.7284 49.8474C56.7284 49.7521 56.7284 49.6474 56.7189 49.5521C56.7379 49.5616 56.7522 49.5712 56.757 49.5759C56.8998 49.6902 57.1093 49.8235 57.3046 49.8378C57.3236 50.0759 57.4284 51.3855 58.2331 51.3855C58.3189 51.3855 58.8284 51.3664 58.9808 51.2188C59.057 51.2426 60.257 51.1664 59.776 50.1188C59.776 50.1093 59.7665 50.095 59.7522 50.0759C59.657 49.8855 59.5617 49.7188 59.457 49.5997C59.4617 49.3855 59.457 49.2902 59.4284 49.214C59.457 49.1331 59.4903 49.0235 59.4903 48.9235C59.4903 48.7664 59.357 48.3331 59.1046 48.0188C59.0808 47.8854 59.0474 47.7426 59.0141 47.6093C59.1141 47.5855 59.2284 47.5283 59.3331 47.4045C59.3903 47.3378 59.5189 47.1569 59.5474 47.1235L59.576 47.0854L59.5903 47.0426C59.6046 46.9997 59.7427 46.6283 59.657 46.2331C59.5903 45.9521 59.4712 45.5235 59.4427 45.4235C59.4141 45.2569 59.3189 44.814 59.0046 44.6235C59.0141 44.595 59.0236 44.5616 59.0379 44.5235C59.0712 44.4807 59.1046 44.4235 59.1331 44.3569C59.2284 44.4474 59.2903 44.5045 59.2998 44.514C60.2665 45.3807 61.4712 46.4521 61.7046 47.6188C61.8379 48.2902 61.8046 49.0616 61.6141 49.7997C61.5712 49.9569 61.5331 50.0474 61.4998 50.0712C61.457 50.095 61.3522 50.0997 61.2189 50.1093C61.1617 50.1093 61.0903 50.1093 61.0141 50.114C60.6855 50.1378 60.457 50.4902 60.257 50.7997C60.1665 50.9474 60.0474 51.0616 59.9855 51.1712C59.9236 51.2807 60.0236 51.4569 60.0808 51.495C60.1427 51.5331 60.7379 51.6712 60.9189 51.6712C60.9712 51.6712 61.0189 51.6664 61.0665 51.6569C61.1951 51.7045 61.3474 51.7283 61.5236 51.7283C62.0427 51.7283 62.6951 51.514 62.8808 51.1521C63.1903 50.5378 63.4046 49.8712 63.6141 49.2235C63.6331 49.1521 63.657 49.0759 63.6808 49.0045C63.7284 48.8616 63.7855 48.6997 63.8522 48.5378C64.0808 47.9426 64.4665 47.3093 64.2951 46.7283C64.2046 46.4188 63.8903 46.1188 63.695 45.8569C63.5236 45.6235 62.8617 44.7616 62.6617 44.4616C63.2808 45.0569 64.9903 45.9426 65.4236 46.9759C65.576 47.3378 65.4236 48.8569 65.3903 49.2664C65.376 49.4569 65.3665 49.6521 65.3617 49.8521C65.3427 50.4759 65.1617 50.5855 64.5379 50.6521C63.9951 50.7093 63.7474 51.5093 63.6141 51.9378C63.6046 51.9616 63.5998 51.9854 63.5951 52.0045L63.5331 52.2045L63.7427 52.2426C63.8236 52.2569 63.9141 52.2712 64.0093 52.2902C64.3998 52.3616 65.057 52.6045 65.5189 52.6045C66.0665 52.6045 66.4522 52.4759 66.6951 52.2093C67.0093 51.8664 67.1284 51.2521 67.2379 50.714C67.2808 50.5093 67.4998 49.7854 67.5855 49.5235C68.0998 47.8712 68.6093 47.2378 67.7427 46.2854L67.7474 46.2759ZM32.8665 38.3093C32.676 38.4283 32.6093 38.0997 32.6093 38.0997C32.557 37.9712 32.5522 37.8283 32.6284 37.7759C32.7665 37.8664 32.9427 37.8616 32.9903 37.9474C33.0474 38.0378 32.9665 38.2521 32.8665 38.3093Z" fill="#C6C1C0"></path><path d="M67.7428 46.2712C67.6238 46.1188 67.4904 45.9569 67.3523 45.795C66.7333 45.0378 65.3523 43.1807 65.3523 43.1807C65.3523 37.1569 64.2714 36.0331 63.1619 35.0855C62.1761 34.2521 60.6238 33.8283 58.9428 33.5664C58.4904 33.495 57.9857 33.4616 57.4095 33.4616C56.8333 33.4616 56.2904 33.495 55.7428 33.5235C55.2904 33.5521 47.4285 33.8759 44.9095 33.4521C43.8142 33.2664 42.2857 33.4807 41.3809 33.5902C40.9666 33.6426 38.6952 33.9997 38.4238 33.5712C38.3761 33.4902 38.3809 33.3093 38.4 33.114C38.4285 32.795 38.5619 32.414 38.3142 32.0712C37.9714 31.5997 37.6 31.0854 37.3952 31.0854C37.3333 31.0854 36.7714 31.5426 36.6333 31.6855C36.4047 31.914 36.3285 32.295 36.338 32.7283C36.3476 33.0045 36.3285 32.9521 36.3095 32.9712C36.2714 33.0045 34.8285 33.0045 34.4619 33.0331C34.4619 32.9569 34.4523 32.5854 34.2047 32.2283C34.0428 31.995 33.9095 31.2283 33.9095 31.2283C33.9095 31.2283 33.3857 32.1378 33.2095 32.3807C33.0095 32.6474 32.8142 32.9235 32.6904 33.2426C32.6476 33.3664 32.638 33.514 32.6285 33.6569C32.6285 33.7569 32.6095 33.9759 32.5666 34.0045C32.2857 34.2045 32.138 34.4855 32.1095 34.8378C32.1 34.9378 32.1285 35.0759 32.1619 35.2283C32.1809 35.3331 32.2095 35.4902 32.2095 35.5664C32.1857 35.5807 32.1571 35.5997 32.1285 35.6188C31.8809 35.7807 31.5428 35.995 31.5666 36.3855C31.6 36.9759 31.7333 37.2093 31.919 37.5235C31.9714 37.614 32.0238 37.7045 32.0857 37.814C32.1714 37.9759 32.2047 38.1997 32.238 38.4188C32.2904 38.7283 32 39.0616 32.2 39.2521C32.4571 39.5045 33.119 39.5235 33.4047 39.5235C33.4809 39.5235 33.7809 39.514 33.8571 39.514C33.9666 39.514 34.0571 39.514 34.1285 39.5331C34.6809 39.6426 35.2333 39.6902 35.7761 39.7331C36.5142 39.7902 37.2095 39.8474 37.9047 40.0569C39.2 40.4331 40.4761 40.9616 41.8 41.6759C41.8761 41.714 41.9428 41.7474 42.0095 41.7854C42.5 42.0378 42.6047 42.0045 42.838 42.6807C43.0714 43.3569 42.6428 48.6474 42.5428 49.195C42.4 50.0759 42.119 50.6093 41.6571 50.7807C41.0428 51.0045 40.7904 51.4854 40.5523 51.9474C40.4714 52.0997 40.4857 52.2807 40.3857 52.4283C40.3857 52.4283 40.1857 52.6474 40.2571 52.7093C40.3238 52.7664 40.9428 52.614 40.9428 52.614C41.1571 52.6235 40.9238 52.7378 41.1428 52.7378C41.6619 52.7378 42.3 52.7378 42.9428 52.3664C43.2142 52.3664 43.0333 52.7093 43.2857 52.6664C44.0571 52.5235 44.1333 51.9331 44.2238 51.3664C44.3857 50.4093 44.3619 50.2474 44.4666 50.1569C44.5761 50.0759 44.9142 50.214 45.0047 50.1093C45.0761 50.0331 45.0047 49.3378 45.0381 48.7093C45.0952 47.8093 45.3428 46.7664 45.6095 45.895L45.6238 45.8521C45.6809 45.6569 45.7714 45.4283 45.8666 45.1807C46.119 44.5188 46.419 43.7188 46.3857 43.0712C46.6619 43.1235 46.7095 43.1378 46.8571 43.3569C46.8857 43.3902 46.9238 43.4616 46.9714 43.5378C47.2761 44.0331 47.4333 44.1712 47.6333 44.1712C47.6523 44.1712 47.6761 44.1712 47.6904 44.1616C48.0238 44.0759 48.1952 43.8045 48.3809 43.4378C48.5666 43.0807 48.7523 42.7045 49.0619 42.6378C49.0761 42.6378 49.0904 42.6378 49.1047 42.6378C49.3571 42.6378 49.7952 42.8616 50.0476 43.2474C50.6 44.1045 51.0714 43.5045 51.1142 43.4331C51.1809 43.3331 51.619 42.6045 51.7333 42.4331C51.8666 42.2283 51.9523 42.2045 51.9761 42.2045H51.9904C52.2571 42.2474 53.4333 43.6569 53.8476 43.5616C54.2523 43.5188 54.7047 41.9712 54.9523 41.9712C54.9666 41.9712 54.9761 41.9712 54.9904 41.9712C55.0523 42.0235 55.1904 42.2331 55.2809 42.3712C55.6 42.8426 55.6619 43.1569 55.9095 43.1569C55.9904 43.1569 56.1285 43.0902 56.2142 42.8854C56.2333 42.8283 56.3333 42.595 56.3428 42.5712C56.3523 42.5807 56.438 42.8664 56.6333 42.914C56.5952 42.9331 56.5476 42.9521 56.5047 42.9807C56.5047 42.9807 56.1238 43.2426 56.1047 43.5521V43.5854C56.0904 43.695 56.0761 43.8759 56.1952 44.0712C56.2381 44.1378 56.2904 44.2188 56.338 44.2807C56.3285 44.295 56.3238 44.3093 56.319 44.3235C56.2666 44.3569 56.2142 44.3902 56.1714 44.4283C56.1523 44.4283 56.119 44.4426 56.0952 44.4521C55.9904 44.4854 55.8904 44.514 55.8047 44.5854C55.7476 44.6426 55.5857 44.7807 55.4571 45.0855L55.1619 44.795C54.9809 44.4712 54.9142 44.4235 54.819 44.3807C54.7666 44.3616 54.5904 44.3045 54.5238 44.2902C54.5238 44.2902 54.5142 44.2902 54.4761 44.2712L54.4571 44.2569L54.4428 44.2474C54.3285 44.195 54.2238 44.1712 54.1285 44.1712C53.9571 44.1712 53.8142 44.2569 53.7476 44.395C53.7238 44.4331 53.7095 44.4807 53.7095 44.5283C53.6428 44.4855 53.5619 44.4521 53.4666 44.4521H53.419L53.3809 44.4616C53.2428 44.4902 53.1619 44.5569 53.1142 44.6235C53.1047 44.6235 53.0952 44.6331 53.0904 44.6331C52.9809 44.6902 52.9095 44.7902 52.8904 44.914C52.8714 45.0569 52.9333 45.1997 53.0571 45.3045C53.4333 45.6235 53.5047 45.6378 53.5619 45.6569C53.6047 45.6664 53.6523 45.6854 54.2381 45.714C54.4571 46.1093 54.6809 46.5378 54.7476 46.6188C54.7857 46.6759 55.1381 47.0712 55.4095 47.1331C55.4428 47.1331 55.4761 47.1426 55.5095 47.1426C55.619 47.1426 55.7428 47.1045 55.8666 47.0378C55.8809 47.1283 55.8666 47.2331 55.8571 47.2664C55.8571 47.295 55.8428 47.3235 55.8381 47.3521C55.4142 47.4521 54.9571 47.614 54.6619 47.7712C53.8619 48.2093 54.7809 49.614 54.9904 50.0283C54.9619 50.0474 54.9333 50.0616 54.9047 50.0759C54.5619 49.8759 54.1047 49.9045 53.9285 50.0759L53.8952 50.0426C53.8 49.9712 53.519 49.7997 53.3904 49.7235C53.1761 49.4997 53.0857 49.4474 53.0476 49.4235C52.8714 49.3188 52.5428 49.1997 52.2619 49.1331C52.2047 48.5331 52.1571 48.3902 52.1285 48.3283C52.1285 48.3093 52.1952 47.7807 52.1809 47.4474C52.3619 47.4759 52.5952 47.514 52.7857 47.514C52.8952 47.514 52.9809 47.5045 53.0523 47.4759C53.2381 47.4283 53.538 47.3235 53.6666 47.1283L53.6952 47.0807L53.7047 47.0283C53.719 46.9855 53.8 46.595 53.5619 46.2235C53.4 45.9664 52.9523 45.495 52.7 45.2569C52.7095 45.114 52.719 44.9759 52.719 44.9759C52.7285 44.8616 52.6952 44.7426 52.5666 44.6045C52.5238 44.5664 52.2238 44.2235 52.138 44.1759C52.0571 44.1235 51.9238 44.0902 51.8142 44.0902C51.7761 44.0902 51.7381 44.0902 51.7047 44.1045C51.4047 44.1664 51.4333 44.614 51.4428 44.6569C51.4095 44.6331 51.3666 44.614 51.3238 44.595C51.2238 44.4855 51.0761 44.4188 50.9285 44.3902C50.8523 44.3331 50.7428 44.2807 50.6 44.2807H50.5666C50.3761 44.2902 50.3714 44.3093 50.2761 44.3854C50.1333 44.414 50.0047 44.495 49.9142 44.6188C49.8285 44.6664 49.7285 44.7521 49.6476 44.8902C49.5619 44.9616 49.4666 45.0759 49.3904 45.2759L49.3619 45.3521C49.2952 45.5283 49.219 45.7235 49.2714 45.9283C49.2714 45.9283 49.2714 45.9378 49.2714 45.9474C49.1095 45.9902 48.8809 46.0854 48.7523 46.3378C48.6952 46.4474 48.6333 46.5997 48.5809 46.7283C48.5095 46.7283 47.6809 46.8331 47.7 47.2235C47.7095 47.3474 47.7666 47.4712 47.8761 47.5521C47.8047 47.6854 47.7952 47.8235 47.8666 47.9331C47.9285 48.0378 48.0095 48.114 48.1 48.1474C48.1333 48.2474 48.1809 48.3521 48.2476 48.4426C48.3285 48.5474 48.419 48.6235 48.4952 48.6759C48.338 48.7283 48.1761 48.7997 48.0238 48.9188C47.7904 49.0759 47.4523 49.4093 47.7476 49.9378C47.7952 50.0235 47.938 50.1807 48.6666 50.895C48.638 50.9235 48.0666 51.9712 49.0047 52.014C49.219 52.3712 49.9428 51.8569 49.9714 51.8426C50.0238 51.8521 50.9952 51.8569 50.7428 51.1045C50.8095 51.095 51.1428 50.9997 51.1619 50.9997C51.2714 51.0474 51.5095 51.1426 51.6523 51.1569C51.7142 51.1664 51.8238 51.1664 51.9 51.1664C52 51.1664 52.2381 51.1664 52.3523 51.1426C52.3857 51.1426 52.419 51.1283 52.4619 51.1188C52.5619 51.2854 52.7238 51.4855 52.9238 51.6045C53.1714 51.7426 53.7285 51.9902 53.919 52.0759C53.9571 52.114 54.3476 52.4378 54.6095 52.4378C55.438 52.4378 55.1809 51.6854 55.1952 51.6426C55.2238 51.5664 55.2571 51.3807 55.2761 51.1712C55.3619 51.1712 55.438 51.1712 55.4857 51.1712H55.5095C55.6047 51.1712 55.719 51.1902 55.8095 51.1997L55.8714 51.2093C55.8714 51.2093 55.8952 51.2093 55.9047 51.2093C55.9666 51.2235 56.0571 51.2426 56.1666 51.2426C56.2857 51.2426 56.4 51.2188 56.5 51.1616C56.8381 50.9712 56.8 50.6283 56.7857 50.4759V50.4664C56.7714 50.4093 56.7619 50.2616 56.7523 50.1188C56.7761 50.1188 56.7952 50.1188 56.8238 50.1188C56.9666 50.1283 57.0904 50.1474 57.2285 50.1426C57.2809 50.1378 57.3142 50.1331 57.3381 50.1235C57.4095 50.5855 57.6142 51.3569 58.2333 51.3569C58.319 51.3569 58.8285 51.3378 58.9857 51.1902C59.0571 51.2188 60.2571 51.1378 59.7809 50.095C59.7809 50.0854 59.7714 50.0712 59.7571 50.0521C59.6619 49.8569 59.5666 49.695 59.4619 49.5759V49.4759C59.4619 49.3283 59.4523 49.2521 59.4333 49.1854C59.4619 49.1045 59.4904 48.995 59.4904 48.895C59.4904 48.7378 59.3571 48.3045 59.1095 47.9854C59.0857 47.8521 59.0476 47.7093 59.0142 47.5807C59.1142 47.5569 59.2333 47.4997 59.338 47.3759C59.3952 47.3045 59.5285 47.1283 59.5523 47.0902L59.5857 47.0521L59.6 47.0093C59.6142 46.9664 59.7523 46.5997 59.6619 46.1997C59.6 45.914 59.4761 45.4902 59.4476 45.3854C59.419 45.2188 59.3238 44.7807 59.0142 44.5854C59.0238 44.5616 59.0333 44.5283 59.0476 44.4854C59.0809 44.4426 59.1142 44.3902 59.1428 44.3235C59.238 44.4093 59.3 44.4664 59.3095 44.4759C60.2809 45.3426 61.4809 46.414 61.7142 47.5807C61.8476 48.2474 61.8142 49.0235 61.6238 49.7616C61.5857 49.9188 61.5428 50.0093 61.5095 50.0331C61.4666 50.0616 61.3619 50.0664 61.2285 50.0712C61.1666 50.0712 61.1 50.0712 61.0238 50.0712C60.6904 50.095 60.4666 50.4426 60.2666 50.7569C60.1714 50.9045 60.0571 51.0235 59.9904 51.1235C59.9285 51.2331 60.0285 51.414 60.0904 51.4521C60.1523 51.4855 60.7476 51.6283 60.9285 51.6283C60.9809 51.6283 61.0285 51.6283 61.0714 51.614C61.2 51.6616 61.3571 51.6854 61.5285 51.6854C62.0476 51.6854 62.6952 51.4664 62.8857 51.1093C63.2 50.495 63.4095 49.8283 63.619 49.1807C63.6381 49.1093 63.6619 49.0331 63.6857 48.9616C63.7333 48.8188 63.7952 48.6569 63.8619 48.495C64.0904 47.9045 64.4714 47.2712 64.3 46.6902C64.2095 46.3807 63.9 46.0807 63.7 45.8188C63.5238 45.5807 62.8666 44.7235 62.6666 44.4188C63.2857 45.014 65 45.9045 65.4333 46.9331C65.5857 47.295 65.4333 48.814 65.4 49.2283C65.3857 49.4188 65.3761 49.614 65.3714 49.8093C65.3523 50.4331 65.1666 50.5474 64.5476 50.6093C64 50.6664 63.7523 51.4712 63.619 51.895C63.6095 51.9188 63.6047 51.9426 63.6 51.9664L63.5333 52.1664L63.7476 52.2045C63.8285 52.2188 63.919 52.2331 64.0142 52.2521C64.4047 52.3283 65.0571 52.5712 65.5238 52.5712C66.0666 52.5712 66.4571 52.4378 66.6952 52.1759C67.0142 51.8331 67.1285 51.2188 67.238 50.6807C67.2809 50.4759 67.5047 49.7474 67.5809 49.4902C68.0952 47.8331 68.6047 47.1997 67.738 46.2521L67.7428 46.2712ZM63.538 47.2902C63.7047 46.6188 64.1904 46.6712 64.0428 47.195C63.9761 47.4283 62.7952 50.8569 62.7857 50.6331C62.7523 50.6712 62.7285 50.6426 62.7333 50.6093C62.8095 49.9664 63.4809 47.5235 63.538 47.2902ZM32.2809 36.2664C32.4523 36.1188 32.8333 36.2664 32.738 36.6378C32.6095 36.7855 32.1 36.5426 32.2809 36.2664ZM32.6238 37.7759C32.7619 37.8664 32.9381 37.8616 32.9809 37.9474C33.0381 38.0378 32.9619 38.2521 32.8571 38.3093C32.6714 38.4283 32.6 38.095 32.6 38.095C32.5476 37.9664 32.5428 37.8235 32.619 37.7712L32.6238 37.7759ZM35.8428 38.5331C35.2666 38.4093 33.4428 39.1569 33.0428 39.0759C32.6523 38.995 32.5714 38.9569 32.5714 38.8902C32.5714 38.8283 32.6571 38.7521 32.6904 38.7188C32.7 38.7188 32.7285 38.6807 32.7666 38.6426C32.7904 38.6712 32.8142 38.6616 32.8333 38.6188C32.8571 38.5616 32.8952 38.5664 32.9142 38.6188L32.9285 38.6664C32.9523 38.7235 32.9952 38.7283 33.0285 38.6759L33.0666 38.5997C33.1 38.5521 33.1571 38.5521 33.1857 38.5997L33.2142 38.6474C33.2476 38.6997 33.3047 38.7093 33.3476 38.6569L33.419 38.5807C33.4571 38.5331 33.5142 38.5378 33.5428 38.595L33.5523 38.6188C33.5809 38.6712 33.6095 38.7188 33.6285 38.714C33.6476 38.714 33.6619 38.6664 33.6666 38.5997L33.7 38.1997C33.7095 38.1378 33.7333 38.1331 33.7571 38.1902L33.8952 38.5045C33.9238 38.5616 33.9952 38.5997 34.0523 38.5902C34.0523 38.5902 34.5952 38.4855 34.8666 38.2664C35.138 38.0474 35.4761 38.2807 35.619 38.1712C35.8095 38.014 35.7142 37.8807 35.7095 37.8235C35.7095 37.8235 35.6952 37.7378 35.4619 37.714C35.2285 37.695 34.0857 37.6664 34.0857 37.6664C34.0238 37.6664 33.9666 37.714 33.9523 37.7759L33.8952 38.0997C33.8857 38.1569 33.8571 38.1664 33.8333 38.0997L33.7 37.795C33.6761 37.7378 33.7857 37.7045 33.5428 37.7093C33.3857 37.7759 33.1857 37.6093 32.9761 37.3997C32.219 36.6331 33.1095 37.1093 33.0523 36.6331C33.0381 36.495 33 36.4331 32.9809 36.4093C33.0809 36.4569 33.4619 36.6474 33.5904 36.8235C33.6952 36.9188 34.1 36.6569 34.2428 36.7093C34.819 36.9188 35.2761 36.9759 36.0523 37.4093C36.219 37.4997 35.9952 37.9997 36.0428 38.0045C36.1428 38.0378 36.4238 37.4331 36.2809 37.3283C34.6047 36.0997 33.419 35.9902 33.419 35.9759C33.7619 35.6235 34.0571 35.0712 34.2571 34.595C34.2904 34.514 34.1809 34.414 34.219 34.3426C34.319 34.1378 34.4333 33.9712 34.5857 33.8664C35.1142 33.5093 35.9666 33.8759 36.2666 34.195C36.3857 34.3235 36.5285 34.5807 36.619 34.8664C36.3238 34.9235 36.1571 34.5997 35.8476 34.395C35.5238 34.1807 35.3095 34.0616 35.1 34.1188C34.8142 34.1997 34.5904 34.5997 34.5904 34.5997C34.819 34.3759 35.1095 34.3188 35.1095 34.3188C35.3428 34.3188 35.5761 34.5188 35.7619 34.714C35.6761 34.6521 35.5809 34.6045 35.5 34.5997C35.2142 34.5712 35.1809 34.9521 35.1809 34.9521L35.0333 35.1331C35.0333 35.1331 35.0571 35.1759 35.2761 35.1759C35.4476 35.1759 35.9476 35.1759 36.2142 35.1235C36.3904 35.1235 36.5571 34.9997 36.6285 34.9188C36.6666 35.0426 36.6952 35.1712 36.7095 35.2902C36.7285 35.4331 36.7476 35.5855 36.7523 35.7378C36.7666 35.9426 36.6857 35.9997 36.5333 35.9188C36.4285 35.8616 36.2666 35.7283 36.1 35.8235C35.9333 35.9188 36.119 36.4235 36.3809 36.7283C36.5142 36.8902 36.6857 37.0807 36.8 37.2712C36.8 37.3283 36.8095 37.3664 36.8095 37.3855C36.7666 38.095 36.5047 38.6426 35.8381 38.5045L35.8428 38.5331ZM35.6523 34.9093C35.6523 34.995 35.5619 35.0664 35.4952 35.0664C35.4238 35.0664 35.3666 34.995 35.3666 34.9093C35.3666 34.8235 35.4238 34.7521 35.4952 34.7521C35.5619 34.7521 35.6523 34.8235 35.6523 34.9093ZM39.4095 37.8902C39.4857 38.1902 39.6333 38.3378 39.7285 38.4474C39.7809 38.3569 39.8238 38.2426 39.8619 38.1235C39.7761 38.9474 40.2095 39.414 40.4285 39.6378C39.8619 39.395 39.5809 38.9854 39.4142 37.8902H39.4095ZM39.8761 38.0474C39.8904 38.0188 39.8952 37.9854 39.9047 37.9521C39.9857 38.4093 40.2952 38.5664 40.3904 38.6378C40.4619 38.5521 40.5 38.3902 40.519 38.2283C40.5904 38.9521 40.8285 39.3854 40.8619 39.4521C40.7619 39.3759 39.9952 38.7521 39.8714 38.0474H39.8761ZM41.3095 39.0807C41.3095 39.0807 40.9047 39.0093 40.519 38.214C40.5476 37.9616 40.5333 37.714 40.5333 37.714C40.5333 37.714 40.4285 38.3378 40.2761 38.2712C40.1571 38.2188 39.9904 38.0045 39.919 37.8902C39.9523 37.7569 39.9761 37.6283 39.9904 37.5378C40.0714 37.7426 40.2047 37.8331 40.2904 37.9045C40.419 37.7902 40.6476 37.2712 40.7047 37.1426C40.6381 37.2474 40.3809 37.6188 40.2666 37.5426C40.1523 37.4759 40 37.1997 39.9381 37.0807C40.0381 36.895 40.119 36.7093 40.1476 36.6378C40.219 36.8664 40.2904 36.9521 40.4142 37.0569C40.4952 36.9997 40.5619 36.9093 40.6142 36.8093C40.6333 36.9235 40.6666 37.0331 40.7095 37.1378C40.8761 37.5474 41.1761 37.8807 41.3857 38.1378C41.0238 38.1378 40.5666 37.5474 40.5666 37.5474C40.6761 38.4188 41.3142 39.0855 41.3142 39.0855L41.3095 39.0807ZM40.6428 36.7474C40.7523 36.5283 40.8047 36.2855 40.8142 36.2283C40.7761 36.314 40.5666 36.795 40.4238 36.7188C40.3142 36.6616 40.1714 36.3997 40.0904 36.2378C40.1714 36.0378 40.2333 35.814 40.2571 35.695C40.3 35.7664 40.3428 35.814 40.3857 35.8521C40.4285 35.8188 40.4619 35.7664 40.4904 35.7045C40.5523 36.0426 40.6285 36.1569 40.7047 36.2235C40.7666 36.2093 40.819 36.1521 40.8571 36.0854C40.9666 36.6045 41.1809 37.0474 41.4238 37.3235C41.1047 37.2902 40.9095 37.0759 40.6476 36.7474H40.6428ZM41.8571 34.9759C41.7571 34.9045 41.6904 34.5759 41.6904 34.5759C41.6523 34.9188 41.8238 35.1902 41.8571 35.2474C41.9285 35.2331 41.9809 35.1854 42.019 35.1188C42.0571 35.3902 42.2571 35.8283 42.3809 35.914C41.9714 35.8616 41.6095 35.6854 41.4571 35.5093C41.5095 35.395 41.5285 35.2855 41.5285 35.2426C41.4857 35.3045 41.338 35.5283 41.2523 35.4664C41.1571 35.395 41.0857 35.0664 41.0857 35.0664C41.0333 35.514 41.1476 35.6569 41.2476 35.7712C41.2952 35.7378 41.3381 35.6997 41.3666 35.6569C41.3571 35.9759 41.4952 36.4045 41.6809 36.5807C41.1428 36.4283 41.1333 36.3093 40.8952 35.9997C40.9619 35.8474 40.9904 35.6759 40.9904 35.6759C40.9904 35.6759 40.9047 35.8188 40.8142 35.8902C40.7666 35.9188 40.7238 35.9331 40.6857 35.9093C40.6238 35.8664 40.5571 35.7474 40.5095 35.6426C40.5714 35.4854 40.6 35.3093 40.6 35.2664C40.5809 35.3045 40.5142 35.4283 40.4428 35.4854C40.4095 35.514 40.3714 35.5283 40.3428 35.5093C40.2381 35.4426 40.1476 35.1188 40.1476 35.1188C40.1333 35.3997 40.1761 35.5712 40.238 35.6855C40.1714 35.8283 40 36.1664 39.8952 36.1093C39.7761 36.0426 39.6428 35.7235 39.6095 35.6426C39.6952 36.2378 39.7619 36.4331 39.9095 36.5521C39.9619 36.4997 40.0142 36.414 40.0571 36.314C40.0904 36.4426 40.1142 36.5474 40.1381 36.6331C40.0714 36.7378 39.7809 37.1474 39.6571 37.0712C39.519 36.9854 39.3904 36.5521 39.3904 36.5521C39.4047 36.7426 39.4238 36.8902 39.4476 37.0045C39.3952 37.1093 39.2476 37.3807 39.1666 37.3712C39.0619 37.3569 38.8428 36.9664 38.8428 36.9664C38.8904 37.3474 39.0761 37.5235 39.1666 37.6378C39.3285 37.5474 39.4238 37.1854 39.4523 37.0331C39.5 37.2474 39.5714 37.3474 39.6857 37.4283C39.7619 37.3664 39.8428 37.2521 39.9142 37.1235C39.9142 37.2759 39.938 37.395 39.9761 37.4855C39.8904 37.6855 39.7142 38.0712 39.6238 37.9997C39.4952 37.8997 39.3571 37.495 39.3571 37.495C39.3571 37.6045 39.3714 37.7045 39.3904 37.7902C39.3761 37.9616 39.3238 38.3759 39.119 38.2902C38.9666 38.2331 38.7142 37.7664 38.7142 37.7664C38.8571 38.4854 38.9857 38.5807 39.219 38.7235C39.2857 38.6616 39.3333 38.5759 39.3619 38.4759C39.3523 38.795 39.3904 39.1093 39.5619 39.395C39 39.1521 38.7857 38.5759 38.6761 38.3997C38.6571 38.5045 38.0666 39.214 37.3142 39.1664C37.6952 38.7997 37.7952 38.5569 37.7952 37.6093C37.3333 39.1807 36.4238 39.1331 36.3285 39.1235C36.3904 39.1235 37.1476 39.0902 37.2666 37.3997C37.2952 36.9664 36.9381 37.0474 36.9285 36.5474C36.9285 36.4331 37.1666 36.595 37.1476 36.3426C37.1142 35.8759 37.1285 35.4712 37.1285 35.4712C37.0381 33.6759 35.5047 33.5235 34.7571 33.4521C34.0523 33.3902 33.1476 33.9474 33.0476 34.0188C33.138 33.9235 33.2333 33.8426 33.3381 33.7759V33.7664C33.4047 33.6855 33.4904 33.5474 33.5476 33.395C33.638 33.1474 33.8857 32.514 33.8857 32.2712C33.9095 32.3426 34.1523 33.0569 34.1476 33.2664C34.1476 33.3759 34.1285 33.4378 34.1095 33.4712C34.5142 33.3807 34.9714 33.3616 35.4333 33.3759H35.4523C35.7809 33.414 37.5428 33.7235 37.8809 35.8854C38 35.4474 37.5238 34.0045 36.9142 33.6521C36.8619 33.6188 36.719 33.5474 36.7047 33.3569C36.7476 33.2997 36.7714 33.2045 36.7714 33.0616C36.7714 33.0616 36.7714 33.0616 36.7714 33.0521C36.7809 32.9188 36.7714 32.7474 36.7428 32.5426C36.6857 32.0712 37.0857 31.7426 37.2809 31.614C37.4809 31.4854 38.0857 32.0331 37.9809 32.4759C37.8238 32.0378 37.4571 31.9997 37.4571 31.9997C37.4571 31.9997 37.3047 31.9474 37.4428 32.2426C37.5857 32.5426 37.4809 33.1569 37.3047 33.3283C37.1285 33.4997 36.8619 33.395 36.8857 33.4997C36.9 33.5807 37.2476 33.8378 37.9095 33.1807C37.7809 33.5664 37.8142 34.0093 38.5238 34.1093C39.4238 34.2283 41.0809 34.1331 42.2619 33.9045C43.1857 33.6759 44.6523 33.8093 44.8904 33.9235C44.6476 33.914 44.5809 33.9235 44.2 33.9807C43.8428 34.0378 43.5666 34.1855 43.3952 34.1235C43.338 34.1045 43.5381 34.3188 43.7619 34.4616C43.6142 34.514 42.9142 34.5235 42.8142 34.4616C42.7571 34.5855 42.8857 35.0997 43.0619 35.2045C42.7238 35.2521 42.2952 35.1235 42.0619 35.0188C42.1142 34.8855 42.1238 34.7426 42.1238 34.7426C42.1238 34.7426 41.9428 35.0521 41.8476 34.9807L41.8571 34.9759ZM47.8666 43.614C47.8333 43.6474 47.7904 43.7521 47.7047 43.6426C47.619 43.5283 47.4761 42.3902 47.4761 42.3902C47.4761 42.3902 47.4523 42.2759 47.619 42.2569C47.8047 42.2426 48.0619 42.1902 48.1523 42.2569C48.2381 42.3235 48.3714 42.5569 48.3619 42.695C48.3619 42.8378 47.8952 43.5759 47.8666 43.614ZM48.6904 39.0664C48.5523 38.7426 48.319 37.8093 48.4571 37.4616C48.538 37.8045 48.7428 38.5283 48.8904 38.8521C49.1285 39.3426 49.419 39.9759 49.6142 40.2426C49.2571 40.1188 48.819 39.3807 48.6857 39.0664H48.6904ZM50.9476 42.9188C50.9476 42.9188 50.7857 43.2569 50.7095 43.0331C50.6571 42.8807 50.3333 41.8045 50.3904 41.5712C50.4476 41.3378 51.2047 41.3855 51.2047 41.3855C51.5476 41.3855 51.6285 41.7807 51.6285 41.9045C51.6285 42.0045 51.0238 42.7664 50.9428 42.9188H50.9476ZM54.1095 42.7569C54.1095 42.7569 53.8476 43.295 53.7571 43.0616C53.6952 42.914 53.2952 41.6855 53.3523 41.4521C53.4142 41.2188 54.1714 41.2664 54.1714 41.2664C54.5095 41.2664 54.5047 41.6616 54.5047 41.7807C54.5047 41.8807 54.1952 42.6093 54.119 42.7569H54.1095ZM58.4857 44.6569L58.0761 44.5188C58.0333 44.5045 57.9809 44.4093 57.9761 44.3283C57.9761 44.2902 58.1285 44.1283 58.2142 44.014C58.2 44.1474 58.2333 44.3331 58.2857 44.314C58.3571 44.295 58.3428 44.0521 58.3619 44.0235C58.4 43.9759 58.4285 43.8283 58.4142 43.7474C58.4142 43.7188 58.4 43.6997 58.3857 43.6854C58.319 43.6474 58.3 43.6188 58.3 43.6093C58.3 43.6093 58.3 43.595 58.3142 43.5854C58.3142 43.5854 58.3381 43.5474 58.3523 43.5188C58.3761 43.4616 58.3619 43.3902 58.3381 43.3378C58.319 43.295 58.1952 43.1378 58.1238 43.114C58.0666 43.0997 58.0285 43.0616 58.0285 43.0283C58.0285 43.014 58.0285 42.9855 58.0285 42.9664C58.038 42.9093 58.038 42.8569 58.019 42.8283C57.8476 42.5855 57.6095 42.5712 57.5333 42.5759C57.5333 42.5331 57.5809 42.495 57.7476 42.495C57.8238 42.495 58.0809 42.5188 58.1523 42.5283C58.319 42.5569 58.3238 42.7759 58.3238 42.7759C58.3238 42.7759 58.3952 42.7997 58.4904 42.8235C58.5904 42.8474 58.5666 43.0616 58.5666 43.0616L58.7238 43.2283C58.7238 43.2283 58.8095 43.3093 58.8095 43.4331C58.919 43.5664 58.8714 43.8474 58.8714 43.8474C58.8714 43.9378 58.8714 44.0093 58.8523 44.0712C58.8142 44.2855 58.7285 44.3283 58.7285 44.3283C58.7285 44.3283 58.6857 44.4997 58.6571 44.5283C58.6333 44.5616 58.5428 44.6331 58.4809 44.6521L58.4857 44.6569ZM58.3952 45.0426C58.4476 45.0854 58.5476 45.114 58.5428 45.1854C58.5428 45.2093 58.5333 45.4093 58.4952 45.4569C58.3809 45.5997 57.8571 45.7759 57.6904 45.7474C57.6761 45.7331 57.5714 45.6283 57.6142 45.5807C57.6523 45.5378 57.7523 45.6331 57.7809 45.6093C57.8095 45.5807 57.5714 45.3093 57.6476 45.2569C57.7333 45.1997 57.838 45.4093 57.8857 45.3712C57.9333 45.3378 57.9142 45.3093 57.9 45.2807C57.9 45.2664 57.7952 45.0759 57.7952 45.0759C57.7857 45.0664 57.6761 44.895 57.7476 44.8616C57.8238 44.8378 57.9 44.9616 57.9142 44.9807C57.9238 44.9807 58.0619 45.2378 58.1238 45.2045C58.1809 45.1759 58.0142 44.8045 58.0142 44.8045C58.0047 44.7712 57.938 44.6759 57.9714 44.6474C58.0047 44.6188 58.0428 44.6283 58.138 44.7569C58.1476 44.7712 58.3952 45.2188 58.438 45.2188C58.438 45.2188 58.438 45.1188 58.4 45.0474L58.3952 45.0426ZM56.9571 42.3045C56.9571 42.3045 56.8333 42.595 56.7142 42.4188C56.5476 42.1712 56.0142 41.2902 56.0761 41.0569C56.1333 40.8235 56.8904 40.8712 56.8904 40.8712C57.2333 40.8712 57.3095 41.2712 57.3095 41.3902C57.3095 41.4902 57.0333 42.1521 56.9571 42.3045ZM51.3523 45.0045C51.3857 45.0569 51.419 45.1188 51.3523 45.0902C51.2523 44.9378 50.8809 44.8235 50.8714 44.8093C50.8476 44.7854 50.9142 44.7235 51.1238 44.8807C51.2428 44.895 51.319 44.9569 51.3571 45.0045H51.3523ZM51.1 44.8426C51.0571 44.795 50.9571 44.7331 50.8285 44.7426C50.8285 44.7283 50.8285 44.7188 50.8142 44.7045C50.8809 44.714 51.0476 44.7474 51.1 44.8426ZM50.4333 44.695V44.6854C50.4809 44.6426 50.5142 44.6093 50.5952 44.6045C50.6857 44.6045 50.7523 44.6569 50.7761 44.6854C50.7857 44.6854 50.7857 44.695 50.7904 44.6997C50.8047 44.7235 50.8095 44.7426 50.7904 44.7426C50.7571 44.7426 50.7333 44.6854 50.7285 44.6759C50.7047 44.6426 50.619 44.6902 50.6714 44.7283C50.6857 44.7426 50.7047 44.7474 50.7285 44.7616C50.7571 44.7807 50.7428 44.7854 50.7285 44.7807C50.6952 44.7712 50.6666 44.7664 50.6238 44.7664C50.5857 44.7664 50.5476 44.7664 50.5142 44.7855C50.4952 44.795 50.4809 44.7855 50.5 44.7664C50.519 44.7569 50.5381 44.7474 50.5523 44.7426C50.6285 44.695 50.5047 44.6045 50.4857 44.7283C50.4714 44.7474 50.4571 44.7664 50.4476 44.7664C50.4047 44.7664 50.4285 44.7188 50.438 44.6997L50.4333 44.695ZM50.4238 44.695C50.4238 44.695 50.3904 44.7235 50.3857 44.7474C50.3761 44.7474 50.238 44.7569 50.1666 44.8188C50.2714 44.6855 50.4 44.6902 50.4238 44.695ZM50.1285 44.8759C50.2857 44.7616 50.3666 44.7664 50.3571 44.814C50.3571 44.8283 50.1666 44.9331 50.0952 45.0045C50.0333 45.0521 49.9428 45.1569 49.9285 45.1616C49.9095 45.1616 49.9 45.1378 49.9142 45.0902C49.9142 45.0807 49.9142 45.0664 49.9333 45.0474C50.0238 44.8997 50.1285 44.8759 50.1285 44.8759ZM48.4047 47.9902C48.5619 48.0902 48.5142 48.0854 48.6857 48.1426C48.8666 48.195 48.8523 48.0426 49 48.0426C49.0714 48.0426 49.0857 47.9807 49.0904 47.9045L49.1047 47.895C49.1047 47.895 49.1714 47.8331 49.2095 47.6997C49.2428 47.8759 49.3333 48.214 49.2714 48.3093L49.2428 48.3378C49.1761 48.395 49.0904 48.4569 49.0285 48.4854C48.9333 48.5235 48.8238 48.4854 48.8238 48.4854C48.8238 48.4854 48.6619 48.4188 48.519 48.2378C48.4619 48.1664 48.4285 48.0712 48.4095 47.9807L48.4047 47.9902ZM50.4285 51.3045C50.4142 51.4283 50.1714 51.6188 49.9571 51.5093C49.9 51.5093 49.4666 51.8569 49.2666 51.7854C49.1761 51.7664 49.1666 51.7093 49.1285 51.695C49.0952 51.6854 48.9809 51.714 48.9285 51.6521C48.8619 51.5664 48.8285 51.4616 48.8571 51.3569C48.8809 51.2664 49.0333 51.3235 49.0285 51.295C49.019 51.2616 48.838 51.2807 48.9095 51.1093C48.938 51.0474 49.1142 51.1093 49.1142 51.1093H49.2333C49.2333 51.1093 49.2571 51.1093 49.2571 51.0997C49.2571 51.0997 49.3333 50.9188 49.4571 50.8474C49.5904 50.7759 49.8047 50.6807 49.9 50.6759C49.5666 50.5902 49.2523 50.8045 49.1857 50.9426C48.9238 50.6902 48.0952 49.8807 48.038 49.7807C47.9666 49.6616 47.8428 49.4331 48.2142 49.1807C48.6238 48.8807 49.1 48.8997 49.2666 48.895C49.9523 49.2997 50.3714 50.5902 50.4238 50.7188C50.4142 50.7188 50.4095 50.7188 50.4095 50.7188C50.3904 50.7188 50.3476 50.7426 50.3047 50.7569C50.2619 50.6807 49.4 48.914 48.6476 49.1474C49.1666 49.0902 50.1047 50.6474 50.2 50.7902L50.2095 50.7997C50.2428 50.8331 50.3428 50.9521 50.3809 51.0283C50.4238 51.1188 50.4428 51.1807 50.4238 51.2997L50.4285 51.3045ZM54.8904 51.5521C54.8523 51.6664 54.8571 51.8807 54.8571 51.914C54.8571 51.9569 54.8095 52.1235 54.6095 52.1235C54.4095 52.1235 54.1142 51.8093 54.1142 51.8093C54.1142 51.8093 53.3666 51.4807 53.0904 51.3283C52.8095 51.1664 52.6285 50.7426 52.6285 50.7426C52.6285 50.7426 52.4047 50.8093 52.2952 50.8331C52.1857 50.8521 51.7952 50.8569 51.6904 50.8426C51.6 50.8331 51.3619 50.7426 51.2904 50.7045V50.6902C51.2904 50.6902 51.2714 49.9902 51.8285 49.4569C51.7571 49.4712 51.2142 49.6474 51.0857 50.7378C51 50.7712 50.9095 50.8093 50.8714 50.8093C50.8285 50.8093 50.7333 50.795 50.6476 50.7807C50.5476 50.495 50.019 49.114 49.3285 48.7997C49.3809 48.6331 49.5333 48.3521 49.5333 48.3521V47.7807C49.519 47.6902 49.5047 47.2426 49.5047 47.1759C49.5476 47.2045 50.0666 47.095 50.1809 46.895C50.1809 46.895 49.819 46.9616 49.7285 46.9426C49.5619 46.914 49.519 46.8474 49.5095 46.795C49.5095 46.7807 49.4476 46.3807 49.4 46.3807C49.2952 46.395 49.3857 47.5712 49.4095 47.8664C49.3809 47.9474 49.3571 48.0331 49.3571 48.0331C49.3571 48.0331 49.3476 48.0664 49.338 48.1093C49.3142 47.9569 49.2333 47.5378 49.2333 47.5378V47.5093C49.2238 47.4378 49.2047 47.3712 49.1619 47.314C49.0952 47.2235 48.9857 47.1712 48.9142 47.1712C48.9142 47.1712 49.2 47.3664 49.1666 47.5616C49.1285 47.7569 49.0952 47.7712 49.0952 47.7712L49.0523 47.7283V47.8426C49.0428 47.8997 49.0285 47.9235 48.9857 47.9188C48.8761 47.9188 48.7952 48.0712 48.6761 48.0331C48.5666 47.9997 48.5095 47.9093 48.438 47.8569C48.3714 47.8093 48.4714 47.714 48.4714 47.714C48.4714 47.714 48.4714 47.6712 48.438 47.6521C48.4142 47.6331 48.3714 47.7283 48.3666 47.7521C48.3666 47.7521 48.3666 47.7616 48.3666 47.7664C48.3428 47.7902 48.2952 47.8331 48.2666 47.8378C48.2333 47.8521 48.1857 47.8378 48.1571 47.7854C48.1333 47.7378 48.2333 47.6378 48.2333 47.6378L48.2761 47.3902L48.3809 47.3664C48.3809 47.3664 48.4904 47.4045 48.5857 47.3902C48.6857 47.3712 48.8428 47.1902 48.8142 47.1807C48.7904 47.1664 48.7095 47.2902 48.5666 47.2902C48.5142 47.2902 48.4619 47.2807 48.4 47.2664H48.3904C48.3904 47.2664 48.3285 47.2997 48.2904 47.3093C48.2761 47.3093 48.2666 47.3093 48.2571 47.3093C48.1904 47.3188 48.0476 47.3283 48.038 47.2093C48.038 47.1521 48.1714 47.1378 48.2095 47.1093C48.2809 47.0569 48.5952 47.0426 48.6619 47.0521C48.7428 47.0521 48.8095 47.095 48.8095 47.095C48.8095 47.095 48.9428 46.695 49.0523 46.4759C49.1476 46.2854 49.3714 46.2474 49.4904 46.2188C49.4904 46.2188 49.5 46.2188 49.5142 46.2188C49.6 46.2045 49.8809 46.1521 50.0809 46.1521C50.119 46.1521 50.1523 46.1521 50.1761 46.1616C50.3809 46.2093 50.619 46.2902 50.6238 46.2569C50.6238 46.2235 50.3333 46.114 50.2 46.0854C50.1761 46.0854 50.1381 46.0854 50.0904 46.0854C49.9666 46.0854 49.8047 46.0997 49.7333 46.1093C49.7333 46.1093 49.6285 45.9759 49.5952 45.8474C49.5619 45.7188 49.638 45.5521 49.7047 45.3807C49.7714 45.214 49.838 45.1521 49.8761 45.1283C49.8571 45.1712 49.8761 45.2093 49.8857 45.2378C49.8381 45.3521 49.8476 45.4997 49.9142 45.614C49.9714 45.714 50.3047 45.995 50.3285 45.9759C50.3619 45.9569 49.9857 45.6235 49.9571 45.4807C49.8952 45.1378 50.3571 44.8378 50.5047 44.8235C50.5142 44.8235 50.5333 44.8664 50.619 44.8569C50.7238 44.8569 50.7333 44.8235 50.7381 44.8235C50.8571 44.8093 51.419 45.0188 51.3619 45.4331C51.338 45.5664 51.2857 45.7235 51.3095 45.7426C51.3333 45.7569 51.3571 45.6854 51.4142 45.5712C51.4714 45.4521 51.4761 45.3045 51.4238 45.1902C51.4571 45.1569 51.4619 45.1188 51.4428 45.0807C51.519 45.1283 51.6809 45.295 51.7809 45.8331C51.7809 45.914 51.6619 46.0235 51.6095 46.0664H51.2238C51.0952 46.0664 50.7 46.2331 50.7238 46.2616C50.7523 46.2902 51.0428 46.1664 51.238 46.1426C51.4047 46.1188 51.6666 46.1569 51.7809 46.1759C51.8095 46.1759 51.8285 46.1854 51.8333 46.1854C51.9047 46.195 52 46.2188 52.0857 46.2426C52.2142 46.4521 52.5 46.7854 52.7047 46.9474C52.7952 47.0331 52.8666 47.0807 52.9 47.0569C52.838 46.9902 52.419 46.495 52.2714 46.314C52.2476 46.2093 51.8714 45.6188 51.8714 45.6188C51.8714 45.6188 51.838 45.595 51.7857 45.5378C51.7333 45.4854 51.6333 45.1997 51.6142 45.1474C51.5952 45.0854 51.6142 45.0235 51.6476 44.9902C51.7238 44.914 51.8095 45.1378 51.8619 45.214C51.9238 45.214 51.9857 45.0759 51.9857 45.0759C51.9857 45.0759 51.919 45.0616 51.8952 45.0283C51.8761 44.9997 51.8761 44.8569 51.8857 44.8331C51.8952 44.8093 51.9523 44.7807 51.9523 44.7807L51.9095 44.6569C51.9095 44.6569 51.8285 44.5902 51.7952 44.5569C51.7666 44.5283 51.7523 44.4188 51.7952 44.4045C51.8476 44.3902 51.9714 44.4283 52.0047 44.4569C52.0428 44.4902 52.3142 44.7997 52.3523 44.8426C52.3952 44.8854 52.3952 44.9426 52.3952 44.9426C52.3952 44.9426 52.3809 45.2235 52.3571 45.3712C52.5142 45.5045 53.1142 46.114 53.2857 46.3855C53.4571 46.6569 53.3904 46.9474 53.3904 46.9474C53.3047 47.0759 52.9523 47.1664 52.9523 47.1664C52.7761 47.2426 52.1571 47.1045 52.038 47.0902C52 46.5616 51.9428 46.3616 51.9095 46.3616C51.8857 46.3616 51.8333 46.7283 51.8333 46.7759C51.8333 46.7855 51.819 47.0283 51.5476 46.9854C51.3142 46.9474 51.2 46.9045 51.1761 46.895C51.2761 47.0759 51.7095 47.1759 51.8238 47.3235C51.8333 47.3378 51.8476 47.3902 51.8523 47.4378C51.8523 47.4378 51.8523 47.4474 51.8523 47.4521C51.8523 47.7664 51.8 48.2569 51.8 48.3188C51.938 48.595 51.9523 49.1569 51.9571 49.3902C52.2761 49.3902 52.8571 49.6569 52.8952 49.695C52.9619 49.7283 53.1857 49.9664 53.1857 49.9664C53.1857 49.9664 53.5952 50.2045 53.6952 50.2807C53.7476 50.3283 53.8904 50.4378 53.9952 50.5235C53.9952 50.5235 54.0619 50.8378 54.0571 50.9712C54.0571 50.995 54.0476 51.0045 54.0381 51.0093C54.0381 51.0093 54.0285 51.0188 54.0285 51.0235C53.9714 51.0807 54.0095 51.2997 54.0095 51.2997C54.0095 51.2997 54.0714 51.1712 54.1333 51.1045L54.1523 51.0854C54.1809 51.0569 54.1857 51.0378 54.1761 50.9331V50.9093C54.1761 50.8712 54.1428 50.6854 54.1333 50.6283C54.1333 50.6283 54.1333 50.6283 54.1333 50.614V50.5997C54.1238 50.5474 54.1095 50.4378 54.1047 50.3902C54.1047 50.3569 54.1333 50.2902 54.2142 50.2521C54.2428 50.2426 54.3142 50.2616 54.338 50.3235C54.3571 50.3807 54.3285 50.2331 54.3904 50.2283C54.4095 50.2283 54.4952 50.2426 54.5666 50.2569C54.5666 50.2569 54.6095 50.2664 54.6238 50.2664C54.7761 50.2902 54.8666 50.3616 54.9238 50.4521C55 50.5759 55 50.7331 54.9952 50.8426C54.9952 50.8759 54.9952 50.9045 54.9952 50.9283C54.9952 50.995 54.9809 51.0902 54.9666 51.1902C54.9476 51.3331 54.9285 51.4759 54.9047 51.5426L54.8904 51.5521ZM56.3238 50.8712C56.1761 50.9521 55.9952 50.8807 55.9095 50.8712C55.8285 50.8616 55.6571 50.8378 55.5285 50.8331C55.4857 50.8331 55.3952 50.8331 55.2904 50.8331C55.2904 50.6235 55.2476 50.4331 55.1666 50.3093C55.3095 50.2283 55.4238 50.1664 55.4238 50.1664C55.4238 50.1664 55.4857 50.1426 55.4047 50.0283C55.1428 49.6854 54.3857 48.3807 54.819 48.0426C54.9666 47.9188 55.5904 47.7521 55.9333 47.6712C55.9523 47.7188 56.3476 48.6902 56.8047 49.195C56.7761 49.214 56.6904 49.2045 56.5952 49.1854C56.5952 49.1854 55.7904 48.5997 55.5523 48.2997C55.5142 48.5045 56.3619 49.295 56.3619 49.295C56.3714 49.5045 56.3809 49.8426 56.3809 49.8426C56.3809 49.8426 56.419 50.3759 56.438 50.5093C56.4523 50.6521 56.4761 50.7902 56.3285 50.8664L56.3238 50.8712ZM59.4761 50.2712C59.5142 50.3331 59.7619 50.7426 59.3095 50.9045C59.1809 50.9521 59.0809 50.8712 59.0333 50.8235C59.0761 50.7235 59.138 50.495 59.1619 50.3997C59.1857 50.295 59.1904 49.9521 59.1904 49.8045C59.3095 49.9283 59.4476 50.2235 59.4761 50.2712ZM59.1428 48.9045C59.1428 48.9854 59.0619 49.1521 59.0428 49.195C59.0761 49.2759 59.1047 49.5569 59.1 49.7474C59.1 49.9997 59.0571 50.6521 58.8952 50.8569C58.7666 50.9188 58.538 51.0093 58.2523 51.0235C57.5428 51.0521 57.619 49.5521 57.619 49.3855C57.619 49.3569 57.619 49.3331 57.619 49.314C57.619 49.3283 57.619 49.3378 57.619 49.3378C57.619 49.3378 57.8761 48.4569 58.0904 48.3664C58.3142 48.2712 58.6428 48.314 58.6428 48.314C58.6428 48.314 58.3904 48.1331 58.0761 48.1807C57.7761 48.2235 57.5714 49.1378 57.5476 49.2521V49.2616C57.4857 49.4378 57.4666 49.4474 57.3428 49.4712C57.2571 49.4854 57.0809 49.3712 57 49.314C56.4285 48.5331 56.219 47.8378 56.1619 47.6188L56.1047 46.4807V46.3855L56.0714 45.8902C56.0714 45.8902 56.1381 45.9188 56.1619 45.8997C56.1857 45.8759 56.0523 45.7569 56.0428 45.6093C56.0428 45.4997 56.1619 45.3616 56.1381 45.3474C56.119 45.3331 56.0714 45.3712 56.0714 45.3712C56.0809 45.2759 56.0904 45.1664 56.0952 45.0997C56.1047 44.9997 56.2333 44.8045 56.2333 44.8045C55.9476 44.9045 55.8952 45.2331 55.8952 45.2331L55.8761 45.4902C55.8761 45.4902 55.8476 45.5664 55.8476 45.6188C55.8476 45.6807 55.8857 45.7474 55.8904 45.7474L55.9666 46.5521C55.7952 46.7331 55.5761 46.8093 55.4857 46.7854C55.3714 46.7616 55.0952 46.495 55.0238 46.4093C54.9571 46.314 54.4571 45.3712 54.4571 45.3712C54.4571 45.3712 53.7285 45.3426 53.6714 45.3235C53.6095 45.3045 53.3523 45.0378 53.3 44.9902C53.2476 44.9474 53.2 44.695 53.4619 44.7855C53.5619 44.8235 53.7238 44.9235 53.7476 44.9283C54.3476 45.0235 54.3285 44.7712 54.2952 44.7521C54.2571 44.7283 54.1095 44.6569 54.0619 44.595C54.0142 44.5283 54.0619 44.4616 54.2952 44.5474C54.3619 44.5759 54.6428 44.6712 54.6809 44.6854C54.8 44.7283 54.8857 44.9902 54.8857 44.9902L55.4523 45.5664C55.4523 45.7616 55.6333 46.5664 55.6666 46.5426C55.7 46.5235 55.5809 45.5331 55.5809 45.5331C55.6095 45.4855 55.6523 45.4331 55.7095 45.3807C55.819 45.0188 55.9761 44.8855 56.038 44.8331C56.0761 44.7997 56.1809 44.7759 56.2714 44.7474C56.338 44.7712 56.5333 44.8188 56.8476 45.0235C56.8952 44.9426 56.5809 44.7569 56.3952 44.6807C56.4571 44.6235 56.6095 44.5474 56.6095 44.5474C56.6095 44.5474 56.6571 44.3712 56.6857 44.3045C56.719 44.2331 56.6857 44.1712 56.6857 44.1712C56.6857 44.1712 56.5619 44.0093 56.4904 43.8855C56.419 43.7616 56.4285 43.6474 56.4476 43.5569C56.4714 43.414 56.638 43.2854 56.6952 43.2474C56.7523 43.214 56.8523 43.1807 56.8523 43.1807C56.8523 43.1807 57.0666 42.9235 57.1857 42.8188C57.2238 42.7807 57.2809 42.7569 57.3428 42.7331C57.3619 42.7331 57.3809 42.7188 57.4 42.714C57.4 42.714 57.4142 42.714 57.4238 42.714C57.4238 42.714 57.4428 42.7045 57.4571 42.7045C57.4666 42.7045 57.4761 42.7045 57.4904 42.7045C57.5809 42.7045 57.7238 42.7283 57.8666 42.895C57.8809 42.9093 57.8761 42.9759 57.8666 43.0283C57.8666 43.0283 57.838 43.1331 57.9714 43.1997C58.0619 43.2378 58.1095 43.314 58.1428 43.3616C58.1523 43.3712 58.1571 43.3854 58.1666 43.395C58.1809 43.414 58.1904 43.4378 58.1809 43.4759C58.1809 43.4759 58.1809 43.4902 58.1809 43.5045C58.1809 43.5378 58.1619 43.5521 58.1476 43.5616C58.1381 43.5759 58.1238 43.595 58.1285 43.6235C58.1381 43.6521 58.1523 43.6997 58.1904 43.7283C58.1619 43.7569 58.1333 43.7664 58.1 43.7664C58.0476 43.7664 58.0047 43.7331 58.0047 43.7331C58.0047 43.7331 57.9952 43.8474 58.119 43.8474C58.1714 43.8474 58.219 43.8188 58.2428 43.795C58.2428 43.8235 58.2523 43.8569 58.2333 43.9045C58.0809 43.9045 57.8 44.2188 57.7952 44.3093C57.7952 44.3759 57.8238 44.5235 57.8857 44.5854C57.8666 44.6093 57.8476 44.6426 57.8476 44.6807C57.2381 44.7235 57.0095 44.9426 56.9809 45.0521C57.0381 45.0331 57.4809 44.8569 57.6476 44.8283C57.5428 44.9283 57.6857 45.114 57.7142 45.1474C57.6904 45.1378 57.6333 45.1093 57.5761 45.1474C57.4571 45.2378 57.5761 45.4283 57.6 45.4712C57.5523 45.4712 57.519 45.4854 57.5 45.5045C57.438 45.5759 57.5571 45.7235 57.6428 45.814C57.6857 45.8569 57.5 45.8474 56.9761 45.4569C56.9904 45.8378 57.6238 46.0664 57.8238 46.0712C57.8238 46.0712 58.6047 47.4997 58.6571 47.6045C58.7047 47.7854 58.7523 47.9855 58.7761 48.1521C59.019 48.4045 59.1476 48.8283 59.1476 48.9093L59.1428 48.9045ZM59.1 45.4759C59.1 45.4759 59.2428 45.9807 59.3142 46.2854C59.3857 46.595 59.2619 46.8997 59.2619 46.8997C59.2619 46.8997 59.1142 47.1045 59.0571 47.1664C59.0047 47.2331 58.9428 47.2712 58.8571 47.2569C58.7904 47.2474 58.6095 47.1854 58.5428 47.1616V47.1426L57.9238 45.995L57.9 45.9521C57.9 45.9521 57.8666 45.9093 57.8142 45.8616C57.8 45.8474 57.8142 45.8283 57.8285 45.8331C58.0428 45.8569 58.4142 45.7521 58.5047 45.7235C58.5285 45.7521 59.1238 46.4521 59.1666 46.4188C59.2142 46.3902 58.5666 45.5378 58.5619 45.5378C58.5619 45.5378 58.6238 45.1855 58.6095 45.1426C58.5809 45.0616 58.4047 44.9331 58.3381 44.9331H58.3238C58.3238 44.9331 58.3 44.8902 58.2952 44.8855L58.2857 44.8664C58.2381 44.7902 58.2047 44.7283 58.1761 44.6902C58.3 44.7283 58.419 44.7664 58.4238 44.7712H58.4904C58.4904 44.7712 58.538 44.7712 58.7857 44.8807C59.0285 44.9902 59.1 45.4759 59.1 45.4759ZM60.8666 51.0426C60.8 51.1331 60.6666 50.9854 60.6571 50.895C60.6476 50.8045 60.7809 50.5759 60.8571 50.4997C60.9238 50.4235 61.0761 50.4235 61.0761 50.4235C61.2476 50.414 60.9333 50.9521 60.8666 51.0426ZM61.3761 51.1759C61.2095 51.2426 61.1142 51.1283 61.1142 51.1283C61.1142 51.1283 61.1476 50.7474 61.2238 50.6474C61.2761 50.5759 61.3761 50.6045 61.3761 50.6045C61.3761 50.6045 61.6714 50.6902 61.7714 50.7712C61.8857 50.8569 61.538 51.1093 61.3761 51.1759ZM64.9714 51.2759C64.9047 51.3093 64.8761 51.4521 64.8714 51.4902C64.8285 51.7331 64.8714 52.0902 64.8333 52.1331C64.7904 52.2045 64.5761 52.1331 64.5476 52.0759C64.5238 52.0283 64.5476 51.5283 64.5476 51.4855C64.5476 51.3759 64.6857 51.2854 64.8428 51.2188C64.9142 51.195 65.1238 51.1712 65.1857 51.0569C65.238 51.1616 64.9952 51.2664 64.9666 51.2759H64.9714ZM67.719 47.1521C67.5142 47.914 66.8476 49.995 66.5476 51.1664C66.2428 52.3283 65.7666 52.1616 65.4523 52.1616C65.138 52.1616 65.0952 51.9093 65.2142 51.5664C65.3238 51.2569 65.5142 51.4331 65.6904 51.3664C65.8761 51.2997 65.8904 51.2569 65.9142 50.9616C65.9333 50.6997 66.0714 48.4426 65.9428 47.2616C65.9285 47.1474 66.8714 47.7759 66.8619 47.6807C66.8142 47.1854 66.1285 46.7331 66.0904 46.695C65.3666 45.9474 61.3857 43.214 60.1333 40.8712C59.9904 40.6045 57.7904 37.2283 57.6 36.8616C57.0333 35.795 57.3047 35.0093 57.6571 34.5235C56.8095 35.1331 56.4095 35.914 56.7904 36.6997C57.419 37.9902 58.3761 39.6521 58.6523 39.914C58.3047 39.7331 57.7047 38.8664 55.4333 39.3807C54.4142 39.6093 54.0619 40.2331 52.6857 40.2045C52.1619 40.195 51.4666 38.514 51.1714 37.7521C51.1714 38.6759 51.8476 40.1426 52.0142 40.3997C51.2047 40.5045 50.2285 38.1712 49.9047 36.5664C49.8238 37.5569 50.4857 39.9569 51 40.4235C49.8666 40.3235 49.3095 38.6188 49.1095 37.4093C48.9476 36.7854 48.4761 36.6997 47.938 36.5283C47.519 36.4188 47.1857 36.2759 47.1857 36.295C47.1857 36.3664 47.2238 36.4712 47.2333 36.5616C47.7952 39.0664 44.9095 43.9045 44.9666 44.0378C44.9857 44.0855 45.8523 42.9331 45.8809 42.9807C46.1238 43.4045 45.5809 44.8188 45.0761 46.4616C44.5619 48.1235 44.8476 49.3235 44.6714 49.6807C44.5809 49.6474 44.2571 49.5712 44.2095 49.6997C44.0095 50.4616 43.6857 51.9283 43.6142 52.0188C43.5619 52.0807 43.4904 52.1283 43.4 52.0997C43.4285 51.9045 43.0238 52.0045 42.7761 52.0664C42.7333 52.0807 43.0333 51.3188 42.9952 51.3188C42.7571 51.3188 42.4714 52.2664 42.1238 52.2759C41.8238 52.3045 41.5428 52.3474 41.5285 52.3378C41.5285 52.3093 42.1047 51.2616 42.1476 51.1854C42.419 50.7093 42.6428 51.2854 42.8857 50.1378C43.0857 49.1759 43.4333 44.6426 43.3476 42.6331C43.338 42.4331 43.9333 44.1664 43.938 43.8331C43.9571 43.0331 43.4285 42.0093 43.1619 41.4569C42.719 40.5235 42.5952 39.8997 42.8476 37.9426C43.1333 35.7616 44.5619 34.7283 45.5047 34.3093C45.7523 34.2426 46.7809 34.0855 47.0523 35.9093C47.1761 35.2188 47.0428 34.4045 46.6238 34.0712C46.9047 34.0712 47.3571 34.0807 47.8523 34.0902C48.6714 34.1045 49.5952 34.1235 50.038 34.1474C50.1047 34.1378 50.1809 34.1331 50.2285 34.1378C50.819 34.114 51.9285 34.1664 52.9761 34.1664C54.2904 34.1664 56.2666 33.9378 56.5047 33.9235C56.8333 33.9235 57.938 33.9045 58.4 33.9474C58.7761 33.9378 59.9381 33.9902 61.8857 34.8045C65.2571 36.1521 64.6571 42.5188 64.6571 42.5188C64.6571 42.5188 64.2571 38.3474 63.3095 36.7569C62.7904 35.8759 61.3523 34.7474 61.2285 34.9474C63.4523 36.514 63.7809 39.3807 63.9047 39.7807C64.0952 40.3997 64.5333 43.1235 64.5333 43.1235C64.5333 43.1235 66.0714 44.9235 66.4047 45.3426C66.6571 45.6474 67.2904 46.295 67.5381 46.6616C67.6238 46.7807 67.7714 46.9855 67.7238 47.1664L67.719 47.1521Z" fill="#1D1C1A"></path><path d="M57.0144 43.4523C57.0144 43.4237 56.9525 43.2952 56.8715 43.2999C56.7906 43.3047 56.662 43.438 56.6906 43.4476C56.7192 43.4476 56.7239 43.3904 56.8001 43.3856C56.8858 43.3856 56.9192 43.4618 56.9573 43.4714C56.9953 43.4714 57.0144 43.4809 57.0144 43.4523Z" fill="#1D1C1A"></path><path d="M57.4383 43.119C57.5097 43.1333 57.5859 43.1999 57.5859 43.1999C57.5859 43.1999 57.5621 43.1142 57.4764 43.0809C57.3573 43.038 57.3335 43.119 57.3335 43.119C57.3335 43.119 57.3621 43.1047 57.4335 43.119H57.4383Z" fill="#1D1C1A"></path><path d="M34.5333 58.1948C34.5333 56.7281 34.5333 56.4567 34.5143 56.1472C34.4952 55.8186 34.419 55.6662 34.1 55.5948C34.0238 55.5758 33.8571 55.5662 33.7238 55.5662C33.619 55.5662 33.5571 55.5472 33.5571 55.4805C33.5571 55.4139 33.6238 55.3948 33.7714 55.3948C34.2857 55.3948 34.8905 55.4234 35.0952 55.4234C35.4238 55.4234 36.1571 55.3948 36.4571 55.3948C37.0667 55.3948 37.7143 55.452 38.2333 55.8091C38.5047 55.9948 38.8905 56.4853 38.8905 57.1329C38.8905 57.8472 38.5905 58.5043 37.6143 59.2948C38.4714 60.3758 39.1381 61.2377 39.7095 61.8329C40.2524 62.3948 40.6476 62.4615 40.7905 62.49C40.8952 62.5091 40.9809 62.5186 41.0619 62.5186C41.1428 62.5186 41.1762 62.5472 41.1762 62.5948C41.1762 62.671 41.1095 62.69 40.9952 62.69H40.0762C39.5381 62.69 39.2952 62.6424 39.0428 62.5043C38.6286 62.2805 38.2619 61.8281 37.719 61.0853C37.3333 60.5567 36.8905 59.8996 36.7619 59.752C36.7143 59.6948 36.6571 59.6853 36.5857 59.6853L35.7476 59.6662C35.7 59.6662 35.6714 59.6853 35.6714 59.7424V59.8758C35.6714 60.7758 35.6714 61.5377 35.719 61.9424C35.7476 62.2234 35.8047 62.4329 36.0952 62.4758C36.2381 62.4948 36.4524 62.5139 36.5667 62.5139C36.6428 62.5139 36.6809 62.5424 36.6809 62.59C36.6809 62.6567 36.6143 62.6853 36.4905 62.6853C35.9286 62.6853 35.2143 62.6567 35.0714 62.6567C34.8857 62.6567 34.2809 62.6853 33.8952 62.6853C33.7714 62.6853 33.7047 62.6567 33.7047 62.59C33.7047 62.5424 33.7428 62.5139 33.8619 62.5139C34.0047 62.5139 34.1238 62.4948 34.2095 62.4758C34.4 62.4377 34.4524 62.2234 34.4905 61.9424C34.5381 61.5377 34.5381 60.7758 34.5381 59.8853V58.1853L34.5333 58.1948ZM35.6714 58.9567C35.6714 59.0615 35.6905 59.0996 35.7571 59.1281C35.9619 59.1948 36.2476 59.2234 36.4905 59.2234C36.8762 59.2234 37 59.1853 37.1762 59.0615C37.4667 58.8472 37.7476 58.4043 37.7476 57.6139C37.7476 56.2424 36.8381 55.8472 36.2714 55.8472C36.0286 55.8472 35.8571 55.8567 35.7619 55.8853C35.6952 55.9043 35.6762 55.9424 35.6762 56.0186V58.952L35.6714 58.9567ZM40.7667 59.0424C40.7667 57.39 41.8571 55.2567 44.7524 55.2567C47.1571 55.2567 48.6524 56.6567 48.6524 58.8662C48.6524 61.0758 47.1095 62.8234 44.6571 62.8234C41.8857 62.8234 40.7667 60.7472 40.7667 59.0377V59.0424ZM47.3047 59.2234C47.3047 57.0615 46.0571 55.7186 44.4762 55.7186C43.3667 55.7186 42.1 56.3377 42.1 58.7424C42.1 60.752 43.2095 62.3424 45.0619 62.3424C45.7381 62.3424 47.3 62.0139 47.3 59.2234H47.3047ZM50.1619 55.5043C50.1905 55.3424 50.2476 55.252 50.3238 55.252C50.4 55.252 50.4571 55.2996 50.5857 55.552L53.2238 60.9186L55.8476 55.4853C55.9238 55.3329 55.9714 55.252 56.0619 55.252C56.1524 55.252 56.2047 55.3472 56.2381 55.552L57.1143 61.4615C57.2 62.071 57.3 62.3472 57.5857 62.4377C57.8667 62.5234 58.0619 62.5329 58.1857 62.5329C58.2714 62.5329 58.3428 62.5424 58.3428 62.5996C58.3428 62.6758 58.2286 62.7043 58.0905 62.7043C57.8476 62.7043 56.519 62.6853 56.1333 62.6567C55.9095 62.6377 55.8524 62.6091 55.8524 62.552C55.8524 62.5043 55.8905 62.4758 55.9571 62.4472C56.0143 62.4281 56.0428 62.3043 56.0047 62.0329L55.4238 57.8329H55.3857L53.2809 62.1377C53.0571 62.5901 53.0095 62.6805 52.9238 62.6805C52.8381 62.6805 52.7381 62.4853 52.5857 62.1996C52.3524 61.7567 51.5905 60.2805 51.4762 60.0091C51.3905 59.8043 50.8095 58.6662 50.4714 57.9424H50.4333L49.9333 61.7091C49.9143 61.8805 49.9048 62.0091 49.9048 62.1615C49.9048 62.3424 50.0286 62.4329 50.1952 62.471C50.3714 62.5091 50.5047 62.5186 50.6 62.5186C50.6762 62.5186 50.7428 62.5377 50.7428 62.5853C50.7428 62.671 50.6571 62.69 50.5095 62.69C50.1047 62.69 49.6714 62.6615 49.4952 62.6615C49.3095 62.6615 48.8476 62.69 48.5381 62.69C48.4428 62.69 48.3667 62.671 48.3667 62.5853C48.3667 62.5377 48.4238 62.5186 48.519 62.5186C48.5952 62.5186 48.6619 62.5186 48.8095 62.49C49.0809 62.4329 49.1571 62.0567 49.2047 61.7281L50.1619 55.5091V55.5043ZM60.7428 60.2234C60.6952 60.2234 60.6762 60.2424 60.6571 60.2996L60.1333 61.6234C60.0381 61.8662 59.9857 62.0948 59.9857 62.2139C59.9857 62.3853 60.0714 62.5139 60.3714 62.5139H60.5143C60.6286 62.5139 60.6571 62.5329 60.6571 62.59C60.6571 62.6662 60.6 62.6853 60.4952 62.6853C60.1857 62.6853 59.7714 62.6567 59.4714 62.6567C59.3667 62.6567 58.8333 62.6853 58.3333 62.6853C58.2095 62.6853 58.1524 62.6662 58.1524 62.59C58.1524 62.5329 58.1905 62.5139 58.2667 62.5139C58.3524 62.5139 58.4905 62.5043 58.5667 62.4948C59.0095 62.4377 59.1952 62.1091 59.3857 61.6281L61.8095 55.6424C61.9238 55.3615 61.9809 55.2567 62.0809 55.2567C62.1667 55.2567 62.2238 55.3424 62.319 55.5662C62.5524 56.0996 64.0952 59.9567 64.7143 61.4234C65.0809 62.2901 65.3619 62.4281 65.5619 62.4758C65.7047 62.5043 65.8524 62.5139 65.9667 62.5139C66.0428 62.5139 66.0952 62.5234 66.0952 62.59C66.0952 62.6662 66.0095 62.6853 65.6524 62.6853C65.2952 62.6853 64.6 62.6853 63.8286 62.6662C63.6524 62.6567 63.5381 62.6567 63.5381 62.59C63.5381 62.5329 63.5762 62.5139 63.6762 62.5043C63.7428 62.4853 63.8095 62.3996 63.7619 62.2805L62.9905 60.29C62.9714 60.2424 62.9428 60.2234 62.8952 60.2234H60.7428ZM62.7143 59.7424C62.7619 59.7424 62.7714 59.7139 62.7619 59.6853L61.8952 57.3091C61.8857 57.271 61.8762 57.2234 61.8476 57.2234C61.819 57.2234 61.8 57.271 61.7905 57.3091L60.9 59.6758C60.8905 59.7139 60.9 59.7424 60.9381 59.7424H62.7143Z" fill="#1D1C1A"></path><path d="M34.7858 57.9806C34.7858 56.5139 34.7858 56.2425 34.7667 55.933C34.7477 55.6044 34.6715 55.452 34.3524 55.3806C34.2762 55.3615 34.1096 55.352 33.9762 55.352C33.8715 55.352 33.8096 55.333 33.8096 55.2663C33.8096 55.1996 33.8762 55.1806 34.0239 55.1806C34.5334 55.1806 35.1429 55.2092 35.3477 55.2092C35.6762 55.2092 36.4096 55.1806 36.7096 55.1806C37.3191 55.1806 37.9667 55.2377 38.4858 55.5949C38.7572 55.7758 39.1429 56.2711 39.1429 56.9187C39.1429 57.633 38.8429 58.2901 37.8715 59.0806C38.7286 60.1615 39.3953 61.0234 39.9667 61.6187C40.5096 62.1806 40.9048 62.2472 41.0477 62.2758C41.1524 62.2949 41.2429 62.3044 41.3191 62.3044C41.3953 62.3044 41.4334 62.333 41.4334 62.3806C41.4334 62.4568 41.3667 62.4758 41.2524 62.4758H40.3334C39.7953 62.4758 39.5524 62.4282 39.3 62.2949C38.8858 62.0711 38.5191 61.6187 37.9762 60.8758C37.5905 60.3472 37.1477 59.6901 37.0191 59.5425C36.9715 59.4853 36.9143 59.4758 36.8429 59.4758L36.0048 59.4568C35.9572 59.4568 35.9286 59.4758 35.9286 59.533V59.6663C35.9286 60.5615 35.9286 61.3282 35.9762 61.733C36.0048 62.0139 36.0619 62.2234 36.3524 62.2663C36.4953 62.2853 36.7096 62.3044 36.8239 62.3044C36.9 62.3044 36.9381 62.333 36.9381 62.3806C36.9381 62.4472 36.8715 62.4758 36.7477 62.4758C36.1858 62.4758 35.4715 62.4472 35.3286 62.4472C35.1477 62.4472 34.5381 62.4758 34.1524 62.4758C34.0286 62.4758 33.9572 62.4472 33.9572 62.3806C33.9572 62.333 33.9953 62.3044 34.1143 62.3044C34.2572 62.3044 34.3762 62.2853 34.462 62.2663C34.6572 62.2282 34.7048 62.0139 34.7429 61.733C34.7905 61.3282 34.7905 60.5663 34.7905 59.6758V57.9758L34.7858 57.9806ZM35.9239 58.7425C35.9239 58.8472 35.9429 58.8853 36.0096 58.9139C36.2143 58.9806 36.5 59.0091 36.7429 59.0091C37.1286 59.0091 37.2524 58.9711 37.4286 58.8472C37.7191 58.633 38 58.1901 38 57.3996C38 56.0282 37.0905 55.633 36.5239 55.633C36.281 55.633 36.1096 55.6425 36.0143 55.6711C35.9477 55.6901 35.9286 55.7282 35.9286 55.8091V58.7425H35.9239ZM41.0191 58.8282C41.0191 57.1758 42.1096 55.0425 45.0048 55.0425C47.4096 55.0425 48.9048 56.4425 48.9048 58.652C48.9048 60.8615 47.362 62.6091 44.9096 62.6091C42.1381 62.6091 41.0191 60.533 41.0191 58.8234V58.8282ZM47.5524 59.0139C47.5524 56.852 46.3048 55.5091 44.7239 55.5091C43.6143 55.5091 42.3477 56.1282 42.3477 58.5282C42.3477 60.5377 43.4572 62.1282 45.3096 62.1282C45.9858 62.1282 47.5477 61.7996 47.5477 59.0091L47.5524 59.0139ZM50.4096 55.2949C50.4381 55.133 50.4953 55.0425 50.5762 55.0425C50.6572 55.0425 50.7096 55.0901 50.8381 55.3425L53.4715 60.7091L56.0953 55.2758C56.1715 55.1234 56.2191 55.0425 56.3096 55.0425C56.4 55.0425 56.4524 55.1377 56.4858 55.3425L57.362 61.252C57.4477 61.8615 57.5477 62.1425 57.8334 62.2282C58.1143 62.3139 58.3048 62.3234 58.4334 62.3234C58.5191 62.3234 58.5905 62.333 58.5905 62.3901C58.5905 62.4663 58.4762 62.4949 58.3381 62.4949C58.0953 62.4949 56.762 62.4758 56.381 62.4472C56.1572 62.4282 56.1 62.3996 56.1 62.3425C56.1 62.2949 56.1381 62.2663 56.2048 62.2377C56.262 62.2187 56.2905 62.0901 56.2524 61.8234L55.6715 57.6234H55.6334L53.5286 61.9282C53.3048 62.3806 53.2572 62.4711 53.1715 62.4711C53.0858 62.4711 52.9858 62.2758 52.8334 61.9901C52.6 61.5472 51.8381 60.0711 51.7239 59.7996C51.6381 59.5949 51.0572 58.4568 50.7191 57.733H50.681L50.1762 61.4996C50.1572 61.6711 50.1477 61.7996 50.1477 61.952C50.1477 62.1377 50.2715 62.2234 50.4381 62.2615C50.6096 62.2996 50.7477 62.3092 50.8429 62.3092C50.9191 62.3092 50.9858 62.3282 50.9858 62.3758C50.9858 62.4615 50.9 62.4806 50.7524 62.4806C50.3477 62.4806 49.9096 62.452 49.7381 62.452C49.5524 62.452 49.0905 62.4806 48.781 62.4806C48.6858 62.4806 48.6096 62.4615 48.6096 62.3758C48.6096 62.3282 48.6667 62.3092 48.762 62.3092C48.8381 62.3092 48.9048 62.3091 49.0524 62.2806C49.3239 62.2234 49.4 61.8472 49.4477 61.5187L50.4048 55.3044L50.4096 55.2949ZM60.9905 60.0139C60.9429 60.0139 60.9239 60.033 60.9048 60.0901L60.3858 61.4139C60.2905 61.6568 60.2429 61.8853 60.2429 62.0044C60.2429 62.1758 60.3286 62.3044 60.6286 62.3044H60.7715C60.8858 62.3044 60.9143 62.3234 60.9143 62.3806C60.9143 62.4568 60.8572 62.4758 60.7524 62.4758C60.4429 62.4758 60.0286 62.4472 59.7286 62.4472C59.6239 62.4472 59.0905 62.4758 58.5905 62.4758C58.4667 62.4758 58.4048 62.4568 58.4048 62.3806C58.4048 62.3234 58.4429 62.3044 58.5191 62.3044C58.6048 62.3044 58.7429 62.2949 58.8191 62.2853C59.262 62.2282 59.4477 61.8996 59.6381 61.4187L62.062 55.433C62.1762 55.152 62.2381 55.0472 62.3334 55.0472C62.4191 55.0472 62.4762 55.133 62.5762 55.3568C62.8096 55.8901 64.3524 59.7472 64.9715 61.2139C65.3381 62.0853 65.6191 62.2187 65.8191 62.2663C65.962 62.2949 66.1096 62.3044 66.2239 62.3044C66.3001 62.3044 66.3477 62.3139 66.3477 62.3806C66.3477 62.4568 66.262 62.4758 65.9048 62.4758C65.5477 62.4758 64.8524 62.4758 64.081 62.4568C63.9048 62.4472 63.7905 62.4472 63.7905 62.3806C63.7905 62.3234 63.8286 62.3044 63.9239 62.2949C63.9905 62.2758 64.0572 62.1901 64.0096 62.0711L63.2381 60.0806C63.2191 60.033 63.1905 60.0139 63.1429 60.0139H60.9905ZM62.9572 59.533C63.0048 59.533 63.0143 59.5044 63.0048 59.4758L62.1381 57.0996C62.1286 57.0615 62.1191 57.0139 62.0905 57.0139C62.062 57.0139 62.0429 57.0615 62.0334 57.0996L61.1429 59.4663C61.1334 59.5044 61.1429 59.533 61.181 59.533H62.9572Z" fill="#F6B817"></path><path d="M47.9048 67.0713C48.7572 67.0713 49.2286 67.7046 49.2286 68.5141C49.2286 69.9999 47.9429 70.9284 47.2953 71.238C47.2715 71.2522 47.2429 71.2618 47.2001 71.2618C47.181 71.2618 47.1524 71.2332 47.1524 71.2094C47.1524 71.1713 47.1905 71.1427 47.2144 71.1189C47.762 70.7856 48.5763 69.9189 48.5763 68.6665C48.5763 67.7284 48.1858 67.3141 47.781 67.3141C47.4048 67.3141 47.1524 67.6522 47.1524 68.1046C47.1524 68.9141 47.6715 69.1046 47.8477 69.1046C48.0239 69.1046 48.1382 69.0713 48.2048 69.0427C48.262 69.0094 48.2905 68.9856 48.3096 68.9856C48.3286 68.9856 48.3524 69.0094 48.3524 69.0332C48.3524 69.0475 48.3382 69.0808 48.3239 69.0903C48.1715 69.257 47.9001 69.3332 47.6334 69.3332C46.881 69.3332 46.562 68.757 46.562 68.3094C46.562 67.5951 47.0953 67.076 47.9048 67.076V67.0713ZM43.7382 68.0284C43.7382 68.0618 43.762 68.0856 43.781 68.0856C43.8001 68.0856 43.8286 68.076 43.8524 68.0665C43.9667 68.0189 44.362 67.8141 44.462 67.8141C44.5382 67.8141 44.5382 67.876 44.5382 68.0046V69.5427C44.5477 70.0522 44.5382 70.4999 44.5191 70.7332C44.5048 70.9046 44.4763 70.9761 44.3096 71.0141C44.2144 71.038 43.9477 71.0522 43.8905 71.0522C43.8715 71.0522 43.8477 71.0665 43.8477 71.1046C43.8477 71.1427 43.881 71.1522 43.9382 71.1522C44.2715 71.1522 44.7144 71.138 44.8334 71.138C44.9763 71.138 45.3096 71.1522 45.7096 71.1522C45.7667 71.1522 45.7905 71.1427 45.7905 71.1046C45.7905 71.0665 45.762 71.0522 45.7429 71.0522C45.7001 71.0522 45.4763 71.038 45.3953 71.0189C45.2286 70.9808 45.2001 70.9046 45.1858 70.7332C45.1667 70.4999 45.1667 70.0522 45.1667 69.5427V68.5618C45.1667 67.7522 45.2001 67.2284 45.2001 67.1856C45.2001 67.1332 45.1858 67.076 45.1382 67.076C45.0953 67.076 45.0477 67.1141 45.0001 67.1475C44.8144 67.2856 43.8096 67.9522 43.7858 67.9618C43.7572 67.976 43.7334 68.0046 43.7334 68.038L43.7382 68.0284ZM49.6953 71.057C49.6953 71.0999 49.7334 71.1332 49.7667 71.1332H51.8239C52.1572 71.1332 52.2382 71.1189 52.281 70.976C52.3334 70.7951 52.4334 70.3046 52.4334 70.2189C52.4334 70.1665 52.4334 70.1189 52.3905 70.1189C52.3572 70.1189 52.3429 70.1379 52.3286 70.2046C52.2667 70.4522 52.0905 70.6332 51.7286 70.676C51.5334 70.7046 50.9144 70.7094 50.8286 70.7094H50.4715C50.4429 70.7094 50.4334 70.6903 50.462 70.6713C51.1382 70.1237 52.2667 69.2284 52.2667 68.2046C52.2667 67.5856 51.8715 67.076 50.9524 67.076C50.4905 67.076 50.2096 67.1713 50.0048 67.276C49.9477 67.3141 49.9429 67.3332 49.9429 67.3808C49.9429 67.5332 49.9667 67.9761 49.9763 68.0237C49.981 68.0856 49.9953 68.1237 50.0239 68.1237C50.0763 68.1237 50.0905 68.0761 50.0905 68.0237C50.0905 67.8856 50.1858 67.638 50.3096 67.5141C50.4667 67.3665 50.6429 67.3237 50.8667 67.3237C51.1286 67.3237 51.5858 67.4951 51.5858 68.3284C51.5858 69.4475 50.5429 70.2713 49.8096 70.9237C49.7572 70.9713 49.7048 71.0189 49.7048 71.0618L49.6953 71.057ZM53.0048 68.0475C53.0048 68.0999 53.0048 68.1284 53.0477 68.1284C53.081 68.1284 53.0953 68.0999 53.1001 68.0618C53.1096 67.976 53.1763 67.8046 53.2715 67.7427C53.3953 67.657 53.6191 67.6475 53.762 67.6475H55.1191C54.3953 68.8713 53.7239 70.4332 53.5763 70.9427C53.5477 71.0284 53.5382 71.1094 53.5382 71.1618C53.5382 71.2094 53.5524 71.2237 53.6096 71.2237C53.8477 71.2237 54.2715 71.0046 54.2715 70.8999C54.2715 70.8284 54.262 70.7951 54.2715 70.7046C54.3477 70.0284 55.1667 67.9237 55.6048 67.2999C55.6191 67.2808 55.6429 67.238 55.6429 67.2046C55.6429 67.1761 55.6144 67.1618 55.5144 67.1618H53.8382C53.281 67.1618 53.162 67.1094 53.1286 67.1094C53.0953 67.1094 53.0763 67.1332 53.0763 67.1856C53.0763 67.238 52.9953 67.857 52.9953 68.0522L53.0048 68.0475Z" fill="#1D1C1A"></path><path d="M48.0715 66.9189C48.9238 66.9189 49.3953 67.557 49.3953 68.3618C49.3953 69.8475 48.1095 70.7761 47.4619 71.0856C47.4381 71.0999 47.4095 71.1094 47.3667 71.1094C47.3476 71.1094 47.3191 71.0809 47.3191 71.057C47.3191 71.0189 47.3572 70.9904 47.381 70.9666C47.9286 70.6332 48.7429 69.7666 48.7429 68.5142C48.7429 67.5761 48.3524 67.1618 47.9476 67.1618C47.5715 67.1618 47.3191 67.4999 47.3191 67.9523C47.3191 68.7618 47.8381 68.9523 48.0143 68.9523C48.1905 68.9523 48.3048 68.9189 48.3715 68.8904C48.4286 68.857 48.4572 68.8332 48.4762 68.8332C48.4953 68.8332 48.5191 68.857 48.5191 68.8808C48.5191 68.8951 48.5048 68.9285 48.4905 68.938C48.3381 69.1047 48.0667 69.1809 47.8 69.1809C47.0476 69.1809 46.7286 68.6047 46.7286 68.157C46.7286 67.4428 47.2619 66.9237 48.0715 66.9237V66.9189ZM43.9048 67.8761C43.9048 67.9094 43.9286 67.9332 43.9476 67.9332C43.9667 67.9332 43.9953 67.9237 44.0191 67.9142C44.1334 67.8666 44.5286 67.6618 44.6286 67.6618C44.7095 67.6618 44.7095 67.7237 44.7095 67.8523V69.3904C44.7191 69.8999 44.7095 70.3475 44.6905 70.5809C44.6762 70.7523 44.6476 70.8237 44.481 70.8618C44.3857 70.8856 44.1191 70.8999 44.0619 70.8999C44.0429 70.8999 44.0191 70.9142 44.0191 70.9523C44.0191 70.9904 44.0524 70.9999 44.1095 70.9999C44.4429 70.9999 44.8857 70.9856 45.0048 70.9856C45.1476 70.9856 45.481 70.9999 45.881 70.9999C45.9381 70.9999 45.9619 70.9904 45.9619 70.9523C45.9619 70.9142 45.9334 70.8999 45.9143 70.8999C45.8715 70.8999 45.6476 70.8856 45.5667 70.8666C45.4 70.8285 45.3715 70.7523 45.3572 70.5809C45.3381 70.3475 45.3381 69.8999 45.3381 69.3904V68.4094C45.3381 67.5999 45.3715 67.0761 45.3715 67.0332C45.3715 66.9809 45.3572 66.9237 45.3095 66.9237C45.2667 66.9237 45.2191 66.9618 45.1715 66.9951C44.9857 67.1332 43.981 67.7999 43.9572 67.8094C43.9286 67.8237 43.9048 67.8523 43.9048 67.8856V67.8761ZM49.8619 70.9047C49.8619 70.9475 49.9 70.9808 49.9334 70.9808H51.9905C52.3238 70.9808 52.4048 70.9666 52.4476 70.8237C52.5 70.6428 52.6 70.1523 52.6 70.0666C52.6 70.0142 52.6 69.9666 52.5572 69.9666C52.5238 69.9666 52.5095 69.9856 52.4953 70.0523C52.4334 70.2999 52.2572 70.4809 51.8953 70.5237C51.7 70.5523 51.081 70.557 50.9953 70.557H50.6381C50.6095 70.557 50.6 70.538 50.6286 70.5189C51.3048 69.9713 52.4334 69.0761 52.4334 68.0523C52.4334 67.4332 52.0381 66.9237 51.1191 66.9237C50.6572 66.9237 50.3762 67.0189 50.1715 67.1237C50.1143 67.1618 50.1095 67.1808 50.1095 67.2285C50.1095 67.3808 50.1334 67.8237 50.1429 67.8666C50.1429 67.9285 50.1619 67.9666 50.1905 67.9666C50.2429 67.9666 50.2572 67.9189 50.2572 67.8666C50.2572 67.7285 50.3524 67.4808 50.4762 67.357C50.6334 67.2094 50.8095 67.1666 51.0334 67.1666C51.2953 67.1666 51.7524 67.338 51.7524 68.1713C51.7524 69.2904 50.7095 70.1142 49.9762 70.7666C49.9238 70.8142 49.8715 70.8618 49.8715 70.9047H49.8619ZM53.1715 67.8951C53.1715 67.9475 53.1715 67.9761 53.2143 67.9761C53.2476 67.9761 53.2619 67.9475 53.2667 67.9094C53.2762 67.8237 53.3429 67.6523 53.4381 67.5904C53.5619 67.5047 53.7857 67.4951 53.9286 67.4951H55.2857C54.5619 68.7189 53.8905 70.2809 53.7429 70.7904C53.7143 70.8761 53.7048 70.957 53.7048 71.0094C53.7048 71.057 53.7191 71.0713 53.7762 71.0713C54.0143 71.0713 54.4381 70.8523 54.4381 70.7475C54.4381 70.6761 54.4286 70.6428 54.4381 70.5523C54.5143 69.8761 55.3334 67.7713 55.7715 67.1475C55.7857 67.1285 55.8095 67.0856 55.8095 67.0523C55.8095 67.0237 55.781 67.0094 55.681 67.0094H54.0048C53.4476 67.0094 53.3286 66.957 53.2953 66.957C53.2619 66.957 53.2429 66.9809 53.2429 67.0332C53.2429 67.0856 53.1619 67.7047 53.1619 67.8999L53.1715 67.8951Z" fill="#C6C1BF"></path><path d="M30.7095 11.3384L31.1143 12.0717L28.9 13.2955L29.2476 13.9289L31.2143 12.8431L31.6143 13.5717L29.6476 14.6574L30.1333 15.5336L29.2714 16.0098L27.6333 13.0431L30.7095 11.3431V11.3384Z" fill="#1D1C1A"></path><path d="M36.3001 12.6237L35.762 12.1523L33.8286 12.938L33.7715 13.6523L32.7905 14.0523L33.1334 10.2571L34.3905 9.74756L37.281 12.2285L36.3048 12.6237H36.3001ZM33.8953 12.1142L35.1334 11.6095L34.0143 10.6333L33.8953 12.1142Z" fill="#1D1C1A"></path><path d="M41.3476 10.1764L40.7619 7.81927L41.7095 7.58594L42.5238 10.8764L41.1286 11.224L38.6048 9.34784L39.1905 11.705L38.2381 11.9431L37.4238 8.6526L38.8238 8.30499L41.3476 10.1812V10.1764Z" fill="#1D1C1A"></path><path d="M46.1191 6.96208L50.2001 6.79541L50.2334 7.62874L48.6858 7.69065L48.7906 10.243L47.8096 10.2811L47.7049 7.72874L46.1525 7.79065L46.1191 6.95731V6.96208Z" fill="#1D1C1A"></path><path d="M51.3903 8.49526C51.4855 7.37622 52.3141 6.78098 53.7379 6.90479C55.1569 7.0286 55.876 7.75717 55.7807 8.87145C55.6855 9.9905 54.8522 10.5953 53.4331 10.4715C52.0093 10.3476 51.295 9.61907 51.3903 8.49526ZM54.7569 8.78574C54.8093 8.20003 54.5045 7.80955 53.6664 7.73812C52.8331 7.66669 52.4665 7.9905 52.4188 8.58574C52.3665 9.18098 52.676 9.57145 53.5045 9.64288C54.3379 9.71431 54.7093 9.38098 54.7617 8.7905L54.7569 8.78574Z" fill="#1D1C1A"></path><path d="M61.6239 8.36681L59.6334 9.38109L60.881 11.6763L59.6763 11.4049L58.8096 9.8049L57.862 10.2859L57.7096 10.9573L56.7524 10.7382L57.5001 7.42871L58.462 7.643L58.1286 9.12871L60.1953 8.03823L61.6334 8.36204L61.6239 8.36681Z" fill="#1D1C1A"></path><path d="M66.3286 9.99541L66.0667 10.7192L63.6858 9.85732L63.5 10.3668L65.7905 11.1954L65.5286 11.9192L63.2381 11.0906L63.0524 11.6002L65.4334 12.4573L65.1715 13.1811L61.8667 11.9859L63.0191 8.79541L66.3238 9.99065L66.3286 9.99541Z" fill="#1D1C1A"></path><path d="M69.7621 14.3526L70.8764 12.1907L71.7478 12.6383L70.1907 15.6526L68.9097 14.9907L68.2478 11.9097L67.1335 14.0716L66.2573 13.6193L67.8145 10.605L69.1002 11.2669L69.7621 14.3478V14.3526Z" fill="#1D1C1A"></path><path d="M27.395 85.4763C27.2474 85.7192 27.395 86.0239 28.1569 86.4858C28.8569 86.9049 29.095 86.9001 29.2045 86.7192C29.3331 86.5097 29.2236 86.3906 28.395 85.8144C27.2665 85.024 26.8903 84.4763 27.276 83.8335C27.6426 83.2287 28.4617 83.3478 29.4665 83.9525C30.5855 84.6239 31.0236 85.3525 30.6617 86.0144L29.7807 85.4859C29.9331 85.2287 29.7141 84.962 29.0617 84.5716C28.4426 84.2001 28.2426 84.2192 28.1474 84.3763C28.0379 84.5573 28.1474 84.6954 28.895 85.2335C29.9141 85.9573 30.5617 86.4478 30.1045 87.2097C29.6569 87.9525 28.8379 87.7573 27.8045 87.1335C26.6284 86.4239 26.0903 85.7382 26.5093 84.9478L27.3903 85.4811L27.395 85.4763Z" fill="#1D1C1A"></path><path d="M31.5236 87.1909C31.9712 86.1576 32.9426 85.8623 34.2569 86.429C35.5664 86.9957 36.014 87.9147 35.5712 88.9433C35.1236 89.9766 34.1426 90.2814 32.8331 89.7147C31.5188 89.148 31.0759 88.229 31.5236 87.1909ZM34.6283 88.5385C34.8616 87.9957 34.695 87.5338 33.9236 87.1957C33.1569 86.8623 32.7045 87.0576 32.4712 87.6004C32.2331 88.1481 32.4045 88.6147 33.1664 88.948C33.9331 89.2814 34.395 89.0814 34.6283 88.5338V88.5385Z" fill="#1D1C1A"></path><path d="M39.295 88.2146C40.495 88.5527 41.0331 89.2574 40.895 90.1241L39.8902 89.8431C39.9093 89.5241 39.6759 89.186 39.0712 89.0193C38.3712 88.8241 37.9378 89.0717 37.7759 89.6431C37.614 90.2193 37.8616 90.6622 38.5569 90.8574C39.1616 91.0241 39.5378 90.8574 39.6854 90.5669L40.6902 90.8479C40.3569 91.6669 39.5331 91.9955 38.3283 91.6622C37.0188 91.2955 36.4712 90.486 36.7807 89.3669C37.095 88.2527 37.9807 87.8479 39.2902 88.2146H39.295Z" fill="#1D1C1A"></path><path d="M43.3948 89.2289L42.7948 92.5623L41.8281 92.3861L42.4281 89.0527L43.3948 89.2289Z" fill="#1D1C1A"></path><path d="M44.4189 91.1481C44.5094 90.029 45.3332 89.4338 46.757 89.5481C48.176 89.6624 48.8999 90.3909 48.8046 91.5052C48.7141 92.6243 47.8856 93.229 46.4618 93.1147C45.0379 93.0005 44.3189 92.2719 44.4141 91.1481H44.4189ZM47.7856 91.4243C47.8332 90.8386 47.5284 90.4528 46.6903 90.3814C45.857 90.3148 45.4951 90.6433 45.4427 91.2338C45.3951 91.829 45.7046 92.2148 46.5332 92.2862C47.3665 92.3528 47.7379 92.0195 47.7856 91.4243Z" fill="#1D1C1A"></path><path d="M51.1188 92.048C51.1331 92.3337 51.4235 92.5051 52.314 92.4575C53.1283 92.4146 53.3235 92.2766 53.3093 92.0623C53.295 91.8146 53.1426 91.7813 52.1331 91.767C50.7569 91.7432 50.1331 91.5004 50.095 90.748C50.0569 90.0432 50.8045 89.6813 51.9759 89.6242C53.2807 89.5575 54.0521 89.9099 54.1188 90.6623L53.095 90.7146C53.0807 90.4146 52.7474 90.3194 51.9854 90.3575C51.2664 90.3956 51.1093 90.5242 51.1188 90.7051C51.1283 90.9146 51.295 90.9718 52.2188 91.0004C53.4664 91.0289 54.2807 91.0718 54.3283 91.9623C54.3712 92.8289 53.5854 93.1242 52.3807 93.1861C51.0093 93.2575 50.1759 92.9861 50.0854 92.0956L51.114 92.0432L51.1188 92.048Z" fill="#1D1C1A"></path><path d="M55.7426 92.0434L56.6806 91.9053L56.7854 92.6338L55.8473 92.7719L55.7378 92.0434H55.7426Z" fill="#1D1C1A"></path><path d="M59.4808 88.5387C60.6951 88.2434 61.5094 88.5958 61.8141 89.4196L60.7999 89.6673C60.6618 89.3768 60.2903 89.2006 59.6808 89.3482C58.9761 89.5196 58.7189 89.9482 58.857 90.5292C58.9999 91.1101 59.4332 91.3768 60.1332 91.2054C60.7427 91.0577 60.9903 90.7244 60.9761 90.3958L61.9903 90.1482C62.0999 91.0244 61.5427 91.7196 60.3284 92.0149C59.0046 92.3387 58.1284 91.9006 57.8522 90.772C57.576 89.6482 58.1522 88.8625 59.4761 88.5387H59.4808Z" fill="#1D1C1A"></path><path d="M63.1522 89.3956C62.7379 88.348 63.2189 87.4527 64.5474 86.9242C65.8712 86.4003 66.8427 86.7337 67.2522 87.7765C67.6665 88.8242 67.1855 89.7337 65.8617 90.2575C64.5331 90.7813 63.5665 90.448 63.1522 89.3956ZM66.2998 88.1527C66.0855 87.6051 65.6379 87.3908 64.857 87.7003C64.0808 88.0051 63.8951 88.4622 64.1141 89.0146C64.3331 89.5718 64.7855 89.7813 65.557 89.4765C66.3331 89.1718 66.5189 88.7051 66.2998 88.1527Z" fill="#1D1C1A"></path><path d="M69.3332 88.6956L67.6284 85.7623L68.9522 84.9908L71.1046 86.3432L70.9903 83.8051L72.3141 83.0337L74.0189 85.967L73.1713 86.4575L71.9379 84.3337L72.0713 87.1004L71.2856 87.5575L68.9475 86.0765L70.1856 88.2004L69.3332 88.6956Z" fill="#1D1C1A"></path><path d="M23.019 81.8382C13.9952 74.1811 8.2666 62.7573 8.2666 50.0001C8.2666 37.243 14.2999 25.2144 23.738 17.562" stroke="#971A2E" stroke-miterlimit="10"></path><path d="M76.2666 17.5669C85.7047 25.2193 91.7333 36.905 91.7333 50.0002C91.7333 63.0955 86.0047 74.1859 76.9809 81.8431" stroke="#971A2E" stroke-miterlimit="10"></path></g><defs><clipPath id="clip0_101_22049"><rect width="100" height="100" fill="white"></rect></clipPath></defs></svg>