<svg xmlns="http://www.w3.org/2000/svg" width="100" height="100" viewBox="0 0 100 100" fill="none"><g clip-path="url(#clip0_101_22097)"><path d="M50 100C77.6142 100 100 77.6142 100 50C100 22.3858 77.6142 0 50 0C22.3858 0 0 22.3858 0 50C0 77.6142 22.3858 100 50 100Z" fill="#005596"></path><path d="M49.9999 98.7333C76.9146 98.7333 98.7333 76.9146 98.7333 49.9999C98.7333 23.0853 76.9146 1.2666 49.9999 1.2666C23.0853 1.2666 1.2666 23.0853 1.2666 49.9999C1.2666 76.9146 23.0853 98.7333 49.9999 98.7333Z" fill="#005596"></path><path d="M50 2.53333C76.1714 2.53333 97.4667 23.8286 97.4667 50C97.4667 76.1714 76.1714 97.4667 50 97.4667C23.8286 97.4667 2.53333 76.1714 2.53333 50C2.53333 23.8286 23.8286 2.53333 50 2.53333ZM50 0C22.3857 0 0 22.3857 0 50C0 77.6143 22.3857 100 50 100C77.6143 100 100 77.6143 100 50C100 22.3857 77.6143 0 50 0Z" fill="#005596"></path><path d="M50 100C77.6142 100 100 77.6142 100 50C100 22.3858 77.6142 0 50 0C22.3858 0 0 22.3858 0 50C0 77.6142 22.3858 100 50 100Z" fill="#7A123C"></path><path d="M50 2.53333C76.1714 2.53333 97.4667 23.8286 97.4667 50C97.4667 76.1714 76.1714 97.4667 50 97.4667C23.8286 97.4667 2.53333 76.1714 2.53333 50C2.53333 23.8286 23.8286 2.53333 50 2.53333ZM50 0C22.3857 0 0 22.3857 0 50C0 77.6143 22.3857 100 50 100C77.6143 100 100 77.6143 100 50C100 22.3857 77.6143 0 50 0Z" fill="#A2C3E6"></path><path d="M32.1382 25.2095V63.4142C32.1382 69.2809 39.0525 71.1999 44.1001 72.6047C45.1096 72.8857 46.0668 73.1523 46.8906 73.4238C46.9001 73.4238 47.6715 73.6904 48.3239 74.119C48.9144 74.5047 49.5144 75.1619 49.5239 75.1666L50.0049 75.6904L50.4858 75.1666C50.4858 75.1666 51.0953 74.5047 51.6858 74.119C52.3382 73.6904 53.1096 73.4285 53.1144 73.4238C53.9429 73.1523 54.8953 72.8857 55.9096 72.6047C60.9572 71.1999 67.8715 69.2809 67.8715 63.4142V25.2095H32.1382Z" fill="white"></path><path d="M66.5618 63.414C66.5618 68.2902 60.457 69.9902 55.5523 71.3521C54.5237 71.6378 53.557 71.9045 52.6951 72.1902C52.657 72.2045 51.757 72.5093 50.9618 73.0331C50.6094 73.2664 50.2618 73.5617 49.9999 73.8093C49.738 73.5617 49.3904 73.2664 49.038 73.0331C48.2428 72.5093 47.3428 72.2045 47.2999 72.1902C46.4428 71.9093 45.4713 71.6378 44.4475 71.3521C39.5427 69.9902 33.438 68.295 33.438 63.414V26.5093H66.5666V63.414H66.5618Z" fill="#A2C3E6"></path><path d="M37.543 41.1096L38.6001 40.5477L39.6573 41.1096L39.4525 39.9143L40.3097 39.0715L39.1287 38.8953L38.6001 37.8096L38.0716 38.8953L36.8906 39.0715L37.7478 39.9143L37.543 41.1096Z" fill="white"></path><path d="M50.0096 28.376C49.6858 28.3998 49.3477 28.4093 48.9715 28.4093C48.5477 28.4093 48.1239 28.3998 47.5953 28.376C47.462 28.4331 47.462 28.6665 47.5525 28.7569L47.9096 28.8331C48.1763 28.8998 48.2667 28.9426 48.2667 29.0236C48.2667 29.0903 48.2334 29.2141 48.1525 29.4236C48.0191 29.8045 47.5382 31.0569 47.2572 31.7617L46.8334 32.8141C46.7001 33.1474 46.5191 33.5284 46.4334 33.7188L46.0667 32.7807L45.081 30.2665C44.8144 29.595 44.6334 29.1284 44.6334 29.0379C44.6334 28.9379 44.7096 28.8712 44.9144 28.8236L45.2477 28.7569C45.3144 28.6569 45.3239 28.4426 45.2382 28.376C44.5572 28.3998 44.0763 28.4093 43.562 28.4093C42.981 28.4093 42.6144 28.3855 42.0429 28.376C41.9429 28.4331 41.9096 28.6331 42.0001 28.7569L42.4477 28.8712C42.8048 28.9617 42.862 28.9807 43.2858 30.0569L45.0953 34.6045C45.2524 34.9855 45.4429 35.576 45.5667 35.8807C45.6334 35.9379 45.7334 35.9712 45.8667 35.9712C46.0334 35.9712 46.1667 35.9379 46.2572 35.8807C46.5144 35.2569 46.8048 34.3712 47.3763 33.0188L48.1905 31.0855C48.5715 30.1807 48.8477 29.5522 49.0953 29.1855C49.2382 28.9522 49.4286 28.8712 49.7429 28.8188L50.0334 28.7617C50.1096 28.695 50.1001 28.4284 50.0096 28.3807" fill="#7A123C"></path><path d="M54.9479 28.4093H52.4479C51.9098 28.4093 51.3527 28.3998 50.8717 28.376C50.7479 28.4188 50.7479 28.6998 50.8479 28.7665L51.0717 28.7998C51.5765 28.876 51.6432 28.9807 51.6432 30.0188V34.176C51.6432 35.2141 51.5765 35.295 51.0717 35.3712L50.7051 35.4284C50.6146 35.495 50.6146 35.7522 50.7051 35.8188C51.3765 35.795 51.9336 35.7855 52.4479 35.7855C52.9622 35.7855 53.5336 35.795 54.2241 35.8188C54.3003 35.7522 54.3003 35.495 54.2241 35.4284L53.8098 35.3712C53.3051 35.3045 53.2384 35.2141 53.2384 34.176V32.6665C53.2384 32.3665 53.2479 32.3331 53.5527 32.3331H54.567C55.1574 32.3331 55.2813 32.4236 55.3955 32.9569L55.4527 33.2236C55.5289 33.3236 55.8098 33.3141 55.8765 33.2141C55.8527 32.8807 55.8432 32.4665 55.8432 32.0522C55.8432 31.6379 55.8527 31.2141 55.8765 30.8569C55.8098 30.7569 55.5289 30.7474 55.4527 30.8474L55.3955 31.1141C55.286 31.6617 55.1622 31.7379 54.567 31.7379H53.5527C53.2527 31.7379 53.2384 31.7045 53.2384 31.4045V29.3807C53.2384 28.9426 53.2384 28.9236 53.6051 28.9236H54.6289C55.2003 28.9236 55.5336 29.0569 55.7241 29.2903C55.8336 29.4331 55.9241 29.7045 56.0479 30.1617C56.1813 30.2522 56.4289 30.2379 56.4717 30.1188C56.4479 29.3712 56.4479 28.5665 56.4479 28.376C56.2908 28.3998 55.6527 28.4093 54.9384 28.4093" fill="#7A123C"></path><path d="M64.2952 33.7192C63.9952 34.4811 63.3666 35.4526 62.0143 35.4526C60.6619 35.4526 59.3857 34.2573 59.3857 32.0335C59.3857 29.8097 60.7143 28.7478 61.9571 28.7478C63.0428 28.7478 63.7571 29.3049 64.0571 30.3478C64.1333 30.4478 64.4381 30.4049 64.4809 30.2716C64.3809 29.624 64.3476 28.7288 64.3476 28.5288C64.0143 28.5049 63.1857 28.2383 62.0428 28.2383C60.9 28.2383 59.7428 28.5716 58.9476 29.2335C58.1762 29.8716 57.5952 30.8335 57.5952 32.1954C57.5952 33.5573 58.2095 34.5097 59.0143 35.124C59.8095 35.7145 60.9238 35.9716 62.019 35.9716C62.8905 35.9716 63.6857 35.724 64.2857 35.5573C64.4428 35.3002 64.6333 34.6288 64.7095 33.8049C64.6428 33.6716 64.3762 33.6383 64.2857 33.7288" fill="#7A123C"></path><path d="M42.3808 35.3619C41.9665 35.2952 41.8665 35.038 41.6332 34.3666L40.1141 29.9857C39.8332 29.1904 39.6998 28.7761 39.6094 28.4523C39.5665 28.2857 39.4998 28.2285 39.3522 28.2285C39.3332 28.2285 38.9856 28.6857 38.5141 28.8571L38.2379 29.5999C38.1998 29.7047 38.157 29.819 38.1094 29.9476L37.9713 30.3142V30.319L36.9522 33.0476C36.6522 33.8523 36.4379 34.3904 36.2475 34.838C36.057 35.2761 35.8332 35.3619 35.5665 35.3952L35.2665 35.4285C35.1903 35.519 35.176 35.7523 35.2998 35.819C35.8141 35.819 36.0713 35.7857 36.4522 35.7857C36.9237 35.7952 37.3237 35.7952 37.7141 35.819C37.8284 35.7619 37.8046 35.5047 37.7379 35.4285L37.4046 35.3714C37.0903 35.3142 36.9475 35.2476 36.9475 35.1809C36.9475 35.0904 36.957 34.9999 37.0237 34.7761L37.4618 33.4809C37.5284 33.2666 37.5618 33.2571 37.8284 33.2571H39.157C39.5475 33.2571 39.6379 33.2809 39.6951 33.4571L39.9951 34.419C40.1284 34.8333 40.2094 35.0999 40.2094 35.1809C40.2094 35.2476 40.1665 35.3285 39.9094 35.3714L39.5522 35.4285C39.4284 35.519 39.4522 35.7523 39.576 35.819C40.0903 35.7952 40.5284 35.7857 41.0856 35.7857C41.6427 35.7857 42.2713 35.7952 42.8046 35.819C42.9046 35.7523 42.8808 35.4857 42.8141 35.4285L42.3903 35.3619H42.3808ZM39.0951 32.6666H38.0427C37.7618 32.6666 37.7094 32.6333 37.8094 32.3333L38.0903 31.4952C38.257 30.9809 38.4808 30.3761 38.5713 30.119C38.6713 30.3523 38.8713 30.9571 39.0284 31.438L39.3189 32.3428C39.4094 32.6333 39.3522 32.6666 39.0951 32.6666Z" fill="#7A123C"></path><path d="M46.3955 41.3808C46.2002 41.576 46.224 41.8236 46.0478 41.9998C45.9764 42.0713 45.8716 42.1237 45.7431 42.1237C45.4859 42.1237 45.3145 41.9141 45.3145 41.6951C45.3145 41.476 45.5669 41.276 46.2621 41.276C46.3431 41.276 46.4431 41.276 46.5335 41.2856C46.4907 41.2998 46.4431 41.3284 46.3955 41.376M63.5335 46.5951C63.3383 46.5951 63.2288 46.6284 63.2288 46.6284C63.2288 46.6284 64.5478 45.3332 64.5478 43.3094C64.5478 42.3903 64.3288 42.0332 64.2955 42.0332C64.224 42.0332 64.224 42.5808 63.8002 43.0046C63.4954 43.3094 63.0097 43.3427 62.7431 43.6141C63.0002 43.057 62.8145 42.3046 62.7812 42.3046C62.7478 42.3046 62.7669 42.6998 62.2669 43.1998C61.9478 43.5189 61.2097 43.7475 60.6097 44.3522C60.8669 43.7617 60.6431 43.1427 60.5859 43.1427C60.5288 43.1427 60.5859 43.4951 60.2383 43.8427C59.9193 44.1617 59.3002 44.3237 58.8383 44.7856C58.1954 45.4237 58.3097 46.3951 58.3097 46.7475C58.3097 46.7808 58.3097 46.8141 58.3097 46.8475C58.2193 46.9094 58.1288 46.9856 58.0383 47.0617C57.3145 47.6951 56.9288 48.5332 56.9288 49.4808C56.9288 51.2856 58.1002 52.5094 59.1335 53.5856C59.5907 54.0617 60.0193 54.5141 60.3335 54.9856C60.6574 55.4713 60.805 55.9094 60.805 56.3713C60.805 56.8332 60.6574 57.2475 60.3955 57.5522C60.105 57.8951 59.6954 58.0713 59.1812 58.0713C58.2954 58.0713 57.6431 57.7379 56.9526 57.3903C56.6002 57.2094 56.2478 57.0189 55.8621 56.8713C55.6669 54.9189 54.2621 53.7427 54.2621 51.9141C54.2621 50.9189 54.705 50.3665 54.5383 49.6713C54.8574 49.9903 55.4097 50.0998 55.5859 50.0998C55.7431 50.0998 55.8431 50.0427 55.8954 49.9998C55.905 49.9903 55.905 49.976 55.8954 49.9665C55.805 49.8998 55.4526 49.6141 55.4526 49.0856C55.4526 48.4808 55.6764 48.0236 55.6764 47.4236C55.6764 46.8236 55.3431 46.4665 55.2812 46.4046C55.5526 46.676 56.0335 46.8379 56.2669 46.8379C56.4764 46.8379 56.5859 46.8046 56.6526 46.7522C56.6669 46.7427 56.6621 46.7236 56.6526 46.7141C56.5383 46.6427 56.0764 46.3332 56.0764 45.8522C56.0764 45.3046 56.2288 45.1998 56.2288 44.8141C56.2288 44.4284 56.0478 44.1522 56.0478 44.1522C56.0478 44.1522 56.305 44.3046 56.605 44.3046C56.9431 44.3046 57.1383 44.2189 57.2621 44.1141C57.2764 44.0998 57.2669 44.076 57.2478 44.076C56.3907 44.0094 56.5097 42.0665 55.7002 41.3475C55.7002 41.3475 55.7859 41.3665 55.9145 41.3665C56.1907 41.3665 56.5335 41.1284 56.6526 40.9046C56.6621 40.8903 56.6526 40.8713 56.6335 40.8713C55.0907 40.7951 54.5954 37.3713 51.1145 38.057C51.2954 37.7998 51.6288 37.5856 51.7478 37.5141C51.7621 37.5046 51.7621 37.4808 51.7478 37.476C51.5907 37.4141 51.2574 37.2856 50.4812 37.2856C49.705 37.2856 48.9478 37.7094 48.5288 38.257C48.7145 37.8808 48.4859 37.3998 48.2764 37.1665C48.2621 37.1522 48.2431 37.157 48.2383 37.176C48.2145 37.276 48.1288 37.4808 48.0002 37.6094C47.3716 38.2379 46.2478 38.6379 46.2478 39.9427C46.2478 39.9427 45.8812 40.176 45.3812 40.5189C44.8812 40.857 44.6145 41.3951 44.6145 41.5617C44.424 41.6617 43.6335 42.2427 43.0002 42.8713C42.9859 42.8856 42.9812 42.9094 42.9955 42.9237C43.0669 43.0284 43.1145 43.1617 43.1383 43.2379C43.1478 43.2665 43.1859 43.276 43.2097 43.257C43.2954 43.176 43.4669 43.0237 43.5431 42.9998C43.4002 43.1427 43.3526 43.3141 43.3526 43.5284C43.3526 44.0046 44.4097 44.6713 44.4716 44.6046C44.5193 44.557 44.3478 44.0713 44.505 43.9141C44.7431 43.676 45.5812 43.6475 45.8383 43.6475C46.0955 43.6475 46.2335 43.7475 46.2335 43.9237C46.2335 44.3713 45.9812 45.1998 45.1764 45.1998C44.8526 45.1998 44.6383 44.8856 44.5859 44.9379C44.5335 44.9903 44.5764 45.457 44.6812 45.6141C44.6812 45.6141 44.5907 45.7189 44.5907 45.9427C44.5907 46.5189 45.5431 47.257 45.6431 47.1617C45.7097 47.0951 45.4478 46.4475 45.6145 46.4475C45.705 46.4475 45.9621 46.8189 46.2526 46.8189C46.2669 46.8189 46.2716 46.8189 46.2764 46.8094C46.324 46.7617 46.0907 46.4332 46.2145 46.3094C46.5335 45.9903 47.3716 45.3617 47.5859 45.2903C48.0288 45.1475 48.2621 45.4713 48.2621 45.9046C48.2621 46.8713 47.2383 47.0665 46.4002 47.9046C45.5621 48.7427 45.3955 49.9332 44.3431 49.9332C44.205 49.9332 45.124 49.6808 45.3859 48.7665C42.6335 48.7856 42.1669 47.2522 39.9621 46.957C39.9621 46.9237 39.9383 46.8903 39.9145 46.8617C39.8574 46.8046 39.0859 46.1237 39.0859 44.5998C39.0859 44.2951 38.8764 44.057 38.5621 44.057C38.4669 43.8427 38.2002 43.4046 37.6478 43.4046C37.124 43.4046 36.9907 43.6475 37.024 43.6808C37.0526 43.7094 37.2764 43.6284 37.5526 43.8998C37.7097 44.057 37.7716 44.2379 37.7955 44.3617C37.7288 44.4427 37.6907 44.5332 37.6907 44.6427C37.6907 44.6427 37.4193 44.5903 37.1574 44.8379C37.0431 44.7713 36.8526 44.6951 36.5669 44.6951C35.8097 44.6951 35.6574 45.376 35.6859 45.4094C35.7193 45.4379 35.8526 45.2903 36.0859 45.2903C36.3526 45.2903 36.6288 45.4998 36.7764 45.6332C36.7574 45.8094 36.7955 45.9713 36.9097 46.0903C36.9097 46.0903 36.5478 46.1998 36.4859 46.7094C36.4716 46.7094 36.4526 46.7189 36.4335 46.7237C35.4288 47.0046 35.6193 47.7856 35.6621 47.7856C35.705 47.7856 35.7574 47.4475 36.2145 47.4475C36.3764 47.4475 36.505 47.4665 36.605 47.4903C36.7812 47.8332 37.105 47.9189 37.3383 47.9189C37.5478 47.9189 37.7383 47.876 37.9097 47.876C38.1383 47.876 38.2764 48.0141 38.2764 48.3379C38.2764 48.8094 37.824 48.6665 37.6193 48.8713C37.4812 49.0094 37.4621 49.1332 37.4621 49.3189C37.4621 49.3284 37.4621 49.3332 37.4621 49.3427C37.4002 49.3617 37.3335 49.3713 37.2621 49.3713C36.9478 49.3713 36.7716 49.0903 36.7288 49.1284C36.6716 49.1808 36.8621 50.0808 37.4954 50.0808C37.7193 50.0808 37.8716 50.0189 37.9764 49.9427C38.0288 49.957 38.0859 49.9617 38.1478 49.9617C38.7907 49.9617 38.9335 49.1903 39.7335 49.1903C40.5335 49.1903 42.0621 50.2903 42.2764 51.6665C42.2764 51.6856 42.3002 51.6903 42.3097 51.6808C42.6574 51.3951 42.6383 50.9665 42.6383 50.9665C43.2859 51.4951 43.5574 51.7379 44.105 52.276C44.105 52.276 40.9383 54.7094 40.7716 54.8046C40.6288 54.8903 40.5621 54.9236 40.3859 54.9236C39.9383 54.9236 39.8002 54.176 39.0907 54.176C38.9526 54.176 38.8526 54.2189 38.7669 54.2808C38.6955 54.2665 38.605 54.257 38.4859 54.257C37.6478 54.257 37.4955 55.3808 37.5764 55.3808C37.6574 55.3808 37.7145 55.0903 38.1145 55.0903C38.1669 55.0903 38.2193 55.0951 38.2716 55.1094C38.2716 55.3237 38.3574 55.5284 38.4954 55.6332C38.4954 55.6332 38.2669 55.7189 38.1383 55.9856C37.1431 56.0189 37.1621 57.1903 37.2574 57.1903C37.3288 57.1903 37.3669 56.6998 37.9431 56.6998C37.9859 56.6998 38.0383 56.7189 38.0907 56.7427C38.1907 57.1808 38.4907 57.4189 38.8478 57.4189C38.7621 57.5808 38.7764 57.8475 38.8716 58.076C38.6383 58.557 39.0526 59.2237 39.1621 59.2237C39.2431 59.2237 39.1431 58.7998 39.3288 58.5237C39.3669 58.5332 39.4097 58.5379 39.4526 58.5379C39.9716 58.5379 40.1907 58.0998 40.1907 58.0998C40.1907 58.0998 40.2193 58.5617 40.6812 58.6094C40.7764 59.0189 41.0431 59.3665 41.1288 59.3665C41.1859 59.3665 41.0716 58.8094 41.2431 58.4522C41.8955 57.7998 41.3812 56.9475 42.0621 56.2713C42.8431 55.4903 44.7669 54.7903 46.3478 54.7236C46.9193 55.3665 47.7145 56.3379 48.0764 56.5903C48.0764 56.5903 48.0621 56.6094 48.0383 56.6332C47.0621 57.6094 45.2478 56.7522 44.2954 57.7094C43.9193 58.0903 43.8669 58.4379 43.3335 58.4379C43.1478 58.4379 42.9812 58.3475 42.905 58.276C42.8954 58.2665 42.8764 58.2713 42.8716 58.2856C42.8383 58.3998 42.8097 58.776 43.1002 59.0665C43.4288 59.3951 43.8383 59.3332 43.9431 59.276C43.6812 59.6332 43.1002 59.6141 42.7669 59.4189C42.7478 59.4094 42.7288 59.4237 42.7335 59.4427C43.0002 60.457 44.0526 60.2665 44.0526 60.2665C44.2716 61.357 45.3526 61.8141 45.3526 62.5427C45.3526 62.7475 45.2669 62.9808 45.0954 63.1522C44.6859 63.5617 43.7764 63.8332 42.7907 63.8332C41.2002 63.8332 41.1812 62.7046 40.3145 62.7046C40.2002 62.7046 40.0907 62.7189 39.9859 62.7427C39.8621 62.5998 39.5907 62.4379 39.2478 62.4379C38.7193 62.4379 38.4097 63.0379 38.4812 63.1094C38.524 63.1522 38.6812 62.9665 38.9193 62.9665C39.0383 62.9665 39.1812 63.0665 39.2431 63.2284C39.2002 63.2808 39.1621 63.3379 39.1288 63.3998C39.0383 63.376 38.9288 63.3617 38.7955 63.3617C37.8002 63.3617 37.8193 64.5141 37.9193 64.5141C37.9812 64.5141 38.1097 64.0856 38.5907 64.1427C38.4955 64.3189 38.4383 64.5236 38.4383 64.7379C38.4383 64.7713 38.4383 64.8046 38.4383 64.8332C38.2097 64.9665 38.0335 65.2141 38.0335 65.4951C38.0335 65.9094 38.1145 66.1236 38.1764 66.1236C38.2478 66.1236 38.3145 65.6427 38.6812 65.4856C38.8478 65.7094 39.0859 65.876 39.3621 65.9522C39.3288 66.0951 39.2954 66.3141 39.2954 66.6237C39.2954 67.0094 39.4145 67.5237 39.4955 67.5237C39.5716 67.5237 39.6193 66.9284 39.8764 66.6951C39.9859 66.7998 40.1193 66.8856 40.2621 66.9475C40.4002 67.0094 40.5669 67.0475 40.7574 67.0475C40.7669 67.0475 40.7812 67.0475 40.7907 67.0475C42.1193 67.0284 42.9669 65.8094 43.9669 65.8094C44.524 65.8094 44.5335 66.3332 44.3335 66.557C45.8431 66.557 46.2764 65.4094 47.2002 65.4094C47.6669 65.4094 48.0859 65.657 48.5145 65.6522C48.7907 65.6522 49.1431 65.557 49.3383 65.157C49.3431 65.1427 49.3383 65.1236 49.3193 65.1236C48.6145 65.1332 48.3145 64.7951 48.2574 64.5903C49.5193 65.0998 49.8907 64.3094 49.9621 64.0998C49.9669 64.0808 49.9526 64.0665 49.9335 64.0713C49.8812 64.0903 49.7954 64.1189 49.6907 64.1189C49.0097 64.1189 48.2716 63.4284 48.2716 62.476C48.2716 61.5713 48.9002 61.0617 49.4955 60.8951C49.9669 59.5617 50.6288 59.2951 50.3716 58.4617C50.3716 58.4617 50.3716 58.457 50.3716 58.4522C50.4431 58.5427 50.5764 58.9046 50.5764 59.0998C50.5764 59.9808 49.7335 60.4856 49.7335 61.876C49.7335 63.4475 50.9574 63.3856 50.9574 64.4379C50.9574 64.857 50.7955 65.0951 50.7335 65.176C50.724 65.1903 50.7335 65.2094 50.7478 65.2094C50.9002 65.2332 51.4716 65.2522 52.024 64.3379C52.7526 64.7141 52.5574 65.3522 52.5002 65.4951C52.4954 65.5094 52.505 65.5237 52.5193 65.5237C53.4716 65.4951 53.7764 64.2046 53.7764 64.2046C54.6193 64.1141 55.2812 64.4046 55.2812 64.757C55.2812 65.6665 53.5812 67.3713 52.3335 67.3713C51.8716 67.3713 51.7097 66.8903 51.305 66.8903C51.0145 66.8903 50.8669 67.0332 50.7812 67.2141C50.6193 67.1427 50.4526 67.1094 50.2955 67.1094C49.9002 67.1094 49.5526 67.3332 49.4335 67.8189C48.9002 67.9951 48.7907 68.8236 48.8431 68.8808C48.8859 68.9236 49.1478 68.4808 49.5859 68.5903C49.6621 68.7141 49.7526 68.8141 49.824 68.8856C49.7383 68.9332 49.6383 68.9951 49.5383 69.0951C49.0145 69.6189 49.1478 70.2094 49.1954 70.257C49.2478 70.3094 49.3431 70.0522 49.4907 69.9046C49.605 69.7903 49.7716 69.6665 49.9907 69.6856C50.1716 70.0236 50.5574 70.1141 50.805 70.1141C50.7764 70.4189 50.7764 70.9332 50.8526 71.0094C50.9097 71.0665 51.1478 70.5713 51.5097 70.3094C51.7002 70.4284 51.9383 70.5379 52.1812 70.5379C52.8764 70.5379 53.4954 70.2141 53.9954 69.7141C54.724 68.9855 55.224 67.8141 55.8431 67.8141C56.2335 67.8141 56.1574 68.1665 56.1431 68.2094C57.1431 68.2094 56.7145 66.9903 58.6145 65.0903C58.8478 64.857 59.1145 64.657 59.1526 64.4236C59.1526 64.4046 59.1335 64.3903 59.1193 64.3998C58.9526 64.5046 58.5288 64.5379 58.3383 64.3475C58.3383 64.3475 59.8764 63.5856 59.9193 62.4427C59.9193 62.4237 59.9002 62.4141 59.8859 62.4236C59.4716 62.7522 58.705 62.676 58.705 62.676C59.0621 62.3856 59.3288 61.5713 58.9574 60.7951C58.9478 60.776 58.924 60.776 58.9193 60.7951C58.5621 61.6379 57.8383 61.9284 57.1764 61.9284C56.2288 61.9284 55.4288 61.1665 55.4288 60.1237C55.4288 59.2332 55.7193 58.8332 55.8335 58.0379C56.0335 58.1236 56.2431 58.2332 56.4669 58.3427C57.205 58.7189 58.0431 59.1427 59.1954 59.1427C59.624 59.1427 60.0193 59.0617 60.3764 58.8951C60.7097 58.7427 61.005 58.5189 61.2431 58.2379C61.6764 57.7284 61.9145 57.057 61.9145 56.3427C61.9145 54.8665 60.9097 53.8141 59.9383 52.7998C59.4574 52.2998 58.9621 51.7808 58.6002 51.2189C58.2193 50.6236 58.0383 50.0617 58.0383 49.4522C58.0383 48.8427 58.3812 48.1856 58.8526 47.7665C58.8526 47.7665 59.9002 48.3522 61.1002 48.3522C62.3002 48.3522 63.024 47.4713 63.024 47.4713C63.5764 46.9189 64.1716 47.0046 64.2288 46.9427C64.2907 46.8808 63.9764 46.576 63.5431 46.576" fill="#FFE400"></path><path d="M30.7095 11.3384L31.1143 12.0717L28.9 13.2955L29.2476 13.9289L31.2143 12.8431L31.6143 13.5717L29.6476 14.6574L30.1333 15.5336L29.2714 16.0098L27.6333 13.0431L30.7095 11.3431V11.3384Z" fill="white"></path><path d="M36.3001 12.6237L35.762 12.1523L33.8286 12.938L33.7715 13.6523L32.7905 14.0523L33.1334 10.2571L34.3905 9.74756L37.281 12.2285L36.3048 12.6237H36.3001ZM33.8953 12.1142L35.1334 11.6095L34.0143 10.6333L33.8953 12.1095V12.1142Z" fill="white"></path><path d="M41.3476 10.1764L40.7619 7.81927L41.7095 7.58594L42.5238 10.8764L41.1286 11.224L38.6048 9.34784L39.1905 11.705L38.2381 11.9431L37.4238 8.6526L38.8238 8.30499L41.3476 10.1812V10.1764Z" fill="white"></path><path d="M46.1191 6.96208L50.2001 6.79541L50.2334 7.62874L48.6858 7.69065L48.7906 10.243L47.8096 10.2811L47.7049 7.72874L46.1525 7.79065L46.1191 6.95731V6.96208Z" fill="white"></path><path d="M51.3903 8.49526C51.4855 7.37622 52.3141 6.78098 53.7379 6.90479C55.1569 7.0286 55.876 7.75717 55.7807 8.87145C55.6855 9.9905 54.8522 10.5905 53.4331 10.4715C52.0093 10.3476 51.295 9.61907 51.3903 8.49526ZM54.7569 8.78574C54.8093 8.20003 54.5045 7.80955 53.6664 7.73812C52.8331 7.66669 52.4665 7.9905 52.4188 8.58574C52.3665 9.18098 52.676 9.57145 53.5045 9.64288C54.3379 9.71431 54.7093 9.38098 54.7617 8.7905L54.7569 8.78574Z" fill="white"></path><path d="M61.6189 8.36693L59.6236 9.38121L60.8712 11.6765L59.6665 11.405L58.7998 9.80502L57.8522 10.286L57.6998 10.9574L56.7427 10.7431L57.4903 7.43359L58.4522 7.65264L58.1189 9.13836L60.1855 8.04788L61.6236 8.37169L61.6189 8.36693Z" fill="white"></path><path d="M66.3286 9.99553L66.0667 10.7193L63.6858 9.85744L63.5 10.367L65.7905 11.1955L65.5286 11.9193L63.2381 11.0908L63.0524 11.6003L65.4334 12.4622L65.1715 13.186L61.8667 11.9908L63.0191 8.80029L66.3238 9.99553H66.3286Z" fill="white"></path><path d="M69.7621 14.3526L70.8764 12.1907L71.7478 12.6383L70.1907 15.6526L68.9097 14.9907L68.2478 11.9097L67.1335 14.0716L66.2573 13.6193L67.8145 10.605L69.1002 11.2669L69.7621 14.3478V14.3526Z" fill="white"></path><path d="M27.395 85.4763C27.2474 85.7192 27.395 86.0239 28.1569 86.4858C28.8569 86.9049 29.095 86.9001 29.2045 86.7192C29.3331 86.5097 29.2236 86.3906 28.395 85.8144C27.2665 85.024 26.8903 84.4763 27.276 83.8335C27.6426 83.2287 28.4617 83.3478 29.4665 83.9525C30.5855 84.6239 31.0236 85.3525 30.6617 86.0144L29.7807 85.4859C29.9331 85.2287 29.7141 84.962 29.0617 84.5716C28.4426 84.2001 28.2426 84.2192 28.1474 84.3763C28.0379 84.5573 28.1474 84.6954 28.895 85.2335C29.9141 85.9573 30.5617 86.4478 30.1045 87.2097C29.6569 87.9525 28.8379 87.7573 27.8045 87.1335C26.6284 86.4239 26.0903 85.7382 26.5093 84.9478L27.3903 85.4811L27.395 85.4763Z" fill="white"></path><path d="M31.5236 87.1909C31.9712 86.1576 32.9426 85.8623 34.2569 86.429C35.5664 86.9957 36.014 87.9147 35.5712 88.9433C35.1236 89.9766 34.1426 90.2814 32.8331 89.7147C31.5188 89.148 31.0759 88.229 31.5236 87.1909ZM34.6283 88.5385C34.8616 87.9957 34.695 87.5338 33.9236 87.1957C33.1569 86.8623 32.7045 87.0576 32.4712 87.6004C32.2331 88.1481 32.4045 88.6147 33.1664 88.948C33.9331 89.2814 34.395 89.0814 34.6283 88.5338V88.5385Z" fill="white"></path><path d="M39.295 88.2146C40.495 88.5527 41.0331 89.2574 40.895 90.1241L39.8902 89.8431C39.9093 89.5241 39.6759 89.186 39.0712 89.0193C38.3712 88.8241 37.9378 89.0717 37.7759 89.6431C37.614 90.2193 37.8616 90.6622 38.5569 90.8574C39.1616 91.0241 39.5378 90.8574 39.6854 90.5669L40.6902 90.8479C40.3569 91.6669 39.5331 91.9955 38.3283 91.6622C37.0188 91.2955 36.4712 90.486 36.7807 89.3669C37.095 88.2527 37.9807 87.8479 39.2902 88.2146H39.295Z" fill="white"></path><path d="M43.3948 89.2289L42.7948 92.5623L41.8281 92.3861L42.4281 89.0527L43.3948 89.2289Z" fill="white"></path><path d="M44.4189 91.1481C44.5094 90.029 45.3332 89.4338 46.757 89.5481C48.176 89.6624 48.8999 90.3909 48.8046 91.5052C48.7141 92.6243 47.8856 93.229 46.4618 93.1147C45.0379 93.0005 44.3189 92.2719 44.4141 91.1481H44.4189ZM47.7856 91.4243C47.8332 90.8386 47.5284 90.4528 46.6903 90.3814C45.857 90.3148 45.4951 90.6433 45.4427 91.2338C45.3951 91.829 45.7046 92.2148 46.5332 92.2862C47.3665 92.3528 47.7379 92.0195 47.7856 91.4243Z" fill="white"></path><path d="M51.1188 92.048C51.1331 92.3337 51.4235 92.5051 52.314 92.4575C53.1283 92.4146 53.3235 92.2766 53.3093 92.0623C53.295 91.8146 53.1426 91.7813 52.1331 91.767C50.7569 91.7432 50.1331 91.5004 50.095 90.748C50.0569 90.0432 50.8045 89.6813 51.9759 89.6242C53.2807 89.5575 54.0521 89.9099 54.1188 90.6623L53.095 90.7146C53.0807 90.4146 52.7474 90.3194 51.9854 90.3575C51.2664 90.3956 51.1093 90.5242 51.1188 90.7051C51.1283 90.9146 51.295 90.9718 52.2188 91.0004C53.4664 91.0289 54.2807 91.0718 54.3283 91.9623C54.3712 92.8289 53.5854 93.1242 52.3807 93.1861C51.0093 93.2575 50.1759 92.9861 50.0854 92.0956L51.114 92.0432L51.1188 92.048Z" fill="white"></path><path d="M55.7426 92.0434L56.6806 91.9053L56.7854 92.6338L55.8473 92.7719L55.7378 92.0434H55.7426Z" fill="white"></path><path d="M59.4808 88.5387C60.6951 88.2434 61.5094 88.5958 61.8141 89.4196L60.7999 89.6673C60.6618 89.3768 60.2903 89.2006 59.6808 89.3482C58.9761 89.5196 58.7189 89.9482 58.857 90.5292C58.9999 91.1101 59.4332 91.3768 60.1332 91.2054C60.7427 91.0577 60.9903 90.7244 60.9761 90.3958L61.9903 90.1482C62.0999 91.0244 61.5427 91.7196 60.3284 92.0149C59.0046 92.3387 58.1284 91.9006 57.8522 90.772C57.576 89.6482 58.1522 88.8625 59.4761 88.5387H59.4808Z" fill="white"></path><path d="M63.1522 89.3956C62.7379 88.348 63.2189 87.4527 64.5474 86.9242C65.8712 86.4003 66.8427 86.7337 67.2522 87.7765C67.6665 88.8242 67.1855 89.7337 65.8617 90.2575C64.5331 90.7813 63.5665 90.448 63.1522 89.3956ZM66.2998 88.1527C66.0855 87.6051 65.6379 87.3908 64.857 87.7003C64.0808 88.0051 63.8951 88.4622 64.1141 89.0146C64.3331 89.5718 64.7855 89.7813 65.557 89.4765C66.3331 89.1718 66.5189 88.7051 66.2998 88.1527Z" fill="white"></path><path d="M69.3332 88.6956L67.6284 85.7623L68.9522 84.9908L71.1046 86.3432L70.9903 83.8051L72.3141 83.0337L74.0189 85.967L73.1713 86.4575L71.9379 84.3337L72.0713 87.1004L71.2856 87.5575L68.9475 86.0765L70.1856 88.2004L69.3332 88.6956Z" fill="white"></path><path d="M23.019 81.8382C13.9952 74.1811 8.2666 62.7573 8.2666 50.0001C8.2666 37.243 14.2999 25.2144 23.738 17.562" stroke="#A2C3E6" stroke-miterlimit="10"></path><path d="M76.2666 17.5669C85.7047 25.2193 91.7333 36.905 91.7333 50.0002C91.7333 63.0955 86.0047 74.1859 76.9809 81.8431" stroke="#A2C3E6" stroke-miterlimit="10"></path></g><defs><clipPath id="clip0_101_22097"><rect width="100" height="100" fill="white"></rect></clipPath></defs></svg>