<svg xmlns="http://www.w3.org/2000/svg" width="100" height="100" viewBox="0 0 100 100" fill="none"><g clip-path="url(#clip0_101_22091)"><path d="M50 100C77.6142 100 100 77.6142 100 50C100 22.3858 77.6142 0 50 0C22.3858 0 0 22.3858 0 50C0 77.6142 22.3858 100 50 100Z" fill="white"></path><path d="M50 2.53333C76.1714 2.53333 97.4667 23.8286 97.4667 50C97.4667 76.1714 76.1714 97.4667 50 97.4667C23.8286 97.4667 2.53333 76.1714 2.53333 50C2.53333 23.8286 23.8286 2.53333 50 2.53333ZM50 0C22.3857 0 0 22.3857 0 50C0 77.6143 22.3857 100 50 100C77.6143 100 100 77.6143 100 50C100 22.3857 77.6143 0 50 0Z" fill="#0066B2"></path><path fill-rule="evenodd" clip-rule="evenodd" d="M50.0332 83.4428C68.4237 83.4428 83.4237 68.4095 83.4237 49.9905C83.4237 31.5714 68.4237 16.5571 50.0332 16.5571C31.6046 16.5571 16.5713 31.5905 16.5713 49.9905C16.5713 68.3905 31.6046 83.4428 50.0332 83.4428Z" fill="#0066B2"></path><path d="M50.0332 83.5381C31.5285 83.5381 16.4761 68.4857 16.4761 49.9905C16.4761 41.0667 19.9713 32.6524 26.3237 26.3048C32.6761 19.9572 41.0951 16.4619 50.0332 16.4619C68.4999 16.4619 83.5237 31.5048 83.5237 49.9905C83.5237 68.4762 68.4999 83.5381 50.0332 83.5381ZM50.0332 16.6572C41.1475 16.6572 32.7761 20.1333 26.4618 26.4429C20.1475 32.7524 16.6713 41.1143 16.6713 49.9905C16.6713 68.381 31.638 83.3429 50.0332 83.3429C68.4285 83.3429 83.3237 68.381 83.3237 49.9905C83.3237 31.6 68.3904 16.6572 50.0332 16.6572Z" fill="white"></path><path fill-rule="evenodd" clip-rule="evenodd" d="M20.9474 50.0379C20.9474 33.9664 34.0093 20.8807 50.0712 20.8807C66.1331 20.8807 79.1998 33.9664 79.1998 50.0379C79.1998 66.1093 66.1331 79.1664 50.0712 79.1664C34.0093 79.1664 20.9474 66.0902 20.9474 50.0379ZM19.0093 50.0379C19.0093 67.1569 32.9426 81.095 50.0712 81.095C67.1998 81.095 81.1331 67.1617 81.1331 50.0379C81.1331 32.9141 67.1902 18.9521 50.0712 18.9521C32.9521 18.9521 19.0093 32.8998 19.0093 50.0379Z" fill="white"></path><path fill-rule="evenodd" clip-rule="evenodd" d="M50.1047 67.3905C40.5571 67.3905 32.7856 59.6286 32.7856 50.081C32.7856 40.5334 40.5571 32.7905 50.1047 32.7905C59.6523 32.7905 67.3856 40.5715 67.3856 50.081C67.3856 59.5905 59.5952 67.3905 50.1047 67.3905Z" fill="white"></path><path fill-rule="evenodd" clip-rule="evenodd" d="M31.338 50.1096C31.338 39.8001 39.7189 31.4096 50.038 31.4096C60.357 31.4096 68.6951 39.8001 68.6951 50.1096C68.6951 60.4192 60.3237 68.8192 50.038 68.8192C39.7523 68.8192 31.338 60.4287 31.338 50.1096ZM29.4189 50.1096C29.4189 61.4763 38.6666 70.7382 50.0332 70.7382C61.3999 70.7382 70.6094 61.4811 70.6094 50.1096C70.6094 38.7382 61.3713 29.5049 50.0332 29.5049C38.6951 29.5049 29.4189 38.743 29.4189 50.1096Z" fill="white"></path><path fill-rule="evenodd" clip-rule="evenodd" d="M37.7188 36.6143C44.2902 33.5286 47.4473 36.6857 52.2426 37.2048C56.6568 38.8429 60.8426 36.9524 64.8568 36.3667C61.6902 49.1905 66.2235 54.9952 67.0045 64.3048C58.1235 63.8762 50.9711 58.0619 40.4378 63.1857C41.6473 54.3048 40.6283 45.3476 37.7188 36.6143Z" fill="#EC1C24"></path><path fill-rule="evenodd" clip-rule="evenodd" d="M51.6953 37.024V43.2859H63.8906L64.9286 36.3335C59.8048 37.543 55.7001 38.3192 51.6953 37.024Z" fill="white"></path><path fill-rule="evenodd" clip-rule="evenodd" d="M77.8332 54.0049L78.0237 52.8287L74.5666 52.2859L72.2809 51.9287L72.1285 51.9097L71.9475 53.0954L72.2809 53.1382L74.5285 53.4954L74.1666 55.8144L72.2809 55.5144L71.5999 55.3954L71.3999 56.6049L72.2809 56.743L74.5666 57.1001L77.2856 57.5192L77.4713 56.3335L75.157 55.962L75.5142 53.6573L77.8332 54.0049Z" fill="white"></path><path fill-rule="evenodd" clip-rule="evenodd" d="M72.2807 58.1619L70.8283 57.6333L70.4331 58.7714L72.2807 59.4095L74.5664 60.219L76.0569 60.7095L76.4522 59.5809L74.5664 58.9381L72.2807 58.1619Z" fill="white"></path><path fill-rule="evenodd" clip-rule="evenodd" d="M76.5522 48.1712L74.5664 48.9712L74.376 49.0712L74.3141 47.4426L74.5664 47.5426L76.5522 48.1712ZM72.276 45.5331L71.895 45.4141L71.9426 46.6522L72.2712 46.7712L73.2903 47.1093L73.3807 49.4855L72.2712 49.9664L72.0617 50.0664L72.1045 51.3664L72.2712 51.2855L74.5569 50.276L77.9617 48.776L77.9093 47.5093L74.5522 46.3283L72.2664 45.5283L72.276 45.5331Z" fill="white"></path><path fill-rule="evenodd" clip-rule="evenodd" d="M72.719 64.2332L72.2809 64.1332L70.4142 63.7761L71.2428 62.3856L72.2809 63.6618L72.719 64.2332ZM70.3428 59.3618L69.6857 60.4523L70.5857 61.5618L69.3571 63.5999L67.938 63.3713L67.2476 64.4713L72.2809 65.2999L73.5809 65.4904L74.238 64.3999L72.2809 61.8951L70.3428 59.3666V59.3618Z" fill="white"></path><path fill-rule="evenodd" clip-rule="evenodd" d="M68.9429 36.6476L66.7239 34.1905L67.9334 33.1L69.9096 35.3191L70.6715 34.6667L68.6667 32.4381L69.6525 31.5429L71.8096 33.9286L72.281 33.5L72.5382 33.2571L72.281 32.9619L69.5953 29.981L65.9858 33.2191L65.1572 33.9571L65.9858 34.8762L68.1858 37.3238L68.9429 36.6476Z" fill="white"></path><path fill-rule="evenodd" clip-rule="evenodd" d="M72.7094 40.5904L73.0571 41.4904C73.2475 42.0095 73.338 42.338 73.338 42.5285C73.3666 42.6999 73.319 42.8285 73.2285 42.9761C73.1475 43.0952 73.019 43.1856 72.838 43.2571C72.6571 43.3285 72.4904 43.338 72.319 43.2856C72.3094 43.2856 72.3094 43.2571 72.2761 43.2571C72.1285 43.1856 72.038 43.0952 71.9475 42.9476C71.8761 42.8571 71.7761 42.5999 71.6094 42.1999L71.2094 41.1618L72.2761 40.7523L72.7047 40.5904H72.7094ZM74.5666 39.8618L74.9047 39.7428L75.1571 40.3809C75.3475 40.919 75.4666 41.219 75.5142 41.338C75.5571 41.5571 75.5333 41.719 75.4618 41.838C75.3904 41.9856 75.2713 42.0761 75.1142 42.1476C74.9237 42.2285 74.7571 42.2285 74.6142 42.1476H74.5666C74.4475 42.0761 74.3237 41.9285 74.238 41.7666C74.1952 41.6761 74.0761 41.419 73.9094 40.9666L73.619 40.2285L74.5666 39.8571V39.8618ZM69.8428 40.3999L70.5809 42.2857C70.8618 42.9952 71.0523 43.4428 71.1428 43.6333C71.2904 43.9237 71.4809 44.1333 71.6904 44.2714C71.8523 44.3904 72.0713 44.4809 72.2809 44.5095C72.3237 44.5285 72.3999 44.5285 72.4428 44.5285C72.7237 44.5476 72.9904 44.5285 73.2523 44.4285C73.5809 44.2904 73.8237 44.1095 73.9809 43.819C74.138 43.5571 74.219 43.2285 74.1999 42.8523C74.319 42.9714 74.4285 43.0618 74.5713 43.1333C74.6904 43.1809 74.7904 43.2333 74.9094 43.2333C75.1618 43.3047 75.4285 43.2809 75.6809 43.1809C75.9237 43.0904 76.1428 42.9428 76.2713 42.7523C76.419 42.5714 76.5428 42.3523 76.5809 42.1428C76.6333 41.9237 76.6333 41.7142 76.5809 41.4857C76.5428 41.2476 76.4523 40.9142 76.2523 40.4952L75.4047 38.2666L74.5761 38.5761L72.2904 39.4476L69.8523 40.3952L69.8428 40.3999Z" fill="white"></path><path fill-rule="evenodd" clip-rule="evenodd" d="M64.5949 28.9618C64.5568 28.9332 64.4759 28.9237 64.3854 28.8713C64.2664 28.7713 64.0759 28.6808 63.8473 28.5332L63.1473 28.1332L63.8568 26.957L64.3854 27.2665L64.4568 27.3142C64.9568 27.5951 65.2378 27.7856 65.3378 27.8523C65.4997 27.9713 65.5854 28.1142 65.6187 28.2523C65.6378 28.4237 65.6187 28.5618 65.5187 28.7332C65.3997 28.8951 65.2806 28.9951 65.1187 29.0332C64.9568 29.0808 64.7902 29.0523 64.5997 28.9618H64.5949ZM64.4045 30.9713C64.5045 30.8332 64.5521 30.6904 64.5235 30.5332C64.5235 30.4142 64.4711 30.2618 64.3854 30.1427C64.3854 30.1237 64.3568 30.1237 64.3568 30.1046C64.2473 29.9523 63.9568 29.7665 63.4854 29.4856L62.6568 28.9951L61.8378 30.3427L62.7759 30.9332C63.1473 31.1427 63.3854 31.2808 63.5045 31.3046C63.6759 31.3761 63.8426 31.3761 64.0045 31.3332C64.1521 31.2856 64.2854 31.1808 64.3854 31.0237C64.3854 31.0237 64.3918 31.0078 64.4045 30.9761V30.9713ZM65.4521 31.6808C65.614 31.3713 65.6806 31.0618 65.6616 30.7618C65.6092 30.4332 65.4616 30.1427 65.2092 29.8618C65.4902 29.8808 65.7473 29.8427 65.9759 29.7427L66.0045 29.7237C66.2473 29.6046 66.4568 29.4142 66.5949 29.1761C66.714 28.9665 66.7854 28.738 66.7854 28.4951C66.7854 28.2523 66.7664 28.0475 66.6664 27.8237C66.5664 27.6332 66.4378 27.4523 66.2473 27.3142C66.1664 27.2332 66.0759 27.1665 65.9759 27.1046C65.8187 26.9856 65.6283 26.8665 65.3664 26.6951L64.3759 26.1046L63.3378 25.4951L60.6378 29.9808L60.2568 30.5904L60.6378 30.8094L62.0187 31.638C62.6664 32.0094 63.0949 32.2475 63.2568 32.3475C63.5664 32.457 63.8473 32.538 64.114 32.5094C64.2045 32.5094 64.2759 32.4808 64.3711 32.457C64.5425 32.4189 64.6997 32.3475 64.8616 32.2475C65.1045 32.1094 65.2902 31.8904 65.4425 31.6761L65.4521 31.6808Z" fill="white"></path><path fill-rule="evenodd" clip-rule="evenodd" d="M61.0094 24.3904L60.6522 24.2713L59.8713 23.9999L58.7856 27.1047C58.6475 27.5428 58.5046 27.8713 58.4141 28.0428C58.3141 28.2237 58.1427 28.3428 57.957 28.4237C57.7475 28.5237 57.4856 28.4952 57.157 28.3713C56.8284 28.2809 56.6094 28.1142 56.4808 27.8999C56.3332 27.7094 56.2903 27.4713 56.3332 27.2285C56.3332 27.0666 56.4237 26.7571 56.5998 26.2713L57.657 23.2142L56.5189 22.8428L55.4998 25.838C55.2998 26.4761 55.1808 26.9475 55.1189 27.3047C55.0998 27.5332 55.1189 27.7761 55.2189 28.0332C55.3094 28.2952 55.4808 28.5237 55.6998 28.7428C55.9284 28.9523 56.2998 29.1618 56.8475 29.3523C57.3094 29.4999 57.676 29.5713 58.0189 29.5428C58.3189 29.5428 58.576 29.4523 58.8189 29.3332C59.0475 29.1952 59.2379 29.0047 59.4094 28.7428C59.5713 28.4856 59.757 28.0142 59.9998 27.3237L60.657 25.4047L61.0141 24.3761L61.0094 24.3904Z" fill="white"></path><path fill-rule="evenodd" clip-rule="evenodd" d="M37.2285 31.143L36.4 29.743L38.9476 28.2145L38.4285 27.3573L35.8714 28.8954L35.1904 27.7573L37.9571 26.1097L37.4381 25.2573L34.2238 27.1668L33.6523 27.524L34.2238 28.4668L36.7 32.6288L40.5857 30.2907L40.0857 29.443L37.2285 31.143Z" fill="white"></path><path fill-rule="evenodd" clip-rule="evenodd" d="M46.7285 27.1953C46.5381 27.4239 46.2714 27.5762 45.9714 27.6239C45.5428 27.6953 45.1619 27.5953 44.8333 27.3143C44.5238 27.0429 44.3238 26.5239 44.2047 25.8048C44.0857 25.0953 44.1238 24.5667 44.3666 24.2048C44.5762 23.8572 44.9143 23.6477 45.3523 23.5762C45.6619 23.5286 45.9428 23.5762 46.1809 23.7143C46.4428 23.8524 46.6333 24.0762 46.7381 24.3524L47.8571 23.881C47.6666 23.4334 47.4095 23.1239 47.0952 22.9001C46.5762 22.5524 45.9666 22.4286 45.2285 22.5286C44.4095 22.6667 43.7904 23.0477 43.3714 23.6667C42.9619 24.2762 42.8238 25.0858 42.9904 26.0762C43.1285 26.9953 43.4904 27.6858 44.0809 28.1239C44.6714 28.5715 45.3476 28.7429 46.1381 28.6239C46.7666 28.5239 47.2666 28.2953 47.6285 27.9143C47.9762 27.5334 48.1857 27.0143 48.2762 26.3572L47.0476 26.1667C47.0381 26.6143 46.919 26.9477 46.7285 27.1858V27.1953Z" fill="white"></path><path fill-rule="evenodd" clip-rule="evenodd" d="M50.995 22.3523L49.814 22.3237L49.6045 28.2142L53.7807 28.3428L53.8188 27.3571L50.8331 27.2666L50.995 22.3523Z" fill="white"></path><path fill-rule="evenodd" clip-rule="evenodd" d="M31.019 31.0907L32.1475 29.7431L31.3666 29.0859L30.4999 30.124L28.3428 32.7002L29.0999 33.3717L30.2285 32.0097L30.4999 32.2288L34.0428 35.1764L34.2237 34.9478L34.7904 34.2574L34.2237 33.7764L31.019 31.0907Z" fill="white"></path><path fill-rule="evenodd" clip-rule="evenodd" d="M28.5282 36.8048C28.5092 36.9762 28.3378 37.3048 28.0806 37.7953L27.6282 38.5857L27.3711 38.4476L26.3044 37.8572L26.7806 37.0286C27.0092 36.6 27.1616 36.3381 27.2092 36.2714C27.2806 36.2 27.3187 36.1524 27.3711 36.1C27.4711 36.0619 27.5425 36.0095 27.6282 35.9905C27.7997 35.9714 27.9568 35.9905 28.1473 36.0905C28.2949 36.181 28.4187 36.2714 28.4854 36.4095C28.5235 36.5286 28.5473 36.681 28.5235 36.8095L28.5282 36.8048ZM30.4949 36.7334C30.3473 36.7619 30.2044 36.781 30.114 36.8048C29.8759 36.8857 29.614 36.9762 29.3568 37.1429C29.5473 36.6429 29.5663 36.2143 29.4473 35.8429C29.3282 35.4619 29.0759 35.1714 28.6663 34.9619C28.3663 34.7714 28.0568 34.7048 27.7187 34.7238C27.6092 34.7238 27.4901 34.7524 27.3711 34.7953C27.2092 34.8429 27.0425 34.9476 26.8997 35.0667C26.6616 35.2572 26.3806 35.6238 26.0711 36.1953L24.8711 38.4143L27.3711 39.8143L30.0663 41.3048L30.4949 40.5143L30.6235 40.2334L30.4949 40.1619L28.4901 39.0334L28.6092 38.8143C28.7187 38.5857 28.8378 38.4143 28.9282 38.3238C29.0473 38.2238 29.1663 38.1857 29.3282 38.1334C29.4997 38.0953 29.8473 38.0334 30.3949 37.9953H30.4949L31.952 37.8762L32.6616 36.6191L31.2949 36.6905C30.9663 36.6905 30.7044 36.7191 30.4949 36.7429V36.7334Z" fill="white"></path><path fill-rule="evenodd" clip-rule="evenodd" d="M30.3093 59.5288L29.4284 60.0479L30.4998 61.8288L31.1474 62.8859L30.4998 63.2859L29.757 63.7336L28.2189 61.1574L27.3712 61.6764H27.3522L27.3712 61.7288L28.8903 64.2526L27.7808 64.9145L27.3712 64.2764L26.1236 62.1764L25.2427 62.6955L27.3712 66.2431L27.5141 66.4812L30.4998 64.6764L32.6284 63.405L30.4998 59.8574L30.3093 59.5288Z" fill="white"></path><path fill-rule="evenodd" clip-rule="evenodd" d="M23.3378 52.4286L23.3093 51.8381C23.2664 51.4095 23.2664 51.1286 23.2902 50.981C23.3093 50.781 23.3902 50.6095 23.4997 50.4714C23.6474 50.3524 23.8093 50.2619 24.0188 50.2619H24.1378C24.2855 50.2619 24.3997 50.3 24.495 50.3524C24.6331 50.4429 24.7569 50.5619 24.8236 50.7C24.895 50.8714 24.9426 51.181 24.995 51.6476L25.0045 52.3048L24.1378 52.3571L23.3378 52.4286ZM27.3759 53.3476L28.3474 53.2762L28.2759 52.0762L27.3759 52.1476L26.0283 52.2381L25.9855 51.4571C25.9331 50.9095 25.895 50.4857 25.814 50.2C25.7426 50.019 25.6236 49.8 25.4855 49.6095C25.3188 49.4286 25.1045 49.2619 24.8759 49.1381C24.6569 49.0476 24.4188 49 24.1378 49C24.0664 49 23.9997 49 23.9283 49.019C23.4569 49.0476 23.0807 49.1905 22.7902 49.4476C22.5093 49.6762 22.3474 49.9857 22.2807 50.319C22.2331 50.5571 22.2331 51.0286 22.2902 51.7667L22.4093 53.6857L24.1378 53.5667L27.3759 53.3476Z" fill="white"></path><path fill-rule="evenodd" clip-rule="evenodd" d="M25.743 59.8809C26.1906 59.7524 26.5239 59.4428 26.7096 58.9905C26.8477 58.6809 26.9001 58.1809 26.8477 57.5238C26.8287 57.0047 26.8096 56.6762 26.8096 56.5238C26.8096 56.3238 26.8477 56.1524 26.9192 56.0333C27.0001 55.9333 27.0906 55.8428 27.2287 55.8143C27.2811 55.8047 27.3192 55.7762 27.3668 55.7762C27.5382 55.7762 27.7049 55.8143 27.8668 55.9143C28.0763 56.0524 28.2477 56.2952 28.3668 56.6714C28.4858 57.019 28.4858 57.3285 28.3668 57.5905C28.2668 57.8524 28.0287 58.0619 27.6763 58.2476L28.1477 59.3381C28.7668 59.0476 29.1668 58.6809 29.3763 58.1809C29.5668 57.6905 29.5668 57.0714 29.3287 56.3619C29.1668 55.8619 28.9811 55.4952 28.7192 55.2143C28.4906 54.9143 28.1811 54.7333 27.843 54.6333C27.6811 54.6143 27.543 54.5952 27.3715 54.5952C27.2096 54.5952 27.0144 54.6143 26.8525 54.6666C26.5049 54.7857 26.2144 54.9762 26.0239 55.1857C25.8144 55.4143 25.7049 55.6857 25.6525 56.0143C25.5953 56.3238 25.5953 56.7619 25.6525 57.3524C25.7049 57.9714 25.6715 58.3428 25.5953 58.5428C25.5525 58.6809 25.4668 58.7714 25.3144 58.8238C25.1858 58.8762 25.0334 58.8428 24.9144 58.7524C24.7049 58.6143 24.5668 58.3714 24.443 58.0428C24.3525 57.7143 24.3239 57.4524 24.3953 57.2619C24.4763 57.0428 24.6525 56.8809 24.943 56.7428L24.5144 55.6143C24.3763 55.6524 24.2525 55.7238 24.1334 55.7762C23.8239 55.9666 23.5858 56.2476 23.4525 56.5762C23.2334 57.0476 23.262 57.6238 23.4953 58.3428C23.643 58.7714 23.8239 59.1333 24.0668 59.3905C24.0858 59.4095 24.1144 59.4619 24.1382 59.4809C24.3573 59.7 24.5953 59.8428 24.8763 59.9095C25.1573 59.9809 25.4668 59.9809 25.7477 59.8809H25.743Z" fill="white"></path><path fill-rule="evenodd" clip-rule="evenodd" d="M24.0144 43.7095C24.0667 43.5904 24.0858 43.4999 24.1334 43.4095C24.2906 43.0999 24.5334 42.8619 24.8239 42.719C25.2429 42.5095 25.7715 42.5095 26.4191 42.6999C26.8096 42.819 27.1286 42.9476 27.3667 43.138C27.5572 43.2571 27.6763 43.4095 27.7953 43.5666C28.0239 43.9666 28.0763 44.3952 27.9525 44.8428C27.862 45.1904 27.6525 45.4714 27.362 45.6904C27.3001 45.738 27.2239 45.7809 27.1191 45.8285C26.7001 46.0476 26.162 46.0476 25.5239 45.8476C24.862 45.6571 24.4048 45.3761 24.1763 44.9999C24.1572 44.9809 24.1572 44.9476 24.1286 44.938C23.9191 44.5761 23.8858 44.1476 24.0096 43.6999L24.0144 43.7095ZM23.2144 45.6285C23.3858 45.938 23.5858 46.1666 23.8239 46.3761C23.9239 46.4761 24.0429 46.5476 24.1334 46.6142C24.4429 46.8047 24.7906 46.9523 25.2239 47.0619C26.0525 47.2999 26.762 47.2999 27.3715 47.0428C27.4429 46.9904 27.5096 46.9619 27.5906 46.9238C28.2477 46.5666 28.7001 45.9761 28.9572 45.1238C29.2001 44.2761 29.1191 43.538 28.7382 42.8761C28.4572 42.3857 28.0096 42.0047 27.3715 41.719C27.2096 41.6476 27.0001 41.5809 26.781 41.519C25.862 41.2476 25.062 41.2999 24.3953 41.6476C24.2953 41.6952 24.2334 41.7476 24.1334 41.7952C23.6144 42.1666 23.2334 42.7142 23.0239 43.4428C22.9048 43.9238 22.8667 44.3428 22.9048 44.7428C22.9334 45.0333 23.0525 45.3428 23.2144 45.6238V45.6285Z" fill="white"></path><path fill-rule="evenodd" clip-rule="evenodd" d="M56.4188 71.0332L55.5284 71.2761C55.5284 71.6761 55.3569 72.0237 55.0998 72.3856C54.8712 72.7142 54.6331 72.9427 54.3903 73.1142C54.3712 73.1332 54.3474 73.1618 54.3188 73.1618L54.3903 73.4427L54.5903 74.1713C55.0808 73.8427 55.4808 73.4427 55.7712 72.9427L56.8808 77.1094L57.9569 76.8284L56.4188 71.0332Z" fill="white"></path><path fill-rule="evenodd" clip-rule="evenodd" d="M54.1095 75.0715C53.8905 74.8334 53.6095 74.7001 53.2619 74.6334C53.8191 74.2954 54.081 73.8763 54.0619 73.3477C54.0429 72.9763 53.881 72.6382 53.5952 72.3906C53.2381 72.0287 52.7667 71.8906 52.2286 71.9192C51.8905 71.9287 51.6095 72.0096 51.3524 72.1477C51.1 72.2858 50.881 72.4573 50.7714 72.6954C50.6333 72.9049 50.5286 73.1858 50.481 73.562L51.5191 73.6811C51.5381 73.4192 51.6095 73.2096 51.7619 73.062C51.881 72.9334 52.0429 72.8525 52.2286 72.8525C52.4381 72.8335 52.6 72.8715 52.7191 72.9906C52.8381 73.1096 52.9095 73.2811 52.9381 73.462C52.9381 73.7001 52.8667 73.8906 52.7 74.0525C52.5619 74.2001 52.3191 74.2715 52.0095 74.2906L51.9381 75.2192C52.1286 75.1477 52.3191 75.1192 52.4667 75.1001C52.6762 75.1001 52.8667 75.1716 53.0238 75.3382C53.181 75.5001 53.2905 75.7096 53.2905 75.9954C53.3 76.2954 53.2333 76.5334 53.0905 76.7239C52.9286 76.9144 52.7429 77.0049 52.5 77.0335C52.281 77.0335 52.1 76.9811 51.9286 76.843C51.7667 76.7049 51.6714 76.4858 51.6286 76.2049L50.519 76.3954C50.619 76.8858 50.8286 77.2954 51.2095 77.5715C51.5667 77.862 52.0286 78.0001 52.581 77.9715C53.1381 77.9335 53.5905 77.743 53.9667 77.343C54.1571 77.1239 54.2857 76.8858 54.3857 76.6334C54.4381 76.4144 54.4667 76.2049 54.4667 75.9954C54.4667 75.8239 54.4381 75.6858 54.3857 75.5668C54.3143 75.3763 54.2238 75.2192 54.1048 75.0668L54.1095 75.0715Z" fill="white"></path><path fill-rule="evenodd" clip-rule="evenodd" d="M48.5664 74.7905C48.4283 74.9381 48.2569 75 48.0473 75H47.995C47.7854 75 47.595 74.9096 47.4473 74.7191C47.3188 74.5286 47.2378 74.2381 47.2664 73.8715C47.2854 73.4905 47.3854 73.2143 47.5235 73.0429C47.6664 72.9048 47.8521 72.8334 48.0426 72.8334H48.0616C48.2711 72.8524 48.4616 72.9429 48.6331 73.1619C48.7711 73.3715 48.8521 73.6524 48.8521 74.0429C48.8235 74.3619 48.7331 74.6334 48.5616 74.7905H48.5664ZM48.1569 71.8857H48.0473C47.5473 71.8857 47.1283 72.0476 46.7711 72.3857C46.3902 72.7143 46.1807 73.2143 46.1521 73.8048C46.1426 74.3953 46.2711 74.8619 46.5807 75.2429C46.9188 75.6238 47.3188 75.8143 47.7616 75.8334C47.8807 75.8524 47.9807 75.8334 48.0521 75.8334C48.3521 75.7857 48.6426 75.6429 48.8711 75.4143C48.7807 76.0619 48.6616 76.5238 48.4711 76.7334C48.3521 76.8762 48.2188 76.9619 48.0521 77.0143H47.8616C47.6902 77.0143 47.5331 76.9572 47.4426 76.8334C47.3235 76.7334 47.2711 76.5429 47.2426 76.3334L46.1426 76.4048C46.1807 76.8953 46.3426 77.2762 46.6331 77.5429C46.895 77.7905 47.2711 77.9429 47.7521 77.9619H48.0521C48.5712 77.9095 48.9902 77.7 49.3521 77.3238C49.7711 76.8524 50.014 76.0953 50.0807 75.0048C50.1331 73.9334 49.9902 73.1667 49.6092 72.6667C49.2616 72.1667 48.7807 71.9191 48.1616 71.8905L48.1569 71.8857Z" fill="white"></path><path fill-rule="evenodd" clip-rule="evenodd" d="M43.9332 72.1429C43.5332 72.3143 43.1522 72.4 42.8427 72.4238L42.5903 73.4238C43.1808 73.4048 43.7189 73.2524 44.238 72.9762L43.1094 77.1333L44.2189 77.4238L45.776 71.6524L44.876 71.4238C44.6332 71.7334 44.3284 71.9953 43.9284 72.1524L43.9332 72.1429Z" fill="white"></path><path fill-rule="evenodd" clip-rule="evenodd" d="M63.9761 71.4859C64.8761 71.4859 65.6142 70.7478 65.6142 69.8573C65.6142 68.9669 64.8761 68.2192 63.9761 68.2192C63.0761 68.2192 62.3809 68.9573 62.3809 69.8573C62.3809 70.7573 63.1094 71.4859 63.9761 71.4859Z" fill="white"></path><path fill-rule="evenodd" clip-rule="evenodd" d="M35.7809 72.0762C36.6619 72.0762 37.3904 71.3381 37.3904 70.4477C37.3904 69.5572 36.6619 68.8096 35.7809 68.8096C34.9 68.8096 34.1523 69.5477 34.1523 70.4477C34.1523 71.3477 34.8809 72.0762 35.7809 72.0762Z" fill="white"></path><path fill-rule="evenodd" clip-rule="evenodd" d="M37.2475 35.376L34.5332 35.6855L38.7189 72.0855L41.7665 71.7236L37.5808 35.3379L37.2475 35.376Z" fill="white"></path><path fill-rule="evenodd" clip-rule="evenodd" d="M58.6334 62.4761C53.2429 61.0476 47.6667 59.5714 40.7143 62.8047C41.0048 60.4761 41.1714 58.1285 41.1714 55.7809C41.1714 55.6095 41.1714 55.4428 41.1619 55.2809C41.1524 53.6047 41.0619 51.9142 40.8905 50.2285C44.3476 48.8999 47.9905 48.419 51.8667 49.0904L51.7857 37.3857C51.9143 37.4047 52.0572 37.4237 52.1762 37.4476C55.5 38.6571 58.6667 37.938 61.7334 37.238C62.7 37.0095 63.6191 36.8095 64.5476 36.6571C63.8095 39.7618 63.5095 42.4809 63.5095 44.9285C63.5095 46.7142 63.6572 48.3666 63.9095 49.9428C64.2191 51.9904 64.681 53.8999 65.1476 55.7666C65.1572 55.8142 65.1762 55.8857 65.1905 55.938C65.8191 58.4857 66.4667 61.1237 66.7381 64.0476C63.9333 63.8666 61.2334 63.1809 58.6286 62.4809L58.6334 62.4761ZM67.2429 64.2761C66.9857 61.2095 66.3048 58.4714 65.6667 55.8237C64.3476 50.4904 62.981 44.9761 65.0857 36.4142L65.1667 36.0761L64.8286 36.1237C63.7714 36.2857 62.681 36.5333 61.6333 36.7714C58.6286 37.4618 55.5191 38.1714 52.3238 36.9809H52.2714C50.8619 36.819 49.5524 36.4237 48.2953 36.0333C45.3381 35.1333 42.2905 34.2047 37.6143 36.4047L37.4238 36.4952L37.4953 36.6952C40.4619 45.6047 41.381 54.5047 40.1905 63.1666L40.1381 63.5952L40.5381 63.4047C47.5095 60.0095 52.8524 61.438 58.5095 62.9333C61.2238 63.6523 64.0333 64.3904 66.9905 64.5428L67.2715 64.5523L67.2429 64.2714V64.2761Z" fill="#0066B2"></path><path fill-rule="evenodd" clip-rule="evenodd" d="M34.895 35.9858L39.0093 71.7239L41.4045 71.4334L37.2903 35.6953L34.895 35.9858Z" fill="#0066B2"></path><path fill-rule="evenodd" clip-rule="evenodd" d="M65.1569 55.7618C64.6903 53.8951 64.2284 51.9856 63.9188 49.9379C59.8331 50.1475 51.8712 49.0903 51.8712 49.0903C47.995 48.4237 44.3522 48.8998 40.895 50.2284C41.0664 51.9141 41.1569 53.6046 41.1664 55.2808C49.7569 53.1237 56.8188 56.1713 65.1569 55.7618Z" fill="white"></path><path fill-rule="evenodd" clip-rule="evenodd" d="M45.233 47.8955C42.7235 47.8955 40.6997 45.4574 40.6997 42.4812C40.6997 39.505 42.7283 37.0479 45.233 37.0479C47.7378 37.0479 49.7664 39.4859 49.7664 42.4812C49.7664 45.4764 47.7188 47.8955 45.233 47.8955Z" fill="white"></path><path fill-rule="evenodd" clip-rule="evenodd" d="M42.7524 39.5526C44.062 38.9336 44.7001 39.5621 45.6572 39.6716C46.5334 40.0002 47.3763 39.6097 48.1763 39.5002C47.5477 42.0574 48.4572 43.224 48.6143 45.0859C46.8382 45.005 45.4096 43.8383 43.3001 44.8669C43.5286 43.0907 43.3286 41.3002 42.7524 39.5526Z" fill="#EC1C24"></path><path fill-rule="evenodd" clip-rule="evenodd" d="M45.5522 39.6333V40.881H47.9903L48.1999 39.5C47.1713 39.7286 46.3522 39.8905 45.5522 39.6286V39.6333Z" fill="white"></path><path fill-rule="evenodd" clip-rule="evenodd" d="M42.6619 39.3047L42.1143 39.3618L42.9524 46.6428L43.5619 46.5761L42.7238 39.3047H42.6619Z" fill="white"></path><path fill-rule="evenodd" clip-rule="evenodd" d="M46.9382 44.724C45.862 44.4335 44.7429 44.1335 43.3525 44.7859C43.4144 44.3287 43.4429 43.8573 43.4429 43.3859V43.2859C43.4334 42.9478 43.4144 42.6144 43.3906 42.2668C44.0763 42.0049 44.8096 41.9097 45.5763 42.0382L45.5667 39.7097H45.6477C46.3144 39.9573 46.9334 39.8097 47.5572 39.6716C47.7477 39.624 47.9382 39.5906 48.1286 39.5621C47.9715 40.1811 47.9191 40.7192 47.9191 41.2097C47.9191 41.5668 47.9477 41.9002 48.0001 42.2192C48.062 42.6287 48.1477 43.0097 48.2525 43.3763V43.4144C48.381 43.924 48.5096 44.443 48.562 45.0335C48.0048 45.0049 47.462 44.8525 46.9429 44.724H46.9382ZM48.6572 45.0811C48.6048 44.4621 48.4667 43.924 48.3477 43.3954C48.0763 42.3287 47.8096 41.2192 48.2286 39.5001L48.2477 39.4382L48.1763 39.4478C47.9572 39.4763 47.7477 39.5287 47.5382 39.5763C46.9382 39.7049 46.3191 39.8573 45.6715 39.6144H45.662C45.381 39.5859 45.1239 39.4954 44.8715 39.424C44.281 39.243 43.6715 39.0621 42.7334 39.4954L42.6953 39.5144L42.7144 39.5525C43.3048 41.343 43.4858 43.1192 43.2525 44.8478L43.2334 44.9382L43.3144 44.9002C44.7096 44.2287 45.781 44.5097 46.9191 44.8097C47.4572 44.9478 48.0191 45.1001 48.6048 45.1287L48.6572 45.1382V45.0763V45.0811Z" fill="#0066B2"></path><path fill-rule="evenodd" clip-rule="evenodd" d="M42.1953 39.424L43.0144 46.5621L43.4906 46.5144L42.662 39.3716L42.1953 39.424Z" fill="#0066B2"></path><path fill-rule="evenodd" clip-rule="evenodd" d="M48.2473 43.376C48.1473 43.0045 48.0568 42.6284 47.9949 42.2188C47.1759 42.2474 45.5758 42.0379 45.5758 42.0379C44.8092 41.9093 44.0759 42.0093 43.3901 42.2665C43.4092 42.6141 43.4282 42.9474 43.4425 43.2855C45.1616 42.8474 46.5758 43.4569 48.2473 43.376Z" fill="white"></path><path fill-rule="evenodd" clip-rule="evenodd" d="M44.2523 41.8094C43.7523 41.8094 43.3428 41.3189 43.3428 40.7189C43.3428 40.1189 43.7523 39.6284 44.2523 39.6284C44.7523 39.6284 45.1618 40.1189 45.1618 40.7189C45.1618 41.3189 44.7523 41.8094 44.2523 41.8094Z" fill="white"></path><path d="M30.7095 11.3384L31.1143 12.0717L28.9 13.2955L29.2476 13.9289L31.2143 12.8431L31.6143 13.5717L29.6476 14.6574L30.1333 15.5336L29.2714 16.0098L27.6333 13.0431L30.7095 11.3431V11.3384Z" fill="#0066B2"></path><path d="M36.3001 12.6237L35.762 12.1523L33.8286 12.938L33.7715 13.6523L32.7905 14.0523L33.1334 10.2571L34.3905 9.74756L37.281 12.2285L36.3048 12.6237H36.3001ZM33.8953 12.1142L35.1334 11.6095L34.0143 10.6333L33.8953 12.1142Z" fill="#0066B2"></path><path d="M41.3476 10.1764L40.7619 7.81927L41.7095 7.58594L42.5238 10.8764L41.1286 11.224L38.6048 9.34784L39.1905 11.705L38.2381 11.9431L37.4238 8.6526L38.8238 8.30499L41.3476 10.1812V10.1764Z" fill="#0066B2"></path><path d="M46.1191 6.96208L50.2001 6.79541L50.2334 7.62874L48.6858 7.69065L48.7906 10.243L47.8096 10.2811L47.7049 7.72874L46.1525 7.79065L46.1191 6.95731V6.96208Z" fill="#0066B2"></path><path d="M51.3903 8.49526C51.4855 7.37622 52.3141 6.78098 53.7379 6.90479C55.1569 7.0286 55.876 7.75717 55.7807 8.87145C55.6855 9.9905 54.8522 10.5953 53.4331 10.4715C52.0093 10.3476 51.295 9.61907 51.3903 8.49526ZM54.7569 8.78574C54.8093 8.20003 54.5045 7.80955 53.6664 7.73812C52.8331 7.66669 52.4665 7.9905 52.4188 8.58574C52.3665 9.18098 52.676 9.57145 53.5045 9.64288C54.3379 9.71431 54.7093 9.38098 54.7617 8.7905L54.7569 8.78574Z" fill="#0066B2"></path><path d="M61.6239 8.36681L59.6334 9.38109L60.881 11.6763L59.6763 11.4049L58.8096 9.8049L57.862 10.2859L57.7096 10.9573L56.7524 10.7382L57.5001 7.42871L58.462 7.643L58.1286 9.12871L60.1953 8.03823L61.6334 8.36204L61.6239 8.36681Z" fill="#0066B2"></path><path d="M66.3286 9.99553L66.0667 10.7193L63.6858 9.85744L63.5 10.367L65.7905 11.1955L65.5286 11.9193L63.2381 11.0908L63.0524 11.6003L65.4334 12.4622L65.1715 13.186L61.8667 11.9908L63.0191 8.80029L66.3238 9.99553H66.3286Z" fill="#0066B2"></path><path d="M69.7621 14.3526L70.8764 12.1907L71.7478 12.6383L70.1907 15.6526L68.9097 14.9907L68.2478 11.9097L67.1335 14.0716L66.2573 13.6193L67.8145 10.605L69.1002 11.2669L69.7621 14.3478V14.3526Z" fill="#0066B2"></path><path d="M27.395 85.4763C27.2474 85.7192 27.395 86.0239 28.1569 86.4858C28.8569 86.9049 29.095 86.9001 29.2045 86.7192C29.3331 86.5097 29.2236 86.3906 28.395 85.8144C27.2665 85.024 26.8903 84.4763 27.276 83.8335C27.6426 83.2287 28.4617 83.3478 29.4665 83.9525C30.5855 84.6239 31.0236 85.3525 30.6617 86.0144L29.7807 85.4859C29.9331 85.2287 29.7141 84.962 29.0617 84.5716C28.4426 84.2001 28.2426 84.2192 28.1474 84.3763C28.0379 84.5573 28.1474 84.6954 28.895 85.2335C29.9141 85.9573 30.5617 86.4478 30.1045 87.2097C29.6569 87.9525 28.8379 87.7573 27.8045 87.1335C26.6284 86.4239 26.0903 85.7382 26.5093 84.9478L27.3903 85.4811L27.395 85.4763Z" fill="#0066B2"></path><path d="M31.5236 87.1909C31.9712 86.1576 32.9426 85.8623 34.2569 86.429C35.5664 86.9957 36.014 87.9147 35.5712 88.9433C35.1236 89.9766 34.1426 90.2814 32.8331 89.7147C31.5188 89.148 31.0759 88.229 31.5236 87.1909ZM34.6283 88.5385C34.8616 87.9957 34.695 87.5338 33.9236 87.1957C33.1569 86.8623 32.7045 87.0576 32.4712 87.6004C32.2331 88.1481 32.4045 88.6147 33.1664 88.948C33.9331 89.2814 34.395 89.0814 34.6283 88.5338V88.5385Z" fill="#0066B2"></path><path d="M39.295 88.2146C40.495 88.5527 41.0331 89.2574 40.895 90.1241L39.8902 89.8431C39.9093 89.5241 39.6759 89.186 39.0712 89.0193C38.3712 88.8241 37.9378 89.0717 37.7759 89.6431C37.614 90.2193 37.8616 90.6622 38.5569 90.8574C39.1616 91.0241 39.5378 90.8574 39.6854 90.5669L40.6902 90.8479C40.3569 91.6669 39.5331 91.9955 38.3283 91.6622C37.0188 91.2955 36.4712 90.486 36.7807 89.3669C37.095 88.2527 37.9807 87.8479 39.2902 88.2146H39.295Z" fill="#0066B2"></path><path d="M43.3948 89.2289L42.7948 92.5623L41.8281 92.3861L42.4281 89.0527L43.3948 89.2289Z" fill="#0066B2"></path><path d="M44.4189 91.1481C44.5094 90.029 45.3332 89.4338 46.757 89.5481C48.176 89.6624 48.8999 90.3909 48.8046 91.5052C48.7141 92.6243 47.8856 93.229 46.4618 93.1147C45.0379 93.0005 44.3189 92.2719 44.4141 91.1481H44.4189ZM47.7856 91.4243C47.8332 90.8386 47.5284 90.4528 46.6903 90.3814C45.857 90.3148 45.4951 90.6433 45.4427 91.2338C45.3951 91.829 45.7046 92.2148 46.5332 92.2862C47.3665 92.3528 47.7379 92.0195 47.7856 91.4243Z" fill="#0066B2"></path><path d="M51.1188 92.048C51.1331 92.3337 51.4235 92.5051 52.314 92.4575C53.1283 92.4146 53.3235 92.2766 53.3093 92.0623C53.295 91.8146 53.1426 91.7813 52.1331 91.767C50.7569 91.7432 50.1331 91.5004 50.095 90.748C50.0569 90.0432 50.8045 89.6813 51.9759 89.6242C53.2807 89.5575 54.0521 89.9099 54.1188 90.6623L53.095 90.7146C53.0807 90.4146 52.7474 90.3194 51.9854 90.3575C51.2664 90.3956 51.1093 90.5242 51.1188 90.7051C51.1283 90.9146 51.295 90.9718 52.2188 91.0004C53.4664 91.0289 54.2807 91.0718 54.3283 91.9623C54.3712 92.8289 53.5854 93.1242 52.3807 93.1861C51.0093 93.2575 50.1759 92.9861 50.0854 92.0956L51.114 92.0432L51.1188 92.048Z" fill="#0066B2"></path><path d="M55.7426 92.0429L56.6806 91.9048L56.7854 92.6334L55.8473 92.7715L55.7378 92.0429H55.7426Z" fill="#0066B2"></path><path d="M59.4808 88.5382C60.6951 88.243 61.5094 88.5953 61.8141 89.4191L60.7999 89.6668C60.6618 89.3763 60.2903 89.2001 59.6808 89.3477C58.9761 89.5192 58.7189 89.9477 58.857 90.5287C58.9999 91.1096 59.4332 91.3763 60.1332 91.2049C60.7427 91.0572 60.9903 90.7239 60.9761 90.3953L61.9903 90.1477C62.0999 91.0239 61.5427 91.7191 60.3284 92.0144C59.0046 92.3382 58.1284 91.9001 57.8522 90.7715C57.576 89.6477 58.1522 88.862 59.4761 88.5382H59.4808Z" fill="#0066B2"></path><path d="M63.1522 89.3956C62.7379 88.348 63.2189 87.448 64.5474 86.9242C65.8712 86.4003 66.8427 86.7337 67.2522 87.7765C67.6665 88.8242 67.1855 89.7337 65.8617 90.2575C64.5331 90.7813 63.5665 90.448 63.1522 89.3956ZM66.2998 88.1527C66.0855 87.6051 65.6379 87.3908 64.857 87.7003C64.0808 88.0051 63.8951 88.4622 64.1141 89.0146C64.3331 89.5718 64.7855 89.7813 65.557 89.4765C66.3331 89.1718 66.5189 88.7051 66.2998 88.1527Z" fill="#0066B2"></path><path d="M69.3381 88.6907L67.6333 85.7574L68.9571 84.986L71.1095 86.3383L70.9952 83.8002L72.319 83.0288L74.0238 85.9621L73.1762 86.4526L71.9428 84.3288L72.0762 87.0955L71.2904 87.5526L68.9524 86.0717L70.1904 88.1955L69.3381 88.6907Z" fill="#0066B2"></path><path d="M23.019 81.8382C13.9952 74.1811 8.2666 62.7573 8.2666 50.0001C8.2666 37.243 14.2999 25.2144 23.738 17.562" stroke="#0066B2" stroke-miterlimit="10"></path><path d="M76.2666 17.5669C85.7047 25.2193 91.7333 36.905 91.7333 50.0002C91.7333 63.0955 86.0047 74.1859 76.9809 81.8431" stroke="#0066B2" stroke-miterlimit="10"></path></g><defs><clipPath id="clip0_101_22091"><rect width="100" height="100" fill="white"></rect></clipPath></defs></svg>