<svg xmlns="http://www.w3.org/2000/svg" width="100" height="100" viewBox="0 0 100 100" fill="none"><g clip-path="url(#clip0_101_22119)"><path d="M50 100C77.6142 100 100 77.6142 100 50C100 22.3858 77.6142 0 50 0C22.3858 0 0 22.3858 0 50C0 77.6142 22.3858 100 50 100Z" fill="#154284"></path><path d="M50 2.53333C76.1714 2.53333 97.4667 23.8286 97.4667 50C97.4667 76.1714 76.1714 97.4667 50 97.4667C23.8286 97.4667 2.53333 76.1714 2.53333 50C2.53333 23.8286 23.8286 2.53333 50 2.53333ZM50 0C22.3857 0 0 22.3857 0 50C0 77.6143 22.3857 100 50 100C77.6143 100 100 77.6143 100 50C100 22.3857 77.6143 0 50 0Z" fill="#FDC52C"></path><path d="M58.319 27.3672L58.5904 27.5481C61.5904 29.5339 63.9999 29.8958 67.6761 29.8958C68.9713 29.8958 70.3618 29.6529 71.6904 29.191L72.038 29.0719L73.7809 31.51L73.5999 31.7481C67.1285 40.3434 72.1761 49.6291 75.7475 53.3339L76.0761 53.6767L75.738 54.0148C75.2713 54.4815 74.457 55.3243 73.857 55.9577L73.6523 56.1719L73.6666 56.4672V56.572C73.6713 56.6481 73.6761 56.7243 73.6904 56.8624V56.9148C73.9999 62.6481 72.5142 67.3577 69.2809 70.9148C65.8475 74.691 60.4285 76.9624 54.0237 77.3148L53.7761 77.3291L53.5951 77.4958C51.9666 78.9815 50.3094 80.2148 50.2904 80.2243L49.9999 80.4386L49.7094 80.2243C49.6428 80.172 48.0047 78.9577 46.3951 77.491L46.2142 77.3243L45.9666 77.31C39.5618 76.9577 34.1428 74.6862 30.7094 70.91C27.4761 67.3529 25.9904 62.6434 26.2951 56.91V56.8577C26.3142 56.7291 26.3189 56.6624 26.3189 56.5815V56.5577V56.4672L26.3332 56.1719L26.1285 55.9577C25.5618 55.3624 24.7285 54.491 24.2475 54.0148L23.9094 53.6767L24.238 53.3339C27.8094 49.6291 32.8523 40.3481 26.3856 31.7481L26.2047 31.51L27.9475 29.0719L28.2951 29.191C29.6285 29.6529 31.0142 29.8958 32.3094 29.8958C35.9809 29.8958 38.3951 29.5339 41.3951 27.5481L41.6713 27.3672L41.9428 27.5529C44.5856 29.391 47.1475 30.2434 49.9904 30.2434C52.838 30.2434 55.3951 29.391 58.038 27.5529L58.3094 27.3672" fill="#005596"></path><path d="M30.3 48.5956C32.3285 43.948 33.0809 37.9766 29.6714 32.1433C30.5238 32.2956 31.419 32.3861 32.3238 32.3861C35.8142 32.3861 38.5619 32.0671 41.6476 30.3242C44.0809 31.7956 46.8047 32.729 49.9952 32.7337C53.2 32.7337 55.9238 31.7956 58.3571 30.3242C61.4428 32.0671 64.1904 32.3861 67.6809 32.3861C68.5857 32.3861 69.4809 32.2909 70.3428 32.129C66.9238 37.9766 67.6809 43.948 69.7047 48.5956H30.3Z" fill="#005596"></path><path d="M69.6999 48.5956C67.6713 43.948 66.919 37.9766 70.338 32.129C69.4761 32.2956 68.5856 32.3861 67.6761 32.3861C64.1856 32.3861 61.438 32.0671 58.3523 30.3242C55.919 31.7956 53.1951 32.729 49.9904 32.7337C49.9618 32.7337 49.9285 32.7337 49.8999 32.7337V48.5956H69.6999Z" fill="#005596"></path><path d="M65.3618 71.0574C69.2428 68.2193 71.538 63.686 71.1999 57.0765C71.1618 56.7003 71.1333 56.6765 71.1047 56.3003H65.3618V71.0574Z" fill="#005596"></path><path d="M59.219 73.9051C61.5285 73.2812 63.6095 72.3431 65.3666 71.0574V56.3003H59.219V73.9051Z" fill="#005596"></path><path d="M34.6379 71.0574C36.3951 72.3431 38.4713 73.2765 40.7856 73.9051V56.3003H34.6379V71.0574Z" fill="#005596"></path><path d="M28.7999 57.0765C28.4618 63.686 30.7571 68.2193 34.638 71.0574V56.3003H28.8952C28.8666 56.6765 28.838 56.7003 28.7999 57.0765Z" fill="#005596"></path><path d="M50.0143 59.5671C51.1381 59.5671 52.1857 59.8909 53.0714 60.448V56.3052H46.9238V60.4671C47.8191 59.9004 48.8762 59.5671 50.0143 59.5671Z" fill="#005596"></path><path d="M50.0143 71.148C48.8762 71.148 47.8191 70.8147 46.9238 70.248V74.8338C47.0334 74.8385 47.1381 74.848 47.2476 74.8528C49.2905 74.8623 51.1381 74.8766 52.7429 74.8528C52.8524 74.848 52.9572 74.8385 53.0667 74.8338V70.2671C52.1762 70.8195 51.1333 71.148 50.0095 71.148H50.0143Z" fill="#005596"></path><path d="M53.0713 56.3003V60.4431C54.7094 61.467 55.8046 63.2812 55.8046 65.3574C55.8046 67.4336 54.7094 69.2431 53.0713 70.267V74.8336C55.2427 74.7241 57.3094 74.4193 59.2189 73.9051V56.3003H53.0713Z" fill="#005596"></path><path d="M44.2236 65.3574C44.2236 63.2955 45.3046 61.4908 46.9284 60.4622V56.3003H40.7808V73.9051C42.6903 74.4193 44.757 74.7241 46.9284 74.8336V70.2527C45.3046 69.2241 44.2236 67.4193 44.2236 65.3622V65.3574Z" fill="#005596"></path><path d="M31.6809 37.3528C32.0952 39.3623 32.1047 41.3385 31.8428 43.2147H37.8142V48.5909H43.6761V43.2147H49.9238V37.3528H43.6761V31.3861C42.9761 31.0766 42.3 30.7195 41.6428 30.3242C40.3333 31.0623 39.0809 31.548 37.8142 31.8576V37.3528H31.6809Z" fill="#005596"></path><path d="M62.5474 48.5954V31.943C61.8426 31.7906 61.1426 31.5859 60.4426 31.3145V48.6002H62.5474V48.5954Z" fill="#005596"></path><path d="M54.1189 48.5954V32.1812C53.4427 32.3669 52.738 32.5097 52.0142 32.605V48.5954H54.1189Z" fill="#005596"></path><path d="M66.7617 48.5955V32.3765C66.0332 32.3622 65.3332 32.3289 64.657 32.2622V48.5908H66.7617V48.5955Z" fill="#005596"></path><path d="M58.3333 48.5955V30.3384C57.6571 30.7479 56.9523 31.1146 56.2285 31.4289V48.5908H58.3333V48.5955Z" fill="#005596"></path><path d="M77.0523 53.6766L76.2475 52.8432C72.8189 49.2861 67.9666 40.3813 74.157 32.1575L74.6427 31.5099L72.3046 28.2337L71.4666 28.5242C70.2047 28.9575 68.8951 29.1908 67.6761 29.1908C64.1427 29.1908 61.8237 28.848 58.9761 26.9575L58.3094 26.5146L57.6523 26.9718C55.1285 28.7242 52.6999 29.5385 49.9999 29.5385C47.2999 29.5385 44.8713 28.7242 42.3475 26.9718L41.6904 26.5146L41.0237 26.9575C38.1713 28.8432 35.857 29.1908 32.3237 29.1908C31.1047 29.1908 29.7951 28.9623 28.5332 28.5242L27.6951 28.2337L25.357 31.5099L25.8427 32.1575C32.0285 40.3813 27.1808 49.2813 23.7523 52.8432L22.9475 53.6766L23.7666 54.4956C24.2094 54.9337 24.9904 55.748 25.6332 56.4289C25.6332 56.467 25.6332 56.5004 25.6332 56.5337C25.6332 56.6051 25.6332 56.6623 25.6142 56.7766V56.8527C25.2904 62.7861 26.838 67.667 30.2047 71.367C33.7713 75.2908 39.3475 77.6337 45.938 77.9956C47.5713 79.4813 49.2285 80.7146 49.3047 80.7718L50.0094 81.2956L50.7142 80.7718C50.7856 80.7146 52.438 79.4861 54.0666 77.9956C60.657 77.6337 66.2332 75.2908 69.7999 71.367C73.1666 67.667 74.7094 62.7861 74.3951 56.8527V56.7766C74.3761 56.6623 74.3713 56.6051 74.3713 56.5337C74.3713 56.5004 74.3713 56.467 74.3713 56.4289C75.0189 55.748 75.7999 54.9385 76.2427 54.4956L77.0618 53.6766H77.0523ZM73.1475 55.9956C73.2094 56.5908 73.1713 56.567 73.2142 56.9146C73.9189 70.1337 64.7094 76.3766 53.5808 76.8385C51.8808 78.4289 50.0047 79.8242 50.0047 79.8242C50.0047 79.8242 48.1237 78.4289 46.4189 76.8385C35.2904 76.3766 26.0808 70.1337 26.7808 56.9146C26.8237 56.567 26.7856 56.5908 26.8475 55.9956C26.2094 55.3194 25.1523 54.2194 24.5951 53.6623C28.5856 49.5194 33.2475 40.0432 26.7808 31.4527L28.1475 29.6432C29.438 30.0908 30.8761 30.3718 32.3237 30.3718C36.0332 30.3718 38.5618 30.0051 41.6761 27.9432C44.138 29.6527 46.8047 30.7194 49.9999 30.7194C53.1951 30.7194 55.8618 29.648 58.3237 27.9432C61.438 30.0051 63.9666 30.3718 67.6761 30.3718C69.1189 30.3718 70.557 30.0908 71.8523 29.6432L73.2189 31.4527C66.7523 40.0432 71.4094 49.5242 75.4047 53.6623C74.8475 54.2194 73.7904 55.3194 73.1523 55.9956H73.1475Z" fill="#005596"></path><path d="M28.7189 56.2859C28.7046 56.4859 28.6855 56.5859 28.6712 56.6907C28.657 56.7812 28.6427 56.8812 28.6236 57.0669C28.3665 62.1526 29.6331 66.2669 32.3998 69.2955C35.5712 72.7716 40.7046 74.7526 47.257 75.024H47.5046C48.5951 75.0335 49.6284 75.0383 50.5998 75.0383C51.3617 75.0383 52.0808 75.0383 52.7617 75.024C59.3046 74.7526 64.4427 72.7716 67.6093 69.2955C70.3712 66.2621 71.6427 62.1478 71.3808 57.0574C71.3617 56.8859 71.3474 56.7859 71.3331 56.6907C71.3141 56.5812 71.2998 56.4859 71.2855 56.2859L71.2712 56.124H28.7331L28.7189 56.2859ZM28.976 57.0955C28.9951 56.9335 29.0093 56.8383 29.0236 56.7478C29.0379 56.6669 29.0474 56.5907 29.0617 56.4764H70.9474C70.9617 56.5907 70.9712 56.6669 70.9855 56.7478C70.9998 56.8335 71.0141 56.9288 71.0331 57.0859C71.2855 62.0716 70.0474 66.1002 67.3522 69.0574C64.2474 72.4621 59.1998 74.405 52.757 74.6716C51.2189 74.6907 49.457 74.6859 47.5141 74.6716H47.2712C40.8236 74.405 35.776 72.4621 32.6712 69.0574C29.976 66.1002 28.7331 62.0716 28.9903 57.0955H28.976Z" fill="#005596"></path><path d="M30.1379 48.5244L30.0284 48.772H69.9712L69.8617 48.5244C68.1284 44.5434 66.8284 38.4863 70.4903 32.2196L70.6855 31.8815L70.3046 31.953C69.4188 32.1244 68.5379 32.2101 67.676 32.2101C64.1093 32.2101 61.4569 31.8768 58.4427 30.172L58.3522 30.1196L58.2617 30.172C55.6141 31.772 52.9093 32.553 49.995 32.5577C47.0855 32.5577 44.3855 31.7768 41.7379 30.172L41.6474 30.1196L41.5569 30.172C38.5427 31.8768 35.8855 32.2101 32.3236 32.2101C31.4903 32.2101 30.6093 32.1292 29.7046 31.9672L29.3284 31.9006L29.5236 32.2292C33.1808 38.4863 31.876 44.5434 30.1427 48.5196L30.1379 48.5244ZM50.1046 32.9101C53.0141 32.8911 55.7188 32.1101 58.3617 30.5292C61.4093 32.2292 64.0903 32.5625 67.6808 32.5625C68.4427 32.5625 69.2188 32.4958 69.9998 32.3672C66.5665 38.5149 67.7522 44.4339 69.4379 48.4149H50.1093V32.9101H50.1046ZM30.0141 32.3768C30.8093 32.5006 31.5903 32.5625 32.3284 32.5625C35.9188 32.5625 38.5998 32.2292 41.6474 30.5292C44.2474 32.0863 46.9046 32.8625 49.7522 32.9101V48.4196H30.5712C32.2569 44.4339 33.4427 38.5196 30.0141 32.3768Z" fill="#005596"></path><path d="M44.957 50.8957V49.729H41.0046V55.2052H42.1951V52.9481H43.8094V51.7861H42.1951V50.8957H44.957Z" fill="#005596"></path><path d="M49.5903 50.824C50.0236 50.824 50.3236 51.005 50.5189 51.3764L50.5427 51.424L51.6427 50.9145L51.6189 50.8621C51.2332 50.0621 50.5379 49.6431 49.6046 49.6431C48.1665 49.6431 47.1665 50.805 47.1665 52.4669C47.1665 54.1812 48.1094 55.2907 49.5665 55.2907C50.5189 55.2907 51.2046 54.8716 51.6046 54.0478L51.6284 54.0002L50.6284 53.4097L50.5998 53.4574C50.3141 53.9335 50.0427 54.1097 49.5998 54.1097C48.876 54.1097 48.3856 53.4478 48.3856 52.4669C48.3856 51.4526 48.8475 50.824 49.5903 50.824Z" fill="#005596"></path><path d="M58.7713 51.2003C58.7713 50.2765 58.1142 49.7241 57.0142 49.7241H54.4951V55.2003H56.9904C58.2189 55.2003 58.957 54.5289 58.957 53.4098C58.957 52.8908 58.7046 52.4622 58.2665 52.2289C58.5904 51.9956 58.7761 51.6241 58.7761 51.1956L58.7713 51.2003ZM55.6618 50.8289H56.9665C57.4999 50.8289 57.5665 51.0717 57.5665 51.286C57.5665 51.586 57.3856 51.7336 57.0189 51.7336H55.6618V50.8336V50.8289ZM57.0285 54.067H55.6618V52.7956H57.0285C57.5094 52.7956 57.738 52.9955 57.738 53.4289C57.738 53.8622 57.4951 54.067 57.0285 54.067Z" fill="#005596"></path><path d="M49.9762 71.2434C53.2381 71.2434 55.8905 68.591 55.8905 65.3243C55.8905 62.0624 53.2381 59.4053 49.9762 59.4053C46.7143 59.4053 44.0571 62.0624 44.0571 65.3243C44.0571 68.5862 46.7095 71.2434 49.9762 71.2434ZM49.9762 70.8862C48.8286 70.8862 47.7619 70.5386 46.8714 69.9386C48.0476 69.8862 49.6047 69.5862 50.5762 69.01C51.5143 68.4529 52.5095 67.7529 52.6952 66.8196C53.3762 66.4767 54.6809 66.6386 54.8476 68.01C53.9 69.7243 52.0762 70.8862 49.9762 70.8862ZM47.2333 66.6005C47.5048 66.7815 47.8333 66.9005 48.2238 66.9529C48.9952 67.0529 50.0714 66.2862 50.1381 65.4148C51.2 64.6624 52.019 65.3434 52.2667 65.9338C52.7524 67.1005 51.7286 67.9386 50.4047 68.7291C49.3809 69.3386 47.6 69.6291 46.4381 69.6196C45.8238 69.1148 45.319 68.4767 44.9714 67.7577C45.0143 67.7577 45.0619 67.7577 45.1048 67.7577C46.019 67.7577 46.7952 67.3386 47.2286 66.5958L47.2333 66.6005ZM46.3476 63.791C46.3333 62.7005 46.6428 61.7481 46.8857 60.7053C47.6428 60.1958 48.5333 59.8719 49.4905 59.791C48.8476 60.491 48.9809 61.5148 49.6428 62.0434C49.4857 62.1577 49.3476 62.3053 49.2286 62.5005C48.7381 63.2767 48.6667 64.5815 49.8047 65.4148C49.7333 66.0672 48.8667 66.7053 48.2667 66.6291C46.9762 66.4624 46.3667 65.2672 46.3476 63.7958V63.791ZM52.719 66.4481C52.7095 66.2434 52.6619 66.0291 52.5667 65.8005C52.2714 65.0957 51.2524 64.2338 49.9714 65.1196C49.0286 64.41 49.0857 63.3291 49.5047 62.6672C50.1524 61.6434 51.619 62.0529 52.9619 62.8005C54.0524 63.41 55.1905 64.6815 55.5095 65.8338C55.4571 66.4338 55.3048 67.0005 55.0762 67.5291C54.7 66.3529 53.4714 66.1815 52.719 66.4481ZM53.1238 62.5148C52.1524 61.9719 50.8762 61.4767 49.9571 61.8577C49.2619 61.4243 49.1428 60.3386 50.019 59.7624C52.9571 59.7862 55.3476 62.0862 55.5238 64.9862C55 63.9815 54.0428 63.0243 53.1238 62.5148ZM46.4667 61.0053C46.3619 61.4148 46.2619 61.7719 46.1809 62.1338C45.8952 63.4434 45.9 65.4196 46.9619 66.391C46.5952 67.0434 45.9238 67.4243 45.1 67.4243C45 67.4243 44.9047 67.4196 44.8095 67.4053C44.5476 66.7624 44.4047 66.0577 44.4047 65.3196C44.4047 63.5767 45.2047 62.0243 46.4571 61.0053H46.4667Z" fill="#005596"></path><path d="M58.319 27.3672L58.5904 27.5481C61.5904 29.5339 63.9999 29.8958 67.6761 29.8958C68.9713 29.8958 70.3618 29.6529 71.6904 29.191L72.038 29.0719L73.7809 31.51L73.5999 31.7481C67.1285 40.3434 72.1761 49.6291 75.7475 53.3339L76.0761 53.6767L75.738 54.0148C75.2713 54.4815 74.457 55.3243 73.857 55.9577L73.6523 56.1719L73.6666 56.4672V56.572C73.6713 56.6481 73.6761 56.7243 73.6904 56.8624V56.9148C73.9999 62.6481 72.5142 67.3577 69.2809 70.9148C65.8475 74.691 60.4285 76.9624 54.0237 77.3148L53.7761 77.3291L53.5951 77.4958C51.9666 78.9815 50.3094 80.2148 50.2904 80.2243L49.9999 80.4386L49.7094 80.2243C49.6428 80.172 48.0047 78.9577 46.3951 77.491L46.2142 77.3243L45.9666 77.31C39.5618 76.9577 34.1428 74.6862 30.7094 70.91C27.4761 67.3529 25.9904 62.6434 26.2951 56.91V56.8577C26.3142 56.7291 26.3189 56.6624 26.3189 56.5815V56.5577V56.4672L26.3332 56.1719L26.1285 55.9577C25.5618 55.3624 24.7285 54.491 24.2475 54.0148L23.9094 53.6767L24.238 53.3339C27.8094 49.6291 32.8523 40.3481 26.3856 31.7481L26.2047 31.51L27.9475 29.0719L28.2951 29.191C29.6285 29.6529 31.0142 29.8958 32.3094 29.8958C35.9809 29.8958 38.3951 29.5339 41.3951 27.5481L41.6713 27.3672L41.9428 27.5529C44.5856 29.391 47.1475 30.2434 49.9904 30.2434C52.838 30.2434 55.3951 29.391 58.038 27.5529L58.3094 27.3672" fill="#E8B909"></path><path d="M30.3 48.5956C32.3285 43.948 33.0809 37.9766 29.6714 32.1433C30.5238 32.2956 31.419 32.3861 32.3238 32.3861C35.8142 32.3861 38.5619 32.0671 41.6476 30.3242C44.0809 31.7956 46.8047 32.729 49.9952 32.7337C53.2 32.7337 55.9238 31.7956 58.3571 30.3242C61.4428 32.0671 64.1904 32.3861 67.6809 32.3861C68.5857 32.3861 69.4809 32.2909 70.3428 32.129C66.9238 37.9766 67.6809 43.948 69.7047 48.5956H30.3Z" fill="white"></path><path d="M69.6999 48.5956C67.6713 43.948 66.919 37.9766 70.338 32.129C69.4761 32.2956 68.5856 32.3861 67.6761 32.3861C64.1856 32.3861 61.438 32.0671 58.3523 30.3242C55.919 31.7956 53.1951 32.729 49.9904 32.7337C49.9618 32.7337 49.9285 32.7337 49.8999 32.7337V48.5956H69.6999Z" fill="#FFDD00"></path><path d="M65.3618 71.0574C69.2428 68.2193 71.538 63.686 71.1999 57.0765C71.1618 56.7003 71.1333 56.6765 71.1047 56.3003H65.3618V71.0574Z" fill="#0054A4"></path><path d="M59.219 73.9051C61.5285 73.2812 63.6095 72.3431 65.3666 71.0574V56.3003H59.219V73.9051Z" fill="#A30046"></path><path d="M34.6379 71.0574C36.3951 72.3431 38.4713 73.2765 40.7856 73.9051V56.3003H34.6379V71.0574Z" fill="#A30046"></path><path d="M28.7999 57.0765C28.4618 63.686 30.7571 68.2193 34.638 71.0574V56.3003H28.8952C28.8666 56.6765 28.838 56.7003 28.7999 57.0765Z" fill="#0054A4"></path><path d="M50.0143 59.5671C51.1381 59.5671 52.1857 59.8909 53.0714 60.448V56.3052H46.9238V60.4671C47.8191 59.9004 48.8762 59.5671 50.0143 59.5671Z" fill="#A30046"></path><path d="M50.0143 71.148C48.8762 71.148 47.8191 70.8147 46.9238 70.248V74.8338C47.0334 74.8385 47.1381 74.848 47.2476 74.8528C49.2905 74.8623 51.1381 74.8766 52.7429 74.8528C52.8524 74.848 52.9572 74.8385 53.0667 74.8338V70.2671C52.1762 70.8195 51.1333 71.148 50.0095 71.148H50.0143Z" fill="#A30046"></path><path d="M53.0713 56.3003V60.4431C54.7094 61.467 55.8046 63.2812 55.8046 65.3574C55.8046 67.4336 54.7094 69.2431 53.0713 70.267V74.8336C55.2427 74.7241 57.3094 74.4193 59.2189 73.9051V56.3003H53.0713Z" fill="#0054A4"></path><path d="M44.2236 65.3574C44.2236 63.2955 45.3046 61.4908 46.9284 60.4622V56.3003H40.7808V73.9051C42.6903 74.4193 44.757 74.7241 46.9284 74.8336V70.2527C45.3046 69.2241 44.2236 67.4193 44.2236 65.3622V65.3574Z" fill="#0054A4"></path><path d="M31.6809 37.3528C32.0952 39.3623 32.1047 41.3385 31.8428 43.2147H37.8142V48.5909H43.6761V43.2147H49.9238V37.3528H43.6761V31.3861C42.9761 31.0766 42.3 30.7195 41.6428 30.3242C40.3333 31.0623 39.0809 31.548 37.8142 31.8576V37.3528H31.6809Z" fill="#E31837"></path><path d="M62.5474 48.5954V31.943C61.8426 31.7906 61.1426 31.5859 60.4426 31.3145V48.6002H62.5474V48.5954Z" fill="#E31837"></path><path d="M54.1189 48.5954V32.1812C53.4427 32.3669 52.738 32.5097 52.0142 32.605V48.5954H54.1189Z" fill="#E31837"></path><path d="M66.7617 48.5955V32.3765C66.0332 32.3622 65.3332 32.3289 64.657 32.2622V48.5908H66.7617V48.5955Z" fill="#E31837"></path><path d="M58.3333 48.5955V30.3384C57.6571 30.7479 56.9523 31.1146 56.2285 31.4289V48.5908H58.3333V48.5955Z" fill="#E31837"></path><path d="M77.0523 53.6766L76.2475 52.8432C72.8189 49.2861 67.9666 40.3813 74.157 32.1575L74.6427 31.5099L72.3046 28.2337L71.4666 28.5242C70.2047 28.9575 68.8951 29.1908 67.6761 29.1908C64.1427 29.1908 61.8237 28.848 58.9761 26.9575L58.3094 26.5146L57.6523 26.9718C55.1285 28.7242 52.6999 29.5385 49.9999 29.5385C47.2999 29.5385 44.8713 28.7242 42.3475 26.9718L41.6904 26.5146L41.0237 26.9575C38.1713 28.8432 35.857 29.1908 32.3237 29.1908C31.1047 29.1908 29.7951 28.9623 28.5332 28.5242L27.6951 28.2337L25.357 31.5099L25.8427 32.1575C32.0285 40.3813 27.1808 49.2813 23.7523 52.8432L22.9475 53.6766L23.7666 54.4956C24.2094 54.9337 24.9904 55.748 25.6332 56.4289C25.6332 56.467 25.6332 56.5004 25.6332 56.5337C25.6332 56.6051 25.6332 56.6623 25.6142 56.7766V56.8527C25.2904 62.7861 26.838 67.667 30.2047 71.367C33.7713 75.2908 39.3475 77.6337 45.938 77.9956C47.5713 79.4813 49.2285 80.7146 49.3047 80.7718L50.0094 81.2956L50.7142 80.7718C50.7856 80.7146 52.438 79.4861 54.0666 77.9956C60.657 77.6337 66.2332 75.2908 69.7999 71.367C73.1666 67.667 74.7094 62.7861 74.3951 56.8527V56.7766C74.3761 56.6623 74.3713 56.6051 74.3713 56.5337C74.3713 56.5004 74.3713 56.467 74.3713 56.4289C75.0189 55.748 75.7999 54.9385 76.2427 54.4956L77.0618 53.6766H77.0523ZM73.1475 55.9956C73.2094 56.5908 73.1713 56.567 73.2142 56.9146C73.9189 70.1337 64.7094 76.3766 53.5808 76.8385C51.8808 78.4289 50.0047 79.8242 50.0047 79.8242C50.0047 79.8242 48.1237 78.4289 46.4189 76.8385C35.2904 76.3766 26.0808 70.1337 26.7808 56.9146C26.8237 56.567 26.7856 56.5908 26.8475 55.9956C26.2094 55.3194 25.1523 54.2194 24.5951 53.6623C28.5856 49.5194 33.2475 40.0432 26.7808 31.4527L28.1475 29.6432C29.438 30.0908 30.8761 30.3718 32.3237 30.3718C36.0332 30.3718 38.5618 30.0051 41.6761 27.9432C44.138 29.6527 46.8047 30.7194 49.9999 30.7194C53.1951 30.7194 55.8618 29.648 58.3237 27.9432C61.438 30.0051 63.9666 30.3718 67.6761 30.3718C69.1189 30.3718 70.557 30.0908 71.8523 29.6432L73.2189 31.4527C66.7523 40.0432 71.4094 49.5242 75.4047 53.6623C74.8475 54.2194 73.7904 55.3194 73.1523 55.9956H73.1475Z" fill="#231F20"></path><path d="M28.7189 56.2859C28.7046 56.4859 28.6855 56.5859 28.6712 56.6907C28.657 56.7812 28.6427 56.8812 28.6236 57.0669C28.3665 62.1526 29.6331 66.2669 32.3998 69.2955C35.5712 72.7716 40.7046 74.7526 47.257 75.024H47.5046C48.5951 75.0335 49.6284 75.0383 50.5998 75.0383C51.3617 75.0383 52.0808 75.0383 52.7617 75.024C59.3046 74.7526 64.4427 72.7716 67.6093 69.2955C70.3712 66.2621 71.6427 62.1478 71.3808 57.0574C71.3617 56.8859 71.3474 56.7859 71.3331 56.6907C71.3141 56.5812 71.2998 56.4859 71.2855 56.2859L71.2712 56.124H28.7331L28.7189 56.2859ZM28.976 57.0955C28.9951 56.9335 29.0093 56.8383 29.0236 56.7478C29.0379 56.6669 29.0474 56.5907 29.0617 56.4764H70.9474C70.9617 56.5907 70.9712 56.6669 70.9855 56.7478C70.9998 56.8335 71.0141 56.9288 71.0331 57.0859C71.2855 62.0716 70.0474 66.1002 67.3522 69.0574C64.2474 72.4621 59.1998 74.405 52.757 74.6716C51.2189 74.6907 49.457 74.6859 47.5141 74.6716H47.2712C40.8236 74.405 35.776 72.4621 32.6712 69.0574C29.976 66.1002 28.7331 62.0716 28.9903 57.0955H28.976Z" fill="#231F20"></path><path d="M30.1379 48.5244L30.0284 48.772H69.9712L69.8617 48.5244C68.1284 44.5434 66.8284 38.4863 70.4903 32.2196L70.6855 31.8815L70.3046 31.953C69.4188 32.1244 68.5379 32.2101 67.676 32.2101C64.1093 32.2101 61.4569 31.8768 58.4427 30.172L58.3522 30.1196L58.2617 30.172C55.6141 31.772 52.9093 32.553 49.995 32.5577C47.0855 32.5577 44.3855 31.7768 41.7379 30.172L41.6474 30.1196L41.5569 30.172C38.5427 31.8768 35.8855 32.2101 32.3236 32.2101C31.4903 32.2101 30.6093 32.1292 29.7046 31.9672L29.3284 31.9006L29.5236 32.2292C33.1808 38.4863 31.876 44.5434 30.1427 48.5196L30.1379 48.5244ZM50.1046 32.9101C53.0141 32.8911 55.7188 32.1101 58.3617 30.5292C61.4093 32.2292 64.0903 32.5625 67.6808 32.5625C68.4427 32.5625 69.2188 32.4958 69.9998 32.3672C66.5665 38.5149 67.7522 44.4339 69.4379 48.4149H50.1093V32.9101H50.1046ZM30.0141 32.3768C30.8093 32.5006 31.5903 32.5625 32.3284 32.5625C35.9188 32.5625 38.5998 32.2292 41.6474 30.5292C44.2474 32.0863 46.9046 32.8625 49.7522 32.9101V48.4196H30.5712C32.2569 44.4339 33.4427 38.5196 30.0141 32.3768Z" fill="#231F20"></path><path d="M44.957 50.8957V49.729H41.0046V55.2052H42.1951V52.9481H43.8094V51.7861H42.1951V50.8957H44.957Z" fill="#231F20"></path><path d="M49.5903 50.824C50.0236 50.824 50.3236 51.005 50.5189 51.3764L50.5427 51.424L51.6427 50.9145L51.6189 50.8621C51.2332 50.0621 50.5379 49.6431 49.6046 49.6431C48.1665 49.6431 47.1665 50.805 47.1665 52.4669C47.1665 54.1812 48.1094 55.2907 49.5665 55.2907C50.5189 55.2907 51.2046 54.8716 51.6046 54.0478L51.6284 54.0002L50.6284 53.4097L50.5998 53.4574C50.3141 53.9335 50.0427 54.1097 49.5998 54.1097C48.876 54.1097 48.3856 53.4478 48.3856 52.4669C48.3856 51.4526 48.8475 50.824 49.5903 50.824Z" fill="#231F20"></path><path d="M58.7713 51.2003C58.7713 50.2765 58.1142 49.7241 57.0142 49.7241H54.4951V55.2003H56.9904C58.2189 55.2003 58.957 54.5289 58.957 53.4098C58.957 52.8908 58.7046 52.4622 58.2665 52.2289C58.5904 51.9956 58.7761 51.6241 58.7761 51.1956L58.7713 51.2003ZM55.6618 50.8289H56.9665C57.4999 50.8289 57.5665 51.0717 57.5665 51.286C57.5665 51.586 57.3856 51.7336 57.0189 51.7336H55.6618V50.8336V50.8289ZM57.0285 54.067H55.6618V52.7956H57.0285C57.5094 52.7956 57.738 52.9955 57.738 53.4289C57.738 53.8622 57.4951 54.067 57.0285 54.067Z" fill="#231F20"></path><path d="M49.9762 71.2434C53.2381 71.2434 55.8905 68.591 55.8905 65.3243C55.8905 62.0624 53.2381 59.4053 49.9762 59.4053C46.7143 59.4053 44.0571 62.0624 44.0571 65.3243C44.0571 68.5862 46.7095 71.2434 49.9762 71.2434ZM49.9762 70.8862C48.8286 70.8862 47.7619 70.5386 46.8714 69.9386C48.0476 69.8862 49.6047 69.5862 50.5762 69.01C51.5143 68.4529 52.5095 67.7529 52.6952 66.8196C53.3762 66.4767 54.6809 66.6386 54.8476 68.01C53.9 69.7243 52.0762 70.8862 49.9762 70.8862ZM47.2333 66.6005C47.5048 66.7815 47.8333 66.9005 48.2238 66.9529C48.9952 67.0529 50.0714 66.2862 50.1381 65.4148C51.2 64.6624 52.019 65.3434 52.2667 65.9338C52.7524 67.1005 51.7286 67.9386 50.4047 68.7291C49.3809 69.3386 47.6 69.6291 46.4381 69.6196C45.8238 69.1148 45.319 68.4767 44.9714 67.7577C45.0143 67.7577 45.0619 67.7577 45.1048 67.7577C46.019 67.7577 46.7952 67.3386 47.2286 66.5958L47.2333 66.6005ZM46.3476 63.791C46.3333 62.7005 46.6428 61.7481 46.8857 60.7053C47.6428 60.1958 48.5333 59.8719 49.4905 59.791C48.8476 60.491 48.9809 61.5148 49.6428 62.0434C49.4857 62.1577 49.3476 62.3053 49.2286 62.5005C48.7381 63.2767 48.6667 64.5815 49.8047 65.4148C49.7333 66.0672 48.8667 66.7053 48.2667 66.6291C46.9762 66.4624 46.3667 65.2672 46.3476 63.7958V63.791ZM52.719 66.4481C52.7095 66.2434 52.6619 66.0291 52.5667 65.8005C52.2714 65.0957 51.2524 64.2338 49.9714 65.1196C49.0286 64.41 49.0857 63.3291 49.5047 62.6672C50.1524 61.6434 51.619 62.0529 52.9619 62.8005C54.0524 63.41 55.1905 64.6815 55.5095 65.8338C55.4571 66.4338 55.3048 67.0005 55.0762 67.5291C54.7 66.3529 53.4714 66.1815 52.719 66.4481ZM53.1238 62.5148C52.1524 61.9719 50.8762 61.4767 49.9571 61.8577C49.2619 61.4243 49.1428 60.3386 50.019 59.7624C52.9571 59.7862 55.3476 62.0862 55.5238 64.9862C55 63.9815 54.0428 63.0243 53.1238 62.5148ZM46.4667 61.0053C46.3619 61.4148 46.2619 61.7719 46.1809 62.1338C45.8952 63.4434 45.9 65.4196 46.9619 66.391C46.5952 67.0434 45.9238 67.4243 45.1 67.4243C45 67.4243 44.9047 67.4196 44.8095 67.4053C44.5476 66.7624 44.4047 66.0577 44.4047 65.3196C44.4047 63.5767 45.2047 62.0243 46.4571 61.0053H46.4667Z" fill="#231F20"></path><path d="M30.7049 11.3433L31.1096 12.0766L28.8953 13.3004L29.2429 13.9337L31.2096 12.848L31.6096 13.5766L29.6429 14.6623L30.1287 15.5385L29.2668 16.0147L27.6287 13.048L30.7049 11.348V11.3433Z" fill="#FDC52C"></path><path d="M36.3001 12.6237L35.762 12.1523L33.8286 12.938L33.7715 13.6523L32.7905 14.0523L33.1334 10.2571L34.3905 9.74756L37.281 12.2285L36.3048 12.6237H36.3001ZM33.8953 12.1142L35.1334 11.6095L34.0143 10.6333L33.8953 12.1142Z" fill="#FDC52C"></path><path d="M41.3476 10.1764L40.7619 7.81927L41.7095 7.58594L42.5238 10.8764L41.1286 11.224L38.6048 9.34784L39.1905 11.705L38.2381 11.9431L37.4238 8.6526L38.8238 8.30499L41.3476 10.1812V10.1764Z" fill="#FDC52C"></path><path d="M46.1191 6.96208L50.2001 6.79541L50.2334 7.62874L48.6858 7.69065L48.7906 10.243L47.8096 10.2811L47.7049 7.72874L46.1525 7.79065L46.1191 6.95731V6.96208Z" fill="#FDC52C"></path><path d="M51.3905 8.49526C51.4857 7.37622 52.3143 6.78098 53.7381 6.90479C55.1572 7.0286 55.8762 7.75717 55.781 8.87145C55.6857 9.9905 54.8524 10.5953 53.4334 10.4715C52.0096 10.3476 51.2953 9.61907 51.3905 8.49526ZM54.7572 8.78574C54.8096 8.20003 54.5048 7.80955 53.6667 7.73812C52.8334 7.66669 52.4667 7.9905 52.4191 8.58574C52.3667 9.18098 52.6762 9.57145 53.5048 9.64288C54.3381 9.71431 54.7096 9.38098 54.7619 8.7905L54.7572 8.78574Z" fill="#FDC52C"></path><path d="M61.6192 8.36192L59.6288 9.37621L60.8764 11.6714L59.6716 11.4L58.8049 9.80002L57.8573 10.281L57.7049 10.9524L56.7478 10.7334L57.4954 7.42383L58.4573 7.63811L58.124 9.12383L60.1907 8.03335L61.6288 8.35716L61.6192 8.36192Z" fill="#FDC52C"></path><path d="M66.3286 9.99065L66.0667 10.7145L63.6858 9.85255L63.5 10.3621L65.7905 11.1906L65.5286 11.9145L63.2381 11.0859L63.0524 11.5954L65.4334 12.4573L65.1715 13.1811L61.8667 11.9859L63.0191 8.79541L66.3238 9.99065H66.3286Z" fill="#FDC52C"></path><path d="M69.7621 14.3526L70.8764 12.1907L71.7478 12.6383L70.1907 15.6526L68.9097 14.9907L68.2478 11.9097L67.1335 14.0716L66.2573 13.6193L67.8145 10.605L69.1002 11.2669L69.7621 14.3478V14.3526Z" fill="#FDC52C"></path><path d="M27.3953 85.4763C27.2476 85.7192 27.3953 86.0239 28.1572 86.4858C28.8572 86.9049 29.0953 86.9001 29.2048 86.7192C29.3334 86.5097 29.2238 86.3906 28.3953 85.8144C27.2667 85.024 26.8905 84.4763 27.2762 83.8335C27.6429 83.2287 28.4619 83.3478 29.4667 83.9525C30.5857 84.6239 31.0238 85.3525 30.6619 86.0144L29.781 85.4859C29.9334 85.2287 29.7143 84.962 29.0619 84.5716C28.4429 84.2001 28.2429 84.2192 28.1476 84.3763C28.0381 84.5573 28.1476 84.6954 28.8953 85.2335C29.9143 85.9573 30.5619 86.4478 30.1048 87.2097C29.6572 87.9525 28.8381 87.7573 27.8048 87.1335C26.6286 86.4239 26.0905 85.7382 26.5096 84.9478L27.3905 85.4811L27.3953 85.4763Z" fill="#FDC52C"></path><path d="M31.5238 87.1909C31.9714 86.1576 32.9428 85.8623 34.2571 86.429C35.5667 86.9957 36.0143 87.9147 35.5714 88.9433C35.1238 89.9766 34.1428 90.2814 32.8333 89.7147C31.519 89.148 31.0762 88.229 31.5238 87.1909ZM34.6286 88.5385C34.8619 87.9957 34.6952 87.5338 33.9238 87.1957C33.1571 86.8623 32.7047 87.0576 32.4714 87.6004C32.2333 88.1481 32.4047 88.6147 33.1667 88.948C33.9333 89.2814 34.3952 89.0814 34.6286 88.5338V88.5385Z" fill="#FDC52C"></path><path d="M39.3047 88.2194C40.5047 88.5575 41.0428 89.2623 40.9047 90.129L39.9 89.848C39.919 89.529 39.6857 89.1909 39.0809 89.0242C38.3809 88.829 37.9476 89.0766 37.7857 89.648C37.6238 90.2242 37.8714 90.6671 38.5666 90.8623C39.1714 91.029 39.5476 90.8623 39.6952 90.5718L40.7 90.8528C40.3666 91.6718 39.5428 92.0004 38.3381 91.6671C37.0285 91.3004 36.4809 90.4909 36.7905 89.3718C37.1047 88.2575 37.9905 87.8528 39.3 88.2194H39.3047Z" fill="#FDC52C"></path><path d="M43.3953 89.2289L42.7953 92.5623L41.8286 92.3861L42.4286 89.0527L43.3953 89.2289Z" fill="#FDC52C"></path><path d="M44.4191 91.1481C44.5096 90.029 45.3334 89.4338 46.7572 89.5481C48.1763 89.6624 48.9001 90.3909 48.8049 91.5052C48.7144 92.6243 47.8858 93.229 46.462 93.1147C45.0382 93.0005 44.3191 92.2719 44.4144 91.1481H44.4191ZM47.7858 91.4243C47.8334 90.8386 47.5287 90.4528 46.6906 90.3814C45.8572 90.3148 45.4953 90.6433 45.443 91.2338C45.3953 91.829 45.7049 92.2148 46.5334 92.2862C47.3668 92.3528 47.7382 92.0195 47.7858 91.4243Z" fill="#FDC52C"></path><path d="M51.119 92.048C51.1333 92.3337 51.4238 92.5051 52.3143 92.4575C53.1286 92.4146 53.3238 92.2766 53.3095 92.0623C53.2952 91.8146 53.1428 91.7813 52.1333 91.767C50.7571 91.7432 50.1333 91.5004 50.0952 90.748C50.0571 90.0432 50.8047 89.6813 51.9762 89.6242C53.2809 89.5575 54.0524 89.9099 54.119 90.6623L53.0952 90.7146C53.0809 90.4146 52.7476 90.3194 51.9857 90.3575C51.2666 90.3956 51.1095 90.5242 51.119 90.7051C51.1285 90.9146 51.2952 90.9718 52.219 91.0004C53.4666 91.0289 54.2809 91.0718 54.3285 91.9623C54.3714 92.8289 53.5857 93.1242 52.3809 93.1861C51.0095 93.2575 50.1762 92.9861 50.0857 92.0956L51.1143 92.0432L51.119 92.048Z" fill="#FDC52C"></path><path d="M55.7428 92.0385L56.6809 91.9004L56.7857 92.629L55.8476 92.7671L55.738 92.0385H55.7428Z" fill="#FDC52C"></path><path d="M59.4811 88.5338C60.6953 88.2386 61.5096 88.5909 61.8144 89.4148L60.8001 89.6624C60.662 89.3719 60.2906 89.1957 59.6811 89.3433C58.9763 89.5148 58.7192 89.9433 58.8572 90.5243C59.0001 91.1052 59.4334 91.3719 60.1334 91.2005C60.743 91.0528 60.9906 90.7195 60.9763 90.3909L61.9906 90.1433C62.1001 91.0195 61.543 91.7148 60.3287 92.01C59.0049 92.3338 58.1287 91.8957 57.8525 90.7671C57.5763 89.6433 58.1525 88.8576 59.4763 88.5338H59.4811Z" fill="#FDC52C"></path><path d="M63.1523 89.3907C62.738 88.3431 63.2142 87.4431 64.5475 86.9193C65.8714 86.3955 66.8428 86.7288 67.2523 87.7717C67.6666 88.8193 67.1856 89.7288 65.8618 90.2526C64.5333 90.7764 63.5666 90.4431 63.1523 89.3907ZM66.2999 88.1478C66.0856 87.6002 65.638 87.3859 64.8571 87.6955C64.0809 88.0002 63.8952 88.4574 64.1142 89.0097C64.3333 89.5669 64.7856 89.7764 65.5571 89.4717C66.3333 89.1669 66.519 88.7002 66.2999 88.1478Z" fill="#FDC52C"></path><path d="M69.3334 88.6956L67.6287 85.7623L68.9525 84.9908L71.1049 86.3432L70.9906 83.8051L72.3144 83.0337L74.0191 85.967L73.1715 86.4575L71.9382 84.3337L72.0715 87.1004L71.2858 87.5575L68.9477 86.0765L70.1858 88.2004L69.3334 88.6956Z" fill="#FDC52C"></path><path d="M23.019 81.8382C13.9952 74.1811 8.2666 62.7573 8.2666 50.0001C8.2666 37.243 14.2999 25.2144 23.738 17.562" stroke="#FDC52C" stroke-miterlimit="10"></path><path d="M76.2666 17.5669C85.7047 25.2193 91.7333 36.905 91.7333 50.0002C91.7333 63.0955 86.0047 74.1859 76.9809 81.8431" stroke="#FDC52C" stroke-miterlimit="10"></path></g><defs><clipPath id="clip0_101_22119"><rect width="100" height="100" fill="white"></rect></clipPath></defs></svg>