<svg xmlns="http://www.w3.org/2000/svg" width="100" height="100" viewBox="0 0 100 100" fill="none"><g clip-path="url(#clip0_101_22100)"><path d="M50 100C77.6142 100 100 77.6142 100 50C100 22.3858 77.6142 0 50 0C22.3858 0 0 22.3858 0 50C0 77.6142 22.3858 100 50 100Z" fill="#00263A"></path><path d="M50 2.53333C76.1714 2.53333 97.4667 23.8286 97.4667 50C97.4667 76.1714 76.1714 97.4667 50 97.4667C23.8286 97.4667 2.53333 76.1714 2.53333 50C2.53333 23.8286 23.8286 2.53333 50 2.53333ZM50 0C22.3857 0 0 22.3857 0 50C0 77.6143 22.3857 100 50 100C77.6143 100 100 77.6143 100 50C100 22.3857 77.6143 0 50 0Z" fill="#A32035"></path><path d="M31.2852 50C31.2852 33.7238 39.6804 20.481 49.9994 20.481C60.3185 20.481 68.7137 33.7238 68.7137 50C68.7137 66.2762 60.3185 79.5191 49.9994 79.5191C39.6804 79.5191 31.2852 66.2762 31.2852 50Z" fill="white"></path><path d="M69.0994 52.2143H62.4042V35.3191H56.9423V52.2143H49.9994V20.481C39.6804 20.481 31.2852 33.7238 31.2852 50C31.2852 66.2762 39.6804 79.5191 49.9994 79.5191V57.6714H56.9423V78.481L62.4042 73.3286V57.6667H69.0994V52.2048V52.2143Z" fill="#A32035"></path><path d="M35.6474 28.2286C31.9046 34.0571 29.8379 41.7857 29.8379 50.0048C29.8379 58.2238 31.8998 65.9524 35.6474 71.7762C39.4569 77.7 44.5522 80.9667 49.9998 80.9667C55.4474 80.9667 60.5427 77.7048 64.3522 71.7762C68.0998 65.9476 70.1617 58.219 70.1617 50.0048C70.1617 41.7905 68.0998 34.0571 64.3522 28.2286C60.5427 22.3048 55.4474 19.0381 49.9998 19.0381C44.5522 19.0381 39.4569 22.3 35.6474 28.2286ZM31.2807 50.0048C31.2807 33.7286 39.676 20.4857 49.995 20.4857C60.3141 20.4857 68.7093 33.7286 68.7093 50.0048C68.7093 66.2809 60.3141 79.5238 49.995 79.5238C39.676 79.5238 31.2807 66.2809 31.2807 50.0048Z" fill="#D2D3D4"></path><path d="M61.8857 72.781C62.3143 72.2239 62.7286 71.6381 63.1238 71.0239V58.5477H67.9143C67.9905 58.1381 68.0667 57.7286 68.1334 57.3096H61.8857V72.781Z" fill="#00263A"></path><path d="M63.124 51.4381V35.5381C63.9097 34.7048 64.6145 33.8 65.2193 32.8333C61.8193 25.3571 56.2669 20.481 50.0002 20.481C43.7335 20.481 38.0478 25.481 34.6621 33.1095C34.8669 33.4238 35.0812 33.7333 35.3097 34.0333V68.2667C36.7097 71.0572 38.4193 73.4429 40.3573 75.2905V38.5619C41.9573 39.5191 43.724 40.2381 45.6097 40.6762V78.6952C47.0193 79.2333 48.4907 79.5191 50.0002 79.5191C50.2193 79.5191 50.4383 79.5095 50.6573 79.5V58.5476H56.0145V77.9524C56.4335 77.7286 56.8431 77.481 57.2526 77.2095V57.3095H50.6573V52.6762H57.2526V39.6381C58.9621 38.9 60.5193 37.9095 61.8859 36.7238V52.6762H68.6383C68.6621 52.2667 68.6812 51.8524 68.6954 51.4381H63.124ZM56.0145 51.4381H50.6573V41.1381C52.5335 41.0571 54.3335 40.7048 56.0145 40.1191V51.4381Z" fill="#00263A"></path><path d="M48.7998 33.5665H51.5855C51.5855 33.5665 51.1903 33.0617 51.1903 32.3569V28.6712H52.3427C52.876 28.6712 53.1046 29.095 53.1046 29.095V26.7046C53.1046 26.7046 52.5712 26.9855 52.2903 26.9855H51.1665V23.976C51.1665 23.7236 51.2236 23.4712 51.6998 23.6379C52.1808 23.8046 53.7236 24.1427 54.3427 24.8188V22.8236C54.3427 22.8236 51.9808 21.8379 50.9093 21.8379C49.8379 21.8379 48.8569 21.9807 48.8569 21.9807C48.8569 21.9807 49.2522 22.5141 49.2522 23.076V32.5284C49.2522 32.895 48.7998 33.5712 48.7998 33.5712" fill="white"></path><path d="M59.1522 26.0286L58.395 27.4333C58.395 27.4333 57.9998 26.9 57.3522 26.9C56.7046 26.9 55.7188 27.3762 55.7188 29.4619C55.7188 31.5476 56.9569 31.6571 57.3236 31.6571C57.6903 31.6571 58.2236 31.4619 58.5903 31.1524L59.1522 32.6714C59.1522 32.6714 58.5617 33.4571 57.1284 33.4571C55.695 33.4571 53.8379 32.5286 53.8379 29.4333C53.8379 26.3381 55.8617 25.0762 57.2141 25.0762C58.5665 25.0762 59.1569 26.0333 59.1569 26.0333" fill="white"></path><path d="M43.7382 35.1427C43.7382 35.1427 44.3286 35.1713 44.5239 34.6665L45.3667 34.7236V38.2379L44.381 37.8427V35.5665C44.381 35.5665 44.2667 35.7094 43.7334 35.6808V35.1475L43.7382 35.1427Z" fill="white"></path><path d="M47.4519 34.6094C46.6376 34.6094 46.0186 35.257 46.0186 36.0141C46.0186 36.9141 46.5519 37.3379 47.0043 37.3379C47.4566 37.3379 47.8757 37.1951 47.8757 37.1951C47.9043 37.6475 47.6519 37.8998 47.2281 37.8998C46.8043 37.8998 46.2138 37.5903 46.2138 37.5903V38.2379C46.2138 38.2379 46.69 38.6332 47.3662 38.6332C48.0424 38.6332 48.9424 38.0999 48.9424 36.6903C48.9424 35.2808 48.2662 34.6094 47.4519 34.6094ZM47.3947 36.6046C47.0852 36.6046 46.89 36.3522 46.89 35.957C46.89 35.5618 47.1424 35.3379 47.4233 35.3379C47.8757 35.3379 47.9566 35.7903 47.9566 36.0427C47.9566 36.2951 47.7043 36.6046 47.3947 36.6046Z" fill="white"></path><path d="M51.1382 34.5522C50.3001 34.5522 49.6191 35.5046 49.6191 36.6761C49.6191 37.8475 50.3001 38.7999 51.1382 38.7999C51.9763 38.7999 52.6572 37.8475 52.6572 36.6761C52.6572 35.5046 51.9763 34.5522 51.1382 34.5522ZM51.1239 37.8713C50.743 37.8713 50.4334 37.3237 50.4334 36.6475C50.4334 35.9713 50.743 35.4237 51.1239 35.4237C51.5049 35.4237 51.8144 35.9713 51.8144 36.6475C51.8144 37.3237 51.5049 37.8713 51.1239 37.8713Z" fill="white"></path><path d="M54.6521 34.5811C54.5378 34.5811 53.2188 34.5525 53.2188 35.8763C53.2188 37.2001 54.7378 37.1144 54.7378 37.1144C54.514 37.8763 53.4426 37.5954 53.4426 37.5954V38.1573C54.6235 38.6049 56.0045 37.7335 56.0045 36.243C56.0045 34.7525 54.7664 34.5859 54.6521 34.5859M54.6092 36.443C54.3378 36.443 54.1187 36.1954 54.1187 35.8954C54.1187 35.5954 54.3378 35.3478 54.6092 35.3478C54.8807 35.3478 55.0997 35.5954 55.0997 35.8954C55.0997 36.1954 54.8807 36.443 54.6092 36.443Z" fill="white"></path><path d="M46.5811 27.7428C46.5811 27.7428 47.6478 26.4762 47.424 24.8762C47.2002 23.2714 45.3716 22.7666 44.2478 23.2714C43.124 23.7762 40.843 25.9714 40.843 25.9714C41.1525 25.9428 41.3478 26.2809 41.3478 26.7285V32.2428C41.3478 33.2571 40.8145 33.5952 40.8145 33.5952C40.8145 33.5952 44.9192 33.6238 45.4859 33.6238C46.0525 33.6238 48.4954 32.8095 48.4954 30.4476C48.4954 28.0857 46.5811 27.7476 46.5811 27.7476M43.124 26.1428C43.124 26.1428 44.924 24.1476 45.4859 25.6095C46.0478 27.0714 43.2097 28.2238 43.124 28.2238V26.1428ZM43.1811 31.8809V30.2238C43.9954 29.4381 46.1906 28.5095 46.5859 30.3666C46.9811 32.2238 43.1811 31.8857 43.1811 31.8857" fill="white"></path><path d="M30.709 11.3384L31.1138 12.0717L28.8995 13.2955L29.2471 13.9289L31.2138 12.8431L31.6138 13.5717L29.6471 14.6574L30.1328 15.5336L29.2709 16.0098L27.6328 13.0431L30.709 11.3431V11.3384Z" fill="#D2D3D4"></path><path d="M36.2996 12.6237L35.7615 12.1523L33.8281 12.938L33.771 13.6523L32.79 14.0523L33.1329 10.2571L34.39 9.74756L37.2805 12.2285L36.3043 12.6237H36.2996ZM33.8948 12.1142L35.1329 11.6095L34.0138 10.6333L33.8948 12.1142Z" fill="#D2D3D4"></path><path d="M41.3467 10.1764L40.7609 7.81927L41.7086 7.58594L42.5229 10.8764L41.1276 11.224L38.6038 9.34784L39.1895 11.705L38.2371 11.9431L37.4229 8.6526L38.8229 8.30499L41.3467 10.1812V10.1764Z" fill="#D2D3D4"></path><path d="M46.1182 6.96208L50.1991 6.79541L50.2324 7.62874L48.6848 7.69065L48.7896 10.243L47.8086 10.2811L47.7039 7.72874L46.1515 7.79065L46.1182 6.95731V6.96208Z" fill="#D2D3D4"></path><path d="M51.3903 8.49526C51.4855 7.37622 52.3141 6.78098 53.7379 6.90479C55.1569 7.0286 55.876 7.75717 55.7807 8.87145C55.6855 9.9905 54.8522 10.5953 53.4331 10.4715C52.0093 10.3476 51.295 9.61907 51.3903 8.49526ZM54.7569 8.78574C54.8093 8.20003 54.5045 7.80955 53.6664 7.73812C52.8331 7.66669 52.4665 7.9905 52.4188 8.58574C52.3665 9.18098 52.676 9.57145 53.5045 9.64288C54.3379 9.71431 54.7093 9.38098 54.7617 8.7905L54.7569 8.78574Z" fill="#D2D3D4"></path><path d="M61.6234 8.36681L59.6329 9.38109L60.8805 11.6763L59.6758 11.4049L58.8091 9.8049L57.8615 10.2859L57.7091 10.9573L56.752 10.7382L57.4996 7.42871L58.4615 7.643L58.1281 9.12871L60.1948 8.03823L61.6329 8.36204L61.6234 8.36681Z" fill="#D2D3D4"></path><path d="M66.3281 9.99541L66.0662 10.7192L63.6853 9.85732L63.4995 10.3668L65.79 11.1954L65.5281 11.9192L63.2376 11.0906L63.0519 11.6002L65.4329 12.4573L65.171 13.1811L61.8662 11.9859L63.0186 8.79541L66.3234 9.99065L66.3281 9.99541Z" fill="#D2D3D4"></path><path d="M69.7616 14.3526L70.8759 12.1907L71.7473 12.6383L70.1902 15.6526L68.9092 14.9907L68.2473 11.9097L67.133 14.0716L66.2568 13.6193L67.814 10.605L69.0997 11.2669L69.7616 14.3478V14.3526Z" fill="#D2D3D4"></path><path d="M27.395 85.4763C27.2474 85.7192 27.395 86.0239 28.1569 86.4858C28.8569 86.9049 29.095 86.9001 29.2045 86.7192C29.3331 86.5097 29.2236 86.3906 28.395 85.8144C27.2665 85.024 26.8903 84.4763 27.276 83.8335C27.6426 83.2287 28.4617 83.3478 29.4665 83.9525C30.5855 84.6239 31.0236 85.3525 30.6617 86.0144L29.7807 85.4859C29.9331 85.2287 29.7141 84.962 29.0617 84.5716C28.4426 84.2001 28.2426 84.2192 28.1474 84.3763C28.0379 84.5573 28.1474 84.6954 28.895 85.2335C29.9141 85.9573 30.5617 86.4478 30.1045 87.2097C29.6569 87.9525 28.8379 87.7573 27.8045 87.1335C26.6284 86.4239 26.0903 85.7382 26.5093 84.9478L27.3903 85.4811L27.395 85.4763Z" fill="#D2D3D4"></path><path d="M31.5236 87.1909C31.9712 86.1576 32.9426 85.8623 34.2569 86.429C35.5664 86.9957 36.014 87.9147 35.5712 88.9433C35.1236 89.9766 34.1426 90.2814 32.8331 89.7147C31.5188 89.148 31.0759 88.229 31.5236 87.1909ZM34.6283 88.5385C34.8616 87.9957 34.695 87.5338 33.9236 87.1957C33.1569 86.8623 32.7045 87.0576 32.4712 87.6004C32.2331 88.1481 32.4045 88.6147 33.1664 88.948C33.9331 89.2814 34.395 89.0814 34.6283 88.5338V88.5385Z" fill="#D2D3D4"></path><path d="M39.295 88.2146C40.495 88.5527 41.0331 89.2574 40.895 90.1241L39.8902 89.8431C39.9093 89.5241 39.6759 89.186 39.0712 89.0193C38.3712 88.8241 37.9378 89.0717 37.7759 89.6431C37.614 90.2193 37.8616 90.6622 38.5569 90.8574C39.1616 91.0241 39.5378 90.8574 39.6854 90.5669L40.6902 90.8479C40.3569 91.6669 39.5331 91.9955 38.3283 91.6622C37.0188 91.2955 36.4712 90.486 36.7807 89.3669C37.095 88.2527 37.9807 87.8479 39.2902 88.2146H39.295Z" fill="#D2D3D4"></path><path d="M43.3948 89.2289L42.7948 92.5623L41.8281 92.3861L42.4281 89.0527L43.3948 89.2289Z" fill="#D2D3D4"></path><path d="M44.4184 91.1481C44.5089 90.029 45.3327 89.4338 46.7565 89.5481C48.1756 89.6624 48.8994 90.3909 48.8041 91.5052C48.7137 92.6243 47.8851 93.229 46.4613 93.1147C45.0375 93.0005 44.3184 92.2719 44.4136 91.1481H44.4184ZM47.7851 91.4243C47.8327 90.8386 47.5279 90.4528 46.6898 90.3814C45.8565 90.3148 45.4946 90.6433 45.4422 91.2338C45.3946 91.829 45.7041 92.2148 46.5327 92.2862C47.366 92.3528 47.7375 92.0195 47.7851 91.4243Z" fill="#D2D3D4"></path><path d="M51.1193 92.048C51.1336 92.3337 51.424 92.5051 52.3145 92.4575C53.1288 92.4146 53.324 92.2766 53.3097 92.0623C53.2955 91.8146 53.1431 91.7813 52.1336 91.767C50.7574 91.7432 50.1336 91.5004 50.0955 90.748C50.0574 90.0432 50.805 89.6813 51.9764 89.6242C53.2812 89.5575 54.0526 89.9099 54.1193 90.6623L53.0955 90.7146C53.0812 90.4146 52.7478 90.3194 51.9859 90.3575C51.2669 90.3956 51.1097 90.5242 51.1193 90.7051C51.1288 90.9146 51.2955 90.9718 52.2193 91.0004C53.4669 91.0289 54.2812 91.0718 54.3288 91.9623C54.3716 92.8289 53.5859 93.1242 52.3812 93.1861C51.0097 93.2575 50.1764 92.9861 50.0859 92.0956L51.1145 92.0432L51.1193 92.048Z" fill="#D2D3D4"></path><path d="M55.743 92.0434L56.6811 91.9053L56.7859 92.6338L55.8478 92.7719L55.7383 92.0434H55.743Z" fill="#D2D3D4"></path><path d="M59.4803 88.5387C60.6946 88.2434 61.5089 88.5958 61.8137 89.4196L60.7994 89.6673C60.6613 89.3768 60.2898 89.2006 59.6803 89.3482C58.9756 89.5196 58.7184 89.9482 58.8565 90.5292C58.9994 91.1101 59.4327 91.3768 60.1327 91.2054C60.7422 91.0577 60.9898 90.7244 60.9756 90.3958L61.9898 90.1482C62.0994 91.0244 61.5422 91.7196 60.3279 92.0149C59.0041 92.3387 58.1279 91.9006 57.8518 90.772C57.5756 89.6482 58.1518 88.8625 59.4756 88.5387H59.4803Z" fill="#D2D3D4"></path><path d="M63.1522 89.3956C62.7379 88.348 63.2189 87.4527 64.5474 86.9242C65.8712 86.4003 66.8427 86.7337 67.2522 87.7765C67.6665 88.8242 67.1855 89.7337 65.8617 90.2575C64.5331 90.7813 63.5665 90.448 63.1522 89.3956ZM66.2998 88.1527C66.0855 87.6051 65.6379 87.3908 64.857 87.7003C64.0808 88.0051 63.8951 88.4622 64.1141 89.0146C64.3331 89.5718 64.7855 89.7813 65.557 89.4765C66.3331 89.1718 66.5189 88.7051 66.2998 88.1527Z" fill="#D2D3D4"></path><path d="M69.3327 88.6956L67.6279 85.7623L68.9517 84.9908L71.1041 86.3432L70.9898 83.8051L72.3136 83.0337L74.0184 85.967L73.1708 86.4575L71.9375 84.3337L72.0708 87.1004L71.2851 87.5575L68.947 86.0765L70.1851 88.2004L69.3327 88.6956Z" fill="#D2D3D4"></path><path d="M23.019 81.8382C13.9952 74.1811 8.2666 62.7573 8.2666 50.0001C8.2666 37.243 14.2999 25.2144 23.738 17.562" stroke="#A32035" stroke-miterlimit="10"></path><path d="M76.2666 17.5669C85.7047 25.2193 91.7333 36.905 91.7333 50.0002C91.7333 63.0955 86.0047 74.1859 76.9809 81.8431" stroke="#A32035" stroke-miterlimit="10"></path></g><defs><clipPath id="clip0_101_22100"><rect width="100" height="100" fill="white"></rect></clipPath></defs></svg>