<svg xmlns="http://www.w3.org/2000/svg" width="100" height="100" viewBox="0 0 100 100" fill="none"><g clip-path="url(#clip0_101_22081)"><path d="M50 100C77.6142 100 100 77.6142 100 50C100 22.3858 77.6142 0 50 0C22.3858 0 0 22.3858 0 50C0 77.6142 22.3858 100 50 100Z" fill="#EC1C24"></path><path d="M50 2.53333C76.1714 2.53333 97.4667 23.8286 97.4667 50C97.4667 76.1714 76.1714 97.4667 50 97.4667C23.8286 97.4667 2.53333 76.1714 2.53333 50C2.53333 23.8286 23.8286 2.53333 50 2.53333ZM50 0C22.3857 0 0 22.3857 0 50C0 77.6143 22.3857 100 50 100C77.6143 100 100 77.6143 100 50C100 22.3857 77.6143 0 50 0Z" fill="white"></path><path d="M32.8381 33.5571C32.3572 33.5571 31.9619 33.9476 31.9619 34.4333C31.9619 34.919 32.3524 35.3095 32.8381 35.3095C33.3191 35.3095 33.7143 34.919 33.7143 34.4333C33.7143 33.9524 33.3238 33.5571 32.8381 33.5571Z" fill="white"></path><path d="M51.3804 54.7381L50.4566 46.9048C50.4375 46.7238 50.4661 46.7238 50.6566 46.6238C50.828 46.5381 50.9471 46.1143 50.6804 45.8619L46.6375 42.0905C46.2328 41.6857 45.8899 41.9953 46.028 42.5286L46.1756 43.1143C46.2804 43.5191 46.3756 43.9762 46.1947 44.3667C44.328 48.4476 46.1947 44.3667 44.328 48.4476C44.1613 48.8143 44.0566 48.8143 43.5994 48.8143C43.2471 48.8143 43.1185 49.2095 43.2852 49.3667C43.2852 49.3667 44.7375 50.7095 44.9375 50.9095C45.1375 51.1095 45.409 50.7286 45.228 50.2953C45.1074 50.0127 45.1582 49.6254 45.3804 49.1334L48.3613 51.9143L48.4375 52.5476C48.4709 52.8286 48.4328 52.8953 47.9709 52.8953C47.6185 52.8953 47.4947 53.2905 47.6566 53.4476C47.6566 53.4476 51.4756 57 51.6756 57.2L51.6566 57.1714C51.8566 57.3714 52.128 56.9905 51.9471 56.5572C51.7661 56.1334 51.4756 55.5048 51.3852 54.7381H51.3804ZM45.7899 48.2429L47.3613 44.8048C47.5137 44.9619 47.5471 45.1048 47.5994 45.4905L48.1852 50.481L45.7852 48.2429H45.7899Z" fill="white"></path><path d="M37.9566 34.4194C35.8043 34.4194 34.0566 36.0337 34.0566 39.2718C34.0566 42.5099 35.8043 44.1242 37.9566 44.1242C39.69 44.1242 40.9233 43.3861 41.6662 40.9909C41.7328 40.6242 41.6662 40.1813 40.7662 40.3194C39.9852 40.4385 39.9662 40.6909 39.99 41.0528C40.0757 42.2242 39.7995 42.7909 38.9614 42.7909C37.9281 42.7909 37.4471 41.7337 37.5614 37.7718C37.5805 37.029 37.9662 36.3623 38.7043 36.3623C39.4424 36.3623 39.7757 37.2766 39.9281 38.2099C39.99 38.5671 40.1328 38.8242 40.9138 38.9432C41.6947 39.0623 41.8233 38.7575 41.8138 38.4337C41.3614 35.6385 39.9138 34.4242 37.9519 34.4242L37.9566 34.4194Z" fill="white"></path><path d="M43.8325 43.8571C43.8325 43.3762 43.442 42.981 42.9563 42.981C42.4706 42.981 42.0801 43.3714 42.0801 43.8571C42.0801 44.3381 42.4706 44.7333 42.9563 44.7333C43.4372 44.7333 43.8325 44.3429 43.8325 43.8571Z" fill="white"></path><path d="M62.4856 61.21C62.0046 61.21 61.6094 61.6004 61.6094 62.0862C61.6094 62.5671 61.9998 62.9623 62.4856 62.9623C62.9713 62.9623 63.3618 62.5719 63.3618 62.0862C63.3618 61.6052 62.9713 61.21 62.4856 61.21Z" fill="white"></path><path d="M60.1092 55.4574C60.3187 55.3955 60.4568 55.0098 60.1378 54.686L56.7044 51.4765C56.2997 51.0717 55.9235 51.586 56.1711 52.0813C56.414 52.5717 56.7187 53.2146 56.7187 53.8051V60.2146C56.7187 60.5336 56.4473 60.5908 56.2378 60.6527C56.0282 60.7146 55.8901 61.1003 56.2092 61.4241L59.6425 64.6336C60.0473 65.0384 60.4235 64.5241 60.1759 64.0289C59.933 63.5384 59.6282 62.8955 59.6282 62.3051V55.8955C59.6282 55.5765 59.8997 55.5193 60.1092 55.4574Z" fill="white"></path><path d="M53.9182 53.2144C53.4372 53.2144 53.042 53.6048 53.042 54.0905C53.042 54.5715 53.4325 54.9667 53.9182 54.9667C54.3991 54.9667 54.7944 54.5763 54.7944 54.0905C54.7944 53.6096 54.4039 53.2144 53.9182 53.2144Z" fill="white"></path><path d="M74.6282 33.2526L74.5425 31.6764H72.9615C70.552 31.6764 68.3615 30.4526 67.1044 28.405L65.9996 26.605L64.5044 28.1002C62.7234 29.8812 60.3568 30.8621 57.8425 30.8621C55.3234 30.8621 52.9568 29.8812 51.1758 28.1002L49.9948 26.9193L48.8187 28.1002C47.0377 29.8812 44.671 30.8621 42.152 30.8621C39.6329 30.8621 37.271 29.8812 35.4901 28.1002L33.9948 26.605L32.8901 28.405C31.6329 30.4526 29.4472 31.6764 27.0329 31.6764H25.452L25.3663 33.2526C24.7234 45.1716 27.4568 55.5145 33.4996 63.9955C38.5377 71.0716 44.8282 75.324 49.2139 77.6478L49.9948 78.0621L50.7758 77.6478C55.1615 75.324 61.452 71.0716 66.4901 64.0002C72.5329 55.5193 75.271 45.1764 74.6234 33.2574L74.6282 33.2526ZM49.9996 76.1097C45.7758 73.8717 39.7425 69.7812 34.9091 62.9955C30.5472 56.8716 27.9758 49.7193 27.2329 41.6574L58.1568 70.5574C55.2234 73.0669 52.3377 74.8717 50.0044 76.1097H49.9996ZM65.0901 62.9955C63.3187 65.4812 61.3853 67.605 59.4425 69.405L27.0615 39.1383C26.9758 37.2716 26.9853 35.3574 27.0901 33.3955C30.0615 33.3764 32.7568 31.8764 34.3234 29.3621C36.3044 31.3193 38.8901 32.4431 41.6568 32.5669L68.3853 57.5097C67.4329 59.4193 66.3377 61.2478 65.0901 62.9955ZM69.152 55.8716L44.0187 32.4193C46.271 32.0431 48.3472 30.9859 49.9996 29.3478C52.0996 31.4288 54.8853 32.5764 57.8425 32.5764C60.7948 32.5764 63.5758 31.4336 65.6758 29.3621C67.2425 31.8764 69.9425 33.3812 72.9091 33.3955C73.352 41.7336 72.0901 49.2574 69.152 55.8716Z" fill="white"></path><path d="M30.7041 11.3433L31.1089 12.0766L28.8946 13.3004L29.2422 13.9337L31.2089 12.848L31.6089 13.5766L29.6422 14.6623L30.1279 15.5385L29.266 16.0147L27.6279 13.048L30.7041 11.348V11.3433Z" fill="white"></path><path d="M36.2996 12.6237L35.7615 12.1523L33.8281 12.938L33.771 13.6523L32.79 14.0523L33.1329 10.2571L34.39 9.74756L37.2805 12.2285L36.3043 12.6237H36.2996ZM33.8948 12.1142L35.1329 11.6095L34.0138 10.6333L33.8948 12.1142Z" fill="white"></path><path d="M41.3467 10.1764L40.7609 7.81927L41.7086 7.58594L42.5229 10.8764L41.1276 11.224L38.6038 9.34784L39.1895 11.705L38.2371 11.9431L37.4229 8.6526L38.8229 8.30499L41.3467 10.1812V10.1764Z" fill="white"></path><path d="M46.1182 6.96208L50.1991 6.79541L50.2324 7.62874L48.6848 7.69065L48.7896 10.243L47.8086 10.2811L47.7039 7.72874L46.1515 7.79065L46.1182 6.95731V6.96208Z" fill="white"></path><path d="M51.3903 8.49526C51.4855 7.37622 52.3141 6.78098 53.7379 6.90479C55.1569 7.0286 55.876 7.75717 55.7807 8.87145C55.6855 9.9905 54.8522 10.5953 53.4331 10.4715C52.0093 10.3476 51.295 9.61907 51.3903 8.49526ZM54.7569 8.78574C54.8093 8.20003 54.5045 7.80955 53.6664 7.73812C52.8331 7.66669 52.4665 7.9905 52.4188 8.58574C52.3665 9.18098 52.676 9.57145 53.5045 9.64288C54.3379 9.71431 54.7093 9.38098 54.7617 8.7905L54.7569 8.78574Z" fill="white"></path><path d="M61.6185 8.36192L59.628 9.37621L60.8756 11.6714L59.6709 11.4L58.8042 9.80002L57.8566 10.281L57.7042 10.9524L56.7471 10.7334L57.4947 7.42383L58.4566 7.63811L58.1233 9.12383L60.1899 8.03335L61.628 8.35716L61.6185 8.36192Z" fill="white"></path><path d="M66.3281 9.99541L66.0662 10.7192L63.6853 9.85732L63.4995 10.3668L65.79 11.1954L65.5281 11.9192L63.2376 11.0906L63.0519 11.6002L65.4329 12.4573L65.171 13.1811L61.8662 11.9859L63.0186 8.79541L66.3234 9.99065L66.3281 9.99541Z" fill="white"></path><path d="M69.7616 14.3526L70.8759 12.1907L71.7473 12.6383L70.1902 15.6526L68.9092 14.9907L68.2473 11.9097L67.133 14.0716L66.2568 13.6193L67.814 10.605L69.0997 11.2669L69.7616 14.3478V14.3526Z" fill="white"></path><path d="M27.395 85.4763C27.2474 85.7192 27.395 86.0239 28.1569 86.4858C28.8569 86.9049 29.095 86.9001 29.2045 86.7192C29.3331 86.5097 29.2236 86.3906 28.395 85.8144C27.2665 85.024 26.8903 84.4763 27.276 83.8335C27.6426 83.2287 28.4617 83.3478 29.4665 83.9525C30.5855 84.6239 31.0236 85.3525 30.6617 86.0144L29.7807 85.4859C29.9331 85.2287 29.7141 84.962 29.0617 84.5716C28.4426 84.2001 28.2426 84.2192 28.1474 84.3763C28.0379 84.5573 28.1474 84.6954 28.895 85.2335C29.9141 85.9573 30.5617 86.4478 30.1045 87.2097C29.6569 87.9525 28.8379 87.7573 27.8045 87.1335C26.6284 86.4239 26.0903 85.7382 26.5093 84.9478L27.3903 85.4811L27.395 85.4763Z" fill="white"></path><path d="M31.5236 87.1909C31.9712 86.1576 32.9426 85.8623 34.2569 86.429C35.5664 86.9957 36.014 87.9147 35.5712 88.9433C35.1236 89.9766 34.1426 90.2814 32.8331 89.7147C31.5188 89.148 31.0759 88.229 31.5236 87.1909ZM34.6283 88.5385C34.8616 87.9957 34.695 87.5338 33.9236 87.1957C33.1569 86.8623 32.7045 87.0576 32.4712 87.6004C32.2331 88.1481 32.4045 88.6147 33.1664 88.948C33.9331 89.2814 34.395 89.0814 34.6283 88.5338V88.5385Z" fill="white"></path><path d="M39.295 88.2146C40.495 88.5527 41.0331 89.2574 40.895 90.1241L39.8902 89.8431C39.9093 89.5241 39.6759 89.186 39.0712 89.0193C38.3712 88.8241 37.9378 89.0717 37.7759 89.6431C37.614 90.2193 37.8616 90.6622 38.5569 90.8574C39.1616 91.0241 39.5378 90.8574 39.6854 90.5669L40.6902 90.8479C40.3569 91.6669 39.5331 91.9955 38.3283 91.6622C37.0188 91.2955 36.4712 90.486 36.7807 89.3669C37.095 88.2527 37.9807 87.8479 39.2902 88.2146H39.295Z" fill="white"></path><path d="M43.3948 89.2289L42.7948 92.5623L41.8281 92.3861L42.4281 89.0527L43.3948 89.2289Z" fill="white"></path><path d="M44.4184 91.1481C44.5089 90.029 45.3327 89.4338 46.7565 89.5481C48.1756 89.6624 48.8994 90.3909 48.8041 91.5052C48.7137 92.6243 47.8851 93.229 46.4613 93.1147C45.0375 93.0005 44.3184 92.2719 44.4136 91.1481H44.4184ZM47.7851 91.4243C47.8327 90.8386 47.5279 90.4528 46.6898 90.3814C45.8565 90.3148 45.4946 90.6433 45.4422 91.2338C45.3946 91.829 45.7041 92.2148 46.5327 92.2862C47.366 92.3528 47.7375 92.0195 47.7851 91.4243Z" fill="white"></path><path d="M51.1193 92.048C51.1336 92.3337 51.424 92.5051 52.3145 92.4575C53.1288 92.4146 53.324 92.2766 53.3097 92.0623C53.2955 91.8146 53.1431 91.7813 52.1336 91.767C50.7574 91.7432 50.1336 91.5004 50.0955 90.748C50.0574 90.0432 50.805 89.6813 51.9764 89.6242C53.2812 89.5575 54.0526 89.9099 54.1193 90.6623L53.0955 90.7146C53.0812 90.4146 52.7478 90.3194 51.9859 90.3575C51.2669 90.3956 51.1097 90.5242 51.1193 90.7051C51.1288 90.9146 51.2955 90.9718 52.2193 91.0004C53.4669 91.0289 54.2812 91.0718 54.3288 91.9623C54.3716 92.8289 53.5859 93.1242 52.3812 93.1861C51.0097 93.2575 50.1764 92.9861 50.0859 92.0956L51.1145 92.0432L51.1193 92.048Z" fill="white"></path><path d="M55.743 92.0385L56.6811 91.9004L56.7859 92.629L55.8478 92.7671L55.7383 92.0385H55.743Z" fill="white"></path><path d="M59.4803 88.5382C60.6946 88.243 61.5089 88.5953 61.8137 89.4191L60.7994 89.6668C60.6613 89.3763 60.2898 89.2001 59.6803 89.3477C58.9756 89.5192 58.7184 89.9477 58.8565 90.5287C58.9994 91.1096 59.4327 91.3763 60.1327 91.2049C60.7422 91.0572 60.9898 90.7239 60.9756 90.3953L61.9898 90.1477C62.0994 91.0239 61.5422 91.7191 60.3279 92.0144C59.0041 92.3382 58.1279 91.9001 57.8518 90.7715C57.5756 89.6477 58.1518 88.862 59.4756 88.5382H59.4803Z" fill="white"></path><path d="M63.1522 89.3907C62.7379 88.3431 63.2189 87.4431 64.5474 86.9193C65.8712 86.3955 66.8427 86.7288 67.2522 87.7717C67.6665 88.8193 67.1855 89.7288 65.8617 90.2526C64.5331 90.7764 63.5665 90.4431 63.1522 89.3907ZM66.2998 88.1478C66.0855 87.6002 65.6379 87.3859 64.857 87.6955C64.0808 88.0002 63.8951 88.4574 64.1141 89.0097C64.3331 89.5669 64.7855 89.7764 65.557 89.4717C66.3331 89.1669 66.5189 88.7002 66.2998 88.1478Z" fill="white"></path><path d="M69.3376 88.6907L67.6328 85.7574L68.9566 84.986L71.109 86.3383L70.9947 83.8002L72.3185 83.0288L74.0233 85.9621L73.1757 86.4526L71.9423 84.3288L72.0757 87.0955L71.29 87.5526L68.9519 86.0717L70.19 88.1955L69.3376 88.6907Z" fill="white"></path><path d="M23.019 81.8382C13.9952 74.1811 8.2666 62.7573 8.2666 50.0001C8.2666 37.243 14.2999 25.2144 23.738 17.562" stroke="white" stroke-miterlimit="10"></path><path d="M76.2666 17.5669C85.7047 25.2193 91.7333 36.905 91.7333 50.0002C91.7333 63.0955 86.0047 74.1859 76.9809 81.8431" stroke="white" stroke-miterlimit="10"></path></g><defs><clipPath id="clip0_101_22081"><rect width="100" height="100" fill="white"></rect></clipPath></defs></svg>