<svg xmlns="http://www.w3.org/2000/svg" width="100" height="100" viewBox="0 0 100 100" fill="none"><g clip-path="url(#clip0_101_22051)"><path d="M50 100C77.6142 100 100 77.6142 100 50C100 22.3858 77.6142 0 50 0C22.3858 0 0 22.3858 0 50C0 77.6142 22.3858 100 50 100Z" fill="#005596"></path><path d="M49.9999 98.7333C76.9146 98.7333 98.7333 76.9146 98.7333 49.9999C98.7333 23.0853 76.9146 1.2666 49.9999 1.2666C23.0853 1.2666 1.2666 23.0853 1.2666 49.9999C1.2666 76.9146 23.0853 98.7333 49.9999 98.7333Z" fill="#005596"></path><path d="M50 2.53333C76.1714 2.53333 97.4667 23.8286 97.4667 50C97.4667 76.1714 76.1714 97.4667 50 97.4667C23.8286 97.4667 2.53333 76.1714 2.53333 50C2.53333 23.8286 23.8286 2.53333 50 2.53333ZM50 0C22.3857 0 0 22.3857 0 50C0 77.6143 22.3857 100 50 100C77.6143 100 100 77.6143 100 50C100 22.3857 77.6143 0 50 0Z" fill="#005596"></path><path d="M50 100C77.6142 100 100 77.6142 100 50C100 22.3858 77.6142 0 50 0C22.3858 0 0 22.3858 0 50C0 77.6142 22.3858 100 50 100Z" fill="#004990"></path><path d="M50 2.53333C76.1714 2.53333 97.4667 23.8286 97.4667 50C97.4667 76.1714 76.1714 97.4667 50 97.4667C23.8286 97.4667 2.53333 76.1714 2.53333 50C2.53333 23.8286 23.8286 2.53333 50 2.53333ZM50 0C22.3857 0 0 22.3857 0 50C0 77.6143 22.3857 100 50 100C77.6143 100 100 77.6143 100 50C100 22.3857 77.6143 0 50 0Z" fill="#DB2B27"></path><path d="M41.243 67.4048C41.243 67.4048 34.5715 64.0572 31.3191 58.9238C31.3334 63.3334 31.1191 68.8381 31.1191 68.8381L41.3334 70.8476L41.243 67.4095V67.4048Z" fill="white"></path><path d="M58.8766 67.4949C58.8766 67.4949 65.548 64.4092 68.8004 59.2759C68.7861 63.6854 69.0004 68.833 69.0004 68.833L58.7861 70.8425L58.8766 67.4949Z" fill="white"></path><path d="M58.9477 65.833H41.1953V73.933H58.9477V65.833Z" fill="white"></path><path d="M55.3527 66.4285C55.3527 69.2999 52.9955 71.6285 50.086 71.6285C47.1765 71.6285 44.8193 69.2999 44.8193 66.4285C44.8193 63.5571 47.1765 61.2285 50.086 61.2285C52.9955 61.2285 55.3527 63.5571 55.3527 66.4285Z" fill="white"></path><path d="M28.8664 69.1475V61.5475L28.4141 61.3761V60.3475L28.8664 60.1475V59.4332L28.4141 59.2618V58.038L29.9045 56.6237V56.2904C29.9045 56.2904 29.9569 55.9951 30.3379 55.9951H30.7807C30.7807 55.9951 31.1236 56.0475 31.1236 56.2904V56.6046L32.6522 58.0475L32.6379 59.2713L32.1855 59.4332V60.1475L32.6474 60.3475V68.4237L28.8712 69.1523L28.8664 69.1475Z" fill="white"></path><path d="M71.4332 69.1475V61.5475L71.8856 61.3761V60.3475L71.4332 60.1475V59.4332L71.8856 59.2618V58.038L70.3951 56.6237V56.2904C70.3951 56.2904 70.3427 55.9951 69.9617 55.9951H69.5189C69.5189 55.9951 69.176 56.0475 69.176 56.2904V56.6046L67.6475 58.0475L67.6617 59.2713L68.1141 59.4332V60.1475L67.6522 60.3475V68.4237L71.4284 69.1523L71.4332 69.1475Z" fill="white"></path><path d="M49.6238 79.8142C45.9333 79.8142 43.5714 78.5475 41.0857 77.2142C39.7714 76.5094 38.4095 75.7761 36.8095 75.2428C32.2857 73.7237 29.3047 75.5856 29.1809 75.6666L28.5762 74.738C28.719 74.6475 32.1047 72.4952 37.1619 74.1952C38.8524 74.7618 40.2524 75.5142 41.6095 76.2428C44.1762 77.619 46.5952 78.919 50.5809 78.6809C54.3095 78.4571 56.8714 77.1904 59.3476 75.9666C60.4047 75.4428 61.4047 74.9523 62.4619 74.5523C62.5286 74.5285 62.6143 74.4952 62.7047 74.4571C64.0285 73.9333 68.0666 72.3428 71.5524 74.9952L70.8809 75.8761C67.8952 73.5999 64.419 74.9714 63.1095 75.4856C63.0095 75.5237 62.9238 75.5571 62.8524 75.5856C61.8476 75.9618 60.8714 76.4475 59.8428 76.9571C57.3857 78.1714 54.6 79.5475 50.6524 79.7856C50.3 79.8047 49.9571 79.819 49.6238 79.819" fill="white"></path><path d="M69.3955 77.814L68.6098 77.3092C68.4336 77.1949 67.9717 77.1235 67.505 77.1997C67.424 77.214 67.3336 77.233 67.2479 77.2521C66.8526 77.3378 66.3669 77.4473 65.986 77.1425C65.8288 77.0187 65.6431 76.7759 65.6431 76.3282C65.6431 75.9902 65.7907 75.6902 66.0526 75.4854C66.9193 74.814 69.0431 75.2806 69.6717 75.4425C70.0907 75.5568 70.5526 75.5521 70.6431 75.4711C70.8574 73.0806 71.8288 71.3473 72.3764 70.5473C68.4479 68.1711 62.4383 69.4616 60.1812 70.9044C56.824 73.0473 54.0193 74.3806 50.4431 74.3949C47.3955 74.3949 44.8098 73.1425 42.0764 71.8044C40.5479 71.0568 38.9669 70.2806 37.2336 69.6997C33.5812 68.4759 29.4288 69.8521 27.8479 70.4854C28.4336 71.2902 29.3288 72.8759 29.4241 75.1425C29.5098 75.2473 29.9717 75.2759 30.386 75.1854C31.0336 75.0521 33.1812 74.6854 34.0098 75.3997C34.2669 75.6187 34.3955 75.9235 34.3812 76.2616C34.3574 76.7044 34.1621 76.9378 34.0002 77.0568C33.605 77.3425 33.1241 77.214 32.7336 77.1092C32.6479 77.0854 32.5621 77.0616 32.4812 77.0473C32.0145 76.9473 31.5526 76.9997 31.3717 77.1044L30.5669 77.5711L30.5383 76.2854C30.2193 76.3473 29.3193 76.4711 28.7621 76.0473C28.4955 75.8425 28.3431 75.5473 28.3288 75.1949C28.205 72.2949 26.5907 70.6854 26.5717 70.6711L26.0098 70.1235L26.7145 69.7806C26.9526 69.6663 32.5669 66.9759 37.586 68.6616C39.3907 69.2663 41.005 70.0568 42.5669 70.8235C45.1669 72.0949 47.6241 73.2997 50.405 73.2997H50.4431C53.7526 73.2854 56.3955 72.0187 59.5907 69.9806C62.2288 68.2949 69.1336 66.8521 73.4907 69.9663L73.986 70.3187L73.5907 70.7759C73.5907 70.7759 72.0098 72.6473 71.7431 75.5616C71.7098 75.914 71.5479 76.1997 71.2669 76.3902C70.6955 76.7854 69.8145 76.6235 69.4812 76.5425L69.3907 77.8235L69.3955 77.814Z" fill="white"></path><path d="M33.9576 75.3953C33.9576 75.3953 33.4052 74.8429 33.1766 74.4334C32.7243 73.6286 29.1719 75.2144 29.1719 75.2144L30.1385 75.4239" fill="white"></path><path d="M65.9189 75.6048C65.9189 75.6048 66.4809 75.0667 66.7237 74.662C67.1999 73.8715 70.7094 75.5382 70.7094 75.5382L69.738 75.7239" fill="white"></path><path d="M28.7573 75.4238C28.7573 75.4238 28.6811 73.2428 28.1906 72.2714C27.7001 71.3047 27.5049 70.3285 27.5049 70.3285C27.5049 70.3285 30.4811 68.8285 32.4192 68.7952C34.3573 68.7571 39.1858 69.5999 40.6858 70.4285C42.1906 71.2571 46.243 73.4809 48.343 73.9333C50.443 74.3857 53.9192 73.8476 56.0906 72.9523C58.262 72.0571 59.7144 70.519 60.5954 70.1285C61.4763 69.738 64.3144 68.7142 66.2239 68.538C68.1335 68.3666 70.4335 69.1476 71.7287 69.3904C73.0239 69.6333 72.8335 70.1238 72.8335 70.1238L71.2763 75.0809C71.2763 75.0809 68.7858 74.2333 67.1144 74.1857C65.443 74.138 62.6001 75.3904 61.7239 75.719C60.843 76.0476 56.9715 77.6618 55.7287 78.1523C54.4811 78.6428 50.2715 79.7666 47.8763 79.2285C45.4811 78.6904 40.8192 76.3238 39.6001 75.719C38.3811 75.1142 33.9716 73.6619 33.3906 73.938C32.8049 74.2142 28.7668 75.4142 28.7668 75.4142L28.7573 75.4238Z" fill="white"></path><path d="M70.3141 28.1094C70.2284 27.8379 69.7665 27.6332 67.9094 27.6332C67.1855 27.6332 66.5094 27.6617 66.5046 27.6617C66.476 27.6617 66.4474 27.6665 66.4189 27.676C65.2665 27.7617 64.1713 28.0236 63.176 28.457C64.4951 26.8713 66.5427 25.876 67.7808 25.3903C67.8474 25.3665 68.0284 25.2808 68.0665 25.2189C68.1284 25.1236 68.2284 25.0379 68.1427 24.8855C67.9998 24.6189 67.4332 24.5522 67.057 24.5522C66.6522 24.5522 66.076 24.6094 65.357 24.7141C65.0141 24.7522 64.676 24.8094 64.3522 24.8808C64.3379 24.8808 64.3236 24.8855 64.3094 24.8903C62.8808 25.2094 61.5332 25.8522 60.4046 26.7379C60.2474 26.8617 60.0951 26.9903 59.9474 27.1236L60.857 25.576C61.3475 24.7713 61.8808 24.0332 62.4427 23.3713C62.4808 23.3284 62.5046 23.276 62.5189 23.2189C62.5427 23.1046 62.6665 22.9284 62.5951 22.8427C62.5474 22.7855 62.4475 22.6951 62.2617 22.6951C62.0998 22.6951 61.5522 22.7522 59.4713 24.3332C57.5141 25.7046 55.8332 27.476 54.6094 29.4713C54.1189 30.3522 53.257 31.9855 52.9713 33.1427C52.9522 33.0284 52.9379 32.9094 52.9236 32.7998C52.8713 32.3379 52.8427 31.857 52.8379 31.2903C52.8284 30.6094 52.8617 29.9998 52.8855 29.6094C52.8951 29.4475 52.8665 29.057 52.7046 29.0189C52.5474 28.9808 52.3046 29.2998 52.2379 29.4475C51.2189 31.7808 50.9522 33.7189 50.8951 34.8713L50.5236 38.2713C50.4808 38.5046 50.3046 39.6427 50.3046 39.6427C50.0236 39.1522 49.8236 38.7855 49.6094 38.2522C49.5998 38.2332 49.5951 38.2189 49.5808 38.1998L49.2617 37.6855C49.2617 37.6855 49.2427 37.657 49.2332 37.6475C48.7474 37.0713 48.257 36.7713 47.6903 36.4284C46.8951 35.9427 45.8998 35.3427 44.4284 33.6379C43.6141 32.6951 42.6713 30.7951 42.3665 29.4855C41.7617 26.8951 41.8189 23.7903 42.5141 21.0046C42.576 20.8189 42.6236 20.4808 42.5379 20.3617C42.476 20.2713 42.357 20.2141 42.2474 20.2141C42.0284 20.2141 41.8332 20.4046 40.476 22.5665C40.476 22.5713 40.4713 22.576 40.4665 22.5855C39.576 24.0094 38.9427 25.6332 38.6427 27.2903C38.576 27.6522 38.5284 28.0141 38.4951 28.3713C38.1808 27.5855 37.9189 26.776 37.7141 25.9475C37.276 24.1713 37.1332 22.3713 37.2998 20.7379C37.3094 20.6379 37.3332 20.3617 37.2617 20.2903C37.1951 20.2236 37.0951 20.1855 36.9951 20.1855C36.6951 20.1855 36.2332 20.5713 35.276 23.1332C34.3665 25.5713 34.0713 27.8046 34.357 30.2475C33.3236 28.8998 32.857 27.0046 32.4332 25.2951C32.3284 24.8713 32.2284 24.457 32.1189 24.057C32.0665 23.857 31.9236 23.376 31.7379 23.4665C31.7236 23.4713 31.7141 23.4808 31.6998 23.4855C31.6998 23.4855 31.6998 23.4855 31.6951 23.4855C31.6903 23.4855 31.6808 23.4951 31.676 23.4998C31.6665 23.5046 31.657 23.5141 31.6522 23.5189C31.6141 23.5522 31.4855 23.976 31.4617 24.0189C31.4046 24.1284 31.3665 24.2855 31.3427 24.5189C31.3427 24.5284 31.3427 24.5427 31.3427 24.5522C31.3427 24.6332 31.3379 24.7094 31.3332 24.7903C31.3284 24.8808 31.3236 24.9665 31.3236 25.0522C31.1998 26.3332 31.1046 29.6475 32.8046 33.1094L32.8427 33.1998C32.8665 33.2522 32.8903 33.3046 32.9141 33.357C33.0998 33.7475 33.3094 34.1046 33.5094 34.4522C33.576 34.5665 33.6427 34.676 33.7046 34.7903C33.9379 35.2046 34.1474 35.4522 34.357 35.6951C33.3951 35.4998 31.976 35.2141 31.2951 35.1141C31.1379 35.0951 30.9855 35.1808 30.9284 35.3284C30.8713 35.476 30.9284 35.6427 31.057 35.7332C31.6284 36.1094 32.6713 37.0475 33.7665 38.0665H33.7522L35.6951 39.876L35.8713 40.0427C36.5046 40.6379 37.1617 41.2522 37.7903 41.8236L36.4617 41.6903C36.3141 41.6713 36.1713 41.7617 36.1141 41.8998C36.057 42.0379 36.0998 42.1951 36.2141 42.2903L39.3141 44.7998L40.6713 45.8808C40.6808 45.8903 40.6903 45.8998 40.6998 45.9094L43.0236 47.7808C43.0808 47.8284 43.1522 47.8522 43.2284 47.857L43.8236 47.8713C42.5617 48.3951 41.4046 48.4141 40.057 47.9617C39.0141 47.6141 38.0189 47.0713 37.176 46.3903C37.057 46.2951 36.7475 46.1141 36.6236 46.2046C36.4998 46.2951 36.5903 46.6379 36.6522 46.7808C36.9141 47.4284 37.3998 47.9951 37.8903 48.5094C36.2855 48.2951 34.8284 47.857 33.1617 47.0951C33.0236 47.0332 32.7713 46.8713 32.676 46.9855C32.576 47.0998 32.657 47.4617 32.7379 47.5855C33.4903 48.757 34.0951 49.557 34.6951 50.1808C35.3236 50.8379 36.157 51.5094 36.5665 51.7522C36.6427 51.7998 36.8522 51.9236 37.8522 51.9236C38.2284 51.9236 38.6474 51.9046 38.9998 51.8713C39.0427 51.8713 39.0855 51.8617 39.1284 51.857C38.1332 52.2094 37.2141 52.3379 36.4236 52.2427C36.2522 52.2189 35.8617 52.2332 35.8236 52.3998C35.7855 52.5665 36.1046 52.8379 36.2665 52.8951C37.4522 53.3189 38.6141 53.6094 39.7236 53.757C40.0903 53.8617 41.1284 54.1332 42.2522 54.2284C42.3284 54.2332 42.3998 54.2379 42.4665 54.2332C42.557 54.2427 42.6522 54.2475 42.7379 54.257C43.1665 54.2951 43.576 54.3332 44.0094 54.3332C44.3665 54.3332 44.7189 54.3046 45.0855 54.2522C45.0855 54.2951 45.0998 54.3379 45.1236 54.3808L45.3189 54.7665C45.2474 54.7808 45.1808 54.8141 45.1284 54.8713C45.0284 54.976 45.0094 55.1332 45.076 55.2617L45.4951 56.0475C45.4951 56.0475 45.5141 56.0855 45.5284 56.0998C45.5284 56.0998 45.5427 56.1141 45.5617 56.1379C45.5427 56.1475 45.5284 56.157 45.5094 56.1665C45.3951 56.2475 45.3427 56.3903 45.376 56.5236C45.5951 57.3998 46.0189 57.7094 46.3284 57.9332C46.5379 58.0855 46.6665 58.1808 46.7332 58.4189C46.776 58.576 46.8522 58.757 46.9284 58.9475C47.0903 59.3475 47.3332 59.9522 47.1808 60.1951C46.976 60.5189 46.8379 60.6141 46.6046 60.7665C46.4617 60.8617 46.2808 60.9855 46.0617 61.1808C45.5332 61.6522 45.4998 62.2808 45.9522 63.0475L45.9808 63.0903C46.0522 63.2141 46.1903 63.276 46.3284 63.257C46.4665 63.2332 46.576 63.1284 46.6046 62.9903C46.7094 62.4475 47.5998 62.0189 47.7713 62.0094C48.076 61.9903 48.3665 61.9713 48.5665 61.7713C48.8903 61.4475 50.6474 61.4284 50.6474 61.4284C50.6474 61.4284 50.8522 61.4379 51.176 61.4998C51.2379 61.5332 51.3046 61.5617 51.3617 61.5951C51.4189 61.6284 51.476 61.6522 51.5427 61.6475C51.5808 61.6475 52.1713 61.8855 52.2189 61.9427C52.3046 62.0427 53.2998 62.5951 53.4189 62.657C53.4855 62.6951 54.0665 63.4665 54.1522 63.4665C54.2855 63.6665 54.3379 63.6094 54.3427 63.4094C54.7189 63.1856 55.0617 62.6903 55.1903 62.157C55.3189 61.6284 55.2427 61.1284 54.9665 60.7046C54.9522 60.6808 54.9332 60.657 54.9094 60.6379C54.8522 60.5855 54.6951 60.4617 54.5189 60.3189C54.276 60.1284 53.8665 59.8046 53.7808 59.7094C53.5332 59.4236 53.4094 59.1141 53.2903 58.7617C53.3855 58.757 53.476 58.7094 53.5332 58.6332C53.5951 58.5522 53.6189 58.4475 53.5951 58.3475L53.5522 58.1522C53.4808 57.857 53.4046 57.5189 53.3427 57.1475V57.1284C53.3427 57.1284 53.3665 57.1284 53.3808 57.1284C53.3808 57.1284 53.3808 57.1284 53.3855 57.1284C53.5713 57.1284 53.7236 56.976 53.7236 56.7903C53.7236 56.7284 53.7046 56.6665 53.676 56.6189L53.3046 55.6094C53.3379 55.6475 53.3617 55.676 53.376 55.6903C53.4665 55.7855 53.6903 55.9522 53.8189 55.9046C53.9427 55.8617 53.9474 55.6141 53.9617 55.4808C54.0141 54.8046 54.5284 54.1236 55.0855 53.7236C55.1189 53.8141 55.1475 53.876 55.157 53.8903C55.2141 54.0046 55.2189 54.2475 55.3475 54.2475C55.3475 54.2475 55.3522 54.2475 55.357 54.2475C55.4855 54.2475 55.5808 54.0665 55.7665 53.876C55.9998 53.6332 56.1951 53.4236 56.4379 53.3522L57.6046 53.8189C57.676 54.0284 57.8189 54.3665 58.0713 54.5713C58.2903 54.7475 58.4998 54.8808 58.8855 55.1236C58.9284 55.1475 58.9713 55.176 59.0141 55.2046C58.9808 55.2236 58.9379 55.2379 58.8951 55.2522C58.7617 55.2998 58.3808 55.4236 58.3808 55.5665C58.3808 55.7094 58.7617 55.8332 58.8951 55.8855C59.1522 55.9808 59.4379 56.0332 59.7189 56.0332C60.2951 56.0332 60.7951 55.8284 61.0998 55.4713C61.3474 55.176 61.4474 54.8046 61.376 54.3951C61.3236 54.0903 61.2046 53.3332 61.1665 53.0855L61.4808 52.0522C61.4903 52.0189 61.4951 51.9855 61.4951 51.9522C61.4951 51.4617 61.3522 50.9189 61.0808 50.3284L61.0665 50.2903C61.0522 50.2475 61.0332 50.2141 61.0094 50.1808C60.9951 50.1522 60.9808 50.1236 60.9665 50.0998C60.8951 49.9379 60.8046 49.776 60.6855 49.6046C59.8475 48.2284 58.6617 47.1046 58.6094 47.057C58.5094 46.9617 58.3094 46.7951 58.1855 46.857C58.0617 46.9141 58.0332 47.1855 58.0427 47.3236V47.3951C57.9665 47.2046 57.6522 46.876 57.5855 46.776C57.4379 46.5522 57.3236 46.3189 57.2855 46.157C58.2903 41.5141 61.357 38.4236 61.3903 38.3951C61.4474 38.3379 61.4808 38.2665 61.4903 38.1903C62.157 31.5475 69.7379 28.6236 69.8189 28.5951C69.8474 28.5855 70.0427 28.5236 70.0665 28.5046C70.3284 28.3094 70.3713 28.157 70.3522 28.0903M53.1189 57.0236C53.1189 57.0236 53.1379 57.0332 53.1474 57.0379L52.9998 57.0617L53.1189 57.0236Z" fill="white"></path><path d="M49.1382 75.7236H49.0335L49.0049 76.5093H49.1001C49.3906 76.5236 49.5525 76.3998 49.562 76.1236C49.5715 75.8665 49.4239 75.7379 49.1382 75.7236Z" fill="#004990"></path><path d="M51.5244 76.7667L52.0625 76.6905L51.672 75.8096L51.5244 76.7667Z" fill="#004990"></path><path d="M43.6146 75.3666L43.7956 74.4189L43.1289 75.1237L43.6146 75.3666Z" fill="#004990"></path><path d="M33.9855 70.5857L33.8093 70.5762L33.7617 71.3619L33.9427 71.3714C34.2236 71.3857 34.3855 71.2524 34.3998 70.9952C34.4141 70.7476 34.2665 70.6047 33.9855 70.5857Z" fill="#004990"></path><path d="M56.7292 75.2858L57.2244 75.062L56.6006 74.3286L56.7292 75.2858Z" fill="#004990"></path><path d="M59.8905 70.4284C56.5619 72.5523 53.8524 73.8189 50.4476 73.8332C45.8429 73.8523 42.2762 70.7999 37.4143 69.1665C32.5524 67.5332 26.9619 70.2618 26.9619 70.2618C26.9619 70.2618 28.7476 72.0046 28.881 75.157C28.881 75.157 32.1238 73.0427 36.9857 74.6713C41.8476 76.3046 44.3619 79.557 50.6191 79.1808C56.0667 78.8523 59.1619 76.3332 62.6619 75.0189C63.7476 74.6094 67.7476 72.7523 71.2095 75.3761C71.5238 72.3046 73.1762 70.3951 73.1762 70.3951C69.0333 67.4332 62.3381 68.8618 59.8905 70.4237V70.4284ZM31.6429 73.0332C30.7619 73.1999 30.1238 72.738 29.9476 71.8142C29.7762 70.9189 30.2191 70.2142 31.1143 70.0427C31.4095 69.9856 31.6572 69.9999 31.881 70.0665L31.9048 70.838C31.7286 70.7475 31.5286 70.6904 31.3048 70.7332C30.9048 70.8094 30.7048 71.157 30.8 71.6475C30.8952 72.1523 31.2333 72.3856 31.6333 72.3094C31.8333 72.2713 32 72.1665 32.1857 72.0094L32.4286 72.6856C32.2143 72.8475 31.9857 72.9713 31.6429 73.0332ZM34.3572 72.9427L33.8714 71.9713L33.7381 71.9618L33.6857 72.8713L32.8238 72.8189L33 69.8856L34.1238 69.9523C34.881 69.9999 35.2952 70.3618 35.2572 70.9904C35.2333 71.3856 35.0381 71.657 34.6952 71.8046L35.2857 72.857L34.3572 72.9427ZM36.7333 73.3951L35.8905 73.1665L36.1619 72.1713L35.6714 70.1475L36.5952 70.2808L36.8333 71.5142L37.6429 70.5951L38.5191 70.8332L37.0095 72.3808L36.7333 73.3904V73.3951ZM39.3857 72.4189C39.9143 72.8856 40.0762 73.2094 39.8857 73.6523C39.6143 74.2904 39.0429 74.3332 38.4952 74.0999C38.1 73.9284 37.8143 73.7094 37.5619 73.4475L37.9572 72.8427C38.2095 73.1332 38.4952 73.3808 38.7667 73.4951C38.9238 73.5618 39.0476 73.5523 39.1 73.4332C39.1476 73.3189 39.1048 73.238 38.7952 72.9523C38.3286 72.5189 38.1524 72.2332 38.3572 71.7618C38.5952 71.2046 39.1476 71.1142 39.681 71.3427C40.0714 71.5094 40.281 71.6808 40.4952 71.9189L40.1 72.5189C39.8857 72.2475 39.6381 72.0475 39.4381 71.9618C39.2762 71.8951 39.1762 71.9142 39.1381 72.0094C39.0905 72.1142 39.1333 72.1951 39.3952 72.4285L39.3857 72.4189ZM40.2857 74.9142L41.3143 72.9523L40.6143 72.5856L40.9524 71.9427L43.0476 73.038L42.8191 73.7332L42.0905 73.3523L41.0619 75.3142L40.2905 74.9094L40.2857 74.9142ZM44.2619 76.8618L43.4143 76.5856L43.4952 76.0427L42.6714 75.6285L42.3191 76.0046L41.5667 75.6237L43.8 73.4427L44.6714 73.8808L44.2667 76.8618H44.2619ZM46.4572 77.7046L44.7238 77.1427L45.6286 74.3475L46.4572 74.6142L45.781 76.7046L46.5714 76.9618L46.4572 77.7046ZM49.1333 77.1475H48.9952L48.9667 78.0237L48.1 77.9951L48.2 75.057L49.2191 75.0904C49.9762 75.1142 50.4286 75.4618 50.4048 76.138C50.381 76.8332 49.8762 77.1713 49.1333 77.1475ZM52.5905 77.8189L52.3524 77.3237L51.4381 77.4475L51.3619 77.957L50.5238 78.0713L51.1286 75.0094L52.0952 74.8761L53.4476 77.5618L52.5905 77.8142V77.8189ZM54.0524 77.4808L53.1857 74.6713L54.0191 74.4142L54.6667 76.5142L55.4619 76.2665L55.7952 76.938L54.0524 77.4761V77.4808ZM58.0524 75.9951L57.681 75.5856L56.8381 75.9665L56.9095 76.4761L56.1429 76.8237L55.8524 73.7189L56.7429 73.3189L58.8 75.5094L58.0524 75.9951ZM60.281 74.9189C59.4714 75.3142 58.7381 75.0284 58.3286 74.1856C57.9286 73.3665 58.1714 72.5713 58.9905 72.1713C59.2571 72.0427 59.5048 71.9904 59.7381 71.9904L59.9619 72.7284C59.7667 72.6856 59.5619 72.6808 59.3524 72.7808C58.9905 72.957 58.881 73.3475 59.1048 73.7999C59.3286 74.2618 59.7143 74.3999 60.081 74.2189C60.2667 74.1284 60.4 73.9856 60.5333 73.7856L60.9429 74.3713C60.781 74.5808 60.5905 74.7618 60.2762 74.9142L60.281 74.9189ZM61.3286 74.357L60.2191 71.638L62.0143 70.9046L62.2714 71.538L61.2667 71.9475L61.4238 72.338L62.1857 72.0284L62.5381 72.6142L61.6762 72.9665L61.8524 73.3999L62.8953 72.9761L63.1524 73.6094L61.3238 74.357H61.3286ZM65.1048 73.0332L64.2572 73.2094L63.6524 70.3332L65.4714 69.9523L65.6191 70.6523L64.6476 70.857L64.7429 71.3189L65.4429 71.1713L65.7048 71.8427L64.8857 72.0142L65.1 73.0332H65.1048ZM66.3238 72.8475C66.0952 72.8665 65.8952 72.6951 65.8762 72.4665C65.8572 72.238 66.0286 72.038 66.2524 72.0189C66.481 71.9999 66.681 72.1713 66.7 72.3999C66.7191 72.6284 66.5476 72.8284 66.3191 72.8475H66.3238ZM69.0619 70.9237C68.9191 70.7856 68.7476 70.6713 68.5191 70.6475C68.1191 70.6046 67.8238 70.8761 67.7667 71.3761C67.7095 71.8856 67.9619 72.2046 68.3714 72.2523C68.5762 72.2761 68.7667 72.2237 68.9857 72.1237L69.0191 72.838C68.7667 72.9332 68.5095 72.9808 68.1667 72.9427C67.2714 72.8475 66.8 72.2189 66.9 71.2856C66.9953 70.3808 67.6238 69.8332 68.5333 69.9332C68.8286 69.9665 69.0667 70.0523 69.2619 70.1808L69.0619 70.9237ZM69.7095 73.2618C69.481 73.2808 69.281 73.1094 69.2619 72.8808C69.2429 72.6523 69.4143 72.4523 69.6429 72.4332C69.8714 72.4142 70.0714 72.5856 70.0905 72.8142C70.1095 73.0427 69.9381 73.2427 69.7143 73.2618H69.7095Z" fill="#004990"></path><path d="M69.1098 77.2476L68.7859 77.0381C68.5193 76.8667 67.9574 76.8 67.4526 76.881C67.3621 76.8953 67.2717 76.9143 67.1764 76.9381C66.8145 77.0191 66.4431 77.1 66.186 76.8905C66.0383 76.7714 65.9621 76.581 65.9621 76.3286C65.9621 76.0905 66.0621 75.8857 66.2479 75.7381C67.0336 75.1286 69.3336 75.6857 69.5907 75.7524C69.8193 75.8143 70.524 75.9429 70.824 75.7333C70.9098 75.6762 70.9526 75.5953 70.9621 75.4762C71.2002 72.8333 72.4002 71.0333 72.8383 70.4524C68.8479 67.7905 62.5002 69.1095 60.005 70.6286C57.1621 72.3619 54.0859 74.0524 50.4431 74.0667H50.4002C47.4383 74.0667 44.905 72.8238 42.2193 71.5095C40.6812 70.7572 39.0907 69.9762 37.3336 69.3857C33.224 68.0095 28.5193 69.8286 27.3336 70.3429C27.8288 70.9333 28.9907 72.581 29.1002 75.1476C29.105 75.2667 29.1479 75.3524 29.2288 75.4143C29.524 75.6381 30.2288 75.5429 30.4526 75.4905C30.7193 75.4381 33.0431 74.9857 33.7955 75.6333C33.9764 75.7905 34.0669 75.9953 34.0526 76.2381C34.0383 76.4905 33.9574 76.6762 33.805 76.7857C33.5383 76.981 33.1669 76.881 32.8098 76.7857C32.7193 76.7619 32.6288 76.7381 32.5383 76.7191C32.0383 76.6143 31.4717 76.6524 31.2002 76.8095L30.8669 77.0048L30.8383 75.8857C30.7336 75.9048 30.6383 75.9191 30.5431 75.9381C30.4383 75.9619 29.4574 76.1714 28.9431 75.7762C28.7526 75.6286 28.6479 75.4191 28.6336 75.1667C28.505 72.1381 26.8002 70.4429 26.7812 70.4238L26.5479 70.1953L26.8383 70.0524C27.0717 69.9381 32.5717 67.3048 37.4669 68.9476C39.2526 69.5476 40.8574 70.3333 42.405 71.0905C45.0383 72.381 47.5288 73.6 50.3859 73.6H50.424C53.605 73.5857 56.3479 72.3 59.7479 70.2286C62.3764 68.6286 69.1479 67.2524 73.2859 70.2095L73.4907 70.3572L73.324 70.5476C73.324 70.5476 71.6764 72.4857 71.4002 75.5143C71.3764 75.7667 71.2621 75.9714 71.0621 76.1095C70.5288 76.4762 69.5574 76.2238 69.4526 76.1953C69.3621 76.1714 69.2669 76.1524 69.1669 76.1286L69.0859 77.2476H69.1098ZM67.4336 75.9143C67.0383 75.9143 66.705 75.9667 66.5288 76.1C66.4526 76.1572 66.4193 76.2286 66.4193 76.3286C66.4193 76.4333 66.4383 76.5048 66.4717 76.5333C66.5621 76.6048 66.8574 76.5381 67.0764 76.4905C67.1764 76.4667 67.2812 76.4476 67.3764 76.4286C67.7526 76.3667 68.2764 76.3619 68.7002 76.5L68.7336 76.0429C68.305 75.9667 67.8336 75.9143 67.4288 75.9143M31.9621 76.2048C32.205 76.2048 32.4479 76.2333 32.6431 76.2762C32.7383 76.2952 32.8383 76.3238 32.9383 76.3524C33.1526 76.4095 33.4526 76.4905 33.5431 76.4238C33.5764 76.4 33.6002 76.3238 33.605 76.2238C33.605 76.1238 33.5812 76.0524 33.505 75.9905C33.1717 75.7048 32.1669 75.7191 31.305 75.8286L31.3145 76.2857C31.5193 76.2286 31.7431 76.2095 31.9621 76.2095" fill="#DB2B27"></path><path d="M49.634 79.4905C46.015 79.4905 43.6911 78.2429 41.2435 76.9333C39.915 76.2191 38.5435 75.4857 36.915 74.9381C32.2245 73.3619 29.0388 75.3762 29.0054 75.3952L28.7578 75.0095C28.8959 74.9191 32.1531 72.8524 37.0626 74.5C38.7245 75.0571 40.115 75.8048 41.4626 76.5238C44.0721 77.9238 46.534 79.2429 50.6102 79C54.4007 78.7714 56.9959 77.4905 59.5007 76.2524C60.5483 75.7333 61.5388 75.2429 62.5816 74.8524C62.653 74.8238 62.734 74.7952 62.8292 74.7572C64.2483 74.1952 68.0197 72.7095 71.3626 75.2524L71.0864 75.6191C67.953 73.2333 64.3531 74.6524 63.0007 75.1857C62.9054 75.2238 62.8197 75.2572 62.7483 75.2857C61.7292 75.6714 60.7483 76.1571 59.7054 76.6667C57.2769 77.8667 54.5245 79.2286 50.6388 79.4619C50.2959 79.481 49.9626 79.4905 49.6388 79.4905" fill="#DB2B27"></path><path d="M33.5956 76.0574C32.4956 75.1574 32.0718 74.2859 32.0527 74.2479L32.467 74.0479C32.467 74.0479 32.8718 74.8717 33.8861 75.7002L33.5956 76.0574Z" fill="#DB2B27"></path><path d="M66.4765 76.1523L66.2051 75.7808C67.386 74.9189 67.5289 74.0046 67.5289 73.9951L67.9813 74.057C67.9765 74.0999 67.8098 75.1761 66.4717 76.1475" fill="#DB2B27"></path><path d="M52.7908 34.0663C52.7194 33.7282 52.6432 33.3044 52.5908 32.833C52.6337 33.2235 52.7003 33.6282 52.7908 34.0663Z" fill="#004990"></path><path d="M60.7285 50.476C60.7142 50.4379 60.7095 50.4188 60.7095 50.4188C60.7095 50.4188 60.7095 50.4331 60.719 50.4569C60.6904 50.395 60.6571 50.3283 60.6238 50.2664C60.5476 50.1045 60.4618 49.9521 60.3618 49.8045C59.538 48.4521 58.3428 47.3283 58.3428 47.3283L58.3618 47.6569L58.3999 48.1712C58.3999 48.1712 54.5428 45.9331 52.8999 43.8712C51.6238 42.2712 50.1571 40.5236 49.2857 38.3807L48.9666 37.8664C47.8571 36.5474 46.6999 36.795 44.1618 33.8617C43.2904 32.8569 42.3333 30.8759 42.0285 29.5664C41.3857 26.7998 41.4999 23.6474 42.1857 20.8998C42.1857 20.8998 42.5047 19.9617 40.7523 22.7521C39.8714 24.1474 39.2571 25.7331 38.9666 27.3569C38.8142 28.1855 38.7476 29.0188 38.7761 29.8426C38.1809 28.6569 37.7047 27.3617 37.3761 26.0331C36.9476 24.2759 36.7761 22.4521 36.9523 20.7093C36.9523 20.7093 36.6428 20.4093 35.5761 23.2569C34.5095 26.1045 34.3428 28.5379 34.8285 31.2617C32.8714 29.5998 32.4285 26.5617 31.7761 24.1521C31.7714 24.1569 31.7618 24.1664 31.7523 24.1902C31.7285 24.2379 31.6952 24.3426 31.6714 24.5664C31.6714 24.7379 31.6476 24.914 31.6476 25.0855C31.5285 26.2902 31.419 29.5664 33.0999 32.9855C33.1333 33.0664 33.1714 33.1474 33.2047 33.2236C33.4428 33.7283 33.7238 34.1807 33.9809 34.6331C34.4047 35.3807 34.738 35.5664 35.2142 36.2283C35.1666 36.2188 32.2809 35.614 31.2285 35.4569C31.8666 35.8759 33.0333 36.9379 34.3618 38.1807C34.3618 38.1807 38.338 38.4998 41.4618 40.8093C41.4618 40.8093 38.7571 39.4855 35.5095 39.2617C35.6999 39.4426 35.8904 39.6236 36.0809 39.7998C37.0047 40.6712 37.938 41.5379 38.7618 42.2664H38.7476L36.3999 42.0331L39.7714 44.7617L40.3761 44.7807C40.3761 44.7807 41.5095 44.7426 42.6333 44.995C43.8285 45.2664 44.4666 45.6521 44.4666 45.6521C43.7999 45.4236 42.6857 45.3902 42.019 45.4331C41.538 45.4617 41.2285 45.5998 40.8809 45.6426L41.0761 45.7998L43.2047 47.5093L45.0999 47.5569C43.4999 48.5521 41.9285 48.9474 39.9142 48.2712C38.8428 47.914 37.8095 47.3521 36.9285 46.6426C37.2857 47.5188 38.1095 48.2664 38.7523 48.9283C36.6285 48.7664 34.9238 48.2759 32.9809 47.3855C33.7238 48.5379 34.3095 49.3188 34.8999 49.9331C35.4857 50.5426 36.2952 51.2093 36.6999 51.4521C36.9571 51.6045 38.1428 51.5998 38.9285 51.5236C39.0761 51.5093 39.2095 51.495 39.319 51.476C39.4999 51.4474 39.7238 51.3998 39.9618 51.3426C40.7666 51.1569 41.738 50.8855 41.6857 50.9188C41.338 51.1474 40.9523 51.3712 40.5523 51.576C40.3142 51.6998 40.0714 51.814 39.819 51.9236C38.6904 52.4045 37.4618 52.7093 36.3428 52.5664C37.5952 53.014 38.9047 53.3426 40.2333 53.4664C40.6904 53.5093 40.8571 53.5045 41.2523 53.3188C41.8428 53.0426 42.3333 52.8188 42.8047 52.595C43.0428 52.4807 43.2809 52.3664 43.519 52.2426C43.8476 52.076 44.1904 51.895 44.5714 51.6855C44.3523 51.8902 44.1285 52.0855 43.9047 52.276C43.7761 52.3807 43.6476 52.4902 43.519 52.5998C43.0618 52.976 42.5714 53.3664 42.0142 53.8521C43.5142 53.9569 44.3809 54.2045 46.3714 53.5855C46.3714 53.5855 45.9618 53.8902 45.3952 54.2236L45.9857 55.3807L45.3476 55.095L45.7666 55.8807C45.7666 55.8807 46.0666 56.2521 46.4904 56.5617L46.6333 57.0236C46.3047 56.9236 45.8809 56.576 45.6714 56.4331C46.0047 57.7712 46.7999 57.5093 47.0285 58.3188C47.1809 58.8664 47.7618 59.8474 47.4333 60.3664C47.0476 60.9807 46.7952 60.9379 46.2523 61.4236C45.6238 61.9855 46.1095 62.695 46.238 62.9188C46.3666 62.2569 46.8571 61.8283 47.138 61.7474C47.5761 61.6188 48.0999 61.7188 48.2952 61.5236C48.9857 60.8331 50.4761 60.6569 51.5047 61.3045C51.0285 60.5331 50.7809 60.5569 49.8333 60.2855C51.5095 60.395 51.619 60.7617 52.438 61.7188C52.5047 61.176 52.0523 60.4855 51.6666 60.1521C51.5476 60.0474 50.2142 59.8617 48.919 59.7521C48.4618 59.7141 48.2809 59.1283 48.2142 58.814C48.2952 58.8617 48.6618 59.0521 49.019 59.0474C48.9285 58.5902 48.8047 58.076 48.7285 57.7617C48.8571 57.8188 48.9857 57.8998 49.2714 57.9093L49.0857 57.1426C48.9952 56.5331 48.7999 56.0902 49.3857 55.1521C49.7095 55.3807 49.8523 55.4807 49.9999 55.6426C49.9999 55.6426 50.1238 56.2283 50.2571 56.5379C50.2809 56.595 50.8618 57.0902 50.8809 57.1521L49.8857 56.8664C49.8857 56.8664 50.219 57.6188 50.8714 58.0569C51.2618 58.195 51.6047 58.3474 51.719 58.4998C51.838 58.6569 52.0333 59.0807 51.938 59.3093C51.8618 59.495 51.338 58.7093 50.2238 59.6426C50.9809 59.6569 51.8952 59.8617 52.0904 60.095C52.3428 60.395 52.5285 60.6664 52.7095 60.7807C53.5142 61.2664 53.5714 61.5188 53.5095 62.4712C54.0095 62.0855 53.8666 61.0807 53.7952 60.8379C54.4571 61.6331 54.3142 62.7093 54.1095 63.1331C54.6047 62.8569 55.2047 61.7617 54.638 60.895C54.4857 60.7569 53.6428 60.1283 53.4809 59.9426C53.0618 59.4617 52.9523 58.9188 52.7476 58.3712C52.8952 58.3807 53.0761 58.4379 53.2238 58.4379C53.1476 58.114 53.0428 57.6902 52.9618 57.2236C52.9523 57.1807 52.9476 57.1379 52.938 57.095C52.938 57.076 52.9333 57.0617 52.9285 57.0426C52.919 56.9712 52.9095 56.9045 52.8999 56.8331C52.8999 56.814 52.8999 56.7998 52.8952 56.7807C52.8857 56.7093 52.8761 56.6379 52.8714 56.5617C53.1428 56.7379 53.3333 56.8093 53.3333 56.8093L52.8666 55.5426C52.8761 55.4474 52.8857 55.3521 52.8999 55.2569C52.8999 55.2521 52.8999 55.2426 52.8999 55.2379C52.9142 55.1521 52.9333 55.0664 52.9523 54.9759C52.9523 54.9617 52.9571 54.9474 52.9618 54.9331C52.9809 54.8521 53.0047 54.776 53.0285 54.6998C53.0333 54.6807 53.038 54.6617 53.0476 54.6426C53.0809 54.5474 53.119 54.4569 53.1571 54.3664C52.9476 54.8188 53.5666 55.4712 53.5666 55.4712C53.6428 54.4712 54.5428 53.5331 55.2952 53.195C55.2523 53.476 55.3952 53.7521 55.3952 53.7521C55.619 53.276 56.0714 53.0902 56.3952 53.0188L57.0047 53.2617L57.6523 53.5236L57.819 53.5902C57.819 53.5902 57.938 54.1045 58.219 54.3331C58.4952 54.5569 58.7809 54.7188 59.4666 55.1569C59.4142 55.3283 59.2619 55.4855 58.9523 55.5998C59.9285 55.9664 61.1523 55.5283 60.9809 54.4807C60.919 54.1093 60.7571 53.095 60.7571 53.095L60.9857 52.3379L61.0523 52.114L61.0618 52.0902L61.0952 51.9855C61.0952 51.4998 60.938 50.9855 60.7047 50.4855M57.2428 52.0331L56.7238 51.0998L55.3999 50.4331L56.4809 51.6855C55.9142 51.3617 54.9428 50.8426 53.8904 50.6474C53.8904 50.6474 54.7857 51.4807 55.2095 51.8998C55.2904 51.9521 55.3047 51.995 55.3047 51.995C55.2761 51.9664 55.2428 51.9331 55.2095 51.8998C55.0857 51.8188 54.7999 51.7093 54.1428 51.6712C53.538 51.6093 52.819 51.4521 52.1666 51.0855C52.1666 51.0855 52.2952 51.276 52.5618 51.5045C52.5618 51.5045 52.5714 51.5093 52.5714 51.514C52.819 51.7283 53.1904 51.9712 53.6857 52.1283C53.7238 52.1426 54.219 52.3474 54.2618 52.3569C53.9047 52.4998 53.6047 52.6712 53.3571 52.8617C52.8761 53.2331 52.5761 53.6807 52.3952 54.1379C52.0857 54.9283 51.8047 56.3521 52.0238 57.1617C51.338 56.2426 50.7333 55.0569 51.0714 53.714C50.0285 54.2998 49.3571 54.1093 48.638 54.0045C48.3047 54.4521 47.8618 55.5331 47.8047 56.4569C47.7428 56.3617 47.6857 56.2521 47.6333 56.1426C47.3618 55.5712 47.2238 54.914 47.1904 54.2807C47.1761 54.0283 47.1761 53.7855 47.1952 53.5664L49.5761 51.876L46.1142 51.5855C46.1714 51.5426 46.2285 51.4998 46.2904 51.4617C47.6238 50.5236 49.2714 49.8759 50.919 49.9474C51.0476 49.9521 51.1761 49.9617 51.2999 49.9759C50.238 49.3807 48.3714 49.4093 47.2618 49.7569C45.7571 50.2283 45.1618 50.2521 43.5571 49.9712C45.2476 49.6283 45.1857 49.5855 46.1857 49.1093C47.0095 48.6474 48.5714 47.7998 50.5428 48.1617C50.0618 47.9521 49.6476 47.7521 49.0618 47.6093C48.4904 47.476 47.5523 47.3474 46.5523 47.5664C46.5523 47.5664 47.2333 46.8379 48.5047 46.6617C46.7714 45.095 41.6476 42.6426 41.6476 42.6426C48.9238 44.3617 52.0142 47.7759 52.4761 48.3283C52.5095 48.3521 52.538 48.3759 52.5666 48.3998C52.2904 47.7759 50.6809 44.014 46.2571 41.2569C45.6428 40.8759 44.9666 40.6045 44.3428 40.2426C43.3428 39.6617 42.4238 39.0188 41.5809 38.314V38.3283C33.3571 31.795 36.419 22.7998 36.419 22.7998C36.1523 24.8855 36.5047 26.9283 37.1095 28.7474C37.4952 29.9045 37.9761 30.9664 38.4714 31.8902C39.0238 32.9283 39.5857 33.795 40.0285 34.414C41.0523 35.6664 42.2666 36.7331 43.6761 37.5093C43.6761 37.5093 37.4666 33.2807 40.9952 24.2664C40.8571 24.6521 38.4142 31.8759 47.5904 38.1712C47.7666 38.2902 47.8952 38.2855 47.9476 38.414C49.1666 41.3521 53.8714 46.0331 54.7476 48.2855C54.7095 47.8236 54.6714 47.3664 54.6285 46.9045C55.1523 47.4712 55.5666 48.1712 55.7809 48.914C55.819 48.4617 55.8618 47.7712 55.8999 47.314C56.6618 47.7331 57.7857 48.6045 58.7142 49.6045C58.7142 49.6045 58.7047 49.595 58.6904 49.5759C58.6571 49.5379 58.6285 49.5045 58.5999 49.476C58.6142 49.4902 58.6285 49.5045 58.638 49.5188C58.6476 49.5283 58.6523 49.5331 58.6618 49.5426C58.6761 49.5569 58.6857 49.5664 58.6904 49.5759C58.6999 49.5855 58.7047 49.595 58.7142 49.6045L58.6714 48.9379L58.6523 48.6236C58.6523 48.6236 60.0571 50.3521 60.5333 51.6855C60.5618 51.7617 60.5857 51.8379 60.6047 51.9093C60.5952 52.2855 60.5428 52.5379 60.4809 52.7045C60.4285 52.8474 60.2142 53.0807 60.1666 53.114C60.1333 53.1379 60.1095 53.1474 60.1095 53.1474C60.1761 53.095 60.1904 52.976 60.1904 52.8617C60.1904 52.7188 60.1618 52.5712 60.1095 52.4045C60.0618 52.2474 59.9999 52.095 59.9523 51.9807C59.8999 51.8521 59.8571 51.7712 59.8571 51.7712C59.8857 52.0807 59.8714 52.3093 59.8333 52.4712C59.8333 52.476 59.8333 52.4807 59.8333 52.4855C59.7618 52.795 59.619 52.876 59.5809 52.895C59.5761 52.895 59.5714 52.895 59.5714 52.895C59.5618 52.8426 59.5476 52.7998 59.538 52.7521C59.4999 52.6379 59.4571 52.5283 59.4095 52.4188C59.2523 52.0236 58.6714 50.9236 58.4809 50.5379C58.319 50.7712 58.538 51.3188 58.538 51.3188C58.6142 51.4617 58.7857 51.8331 58.7857 51.8331C58.6238 52.1998 58.8618 52.6045 59.1857 52.7617C59.0952 52.8045 58.7952 52.7617 58.5809 52.6379C58.6618 52.795 58.9428 53.176 59.0857 53.2855C58.6761 53.1855 57.7428 52.4426 57.2285 52.0188M59.3333 54.7807L58.9285 54.4521L58.638 54.2188L58.5666 53.995L58.5476 53.9379L58.4476 53.6331V53.6236C58.7714 53.814 59.0285 54.1617 59.1952 54.4426C59.2285 54.4998 59.4095 54.8521 59.4095 54.8521L59.3285 54.7855L59.3333 54.7807ZM60.5904 55.0188C60.4666 55.176 60.2714 55.314 60.0618 55.4045C59.8285 55.5045 59.5809 55.5521 59.3952 55.5045C59.3999 55.5045 59.4047 55.5045 59.4095 55.4998C59.4285 55.4902 59.4476 55.4807 59.4666 55.4712C59.4809 55.4664 59.4952 55.4569 59.5095 55.4474C59.9809 55.1569 59.7285 54.6045 59.238 54.0474H59.2285L58.1095 53.0712L58.0476 53.0188L58.0333 53.0045H58.0428L58.0761 52.9902H58.0857L58.1285 52.976L58.2952 53.0712L58.8666 53.3902L58.9095 53.414L59.1618 53.5569L59.4333 53.7093C59.4333 53.7093 59.4333 53.7093 59.438 53.7093C59.6952 53.6474 59.9857 53.576 60.0285 53.5664C60.219 53.514 60.3285 53.4617 60.3857 53.4188C60.3904 53.4569 60.8761 54.6617 60.5904 55.0236" fill="#004990"></path><path d="M66.5145 27.9996H66.5716C65.0049 28.0996 63.4526 28.552 62.1573 29.3758C63.224 27.3044 65.5716 25.8996 67.6526 25.0758C67.6526 25.0758 67.9097 24.6758 65.3954 25.052C65.0669 25.0901 64.743 25.1425 64.424 25.2139C64.424 25.2139 64.4145 25.2139 64.4097 25.2139C63.0288 25.5187 61.7145 26.133 60.6097 27.0044C59.9859 27.4996 59.424 28.0711 58.9526 28.7234C56.8335 31.5425 56.1192 34.0044 56.1192 34.0044C56.1192 34.0044 55.8145 30.3711 60.4573 25.5711C60.9669 24.7139 61.543 23.8996 62.1764 23.1568C62.1764 23.1568 62.2811 22.6139 59.6526 24.6091C57.7526 25.9377 56.0907 27.6853 54.8907 29.633C54.4621 30.4044 53.5383 32.133 53.2716 33.2758C53.2716 33.3091 53.2716 33.3425 53.2764 33.3758C53.2764 33.3758 53.3049 34.0615 53.4335 34.9711C53.5859 36.0758 54.0383 37.5949 54.0383 37.5949C53.7288 36.9663 53.1811 35.5806 53.0002 34.9425C52.9097 34.6282 52.8383 34.3377 52.7811 34.052C52.743 33.8758 52.7145 33.7092 52.6859 33.5425C52.6716 33.452 52.6573 33.3615 52.643 33.2663C52.6192 33.1139 52.6002 32.9663 52.5811 32.8234C52.524 32.2901 52.5002 31.7853 52.4907 31.2806C52.4811 30.6139 52.5097 30.0091 52.5383 29.5711C51.3288 32.3377 51.2192 34.4711 51.2145 35.3234C51.1526 35.8663 51.124 36.2758 51.1002 36.6139C51.4145 37.5044 51.9669 38.6901 52.9621 40.1949C52.9621 40.1949 52.0668 39.6949 51.0145 37.852C50.9716 38.2568 50.9002 38.7187 50.7383 39.4425C51.9335 41.4711 53.1288 43.033 54.2145 44.2234V41.8092C54.6002 42.1949 54.8669 42.4996 55.0526 42.733C55.224 41.9472 55.4669 41.0044 55.8049 39.9996C57.9097 33.733 60.4049 31.8234 60.4049 31.8234C58.1097 35.4139 56.0002 42.6711 56.0907 46.0568C56.5335 46.4377 56.9335 46.7425 57.2621 46.9711C57.0859 46.7044 56.9335 46.3996 56.8954 46.1615C57.9192 41.3187 61.1049 38.1615 61.1049 38.1615C61.8002 31.2234 69.6478 28.2853 69.6478 28.2853C70.2859 27.8187 66.5049 27.9853 66.5049 27.9853" fill="#004990"></path><path d="M33.7527 63.7663V62.6425L32.5908 61.4663V62.7854C32.748 63.033 33.1003 63.5139 33.7527 64.1425V63.7663Z" fill="#C8C8C8"></path><path d="M67.6959 67.9521V64.0283C67.2863 64.3426 66.9006 64.6283 66.534 64.8807V66.0378H65.9387V65.2854C63.3863 66.9711 62.1292 67.1473 62.1292 67.1473C63.8482 66.2664 65.0768 65.4092 65.9387 64.6759V63.1807C62.8054 65.8711 59.9911 67.2616 58.9482 67.7235C58.9482 67.7997 58.9482 68.0283 58.9482 68.3473H64.3197C65.3911 68.1711 66.5387 68.0807 67.6911 68.133" fill="#C8C8C8"></path><path d="M62.8433 68.6616C62.0005 68.8807 61.2386 69.1473 60.5957 69.4426V68.6616H62.8433Z" fill="#98989A"></path><path d="M56.0906 71.9475C55.8811 72.0428 55.5049 72.2047 55.3525 72.2713V71.4761V69.8428H56.0906V71.9523V71.9475Z" fill="#98989A"></path><path d="M56.0906 67.6953H55.3525V69.5477H56.0906V67.6953Z" fill="#98989A"></path><path d="M58.6523 70.4188V69.8379H57.9951V70.9522C58.2142 70.8284 58.4332 70.695 58.657 70.5617V70.4188H58.6523Z" fill="#98989A"></path><path d="M58.6523 67.6953H57.9951V69.5477H58.6523V67.6953Z" fill="#98989A"></path><path d="M56.8953 71.0761V69.8428H56.3857V71.8142C56.5524 71.7332 56.7238 71.6475 56.8953 71.5618V71.0761Z" fill="#98989A"></path><path d="M56.8953 67.6953H56.3857V69.5477H56.8953V67.6953Z" fill="#98989A"></path><path d="M57.6951 67.6953H57.1855V69.5477H57.6951V67.6953Z" fill="#98989A"></path><path d="M57.6912 70.9426V69.8379H57.1816V71.4046C57.3483 71.3141 57.5197 71.2236 57.6912 71.1236V70.9379V70.9426Z" fill="#98989A"></path><path d="M58.6525 66.1235H55.3525V67.3997H58.6525V66.1235Z" fill="#98989A"></path><path d="M42.214 70.6237C41.976 70.5047 41.7331 70.3904 41.4902 70.2713V70.1285V69.8428H42.214V70.6237Z" fill="#98989A"></path><path d="M42.2283 67.6953H41.4902V69.5477H42.2283V67.6953Z" fill="#98989A"></path><path d="M44.1094 71.5379C44.3332 71.6426 44.557 71.7474 44.7808 71.8426V70.4046L44.7856 69.8379H44.1094V71.5379Z" fill="#98989A"></path><path d="M44.7908 67.6953H44.1289V69.5477H44.7908V67.6953Z" fill="#98989A"></path><path d="M43.0145 67.6953H42.5098V69.5477H43.0145V67.6953Z" fill="#98989A"></path><path d="M43.8193 67.6953H43.3193V69.5477H43.8193V67.6953Z" fill="#98989A"></path><path d="M44.7902 66.1235H41.4902V67.3997H44.7902V66.1235Z" fill="#98989A"></path><path d="M43.3143 71.1571C43.4667 71.2332 43.662 71.3333 43.8191 71.4142V71.0428V69.8428H43.3096V71.1571H43.3143Z" fill="#98989A"></path><path d="M40.6903 69.8901C40.8617 69.9663 41.0284 70.0472 41.1951 70.1282V68.6567H40.6855V69.8901H40.6903Z" fill="#98989A"></path><path d="M42.5098 70.7666C42.5383 70.7809 42.5669 70.7952 42.5955 70.8094C42.7383 70.8809 42.8764 70.9475 43.0193 71.0142V69.8428H42.5145V70.7666H42.5098Z" fill="#98989A"></path><path d="M32.5908 66.5664V64.0283C33.0003 64.3426 33.3861 64.6283 33.7527 64.8807V66.0378H34.348V65.2854C36.9003 66.9711 38.1575 67.1473 38.1575 67.1473C36.4384 66.2664 35.2099 65.4092 34.348 64.6759V63.1807C37.348 65.7616 40.0575 67.1426 41.1956 67.6569V68.3426C41.1956 68.3426 36.6289 68.3664 36.5146 68.3426C35.1813 68.0569 33.8384 68.0378 32.5908 68.1616" fill="#C8C8C8"></path><path d="M39.5904 69.4189C38.9524 69.1522 38.0904 68.8094 37.6143 68.6475H39.5904V69.4189Z" fill="#98989A"></path><path d="M39.8857 69.3759V68.6616H40.3953V69.7569C40.3429 69.7331 40.1524 69.6521 39.8857 69.5426V69.3759Z" fill="#98989A"></path><path d="M59.5054 69.8426V68.6616H58.9482V70.3854C59.134 70.2711 59.3197 70.1569 59.5054 70.0378V69.8426Z" fill="#98989A"></path><path d="M60.3054 69.4377V68.6567H59.7959V69.8472C59.9578 69.7567 60.1245 69.6663 60.3054 69.5758V69.4377Z" fill="#98989A"></path><path d="M55.0666 67.4044V66.4996C55.0666 63.7425 52.8333 61.5044 50.0714 61.5044C47.3095 61.5044 45.0762 63.7377 45.0762 66.4996V67.4044H45.9285C45.8762 67.133 45.8476 66.8568 45.8476 66.5711C45.8476 64.252 47.7238 62.3758 50.0428 62.3758C52.3619 62.3758 54.2381 64.252 54.2381 66.5711C54.2381 66.8568 54.2095 67.1377 54.1571 67.4044H55.0666Z" fill="#98989A"></path><path d="M67.6951 62.7904C67.538 63.038 67.1856 63.5189 66.5332 64.1475V62.6523L67.6951 61.4761V62.7951V62.7904Z" fill="#C8C8C8"></path><path d="M49.2336 71.3711C49.1002 71.3711 49.0098 71.4568 49.0098 71.6139C49.0098 71.7711 49.0812 71.8425 49.2336 71.8425C49.3288 71.8425 49.4098 71.8139 49.4907 71.752V71.7425C49.4907 71.5044 49.386 71.3759 49.2336 71.3759V71.3711Z" fill="#98989A"></path><path d="M50.4951 71.376C50.3236 71.376 50.2236 71.5426 50.2236 71.8474C50.2236 72.1522 50.3189 72.3188 50.4951 72.3188C50.6713 72.3188 50.7617 72.1522 50.7617 71.8474C50.7617 71.5426 50.6665 71.376 50.4951 71.376Z" fill="#98989A"></path><path d="M54.0857 67.7047C53.5905 69.4714 51.9714 70.7666 50.0428 70.7666C48.1143 70.7666 46.4952 69.4714 46 67.7H45.0762V71.1428V71.9761C46.8047 72.7285 48.5428 73.2809 50.4286 73.2809H50.4666C52.1095 73.2761 53.5905 72.9571 55.0571 72.3904L55.0666 67.6904L54.0857 67.7V67.7047Z" fill="#98989A"></path><path d="M31.457 60.9238C31.6332 60.9572 31.7999 61 31.957 61.0476V63.2905C31.7999 63.2429 31.6332 63.2 31.457 63.1667V60.9238Z" fill="#98989A"></path><path d="M31.167 63.1237C31.0051 63.1047 30.8384 63.0904 30.667 63.0856V60.8428C30.7479 60.8428 30.8289 60.8475 30.9099 60.8571C30.9956 60.8618 31.0813 60.8713 31.167 60.8809V63.1237Z" fill="#98989A"></path><path d="M29.8721 63.1237C30.034 63.1047 30.2006 63.0904 30.3721 63.0856V60.8428C30.2006 60.8475 30.034 60.8618 29.8721 60.8809V63.1237Z" fill="#98989A"></path><path d="M29.0859 63.2905C29.2431 63.2429 29.4097 63.2 29.5859 63.1667V60.9238C29.4145 60.9572 29.2431 61 29.0859 61.0476V63.2905Z" fill="#98989A"></path><path d="M28.6338 59.1044C28.7433 59.0568 28.8576 59.0092 28.9719 58.9663V59.2377L28.6338 59.1044Z" fill="#98989A"></path><path d="M30.376 59.8903C30.2045 59.8903 30.0379 59.9093 29.876 59.9284V58.7617C30.0379 58.7427 30.2045 58.7284 30.376 58.7236V59.8903Z" fill="#98989A"></path><path d="M31.167 58.7617C31.0051 58.7427 30.8384 58.7284 30.667 58.7236V59.8903C30.8384 59.8903 31.0051 59.9093 31.167 59.9284V58.7617Z" fill="#98989A"></path><path d="M31.457 58.8096C31.6332 58.8429 31.7999 58.8858 31.957 58.9334V60.1C31.7999 60.0524 31.6332 60.0096 31.457 59.9762V58.8096Z" fill="#98989A"></path><path d="M29.5811 59.9762C29.4096 60.0096 29.2382 60.0524 29.0811 60.1V58.9334C29.2382 58.8858 29.4049 58.8429 29.5811 58.8096V59.9762Z" fill="#98989A"></path><path d="M32.0674 58.9663C32.1864 59.0092 32.3055 59.052 32.4102 59.1044L32.0674 59.2377V58.9663Z" fill="#98989A"></path><path d="M28.6338 61.2235C28.7433 61.1759 28.8576 61.1283 28.9719 61.0854V61.3569L28.6338 61.2235Z" fill="#98989A"></path><path d="M32.0674 61.0854C32.1864 61.1283 32.3055 61.1712 32.4102 61.2235L32.0674 61.3569V61.0854Z" fill="#98989A"></path><path d="M32.4147 58.3476C31.8957 58.1095 31.2385 57.9619 30.5243 57.9619C29.81 57.9619 29.1528 58.1048 28.6338 58.3429V58.8286C29.1528 58.5905 29.81 58.4476 30.5243 58.4476C31.2385 58.4476 31.8957 58.5905 32.4195 58.8333V58.3476H32.4147Z" fill="#98989A"></path><path d="M32.4147 60.4853C31.8957 60.2472 31.2385 60.0996 30.5243 60.0996C29.81 60.0996 29.1528 60.2425 28.6338 60.4806V60.9663C29.1528 60.7282 29.81 60.5853 30.5243 60.5853C31.2385 60.5853 31.8957 60.7282 32.4195 60.971V60.4853H32.4147Z" fill="#98989A"></path><path d="M32.4147 58.1332C31.8957 57.8951 31.2385 57.7474 30.5243 57.7474C29.81 57.7474 29.1528 57.8903 28.6338 58.1284L30.1338 56.6998C30.2624 56.6903 30.3909 56.6855 30.5243 56.6855C30.6576 56.6855 30.7862 56.6903 30.9147 56.6998L32.4195 58.1332H32.4147Z" fill="#98989A"></path><path d="M30.1338 56.3047V56.538C30.2624 56.5285 30.3909 56.5238 30.5243 56.5238C30.6576 56.5238 30.7862 56.5285 30.9147 56.538V56.3047C30.9147 56.2142 30.7195 56.2142 30.6719 56.2095C30.6243 56.2095 30.5766 56.2095 30.529 56.2095C30.4814 56.2095 30.429 56.2095 30.3814 56.2095C30.329 56.2095 30.1386 56.2095 30.1386 56.3047H30.1338Z" fill="#98989A"></path><path d="M31.957 65.7237C31.7999 65.6761 31.6332 65.6332 31.457 65.5999V63.4189C31.6332 63.4523 31.7999 63.4951 31.957 63.5428V65.7237Z" fill="#98989A"></path><path d="M31.167 65.5521C31.0051 65.533 30.8384 65.5187 30.667 65.514V63.333C30.8384 63.333 31.0051 63.3521 31.167 63.3711V65.5521Z" fill="#98989A"></path><path d="M30.376 65.514C30.2045 65.514 30.0379 65.533 29.876 65.5521V63.3711C30.0379 63.3521 30.2045 63.3378 30.376 63.333V65.514Z" fill="#98989A"></path><path d="M29.5811 65.5999C29.4096 65.6332 29.2382 65.6761 29.0811 65.7237V63.5428C29.2382 63.4951 29.4049 63.4523 29.5811 63.4189V65.5999Z" fill="#98989A"></path><path d="M70.7051 60.9238C70.8813 60.9572 71.0479 61 71.2051 61.0476V63.2905C71.0479 63.2429 70.8813 63.2 70.7051 63.1667V60.9238Z" fill="#98989A"></path><path d="M70.4141 63.1237C70.2522 63.1047 70.0855 63.0904 69.9141 63.0856V60.8428C69.995 60.8428 70.076 60.8475 70.1569 60.8571C70.2426 60.8618 70.3283 60.8713 70.4141 60.8809V63.1237Z" fill="#98989A"></path><path d="M69.124 63.1237C69.2859 63.1047 69.4526 63.0904 69.624 63.0856V60.8428C69.4526 60.8475 69.2859 60.8618 69.124 60.8809V63.1237Z" fill="#98989A"></path><path d="M68.334 63.2905C68.4911 63.2429 68.6578 63.2 68.834 63.1667V60.9238C68.6626 60.9572 68.4911 61 68.334 61.0476V63.2905Z" fill="#98989A"></path><path d="M67.8809 59.1044C67.9904 59.0568 68.0999 59.0092 68.219 58.9663V59.2377L67.8809 59.1044Z" fill="#98989A"></path><path d="M69.624 59.8903C69.4526 59.8903 69.2859 59.9093 69.124 59.9284V58.7617C69.2859 58.7427 69.4526 58.7284 69.624 58.7236V59.8903Z" fill="#98989A"></path><path d="M70.4141 58.7617C70.2522 58.7427 70.0855 58.7284 69.9141 58.7236V59.8903C70.0855 59.8903 70.2522 59.9093 70.4141 59.9284V58.7617Z" fill="#98989A"></path><path d="M70.7051 58.8096C70.8813 58.8429 71.0479 58.8858 71.2051 58.9334V60.1C71.0479 60.0524 70.8813 60.0096 70.7051 59.9762V58.8096Z" fill="#98989A"></path><path d="M68.834 59.9762C68.6626 60.0096 68.4911 60.0524 68.334 60.1V58.9334C68.4911 58.8858 68.6578 58.8429 68.834 58.8096V59.9762Z" fill="#98989A"></path><path d="M71.3193 58.9663C71.4384 59.0092 71.5574 59.052 71.6622 59.1044L71.3193 59.2377V58.9663Z" fill="#98989A"></path><path d="M67.8809 61.2235C67.9904 61.1759 68.0999 61.1283 68.219 61.0854V61.3569L67.8809 61.2235Z" fill="#98989A"></path><path d="M71.3193 61.0854C71.4384 61.1283 71.5574 61.1712 71.6622 61.2235L71.3193 61.3569V61.0854Z" fill="#98989A"></path><path d="M71.6617 58.3476C71.1426 58.1095 70.4855 57.9619 69.7665 57.9619C69.0474 57.9619 68.395 58.1048 67.876 58.3429V58.8286C68.395 58.5905 69.0522 58.4476 69.7665 58.4476C70.4807 58.4476 71.1379 58.5905 71.6617 58.8333V58.3476Z" fill="#98989A"></path><path d="M71.6617 60.4853C71.1426 60.2472 70.4855 60.0996 69.7665 60.0996C69.0474 60.0996 68.395 60.2425 67.876 60.4806V60.9663C68.395 60.7282 69.0522 60.5853 69.7665 60.5853C70.4807 60.5853 71.1379 60.7282 71.6617 60.971V60.4853Z" fill="#98989A"></path><path d="M71.6617 58.1332C71.1426 57.8951 70.4855 57.7474 69.7665 57.7474C69.0474 57.7474 68.395 57.8903 67.876 58.1284L69.376 56.6998C69.5046 56.6903 69.6331 56.6855 69.7665 56.6855C69.8998 56.6855 70.0284 56.6903 70.1569 56.6998L71.6617 58.1332Z" fill="#98989A"></path><path d="M69.3809 56.3047V56.538C69.5094 56.5285 69.638 56.5238 69.7713 56.5238C69.9047 56.5238 70.0332 56.5285 70.1618 56.538V56.3047C70.1618 56.2142 69.9666 56.2142 69.919 56.2095C69.8713 56.2095 69.8237 56.2095 69.7761 56.2095C69.7285 56.2095 69.6809 56.2095 69.6285 56.2095C69.5761 56.2095 69.3856 56.2095 69.3856 56.3047H69.3809Z" fill="#98989A"></path><path d="M71.2051 65.7237C71.0479 65.6761 70.8813 65.6332 70.7051 65.5999V63.4189C70.8813 63.4523 71.0479 63.4951 71.2051 63.5428V65.7237Z" fill="#98989A"></path><path d="M70.4141 65.5521C70.2522 65.533 70.0855 65.5187 69.9141 65.514V63.333C70.0855 63.333 70.2522 63.3521 70.4141 63.3711V65.5521Z" fill="#98989A"></path><path d="M69.624 65.514C69.4526 65.514 69.2859 65.533 69.124 65.5521V63.3711C69.2859 63.3521 69.4526 63.3378 69.624 63.333V65.514Z" fill="#98989A"></path><path d="M68.834 65.5999C68.6626 65.6332 68.4911 65.6761 68.334 65.7237V63.5428C68.4911 63.4951 68.6578 63.4523 68.834 63.4189V65.5999Z" fill="#98989A"></path><path d="M71.205 68.7855C71.0383 68.7284 70.8717 68.6712 70.7002 68.6189C70.7002 68.4855 70.7002 67.5427 70.7002 67.5427V65.8617C70.7002 65.8617 71.0431 65.9379 71.2002 65.9855V68.7808L71.205 68.7855ZM70.4145 68.5427C70.2478 68.4998 70.0812 68.4569 69.9097 68.4189C69.9097 68.2903 69.9097 67.6284 69.9097 67.6284V65.7808C69.9097 65.7808 70.2478 65.7998 70.4097 65.8189V68.5427H70.4145ZM69.6288 67.6331V65.7855C69.4526 65.7855 69.124 65.8236 69.124 65.8236V67.6331C69.124 67.6331 69.1193 68.1093 69.1193 68.276C69.2907 68.2998 69.4621 68.3284 69.6336 68.3617M68.8336 67.7284V65.8665C68.6621 65.8998 68.3336 65.9903 68.3336 65.9903V67.9236C68.3336 67.9236 68.3336 67.9617 68.3336 68.1855C68.5002 68.1998 68.6621 68.2189 68.8288 68.2379M31.9526 67.4284V65.9903C31.7955 65.9427 31.4526 65.8665 31.4526 65.8665V68.295C31.4526 68.295 31.7812 68.2427 31.9478 68.2189V67.4331L31.9526 67.4284ZM31.1669 65.8189C31.005 65.7998 30.6669 65.7808 30.6669 65.7808V67.4998C30.6669 67.4998 30.6669 68.3046 30.6669 68.4427C30.8288 68.4093 30.9955 68.3712 31.1669 68.3427V65.8189ZM30.3812 68.5093C30.205 68.5522 30.0383 68.5903 29.8717 68.6379C29.8717 68.5189 29.8717 67.5046 29.8717 67.5046V65.8236C29.8717 65.8236 30.2002 65.7903 30.3717 65.7855V67.5046V68.5141L30.3812 68.5093ZM29.5812 68.7141C29.4097 68.7617 29.2431 68.8093 29.0859 68.8617C29.0859 68.5712 29.0859 67.7665 29.0859 67.7665V65.9903C29.0859 65.9903 29.4097 65.8998 29.5859 65.8665V68.7189L29.5812 68.7141Z" fill="#98989A"></path><path d="M48.4288 68.0044C49.105 68.3759 49.7526 68.5473 50.1764 68.6235C50.1859 68.6235 50.1907 68.6235 50.2002 68.6235C50.2288 68.6235 50.2573 68.614 50.2811 68.5949C50.3097 68.5711 50.3288 68.533 50.3335 68.4949C50.3621 67.7759 50.205 67.1378 50.1335 66.8949C50.124 66.8568 50.0954 66.8282 50.0621 66.814C49.2002 66.3997 48.505 65.9425 47.9954 65.4568C47.6192 65.1044 47.3478 64.7425 47.1907 64.3806C47.1716 64.3378 47.1288 64.3092 47.0811 64.3044C47.0335 64.2997 46.9859 64.3187 46.9573 64.3616C46.6716 64.7711 46.4669 65.2425 46.3573 65.7282C46.3526 65.7568 46.3573 65.7854 46.3669 65.814C46.7907 66.7521 47.4859 67.4901 48.4335 68.0044" fill="#DB2B27"></path><path d="M48.1717 65.2476C48.1955 65.2714 48.2289 65.2857 48.2622 65.2857H48.2717C48.3098 65.2857 48.3432 65.2618 48.367 65.2333C49.3717 63.8809 50.4717 63.3761 51.2146 63.1904C51.2717 63.1761 51.3146 63.1237 51.3146 63.0666C51.3146 63.0047 51.2813 62.9523 51.2241 62.9333C50.8479 62.8095 50.4527 62.7476 50.0479 62.7476C49.5384 62.7476 49.0384 62.8476 48.567 63.0523C48.1146 63.2428 47.7098 63.519 47.367 63.8618C47.3336 63.8952 47.3194 63.9428 47.3336 63.9856C47.386 64.2095 47.567 64.6761 48.167 65.2476" fill="#DB2B27"></path><path d="M48.5667 65.4237C48.5238 65.4809 48.5333 65.5618 48.5905 65.6094C49.0048 65.9332 49.5095 66.2428 50.0952 66.5332C50.1143 66.5428 50.1333 66.5475 50.1524 66.5475C50.1905 66.5475 50.2286 66.5332 50.2524 66.4999C50.6 66.0951 51.5952 65.1237 53.2571 64.8713C53.3 64.8666 53.3381 64.838 53.3572 64.7999C53.3762 64.7618 53.3762 64.7142 53.3572 64.6761C53.0667 64.1618 52.6476 63.7142 52.1571 63.3856C52.1381 63.3713 52.1095 63.3618 52.0857 63.3618C51.9381 63.3618 51.3714 63.3666 50.6571 63.6809C49.8667 64.0285 49.1667 64.6142 48.5714 65.4285" fill="#DB2B27"></path><path d="M53.6004 65.1951C53.5765 65.1379 53.5194 65.1046 53.4575 65.1093C53.1623 65.1474 52.8718 65.2093 52.5956 65.2951C52.5623 65.3046 52.5337 65.3284 52.5194 65.3617C52.5051 65.3951 52.5004 65.4284 52.5099 65.4665C52.6099 65.7665 52.7765 66.3808 52.8051 67.1046C52.8242 67.5617 52.7861 67.9998 52.6861 68.4046C52.6242 68.6712 52.5289 68.9284 52.4146 69.1712C52.3861 69.2284 52.4051 69.2998 52.4575 69.3379C52.4813 69.357 52.5099 69.3617 52.5384 69.3617C52.5718 69.3617 52.6051 69.3522 52.6289 69.3284C53.0432 68.9474 53.3575 68.4903 53.567 67.9665C53.9242 67.0808 53.9337 66.0951 53.5956 65.1998" fill="#DB2B27"></path><path d="M50.2528 68.9521C50.2338 68.9235 50.2005 68.9045 50.1671 68.895C49.7528 68.8188 49.1147 68.6569 48.4386 68.3092C47.6338 67.895 46.9862 67.3283 46.5147 66.6283C46.4814 66.5807 46.4195 66.5569 46.3624 66.5759C46.3052 66.595 46.2671 66.6473 46.2719 66.7092C46.2909 67.1616 46.3909 67.6045 46.5671 68.0283C46.8338 68.6521 47.2624 69.195 47.8052 69.595C48.329 69.9807 48.9433 70.2235 49.5909 70.3045C49.5957 70.3045 49.6005 70.3045 49.61 70.3045C49.6481 70.3045 49.6862 70.2902 49.71 70.2569C49.9909 69.9331 50.1814 69.5235 50.2766 69.0521C50.2814 69.0188 50.2766 68.9807 50.2576 68.9521" fill="#DB2B27"></path><path d="M52.2625 65.5712C52.253 65.5331 52.2244 65.5045 52.1911 65.4902C52.1578 65.4759 52.1149 65.4759 52.0816 65.4902C51.1768 65.895 50.6197 66.4807 50.4244 66.714C50.3959 66.7474 50.3864 66.795 50.4006 66.8378C50.4768 67.0902 50.6006 67.5997 50.6149 68.2093C50.6245 68.5902 50.5864 68.9521 50.5054 69.2759C50.4244 69.5854 50.3054 69.8712 50.1435 70.1235C50.1149 70.1664 50.1149 70.2188 50.1435 70.2616C50.1673 70.2997 50.2102 70.3283 50.2578 70.3283H50.2673C50.6483 70.3045 51.0292 70.2235 51.3959 70.0854C51.4102 70.0807 51.4292 70.0712 51.4387 70.0569C51.8292 69.6902 52.1244 69.2473 52.3102 68.7473C52.4673 68.3283 52.5483 67.8616 52.5483 67.3569C52.553 66.5807 52.3721 65.8997 52.2673 65.5664" fill="#DB2B27"></path><path d="M48.5478 72.5567V71.4282L48.2669 71.5377L48.2383 71.3329L48.5811 71.1758H48.8097V72.5615H48.5478V72.5567Z" fill="white"></path><path d="M49.1101 71.5141C49.1101 71.2951 49.3006 71.1475 49.5768 71.1475C49.853 71.1475 50.0339 71.2951 50.0339 71.4951C50.0339 71.6379 49.9435 71.7475 49.8101 71.8284C49.9815 71.9141 50.0815 72.0094 50.0815 72.1903C50.0815 72.4141 49.8863 72.5808 49.572 72.5808C49.2387 72.5808 49.0625 72.4046 49.0625 72.1951C49.0625 72.0379 49.1673 71.9141 49.3292 71.8284C49.1958 71.757 49.1101 71.6617 49.1101 71.5094V71.5141ZM49.3101 72.1808C49.3101 72.3094 49.4244 72.3903 49.572 72.3903C49.7196 72.3903 49.8244 72.3141 49.8244 72.1903C49.8244 72.0617 49.7435 72.0141 49.5101 71.9141C49.3911 71.9808 49.3101 72.0713 49.3101 72.1808ZM49.7911 71.5094C49.7911 71.4046 49.7101 71.3379 49.572 71.3379C49.4339 71.3379 49.3577 71.4141 49.3577 71.5094C49.3577 71.6141 49.4292 71.6665 49.6292 71.7475C49.7339 71.6856 49.7958 71.6046 49.7958 71.5094H49.7911Z" fill="white"></path><path d="M50.848 71.695C51.0861 71.695 51.2576 71.8473 51.2576 72.114C51.2576 72.3807 51.048 72.5807 50.7623 72.5807C50.4623 72.5807 50.248 72.3759 50.248 71.995C50.248 71.5092 50.5719 71.2426 51.0195 71.1426L51.0528 71.3616C50.7814 71.4235 50.5671 71.5521 50.5052 71.795C50.6052 71.7283 50.7147 71.6902 50.848 71.6902V71.695ZM50.7671 72.3807C50.91 72.3807 51.01 72.2854 51.01 72.1331C51.01 71.9807 50.9338 71.8997 50.7671 71.8997C50.6671 71.8997 50.5766 71.9378 50.4909 71.9997C50.4909 72.2426 50.6052 72.3807 50.7671 72.3807Z" fill="white"></path><path d="M51.6435 72.5567V71.4282L51.3626 71.5377L51.334 71.3329L51.6768 71.1758H51.9102V72.5615H51.6483L51.6435 72.5567Z" fill="white"></path><path d="M30.709 11.3384L31.1138 12.0717L28.8995 13.2955L29.2471 13.9289L31.2138 12.8431L31.6138 13.5717L29.6471 14.6574L30.1328 15.5336L29.2709 16.0098L27.6328 13.0431L30.709 11.3431V11.3384Z" fill="white"></path><path d="M36.2996 12.6237L35.7615 12.1523L33.8281 12.938L33.771 13.6523L32.79 14.0523L33.1329 10.2571L34.39 9.74756L37.2805 12.2285L36.3043 12.6237H36.2996ZM33.8948 12.1142L35.1329 11.6095L34.0138 10.6333L33.8948 12.1095V12.1142Z" fill="white"></path><path d="M41.3467 10.1764L40.7609 7.81927L41.7086 7.58594L42.5229 10.8764L41.1276 11.224L38.6038 9.34784L39.1895 11.705L38.2371 11.9431L37.4229 8.6526L38.8229 8.30499L41.3467 10.1812V10.1764Z" fill="white"></path><path d="M46.1182 6.96208L50.1991 6.79541L50.2324 7.62874L48.6848 7.69065L48.7896 10.243L47.8086 10.2811L47.7039 7.72874L46.1515 7.79065L46.1182 6.95731V6.96208Z" fill="white"></path><path d="M51.3903 8.49526C51.4855 7.37622 52.3141 6.78098 53.7379 6.90479C55.1569 7.0286 55.876 7.75717 55.7807 8.87145C55.6855 9.9905 54.8522 10.5905 53.4331 10.4715C52.0093 10.3476 51.295 9.61907 51.3903 8.49526ZM54.7569 8.78574C54.8093 8.20003 54.5045 7.80955 53.6664 7.73812C52.8331 7.66669 52.4665 7.9905 52.4188 8.58574C52.3665 9.18098 52.676 9.57145 53.5045 9.64288C54.3379 9.71431 54.7093 9.38098 54.7617 8.7905L54.7569 8.78574Z" fill="white"></path><path d="M61.6184 8.36693L59.6231 9.38121L60.8708 11.6765L59.666 11.405L58.7993 9.80502L57.8517 10.286L57.6993 10.9574L56.7422 10.7431L57.4898 7.43359L58.4517 7.65264L58.1184 9.13836L60.185 8.04788L61.6231 8.37169L61.6184 8.36693Z" fill="white"></path><path d="M66.3281 9.99553L66.0662 10.7193L63.6853 9.85744L63.4995 10.367L65.79 11.1955L65.5281 11.9193L63.2376 11.0908L63.0519 11.6003L65.4329 12.4622L65.171 13.186L61.8662 11.9908L63.0186 8.80029L66.3234 9.99553H66.3281Z" fill="white"></path><path d="M69.7616 14.3526L70.8759 12.1907L71.7473 12.6383L70.1902 15.6526L68.9092 14.9907L68.2473 11.9097L67.133 14.0716L66.2568 13.6193L67.814 10.605L69.0997 11.2669L69.7616 14.3478V14.3526Z" fill="white"></path><path d="M27.395 85.4763C27.2474 85.7192 27.395 86.0239 28.1569 86.4858C28.8569 86.9049 29.095 86.9001 29.2045 86.7192C29.3331 86.5097 29.2236 86.3906 28.395 85.8144C27.2665 85.024 26.8903 84.4763 27.276 83.8335C27.6426 83.2287 28.4617 83.3478 29.4665 83.9525C30.5855 84.6239 31.0236 85.3525 30.6617 86.0144L29.7807 85.4859C29.9331 85.2287 29.7141 84.962 29.0617 84.5716C28.4426 84.2001 28.2426 84.2192 28.1474 84.3763C28.0379 84.5573 28.1474 84.6954 28.895 85.2335C29.9141 85.9573 30.5617 86.4478 30.1045 87.2097C29.6569 87.9525 28.8379 87.7573 27.8045 87.1335C26.6284 86.4239 26.0903 85.7382 26.5093 84.9478L27.3903 85.4811L27.395 85.4763Z" fill="white"></path><path d="M31.5236 87.1909C31.9712 86.1576 32.9426 85.8623 34.2569 86.429C35.5664 86.9957 36.014 87.9147 35.5712 88.9433C35.1236 89.9766 34.1426 90.2814 32.8331 89.7147C31.5188 89.148 31.0759 88.229 31.5236 87.1909ZM34.6283 88.5385C34.8616 87.9957 34.695 87.5338 33.9236 87.1957C33.1569 86.8623 32.7045 87.0576 32.4712 87.6004C32.2331 88.1481 32.4045 88.6147 33.1664 88.948C33.9331 89.2814 34.395 89.0814 34.6283 88.5338V88.5385Z" fill="white"></path><path d="M39.295 88.2146C40.495 88.5527 41.0331 89.2574 40.895 90.1241L39.8902 89.8431C39.9093 89.5241 39.6759 89.186 39.0712 89.0193C38.3712 88.8241 37.9378 89.0717 37.7759 89.6431C37.614 90.2193 37.8616 90.6622 38.5569 90.8574C39.1616 91.0241 39.5378 90.8574 39.6854 90.5669L40.6902 90.8479C40.3569 91.6669 39.5331 91.9955 38.3283 91.6622C37.0188 91.2955 36.4712 90.486 36.7807 89.3669C37.095 88.2527 37.9807 87.8479 39.2902 88.2146H39.295Z" fill="white"></path><path d="M43.3948 89.2289L42.7948 92.5623L41.8281 92.3861L42.4281 89.0527L43.3948 89.2289Z" fill="white"></path><path d="M44.4184 91.1481C44.5089 90.029 45.3327 89.4338 46.7565 89.5481C48.1756 89.6624 48.8994 90.3909 48.8041 91.5052C48.7137 92.6243 47.8851 93.229 46.4613 93.1147C45.0375 93.0005 44.3184 92.2719 44.4136 91.1481H44.4184ZM47.7851 91.4243C47.8327 90.8386 47.5279 90.4528 46.6898 90.3814C45.8565 90.3148 45.4946 90.6433 45.4422 91.2338C45.3946 91.829 45.7041 92.2148 46.5327 92.2862C47.366 92.3528 47.7375 92.0195 47.7851 91.4243Z" fill="white"></path><path d="M51.1193 92.048C51.1336 92.3337 51.424 92.5051 52.3145 92.4575C53.1288 92.4146 53.324 92.2766 53.3097 92.0623C53.2955 91.8146 53.1431 91.7813 52.1336 91.767C50.7574 91.7432 50.1336 91.5004 50.0955 90.748C50.0574 90.0432 50.805 89.6813 51.9764 89.6242C53.2812 89.5575 54.0526 89.9099 54.1193 90.6623L53.0955 90.7146C53.0812 90.4146 52.7478 90.3194 51.9859 90.3575C51.2669 90.3956 51.1097 90.5242 51.1193 90.7051C51.1288 90.9146 51.2955 90.9718 52.2193 91.0004C53.4669 91.0289 54.2812 91.0718 54.3288 91.9623C54.3716 92.8289 53.5859 93.1242 52.3812 93.1861C51.0097 93.2575 50.1764 92.9861 50.0859 92.0956L51.1145 92.0432L51.1193 92.048Z" fill="white"></path><path d="M55.743 92.0434L56.6811 91.9053L56.7859 92.6338L55.8478 92.7719L55.7383 92.0434H55.743Z" fill="white"></path><path d="M59.4803 88.5387C60.6946 88.2434 61.5089 88.5958 61.8137 89.4196L60.7994 89.6673C60.6613 89.3768 60.2898 89.2006 59.6803 89.3482C58.9756 89.5196 58.7184 89.9482 58.8565 90.5292C58.9994 91.1101 59.4327 91.3768 60.1327 91.2054C60.7422 91.0577 60.9898 90.7244 60.9756 90.3958L61.9898 90.1482C62.0994 91.0244 61.5422 91.7196 60.3279 92.0149C59.0041 92.3387 58.1279 91.9006 57.8518 90.772C57.5756 89.6482 58.1518 88.8625 59.4756 88.5387H59.4803Z" fill="white"></path><path d="M63.1522 89.3956C62.7379 88.348 63.2189 87.4527 64.5474 86.9242C65.8712 86.4003 66.8427 86.7337 67.2522 87.7765C67.6665 88.8242 67.1855 89.7337 65.8617 90.2575C64.5331 90.7813 63.5665 90.448 63.1522 89.3956ZM66.2998 88.1527C66.0855 87.6051 65.6379 87.3908 64.857 87.7003C64.0808 88.0051 63.8951 88.4622 64.1141 89.0146C64.3331 89.5718 64.7855 89.7813 65.557 89.4765C66.3331 89.1718 66.5189 88.7051 66.2998 88.1527Z" fill="white"></path><path d="M69.3327 88.6956L67.6279 85.7623L68.9517 84.9908L71.1041 86.3432L70.9898 83.8051L72.3136 83.0337L74.0184 85.967L73.1708 86.4575L71.9375 84.3337L72.0708 87.1004L71.2851 87.5575L68.947 86.0765L70.1851 88.2004L69.3327 88.6956Z" fill="white"></path><path d="M23.019 81.8382C13.9952 74.1811 8.2666 62.7573 8.2666 50.0001C8.2666 37.243 14.2999 25.2144 23.738 17.562" stroke="#DB2B27" stroke-miterlimit="10"></path><path d="M76.2666 17.5669C85.7047 25.2193 91.7333 36.905 91.7333 50.0002C91.7333 63.0955 86.0047 74.1859 76.9809 81.8431" stroke="#DB2B27" stroke-miterlimit="10"></path></g><defs><clipPath id="clip0_101_22051"><rect width="100" height="100" fill="white"></rect></clipPath></defs></svg>