<svg xmlns="http://www.w3.org/2000/svg" width="100" height="100" viewBox="0 0 100 100" fill="none"><g clip-path="url(#clip0_101_22123)"><path d="M50 100C77.6142 100 100 77.6142 100 50C100 22.3858 77.6142 0 50 0C22.3858 0 0 22.3858 0 50C0 77.6142 22.3858 100 50 100Z" fill="#005596"></path><path d="M49.9999 98.7333C76.9146 98.7333 98.7333 76.9146 98.7333 49.9999C98.7333 23.0853 76.9146 1.2666 49.9999 1.2666C23.0853 1.2666 1.2666 23.0853 1.2666 49.9999C1.2666 76.9146 23.0853 98.7333 49.9999 98.7333Z" fill="#005596"></path><path d="M50 2.53333C76.1714 2.53333 97.4667 23.8286 97.4667 50C97.4667 76.1714 76.1714 97.4667 50 97.4667C23.8286 97.4667 2.53333 76.1714 2.53333 50C2.53333 23.8286 23.8286 2.53333 50 2.53333ZM50 0C22.3857 0 0 22.3857 0 50C0 77.6143 22.3857 100 50 100C77.6143 100 100 77.6143 100 50C100 22.3857 77.6143 0 50 0Z" fill="#005596"></path><path d="M50 100C77.6142 100 100 77.6142 100 50C100 22.3858 77.6142 0 50 0C22.3858 0 0 22.3858 0 50C0 77.6142 22.3858 100 50 100Z" fill="#00019E"></path><path d="M50 2.53333C76.1714 2.53333 97.4667 23.8286 97.4667 50C97.4667 76.1714 76.1714 97.4667 50 97.4667C23.8286 97.4667 2.53333 76.1714 2.53333 50C2.53333 23.8286 23.8286 2.53333 50 2.53333ZM50 0C22.3857 0 0 22.3857 0 50C0 77.6143 22.3857 100 50 100C77.6143 100 100 77.6143 100 50C100 22.3857 77.6143 0 50 0Z" fill="white"></path><path d="M30.5522 61.0525L30.4046 60.8096C30.3713 60.7572 30.3665 60.7001 30.3903 60.6429L30.9999 59.081L29.8856 59.762C29.8237 59.8001 29.7808 59.7858 29.7475 59.7286L29.5856 59.462C29.5475 59.3953 29.5427 59.3572 29.6094 59.3144L31.4237 58.1905C31.4999 58.1429 31.5332 58.1715 31.5713 58.2286L31.7189 58.4715C31.7522 58.5286 31.7522 58.5667 31.7332 58.6286L31.1141 60.1953L32.2379 59.5048C32.2999 59.4667 32.3427 59.4858 32.376 59.5429L32.5475 59.8239C32.5951 59.9001 32.557 59.9286 32.5094 59.9572L30.6999 61.0763C30.6237 61.1239 30.5903 61.1001 30.5618 61.0477L30.5522 61.0525ZM33.2951 61.4048L33.1856 61.262L31.8808 62.2715L31.9856 62.4048C32.0189 62.4477 32.0046 62.4953 31.9665 62.5239L31.8237 62.6334C31.7903 62.6572 31.7475 62.6572 31.7189 62.6239L31.1951 61.9334C31.1665 61.8953 31.1713 61.8429 31.2046 61.8191L31.3475 61.7096C31.3951 61.6715 31.438 61.681 31.4665 61.7239L31.5618 61.8477L32.8665 60.8382L32.757 60.6953C32.7237 60.6525 32.738 60.6048 32.776 60.5763L32.9189 60.4667C32.9522 60.4429 32.9951 60.4429 33.0237 60.4763L33.5713 61.1953C33.5999 61.2334 33.5951 61.2858 33.5618 61.3096L33.4189 61.4191C33.3713 61.4572 33.3284 61.4477 33.2999 61.4048H33.2951ZM33.3094 64.4429L32.4427 63.5001C32.3951 63.4477 32.3808 63.4096 32.4475 63.3477L34.0141 61.8953C34.057 61.8524 34.1046 61.8525 34.1475 61.9001L34.376 62.1525C34.4284 62.2096 34.4284 62.2429 34.3713 62.2953L33.0618 63.5096L33.6427 64.1429C33.6856 64.1905 33.6808 64.2382 33.6332 64.281L33.4475 64.4572C33.3951 64.5096 33.3475 64.4905 33.3094 64.4477V64.4429ZM35.276 66.2906C35.1046 66.1525 34.9284 65.9525 34.8046 65.7525C34.7713 65.7048 34.776 65.6763 34.7951 65.6524C34.8046 65.6382 34.8237 65.6286 34.8427 65.6144L35.0856 65.4572C35.1141 65.4382 35.1475 65.4239 35.1808 65.4525C35.1951 65.462 35.2046 65.4763 35.2189 65.5001C35.3046 65.6525 35.4284 65.8048 35.5618 65.9144C35.6713 66.0048 35.857 66.0572 35.9618 65.9286C36.0427 65.8286 36.0046 65.7144 35.9522 65.6144L35.7332 65.1667C35.6094 64.9191 35.6141 64.6525 35.7903 64.4334C36.0618 64.0953 36.5475 64.181 36.8522 64.4334C37.0427 64.5858 37.176 64.7525 37.2808 64.9572C37.3094 65.0096 37.3094 65.0429 37.2903 65.0667C37.2808 65.0763 37.2665 65.0858 37.2475 65.0953L36.9999 65.2334C36.9618 65.2572 36.9332 65.2572 36.9094 65.2382C36.8951 65.2286 36.8856 65.2096 36.8713 65.1858C36.8046 65.0525 36.6903 64.9001 36.5856 64.8144C36.4808 64.7286 36.3332 64.6715 36.2332 64.7953C36.1665 64.881 36.2284 65.0191 36.2713 65.1001L36.4618 65.481C36.5903 65.7429 36.6094 65.9953 36.4189 66.2334C36.1141 66.6096 35.638 66.5858 35.276 66.2953V66.2906ZM38.1618 68.2763L37.8475 68.0715C37.7808 68.0286 37.776 67.981 37.7903 67.9191L37.8903 67.5191L37.7903 67.4524L37.2951 67.1286L37.1951 67.062L36.8618 67.3286C36.8284 67.3572 36.7856 67.3763 36.7332 67.3429L36.4141 67.1334C36.3856 67.1144 36.3808 67.0858 36.3999 67.0572C36.4094 67.0477 36.4141 67.0334 36.4284 67.0286L38.276 65.6524C38.3189 65.6191 38.3665 65.6096 38.4189 65.6429L38.7094 65.8334C38.7665 65.8715 38.7808 65.9144 38.7713 65.962L38.2856 68.2144C38.2856 68.2144 38.276 68.2525 38.2665 68.262C38.2427 68.2953 38.2094 68.3048 38.1713 68.281L38.1618 68.2763ZM38.1713 66.4239C38.1903 66.3477 38.2094 66.2858 38.2284 66.2286H38.2237C38.176 66.2667 38.1237 66.3144 38.0665 66.3572L37.5284 66.7953L37.9903 67.1001L38.176 66.4239H38.1713ZM40.9999 67.5286C40.9618 67.5858 40.9141 67.581 40.8522 67.5477L40.3284 67.2715L39.4903 68.8858C39.457 68.9525 39.4427 68.9572 39.3808 68.9286L39.0427 68.7525C38.9808 68.7191 38.9808 68.7096 39.0094 68.6429L39.8522 67.0239L39.3094 66.7382C39.2475 66.7048 39.2427 66.6667 39.2713 66.6048L39.3856 66.381C39.4141 66.3286 39.4522 66.3191 39.5046 66.3477L40.957 67.1096L41.1094 67.1905C41.1618 67.2191 41.1713 67.2525 41.1522 67.2905C41.1522 67.2905 41.1522 67.2953 41.1475 67.3048L40.9999 67.5286ZM42.4332 68.1096L42.2665 68.0429L41.6522 69.5763L41.8094 69.6382C41.857 69.6572 41.8713 69.7048 41.8522 69.7477L41.7856 69.9144C41.7713 69.9525 41.7332 69.9763 41.6903 69.9572L40.8903 69.6334C40.8427 69.6144 40.8284 69.5667 40.838 69.5334L40.9046 69.3667C40.9284 69.3096 40.9665 69.3001 41.0141 69.3191L41.157 69.3763L41.7713 67.8429L41.6046 67.7763C41.557 67.7572 41.5427 67.7096 41.5618 67.662L41.6284 67.4953C41.6427 67.4572 41.6808 67.4334 41.7237 67.4524L42.557 67.7905C42.6046 67.8096 42.6189 67.8572 42.6094 67.8906L42.5427 68.062C42.5189 68.1191 42.4808 68.1334 42.4332 68.1096ZM43.2284 70.5382C43.0189 70.4763 42.776 70.3572 42.5903 70.2191C42.5427 70.1858 42.5332 70.162 42.5427 70.1286C42.5475 70.1144 42.5618 70.0953 42.5713 70.0763L42.738 69.8429C42.757 69.8144 42.7808 69.7905 42.8237 69.8001C42.838 69.8048 42.857 69.8144 42.876 69.8286C43.0141 69.9382 43.1856 70.0334 43.3475 70.081C43.4808 70.1239 43.676 70.1001 43.7237 69.9429C43.7618 69.8191 43.6808 69.7286 43.5951 69.6525L43.2237 69.3191C43.0189 69.1382 42.9189 68.8905 43.0046 68.6191C43.1284 68.2048 43.6094 68.0953 43.9856 68.2096C44.2189 68.281 44.4046 68.381 44.5808 68.5286C44.6237 68.5667 44.638 68.5953 44.6284 68.6239C44.6284 68.6382 44.6141 68.6525 44.5999 68.6667L44.4237 68.8905C44.3951 68.9286 44.3713 68.9382 44.3427 68.9286C44.3284 68.9286 44.3094 68.9096 44.2903 68.8953C44.176 68.7953 44.0141 68.7001 43.8856 68.6572C43.757 68.6191 43.5951 68.6239 43.5522 68.7763C43.5189 68.881 43.6284 68.9858 43.6999 69.0429L44.0189 69.3239C44.238 69.5191 44.3522 69.7429 44.2618 70.0382C44.1237 70.5048 43.6713 70.662 43.2284 70.5286V70.5382ZM48.0618 71.4334L47.776 71.4001C47.7141 71.3905 47.6665 71.362 47.638 71.3096L46.8094 69.8525H46.8046L46.6427 71.1572C46.6332 71.2334 46.5951 71.2525 46.5284 71.2429L46.2189 71.2048C46.1427 71.1953 46.1094 71.1763 46.1189 71.0953L46.3808 68.9715C46.3903 68.8858 46.4332 68.8715 46.5046 68.881L46.7856 68.9144C46.8522 68.9239 46.8808 68.9477 46.9141 69.0001L47.7427 70.4667H47.7475L47.9094 69.1525C47.9189 69.081 47.957 69.062 48.0237 69.0667L48.3475 69.1096C48.4332 69.1191 48.4332 69.1667 48.4284 69.2239L48.1665 71.3429C48.157 71.4286 48.1189 71.4429 48.057 71.4334H48.0618ZM50.1475 69.5001H49.9665L49.9427 71.1525H50.1094C50.1618 71.1525 50.1903 71.1953 50.1903 71.2429V71.4239C50.1903 71.4667 50.157 71.5001 50.1141 71.5001L49.2522 71.4858C49.1999 71.4858 49.1665 71.4477 49.1713 71.4096V71.2286C49.1713 71.1667 49.2094 71.1429 49.257 71.1429H49.4141L49.438 69.4905H49.2618C49.2094 69.4905 49.1808 69.4477 49.1808 69.4001V69.2191C49.1808 69.1763 49.2094 69.1429 49.257 69.1429L50.157 69.1572C50.2094 69.1572 50.238 69.1953 50.238 69.2334V69.4144C50.238 69.4763 50.1999 69.5001 50.1522 69.5001H50.1475ZM51.8141 71.4715C51.5951 71.4905 51.3284 71.4667 51.1046 71.4048C51.0475 71.3905 51.0332 71.3715 51.0284 71.3382C51.0284 71.3191 51.0284 71.3001 51.038 71.281L51.1046 71.0001C51.1141 70.9667 51.1284 70.9334 51.1713 70.9286C51.1903 70.9286 51.2046 70.9286 51.2284 70.9382C51.3999 70.9905 51.5903 71.0144 51.7618 71.0001C51.9046 70.9906 52.076 70.9001 52.0618 70.7334C52.0522 70.6048 51.9475 70.5477 51.838 70.5096L51.3713 70.3382C51.1141 70.2429 50.9332 70.0477 50.9094 69.7667C50.876 69.3334 51.2856 69.0572 51.676 69.0286C51.9189 69.0096 52.1284 69.0382 52.3475 69.1096C52.4046 69.1286 52.4237 69.1525 52.4284 69.181C52.4284 69.1953 52.4284 69.2096 52.4189 69.2334L52.338 69.5048C52.3237 69.5525 52.3046 69.5667 52.276 69.5715C52.257 69.5715 52.238 69.5715 52.2141 69.5572C52.0713 69.5096 51.8856 69.4763 51.7522 69.4858C51.6189 69.4953 51.4713 69.5572 51.4856 69.7191C51.4951 69.8286 51.6332 69.8858 51.7189 69.9144L52.1189 70.0572C52.3951 70.1572 52.5808 70.3239 52.6046 70.6334C52.6427 71.1191 52.2808 71.4334 51.8189 71.4667L51.8141 71.4715ZM54.0903 69.1001L53.9094 69.1334L54.1903 70.762L54.357 70.7334C54.4094 70.7239 54.4427 70.7572 54.4522 70.8048L54.4808 70.981C54.4856 71.0191 54.4665 71.062 54.4189 71.0715L53.5665 71.2191C53.5189 71.2286 53.476 71.1953 53.4713 71.162L53.438 70.981C53.4284 70.9191 53.457 70.8905 53.5046 70.881L53.657 70.8524L53.376 69.2239L53.1999 69.2524C53.1475 69.262 53.1141 69.2286 53.1046 69.181L53.076 69.0048C53.0713 68.9667 53.0903 68.9239 53.1379 68.9144L54.0237 68.7572C54.0713 68.7477 54.1141 68.781 54.1189 68.8144L54.1522 68.9953C54.1618 69.0572 54.1332 69.0858 54.0856 69.0953L54.0903 69.1001ZM57.4522 70.3096C56.8094 70.5239 56.2999 70.1905 56.0665 69.5001C55.8379 68.8144 56.0618 68.2048 56.6951 67.9905C57.3618 67.7667 57.8618 68.1477 58.0808 68.8001C58.3237 69.5191 58.0522 70.1096 57.4522 70.3096ZM56.8284 68.4286C56.5522 68.5239 56.4475 68.8334 56.6046 69.3048C56.776 69.8096 57.0189 69.9715 57.3237 69.8715C57.6046 69.7763 57.7094 69.4858 57.5427 68.9905C57.3713 68.4763 57.1332 68.3239 56.8284 68.4286ZM59.457 68.6239C59.4189 68.6429 59.3189 68.681 59.2856 68.6905L59.576 69.3239C59.5999 69.3763 59.5951 69.4144 59.5237 69.4477L59.2189 69.5905C59.1618 69.6144 59.1189 69.6096 59.0856 69.5382L58.1903 67.6001C58.157 67.5239 58.1665 67.4953 58.238 67.462L58.7141 67.2382C59.0665 67.0715 59.3427 67.0191 59.576 67.1191C59.7427 67.1905 59.876 67.3334 59.9522 67.4953C60.1808 67.9906 59.9284 68.4001 59.4618 68.6191L59.457 68.6239ZM58.957 67.5858L58.8094 67.6572L59.1189 68.3239C59.1618 68.3096 59.2618 68.262 59.2856 68.2525C59.5141 68.1477 59.5808 67.9763 59.476 67.7525C59.3665 67.5191 59.1903 67.4858 58.9618 67.5905L58.957 67.5858ZM61.776 65.962C61.8046 66.0239 61.7761 66.062 61.7141 66.0953L61.2046 66.4001L62.1332 67.962C62.1713 68.0239 62.1713 68.0429 62.1141 68.0763L61.7856 68.2715C61.7237 68.3096 61.7141 68.3048 61.6761 68.2429L60.7427 66.6763L60.2141 66.9953C60.157 67.0286 60.1141 67.0144 60.0808 66.9572L59.9522 66.7429C59.9237 66.6953 59.9332 66.6572 59.9856 66.6239L61.3903 65.781L61.538 65.6905C61.5903 65.6572 61.6237 65.6715 61.6475 65.7096C61.6475 65.7096 61.6475 65.7144 61.6522 65.7191L61.7665 65.962H61.776ZM63.0189 65.0382L62.8713 65.1477L63.8522 66.481L63.9856 66.381C64.0284 66.3477 64.076 66.3667 64.0999 66.4048L64.2046 66.5477C64.2284 66.581 64.2284 66.6239 64.1903 66.6525L63.4951 67.1667C63.4522 67.1953 63.4046 67.1858 63.3856 67.1572L63.2761 67.0096C63.238 66.962 63.2522 66.9191 63.2903 66.8905L63.4141 66.8001L62.4332 65.4667L62.2903 65.5715C62.2475 65.6048 62.1999 65.5858 62.1713 65.5477L62.0665 65.4048C62.0427 65.3715 62.0427 65.3239 62.0808 65.3001L62.8046 64.762C62.8475 64.7334 62.8951 64.7429 62.9141 64.7715L63.0237 64.9191C63.0618 64.9667 63.0475 65.0096 63.0094 65.0382H63.0189ZM66.7237 64.4334L66.4761 64.662C66.4141 64.7239 66.3665 64.7048 66.2999 64.6334L65.4903 63.8048L65.9427 65.0525C65.9665 65.1191 65.9427 65.1572 65.9094 65.1858L65.8189 65.2715C65.7713 65.3144 65.7379 65.3334 65.6665 65.3048L64.4141 64.8048H64.4094L65.1999 65.7001C65.2618 65.7715 65.238 65.8048 65.1856 65.8572L64.9808 66.0429C64.9237 66.0953 64.8808 66.1001 64.8284 66.0477C64.8284 66.0477 64.8284 66.0429 64.8237 66.0382L63.4522 64.4144C63.3999 64.3525 63.4094 64.3096 63.4522 64.262L63.6284 64.0953C63.6856 64.0429 63.7237 64.0429 63.7903 64.0667L65.3665 64.681H65.3713L64.8332 63.0953C64.8141 63.0334 64.8189 62.9858 64.8713 62.9334L65.0427 62.7715C65.0903 62.7239 65.1237 62.7286 65.1665 62.7715L66.7046 64.281C66.7046 64.281 66.7046 64.281 66.7094 64.2905C66.7522 64.3382 66.7522 64.381 66.7094 64.4239L66.7237 64.4334ZM68.0141 63.0191C67.5713 63.5525 67.0808 63.5525 66.5332 63.0953L65.6094 62.3239C65.557 62.281 65.5713 62.2334 65.6094 62.1858L65.8237 61.9286C65.8665 61.881 65.8999 61.862 65.9522 61.9096L66.8427 62.6525C67.2475 62.9906 67.4808 62.9477 67.6808 62.7048C67.8713 62.4763 67.8665 62.2382 67.4665 61.9001L66.5713 61.1525C66.5189 61.1096 66.5284 61.0667 66.5713 61.0191L66.7856 60.762C66.8284 60.7144 66.8618 60.7001 66.9141 60.7429L67.8332 61.5096C68.4141 61.9953 68.4284 62.5096 68.0141 63.0096V63.0191ZM70.4856 59.3763L70.3094 59.662C70.2618 59.7382 70.2141 59.7286 70.1332 59.681L69.138 59.1001L69.8999 60.1858C69.9427 60.2429 69.9237 60.2858 69.8999 60.3239L69.8332 60.4286C69.7999 60.481 69.7713 60.5096 69.6951 60.5001L68.357 60.3477L69.3522 61.0048C69.4332 61.0572 69.4189 61.0953 69.3808 61.1572L69.2332 61.3905C69.1903 61.4572 69.1475 61.4715 69.0903 61.4382C69.0903 61.4382 69.0856 61.4382 69.0808 61.4334L67.3332 60.2286C67.2665 60.181 67.2618 60.1382 67.2951 60.081L67.4237 59.8763C67.4665 59.8096 67.5046 59.8001 67.5713 59.8048L69.2522 59.981L68.3189 58.5905C68.2856 58.5382 68.2761 58.4858 68.3189 58.4239L68.4427 58.2239C68.4808 58.1667 68.5094 58.1572 68.5618 58.1905L70.438 59.2382C70.438 59.2382 70.4427 59.2382 70.4475 59.2429C70.4999 59.2763 70.5094 59.3191 70.4808 59.3715L70.4856 59.3763Z" fill="white"></path><path d="M73.619 56.3764C73.619 56.3764 73.5905 56.3335 73.5666 56.324L70.6238 55.1669C70.6762 54.9621 70.7857 54.6669 70.9857 54.3669L72.5047 55.0526C72.5524 55.0764 72.6047 55.0859 72.6571 55.0859C72.7952 55.0859 72.9238 55.0097 72.9904 54.8859C73.0333 54.8192 73.1476 54.6288 73.2476 54.3716C73.4 53.9669 73.4333 53.6097 73.3476 53.305C73.2571 52.9907 73.0333 52.743 72.7047 52.5954L68.6524 50.6954C68.6524 50.6954 68.6381 50.6859 68.6285 50.6811H68.6238C68.4238 50.5859 67.9714 50.4621 67.4524 50.843C67.4571 50.6669 67.4619 50.4859 67.4619 50.3097C67.4619 49.3145 67.2952 48.0097 67.1333 47.1621C66.9476 46.1145 66.5857 44.8573 66.3333 44.1335L66.1143 43.4716V43.4573C65.9524 43.0288 65.8047 42.5907 65.6714 42.1573C65.2333 40.7288 64.9714 39.405 64.9714 38.624C64.9714 37.2859 66.1381 35.2002 67.6809 33.7764L68.4047 33.1097L61.0619 26.3192L60.4809 26.705C59.1381 27.6002 57.3952 28.0954 55.5809 28.0954C53.6762 28.0954 51.8762 27.5621 50.5095 26.5859L49.9952 26.2192L49.4809 26.5859C48.1143 27.5573 46.3143 28.0954 44.4095 28.0954C42.5047 28.0954 40.8571 27.6002 39.5095 26.705L38.9285 26.3192L32.2952 32.4526L31.5857 33.1097L32.3095 33.7764C33.8524 35.2002 35.019 37.2859 35.019 38.624C35.019 39.405 34.7571 40.7288 34.319 42.1573C34.1857 42.5954 34.0381 43.0335 33.8809 43.4573L33.6571 44.1288C33.4 44.8573 33.0428 46.1145 32.8571 47.1573C32.6952 48.0097 32.5285 49.3145 32.5285 50.3097C32.5285 50.4859 32.5285 50.6669 32.5381 50.843C32.019 50.4621 31.5666 50.5859 31.3666 50.6764H31.3619C31.3619 50.6764 31.3428 50.6859 31.3381 50.6907L27.2857 52.5907C26.9571 52.7383 26.7333 52.9811 26.6428 53.3002C26.5524 53.605 26.5857 53.9669 26.7428 54.3669C26.8381 54.624 26.9571 54.8145 27 54.8811C27.0666 55.005 27.1952 55.0811 27.3333 55.0811C27.3857 55.0811 27.4381 55.0716 27.4857 55.0478L29.0047 54.3621C29.2047 54.6621 29.3143 54.9573 29.3666 55.1621L26.4238 56.3192C26.4 56.3288 26.3809 56.3478 26.3714 56.3716C26.3619 56.3954 26.3619 56.424 26.3714 56.4478L26.5476 56.9002C28.3857 61.6097 31.5143 65.6335 35.5857 68.543C39.3714 71.243 43.8047 72.824 48.4047 73.1145L49.919 74.6526C49.919 74.6526 49.9619 74.6811 49.9857 74.6811C50.0095 74.6811 50.0333 74.6716 50.0524 74.6526L51.5666 73.1145C56.1714 72.824 60.6047 71.2478 64.3857 68.543C68.4619 65.6383 71.5857 61.6097 73.4238 56.9002L73.6 56.4478C73.6095 56.424 73.6095 56.3954 73.6 56.3716L73.619 56.3764ZM68.9619 52.8192C69.1095 52.4288 69.1571 52.0192 69.0952 51.6764C69.0952 51.6526 69.0857 51.624 69.0809 51.6002L69.0381 51.4097L72.5047 53.0383C72.7095 53.1288 72.8333 53.2621 72.8857 53.443C72.9952 53.8192 72.7666 54.305 72.6619 54.5002L72.619 54.5811L68.9238 52.9145L68.9571 52.8288L68.9619 52.8192ZM67.3666 51.9478C67.6381 51.5097 67.9285 51.2621 68.1857 51.2621L68.3666 51.305C68.4905 51.3669 68.5857 51.5335 68.6238 51.7573C68.6762 52.0526 68.6238 52.3954 68.4762 52.7335L68.4476 52.805C68.4476 52.805 68.4476 52.8097 68.4428 52.8192C68.3714 53.0145 68.4571 53.2288 68.6476 53.3145L68.9762 53.4621L70.4285 54.1145L70.0571 54.9478L67.8905 54.0954C67.8285 54.0716 67.7619 54.0573 67.7 54.0573C67.5285 54.0573 67.3762 54.143 67.2762 54.2954L67.2666 54.3097C67.2047 54.4145 67.0238 54.6478 66.8619 54.6811C66.8476 54.6811 66.8381 54.6811 66.8285 54.6811C66.819 54.6811 66.8047 54.6811 66.7952 54.6811C67.0714 53.7907 67.2619 52.8764 67.3619 51.9526L67.3666 51.9478ZM66.819 55.2907C66.8762 55.2907 66.9333 55.2811 66.9904 55.2669C67.3047 55.1907 67.5714 54.843 67.7 54.6526C67.7143 54.6383 67.7333 54.624 67.7524 54.624C67.7619 54.624 67.7714 54.624 67.7762 54.6288L67.9571 54.705L68.1095 54.7621C67.9428 55.1764 67.6904 55.7716 67.4619 56.243L66.3762 55.843C66.4238 55.7097 66.5428 55.3764 66.5857 55.243C66.6619 55.2716 66.7428 55.2859 66.819 55.2859V55.2907ZM67.2238 56.7192C65.7666 59.5288 63.6809 61.9431 61.1095 63.7811C58.1476 65.8954 54.7047 67.1002 51.0904 67.3097L52.1952 66.1859C56.3143 65.7145 60.1238 63.9002 62.9238 61.0716C64.319 59.6669 65.4143 58.0621 66.1809 56.3335L67.2238 56.7192ZM33.7476 47.324C33.9333 46.2811 34.2904 45.0573 34.5143 44.424L34.7285 43.7716C34.8952 43.3192 35.0476 42.8669 35.1809 42.4192C35.6428 40.9145 35.919 39.505 35.919 38.6192C35.919 36.924 34.5524 34.6145 32.9333 33.1145L32.919 33.1002L39.0238 27.4526C40.4619 28.4097 42.3476 28.9907 44.4143 28.9907C46.4809 28.9907 48.5381 28.3573 49.9952 27.3192C51.4524 28.3573 53.419 28.9907 55.5762 28.9907C57.7333 28.9907 59.5285 28.4097 60.9666 27.4526L67.0762 33.1002L67.0619 33.1145C65.4476 34.6145 64.0762 36.924 64.0762 38.6192C64.0762 39.505 64.3571 40.9192 64.8143 42.4192C64.9524 42.8669 65.1047 43.3192 65.2666 43.7716L65.4809 44.424C65.7047 45.0573 66.0619 46.2859 66.2476 47.324C66.4095 48.1764 66.5619 49.4145 66.5619 50.305C66.5619 58.0954 60.0857 64.5097 51.7762 65.3192L49.9952 67.1288L48.2143 65.3192C39.9 64.5097 33.4285 58.0954 33.4285 50.305C33.4285 49.4097 33.5762 48.1716 33.7428 47.324H33.7476ZM48.919 67.3097C45.3047 67.105 41.8619 65.8954 38.9 63.7811C36.3238 61.9431 34.2381 59.5288 32.7857 56.7192L33.8285 56.3335C34.5952 58.0621 35.6904 59.6669 37.0857 61.0716C39.8904 63.8954 43.7 65.7097 47.819 66.1859L48.9238 67.3097H48.919ZM33.6333 55.8526L32.5476 56.2526C32.319 55.7764 32.0666 55.1859 31.9 54.7716L32.0524 54.7145L32.2285 54.6383C32.2285 54.6383 32.2428 54.6335 32.2524 54.6335C32.2762 54.6335 32.2952 54.643 32.3047 54.6621C32.4333 54.8526 32.7 55.1954 33.0143 55.2764C33.0714 55.2907 33.1285 55.3002 33.1857 55.3002C33.2666 55.3002 33.3428 55.2859 33.419 55.2573C33.4619 55.3907 33.5857 55.7288 33.6285 55.8573L33.6333 55.8526ZM31.3571 53.3097C31.5428 53.224 31.6333 53.0097 31.5619 52.8145C31.5619 52.8097 31.5619 52.805 31.5571 52.8002L31.5285 52.7288C31.3809 52.3954 31.3285 52.0478 31.3809 51.7526C31.419 51.5288 31.5143 51.3621 31.6381 51.3002L31.6571 51.2907C31.7095 51.2669 31.7666 51.2573 31.819 51.2573C32.0762 51.2573 32.3666 51.505 32.6381 51.943C32.7428 52.8716 32.9333 53.7859 33.2047 54.6716C33.1809 54.6764 33.1619 54.6764 33.1381 54.6716C32.9809 54.6383 32.7952 54.4002 32.7333 54.3002L32.7238 54.2859C32.6238 54.1335 32.4714 54.0478 32.3 54.0478C32.2333 54.0478 32.1714 54.0621 32.1047 54.0859L29.9381 54.9383C29.8714 54.705 29.7571 54.4097 29.5666 54.105L31.3476 53.305L31.3571 53.3097ZM27.3809 54.5716L27.3381 54.4907C27.2333 54.3002 27.0095 53.8097 27.1143 53.4335C27.1666 53.2526 27.2904 53.124 27.4952 53.0288L30.9619 51.4002L30.919 51.5907C30.9143 51.6145 30.9095 51.6383 30.9047 51.6669C30.8428 52.0145 30.8952 52.4192 31.0381 52.8097L31.0714 52.8954L27.3762 54.5621L27.3809 54.5716ZM72.9047 56.7907C71.1 61.3621 68.0524 65.2716 64.0952 68.0954C60.3428 70.7764 55.9428 72.324 51.3714 72.5764H51.3476L50.0047 73.9431L48.6619 72.5764H48.6381C44.0666 72.324 39.6666 70.7764 35.9143 68.0954C31.9524 65.2716 28.9095 61.3621 27.1047 56.7907L27.0571 56.6716L31.3904 54.9621L31.4381 55.0764C32.9095 58.7764 35.3809 61.9383 38.5904 64.2288C41.7952 66.5145 45.5666 67.7764 49.5 67.8811H49.5476L50.0047 68.3478L50.4666 67.8811H50.5143C54.4476 67.7764 58.219 66.5097 61.4238 64.2288C64.6333 61.9383 67.1047 58.7764 68.5762 55.0764L68.6238 54.9621L72.9571 56.6716L72.9095 56.7907H72.9047Z" fill="white"></path><path d="M43.9999 36.0763C43.819 36.0335 43.5713 36.0906 43.338 36.243C43.1047 36.3954 42.938 36.6049 42.8809 36.8001C43.0618 36.843 43.3094 36.7858 43.5428 36.6382C43.7761 36.4858 43.9428 36.2763 43.9999 36.0811V36.0763Z" fill="white"></path><path d="M43.0332 32.6956C43.057 32.4908 42.9856 32.2242 42.8332 31.9766C42.6809 31.7289 42.4761 31.5623 42.2999 31.5146C42.2761 31.7194 42.3475 31.9861 42.4999 32.2337C42.6523 32.4813 42.857 32.648 43.0332 32.6956Z" fill="white"></path><path d="M43.0477 33.5767C43.0191 33.7576 43.0715 34.0052 43.1953 34.2338C43.3238 34.4624 43.4953 34.6243 43.6572 34.6767C43.6858 34.4957 43.6381 34.2481 43.5096 34.0195C43.381 33.7862 43.2096 33.629 43.0477 33.5767Z" fill="white"></path><path d="M43.4 33.0001C43.5143 32.8382 43.581 32.5715 43.5667 32.2668C43.5524 31.9668 43.4572 31.7049 43.3239 31.562C43.2096 31.7239 43.1429 31.9906 43.1572 32.2953C43.1715 32.5953 43.2667 32.8573 43.4 33.0001Z" fill="white"></path><path d="M43.7475 34.4194C43.919 34.3479 44.1047 34.1575 44.2332 33.8908C44.3618 33.6241 44.4047 33.3479 44.3618 33.1479C44.1904 33.2194 44.0047 33.4099 43.8761 33.6765C43.7475 33.9432 43.7047 34.2194 43.7523 34.4194H43.7475Z" fill="white"></path><path d="M42.8523 33.2573C43.0427 33.4287 43.2523 33.5145 43.4189 33.5049C43.3904 33.324 43.2713 33.1097 43.0808 32.9383C42.8904 32.7668 42.6808 32.6811 42.5142 32.6907C42.5427 32.8716 42.6618 33.0859 42.8523 33.2573Z" fill="white"></path><path d="M43.6192 33.8575C43.762 33.729 43.8858 33.4861 43.9287 33.1861C43.9763 32.8861 43.9382 32.6099 43.8382 32.4385C43.6953 32.567 43.5715 32.8099 43.5287 33.1099C43.4811 33.4099 43.5192 33.6861 43.6192 33.8575Z" fill="white"></path><path d="M44.4667 35.2096C44.2858 35.1668 44.0381 35.2239 43.8048 35.3763C43.5715 35.5287 43.4048 35.7382 43.3477 35.9334C43.5286 35.9763 43.7762 35.9191 44.0096 35.7668C44.2429 35.6144 44.4096 35.4049 44.4667 35.2096Z" fill="white"></path><path d="M44.1094 34.9671C44.2809 34.7338 44.3714 34.4719 44.3666 34.2671C44.1856 34.2957 43.9714 34.4433 43.7952 34.6766C43.6237 34.9099 43.5333 35.1719 43.538 35.3766C43.719 35.348 43.9333 35.2004 44.1094 34.9671Z" fill="white"></path><path d="M43.0523 36.086C43.1952 35.9575 43.3142 35.7098 43.3571 35.4146C43.3999 35.1146 43.3571 34.8384 43.2618 34.667C43.119 34.7956 42.9999 35.0432 42.9571 35.3384C42.9142 35.6384 42.9571 35.9146 43.0523 36.086Z" fill="white"></path><path d="M43.0143 36.9433C42.7476 36.9956 42.5286 37.1337 42.4143 37.2956C42.5714 37.4052 42.8191 37.4433 43.0857 37.3909C43.3524 37.3385 43.5714 37.2004 43.6857 37.0385C43.5286 36.9337 43.281 36.8909 43.0143 36.9433Z" fill="white"></path><path d="M38.1335 35.9286C38.0763 35.7334 37.9096 35.5239 37.6763 35.3715C37.443 35.2191 37.1954 35.1667 37.0144 35.2048C37.0715 35.4001 37.2382 35.6096 37.4715 35.762C37.7049 35.9143 37.9525 35.9667 38.1335 35.9286Z" fill="white"></path><path d="M38.5951 36.7953C38.538 36.6001 38.3713 36.3906 38.138 36.2382C37.9046 36.0858 37.657 36.0334 37.4761 36.0715C37.5332 36.2668 37.6999 36.4763 37.9332 36.6287C38.1666 36.781 38.4142 36.8334 38.5951 36.7906V36.7953Z" fill="white"></path><path d="M39.062 37.2908C38.9477 37.1288 38.7286 36.9955 38.462 36.9384C38.1953 36.886 37.9477 36.9288 37.7905 37.0336C37.9048 37.1955 38.1239 37.3288 38.3905 37.386C38.6572 37.4384 38.9048 37.3955 39.062 37.2908Z" fill="white"></path><path d="M42.7763 36.6242C42.9001 36.3575 42.9382 36.0766 42.8906 35.8813C42.7192 35.9528 42.5382 36.148 42.4144 36.4194C42.2906 36.6861 42.2525 36.9671 42.3001 37.1623C42.4715 37.0909 42.6525 36.8956 42.7763 36.6242Z" fill="white"></path><path d="M38.4714 37.7906C38.6238 37.9096 38.8667 37.9668 39.1381 37.9335C39.4095 37.9001 39.6333 37.7811 39.7571 37.6239C39.6048 37.5049 39.3619 37.4477 39.0905 37.4811C38.8191 37.5144 38.5952 37.6335 38.4714 37.7906Z" fill="white"></path><path d="M39.7715 37.5098C39.9953 37.6765 40.2429 37.7479 40.4238 37.7193C40.3762 37.5193 40.2238 37.3003 40 37.1336C39.7715 36.967 39.5286 36.8955 39.3477 36.9241C39.3953 37.1241 39.5477 37.3432 39.7762 37.5098H39.7715Z" fill="white"></path><path d="M38.5858 35.8813C38.5381 36.0813 38.5762 36.3575 38.7 36.6242C38.8239 36.8956 39.0048 37.0861 39.1762 37.1623C39.2239 36.9623 39.1858 36.6861 39.0619 36.4194C38.9381 36.1528 38.7572 35.9575 38.5858 35.8813Z" fill="white"></path><path d="M38.9809 32.2288C39.1333 31.9812 39.2048 31.7098 39.1809 31.5098C39 31.5574 38.8 31.7241 38.6476 31.9717C38.4952 32.2193 38.4238 32.4907 38.4476 32.6907C38.6238 32.6431 38.8286 32.4764 38.9809 32.2288Z" fill="white"></path><path d="M38.6238 33.2573C38.8143 33.0859 38.9333 32.8716 38.9619 32.6907C38.7952 32.6811 38.5857 32.7668 38.3952 32.9383C38.2047 33.1097 38.0857 33.324 38.0571 33.5049C38.2238 33.5145 38.4333 33.4287 38.6238 33.2573Z" fill="white"></path><path d="M42.338 37.9335C42.6095 37.9668 42.8523 37.9096 43.0047 37.7906C42.8809 37.6382 42.6523 37.5192 42.3857 37.4811C42.1142 37.4477 41.8714 37.5049 41.719 37.6239C41.8428 37.7763 42.0666 37.8954 42.338 37.9335Z" fill="white"></path><path d="M39.919 37.8337C39.6523 37.9004 39.438 38.048 39.3333 38.2147C39.4952 38.3147 39.7428 38.3432 40.0094 38.2766C40.2666 38.2147 40.4713 38.0718 40.5856 37.9147C40.619 37.9432 40.6523 37.9766 40.6809 38.0051C40.3856 38.1766 40.1285 38.4051 39.9094 38.6956C39.9952 38.8337 40.0428 38.9051 40.1285 39.0432C40.2999 38.6623 40.5047 38.3432 40.7523 38.0766C40.9904 38.3385 41.1713 38.6528 41.338 39.0385C41.4237 38.9004 41.4713 38.829 41.5571 38.6909C41.3333 38.4004 41.1047 38.1766 40.819 38.0051C40.8523 37.9718 40.8809 37.9432 40.9142 37.9147C41.0237 38.0718 41.2333 38.2099 41.4856 38.2718C41.7523 38.3385 41.9999 38.3099 42.1618 38.2099C42.0571 38.0432 41.838 37.8956 41.5761 37.829C41.3571 37.7718 41.1428 37.7861 40.9856 37.848C40.8333 37.9099 40.7475 37.9623 40.7475 37.9623C40.6809 37.9242 40.6094 37.8909 40.5333 37.8623C40.5333 37.8623 40.5237 37.8623 40.519 37.8575C40.519 37.8575 40.519 37.8575 40.5142 37.8575C40.3571 37.7909 40.1428 37.7766 39.9142 37.8337H39.919Z" fill="white"></path><path d="M37.7285 34.4194C37.7713 34.2194 37.7285 33.9432 37.6046 33.6765C37.4761 33.4099 37.2904 33.2194 37.1189 33.1479C37.0761 33.3479 37.1189 33.6241 37.2427 33.8908C37.3713 34.1575 37.557 34.3479 37.7285 34.4194Z" fill="white"></path><path d="M41.7049 37.5098C41.9287 37.3432 42.0858 37.1193 42.1334 36.9241C41.9525 36.8955 41.7096 36.967 41.4811 37.1336C41.2573 37.3003 41.1001 37.5241 41.0525 37.7193C41.2334 37.7479 41.4763 37.6765 41.7049 37.5098Z" fill="white"></path><path d="M38.4286 36.086C38.5286 35.9146 38.5667 35.6384 38.5238 35.3384C38.481 35.0384 38.3619 34.7956 38.2191 34.667C38.1191 34.8384 38.081 35.1194 38.1238 35.4146C38.1667 35.7146 38.2857 35.9575 38.4286 36.086Z" fill="white"></path><path d="M37.1096 34.2671C37.1048 34.4719 37.1953 34.7338 37.3667 34.9671C37.5381 35.2004 37.7572 35.348 37.9381 35.3766C37.9429 35.1719 37.8524 34.9099 37.681 34.6766C37.5096 34.4433 37.2953 34.2957 37.1096 34.2671Z" fill="white"></path><path d="M38.2809 34.2338C38.4095 34.0005 38.4571 33.7576 38.4286 33.5767C38.2714 33.629 38.0952 33.7909 37.9667 34.0195C37.8381 34.2481 37.7905 34.4957 37.819 34.6767C37.9762 34.6243 38.1524 34.4624 38.2809 34.2338Z" fill="white"></path><path d="M38.3192 32.2953C38.3334 31.9953 38.2668 31.7239 38.1525 31.562C38.0239 31.7049 37.9287 31.9668 37.9096 32.2668C37.8953 32.5668 37.962 32.8382 38.0763 33.0001C38.2049 32.8573 38.3001 32.5953 38.3192 32.2953Z" fill="white"></path><path d="M37.8572 33.8575C37.9524 33.6861 37.9953 33.4051 37.9476 33.1099C37.9 32.8099 37.781 32.567 37.6381 32.4385C37.5429 32.6147 37.5 32.8909 37.5476 33.1861C37.5953 33.4861 37.7143 33.729 37.8572 33.8575Z" fill="white"></path><path d="M43.5428 36.6334C43.3094 36.7858 43.0618 36.8382 42.8809 36.7953C42.938 36.6001 43.1047 36.3906 43.338 36.2382C43.5713 36.0858 43.819 36.0334 43.9999 36.0715C43.9428 36.2668 43.7761 36.4763 43.5428 36.6287V36.6334Z" fill="white"></path><path d="M43.6904 37.0385C43.5761 37.2004 43.357 37.3337 43.0904 37.3909C42.8237 37.4433 42.5761 37.4004 42.4189 37.2956C42.5332 37.1337 42.7523 37.0004 43.0189 36.9433C43.2856 36.8909 43.5332 36.9337 43.6904 37.0385Z" fill="white"></path><path d="M43.6524 34.6767C43.4953 34.6243 43.3191 34.4624 43.1905 34.2338C43.062 34.0005 43.0143 33.7576 43.0429 33.5767C43.2001 33.629 43.3763 33.7909 43.5048 34.0195C43.6334 34.2481 43.681 34.4957 43.6524 34.6767Z" fill="white"></path><path d="M43.7952 34.6766C43.9666 34.4433 44.1809 34.2957 44.3666 34.2671C44.3714 34.4719 44.2809 34.7338 44.1094 34.9671C43.938 35.2004 43.7237 35.348 43.538 35.3766C43.5333 35.1719 43.6237 34.9099 43.7952 34.6766Z" fill="white"></path><path d="M43.2618 34.6621C43.3618 34.8335 43.3999 35.1145 43.3571 35.4097C43.3142 35.7097 43.1952 35.9526 43.0523 36.0812C42.9523 35.9097 42.9142 35.6335 42.9571 35.3335C42.9999 35.0335 43.119 34.7907 43.2618 34.6621Z" fill="white"></path><path d="M43.3477 35.9286C43.4048 35.7334 43.5715 35.5239 43.8048 35.3715C44.0381 35.2191 44.2858 35.1667 44.4667 35.2048C44.4096 35.4001 44.2429 35.6096 44.0096 35.762C43.7762 35.9143 43.5286 35.9667 43.3477 35.9286Z" fill="white"></path><path d="M44.3572 33.1479C44.4001 33.3479 44.3572 33.6241 44.2287 33.8908C44.1001 34.1575 43.9144 34.3479 43.743 34.4194C43.7001 34.2194 43.743 33.9432 43.8668 33.6765C43.9953 33.4099 44.181 33.2194 44.3525 33.1479H44.3572Z" fill="white"></path><path d="M43.8381 32.4385C43.9333 32.6147 43.9762 32.8909 43.9286 33.1861C43.881 33.4861 43.7619 33.729 43.6191 33.8575C43.5238 33.6861 43.481 33.4051 43.5286 33.1099C43.5762 32.8099 43.6953 32.567 43.8381 32.4385Z" fill="white"></path><path d="M43.3239 31.562C43.4524 31.7049 43.5477 31.9668 43.5667 32.2668C43.581 32.5668 43.5143 32.8382 43.4 33.0001C43.2715 32.8573 43.1762 32.5953 43.1572 32.2953C43.1429 31.9953 43.2096 31.7239 43.3239 31.562Z" fill="white"></path><path d="M43.4189 33.5049C43.2523 33.5145 43.0427 33.4287 42.8523 33.2573C42.6618 33.0859 42.5427 32.8716 42.5142 32.6907C42.6808 32.6811 42.8904 32.7668 43.0808 32.9383C43.2713 33.1097 43.3904 33.324 43.4189 33.5049Z" fill="white"></path><path d="M42.2953 31.5098C42.4715 31.5574 42.6762 31.7241 42.8286 31.9717C42.981 32.2193 43.0524 32.4907 43.0286 32.6907C42.8524 32.6431 42.6476 32.4764 42.4953 32.2288C42.3429 31.9812 42.2715 31.7098 42.2953 31.5098Z" fill="white"></path><path d="M42.4144 36.4194C42.5382 36.1528 42.7192 35.9575 42.8906 35.8813C42.9382 36.0813 42.9001 36.3575 42.7763 36.6242C42.6525 36.8956 42.4715 37.0861 42.3001 37.1623C42.2525 36.9623 42.2906 36.6861 42.4144 36.4194Z" fill="white"></path><path d="M42.3857 37.486C42.6571 37.5193 42.8809 37.6383 43.0047 37.7955C42.8523 37.9145 42.6095 37.9717 42.338 37.9383C42.0666 37.905 41.8428 37.786 41.719 37.6288C41.8714 37.5098 42.1142 37.4526 42.3857 37.486Z" fill="white"></path><path d="M41.4811 37.1336C41.7049 36.967 41.9525 36.8955 42.1334 36.9241C42.0858 37.1241 41.9334 37.3432 41.7049 37.5098C41.4811 37.6765 41.2334 37.7479 41.0525 37.7193C41.1001 37.5193 41.2525 37.3003 41.4811 37.1336Z" fill="white"></path><path d="M40.5238 37.8575C40.5238 37.8575 40.5334 37.8575 40.5381 37.8623C40.6143 37.8956 40.681 37.929 40.7524 37.9623C40.7524 37.9623 40.8429 37.9099 40.9905 37.848C41.1477 37.7861 41.3572 37.7718 41.581 37.829C41.8477 37.8956 42.0619 38.0432 42.1667 38.2099C42.0048 38.3099 41.7572 38.3385 41.4905 38.2718C41.2381 38.2099 41.0286 38.0718 40.9191 37.9147C40.8858 37.9432 40.8524 37.9766 40.8239 38.0051C41.1048 38.1718 41.3381 38.3956 41.5619 38.6909C41.4762 38.829 41.4286 38.9004 41.3429 39.0385C41.1715 38.6528 40.9953 38.3385 40.7572 38.0766C40.5096 38.3385 40.3 38.6575 40.1334 39.0432C40.0477 38.9051 40 38.8337 39.9143 38.6956C40.1381 38.4051 40.3905 38.1766 40.6858 38.0051C40.6524 37.9718 40.6238 37.9432 40.5905 37.9147C40.481 38.0718 40.2715 38.2147 40.0143 38.2766C39.7477 38.3432 39.5 38.3147 39.3381 38.2147C39.4429 38.048 39.6619 37.9004 39.9238 37.8337C40.1477 37.7766 40.3667 37.7909 40.5238 37.8575C40.5238 37.8575 40.5238 37.8575 40.5286 37.8575H40.5238Z" fill="white"></path><path d="M39.9953 37.1336C40.2191 37.3003 40.3762 37.5241 40.4191 37.7193C40.2381 37.7479 39.9953 37.6765 39.7667 37.5098C39.5429 37.3432 39.3858 37.1193 39.3381 36.9241C39.5191 36.8955 39.7619 36.967 39.9905 37.1336H39.9953Z" fill="white"></path><path d="M39.7571 37.6288C39.6333 37.7812 39.4095 37.9002 39.1381 37.9383C38.8667 37.9717 38.6238 37.9145 38.4714 37.7955C38.5952 37.6431 38.8191 37.5241 39.0905 37.486C39.3619 37.4526 39.6048 37.5098 39.7571 37.6288Z" fill="white"></path><path d="M39.1762 37.1623C39.0048 37.0909 38.8239 36.8956 38.7 36.6242C38.5762 36.3575 38.5381 36.0766 38.5858 35.8813C38.7572 35.9528 38.9381 36.148 39.0619 36.4194C39.1858 36.6861 39.2239 36.9671 39.1762 37.1623Z" fill="white"></path><path d="M38.643 31.9717C38.7953 31.7241 39.0001 31.5574 39.1763 31.5098C39.2001 31.7145 39.1287 31.9812 38.9763 32.2288C38.8239 32.4764 38.6192 32.6431 38.443 32.6907C38.4192 32.486 38.4906 32.2193 38.643 31.9717Z" fill="white"></path><path d="M38.3952 32.9432C38.5857 32.7717 38.7952 32.686 38.9619 32.6955C38.9333 32.8765 38.8143 33.0908 38.6238 33.2622C38.4333 33.4336 38.2238 33.5193 38.0571 33.5098C38.0857 33.3289 38.2047 33.1146 38.3952 32.9432Z" fill="white"></path><path d="M37.8239 34.6767C37.7954 34.4957 37.843 34.2481 37.9715 34.0195C38.1001 33.7862 38.2715 33.629 38.4334 33.5767C38.462 33.7576 38.4096 34.0052 38.2858 34.2338C38.1573 34.4624 37.9858 34.6243 37.8239 34.6767Z" fill="white"></path><path d="M37.9381 35.3766C37.7572 35.348 37.5429 35.2004 37.3667 34.9671C37.1953 34.7338 37.1048 34.4719 37.1096 34.2671C37.2905 34.2957 37.5048 34.4433 37.681 34.6766C37.8524 34.9099 37.9429 35.1719 37.9381 35.3766Z" fill="white"></path><path d="M38.2142 34.6621C38.357 34.7907 38.4761 35.0383 38.5189 35.3335C38.5618 35.6335 38.5189 35.9097 38.4237 36.0812C38.2808 35.9526 38.1618 35.705 38.1189 35.4097C38.0761 35.1097 38.1189 34.8335 38.2142 34.6621Z" fill="white"></path><path d="M37.9143 32.2668C37.9286 31.9668 38.0238 31.7049 38.1571 31.562C38.2714 31.7239 38.3381 31.9906 38.3238 32.2953C38.3095 32.5953 38.2143 32.8573 38.0809 33.0001C37.9666 32.8382 37.9 32.5715 37.9143 32.2668Z" fill="white"></path><path d="M37.6382 32.4385C37.7811 32.567 37.9049 32.8099 37.9477 33.1099C37.9953 33.4099 37.9573 33.6861 37.8573 33.8575C37.7144 33.729 37.5906 33.4861 37.5477 33.1861C37.5001 32.8861 37.5382 32.6099 37.6382 32.4385Z" fill="white"></path><path d="M37.119 33.1479C37.2904 33.2194 37.4761 33.4099 37.6047 33.6765C37.7333 33.9432 37.7761 34.2194 37.7285 34.4194C37.5571 34.3479 37.3714 34.1575 37.2428 33.8908C37.1142 33.6241 37.0714 33.3479 37.119 33.1479Z" fill="white"></path><path d="M37.0095 35.2096C37.1905 35.1668 37.4381 35.2239 37.6714 35.3763C37.9048 35.5287 38.0714 35.7382 38.1286 35.9334C37.9476 35.9763 37.7 35.9191 37.4667 35.7668C37.2333 35.6144 37.0667 35.4049 37.0095 35.2096Z" fill="white"></path><path d="M37.4761 36.0763C37.657 36.0335 37.9046 36.0906 38.138 36.243C38.3713 36.3954 38.538 36.6049 38.5951 36.8001C38.4142 36.843 38.1666 36.7858 37.9332 36.6382C37.6999 36.4858 37.5332 36.2763 37.4761 36.0811V36.0763Z" fill="white"></path><path d="M37.7905 37.0385C37.9477 36.9337 38.1953 36.8909 38.462 36.9433C38.7286 36.9956 38.9477 37.1337 39.062 37.2956C38.9048 37.4052 38.6572 37.4433 38.3905 37.3909C38.1239 37.3385 37.9048 37.2004 37.7905 37.0385Z" fill="white"></path><path d="M47.3619 63.2148C47.319 63.2148 47.2285 63.2053 47.1333 63.2053C47.0666 63.2053 46.9857 63.2053 46.8952 63.2148H46.8666V63.1862C46.9 62.9672 46.919 62.7339 46.919 62.4815V61.1719C46.919 60.81 46.8904 60.7719 46.7666 60.7719C46.7333 60.7719 46.6857 60.7815 46.619 60.7958L46.4142 60.8434C46.3523 60.8577 46.3142 60.8719 46.2714 60.891H46.2571L46.2 60.8529L46.2095 60.8339C46.238 60.7815 46.2761 60.6862 46.2952 60.6053V60.591H46.3142C46.419 60.5815 46.4904 60.5719 46.6142 60.5434L47.0476 60.4481C47.1285 60.4339 47.2142 60.41 47.2904 60.3862H47.3047L47.3523 60.4339V60.4434C47.3142 60.6862 47.3 60.9577 47.3 61.1196V62.5291C47.3 62.8148 47.3238 63.0434 47.3761 63.1862L47.3857 63.2196H47.3523L47.3619 63.2148Z" fill="white"></path><path d="M50.4239 63.2431V63.2669H50.4C50.4 63.2669 50.0715 63.2669 49.881 63.286H49.8667L49.8286 63.2145L51.2429 60.805H50.3572C50.2191 60.805 50.0429 60.8193 49.8905 60.9288L49.881 60.9384L49.8096 60.9098L49.8191 60.886C49.8667 60.7574 49.9048 60.5384 49.9191 60.4526V60.4336H49.9429C50.0477 60.4431 50.1572 60.4431 50.2715 60.4431H51.2905C51.4239 60.4431 51.481 60.4431 51.6 60.4336H51.6239V60.4526C51.6239 60.4907 51.6524 60.6717 51.6667 60.7098V60.7241V60.7336C51.4477 60.9812 51.1905 61.4336 50.962 61.8431C50.5953 62.5098 50.4572 62.8764 50.4239 63.2431Z" fill="white"></path><path d="M48.9761 61.6622C49.238 61.5146 49.4856 61.3336 49.4856 60.9717C49.4856 60.586 49.1618 60.3003 48.719 60.3003C48.2761 60.3003 47.9047 60.6289 47.9047 61.0479C47.9047 61.3955 48.138 61.5908 48.3761 61.7336C47.9999 61.9574 47.7666 62.1717 47.7666 62.5431C47.7666 62.9812 48.119 63.286 48.6237 63.286C49.1809 63.286 49.5809 62.9336 49.5809 62.4527C49.5809 62.0574 49.2952 61.8384 48.9809 61.6574L48.9761 61.6622ZM48.2618 60.9717C48.2618 60.7098 48.4618 60.5146 48.7237 60.5146C48.9857 60.5146 49.1904 60.7146 49.1904 60.9812C49.1904 61.2812 48.9714 61.4336 48.7523 61.5574C48.5047 61.4146 48.2618 61.2574 48.2618 60.967V60.9717ZM48.6571 63.086C48.3333 63.086 48.0999 62.8527 48.0999 62.5384C48.0999 62.2003 48.3618 61.9908 48.6333 61.8622C49.0047 62.067 49.238 62.2336 49.238 62.5431C49.238 62.8527 48.9857 63.0908 48.6571 63.0908V63.086Z" fill="white"></path><path d="M52.8714 61.7194C53.1333 61.5718 53.3809 61.3909 53.3809 61.0337C53.3809 60.6433 53.0571 60.3623 52.6142 60.3623C52.1714 60.3623 51.8 60.6909 51.8 61.1099C51.8 61.4575 52.0333 61.6528 52.2714 61.7956C51.8952 62.0194 51.6619 62.2337 51.6619 62.6052C51.6619 63.0433 52.0142 63.348 52.5142 63.348C53.0714 63.348 53.4762 62.9956 53.4762 62.5147C53.4762 62.1194 53.1904 61.9004 52.8762 61.7194H52.8714ZM52.1857 61.029C52.1857 60.7671 52.3857 60.5718 52.6476 60.5718C52.9095 60.5718 53.1142 60.7718 53.1142 61.0385C53.1142 61.3385 52.8952 61.4909 52.6762 61.6147C52.4285 61.4718 52.1857 61.3147 52.1857 61.0242V61.029ZM52.5809 63.1433C52.2571 63.1433 52.0238 62.9099 52.0238 62.5956C52.0238 62.2575 52.2857 62.048 52.5571 61.9194C52.9285 62.1194 53.1619 62.2909 53.1619 62.6004C53.1619 62.9099 52.9095 63.148 52.5809 63.148V63.1433Z" fill="white"></path><path d="M41.4951 57.3953C41.4427 57.5762 41.2856 58.1572 41.2713 58.2048C40.4285 58.1762 39.8666 58.1714 39.3713 58.1714C38.7475 58.1714 38.3427 58.1714 38.0046 58.181C38.0666 57.7857 38.1094 57.3238 38.1094 56.7572V54.4C38.1094 54.0191 38.0951 53.2905 37.957 52.9524C38.2142 52.9667 38.3856 52.9667 38.5713 52.9667H39.9856C40.4904 52.9667 40.6904 52.9524 41.2427 52.9429C41.1427 53.3048 41.038 53.681 40.9951 53.8286C40.957 53.9714 40.8808 53.8667 40.8666 53.8429C40.6332 53.5048 40.1808 53.4667 39.7523 53.4667C39.6189 53.4667 39.457 53.4762 39.2713 53.481C39.2618 53.6095 39.2427 53.9667 39.2427 54.2905V55.0572H39.8666C40.3237 55.0572 40.7856 55.0238 40.9618 54.9953C41.038 54.9857 41.0237 55.0476 41.0237 55.0476C40.9666 55.2476 40.8904 55.5238 40.8427 55.7C40.3618 55.6572 40.0999 55.6429 39.7666 55.6429H39.2332V56.7095C39.2332 57.4 39.3094 57.6238 40.1285 57.6238C40.5951 57.6238 40.8427 57.6238 41.3475 57.2429C41.438 57.1762 41.5475 57.2143 41.4951 57.3953Z" fill="white"></path><path d="M43.7522 57.4001C43.6379 57.6716 43.5855 57.8668 43.5189 58.1668C43.4427 58.162 43.2713 58.162 43.0951 58.162C42.9427 58.162 42.757 58.1668 42.6141 58.1763C42.5617 57.843 42.4998 57.6335 42.3903 57.3049L41.8951 55.7859C41.7427 55.3335 41.5617 54.8382 41.2332 54.4525C41.7284 54.4668 42.1236 54.4478 42.5951 54.4097C42.6236 54.7763 42.7093 55.1335 42.8141 55.4859L43.0951 56.443C43.1617 56.6668 43.3046 57.1716 43.3046 57.1716C43.357 57.0049 43.4189 56.8478 43.4713 56.7049L43.9093 55.5763C43.9855 55.3811 44.0808 55.0811 44.1141 54.7716C44.1141 54.6668 44.1236 54.5668 44.1141 54.4382C44.2189 54.4478 44.4141 54.4478 44.576 54.4478C44.7379 54.4478 44.9713 54.4287 45.0855 54.4144C45.1903 54.4001 45.176 54.4668 45.1379 54.5097C44.8808 54.8382 44.6713 55.2859 44.476 55.743L43.7617 57.4049L43.7522 57.4001Z" fill="white"></path><path d="M49.8 58.1763C49.6762 58.1668 49.4333 58.1621 49.2 58.1621C48.9667 58.1621 48.7286 58.1716 48.5809 58.1763C48.6476 57.7335 48.6714 57.3716 48.6714 56.824V55.9097C48.6714 55.543 48.6429 54.8906 48.5095 54.4859C48.8 54.4859 49.2476 54.4716 49.5524 54.4573L49.5381 55.324L49.8143 54.9668C50.1571 54.5192 50.3952 54.3716 50.7524 54.3716C50.8809 54.3716 50.9429 54.3811 51.0809 54.443C50.9714 54.8287 50.8619 55.2335 50.7952 55.4716C50.7809 55.524 50.7333 55.5906 50.6667 55.5144C50.519 55.3525 50.4952 55.2906 50.319 55.2906C50.1048 55.2906 49.9286 55.4049 49.8 55.6192C49.6952 55.7954 49.6476 55.9382 49.6476 56.3049V56.9192C49.6476 57.5716 49.6952 57.8478 49.8 58.1716V58.1763Z" fill="white"></path><path d="M54.0047 54.5143C53.9761 54.6191 53.8904 54.9334 53.8523 55.0619C53.5571 55.0286 53.3761 55.0239 53.1761 55.0239H52.838C52.8237 55.2762 52.8142 55.581 52.8142 55.7953V56.6619C52.8142 57.2429 52.8761 57.6715 53.3809 57.6715C53.5428 57.6715 53.6714 57.6334 53.8714 57.5334C53.9047 57.5191 53.9809 57.5191 53.9523 57.6239C53.9047 57.7905 53.8618 57.9477 53.8095 58.1381C53.3523 58.2572 53.1666 58.2905 52.919 58.2905C52.2666 58.2905 51.8428 58.0048 51.8428 57.0715V55.9096C51.8428 55.5334 51.8428 55.2667 51.8285 55.0143C51.6285 55.0143 51.4142 55.0381 51.3095 55.0572C51.2857 55.0572 51.238 55.0524 51.2571 54.9715C51.2618 54.9477 51.3571 54.6048 51.3952 54.481C51.4904 54.4905 51.6761 54.4953 51.8571 54.4953C51.8571 54.1953 51.8428 54.0381 51.8285 53.8048C52.0952 53.7286 52.5809 53.5096 52.7904 53.3762C52.8666 53.3286 52.9095 53.3953 52.8999 53.481C52.8952 53.5715 52.838 53.8239 52.8285 54.4953H53.3571C53.5428 54.4953 53.7476 54.4858 53.938 54.4429C53.9666 54.4381 54.0095 54.4524 53.9904 54.5096L54.0047 54.5143Z" fill="white"></path><path d="M61.4236 58.1619C61.176 58.1619 60.9332 58.1715 60.7998 58.1762C60.8713 57.7619 60.8903 57.2762 60.8903 56.7238V56.0572C60.8903 55.6096 60.857 55.0953 60.2284 55.0953C60.0046 55.0953 59.7808 55.1857 59.6141 55.3477C59.4236 55.5381 59.3665 55.7 59.3665 56.1762V56.7238C59.3665 57.4238 59.4141 57.8477 59.5189 58.1762C59.4046 58.1667 59.1474 58.1619 58.9093 58.1619C58.657 58.1619 58.4189 58.1715 58.2855 58.1762C58.357 57.7619 58.376 57.2762 58.376 56.7238V55.7857C58.376 55.4191 58.3474 54.8572 58.2141 54.4477C58.5522 54.4477 59.0236 54.4477 59.3474 54.4143L59.3236 55.0762L59.6332 54.8143C60.0094 54.5 60.3189 54.3667 60.7046 54.3667C61.5808 54.3667 61.8808 54.8572 61.8808 55.7286V56.7191C61.8808 57.4191 61.9284 57.8429 62.0332 58.1715C61.9094 58.1619 61.657 58.1572 61.4189 58.1572L61.4236 58.1619Z" fill="white"></path><path d="M48.0761 56.2332C48.2047 56.2332 48.2047 55.9094 48.2047 55.838C48.2047 54.938 47.6285 54.3809 46.6999 54.3809C45.6237 54.3809 44.8809 55.1904 44.8809 56.3618C44.8809 57.5332 45.619 58.3047 46.7761 58.3047C47.1761 58.3047 47.6047 58.1951 47.9523 58.0809C48.0142 57.8571 48.0332 57.7904 48.1047 57.5285C48.138 57.4047 48.0713 57.3666 48.0094 57.4094C47.7428 57.5951 47.5523 57.6571 47.2285 57.6571C46.4237 57.6571 45.9428 57.1475 45.9285 56.2523C46.1761 56.238 46.7237 56.2285 47.1142 56.2285H48.0761V56.2332ZM45.919 55.7904C45.957 55.1761 46.1618 54.8142 46.6428 54.8142C46.9809 54.8142 47.238 55.0713 47.238 55.4237C47.238 55.6618 47.1094 55.7618 46.7856 55.7666L45.919 55.7904Z" fill="white"></path><path d="M56.1428 54.3716C54.8 54.3716 54.0857 55.2287 54.0857 56.4144C54.0857 57.6002 54.7809 58.2954 55.9666 58.2954C57.2095 58.2954 58.0095 57.4906 58.0095 56.224C58.0095 55.0478 57.3381 54.3716 56.1476 54.3716H56.1428ZM56.0428 57.8716C55.4714 57.8716 55.1524 57.3144 55.1524 56.2621C55.1524 55.3668 55.3952 54.8002 56.019 54.8002C56.6095 54.8002 56.9333 55.3668 56.9333 56.4097C56.9333 57.3716 56.6238 57.8716 56.0428 57.8716Z" fill="white"></path><path d="M54.1619 38.705L50.3857 30.7621C50.5238 30.4669 50.2477 30.0859 49.9572 30.0859C49.6667 30.0859 49.4334 30.4669 49.5715 30.7669L45.8238 38.7478C45.0762 39.1478 44.9143 39.6574 45.0667 39.9955C45.0667 39.9955 45.1572 40.2336 45.4905 40.3336C45.4905 40.8526 45.5 45.7907 45.5048 46.7431C45.5048 46.7574 45.5048 46.7859 45.5 46.7859C45.3477 46.7621 45.1762 46.8621 45.1762 47.124C45.1762 47.524 45.1762 47.7574 45.1762 48.1478C45.1762 48.2431 45.1762 48.5193 45.1762 48.5478C45.1762 48.8669 45.5 48.9669 45.5 48.9669C45.5 48.9669 52.6572 51.524 52.8953 51.6145C53.2381 51.7431 53.5429 51.8526 53.8381 51.9669C53.9381 52.005 53.9429 52.0621 53.9476 52.2383V52.6002C53.9476 52.6002 54.1286 52.6097 54.2238 52.6097C54.9143 52.6097 54.8286 52.2574 54.8477 51.2002C54.8715 50.0907 54.8715 49.7574 54.5524 49.6859C54.5286 46.7717 54.5905 41.6621 54.5762 40.224C54.8096 40.1336 55.0143 39.9526 55.0429 39.6717C55.0715 39.4145 54.7905 39.0193 54.1524 38.705H54.1619ZM50.0096 31.6431C50.1381 31.9145 50.2762 32.2145 50.4238 32.5336C50.2905 32.5431 50.0334 32.5621 49.8715 32.6002C49.7762 32.6193 49.7572 32.6574 49.7572 32.6907C49.7572 32.7193 49.7953 32.7717 49.8953 32.7717C50.1048 32.7717 50.3953 32.7907 50.5477 32.8002C50.5953 32.8955 50.6381 32.9907 50.681 33.0907C50.5715 33.124 50.4191 33.1717 50.3762 33.1859C50.3096 33.2145 50.2381 33.2383 50.2429 33.2907C50.2429 33.3336 50.3191 33.3431 50.381 33.3478C50.5096 33.3621 50.7048 33.3764 50.8191 33.3717C50.8953 33.5336 50.9477 33.6478 51.0238 33.8145C51.0715 33.9193 50.9286 33.9383 50.8048 33.9478C50.6619 33.9574 50.2905 33.9574 50.1143 33.9812C50.0429 33.9907 50.0191 34.0288 50.0191 34.0669C50.0191 34.105 50.0715 34.1383 50.1381 34.1383C50.3905 34.1526 50.7 34.1764 50.8667 34.2097C51.0048 34.2383 51.1572 34.2717 51.2524 34.305C51.3 34.405 51.3476 34.5097 51.3953 34.6097C51.4238 34.6669 51.3429 34.6955 51.2857 34.7002C51.1905 34.7097 50.7715 34.6812 50.5477 34.7002C50.4477 34.7097 50.4286 34.7336 50.4286 34.7859C50.4286 34.824 50.4476 34.8431 50.5429 34.8621C50.7238 34.8907 51.081 34.905 51.1953 34.924C51.3143 34.9431 51.4715 34.9859 51.6 35.0383C51.6762 35.205 51.7238 35.3097 51.8 35.4717C51.8334 35.5383 51.7905 35.5621 51.7476 35.5621C51.681 35.5669 50.9191 35.5764 50.8572 35.5812C50.781 35.5859 50.6905 35.6097 50.681 35.6717C50.6715 35.7193 50.7381 35.7907 50.9143 35.805C51.0905 35.8145 51.7572 35.8526 52.1 36.1002C52.1953 36.3002 52.2857 36.4955 52.3715 36.6764C52.1096 36.6526 51.2096 36.5764 50.7953 36.5859C50.4381 36.5955 50.2953 36.5859 50.281 36.6574C50.2667 36.7288 50.3429 36.7621 50.5667 36.7859C50.781 36.805 51.9572 36.8764 52.581 37.1193C52.7048 37.3812 52.8096 37.6145 52.9048 37.8097C52.5762 37.7431 51.8191 37.6288 51.3572 37.6193C51.181 37.6193 51.1096 37.6526 51.1096 37.7288C51.1096 37.805 51.2715 37.8145 51.3762 37.824C51.9524 37.8812 52.7667 38.0764 53.0857 38.2002C53.1191 38.2717 53.1477 38.3288 53.1667 38.3717C52.1191 38.1526 50.6286 38.0478 49.9715 38.0478C49.3143 38.0478 47.9143 38.1431 46.8667 38.3907C47.1667 37.7574 49.0191 33.7859 50.0238 31.6336L50.0096 31.6431ZM47.2096 49.1193C47.2096 49.1526 47.1857 49.1669 47.1524 49.1574C46.8286 49.0431 46.6667 48.9859 46.3429 48.8764C46.3096 48.8669 46.2857 48.8288 46.2857 48.8002V47.4478C46.2857 47.4145 46.3096 47.4002 46.3429 47.4145C46.6667 47.5383 46.8286 47.5955 47.1524 47.7145C47.1857 47.724 47.2096 47.7621 47.2096 47.7907C47.2096 48.3193 47.2096 48.5859 47.2096 49.1193ZM48.5667 49.6002C48.5667 49.6336 48.5381 49.6478 48.5096 49.6383C48.1857 49.524 48.0238 49.4669 47.7 49.3478C47.6667 49.3383 47.6429 49.3002 47.6429 49.2717C47.6429 48.7383 47.6429 48.4717 47.6429 47.9478C47.6429 47.9193 47.6667 47.9002 47.7 47.9145C48.0238 48.0336 48.1857 48.0907 48.5143 48.205C48.5476 48.2145 48.5715 48.2478 48.5715 48.2812C48.5715 48.8002 48.5715 49.0717 48.5715 49.605L48.5667 49.6002ZM49.9238 50.0812C49.9238 50.1097 49.9 50.1288 49.8667 50.1145C49.5429 50.0002 49.381 49.9431 49.0572 49.8288C49.0238 49.8193 49 49.7812 49 49.7526C49 49.2193 49 48.9478 49 48.424C49 48.3955 49.0286 48.3764 49.0572 48.3907C49.381 48.5002 49.5429 48.5574 49.8715 48.6621C49.9048 48.6717 49.9286 48.705 49.9286 48.7383C49.9286 49.2717 49.9286 49.5478 49.9286 50.0812H49.9238ZM51.2762 50.5574C51.2762 50.5907 51.2476 50.605 51.2191 50.5955C50.8953 50.4812 50.7334 50.424 50.4096 50.3097C50.3762 50.3002 50.3524 50.2621 50.3524 50.2336C50.3524 49.7002 50.3524 49.4193 50.3524 48.8812C50.3524 48.8478 50.381 48.8336 50.4096 48.8431C50.7334 48.9478 50.8953 49.0002 51.2191 49.1002C51.2524 49.1097 51.2762 49.1431 51.2762 49.1764C51.2762 49.7336 51.2762 50.0193 51.2762 50.5574ZM52.6286 51.0288C52.6286 51.0621 52.6048 51.0764 52.5715 51.0669C52.2477 50.9574 52.0857 50.9002 51.7619 50.7859C51.7286 50.7764 51.7048 50.7383 51.7048 50.7097C51.7048 50.1716 51.7048 49.8812 51.7096 49.3145C51.7096 49.2812 51.7334 49.2621 51.7667 49.2717C52.0905 49.3717 52.2524 49.4193 52.5762 49.5145C52.6096 49.524 52.6334 49.5621 52.6334 49.5955C52.6334 50.1859 52.6334 50.4859 52.6334 51.0288H52.6286ZM48.6 47.8336C47 47.2764 46.2762 46.9859 46.2619 46.5193C46.2524 46.2336 46.2143 45.0336 46.2429 44.7288L46.2143 40.2669C46.2143 40.1336 46.4286 40.0574 46.6238 40.0097C46.8143 39.9621 47.9905 39.7002 49.9619 39.7002C51.9334 39.7002 53.3143 39.9383 53.6667 40.0812C53.7429 40.1145 53.8381 40.1478 53.8953 40.1955V40.5812C53.5667 40.5336 52.2905 40.3574 51.7476 40.324C51.4953 40.305 51.1715 40.2955 50.8524 40.2859C50.8524 40.2526 50.8381 40.2193 50.8143 40.1955C50.7905 40.1669 50.7524 40.1478 50.7143 40.1478C50.0191 40.1193 49.7715 40.1193 49.0667 40.1478C49.0286 40.1478 48.9905 40.1669 48.9667 40.1955C48.9429 40.224 48.9286 40.2621 48.9286 40.3002L49.0191 42.0002C48.9905 42.0002 48.9667 42.0002 48.9429 42.005C48.5953 42.0336 47.2096 42.2288 47.1143 42.2526C46.9857 42.2859 46.9572 42.3193 46.9667 42.3669C46.9857 42.4431 47.0857 42.4145 47.1857 42.405C47.8762 42.3288 48.4953 42.2859 49.0334 42.2621L49.0476 42.5336C49.0476 42.6097 49.1143 42.6717 49.1905 42.6717H49.1953C49.7857 42.6478 49.9857 42.6478 50.5762 42.6717C50.6524 42.6717 50.7238 42.6145 50.7286 42.5336L50.7429 42.2621C50.9667 42.2717 51.0857 42.2859 51.0857 42.2859C52.0762 42.3717 53.3715 42.5621 53.9286 42.9002V43.3002C53.6048 43.2288 52.7715 43.0574 52.4667 43.0336C52.081 43.005 51.9 43.024 51.8381 43.0336C51.7715 43.0431 51.7191 43.0812 51.7286 43.1288C51.7381 43.1764 51.7905 43.205 51.8762 43.2145C51.9572 43.224 53.1857 43.2717 53.9429 43.7859V44.1907C53.5143 44.105 52.0715 43.824 51.0715 43.7764C49.7619 43.7145 48.1334 43.8717 48.0048 43.8907C47.8762 43.9097 47.8143 43.9478 47.8238 44.0145C47.8334 44.0812 47.8572 44.1145 48.0334 44.1002C48.1619 44.0907 50.5381 44.005 51.7857 44.1859C52.8 44.3336 53.5 44.5002 53.9524 44.7193V45.2288C53.5572 45.1478 52.6715 44.9764 52.2238 44.9383C51.2905 44.8574 50.6953 44.8764 50.5953 44.8764C50.5048 44.8764 50.4667 44.9193 50.4667 44.9764C50.4667 45.0478 50.5381 45.0478 50.6 45.0478C50.7238 45.0478 51.4143 45.0717 52.1762 45.1907C52.6762 45.2669 53.4476 45.3907 53.9619 45.6574V46.1764C53.7 46.1478 53.1715 46.0859 52.9524 46.0812C52.6524 46.0717 52.4 46.0812 52.3048 46.1002C52.2429 46.1145 52.2096 46.1574 52.2191 46.1955C52.2286 46.2336 52.2619 46.2621 52.3238 46.2621C52.3857 46.2621 52.8381 46.2907 53.1762 46.3478C53.4429 46.3955 53.7619 46.4859 53.9762 46.5955C53.9762 46.5955 53.9762 47.1002 53.9762 47.2717C53.9762 47.2907 53.4 47.0907 52.8334 47.0574C52.3191 47.024 51.8286 47.0336 51.4381 47.0621C51.4048 47.0621 51.2953 47.0859 51.2953 47.1764C51.2953 47.2764 51.4143 47.2621 51.4715 47.2621C51.7667 47.2717 52.0096 47.2621 52.5238 47.3145C53.2762 47.3907 53.981 47.6288 53.981 47.6431C53.981 47.8478 53.981 48.0383 53.981 48.2859C53.981 48.2955 53.6572 48.1955 53.1572 48.1288C52.9476 48.1002 52.5905 48.0621 52.4524 48.0764C52.3619 48.0859 52.2715 48.1002 52.2715 48.1859C52.2667 48.305 52.4762 48.3097 52.5524 48.3193C52.6334 48.3288 52.8524 48.3431 53.2429 48.4097C53.5572 48.4621 53.9857 48.5812 53.9857 48.5907C53.9857 49.124 53.9857 49.5526 53.9857 49.5526C52.3905 49.1097 50.281 48.4526 48.6048 47.8336H48.6ZM52.0619 41.3574C52.1286 41.3574 53.3715 41.3907 53.9143 41.8478V42.3621C53.5762 42.2764 52.7667 42.1002 51.8238 42.005C51.5715 41.9812 51.3238 41.9669 51.081 41.9526C51.081 41.9526 50.9572 41.9526 50.7619 41.9478L50.8429 40.505C51.2096 40.5288 51.5953 40.5669 51.9286 40.6097C52.4667 40.6812 53.4715 40.8621 53.9096 41.0431V41.4145C53.7 41.3669 53.2381 41.2669 52.9191 41.224C52.4905 41.1669 52.1572 41.1669 52.0857 41.1764C52.0096 41.1859 51.9238 41.1907 51.9238 41.2717C51.9238 41.3383 51.9953 41.3574 52.0715 41.3574H52.0619ZM50.5429 40.5193L50.4429 42.3812C50.4429 42.3812 49.9143 42.3717 49.4905 42.3812L49.381 40.5288C49.381 40.5288 50.1 40.4907 50.5381 40.5193H50.5429ZM53.981 51.5002C53.981 51.5336 53.9524 51.5478 53.9238 51.5383C53.6 51.424 53.4381 51.3669 53.1143 51.2574C53.081 51.2478 53.0572 51.2097 53.0572 51.1812C53.0572 50.6383 53.0572 50.3336 53.0572 49.7288C53.0572 49.6955 53.081 49.6717 53.1143 49.6812C53.4381 49.7764 53.6 49.824 53.9191 49.9193C53.9524 49.9288 53.9762 49.9669 53.9762 50.005V51.505L53.981 51.5002ZM54.2238 39.7669C54.1477 39.9002 53.9762 39.8478 53.8 39.7669C53.6381 39.6907 52.2619 39.1955 49.9572 39.1955C47.6524 39.1955 46.3953 39.6478 46.2286 39.6859C46.0619 39.7288 45.8334 39.8574 45.7048 39.6193C45.6191 39.4621 45.7286 39.3097 45.9857 39.205C46.2429 39.0955 48.1048 38.6907 49.9572 38.6717C51.8096 38.6526 53.581 39.0574 54.081 39.3764C54.2096 39.4574 54.3 39.6288 54.2238 39.7669Z" fill="white"></path><path d="M55.995 35.7668C56.2283 35.9192 56.4759 35.9716 56.6569 35.9335C56.5997 35.7383 56.4331 35.5287 56.1997 35.3764C55.9664 35.224 55.7188 35.1716 55.5378 35.2097C55.595 35.4049 55.7617 35.6145 55.995 35.7668Z" fill="white"></path><path d="M57.1094 35.8813C57.0618 36.0813 57.0999 36.3575 57.2237 36.6242C57.3475 36.8956 57.5285 37.0861 57.6999 37.1623C57.7475 36.9623 57.7094 36.6861 57.5856 36.4194C57.4618 36.1528 57.2809 35.9575 57.1094 35.8813Z" fill="white"></path><path d="M56.2521 34.4194C56.295 34.2194 56.2521 33.9432 56.1283 33.6765C55.9998 33.4099 55.814 33.2194 55.6426 33.1479C55.5998 33.3479 55.6426 33.6241 55.7664 33.8908C55.895 34.1575 56.0807 34.3479 56.2521 34.4194Z" fill="white"></path><path d="M57.5 32.2288C57.6524 31.9812 57.7238 31.7098 57.7 31.5098C57.5238 31.5574 57.319 31.7241 57.1667 31.9717C57.0143 32.2193 56.9428 32.4907 56.9667 32.6907C57.1428 32.6431 57.3476 32.4764 57.5 32.2288Z" fill="white"></path><path d="M57.1475 33.2573C57.338 33.0859 57.457 32.8716 57.4856 32.6907C57.3189 32.6811 57.1094 32.7668 56.9189 32.9383C56.7284 33.1097 56.6094 33.324 56.5808 33.5049C56.7475 33.5145 56.957 33.4287 57.1475 33.2573Z" fill="white"></path><path d="M56.3808 33.8575C56.4761 33.6861 56.5189 33.4051 56.4713 33.1099C56.4237 32.8099 56.3046 32.567 56.1618 32.4385C56.0666 32.6147 56.0237 32.8909 56.0713 33.1861C56.1189 33.4861 56.238 33.729 56.3808 33.8575Z" fill="white"></path><path d="M56.8428 32.2953C56.8571 31.9953 56.7905 31.7239 56.6762 31.562C56.5476 31.7049 56.4524 31.9668 56.4333 32.2668C56.419 32.5668 56.4857 32.8382 56.6 33.0001C56.7285 32.8573 56.8238 32.5953 56.8428 32.2953Z" fill="white"></path><path d="M61.3759 33.2573C61.5664 33.4287 61.7759 33.5145 61.9426 33.5049C61.914 33.324 61.795 33.1097 61.6045 32.9383C61.414 32.7668 61.2045 32.6811 61.0378 32.6907C61.0664 32.8716 61.1855 33.0859 61.3759 33.2573Z" fill="white"></path><path d="M60.8617 37.9335C61.1331 37.9668 61.376 37.9096 61.5284 37.7906C61.4046 37.6382 61.1808 37.5192 60.9093 37.4811C60.6379 37.4477 60.3951 37.5049 60.2427 37.6239C60.3665 37.7763 60.5951 37.8954 60.8617 37.9335Z" fill="white"></path><path d="M61.5569 32.6956C61.5807 32.4908 61.5093 32.2242 61.3569 31.9766C61.2045 31.7289 60.9998 31.5623 60.8236 31.5146C60.7998 31.7194 60.8712 31.9861 61.0236 32.2337C61.176 32.4813 61.3807 32.648 61.5569 32.6956Z" fill="white"></path><path d="M61.3 36.6242C61.4238 36.3575 61.4619 36.0766 61.4143 35.8813C61.2428 35.9528 61.0619 36.148 60.9381 36.4194C60.8143 36.6861 60.7762 36.9671 60.8238 37.1623C60.9952 37.0909 61.1762 36.8956 61.3 36.6242Z" fill="white"></path><path d="M61.9237 33.0001C62.038 32.8382 62.1047 32.5715 62.0904 32.2668C62.0761 31.9668 61.9809 31.7049 61.8475 31.562C61.7333 31.7239 61.6666 31.9906 61.6809 32.2953C61.6952 32.5953 61.7904 32.8573 61.9237 33.0001Z" fill="white"></path><path d="M62.1428 33.8575C62.2857 33.729 62.4095 33.4861 62.4524 33.1861C62.5 32.8861 62.4619 32.6099 62.3619 32.4385C62.219 32.567 62.0952 32.8099 62.0524 33.1099C62.0047 33.4099 62.0428 33.6861 62.1428 33.8575Z" fill="white"></path><path d="M62.176 34.6767C62.2046 34.4957 62.1569 34.2481 62.0284 34.0195C61.8998 33.7862 61.7284 33.629 61.5665 33.5767C61.5379 33.7576 61.5903 34.0052 61.7141 34.2338C61.8427 34.4624 62.0141 34.6243 62.176 34.6767Z" fill="white"></path><path d="M62.2666 34.4194C62.438 34.3479 62.6237 34.1575 62.7523 33.8908C62.8808 33.6241 62.9237 33.3479 62.8808 33.1479C62.7094 33.2194 62.5237 33.4099 62.3951 33.6765C62.2666 33.9432 62.2237 34.2194 62.2713 34.4194H62.2666Z" fill="white"></path><path d="M61.4807 35.3384C61.4379 35.6384 61.4807 35.9146 61.576 36.086C61.7188 35.9575 61.8379 35.7098 61.8807 35.4146C61.9236 35.1146 61.8807 34.8384 61.7855 34.667C61.6427 34.7956 61.5236 35.0432 61.4807 35.3384Z" fill="white"></path><path d="M55.6332 34.2671C55.6285 34.4719 55.719 34.7338 55.8904 34.9671C56.0618 35.2004 56.2761 35.348 56.4618 35.3766C56.4666 35.1719 56.3761 34.9099 56.2047 34.6766C56.0332 34.4433 55.8189 34.2957 55.6332 34.2671Z" fill="white"></path><path d="M56.9142 37.386C57.1809 37.4384 57.4285 37.3955 57.5856 37.2908C57.4714 37.1288 57.2523 36.9955 56.9856 36.9384C56.719 36.886 56.4714 36.9288 56.3142 37.0336C56.4285 37.1955 56.6475 37.3288 56.9142 37.386Z" fill="white"></path><path d="M60.2286 37.5098C60.4571 37.3432 60.6095 37.1193 60.6571 36.9241C60.4762 36.8955 60.2333 36.967 60.0047 37.1336C59.7809 37.3003 59.6238 37.5241 59.5762 37.7193C59.7571 37.7479 60 37.6765 60.2286 37.5098Z" fill="white"></path><path d="M55.9998 36.0763C56.0569 36.2715 56.2236 36.481 56.4569 36.6334C56.6902 36.7858 56.9379 36.8382 57.1188 36.7953C57.0617 36.6001 56.895 36.3906 56.6617 36.2382C56.4283 36.0858 56.1807 36.0334 55.9998 36.0715V36.0763Z" fill="white"></path><path d="M56.8046 34.2338C56.9332 34.0005 56.9808 33.7576 56.9522 33.5767C56.7951 33.629 56.6189 33.7909 56.4903 34.0195C56.3618 34.2481 56.3142 34.4957 56.3427 34.6767C56.4999 34.6243 56.6761 34.4624 56.8046 34.2338Z" fill="white"></path><path d="M56.9474 36.086C57.0474 35.9146 57.0855 35.6384 57.0426 35.3384C56.9998 35.0384 56.8807 34.7956 56.7379 34.667C56.6379 34.8384 56.5998 35.1194 56.6426 35.4146C56.6855 35.7146 56.8045 35.9575 56.9474 36.086Z" fill="white"></path><path d="M56.9951 37.7906C57.1475 37.9096 57.3904 37.9668 57.6618 37.9335C57.9332 37.9001 58.157 37.7811 58.2808 37.6239C58.1284 37.5049 57.8856 37.4477 57.6142 37.4811C57.3427 37.5144 57.1189 37.6335 56.9951 37.7906Z" fill="white"></path><path d="M58.4236 37.8333C58.1569 37.9 57.9427 38.0476 57.8379 38.2143C57.9998 38.3143 58.2474 38.3429 58.5141 38.2762C58.7665 38.2143 58.976 38.0762 59.0855 37.9191C59.1188 37.9476 59.1522 37.981 59.1807 38.0095C58.8998 38.1762 58.6665 38.4 58.4427 38.6953C58.5284 38.8334 58.576 38.9048 58.6617 39.0429C58.8331 38.6572 59.0093 38.3429 59.2474 38.081C59.495 38.3429 59.7046 38.6619 59.8712 39.0476C59.9569 38.9095 60.0046 38.8381 60.0903 38.7C59.8665 38.4095 59.6141 38.181 59.3188 38.0095C59.3522 37.9762 59.3807 37.9476 59.4141 37.9191C59.5236 38.0762 59.7331 38.2191 59.9903 38.281C60.2569 38.3476 60.5046 38.3191 60.6665 38.2191C60.5617 38.0524 60.3427 37.9048 60.0807 37.8381C59.8569 37.781 59.6379 37.7953 59.4807 37.8619C59.4807 37.8619 59.4807 37.8619 59.476 37.8619C59.476 37.8619 59.4665 37.8619 59.4617 37.8667C59.3855 37.9 59.3188 37.9334 59.2474 37.9667C59.2474 37.9667 59.1569 37.9143 59.0093 37.8524C58.8522 37.7905 58.6427 37.7762 58.4188 37.8333H58.4236Z" fill="white"></path><path d="M58.2903 37.5098C58.5141 37.6765 58.7617 37.7479 58.9426 37.7193C58.895 37.5193 58.7426 37.3003 58.5188 37.1336C58.295 36.967 58.0474 36.8955 57.8665 36.9241C57.9141 37.1241 58.0665 37.3432 58.295 37.5098H58.2903Z" fill="white"></path><path d="M62.6331 34.9671C62.8046 34.7338 62.895 34.4719 62.8903 34.2671C62.7093 34.2957 62.495 34.4433 62.3188 34.6766C62.1474 34.9099 62.0569 35.1719 62.0617 35.3766C62.2427 35.348 62.4569 35.2004 62.6331 34.9671Z" fill="white"></path><path d="M61.8617 36.2382C61.6284 36.3906 61.4617 36.6001 61.4045 36.7954C61.5855 36.8382 61.8331 36.7811 62.0664 36.6335C62.2998 36.4811 62.4664 36.2716 62.5236 36.0763C62.3426 36.0335 62.095 36.0906 61.8617 36.243V36.2382Z" fill="white"></path><path d="M62.3285 35.3719C62.0952 35.5243 61.9285 35.7338 61.8713 35.929C62.0523 35.9719 62.2999 35.9148 62.5332 35.7624C62.7666 35.61 62.9332 35.4005 62.9904 35.2052C62.8094 35.1624 62.5618 35.2195 62.3285 35.3719Z" fill="white"></path><path d="M61.538 36.9433C61.2713 36.9956 61.0523 37.1337 60.938 37.2956C61.0951 37.4052 61.3428 37.4433 61.6094 37.3909C61.8761 37.3385 62.0951 37.2004 62.2094 37.0385C62.0523 36.9337 61.8047 36.8909 61.538 36.9433Z" fill="white"></path><path d="M62.8809 33.1479C62.9238 33.3479 62.8809 33.6241 62.7524 33.8908C62.6238 34.1575 62.4428 34.3479 62.2666 34.4194C62.2238 34.2194 62.2666 33.9432 62.3904 33.6765C62.519 33.4099 62.7047 33.2194 62.8762 33.1479H62.8809Z" fill="white"></path><path d="M61.7189 34.2338C61.5903 34.0005 61.5427 33.7576 61.5712 33.5767C61.7284 33.629 61.9046 33.7909 62.0331 34.0195C62.1617 34.2481 62.2093 34.4957 62.1808 34.6767C62.0236 34.6243 61.8474 34.4624 61.7189 34.2338Z" fill="white"></path><path d="M61.8808 35.4146C61.8379 35.7146 61.7189 35.9575 61.576 36.086C61.476 35.9146 61.4379 35.6384 61.4808 35.3384C61.5236 35.0384 61.6427 34.7956 61.7855 34.667C61.8855 34.8384 61.9236 35.1194 61.8808 35.4146Z" fill="white"></path><path d="M62.3188 34.6766C62.4903 34.4433 62.7093 34.2957 62.8903 34.2671C62.895 34.4719 62.8046 34.7338 62.6331 34.9671C62.4617 35.2004 62.2427 35.348 62.0617 35.3766C62.0569 35.1719 62.1474 34.9099 62.3188 34.6766Z" fill="white"></path><path d="M62.3618 32.4385C62.457 32.6147 62.4999 32.8909 62.4523 33.1861C62.4047 33.4861 62.2856 33.729 62.1427 33.8575C62.0475 33.6861 62.0047 33.4051 62.0523 33.1099C62.0999 32.8099 62.2189 32.567 62.3618 32.4385Z" fill="white"></path><path d="M61.8475 31.562C61.9761 31.7049 62.0713 31.9668 62.0904 32.2668C62.1047 32.5668 62.038 32.8382 61.9237 33.0001C61.7952 32.8573 61.6999 32.5953 61.6809 32.2953C61.6666 31.9953 61.7333 31.7239 61.8475 31.562Z" fill="white"></path><path d="M61.9426 33.5049C61.7759 33.5145 61.5664 33.4287 61.3759 33.2573C61.1855 33.0859 61.0664 32.8716 61.0378 32.6907C61.2045 32.6811 61.414 32.7668 61.6045 32.9383C61.795 33.1097 61.914 33.324 61.9426 33.5049Z" fill="white"></path><path d="M60.8189 31.5098C60.9999 31.5574 61.1999 31.7241 61.3523 31.9717C61.5047 32.2193 61.5761 32.4907 61.5523 32.6907C61.3761 32.6431 61.1713 32.4764 61.0189 32.2288C60.8666 31.9812 60.7951 31.7098 60.8189 31.5098Z" fill="white"></path><path d="M60.9381 36.4194C61.0619 36.1528 61.2428 35.9575 61.4143 35.8813C61.4619 36.0813 61.4238 36.3575 61.3 36.6242C61.1762 36.8956 60.9952 37.0861 60.8238 37.1623C60.7762 36.9623 60.8143 36.6861 60.9381 36.4194Z" fill="white"></path><path d="M60.9093 37.486C61.1808 37.5193 61.4046 37.6383 61.5284 37.7955C61.376 37.9145 61.1331 37.9717 60.8617 37.9383C60.5903 37.905 60.3665 37.786 60.2427 37.6288C60.3903 37.5098 60.6379 37.4526 60.9093 37.486Z" fill="white"></path><path d="M60.0047 37.1336C60.2286 36.967 60.4762 36.8955 60.6571 36.9241C60.6095 37.1241 60.4571 37.3432 60.2286 37.5098C60.0047 37.6765 59.7571 37.7479 59.5762 37.7193C59.6238 37.5193 59.7762 37.3003 60.0047 37.1336Z" fill="white"></path><path d="M59.2523 37.9667C59.319 37.9286 59.3904 37.8953 59.4666 37.8667C59.4666 37.8667 59.4761 37.8667 59.4809 37.8619C59.4809 37.8619 59.4809 37.8619 59.4856 37.8619C59.6428 37.7953 59.8571 37.781 60.0856 37.8381C60.3523 37.9048 60.5666 38.0524 60.6713 38.2191C60.5094 38.3191 60.2618 38.3476 59.9952 38.281C59.738 38.2191 59.5285 38.0762 59.419 37.9191C59.3856 37.9476 59.3523 37.981 59.3237 38.0095C59.619 38.181 59.8761 38.4095 60.0952 38.7C60.0094 38.8381 59.9618 38.9095 59.8761 39.0476C59.7047 38.6667 59.4999 38.3476 59.2523 38.081C59.0142 38.3429 58.8332 38.6572 58.6666 39.0429C58.5809 38.9048 58.5332 38.8334 58.4475 38.6953C58.6713 38.4048 58.8999 38.181 59.1856 38.0095C59.1523 37.9762 59.1237 37.9476 59.0904 37.9191C58.9809 38.0762 58.7713 38.2143 58.519 38.2762C58.2523 38.3429 58.0047 38.3143 57.8428 38.2143C57.9475 38.0476 58.1666 37.9 58.4285 37.8333C58.6475 37.7762 58.8618 37.7905 59.019 37.8524C59.1713 37.9143 59.2571 37.9667 59.2571 37.9667H59.2523Z" fill="white"></path><path d="M58.519 37.1336C58.7428 37.3003 58.8999 37.5241 58.9428 37.7193C58.7618 37.7479 58.519 37.6765 58.2904 37.5098C58.0666 37.3432 57.9094 37.1193 57.8618 36.9241C58.0428 36.8955 58.2856 36.967 58.5142 37.1336H58.519Z" fill="white"></path><path d="M58.2808 37.6288C58.157 37.7812 57.9332 37.9002 57.6618 37.9383C57.3904 37.9717 57.1475 37.9145 56.9951 37.7955C57.1189 37.6431 57.3427 37.5241 57.6142 37.486C57.8856 37.4526 58.1284 37.5098 58.2808 37.6288Z" fill="white"></path><path d="M56.3475 34.6767C56.3189 34.4957 56.3713 34.2481 56.4951 34.0195C56.6236 33.7862 56.7951 33.629 56.957 33.5767C56.9856 33.7576 56.9332 34.0052 56.8094 34.2338C56.6808 34.4624 56.5094 34.6243 56.3475 34.6767Z" fill="white"></path><path d="M56.4618 35.3766C56.2809 35.348 56.0666 35.2004 55.8904 34.9671C55.719 34.7338 55.6285 34.4719 55.6332 34.2671C55.8142 34.2957 56.0285 34.4433 56.2047 34.6766C56.3761 34.9099 56.4666 35.1719 56.4618 35.3766Z" fill="white"></path><path d="M56.7379 34.6621C56.8807 34.7907 56.9998 35.0383 57.0426 35.3335C57.0855 35.6335 57.0426 35.9097 56.9474 36.0812C56.8045 35.9526 56.6855 35.705 56.6426 35.4097C56.5998 35.1097 56.6426 34.8335 56.7379 34.6621Z" fill="white"></path><path d="M57.1188 36.7954C56.9379 36.8382 56.6902 36.7811 56.4569 36.6335C56.2236 36.4811 56.0569 36.2716 55.9998 36.0763C56.1807 36.0335 56.4283 36.0906 56.6617 36.243C56.895 36.3954 57.0617 36.6049 57.1188 36.8001V36.7954Z" fill="white"></path><path d="M56.9856 36.9433C57.2523 36.9956 57.4761 37.1337 57.5856 37.2956C57.4285 37.4052 57.1809 37.4433 56.9142 37.3909C56.6475 37.3385 56.4285 37.2004 56.3142 37.0385C56.4714 36.9337 56.719 36.8909 56.9856 36.9433Z" fill="white"></path><path d="M57.6999 37.1623C57.5285 37.0909 57.3475 36.8956 57.2237 36.6242C57.0999 36.3575 57.0618 36.0766 57.1094 35.8813C57.2809 35.9528 57.4618 36.148 57.5856 36.4194C57.7094 36.6861 57.7475 36.9671 57.6999 37.1623Z" fill="white"></path><path d="M57.1667 31.9717C57.319 31.7241 57.5238 31.5574 57.7 31.5098C57.7238 31.7145 57.6524 31.9812 57.5 32.2288C57.3476 32.4764 57.1428 32.6431 56.9667 32.6907C56.9428 32.486 57.0143 32.2193 57.1667 31.9717Z" fill="white"></path><path d="M56.9143 32.9432C57.1047 32.7717 57.3143 32.686 57.4809 32.6955C57.4524 32.8765 57.3333 33.0908 57.1428 33.2622C56.9524 33.4336 56.7428 33.5193 56.5762 33.5098C56.6047 33.3289 56.7238 33.1146 56.9143 32.9432Z" fill="white"></path><path d="M56.4333 32.2668C56.4476 31.9668 56.5428 31.7049 56.6762 31.562C56.7905 31.7239 56.8571 31.9906 56.8428 32.2953C56.8285 32.5953 56.7333 32.8573 56.6 33.0001C56.4857 32.8382 56.419 32.5715 56.4333 32.2668Z" fill="white"></path><path d="M56.1619 32.4385C56.3047 32.567 56.4285 32.8099 56.4714 33.1099C56.519 33.4099 56.4809 33.6861 56.3809 33.8575C56.2381 33.729 56.1143 33.4861 56.0714 33.1861C56.0238 32.8861 56.0619 32.6099 56.1619 32.4385Z" fill="white"></path><path d="M55.6427 33.1479C55.8141 33.2194 55.9998 33.4099 56.1284 33.6765C56.257 33.9432 56.2998 34.2194 56.2522 34.4194C56.0808 34.3479 55.895 34.1575 55.7665 33.8908C55.6379 33.6241 55.595 33.3479 55.6427 33.1479Z" fill="white"></path><path d="M61.6094 37.386C61.3428 37.4384 61.0951 37.3955 60.938 37.2908C61.0523 37.1288 61.2713 36.9955 61.538 36.9384C61.8047 36.886 62.0523 36.9288 62.2094 37.0336C62.0951 37.1955 61.8761 37.3288 61.6094 37.386Z" fill="white"></path><path d="M62.0664 36.6334C61.8331 36.7858 61.5855 36.8382 61.4045 36.7953C61.4617 36.6001 61.6284 36.3906 61.8617 36.2382C62.095 36.0858 62.3426 36.0334 62.5236 36.0715C62.4664 36.2668 62.2998 36.4763 62.0664 36.6287V36.6334Z" fill="white"></path><path d="M62.5284 35.7668C62.295 35.9192 62.0474 35.9716 61.8665 35.9335C61.9236 35.7383 62.0903 35.5287 62.3236 35.3764C62.5569 35.224 62.8046 35.1716 62.9855 35.2097C62.9284 35.4049 62.7617 35.6145 62.5284 35.7668Z" fill="white"></path><path d="M56.1951 35.3719C56.4284 35.5243 56.5951 35.7338 56.6523 35.929C56.4713 35.9719 56.2237 35.9148 55.9903 35.7624C55.757 35.61 55.5903 35.4005 55.5332 35.2052C55.7142 35.1624 55.9618 35.2195 56.1951 35.3719Z" fill="white"></path><path d="M30.7095 11.3384L31.1143 12.0717L28.9 13.2955L29.2476 13.9289L31.2143 12.8431L31.6143 13.5717L29.6476 14.6574L30.1333 15.5336L29.2714 16.0098L27.6333 13.0431L30.7095 11.3431V11.3384Z" fill="white"></path><path d="M36.3001 12.6237L35.762 12.1523L33.8286 12.938L33.7715 13.6523L32.7905 14.0523L33.1334 10.2571L34.3905 9.74756L37.281 12.2285L36.3048 12.6237H36.3001ZM33.8953 12.1142L35.1334 11.6095L34.0143 10.6333L33.8953 12.1095V12.1142Z" fill="white"></path><path d="M41.3476 10.1764L40.7619 7.81927L41.7095 7.58594L42.5238 10.8764L41.1286 11.224L38.6048 9.34784L39.1905 11.705L38.2381 11.9431L37.4238 8.6526L38.8238 8.30499L41.3476 10.1812V10.1764Z" fill="white"></path><path d="M46.1189 6.96208L50.1998 6.79541L50.2332 7.62874L48.6856 7.69065L48.7903 10.243L47.8094 10.2811L47.7046 7.72874L46.1522 7.79065L46.1189 6.95731V6.96208Z" fill="white"></path><path d="M51.3905 8.49526C51.4857 7.37622 52.3143 6.78098 53.7381 6.90479C55.1572 7.0286 55.8762 7.75717 55.781 8.87145C55.6857 9.9905 54.8524 10.5905 53.4334 10.4715C52.0096 10.3476 51.2953 9.61907 51.3905 8.49526ZM54.7572 8.78574C54.8096 8.20003 54.5048 7.80955 53.6667 7.73812C52.8334 7.66669 52.4667 7.9905 52.4191 8.58574C52.3667 9.18098 52.6762 9.57145 53.5048 9.64288C54.3381 9.71431 54.7096 9.38098 54.7619 8.7905L54.7572 8.78574Z" fill="white"></path><path d="M61.6191 8.36693L59.6239 9.38121L60.8715 11.6765L59.6667 11.405L58.8001 9.80502L57.8524 10.286L57.7001 10.9574L56.7429 10.7431L57.4905 7.43359L58.4524 7.65264L58.1191 9.13836L60.1858 8.04788L61.6239 8.37169L61.6191 8.36693Z" fill="white"></path><path d="M66.3286 9.99553L66.0667 10.7193L63.6858 9.85744L63.5 10.367L65.7905 11.1955L65.5286 11.9193L63.2381 11.0908L63.0524 11.6003L65.4334 12.4622L65.1715 13.186L61.8667 11.9908L63.0191 8.80029L66.3238 9.99553H66.3286Z" fill="white"></path><path d="M69.7618 14.3526L70.8761 12.1907L71.7476 12.6383L70.1904 15.6526L68.9095 14.9907L68.2476 11.9097L67.1333 14.0716L66.2571 13.6193L67.8142 10.605L69.0999 11.2669L69.7618 14.3478V14.3526Z" fill="white"></path><path d="M27.3953 85.4763C27.2476 85.7192 27.3953 86.0239 28.1572 86.4858C28.8572 86.9049 29.0953 86.9001 29.2048 86.7192C29.3334 86.5097 29.2238 86.3906 28.3953 85.8144C27.2667 85.024 26.8905 84.4763 27.2762 83.8335C27.6429 83.2287 28.4619 83.3478 29.4667 83.9525C30.5857 84.6239 31.0238 85.3525 30.6619 86.0144L29.781 85.4859C29.9334 85.2287 29.7143 84.962 29.0619 84.5716C28.4429 84.2001 28.2429 84.2192 28.1476 84.3763C28.0381 84.5573 28.1476 84.6954 28.8953 85.2335C29.9143 85.9573 30.5619 86.4478 30.1048 87.2097C29.6572 87.9525 28.8381 87.7573 27.8048 87.1335C26.6286 86.4239 26.0905 85.7382 26.5096 84.9478L27.3905 85.4811L27.3953 85.4763Z" fill="white"></path><path d="M31.5238 87.1909C31.9714 86.1576 32.9428 85.8623 34.2571 86.429C35.5667 86.9957 36.0143 87.9147 35.5714 88.9433C35.1238 89.9766 34.1428 90.2814 32.8333 89.7147C31.519 89.148 31.0762 88.229 31.5238 87.1909ZM34.6286 88.5385C34.8619 87.9957 34.6952 87.5338 33.9238 87.1957C33.1571 86.8623 32.7047 87.0576 32.4714 87.6004C32.2333 88.1481 32.4047 88.6147 33.1667 88.948C33.9333 89.2814 34.3952 89.0814 34.6286 88.5338V88.5385Z" fill="white"></path><path d="M39.2952 88.2146C40.4952 88.5527 41.0333 89.2574 40.8952 90.1241L39.8905 89.8431C39.9095 89.5241 39.6762 89.186 39.0714 89.0193C38.3714 88.8241 37.9381 89.0717 37.7762 89.6431C37.6143 90.2193 37.8619 90.6622 38.5571 90.8574C39.1619 91.0241 39.5381 90.8574 39.6857 90.5669L40.6905 90.8479C40.3571 91.6669 39.5333 91.9955 38.3286 91.6622C37.019 91.2955 36.4714 90.486 36.7809 89.3669C37.0952 88.2527 37.9809 87.8479 39.2905 88.2146H39.2952Z" fill="white"></path><path d="M43.3953 89.2289L42.7953 92.5623L41.8286 92.3861L42.4286 89.0527L43.3953 89.2289Z" fill="white"></path><path d="M44.4191 91.1481C44.5096 90.029 45.3334 89.4338 46.7572 89.5481C48.1763 89.6624 48.9001 90.3909 48.8049 91.5052C48.7144 92.6243 47.8858 93.229 46.462 93.1147C45.0382 93.0005 44.3191 92.2719 44.4144 91.1481H44.4191ZM47.7858 91.4243C47.8334 90.8386 47.5287 90.4528 46.6906 90.3814C45.8572 90.3148 45.4953 90.6433 45.443 91.2338C45.3953 91.829 45.7049 92.2148 46.5334 92.2862C47.3668 92.3528 47.7382 92.0195 47.7858 91.4243Z" fill="white"></path><path d="M51.119 92.048C51.1333 92.3337 51.4238 92.5051 52.3143 92.4575C53.1286 92.4146 53.3238 92.2766 53.3095 92.0623C53.2952 91.8146 53.1428 91.7813 52.1333 91.767C50.7571 91.7432 50.1333 91.5004 50.0952 90.748C50.0571 90.0432 50.8047 89.6813 51.9762 89.6242C53.2809 89.5575 54.0524 89.9099 54.119 90.6623L53.0952 90.7146C53.0809 90.4146 52.7476 90.3194 51.9857 90.3575C51.2666 90.3956 51.1095 90.5242 51.119 90.7051C51.1285 90.9146 51.2952 90.9718 52.219 91.0004C53.4666 91.0289 54.2809 91.0718 54.3285 91.9623C54.3714 92.8289 53.5857 93.1242 52.3809 93.1861C51.0095 93.2575 50.1762 92.9861 50.0857 92.0956L51.1143 92.0432L51.119 92.048Z" fill="white"></path><path d="M55.7428 92.0434L56.6809 91.9053L56.7857 92.6338L55.8476 92.7719L55.738 92.0434H55.7428Z" fill="white"></path><path d="M59.4811 88.5387C60.6953 88.2434 61.5096 88.5958 61.8144 89.4196L60.8001 89.6673C60.662 89.3768 60.2906 89.2006 59.6811 89.3482C58.9763 89.5196 58.7192 89.9482 58.8572 90.5292C59.0001 91.1101 59.4334 91.3768 60.1334 91.2054C60.743 91.0577 60.9906 90.7244 60.9763 90.3958L61.9906 90.1482C62.1001 91.0244 61.543 91.7196 60.3287 92.0149C59.0049 92.3387 58.1287 91.9006 57.8525 90.772C57.5763 89.6482 58.1525 88.8625 59.4763 88.5387H59.4811Z" fill="white"></path><path d="M63.1524 89.3956C62.7382 88.348 63.2191 87.4527 64.5477 86.9242C65.8715 86.4003 66.8429 86.7337 67.2524 87.7765C67.6667 88.8242 67.1858 89.7337 65.862 90.2575C64.5334 90.7813 63.5667 90.448 63.1524 89.3956ZM66.3001 88.1527C66.0858 87.6051 65.6382 87.3908 64.8572 87.7003C64.081 88.0051 63.8953 88.4622 64.1143 89.0146C64.3334 89.5718 64.7858 89.7813 65.5572 89.4765C66.3334 89.1718 66.5191 88.7051 66.3001 88.1527Z" fill="white"></path><path d="M69.3334 88.6956L67.6287 85.7623L68.9525 84.9908L71.1049 86.3432L70.9906 83.8051L72.3144 83.0337L74.0191 85.967L73.1715 86.4575L71.9382 84.3337L72.0715 87.1004L71.2858 87.5575L68.9477 86.0765L70.1858 88.2004L69.3334 88.6956Z" fill="white"></path><path d="M23.019 81.8382C13.9952 74.1811 8.2666 62.7573 8.2666 50.0001C8.2666 37.243 14.2999 25.2144 23.738 17.562" stroke="white" stroke-miterlimit="10"></path><path d="M76.2666 17.5669C85.7047 25.2193 91.7333 36.905 91.7333 50.0002C91.7333 63.0955 86.0047 74.1859 76.9809 81.8431" stroke="white" stroke-miterlimit="10"></path></g><defs><clipPath id="clip0_101_22123"><rect width="100" height="100" fill="white"></rect></clipPath></defs></svg>