<svg xmlns="http://www.w3.org/2000/svg" width="100" height="100" viewBox="0 0 100 100" fill="none"><g clip-path="url(#clip0_101_22111)"><path d="M50 100C77.6142 100 100 77.6142 100 50C100 22.3858 77.6142 0 50 0C22.3858 0 0 22.3858 0 50C0 77.6142 22.3858 100 50 100Z" fill="#7F0A1F"></path><path d="M50 100C22.3857 100 0 77.6143 0 50C0 22.3857 22.3857 0 50 0V100Z" fill="#006337"></path><path d="M50 2.53333C76.1714 2.53333 97.4667 23.8286 97.4667 50C97.4667 76.1714 76.1714 97.4667 50 97.4667C23.8286 97.4667 2.53333 76.1714 2.53333 50C2.53333 23.8286 23.8286 2.53333 50 2.53333ZM50 0C22.3857 0 0 22.3857 0 50C0 77.6143 22.3857 100 50 100C77.6143 100 100 77.6143 100 50C100 22.3857 77.6143 0 50 0Z" fill="white"></path><path fill-rule="evenodd" clip-rule="evenodd" d="M50.0095 22.3003C43.8095 29.9908 35.8 32.9908 26.0476 31.0908C25.8238 56.2431 37.4238 68.1289 50.0095 77.7003C62.4619 68.2574 74.2762 56.1717 73.9524 31.1146C63.8238 32.9955 56.2667 30.0765 50.0095 22.3003Z" fill="white" stroke="#900B26" stroke-miterlimit="2.61"></path><path fill-rule="evenodd" clip-rule="evenodd" d="M68.6189 50.5146C65.8761 58.0385 60.4523 65.8623 49.9999 74.367C39.6666 65.9051 34.2475 58.0242 31.4761 50.5146H68.6189Z" fill="#006337"></path><path fill-rule="evenodd" clip-rule="evenodd" d="M28.738 34.1815C41.4476 34.3148 45.0999 31.7529 49.9999 26.3101C55.2857 31.591 58.7952 34.3434 71.2666 34.1815C71.219 39.1815 70.7237 44.1862 69.038 49.3196H31.0523C29.3142 44.1243 28.7952 39.1005 28.738 34.1815Z" fill="#7F0A1F"></path><path fill-rule="evenodd" clip-rule="evenodd" d="M44.0334 35.2763C44.4573 35.4097 45.3096 35.1239 45.7715 36.0192C46.0001 36.4668 46.4096 36.9573 46.5477 37.9097L49.1811 37.5001C48.8858 36.4668 49.0906 36.443 48.8287 35.6287C50.4573 35.4716 52.0334 35.1239 53.5049 34.343C54.2239 34.9478 54.8715 35.4525 55.7287 35.8049C52.4668 37.6287 52.8001 39.1097 53.0382 40.0716L54.3239 41.5906C54.2715 38.4001 56.3287 36.362 58.8858 35.743C57.1382 34.7954 55.4525 33.7239 53.8573 32.4668C50.9477 33.4906 47.3525 34.6477 45.8477 33.5192L44.0334 35.2716V35.2763Z" fill="white"></path><path fill-rule="evenodd" clip-rule="evenodd" d="M41.4047 42.7147C41.3952 42.8147 43.6095 41.6005 44.1523 41.8624L43.9476 40.6052C46.5285 39.4481 49.1619 38.9576 52.7381 39.5528C52.7619 38.9862 52.7381 38.5671 53 38.0052C51.8142 37.7909 50.6238 37.7528 49.4095 37.6528C48.5619 37.729 47.3142 37.8624 46.4 38.1481C45.4857 38.4385 44.4952 38.8243 43.6523 38.9052C42.8095 38.9862 42.4047 38.7195 41.6381 38.5243C41.0047 39.2528 40.6333 39.5766 39.6809 40.4243C40.4523 40.2481 41.6142 40.5195 41.4428 42.2957L41.4047 42.71V42.7147Z" fill="white"></path><path fill-rule="evenodd" clip-rule="evenodd" d="M55.2952 38.4099C57.8142 39.3433 57.8714 38.4671 58.9523 38.3813L59.5904 39.6337C56.2714 40.6194 54.7142 44.5718 57.1523 46.829C54.7809 47.2813 53.3714 44.3242 55.2666 40.7194C55.3761 40.5099 55.2523 40.1766 55.3856 39.9671L54.6856 39.7861C54.8094 39.2385 55.0523 38.9337 55.2952 38.4147V38.4099Z" fill="white"></path><path fill-rule="evenodd" clip-rule="evenodd" d="M56.7571 42.0386C56.4809 42.4671 56.238 43.0433 56.2095 43.6862C57.5047 44.1338 58.2428 44.8576 58.7428 46.5814C58.7571 46.6338 58.7809 46.6862 58.8047 46.7386C59.4619 48.4243 62.6952 48.4671 63.2571 47.8957C63.3999 47.2433 63.2047 46.8386 62.619 46.6767C61.938 46.6814 62.019 47.3624 61.3999 47.1957C60.638 46.9291 60.219 46.5957 60.0333 45.9576C59.7571 45.0005 60.2999 43.9719 61.7619 43.6291L61.0285 42.6243C59.5809 42.7005 58.1285 42.7005 56.7571 42.0433V42.0386Z" fill="white"></path><path fill-rule="evenodd" clip-rule="evenodd" d="M54.7761 41.4576L54.4428 41.3671L54.3809 41.6719L54.2285 41.7338L53.7999 41.2147C52.3571 41.0433 50.9142 41.0338 49.4713 41.1862L49.3809 42.8624C51.0904 42.729 52.7428 42.8005 54.2904 43.0767C54.4047 42.5052 54.5142 41.9671 54.7761 41.4624V41.4576Z" fill="white"></path><path fill-rule="evenodd" clip-rule="evenodd" d="M46.4286 40.0529L46.3096 48.4671L48.762 48.3529L48.881 47.01L50.6905 46.8909L50.981 47.1814C49.6953 50.7243 50.4334 52.8671 53.2 53.6052L53.2572 53.2529C51.4286 51.9671 51.1524 48.7148 53.5477 47.0005L52.7905 45.4814C51.3715 45.1052 50.0048 46.129 48.8762 45.3624L49.2858 39.5767C48.3905 39.6529 47.4334 39.6148 46.4239 40.0433L46.4286 40.0529Z" fill="white"></path><path fill-rule="evenodd" clip-rule="evenodd" d="M43.3334 55.9433L43.043 58.1624C46.3668 58.8766 50.0001 59.0481 54.2573 57.5766C56.4192 56.8385 58.5239 56.0385 60.743 56.41C60.3144 55.7671 62.4001 51.8528 64.1906 54.1338L65.1858 54.1909C64.7382 53.2957 64.7573 52.81 66.1192 52.029C64.6192 51.8528 63.5287 51.9719 62.4954 51.1528C57.9477 55.3957 50.9763 57.5433 43.3334 55.9433Z" fill="white"></path><path fill-rule="evenodd" clip-rule="evenodd" d="M52.5047 48.5811C52.1237 49.243 51.9523 49.643 52.038 50.3049C52.9904 50.3906 53.8285 50.862 54.1999 51.562L54.2285 48.4668L52.5047 48.5858V48.5811Z" fill="white"></path><path fill-rule="evenodd" clip-rule="evenodd" d="M46.3762 50.4291L46.1047 56.1767C47.0047 56.3148 47.7047 56.3434 48.5285 56.3243L48.7047 50.4243L46.3762 50.4338V50.4291Z" fill="white"></path><path fill-rule="evenodd" clip-rule="evenodd" d="M46.0524 58.7764C47.0762 58.9049 47.9571 58.8526 48.7381 58.8907C48.9524 62.3811 50.2667 63.7907 53.1905 64.724C53.7762 64.9097 54.4952 65.1049 54.9238 65.3764C47.9524 66.0287 47.9714 61.5383 44.8571 64.9668L44.0095 63.7716C45.0571 62.7859 45.6714 60.8573 46.0524 58.7764Z" fill="white"></path><path fill-rule="evenodd" clip-rule="evenodd" d="M46.0952 41.6859C41.8713 42.1002 38.019 44.4859 34.719 49.7621C34.4618 50.1335 33.9475 50.705 33.8523 50.8145C34.2856 50.8907 34.5999 51.224 34.7952 51.4097C36.5047 54.505 38.3809 56.3002 40.319 57.3145C40.5952 56.5907 40.6523 55.8669 40.7523 55.1431C39.5523 54.605 36.9475 52.2478 37.1904 49.6716C38.4332 46.3859 42.4142 43.5335 46.0904 43.5907V41.6812L46.0952 41.6859Z" fill="white"></path><path fill-rule="evenodd" clip-rule="evenodd" d="M41.543 45.3575C42.2811 44.7098 43.0858 44.2527 44.0096 44.167L44.0953 48.9813C46.0906 48.5051 48.3001 48.4622 50.2953 48.5908L50.1287 50.1527C48.0906 50.1956 45.8287 50.1956 43.7477 50.8908C43.4287 54.0194 43.1525 57.0146 42.2287 60.0098C43.7477 60.5146 44.5144 61.1813 44.8763 61.9194L44.1811 63.2241C43.2096 61.886 42.2572 61.1765 40.4477 61.486L39.5811 60.7051C41.4906 57.0432 41.2811 49.9337 41.543 45.3575Z" fill="white"></path><path fill-rule="evenodd" clip-rule="evenodd" d="M45.0571 64.9621C45.2523 64.8954 45.838 66.005 46.838 66.2859C46.8856 66.3335 47.5333 66.2621 47.2094 66.1335C46.8856 66.005 46.2761 65.1764 45.9047 64.2002C45.9047 64.2002 44.8618 65.024 45.0571 64.9621Z" fill="white"></path><path d="M30.7095 11.3384L31.1143 12.0717L28.9 13.2955L29.2476 13.9289L31.2143 12.8431L31.6143 13.5717L29.6476 14.6574L30.1333 15.5336L29.2714 16.0098L27.6333 13.0431L30.7095 11.3431V11.3384Z" fill="white"></path><path d="M36.3001 12.6237L35.762 12.1523L33.8286 12.938L33.7715 13.6523L32.7905 14.0523L33.1334 10.2571L34.3905 9.74756L37.281 12.2285L36.3048 12.6237H36.3001ZM33.8953 12.1142L35.1334 11.6095L34.0143 10.6333L33.8953 12.1142Z" fill="white"></path><path d="M41.3476 10.1764L40.7619 7.81927L41.7095 7.58594L42.5238 10.8764L41.1286 11.224L38.6048 9.34784L39.1905 11.705L38.2381 11.9431L37.4238 8.6526L38.8238 8.30499L41.3476 10.1812V10.1764Z" fill="white"></path><path d="M46.1189 6.96208L50.1998 6.79541L50.2332 7.62874L48.6856 7.69065L48.7903 10.243L47.8094 10.2811L47.7046 7.72874L46.1522 7.79065L46.1189 6.95731V6.96208Z" fill="white"></path><path d="M51.3905 8.49526C51.4857 7.37622 52.3143 6.78098 53.7381 6.90479C55.1572 7.0286 55.8762 7.75717 55.781 8.87145C55.6857 9.9905 54.8524 10.5953 53.4334 10.4715C52.0096 10.3476 51.2953 9.61907 51.3905 8.49526ZM54.7572 8.78574C54.8096 8.20003 54.5048 7.80955 53.6667 7.73812C52.8334 7.66669 52.4667 7.9905 52.4191 8.58574C52.3667 9.18098 52.6762 9.57145 53.5048 9.64288C54.3381 9.71431 54.7096 9.38098 54.7619 8.7905L54.7572 8.78574Z" fill="white"></path><path d="M61.6239 8.36681L59.6334 9.38109L60.881 11.6763L59.6763 11.4049L58.8096 9.8049L57.862 10.2859L57.7096 10.9573L56.7524 10.7382L57.5001 7.42871L58.462 7.643L58.1286 9.12871L60.1953 8.03823L61.6334 8.36204L61.6239 8.36681Z" fill="white"></path><path d="M66.3286 9.99553L66.0667 10.7193L63.6858 9.85744L63.5 10.367L65.7905 11.1955L65.5286 11.9193L63.2381 11.0908L63.0524 11.6003L65.4334 12.4622L65.1715 13.186L61.8667 11.9908L63.0191 8.80029L66.3238 9.99553H66.3286Z" fill="white"></path><path d="M69.7618 14.3526L70.8761 12.1907L71.7476 12.6383L70.1904 15.6526L68.9095 14.9907L68.2476 11.9097L67.1333 14.0716L66.2571 13.6193L67.8142 10.605L69.0999 11.2669L69.7618 14.3478V14.3526Z" fill="white"></path><path d="M27.3953 85.4763C27.2476 85.7192 27.3953 86.0239 28.1572 86.4858C28.8572 86.9049 29.0953 86.9001 29.2048 86.7192C29.3334 86.5097 29.2238 86.3906 28.3953 85.8144C27.2667 85.024 26.8905 84.4763 27.2762 83.8335C27.6429 83.2287 28.4619 83.3478 29.4667 83.9525C30.5857 84.6239 31.0238 85.3525 30.6619 86.0144L29.781 85.4859C29.9334 85.2287 29.7143 84.962 29.0619 84.5716C28.4429 84.2001 28.2429 84.2192 28.1476 84.3763C28.0381 84.5573 28.1476 84.6954 28.8953 85.2335C29.9143 85.9573 30.5619 86.4478 30.1048 87.2097C29.6572 87.9525 28.8381 87.7573 27.8048 87.1335C26.6286 86.4239 26.0905 85.7382 26.5096 84.9478L27.3905 85.4811L27.3953 85.4763Z" fill="white"></path><path d="M31.5238 87.1909C31.9714 86.1576 32.9428 85.8623 34.2571 86.429C35.5667 86.9957 36.0143 87.9147 35.5714 88.9433C35.1238 89.9766 34.1428 90.2814 32.8333 89.7147C31.519 89.148 31.0762 88.229 31.5238 87.1909ZM34.6286 88.5385C34.8619 87.9957 34.6952 87.5338 33.9238 87.1957C33.1571 86.8623 32.7047 87.0576 32.4714 87.6004C32.2333 88.1481 32.4047 88.6147 33.1667 88.948C33.9333 89.2814 34.3952 89.0814 34.6286 88.5338V88.5385Z" fill="white"></path><path d="M39.2952 88.2146C40.4952 88.5527 41.0333 89.2574 40.8952 90.1241L39.8905 89.8431C39.9095 89.5241 39.6762 89.186 39.0714 89.0193C38.3714 88.8241 37.9381 89.0717 37.7762 89.6431C37.6143 90.2193 37.8619 90.6622 38.5571 90.8574C39.1619 91.0241 39.5381 90.8574 39.6857 90.5669L40.6905 90.8479C40.3571 91.6669 39.5333 91.9955 38.3286 91.6622C37.019 91.2955 36.4714 90.486 36.7809 89.3669C37.0952 88.2527 37.9809 87.8479 39.2905 88.2146H39.2952Z" fill="white"></path><path d="M43.3953 89.2289L42.7953 92.5623L41.8286 92.3861L42.4286 89.0527L43.3953 89.2289Z" fill="white"></path><path d="M44.4191 91.1481C44.5096 90.029 45.3334 89.4338 46.7572 89.5481C48.1763 89.6624 48.9001 90.3909 48.8049 91.5052C48.7144 92.6243 47.8858 93.229 46.462 93.1147C45.0382 93.0005 44.3191 92.2719 44.4144 91.1481H44.4191ZM47.7858 91.4243C47.8334 90.8386 47.5287 90.4528 46.6906 90.3814C45.8572 90.3148 45.4953 90.6433 45.443 91.2338C45.3953 91.829 45.7049 92.2148 46.5334 92.2862C47.3668 92.3528 47.7382 92.0195 47.7858 91.4243Z" fill="white"></path><path d="M51.119 92.048C51.1333 92.3337 51.4238 92.5051 52.3143 92.4575C53.1286 92.4146 53.3238 92.2766 53.3095 92.0623C53.2952 91.8146 53.1428 91.7813 52.1333 91.767C50.7571 91.7432 50.1333 91.5004 50.0952 90.748C50.0571 90.0432 50.8047 89.6813 51.9762 89.6242C53.2809 89.5575 54.0524 89.9099 54.119 90.6623L53.0952 90.7146C53.0809 90.4146 52.7476 90.3194 51.9857 90.3575C51.2666 90.3956 51.1095 90.5242 51.119 90.7051C51.1285 90.9146 51.2952 90.9718 52.219 91.0004C53.4666 91.0289 54.2809 91.0718 54.3285 91.9623C54.3714 92.8289 53.5857 93.1242 52.3809 93.1861C51.0095 93.2575 50.1762 92.9861 50.0857 92.0956L51.1143 92.0432L51.119 92.048Z" fill="white"></path><path d="M55.7428 92.0429L56.6809 91.9048L56.7857 92.6334L55.8476 92.7715L55.738 92.0429H55.7428Z" fill="white"></path><path d="M59.4811 88.5382C60.6953 88.243 61.5096 88.5953 61.8144 89.4191L60.8001 89.6668C60.662 89.3763 60.2906 89.2001 59.6811 89.3477C58.9763 89.5192 58.7192 89.9477 58.8572 90.5287C59.0001 91.1096 59.4334 91.3763 60.1334 91.2049C60.743 91.0572 60.9906 90.7239 60.9763 90.3953L61.9906 90.1477C62.1001 91.0239 61.543 91.7191 60.3287 92.0144C59.0049 92.3382 58.1287 91.9001 57.8525 90.7715C57.5763 89.6477 58.1525 88.862 59.4763 88.5382H59.4811Z" fill="white"></path><path d="M63.1524 89.3956C62.7382 88.348 63.2191 87.448 64.5477 86.9242C65.8715 86.4003 66.8429 86.7337 67.2524 87.7765C67.6667 88.8242 67.1858 89.7337 65.862 90.2575C64.5334 90.7813 63.5667 90.448 63.1524 89.3956ZM66.3001 88.1527C66.0858 87.6051 65.6382 87.3908 64.8572 87.7003C64.081 88.0051 63.8953 88.4622 64.1143 89.0146C64.3334 89.5718 64.7858 89.7813 65.5572 89.4765C66.3334 89.1718 66.5191 88.7051 66.3001 88.1527Z" fill="white"></path><path d="M69.3381 88.6907L67.6333 85.7574L68.9571 84.986L71.1095 86.3383L70.9952 83.8002L72.319 83.0288L74.0238 85.9621L73.1762 86.4526L71.9428 84.3288L72.0762 87.0955L71.2904 87.5526L68.9524 86.0717L70.1904 88.1955L69.3381 88.6907Z" fill="white"></path><path d="M23.019 81.8382C13.9952 74.1811 8.2666 62.7573 8.2666 50.0001C8.2666 37.243 14.2999 25.2144 23.738 17.562" stroke="white" stroke-miterlimit="10"></path><path d="M76.2666 17.5669C85.7047 25.2193 91.7333 36.905 91.7333 50.0002C91.7333 63.0955 86.0047 74.1859 76.9809 81.8431" stroke="white" stroke-miterlimit="10"></path></g><defs><clipPath id="clip0_101_22111"><rect width="100" height="100" fill="white"></rect></clipPath></defs></svg>