<svg xmlns="http://www.w3.org/2000/svg" width="100" height="100" viewBox="0 0 100 100" fill="none"><g clip-path="url(#clip0_101_22120)"><path d="M83.5619 83.5621C87.9238 79.2002 91.3429 74.124 93.7333 68.4717C96.2095 62.6193 97.4619 56.405 97.4619 49.9955C97.4619 43.586 96.2095 37.3717 93.7333 31.5193C91.3429 25.8669 87.919 20.7907 83.5619 16.4288C79.2 12.0669 74.1238 8.64786 68.4714 6.25738C62.6238 3.78595 56.4095 2.52881 50 2.52881C50.0143 16.4479 50.0143 83.5431 50 97.4621C56.4048 97.4621 62.619 96.205 68.4714 93.7336C74.1238 91.3431 79.2 87.9193 83.5619 83.5621Z" fill="#A80533"></path><path d="M50.0049 2.5332C50.0049 2.5332 50.0049 2.5332 50.0001 2.5332C43.5906 2.5332 37.3763 3.78558 31.5239 6.26177C25.8715 8.65225 20.7954 12.0761 16.4334 16.4332C12.0715 20.7951 8.65249 25.8713 6.26202 31.5237C3.78583 37.3761 2.53345 43.5903 2.53345 49.9999C2.53345 56.4094 3.78583 62.6237 6.26202 68.4761C8.65249 74.1284 12.0763 79.2046 16.4334 83.5665C20.7954 87.9284 25.8715 91.3475 31.5239 93.738C37.3763 96.2142 43.5906 97.4665 50.0001 97.4665C50.0001 97.4665 50.0001 97.4665 50.0049 97.4665C50.0192 83.5475 50.0192 16.457 50.0049 2.5332Z" fill="#FCB813"></path><path d="M98.4238 37.5048C98.219 36.7048 97.9952 35.9143 97.7524 35.1333C97.5095 34.3524 97.2476 33.5762 96.9667 32.8095C96.8286 32.4286 96.681 32.0476 96.5333 31.6667C96.2333 30.9095 95.919 30.1619 95.5857 29.4238C95.419 29.0524 95.2476 28.6857 95.0714 28.3238C94.719 27.5952 94.3524 26.8762 93.9667 26.1667C93.7762 25.8143 93.5762 25.4619 93.3762 25.1095C92.9762 24.4095 92.5571 23.7238 92.1238 23.0476C91.6905 22.3714 91.2429 21.7048 90.7762 21.0524C90.5429 20.7238 90.3095 20.4 90.0667 20.081C89.5857 19.4381 89.0905 18.8095 88.581 18.1905C87.8191 17.2667 87.0191 16.3667 86.1905 15.5C84.5333 13.7619 82.7571 12.1476 80.8667 10.6619C79.9238 9.91905 78.9524 9.20952 77.9524 8.5381C76.9571 7.86191 75.9333 7.22381 74.8857 6.62381C73.1429 5.61905 71.3286 4.71905 69.4619 3.92857C63.4809 1.4 56.9048 0 50 0C43.0952 0 36.519 1.4 30.5381 3.92857C28.6667 4.71905 26.8571 5.61905 25.1143 6.62381C24.0667 7.22381 23.0429 7.86667 22.0476 8.5381C21.0524 9.21429 20.0762 9.91905 19.1333 10.6619C17.2429 12.1476 15.4667 13.7619 13.8095 15.5C12.981 16.3667 12.1857 17.2667 11.419 18.1905C10.9095 18.8095 10.4143 19.4381 9.93333 20.081C9.69524 20.4 9.45714 20.7238 9.22381 21.0524C8.75714 21.7048 8.30952 22.3714 7.87619 23.0476C7.44286 23.7238 7.02381 24.4095 6.62381 25.1095C6.42381 25.4571 6.22857 25.8095 6.03333 26.1667C5.64762 26.8762 5.28095 27.5952 4.92857 28.3238C4.75238 28.6905 4.58095 29.0571 4.41429 29.4238C4.08095 30.1619 3.7619 30.9095 3.46667 31.6667C3.31905 32.0429 3.17143 32.4238 3.03333 32.8095C2.75238 33.5762 2.49048 34.3476 2.24762 35.1333C2.00476 35.9143 1.78095 36.7095 1.57619 37.5048C0.547619 41.5 0 45.6857 0 50C0 54.3143 0.547619 58.5 1.57619 62.4952C1.78095 63.2952 2.00476 64.0857 2.24762 64.8667C2.49048 65.6476 2.75238 66.4238 3.03333 67.1905C3.45238 68.3381 3.91429 69.4667 4.41429 70.5762C4.91429 71.6857 5.45714 72.7714 6.03333 73.8333C6.60952 74.8952 7.22381 75.9333 7.87619 76.9476C8.30952 77.6238 8.75714 78.2905 9.22381 78.9429C9.45714 79.2714 9.69048 79.5952 9.93333 79.9143C10.6524 80.8762 11.4048 81.8143 12.1905 82.719C12.7143 83.3238 13.2524 83.9143 13.8048 84.4952C15.4619 86.2333 17.2381 87.8476 19.1286 89.3333C20.0714 90.0762 21.0429 90.7857 22.0429 91.4571C24.7048 93.2524 27.5429 94.8 30.5381 96.0667C36.519 98.5952 43.0952 99.9952 50 99.9952C56.9048 99.9952 63.4809 98.5952 69.4619 96.0667C72.4524 94.8 75.2952 93.2524 77.9571 91.4571C78.9524 90.781 79.9286 90.0762 80.8714 89.3333C82.7619 87.8476 84.5381 86.2333 86.1952 84.4952C86.7476 83.9143 87.2857 83.3238 87.8095 82.719C88.5952 81.8095 89.3476 80.8762 90.0667 79.9143C90.3048 79.5952 90.5429 79.2714 90.7762 78.9429C91.2429 78.2905 91.6905 77.6238 92.1238 76.9476C92.7762 75.9333 93.3905 74.8952 93.9667 73.8333C94.5429 72.7714 95.0857 71.6857 95.5857 70.5762C96.0857 69.4667 96.5476 68.3381 96.9667 67.1905C97.2476 66.4238 97.5095 65.6524 97.7524 64.8667C97.9952 64.0857 98.219 63.2905 98.4238 62.4952C99.4524 58.5 100 54.3143 100 50C100 45.6857 99.4524 41.5 98.4238 37.5048ZM68.4714 93.7381C62.6238 96.2095 56.4095 97.4667 50 97.4667C50 97.4667 50 97.4667 49.9952 97.4667C43.5857 97.4667 37.3714 96.2143 31.519 93.7381C25.8667 91.3476 20.7905 87.9238 16.4286 83.5667C12.0667 79.2048 8.64762 74.1286 6.25714 68.4762C3.78095 62.6238 2.52857 56.4095 2.52857 50C2.52857 43.5905 3.78095 37.3762 6.25714 31.5238C8.64762 25.8714 12.0714 20.7952 16.4286 16.4333C20.7905 12.0714 25.8667 8.65238 31.519 6.2619C37.3714 3.78571 43.5857 2.53333 49.9952 2.53333C49.9952 2.53333 49.9952 2.53333 50 2.53333C56.4048 2.53333 62.619 3.79048 68.4714 6.2619C74.1238 8.65238 79.2 12.0762 83.5619 16.4333C87.9238 20.7952 91.3429 25.8714 93.7333 31.5238C96.2095 37.3762 97.4619 43.5905 97.4619 50C97.4619 56.4095 96.2095 62.6238 93.7333 68.4762C91.3429 74.1286 87.919 79.2048 83.5619 83.5667C79.2 87.9286 74.1238 91.3476 68.4714 93.7381Z" fill="#7A052A"></path><path d="M31.5049 55.6145C31.5049 42.0669 39.7858 31.0859 50.0049 31.0859C60.2239 31.0859 68.5049 42.0669 68.5049 55.6145C68.5049 69.1621 60.2239 80.1431 50.0049 80.1431C39.7858 80.1431 31.5049 69.1621 31.5049 55.6145Z" fill="white"></path><path fill-rule="evenodd" clip-rule="evenodd" d="M62.6429 57.5763C62.862 58.5239 62.9763 59.5096 62.9763 60.5239C62.9763 67.6525 57.2001 73.4287 50.0715 73.4287C42.9429 73.4287 37.1667 67.6525 37.1667 60.5239C37.1667 53.3953 42.9429 47.6191 50.0715 47.6191C53.6287 47.6191 56.8525 49.062 59.2001 51.3906L57.1001 53.5239C55.3001 51.6953 52.8429 50.5953 50.0715 50.5953C44.5858 50.5953 40.1429 55.0429 40.1429 60.5239C40.1429 66.0049 44.5906 70.4525 50.0715 70.4525C55.5525 70.4525 60.0096 66.0049 60.0096 60.5239H56.2953V57.581H62.6429V57.5763Z" fill="#A80533"></path><path fill-rule="evenodd" clip-rule="evenodd" d="M47.9714 47.205C47.0238 46.5383 46.3952 45.4383 46.3952 44.1907C46.3952 42.1574 48.0428 40.5097 50.0762 40.5097C52.1095 40.5097 53.7571 42.1574 53.7714 44.1907H56.6952C56.6809 40.5431 53.7238 37.5859 50.0809 37.5859C46.4333 37.5859 43.4762 40.5431 43.4762 44.1907C43.4762 46.4145 44.5762 48.3812 46.2619 49.5764L54.2428 54.9336C56.2571 56.4812 56.9857 59.0193 56.9857 60.5193C56.9857 64.3336 53.8952 67.424 50.0809 67.424C46.2667 67.424 43.1762 64.3336 43.1762 60.5193C43.1762 59.5288 43.4333 58.4288 43.8095 57.5764H40.9714C40.6714 58.5002 40.5571 59.4955 40.5571 60.5193C40.5571 65.7812 44.8238 70.0478 50.0857 70.0478C55.3476 70.0478 59.6143 65.7812 59.6143 60.5193C59.6143 57.3812 58.1 54.5955 55.7619 52.8621L47.9809 47.205H47.9714Z" fill="#FCB813"></path><path fill-rule="evenodd" clip-rule="evenodd" d="M60.0191 60.5239H56.3V57.5811H62.6477C62.8667 58.5239 62.981 59.5096 62.981 60.5239H60.0191Z" fill="#A80533"></path><path fill-rule="evenodd" clip-rule="evenodd" d="M46.6286 60.5482H46.0381V58.472H45.3191V58.0768C45.4429 58.0768 45.5667 58.0625 45.6858 58.0387C45.8048 58.0101 45.9048 57.972 45.9762 57.9196C46.0477 57.8673 46.1096 57.8101 46.1524 57.7482C46.2 57.6863 46.2286 57.6196 46.2381 57.5435H46.6334V60.5435L46.6286 60.5482Z" fill="#231F20"></path><path fill-rule="evenodd" clip-rule="evenodd" d="M47.819 59.8432C47.8095 59.9099 47.8333 59.9861 47.8999 60.0623C47.9666 60.1385 48.0476 60.1766 48.1428 60.1766H48.1952C48.2952 60.1766 48.3809 60.148 48.4476 60.0956C48.519 60.0385 48.5666 59.9766 48.5904 59.9051C48.619 59.8337 48.6428 59.7575 48.6571 59.6813C48.6761 59.6004 48.6857 59.5242 48.6857 59.4623C48.6857 59.4099 48.6761 59.3575 48.6619 59.3099C48.5809 59.4194 48.5 59.4861 48.4238 59.5099C48.3523 59.5337 48.2952 59.5528 48.2523 59.5623C48.2142 59.5718 48.1809 59.5766 48.1523 59.5766H48.019C47.9714 59.567 47.9142 59.5575 47.838 59.548C47.7666 59.5337 47.6714 59.4861 47.5619 59.4051C47.4523 59.3242 47.3619 59.2099 47.2952 59.067C47.2285 58.9194 47.2 58.748 47.2 58.548C47.2 58.3242 47.2428 58.1337 47.3285 57.9813C47.4142 57.8242 47.5333 57.7051 47.6809 57.6147C47.8285 57.5194 47.9952 57.4766 48.1761 57.4766C48.2285 57.4766 48.2761 57.4766 48.3285 57.4909C48.4476 57.4909 48.5952 57.5432 48.7714 57.6575C48.9523 57.767 49.0619 57.9051 49.1047 58.0718C49.1571 58.1956 49.2 58.3337 49.2238 58.4861C49.2523 58.6432 49.2666 58.8004 49.2666 58.967C49.2666 59.1909 49.2428 59.4147 49.1999 59.6385C49.1571 59.8575 49.0904 60.048 49 60.2147C48.9142 60.3766 48.7857 60.4956 48.6238 60.5623C48.4619 60.6289 48.2999 60.6575 48.1428 60.6575C47.8285 60.6575 47.5952 60.5623 47.438 60.367C47.2809 60.1718 47.219 60.0051 47.238 59.8575H47.819V59.8432ZM48.1904 57.9623C48.0619 57.9623 47.9619 58.0004 47.8952 58.0813C47.8285 58.1623 47.7809 58.2337 47.7571 58.3051C47.738 58.3766 47.7285 58.4528 47.7285 58.5289C47.7285 58.6051 47.738 58.6766 47.7571 58.7432C47.7809 58.8099 47.8285 58.8766 47.8952 58.9575C47.9666 59.0289 48.0714 59.067 48.2047 59.067C48.338 59.067 48.4333 59.0289 48.4999 58.9575C48.5714 58.8813 48.619 58.8099 48.638 58.7432C48.6571 58.6766 48.6666 58.6099 48.6666 58.5337C48.6666 58.4385 48.6523 58.3528 48.6238 58.2718C48.6 58.1861 48.5666 58.1242 48.5238 58.0861C48.4857 58.048 48.4333 58.0147 48.3761 57.9956C48.319 57.9718 48.2523 57.9623 48.1857 57.9623H48.1904Z" fill="#231F20"></path><path fill-rule="evenodd" clip-rule="evenodd" d="M49.8668 60.3529C49.7525 60.2148 49.6763 60.0338 49.6287 59.8148C49.5858 59.591 49.562 59.3386 49.562 59.0624C49.562 58.7862 49.5858 58.5386 49.6287 58.3195C49.6763 58.0957 49.743 57.9243 49.8382 57.8053C49.9334 57.6862 50.0477 57.6053 50.1715 57.5576C50.3001 57.5053 50.4382 57.4814 50.5906 57.4814C50.743 57.4814 50.8811 57.5053 51.0049 57.5576C51.1334 57.6053 51.2477 57.691 51.343 57.8053C51.4382 57.9195 51.5096 58.091 51.5572 58.3148C51.6001 58.5338 51.6239 58.7814 51.6239 59.0624C51.6239 59.3386 51.6001 59.5862 51.5572 59.81C51.5096 60.0338 51.443 60.2053 51.343 60.3243C51.2477 60.4386 51.1382 60.5243 51.0096 60.5719C50.8811 60.6243 50.743 60.6481 50.5906 60.6481C50.4382 60.6481 50.3001 60.6243 50.1715 60.5719C50.043 60.5243 49.943 60.4529 49.862 60.3576L49.8668 60.3529ZM50.9525 59.9053C51.0096 59.7529 51.0382 59.4719 51.0382 59.0624C51.0382 58.6529 51.0192 58.3957 50.9811 58.2862C50.943 58.1767 50.8858 58.11 50.8192 58.0719C50.7525 58.0338 50.6763 58.0148 50.6001 58.0148C50.5239 58.0148 50.443 58.0338 50.3811 58.0672C50.3144 58.1005 50.262 58.1672 50.2192 58.2814C50.1811 58.391 50.1572 58.6529 50.1572 59.0576C50.1572 59.4672 50.1763 59.7243 50.2192 59.8338C50.2572 59.9434 50.3144 60.0148 50.3811 60.0481C50.4477 60.0814 50.5239 60.1005 50.6001 60.1005C50.6763 60.1005 50.7572 60.0862 50.8192 60.0529C50.8858 60.0195 50.9287 59.9672 50.9572 59.9005L50.9525 59.9053Z" fill="#231F20"></path><path fill-rule="evenodd" clip-rule="evenodd" d="M52.4906 59.7673C52.4906 59.8768 52.5192 59.9673 52.5811 60.0387C52.643 60.1101 52.7621 60.1435 52.9382 60.1435C53.0954 60.1435 53.2049 60.0911 53.2763 59.9816C53.3478 59.872 53.3811 59.7387 53.3811 59.5768C53.3811 59.4006 53.3525 59.2768 53.2954 59.2006C53.243 59.1244 53.1811 59.072 53.1192 59.0435C53.0573 59.0101 52.9906 58.9958 52.9192 58.9958H52.8716C52.7954 59.0006 52.724 59.0244 52.6621 59.0625C52.6049 59.1006 52.5573 59.1482 52.5287 59.2149H51.9906L52.2621 57.5435H53.8621V58.0768H52.624L52.524 58.6958C52.5716 58.6673 52.624 58.6387 52.6716 58.6149C52.724 58.5911 52.7716 58.572 52.8144 58.5577C52.8621 58.5435 52.9001 58.5339 52.924 58.5339C52.9525 58.5292 52.9906 58.5244 53.043 58.5244C53.0954 58.5244 53.1382 58.5244 53.1811 58.5339C53.2287 58.5387 53.324 58.5673 53.4621 58.6149C53.6001 58.6625 53.7192 58.7768 53.824 58.953C53.924 59.1292 53.9763 59.3244 53.9763 59.5435C53.9763 59.7816 53.924 59.9816 53.824 60.1482C53.724 60.3149 53.6049 60.4387 53.4668 60.5196C53.3335 60.6006 53.1573 60.6435 52.9382 60.6435C52.7525 60.6435 52.6049 60.6244 52.5001 60.5863C52.4001 60.5482 52.3001 60.4863 52.2001 60.4101C52.1049 60.3292 52.0287 60.2387 51.9763 60.1387C51.924 60.0387 51.9001 59.9149 51.9001 59.772H52.4859L52.4906 59.7673Z" fill="#231F20"></path><path fill-rule="evenodd" clip-rule="evenodd" d="M36.6334 32.8574L35.9762 36.7669L34.0143 33.4288L30.3857 34.2431L32.9238 31.4241L30.8238 27.6336L34.7953 29.3431L37.3429 26.5146L36.9048 30.2146L40.4381 31.8098L36.6286 32.8622L36.6334 32.8574ZM63.3619 32.8574L64.0191 36.7669L65.981 33.4288L69.6096 34.2431L67.0715 31.4241L69.1715 27.6336L65.2 29.3431L62.6524 26.5146L63.0905 30.2146L59.5572 31.8098L63.3667 32.8622L63.3619 32.8574ZM48.9381 28.3384L46.7095 25.1717L48.9715 22.2098L45.3381 23.3479L42.7905 19.8574L42.6667 24.186L39.0476 25.3193L42.581 26.4669L42.5715 30.3384L45.1238 27.3098L48.9381 28.3431V28.3384ZM54.8762 27.305L57.4286 30.3336L57.4191 26.4622L60.9572 25.3193L57.3381 24.186L57.2143 19.8574L54.6667 23.3479L51.0334 22.2098L53.2953 25.1717L51.0667 28.3384L54.881 27.305H54.8762Z" fill="white"></path><path d="M30.7095 11.3384L31.1143 12.0717L28.9 13.2955L29.2476 13.9289L31.2143 12.8431L31.6143 13.5717L29.6476 14.6574L30.1333 15.5336L29.2714 16.0098L27.6333 13.0431L30.7095 11.3431V11.3384Z" fill="white"></path><path d="M36.3001 12.6237L35.762 12.1523L33.8286 12.938L33.7715 13.6523L32.7905 14.0523L33.1334 10.2571L34.3905 9.74756L37.281 12.2285L36.3048 12.6237H36.3001ZM33.8953 12.1142L35.1334 11.6095L34.0143 10.6333L33.8953 12.1142Z" fill="white"></path><path d="M41.3476 10.1764L40.7619 7.81927L41.7095 7.58594L42.5238 10.8764L41.1286 11.224L38.6048 9.34784L39.1905 11.705L38.2381 11.9431L37.4238 8.6526L38.8238 8.30499L41.3476 10.1812V10.1764Z" fill="white"></path><path d="M46.1189 6.96208L50.1998 6.79541L50.2332 7.62874L48.6856 7.69065L48.7903 10.243L47.8094 10.2811L47.7046 7.72874L46.1522 7.79065L46.1189 6.95731V6.96208Z" fill="white"></path><path d="M51.3905 8.49526C51.4857 7.37622 52.3143 6.78098 53.7381 6.90479C55.1572 7.0286 55.8762 7.75717 55.781 8.87145C55.6857 9.9905 54.8524 10.5953 53.4334 10.4715C52.0096 10.3476 51.2953 9.61907 51.3905 8.49526ZM54.7572 8.78574C54.8096 8.20003 54.5048 7.80955 53.6667 7.73812C52.8334 7.66669 52.4667 7.9905 52.4191 8.58574C52.3667 9.18098 52.6762 9.57145 53.5048 9.64288C54.3381 9.71431 54.7096 9.38098 54.7619 8.7905L54.7572 8.78574Z" fill="white"></path><path d="M61.6239 8.36681L59.6334 9.38109L60.881 11.6763L59.6763 11.4049L58.8096 9.8049L57.862 10.2859L57.7096 10.9573L56.7524 10.7382L57.5001 7.42871L58.462 7.643L58.1286 9.12871L60.1953 8.03823L61.6334 8.36204L61.6239 8.36681Z" fill="white"></path><path d="M66.3286 9.99553L66.0667 10.7193L63.6858 9.85744L63.5 10.367L65.7905 11.1955L65.5286 11.9193L63.2381 11.0908L63.0524 11.6003L65.4334 12.4622L65.1715 13.186L61.8667 11.9908L63.0191 8.80029L66.3238 9.99553H66.3286Z" fill="white"></path><path d="M69.7618 14.3526L70.8761 12.1907L71.7476 12.6383L70.1904 15.6526L68.9095 14.9907L68.2476 11.9097L67.1333 14.0716L66.2571 13.6193L67.8142 10.605L69.0999 11.2669L69.7618 14.3478V14.3526Z" fill="white"></path><path d="M27.3953 85.4763C27.2476 85.7192 27.3953 86.0239 28.1572 86.4858C28.8572 86.9049 29.0953 86.9001 29.2048 86.7192C29.3334 86.5097 29.2238 86.3906 28.3953 85.8144C27.2667 85.024 26.8905 84.4763 27.2762 83.8335C27.6429 83.2287 28.4619 83.3478 29.4667 83.9525C30.5857 84.6239 31.0238 85.3525 30.6619 86.0144L29.781 85.4859C29.9334 85.2287 29.7143 84.962 29.0619 84.5716C28.4429 84.2001 28.2429 84.2192 28.1476 84.3763C28.0381 84.5573 28.1476 84.6954 28.8953 85.2335C29.9143 85.9573 30.5619 86.4478 30.1048 87.2097C29.6572 87.9525 28.8381 87.7573 27.8048 87.1335C26.6286 86.4239 26.0905 85.7382 26.5096 84.9478L27.3905 85.4811L27.3953 85.4763Z" fill="white"></path><path d="M31.5238 87.1909C31.9714 86.1576 32.9428 85.8623 34.2571 86.429C35.5667 86.9957 36.0143 87.9147 35.5714 88.9433C35.1238 89.9766 34.1428 90.2814 32.8333 89.7147C31.519 89.148 31.0762 88.229 31.5238 87.1909ZM34.6286 88.5385C34.8619 87.9957 34.6952 87.5338 33.9238 87.1957C33.1571 86.8623 32.7047 87.0576 32.4714 87.6004C32.2333 88.1481 32.4047 88.6147 33.1667 88.948C33.9333 89.2814 34.3952 89.0814 34.6286 88.5338V88.5385Z" fill="white"></path><path d="M39.3049 88.2194C40.5096 88.5575 41.043 89.2623 40.9049 90.129L39.9001 89.848C39.9191 89.529 39.6858 89.1909 39.0811 89.0242C38.3811 88.829 37.9477 89.0766 37.7906 89.648C37.6287 90.2242 37.8763 90.6671 38.5715 90.8623C39.1763 91.029 39.5525 90.8623 39.7001 90.5718L40.7049 90.8528C40.3715 91.6718 39.5477 92.0004 38.343 91.6671C37.0334 91.3004 36.4858 90.4909 36.7953 89.3718C37.1096 88.2575 37.9953 87.8528 39.3049 88.2194Z" fill="white"></path><path d="M43.3953 89.2289L42.7953 92.5623L41.8286 92.3861L42.4286 89.0527L43.3953 89.2289Z" fill="white"></path><path d="M44.419 91.1481C44.5095 90.029 45.3333 89.4338 46.7571 89.5481C48.1762 89.6624 48.9 90.3909 48.8047 91.5052C48.7143 92.6243 47.8857 93.229 46.4666 93.1147C45.0428 93.0005 44.3238 92.2719 44.419 91.1481ZM47.7857 91.4243C47.8333 90.8386 47.5285 90.4528 46.6905 90.3814C45.8571 90.3148 45.4952 90.6433 45.4428 91.2338C45.3952 91.829 45.7047 92.2148 46.5333 92.2862C47.3666 92.3528 47.7381 92.0195 47.7857 91.4243Z" fill="white"></path><path d="M51.119 92.048C51.1333 92.3337 51.4238 92.5051 52.3143 92.4575C53.1286 92.4146 53.3238 92.2766 53.3095 92.0623C53.2952 91.8146 53.1428 91.7813 52.1333 91.767C50.7571 91.7432 50.1333 91.5004 50.0952 90.748C50.0571 90.0432 50.8047 89.6813 51.9762 89.6242C53.2809 89.5575 54.0524 89.9099 54.119 90.6623L53.0952 90.7146C53.0809 90.4146 52.7476 90.3194 51.9857 90.3575C51.2666 90.3956 51.1095 90.5242 51.119 90.7051C51.1285 90.9146 51.2952 90.9718 52.219 91.0004C53.4666 91.0289 54.2809 91.0718 54.3285 91.9623C54.3714 92.8289 53.5857 93.1242 52.3809 93.1861C51.0095 93.2575 50.1762 92.9861 50.0857 92.0956L51.1143 92.0432L51.119 92.048Z" fill="white"></path><path d="M55.7428 92.0429L56.6809 91.9048L56.7857 92.6334L55.8476 92.7715L55.738 92.0429H55.7428Z" fill="white"></path><path d="M59.4811 88.5382C60.6953 88.243 61.5096 88.5953 61.8144 89.4191L60.8001 89.6668C60.662 89.3763 60.2906 89.2001 59.6811 89.3477C58.9763 89.5192 58.7192 89.9477 58.8572 90.5287C59.0001 91.1096 59.4334 91.3763 60.1334 91.2049C60.743 91.0572 60.9906 90.7239 60.9763 90.3953L61.9906 90.1477C62.1001 91.0239 61.543 91.7191 60.3287 92.0144C59.0049 92.3382 58.1287 91.9001 57.8525 90.7715C57.5763 89.6477 58.1525 88.862 59.4763 88.5382H59.4811Z" fill="white"></path><path d="M63.1524 89.3907C62.7382 88.3431 63.2191 87.4431 64.5477 86.9193C65.8715 86.3955 66.8429 86.7288 67.2524 87.7717C67.6667 88.8193 67.1858 89.7288 65.862 90.2526C64.5334 90.7764 63.5667 90.4431 63.1524 89.3907ZM66.3001 88.1478C66.0858 87.6002 65.6382 87.3859 64.8572 87.6955C64.081 88.0002 63.8953 88.4574 64.1143 89.0097C64.3334 89.5669 64.7858 89.7764 65.5572 89.4717C66.3334 89.1669 66.5191 88.7002 66.3001 88.1478Z" fill="white"></path><path d="M69.3381 88.6907L67.6333 85.7574L68.9571 84.986L71.1095 86.3383L70.9952 83.8002L72.319 83.0288L74.0238 85.9621L73.1762 86.4526L71.9428 84.3288L72.0762 87.0955L71.2904 87.5526L68.9524 86.0717L70.1904 88.1955L69.3381 88.6907Z" fill="white"></path><path d="M23.019 81.8382C13.9952 74.1811 8.2666 62.7573 8.2666 50.0001C8.2666 37.243 14.2999 25.2144 23.738 17.562" stroke="white" stroke-miterlimit="10"></path><path d="M76.2666 17.5669C85.7047 25.2193 91.7333 36.905 91.7333 50.0002C91.7333 63.0955 86.0047 74.1859 76.9809 81.8431" stroke="white" stroke-miterlimit="10"></path></g><defs><clipPath id="clip0_101_22120"><rect width="100" height="100" fill="white"></rect></clipPath></defs></svg>