<svg xmlns="http://www.w3.org/2000/svg" width="100" height="100" viewBox="0 0 100 100" fill="none"><g clip-path="url(#clip0_101_22077)"><path d="M93.7382 31.5242C91.3477 25.8718 87.9239 20.7956 83.5668 16.4337C79.2049 12.0718 74.1287 8.65274 68.4763 6.26226C62.6239 3.78607 56.4096 2.53369 50.0001 2.53369C43.5906 2.53369 37.3763 3.78607 31.5239 6.26226C25.8715 8.65274 20.7954 12.0765 16.4334 16.4337C12.0715 20.7956 8.65249 25.8718 6.26202 31.5242C3.78583 37.3765 2.53345 43.5908 2.53345 50.0004C2.53345 56.4099 3.78583 62.6242 6.26202 68.4765C8.65249 74.1289 12.0763 79.2051 16.4334 83.567C20.7954 87.9289 25.8715 91.348 31.5239 93.7385C37.3763 96.2146 43.5906 97.467 50.0001 97.467C56.4096 97.467 62.6239 96.2146 68.4763 93.7385C74.1287 91.348 79.2049 87.9242 83.5668 83.567C87.9287 79.2051 91.3477 74.1289 93.7382 68.4765C96.2144 62.6242 97.4668 56.4099 97.4668 50.0004C97.4668 43.5908 96.2144 37.3765 93.7382 31.5242Z" fill="#231F20"></path><path d="M96.5333 31.6668C96.2333 30.9096 95.919 30.162 95.5857 29.4239C94.919 27.9477 94.181 26.5096 93.3762 25.1144C92.9762 24.4144 92.5571 23.7287 92.1238 23.0525C91.6905 22.3763 91.2429 21.7096 90.7762 21.0573C90.5429 20.7287 90.3095 20.4049 90.0667 20.0858C89.5857 19.443 89.0905 18.8144 88.581 18.1954C87.5619 16.962 86.4857 15.7763 85.3524 14.643C84.7857 14.0763 84.2095 13.5239 83.6143 12.9858C83.0238 12.4477 82.419 11.9239 81.8 11.4144C81.4905 11.162 81.181 10.9096 80.8667 10.662C79.9238 9.91917 78.9524 9.20964 77.9524 8.53822C76.9571 7.86203 75.9333 7.22393 74.8857 6.62393C74.1857 6.22393 73.481 5.83822 72.7619 5.47155C72.4048 5.28583 72.0429 5.10964 71.6762 4.93345C70.9476 4.58107 70.2095 4.24774 69.4619 3.93345C69.0857 3.77631 68.7095 3.62393 68.3333 3.47155C67.5762 3.17155 66.8095 2.8906 66.0381 2.62869C65.2667 2.36679 64.4809 2.12393 63.6905 1.90012C62.9 1.67631 62.1 1.47155 61.2952 1.28584C57.6667 0.44774 53.8857 0.00488281 50.0048 0.00488281C46.1238 0.00488281 42.3429 0.44774 38.7143 1.28584C37.9095 1.47155 37.1095 1.67631 36.319 1.90012C35.5286 2.12393 34.7429 2.36679 33.9714 2.62869C33.2 2.8906 32.4333 3.17155 31.6762 3.47155C31.3 3.61917 30.9238 3.77631 30.5476 3.93345C29.8 4.24774 29.0619 4.58583 28.3333 4.93345C27.9667 5.10964 27.6095 5.2906 27.2476 5.47155C26.5286 5.83822 25.819 6.22393 25.1238 6.62393C24.0762 7.22393 23.0524 7.86679 22.0571 8.53822C21.0619 9.21441 20.0857 9.91917 19.1429 10.662C18.8286 10.9096 18.5143 11.162 18.2095 11.4144C17.5905 11.9239 16.9857 12.4477 16.3952 12.9858C15.8048 13.5239 15.2238 14.0763 14.6571 14.643C13.5238 15.7763 12.4476 16.9573 11.4286 18.1954C10.919 18.8144 10.4238 19.443 9.94286 20.0858C9.70476 20.4049 9.46667 20.7287 9.23333 21.0573C8.76667 21.7096 8.31905 22.3763 7.88571 23.0525C7.45238 23.7287 7.03333 24.4144 6.63333 25.1144C5.82857 26.5096 5.09524 27.9477 4.42381 29.4239C4.09048 30.162 3.77143 30.9096 3.47619 31.6668C1.22857 37.343 0 43.5287 0 50.0001C0 56.043 1.07143 61.8335 3.03333 67.1906C3.45238 68.3382 3.91429 69.4668 4.41429 70.5763C5.08095 72.0525 5.81905 73.4906 6.62381 74.8858C7.02381 75.5858 7.44286 76.2715 7.87619 76.9477C8.30952 77.6239 8.75714 78.2906 9.22381 78.943C9.45714 79.2715 9.69048 79.5954 9.93333 79.9144C10.4143 80.5573 10.9095 81.1858 11.419 81.8049C12.181 82.7287 12.981 83.6287 13.8095 84.4954C15.4667 86.2335 17.2429 87.8477 19.1333 89.3335C20.0762 90.0763 21.0476 90.7858 22.0476 91.4573C23.0429 92.1335 24.0667 92.7715 25.1143 93.3715C26.8571 94.3763 28.6714 95.2763 30.5381 96.0668C36.519 98.5954 43.0952 99.9954 50 99.9954C56.9048 99.9954 63.4809 98.5954 69.4619 96.0668C71.3333 95.2763 73.1429 94.3763 74.8857 93.3715C75.9333 92.7715 76.9571 92.1287 77.9524 91.4573C78.9476 90.7811 79.9238 90.0763 80.8667 89.3335C82.7571 87.8477 84.5333 86.2335 86.1905 84.4954C87.0191 83.6287 87.8143 82.7287 88.581 81.8049C89.0905 81.1858 89.5857 80.5573 90.0667 79.9144C90.3048 79.5954 90.5429 79.2715 90.7762 78.943C91.2429 78.2906 91.6905 77.6239 92.1238 76.9477C92.5571 76.2715 92.9762 75.5858 93.3762 74.8858C94.181 73.4906 94.9143 72.0525 95.5857 70.5763C96.0857 69.4668 96.5476 68.3382 96.9667 67.1906C98.9286 61.8287 100 56.0382 100 50.0001C100 43.5287 98.7714 37.343 96.5333 31.6668ZM93.7381 68.4763C91.3476 74.1287 87.9238 79.2049 83.5667 83.5668C79.2048 87.9287 74.1286 91.3477 68.4762 93.7382C62.6238 96.2144 56.4095 97.4668 50 97.4668C43.5905 97.4668 37.3762 96.2144 31.5238 93.7382C25.8714 91.3477 20.7952 87.9239 16.4333 83.5668C12.0714 79.2049 8.65238 74.1287 6.2619 68.4763C3.78571 62.6239 2.53333 56.4096 2.53333 50.0001C2.53333 43.5906 3.78571 37.3763 6.2619 31.5239C8.65238 25.8715 12.0762 20.7954 16.4333 16.4335C20.7952 12.0715 25.8714 8.6525 31.5238 6.26202C37.3762 3.78583 43.5905 2.53345 50 2.53345C56.4095 2.53345 62.6238 3.78583 68.4762 6.26202C74.1286 8.6525 79.2048 12.0763 83.5667 16.4335C87.9286 20.7954 91.3476 25.8715 93.7381 31.5239C96.2143 37.3763 97.4667 43.5906 97.4667 50.0001C97.4667 56.4096 96.2143 62.6239 93.7381 68.4763Z" fill="#EA0029"></path><path d="M49.9998 23.6572C36.8189 23.6572 27.2046 30.2525 27.2046 30.2525V52.6953C27.2046 67.9239 47.9951 76.8525 48.8808 77.2239L49.9998 77.6953L51.1189 77.2239C52.0046 76.8525 72.7951 67.9239 72.7951 52.6953V30.2525C72.7951 30.2525 63.1855 23.6572 50.0046 23.6572" fill="#EA0029"></path><path d="M49.9999 25.7285C37.8285 25.7285 28.957 31.8142 28.957 31.8142V52.5333C28.957 66.5952 48.1523 74.838 48.9666 75.1809L49.9999 75.6142L51.0332 75.1809C51.8523 74.838 71.0427 66.5952 71.0427 52.5333V31.8142C71.0427 31.8142 62.1713 25.7285 49.9999 25.7285Z" fill="#231F20"></path><path d="M49.9997 74.8713L49.2331 74.5475C49.0235 74.457 43.9902 72.3332 39.0807 68.4618C32.8188 63.5285 29.6426 58.1713 29.6426 52.538V32.1951L29.7807 32.1094C31.9473 30.7761 39.8045 26.4189 49.9997 26.4189C60.195 26.4189 68.0521 30.7761 70.2188 32.1094L70.3521 32.1951V52.538C70.3521 58.1713 67.1807 63.5285 60.9188 68.4618C56.0092 72.3285 50.9759 74.4618 50.7664 74.5475L50.0045 74.8713H49.9997ZM30.214 32.5094V52.538C30.214 57.9904 33.314 63.1999 39.4331 68.0189C44.2854 71.8428 49.2426 73.938 49.4521 74.0237L49.9997 74.2523L50.5426 74.0237C50.7521 73.938 55.7188 71.838 60.5616 68.0189C66.6807 63.1999 69.7807 57.9904 69.7807 52.538V32.5094C67.4711 31.1047 59.8426 26.9856 49.995 26.9856C40.1473 26.9856 32.5188 31.1047 30.2092 32.5094" fill="white"></path><path d="M68.6047 52.5383V43.1812C65.8904 41.6335 58.8094 38.1621 49.9999 38.1621C41.1904 38.1621 34.1094 41.6335 31.3904 43.1812V52.5383C31.3904 57.6097 34.3428 62.505 40.1618 67.0954C44.8856 70.8145 49.7047 72.8573 49.9094 72.9431L49.9999 72.9812L50.0856 72.9431C50.2904 72.8573 55.119 70.8097 59.8332 67.0954C65.6523 62.5097 68.6047 57.6097 68.6047 52.5383Z" fill="white"></path><path d="M40.4237 33.6192C40.1856 32.5859 40.1428 32.1859 40.2142 31.6668C40.3999 30.3287 41.7047 29.5859 42.9237 29.3954C44.0523 29.224 45.419 29.5382 46.0714 30.543C46.1094 30.6001 46.1047 30.6668 46.038 30.7049C45.538 30.9382 45.2952 31.0573 44.8094 31.3097C44.7285 31.3382 44.6666 31.3192 44.638 31.2763C44.3237 30.8478 43.8094 30.6382 43.138 30.743C42.438 30.8525 42.0618 31.2335 41.9714 31.7478C41.9237 32.0097 41.9475 32.3478 42.1237 33.2668C42.2952 34.1811 42.3952 34.5192 42.5285 34.7478C42.7856 35.1954 43.2333 35.4144 43.8714 35.3192C44.4237 35.2335 44.8714 34.9097 44.9618 34.4287C44.9952 34.2478 44.9999 34.024 44.9618 33.7192C44.9571 33.6763 44.9333 33.6573 44.8856 33.6668C44.4714 33.7192 44.2666 33.7478 43.8523 33.8097C43.7856 33.8192 43.7333 33.7859 43.7237 33.724C43.6618 33.324 43.6333 33.1287 43.5714 32.7287C43.5618 32.6668 43.5999 32.6192 43.6714 32.6097C44.7523 32.4478 45.2952 32.3859 46.3809 32.2906C46.4523 32.2859 46.4999 32.324 46.5047 32.3859C46.5237 32.6192 46.5333 32.7382 46.5523 32.9716C46.6047 33.6001 46.5952 34.1906 46.4999 34.5859C46.219 35.7478 45.3095 36.4811 44.0523 36.6763C42.7856 36.8716 41.6999 36.5192 41.0714 35.4811C40.7999 35.0382 40.6666 34.6621 40.4285 33.6287" fill="white"></path><path d="M47.6331 29.1336C47.6331 29.0717 47.6759 29.0241 47.7521 29.0241C49.5759 28.9621 51.3712 28.9764 53.1902 29.0669C53.2664 29.0717 53.314 29.1193 53.3092 29.1812C53.2759 29.6288 53.2616 29.8526 53.2331 30.3002C53.2331 30.3621 53.1759 30.4002 53.1045 30.3955C51.9235 30.3193 50.7378 30.286 49.5521 30.3002C49.5045 30.3002 49.4807 30.3241 49.4807 30.3621C49.4902 30.9621 49.495 31.2621 49.4997 31.8621C49.4997 31.905 49.5235 31.9241 49.5712 31.9241C50.714 31.9098 51.2807 31.9241 52.4235 31.9812C52.495 31.9812 52.5378 32.0288 52.5331 32.0907C52.5092 32.5336 52.495 32.7574 52.4712 33.2002C52.4712 33.2621 52.4188 33.3002 52.3521 33.3002C51.2473 33.2431 50.695 33.2288 49.5854 33.2431C49.5378 33.2431 49.5188 33.2669 49.5188 33.305C49.5331 34.3764 49.5426 34.9145 49.5569 35.986C49.5569 36.0479 49.514 36.0907 49.4521 36.0907C48.914 36.1002 48.6473 36.1098 48.1092 36.1336C48.0473 36.1336 47.9997 36.0955 47.9997 36.0336C47.8759 33.7336 47.7569 31.4288 47.6331 29.1288" fill="white"></path><path d="M54.5617 29.2809C54.5665 29.219 54.6236 29.1809 54.6951 29.1904C55.3284 29.2523 55.6427 29.2904 56.2712 29.3714C56.3474 29.3809 56.3903 29.4285 56.3808 29.4904C56.2141 30.7095 56.1331 31.3238 55.9665 32.5428C57.0093 31.638 58.0665 30.7809 59.1665 29.9428C59.2427 29.8809 59.2951 29.8714 59.3951 29.8904C60.1093 30.0333 60.4617 30.1142 61.1712 30.2857C61.2427 30.3047 61.2617 30.3857 61.1855 30.4285C60.1522 31.0904 59.1427 31.7952 58.1712 32.5428C58.776 34.0476 59.3046 35.5857 59.7522 37.1428C59.776 37.2238 59.7331 37.2666 59.6617 37.2476C59.0522 37.0952 58.7474 37.0285 58.1379 36.8999C58.0522 36.8809 58.0284 36.8571 57.9998 36.7761C57.5951 35.4714 57.3665 34.819 56.8617 33.5238C56.3855 33.9238 56.1522 34.1238 55.6951 34.538C55.5951 35.2571 55.5474 35.6142 55.4522 36.3333C55.4427 36.3952 55.395 36.4333 55.3331 36.4238C54.7998 36.3523 54.5331 36.3238 53.9951 36.2666C53.9331 36.2618 53.8951 36.2142 53.8998 36.1523C54.1189 33.8571 54.3427 31.5666 54.5617 29.2714" fill="white"></path><path d="M47.5046 70.2621H46.9285V69.1192H46.4761V68.724C46.7856 68.7145 46.9999 68.6145 47.0665 68.2764H47.5046V70.2621Z" fill="#231F20"></path><path d="M48.7093 69.7527C48.7378 69.8622 48.8283 69.9098 48.9426 69.9098C49.1569 69.9098 49.2426 69.7146 49.2426 69.4622C49.0854 69.5717 48.9712 69.6051 48.7854 69.6051C48.3283 69.6051 48.1235 69.2527 48.1235 68.9717C48.1235 68.4955 48.4616 68.2812 48.9045 68.2812C49.4759 68.2812 49.8235 68.5908 49.8235 69.3003C49.8235 69.9003 49.514 70.3098 48.9664 70.3098C48.6045 70.3098 48.2473 70.1908 48.1664 69.7955L48.7045 69.7622L48.7093 69.7527ZM49.2188 68.9384C49.2188 68.7955 49.0997 68.686 48.9569 68.686C48.7854 68.686 48.6997 68.7908 48.6997 68.9574C48.6997 69.1146 48.7997 69.2193 48.9426 69.2193C49.1426 69.2098 49.214 69.0955 49.214 68.9384" fill="#231F20"></path><path d="M50.0521 68.8287C50.0521 68.4526 50.4331 68.2764 50.8569 68.2764C51.2998 68.2764 51.6093 68.5049 51.6093 68.8192C51.6093 69.0097 51.5379 69.1478 51.3521 69.224C51.5617 69.3049 51.6807 69.4478 51.6807 69.6811C51.6807 70.0764 51.3283 70.3049 50.8379 70.3049C50.3807 70.3049 49.9902 70.1145 49.9902 69.6811C49.9902 69.4478 50.1093 69.3287 50.3045 69.2383C50.1521 69.1573 50.0521 69.0668 50.0521 68.8287ZM51.0998 69.6526C51.0998 69.4954 50.995 69.4002 50.8379 69.4002C50.6759 69.4002 50.5664 69.4811 50.5664 69.6573C50.5664 69.8478 50.7426 69.9192 50.9093 69.8859C51.0379 69.8668 51.0998 69.7811 51.0998 69.6526ZM51.0759 68.8764C51.0759 68.743 50.9712 68.6668 50.8379 68.6668C50.695 68.6668 50.5855 68.7383 50.5902 68.8811C50.5902 69.024 50.7045 69.0859 50.8331 69.0859C50.9617 69.0859 51.0759 69.0192 51.0759 68.8764Z" fill="#231F20"></path><path d="M51.9047 68.8287C51.9047 68.4526 52.2856 68.2764 52.7094 68.2764C53.1523 68.2764 53.4618 68.5049 53.4618 68.8192C53.4618 69.0097 53.3904 69.1478 53.2047 69.224C53.4142 69.3049 53.5332 69.4478 53.5332 69.6811C53.5332 70.0764 53.1809 70.3049 52.6904 70.3049C52.2332 70.3049 51.8428 70.1145 51.8428 69.6811C51.8428 69.4478 51.9618 69.3287 52.1571 69.2383C52.0047 69.1573 51.9047 69.0668 51.9047 68.8287ZM52.9523 69.6526C52.9523 69.4954 52.8475 69.4002 52.6904 69.4002C52.5285 69.4002 52.419 69.4811 52.419 69.6573C52.419 69.8478 52.5952 69.9192 52.7618 69.8859C52.8904 69.8668 52.9523 69.7811 52.9523 69.6526ZM52.9285 68.8764C52.9285 68.743 52.8237 68.6668 52.6904 68.6668C52.5475 68.6668 52.438 68.7383 52.4428 68.8811C52.4428 69.024 52.5571 69.0859 52.6856 69.0859C52.8142 69.0859 52.9285 69.0192 52.9285 68.8764Z" fill="#231F20"></path><path d="M48.9094 41.4238C47.8332 38.7381 44.9189 39.9667 44.9189 39.9667C44.9189 39.9667 47.4523 40.5048 47.838 43.2667C46.9142 42.5 46.0713 43.1143 46.0713 43.1143C46.0713 43.1143 47.2237 43.9572 47.4523 45.9572C47.6809 47.9524 48.7618 50.4381 50.2237 50.9762C50.2237 50.9762 52.1285 50.1572 54.0999 49.9857C52.7951 49.2952 52.5189 46.4191 52.9047 43.8095C53.2904 41.2 52.5189 40.3572 52.5189 40.3572C52.1332 41.8143 51.4428 41.8143 51.4428 41.8143C51.057 37.1333 46.9904 37.2857 46.9904 37.2857C46.9904 37.2857 48.757 38.3619 48.9094 41.4333" fill="#231F20"></path><path d="M57.3618 41.2764L42.4761 41.2859L43.8808 43.7145L45.7999 47.0335L54.0475 47.0287L57.3618 41.2764Z" fill="#FF595A"></path><path d="M51.6189 44.6002L52.7856 47.0287H54.0475L57.3618 41.2764L51.6189 44.6002Z" fill="#EA0029"></path><path d="M42.4712 47.9097L45.1617 48.1192L45.7902 47.0287L43.8807 43.7145L42.476 41.2859L42.4712 41.2764V47.9097Z" fill="#EA0029"></path><path d="M35.0283 54.1716L42.4712 47.9097V41.2764L35.0283 54.1716Z" fill="#FF595A"></path><path d="M35.0283 54.1761L40.7759 57.4857L42.2998 55.2571L41.6712 54.1714L35.0283 54.1761Z" fill="#EA0029"></path><path d="M42.4807 67.062L40.7759 57.4858L35.0283 54.1763L42.4807 67.062Z" fill="#FF595A"></path><path d="M45.7904 61.3096L42.4761 67.062L48.2189 63.7429L47.0523 61.3096H45.7904Z" fill="#EA0029"></path><path d="M47.0522 61.3094L48.2189 63.7428L57.357 67.0523L55.3332 63.5475L54.038 61.3047L47.0522 61.3094Z" fill="#FF595A"></path><path d="M54.3523 54.167L57.4332 55.4337L54.6713 60.2194L57.3618 60.4241L64.8047 54.167H58.1666H54.3523Z" fill="#FF595A"></path><path d="M54.0427 61.3097L57.3618 67.0573V60.424L54.6713 60.2192L54.0427 61.3097Z" fill="#EA0029"></path><path d="M45.7999 47.0333L52.7856 47.0285L51.6189 44.5999L42.4761 41.2856L45.7999 47.0333Z" fill="#7F2629"></path><path d="M45.7999 47.0333L52.7856 47.0285L51.6189 44.5999L42.4761 41.2856L45.7999 47.0333Z" fill="#7F2629"></path><path d="M35.0283 54.1716H41.6712L45.1617 48.1192L42.4712 47.9097L35.0283 54.1716Z" fill="#7F2629"></path><path d="M40.7761 57.4859L42.4809 67.0621L45.7999 61.3097L42.2999 55.2573L40.7761 57.4859Z" fill="#7F2629"></path><path d="M42.4808 67.0575L42.4856 67.0336L42.4761 67.0622L57.357 67.0527L48.2189 63.7432L42.4808 67.0575Z" fill="#7F2629"></path><path d="M57.3618 60.4241V67.0575L64.8047 54.167L57.3618 60.4241Z" fill="#7F2629"></path><path d="M55.3856 50.2573C55.0808 50.1145 54.7475 50.0573 54.3808 50.0716C54.1237 50.0811 53.9523 50.1049 53.7427 50.143C52.7713 50.324 51.5999 50.7859 50.1856 51.1668C46.8094 52.0859 45.5808 48.7097 43.4285 44.2573C41.2808 39.8049 38.5142 40.724 38.5142 40.724C38.5142 40.724 40.2808 40.9526 40.5856 44.4097C37.438 40.343 33.4475 42.9525 33.4475 42.9525C33.4475 42.9525 35.8285 42.3383 37.438 45.3335C35.2094 45.1049 34.4427 46.2573 34.4427 46.2573C34.4427 46.2573 37.5904 45.8716 39.8189 48.6383C38.1285 48.7145 37.5904 50.1716 37.5904 50.1716C37.5904 50.1716 40.0475 49.6335 41.8142 51.7859C43.3951 53.7097 45.4094 55.0192 46.7475 55.2716C46.3713 55.3002 45.8285 55.5002 45.4237 56.3145C45.4237 56.3145 46.4285 55.7764 47.9856 56.4954C48.0618 56.5287 48.1237 56.5573 48.1475 56.5716C48.657 56.7954 49.0951 56.9668 49.5475 57.124C50.6761 57.5287 50.2142 57.9668 50.1237 58.0383C49.4618 58.6049 50.1904 59.3192 50.1904 59.3192C49.8761 58.5049 50.838 58.424 50.838 58.424C51.4427 58.3716 51.8189 58.1478 52.038 57.9478C52.0951 57.9859 52.1904 58.0621 52.2618 58.124C52.1475 58.2335 52.1142 58.2621 52.0761 58.3097C51.5237 58.9859 52.1808 59.5668 52.1808 59.5668C51.8666 58.7526 52.8285 58.6716 52.8285 58.6716C53.1189 58.6478 53.357 58.5811 53.5523 58.4954C53.7713 58.4002 53.9285 58.2859 54.0427 58.1764C54.2618 58.3287 54.6951 58.724 54.6951 58.724C54.5856 58.3145 54.457 58.0526 54.3285 57.8811C54.5189 57.943 55.138 58.3478 55.138 58.3478C54.5237 56.9764 53.9523 57.4526 53.9523 57.4526C53.8618 57.524 53.7523 57.6049 53.6808 57.6478C53.5618 57.7145 53.4761 57.7621 53.3951 57.7859C53.3094 57.8145 53.2808 57.7764 53.2808 57.7764C52.7285 56.5906 51.9047 55.7478 51.4285 55.324C51.9523 54.7764 52.4427 53.824 53.2285 53.1954C53.9808 52.5906 55.4237 52.2049 55.8189 52.5478C56.1142 52.8002 56.2713 53.1335 56.2094 53.5764C57.3475 53.0954 57.0094 50.9192 55.3761 50.2621M52.3332 56.9859C52.9094 57.1097 53.138 57.8287 53.3189 58.3049C53.0856 58.1668 52.8523 57.9954 52.6142 57.8906C52.7047 58.0668 52.6856 58.324 52.6713 58.4859C52.6713 58.4764 52.6713 58.4668 52.6618 58.4526C52.5523 58.0526 52.4237 57.7954 52.2951 57.6335C52.3951 57.6097 53.1523 58.1049 53.1523 58.1049C52.538 56.7335 51.9666 57.2097 51.9666 57.2097C51.8285 57.324 51.5618 57.5287 51.3761 57.5526C51.3142 57.5573 51.2951 57.5383 51.2951 57.5383C51.2475 57.4335 51.1951 57.3335 51.1427 57.2335C51.2047 57.2573 51.2618 57.2764 51.3237 57.3002C51.6475 57.1287 52.0094 56.9192 52.338 56.9906M53.8285 51.9287C53.4142 52.0049 52.9904 52.1621 52.5808 52.3954C51.2427 53.1621 49.5237 52.524 49.5237 52.524C50.8142 52.5811 51.3475 52.2097 52.9666 51.3049C53.4094 51.4764 53.8761 51.3954 53.8332 51.9287M56.4237 52.1811C56.3808 52.2192 56.238 52.1192 56.1047 51.9621C55.9713 51.8049 55.7427 51.4859 55.7856 51.4478C55.8285 51.4097 56.1761 51.5621 56.3094 51.7192C56.4427 51.8764 56.4618 52.1478 56.4237 52.1811Z" fill="#231F20"></path><path d="M30.7095 11.3384L31.1143 12.0717L28.9 13.2955L29.2476 13.9289L31.2143 12.8431L31.6143 13.5717L29.6476 14.6574L30.1333 15.5336L29.2714 16.0098L27.6333 13.0431L30.7095 11.3431V11.3384Z" fill="white"></path><path d="M36.3001 12.6237L35.762 12.1523L33.8286 12.938L33.7715 13.6523L32.7905 14.0523L33.1334 10.2571L34.3905 9.74756L37.281 12.2285L36.3048 12.6237H36.3001ZM33.8953 12.1142L35.1334 11.6095L34.0143 10.6333L33.8953 12.1142Z" fill="white"></path><path d="M41.3476 10.1764L40.7619 7.81927L41.7095 7.58594L42.5238 10.8764L41.1286 11.224L38.6048 9.34784L39.1905 11.705L38.2381 11.9431L37.4238 8.6526L38.8238 8.30499L41.3476 10.1812V10.1764Z" fill="white"></path><path d="M46.1189 6.96208L50.1998 6.79541L50.2332 7.62874L48.6856 7.69065L48.7903 10.243L47.8094 10.2811L47.7046 7.72874L46.1522 7.79065L46.1189 6.95731V6.96208Z" fill="white"></path><path d="M51.3905 8.49526C51.4857 7.37622 52.3143 6.78098 53.7381 6.90479C55.1572 7.0286 55.8762 7.75717 55.781 8.87145C55.6857 9.9905 54.8524 10.5953 53.4334 10.4715C52.0096 10.3476 51.2953 9.61907 51.3905 8.49526ZM54.7572 8.78574C54.8096 8.20003 54.5048 7.80955 53.6667 7.73812C52.8334 7.66669 52.4667 7.9905 52.4191 8.58574C52.3667 9.18098 52.6762 9.57145 53.5048 9.64288C54.3381 9.71431 54.7096 9.38098 54.7619 8.7905L54.7572 8.78574Z" fill="white"></path><path d="M61.6239 8.36681L59.6334 9.38109L60.881 11.6763L59.6763 11.4049L58.8096 9.8049L57.862 10.2859L57.7096 10.9573L56.7524 10.7382L57.5001 7.42871L58.462 7.643L58.1286 9.12871L60.1953 8.03823L61.6334 8.36204L61.6239 8.36681Z" fill="white"></path><path d="M66.3286 9.99553L66.0667 10.7193L63.6858 9.85744L63.5 10.367L65.7905 11.1955L65.5286 11.9193L63.2381 11.0908L63.0524 11.6003L65.4334 12.4622L65.1715 13.186L61.8667 11.9908L63.0191 8.80029L66.3238 9.99553H66.3286Z" fill="white"></path><path d="M69.7618 14.3526L70.8761 12.1907L71.7476 12.6383L70.1904 15.6526L68.9095 14.9907L68.2476 11.9097L67.1333 14.0716L66.2571 13.6193L67.8142 10.605L69.0999 11.2669L69.7618 14.3478V14.3526Z" fill="white"></path><path d="M27.3953 85.4763C27.2476 85.7192 27.3953 86.0239 28.1572 86.4858C28.8572 86.9049 29.0953 86.9001 29.2048 86.7192C29.3334 86.5097 29.2238 86.3906 28.3953 85.8144C27.2667 85.024 26.8905 84.4763 27.2762 83.8335C27.6429 83.2287 28.4619 83.3478 29.4667 83.9525C30.5857 84.6239 31.0238 85.3525 30.6619 86.0144L29.781 85.4859C29.9334 85.2287 29.7143 84.962 29.0619 84.5716C28.4429 84.2001 28.2429 84.2192 28.1476 84.3763C28.0381 84.5573 28.1476 84.6954 28.8953 85.2335C29.9143 85.9573 30.5619 86.4478 30.1048 87.2097C29.6572 87.9525 28.8381 87.7573 27.8048 87.1335C26.6286 86.4239 26.0905 85.7382 26.5096 84.9478L27.3905 85.4811L27.3953 85.4763Z" fill="white"></path><path d="M31.5238 87.1909C31.9714 86.1576 32.9428 85.8623 34.2571 86.429C35.5667 86.9957 36.0143 87.9147 35.5714 88.9433C35.1238 89.9766 34.1428 90.2814 32.8333 89.7147C31.519 89.148 31.0762 88.229 31.5238 87.1909ZM34.6286 88.5385C34.8619 87.9957 34.6952 87.5338 33.9238 87.1957C33.1571 86.8623 32.7047 87.0576 32.4714 87.6004C32.2333 88.1481 32.4047 88.6147 33.1667 88.948C33.9333 89.2814 34.3952 89.0814 34.6286 88.5338V88.5385Z" fill="white"></path><path d="M39.3049 88.2194C40.5096 88.5575 41.043 89.2623 40.9049 90.129L39.9001 89.848C39.9191 89.529 39.6858 89.1909 39.0811 89.0242C38.3811 88.829 37.9477 89.0766 37.7906 89.648C37.6287 90.2242 37.8763 90.6671 38.5715 90.8623C39.1763 91.029 39.5525 90.8623 39.7001 90.5718L40.7049 90.8528C40.3715 91.6718 39.5477 92.0004 38.343 91.6671C37.0334 91.3004 36.4858 90.4909 36.7953 89.3718C37.1096 88.2575 37.9953 87.8528 39.3049 88.2194Z" fill="white"></path><path d="M43.3953 89.2289L42.7953 92.5623L41.8286 92.3861L42.4286 89.0527L43.3953 89.2289Z" fill="white"></path><path d="M44.419 91.1481C44.5095 90.029 45.3333 89.4338 46.7571 89.5481C48.1762 89.6624 48.9 90.3909 48.8047 91.5052C48.7143 92.6243 47.8857 93.229 46.4666 93.1147C45.0428 93.0005 44.3238 92.2719 44.419 91.1481ZM47.7857 91.4243C47.8333 90.8386 47.5285 90.4528 46.6905 90.3814C45.8571 90.3148 45.4952 90.6433 45.4428 91.2338C45.3952 91.829 45.7047 92.2148 46.5333 92.2862C47.3666 92.3528 47.7381 92.0195 47.7857 91.4243Z" fill="white"></path><path d="M51.119 92.048C51.1333 92.3337 51.4238 92.5051 52.3143 92.4575C53.1286 92.4146 53.3238 92.2766 53.3095 92.0623C53.2952 91.8146 53.1428 91.7813 52.1333 91.767C50.7571 91.7432 50.1333 91.5004 50.0952 90.748C50.0571 90.0432 50.8047 89.6813 51.9762 89.6242C53.2809 89.5575 54.0524 89.9099 54.119 90.6623L53.0952 90.7146C53.0809 90.4146 52.7476 90.3194 51.9857 90.3575C51.2666 90.3956 51.1095 90.5242 51.119 90.7051C51.1285 90.9146 51.2952 90.9718 52.219 91.0004C53.4666 91.0289 54.2809 91.0718 54.3285 91.9623C54.3714 92.8289 53.5857 93.1242 52.3809 93.1861C51.0095 93.2575 50.1762 92.9861 50.0857 92.0956L51.1143 92.0432L51.119 92.048Z" fill="white"></path><path d="M55.7428 92.0429L56.6809 91.9048L56.7857 92.6334L55.8476 92.7715L55.738 92.0429H55.7428Z" fill="white"></path><path d="M59.4811 88.5382C60.6953 88.243 61.5096 88.5953 61.8144 89.4191L60.8001 89.6668C60.662 89.3763 60.2906 89.2001 59.6811 89.3477C58.9763 89.5192 58.7192 89.9477 58.8572 90.5287C59.0001 91.1096 59.4334 91.3763 60.1334 91.2049C60.743 91.0572 60.9906 90.7239 60.9763 90.3953L61.9906 90.1477C62.1001 91.0239 61.543 91.7191 60.3287 92.0144C59.0049 92.3382 58.1287 91.9001 57.8525 90.7715C57.5763 89.6477 58.1525 88.862 59.4763 88.5382H59.4811Z" fill="white"></path><path d="M63.1524 89.3907C62.7382 88.3431 63.2191 87.4431 64.5477 86.9193C65.8715 86.3955 66.8429 86.7288 67.2524 87.7717C67.6667 88.8193 67.1858 89.7288 65.862 90.2526C64.5334 90.7764 63.5667 90.4431 63.1524 89.3907ZM66.3001 88.1478C66.0858 87.6002 65.6382 87.3859 64.8572 87.6955C64.081 88.0002 63.8953 88.4574 64.1143 89.0097C64.3334 89.5669 64.7858 89.7764 65.5572 89.4717C66.3334 89.1669 66.5191 88.7002 66.3001 88.1478Z" fill="white"></path><path d="M69.3381 88.6907L67.6333 85.7574L68.9571 84.986L71.1095 86.3383L70.9952 83.8002L72.319 83.0288L74.0238 85.9621L73.1762 86.4526L71.9428 84.3288L72.0762 87.0955L71.2904 87.5526L68.9524 86.0717L70.1904 88.1955L69.3381 88.6907Z" fill="white"></path><path d="M23.019 81.8382C13.9952 74.1811 8.2666 62.7573 8.2666 50.0001C8.2666 37.243 14.2999 25.2144 23.738 17.562" stroke="white" stroke-miterlimit="10"></path><path d="M76.2666 17.5669C85.7047 25.2193 91.7333 36.905 91.7333 50.0002C91.7333 63.0955 86.0047 74.1859 76.9809 81.8431" stroke="white" stroke-miterlimit="10"></path></g><defs><clipPath id="clip0_101_22077"><rect width="100" height="100" fill="white"></rect></clipPath></defs></svg>