<svg xmlns="http://www.w3.org/2000/svg" width="100" height="100" viewBox="0 0 100 100" fill="none"><g clip-path="url(#clip0_101_22113)"><path d="M93.7382 31.5242C91.3477 25.8718 87.9239 20.7956 83.5668 16.4337C79.2049 12.0718 74.1287 8.65274 68.4763 6.26226C62.6239 3.78607 56.4096 2.53369 50.0001 2.53369C43.5906 2.53369 37.3763 3.78607 31.5239 6.26226C25.8715 8.65274 20.7954 12.0765 16.4334 16.4337C12.0715 20.7956 8.65249 25.8718 6.26202 31.5242C3.78583 37.3765 2.53345 43.5908 2.53345 50.0004C2.53345 56.4099 3.78583 62.6242 6.26202 68.4765C8.65249 74.1289 12.0763 79.2051 16.4334 83.567C20.7954 87.9289 25.8715 91.348 31.5239 93.7385C37.3763 96.2146 43.5906 97.467 50.0001 97.467C56.4096 97.467 62.6239 96.2146 68.4763 93.7385C74.1287 91.348 79.2049 87.9242 83.5668 83.567C87.9287 79.2051 91.3477 74.1289 93.7382 68.4765C96.2144 62.6242 97.4668 56.4099 97.4668 50.0004C97.4668 43.5908 96.2144 37.3765 93.7382 31.5242Z" fill="#FBDA42"></path><path d="M96.5333 31.6668C96.2333 30.9096 95.919 30.162 95.5857 29.4239C94.919 27.9477 94.181 26.5096 93.3762 25.1144C92.9762 24.4144 92.5571 23.7287 92.1238 23.0525C91.6905 22.3763 91.2429 21.7096 90.7762 21.0573C90.5429 20.7287 90.3095 20.4049 90.0667 20.0858C89.5857 19.443 89.0905 18.8144 88.581 18.1954C87.5619 16.962 86.4857 15.7763 85.3524 14.643C84.7857 14.0763 84.2095 13.5239 83.6143 12.9858C83.0238 12.4477 82.419 11.9239 81.8 11.4144C81.4905 11.162 81.181 10.9096 80.8667 10.662C79.9238 9.91917 78.9524 9.20964 77.9524 8.53822C76.9571 7.86203 75.9333 7.22393 74.8857 6.62393C74.1857 6.22393 73.481 5.83822 72.7619 5.47155C72.4048 5.28583 72.0429 5.10964 71.6762 4.93345C70.9476 4.58107 70.2095 4.24774 69.4619 3.93345C69.0857 3.77631 68.7095 3.62393 68.3333 3.47155C67.5762 3.17155 66.8095 2.8906 66.0381 2.62869C65.2667 2.36679 64.4809 2.12393 63.6905 1.90012C62.9 1.67631 62.1 1.47155 61.2952 1.28584C57.6667 0.44774 53.8857 0.00488281 50.0048 0.00488281C46.1238 0.00488281 42.3429 0.44774 38.7143 1.28584C37.9095 1.47155 37.1095 1.67631 36.319 1.90012C35.5286 2.12393 34.7429 2.36679 33.9714 2.62869C33.2 2.8906 32.4333 3.17155 31.6762 3.47155C31.3 3.61917 30.9238 3.77631 30.5476 3.93345C29.8 4.24774 29.0619 4.58583 28.3333 4.93345C27.9667 5.10964 27.6095 5.2906 27.2476 5.47155C26.5286 5.83822 25.819 6.22393 25.1238 6.62393C24.0762 7.22393 23.0524 7.86679 22.0571 8.53822C21.0619 9.21441 20.0857 9.91917 19.1429 10.662C18.8286 10.9096 18.5143 11.162 18.2095 11.4144C17.5905 11.9239 16.9857 12.4477 16.3952 12.9858C15.8048 13.5239 15.2238 14.0763 14.6571 14.643C13.5238 15.7763 12.4476 16.9573 11.4286 18.1954C10.919 18.8144 10.4238 19.443 9.94286 20.0858C9.70476 20.4049 9.46667 20.7287 9.23333 21.0573C8.76667 21.7096 8.31905 22.3763 7.88571 23.0525C7.45238 23.7287 7.03333 24.4144 6.63333 25.1144C5.82857 26.5096 5.09524 27.9477 4.42381 29.4239C4.09048 30.162 3.77143 30.9096 3.47619 31.6668C1.22857 37.343 0 43.5287 0 50.0001C0 56.043 1.07143 61.8335 3.03333 67.1906C3.45238 68.3382 3.91429 69.4668 4.41429 70.5763C5.08095 72.0525 5.81905 73.4906 6.62381 74.8858C7.02381 75.5858 7.44286 76.2715 7.87619 76.9477C8.30952 77.6239 8.75714 78.2906 9.22381 78.943C9.45714 79.2715 9.69048 79.5954 9.93333 79.9144C10.4143 80.5573 10.9095 81.1858 11.419 81.8049C12.181 82.7287 12.981 83.6287 13.8095 84.4954C15.4667 86.2335 17.2429 87.8477 19.1333 89.3335C20.0762 90.0763 21.0476 90.7858 22.0476 91.4573C23.0429 92.1335 24.0667 92.7715 25.1143 93.3715C26.8571 94.3763 28.6714 95.2763 30.5381 96.0668C36.519 98.5954 43.0952 99.9954 50 99.9954C56.9048 99.9954 63.4809 98.5954 69.4619 96.0668C71.3333 95.2763 73.1429 94.3763 74.8857 93.3715C75.9333 92.7715 76.9571 92.1287 77.9524 91.4573C78.9476 90.7811 79.9238 90.0763 80.8667 89.3335C82.7571 87.8477 84.5333 86.2335 86.1905 84.4954C87.0191 83.6287 87.8143 82.7287 88.581 81.8049C89.0905 81.1858 89.5857 80.5573 90.0667 79.9144C90.3048 79.5954 90.5429 79.2715 90.7762 78.943C91.2429 78.2906 91.6905 77.6239 92.1238 76.9477C92.5571 76.2715 92.9762 75.5858 93.3762 74.8858C94.181 73.4906 94.9143 72.0525 95.5857 70.5763C96.0857 69.4668 96.5476 68.3382 96.9667 67.1906C98.9286 61.8287 100 56.0382 100 50.0001C100 43.5287 98.7714 37.343 96.5333 31.6668ZM93.7381 68.4763C91.3476 74.1287 87.9238 79.2049 83.5667 83.5668C79.2048 87.9287 74.1286 91.3477 68.4762 93.7382C62.6238 96.2144 56.4095 97.4668 50 97.4668C43.5905 97.4668 37.3762 96.2144 31.5238 93.7382C25.8714 91.3477 20.7952 87.9239 16.4333 83.5668C12.0714 79.2049 8.65238 74.1287 6.2619 68.4763C3.78571 62.6239 2.53333 56.4096 2.53333 50.0001C2.53333 43.5906 3.78571 37.3763 6.2619 31.5239C8.65238 25.8715 12.0762 20.7954 16.4333 16.4335C20.7952 12.0715 25.8714 8.6525 31.5238 6.26202C37.3762 3.78583 43.5905 2.53345 50 2.53345C56.4095 2.53345 62.6238 3.78583 68.4762 6.26202C74.1286 8.6525 79.2048 12.0763 83.5667 16.4335C87.9286 20.7954 91.3476 25.8715 93.7381 31.5239C96.2143 37.3763 97.4667 43.5906 97.4667 50.0001C97.4667 56.4096 96.2143 62.6239 93.7381 68.4763Z" fill="#EA0029"></path><path d="M28.8762 34.2145C28.9858 34.2669 29.1001 34.1716 29.162 34.0907C29.2286 34.0097 29.2715 33.905 29.2715 33.8002V33.0478C29.2715 32.7621 29.0382 32.824 29.0382 32.824C28.8905 32.8669 28.781 33.0002 28.7715 33.1573V34.0478C28.7715 34.1193 28.8096 34.1859 28.8715 34.2145H28.8762Z" fill="#E0222E"></path><path d="M36.0332 66.0239C36.2284 66.2715 36.4332 66.5192 36.638 66.762C36.4284 66.5192 36.2284 66.2715 36.0332 66.0239Z" fill="#E0222E"></path><path d="M38.1001 68.3242C38.3477 68.5671 38.5953 68.8052 38.8525 69.0385C38.5953 68.8004 38.343 68.5623 38.1001 68.3242Z" fill="#E0222E"></path><path d="M49.4761 76.4146L49.3952 76.367L49.2476 76.2812L49.4761 76.4146Z" fill="#E0222E"></path><path d="M73.4619 32.3718C73.419 32.2956 73.3809 32.2146 73.3524 32.1289C73.3143 32.0527 73.2667 31.9765 73.2238 31.9004C73.1333 31.7527 73.0286 31.6146 72.919 31.4813C72.5714 31.0765 72.1524 30.7385 71.6857 30.4813C71.1476 30.1766 70.5714 29.9575 69.9667 29.8242C69.6095 29.7432 69.2476 29.7194 68.9047 29.6004C68.7809 29.5575 68.6619 29.5004 68.5428 29.4385C68.3619 29.3432 68.1952 29.2194 68.0524 29.0766C68 29.0242 67.9524 28.9575 67.9143 28.8908C67.9047 28.8765 67.9 28.8575 67.8952 28.8432C67.8857 28.7908 67.8667 28.7385 67.8428 28.6908C67.8 28.6289 67.7428 28.5813 67.6762 28.5575C67.6333 28.5432 67.5905 28.5337 67.5476 28.5337H32.4524C32.3333 28.5337 32.219 28.5908 32.1571 28.6908C32.1333 28.7385 32.1143 28.7861 32.1047 28.8432C32.1047 28.8432 32.0905 28.8718 32.0857 28.8908C32.0476 28.9575 32 29.0194 31.9476 29.0766C31.8047 29.2194 31.6381 29.3432 31.4571 29.4385C31.3428 29.5004 31.2238 29.5527 31.1 29.5956C30.7571 29.7194 30.3905 29.7432 30.0381 29.8194C29.4381 29.9527 28.8571 30.1718 28.319 30.4765C27.8524 30.7337 27.4333 31.0718 27.0857 31.4765C26.9762 31.6099 26.8714 31.748 26.7809 31.8956C26.7333 31.9718 26.6905 32.048 26.6524 32.1242C26.6238 32.2099 26.5857 32.2908 26.5428 32.367C26.5428 32.367 22.4476 32.8718 22.0476 34.0575V41.3861C22.0476 41.3861 22.9809 41.767 25.4095 41.5146C26.2714 41.4099 27.1428 41.3527 28.0095 41.3385C28.0095 41.3385 29.219 41.2623 29.7762 40.5337C29.7762 40.5337 30.319 40.5337 30.8571 41.0432C31.1905 41.3575 31.5905 41.7337 31.8428 41.9813V54.1004L31.8619 55.0004C32 58.467 32.9524 61.3527 34.5048 63.8575C34.8286 64.3766 35.1809 64.8861 35.5524 65.3813C35.6952 65.5765 35.8381 65.767 35.9905 65.9575L36.0381 66.0194C36.2333 66.267 36.4381 66.5146 36.6428 66.7575C36.6571 66.7766 36.6714 66.7908 36.6857 66.8099C36.8952 67.0575 37.1143 67.3004 37.3381 67.5385L37.3762 67.5765C37.6047 67.8194 37.8381 68.0575 38.0762 68.2956L38.1 68.3194C38.3476 68.5623 38.5952 68.8004 38.8524 69.0337H38.8619C41.7524 71.6861 45.3476 73.9623 49.2524 76.2765L49.4 76.3623L49.4809 76.4099L49.2524 76.2765L48.8095 76.0099L49.4333 76.3813L49.4857 76.4099L49.8428 76.6242L49.9238 76.6718C49.9476 76.6861 49.9762 76.6956 50.0048 76.6956C50.0333 76.6956 50.0619 76.6861 50.0857 76.6718L50.1667 76.6242L50.5286 76.4146L50.5762 76.3861C54.6143 73.9956 58.3333 71.648 61.2905 68.9051C64.8381 65.7908 67.3143 62.148 67.9333 57.2004C68.0428 56.4718 68.1095 55.7385 68.1381 55.0004L68.1571 54.1004V41.9766C68.4143 41.7337 68.8143 41.3527 69.1476 41.0337C69.6905 40.5242 70.2286 40.5242 70.2286 40.5242C70.7857 41.2575 71.9952 41.3337 71.9952 41.3337C72.8667 41.348 73.7333 41.4099 74.6 41.5099C77.0238 41.7623 77.9619 41.3813 77.9619 41.3813V34.0527C77.5571 32.867 73.4619 32.3623 73.4619 32.3623V32.3718ZM27.9857 32.9289C28.1905 32.5385 28.5476 32.2242 29.0476 31.9956C29.8762 31.6146 30.2857 31.9527 30.2762 33.0099L30.2619 34.1908C30.2571 34.767 30.1905 35.2194 30.0619 35.5432C29.9 36.0004 29.5524 36.3718 29.1095 36.5718C28.6762 36.7718 28.3428 36.8385 28.1714 36.7194C27.819 36.4623 27.8714 36.1432 27.8619 35.7194L28.8333 35.3051C28.8381 35.5765 28.8333 35.9004 29.0333 35.8051C29.1905 35.7337 29.2333 35.6527 29.2762 35.4385C29.2905 35.2765 29.3 35.1099 29.2952 34.948V34.648C29.1428 34.867 28.9381 35.048 28.6952 35.1718C28.0619 35.4623 27.7476 35.1575 27.7571 34.2575C27.7619 33.7051 27.7952 33.267 27.9762 32.9337L27.9857 32.9289ZM23.2476 35.7527C23.5048 35.7527 23.9286 35.2575 24.0333 34.8099L24.8095 34.5004L24.8381 38.967L23.8428 39.4385L23.7905 36.1956L23.2428 36.5337V35.748L23.2476 35.7527ZM28.4952 40.1766C28.4333 40.2623 28.3476 40.3337 28.2476 40.3718C28.2238 40.3861 28.1381 40.4146 28.1048 40.4242C27.9714 40.467 27.8286 40.5004 27.6857 40.5146C27.4619 40.5385 27.2428 40.548 27.019 40.5432C25.6571 40.5289 23.7286 40.7527 23.7286 40.7527C23.7619 40.4861 23.8381 40.3242 24.2476 40.2623C25.1524 40.1194 26.8571 40.0766 26.8571 40.0766C26.9619 40.0718 27.0714 40.0718 27.1762 40.0575C27.2857 40.048 27.3857 40.0004 27.4571 39.9146C27.5667 39.7432 27.3667 39.6099 27.2476 39.5432C27.1286 39.4766 26.9809 39.4242 26.8571 39.3432C26.5714 39.1527 26.2809 38.967 26.1428 38.6385C26.0714 38.4385 26.0428 38.2289 26.0571 38.0194V33.348C26.1667 33.1432 26.3333 32.9718 26.5381 32.8575V37.8861C26.5571 38.2623 26.7571 38.6051 27.0762 38.8051C27.2667 38.9051 27.4714 38.9813 27.6809 39.0194C27.9048 39.0575 28.1143 39.148 28.2905 39.2861C28.4238 39.3908 28.519 39.5385 28.5571 39.7051C28.5905 39.867 28.5667 40.0337 28.4905 40.1766H28.4952ZM67.4524 47.0718V54.1051C67.4524 55.1432 67.3809 56.1765 67.2286 57.2051C66.1428 65.9385 59.2524 70.6051 50.9286 75.4766H50.9238L50.1619 75.9194L50.0905 75.9623C50.0428 75.9908 49.9809 75.9908 49.9286 75.9623L49.8476 75.9146C40.3333 70.3099 32.5524 65.0242 32.5524 54.0908V29.6289C32.5524 29.6289 32.5524 29.5861 32.5619 29.5623C32.5714 29.5242 32.5857 29.4861 32.6048 29.4527C32.6428 29.3956 32.7 29.348 32.7667 29.3242C32.8047 29.3099 32.8476 29.3004 32.8905 29.3004H67.119C67.1619 29.3004 67.2048 29.3099 67.2428 29.3242C67.3095 29.348 67.3667 29.3956 67.4048 29.4527C67.4238 29.4861 67.4381 29.5242 67.4476 29.5623C67.4524 29.5861 67.4571 29.6051 67.4571 29.6289V47.067L67.4524 47.0718ZM71.2095 32.9099C71.1571 32.8004 71.0571 32.7146 70.9428 32.6718C70.7333 32.6004 70.7381 32.8289 70.7381 33.2337V33.4432L69.8095 33.0337V32.8099C69.8095 32.3813 69.8619 32.0908 70.0762 31.948C70.2905 31.8051 70.6 31.8146 71.0095 31.9813C71.3571 32.1099 71.6571 32.3385 71.8809 32.6289C72.0905 32.9146 72.1333 33.3051 72.1381 33.7004C72.1476 33.9194 72.1048 34.1337 72.019 34.3289C71.9619 34.5289 71.4428 34.8908 71.4428 34.8908C71.1095 35.0956 70.9381 35.3289 70.9 35.4813L72.2 35.9956V36.7718L69.7476 35.7242V35.5813C69.7476 34.9908 70.0333 34.548 70.6048 34.148L71.019 33.8527C71.1952 33.7289 71.2809 33.5194 71.2809 33.2289C71.2809 33.1146 71.2619 33.0004 71.2095 32.8956V32.9099ZM70.9095 39.4337C70.8571 39.5289 70.7667 39.5956 70.6571 39.6194C70.2428 39.7051 69.1714 40.1242 68.2428 40.9051C68.219 40.9242 68.1857 40.9194 68.1714 40.9004C68.1619 40.8908 68.1619 40.8813 68.1571 40.867V30.448V29.9385C68.3714 30.067 68.5714 30.2242 68.7476 30.4051V38.5718L68.7905 38.548C69.0524 38.4051 71.6 37.0575 72.9048 38.1337C72.9048 38.1337 72.0667 38.4527 71.7905 38.6146C71.4286 38.8194 71.0857 39.0908 70.9047 39.4337H70.9095ZM72.9857 40.548C72.7619 40.5527 72.5381 40.548 72.319 40.5194C72.1762 40.5051 72.0381 40.4766 71.9 40.4289C71.8619 40.4146 71.7809 40.3861 71.7571 40.3765C71.6571 40.3385 71.5714 40.2718 71.5095 40.1813C71.4333 40.0385 71.4143 39.8718 71.4476 39.7146C71.4857 39.548 71.5762 39.4004 71.7143 39.2956C71.8952 39.1623 72.1048 39.0718 72.3238 39.0289C72.5333 38.9861 72.7381 38.9146 72.9286 38.8146C73.2476 38.6146 73.4476 38.2718 73.4667 37.8956V32.8623C73.6714 32.9718 73.8381 33.1432 73.9476 33.3527V38.0242C73.9619 38.2337 73.9381 38.448 73.8666 38.6432C73.7286 38.9766 73.4428 39.1623 73.1524 39.348C73.0333 39.4289 72.8905 39.4718 72.7619 39.548C72.6333 39.6242 72.4381 39.748 72.5524 39.9194C72.6238 40.0051 72.7238 40.0527 72.8333 40.0623C72.9381 40.0765 73.0476 40.0765 73.1524 40.0813C73.1524 40.0813 74.8571 40.1242 75.7619 40.267C76.1667 40.3337 76.2476 40.4908 76.2809 40.7575C76.2809 40.7575 74.3524 40.5385 72.9857 40.548ZM77.1762 38.348C77.1619 38.8432 77.0667 39.167 76.8809 39.3242C76.6762 39.5004 76.3428 39.4861 75.8857 39.2718C75.5762 39.1385 75.3095 38.9242 75.1095 38.6527C74.9571 38.4242 74.8524 38.167 74.7952 37.9004C74.7714 37.767 74.7571 37.6385 74.7524 37.5051L74.7428 37.0956L75.6381 37.4956C75.6476 37.6289 75.6762 38.0432 75.6857 38.1765C75.719 38.3527 75.7619 38.4813 75.8905 38.5575C76.1286 38.6956 76.1952 38.5146 76.2095 38.0146C76.219 37.8337 76.2143 37.6575 76.1952 37.4765C76.1476 37.2385 76.1 37.0765 75.9333 37.0004C75.7381 36.9099 75.6286 36.9623 75.6 37.167L74.8 36.7956L74.9619 34.5146L77.0714 35.4956L77.0524 36.267L75.6333 35.6099L75.5762 36.2765C75.7857 36.1908 76.019 36.2004 76.219 36.3099C76.6047 36.4908 76.8714 36.8861 77.0238 37.2718C77.1428 37.6194 77.1952 37.9908 77.1762 38.3623V38.348Z" fill="#E0222E"></path><path d="M67.438 29.5573C67.4284 29.5192 67.4142 29.4811 67.3951 29.4478C67.357 29.3906 67.2999 29.343 67.2332 29.3192C67.1951 29.3049 67.1522 29.2954 67.1094 29.2954H32.8808C32.838 29.2954 32.7951 29.3049 32.757 29.3192C32.6903 29.343 32.638 29.3906 32.5951 29.4478C32.5761 29.4811 32.557 29.5192 32.5523 29.5573C32.5475 29.5811 32.5427 29.6002 32.5427 29.624V54.1002C32.5427 65.0287 40.3189 70.3192 49.838 75.924L49.9189 75.9716C49.9665 76.0002 50.0284 76.0002 50.0808 75.9716L50.1523 75.9287L50.9142 75.4859H50.9189C59.2427 70.6145 66.1332 65.9478 67.2189 57.2145C67.3713 56.1906 67.4475 55.1526 67.4427 54.1145V29.6287C67.4427 29.6287 67.4427 29.5811 67.4427 29.5621L67.438 29.5573ZM33.1332 29.8811H66.857V37.4383H33.138V29.8811H33.1332ZM49.6903 38.0287V41.7049H46.0142V38.0287H49.6903ZM45.3999 38.0287V41.7049H41.7237V38.0287H45.3999ZM37.4284 46.0002V42.324H41.1046V46.0002H37.4284ZM41.1046 46.6192V50.2954H37.4284V46.6192H41.1046ZM37.4284 41.7097V38.0335H41.1046V41.7097H37.4284ZM33.1332 38.0335H36.8094V41.7097H33.1332V38.0335ZM33.1332 42.324H36.8094V46.0002H33.1332V42.324ZM33.1332 46.6192H36.8094V50.2954H33.1332V46.6192ZM33.1332 50.9097H36.8094V54.5859H33.1332V50.9097ZM50.4522 74.943C50.4046 74.9716 50.338 74.9526 50.3094 74.9049C50.2999 74.8906 50.2951 74.8716 50.2951 74.8526V63.024C50.2523 63.0049 50.2094 63.0002 50.1665 63.0097C50.0951 63.0287 50.0284 63.0573 49.9665 63.1002C49.8808 63.1478 49.7903 63.1906 49.6999 63.2335V74.8526C49.6999 74.9097 49.657 74.9573 49.5999 74.9573C49.5808 74.9573 49.5618 74.9526 49.5427 74.943C40.7999 69.8287 33.6523 64.9192 33.1523 55.2859C33.1523 55.2287 33.1903 55.1764 33.2523 55.1764C33.2523 55.1764 33.2522 55.1764 33.257 55.1764H40.6046C40.6046 55.1764 40.5903 55.143 40.5856 55.124C40.5237 54.9478 40.4761 54.7716 40.4427 54.5906H37.4284V50.9145H41.0903C41.2284 50.3335 41.4427 49.7716 41.7237 49.243V46.624H44.057C44.3427 46.4097 44.638 46.2049 44.9332 46.0049H41.7189V42.3287H45.3951V45.7192C45.5951 45.6002 45.7999 45.4859 46.0094 45.3811V42.3335H49.6856V44.5478C49.9046 44.5716 50.0951 44.7002 50.2046 44.8906C50.2427 44.9716 50.2761 45.0526 50.2999 45.143V38.143C50.2999 38.0859 50.3475 38.0383 50.4046 38.0383H66.757C66.8142 38.0383 66.8618 38.0859 66.8618 38.143V54.4764C66.8618 54.5335 66.8189 54.5811 66.7618 54.5811H59.5856C59.5665 54.7716 59.5332 54.9621 59.4951 55.1526V55.1811H66.7761C66.8332 55.1811 66.8808 55.2287 66.8808 55.2859C66.8808 55.2859 66.8808 55.2859 66.8808 55.2906C66.3808 64.9287 59.2094 69.824 50.457 74.9478L50.4522 74.943Z" fill="#FED500"></path><path d="M49.081 63.4244V74.1006C45.0096 71.691 41.3239 69.2958 38.562 66.391C38.3287 66.1434 38.1001 65.8958 37.881 65.6434C35.5763 62.9958 34.0287 59.9148 33.6048 56.0482C33.6001 55.9863 33.5906 55.9244 33.5858 55.8625C33.5858 55.7958 33.6382 55.7529 33.6953 55.7529H41.1334C41.1239 55.7291 41.1048 55.7053 41.0858 55.691C41.0334 55.6625 40.981 55.6339 40.9287 55.6149C40.7429 55.5196 40.6763 55.3577 40.6096 55.1768H33.262C33.2048 55.1768 33.1572 55.2244 33.1572 55.2815C33.1572 55.2815 33.1572 55.2815 33.1572 55.2863C33.6572 64.9196 40.8048 69.8244 49.5477 74.9434C49.5953 74.972 49.662 74.9577 49.6906 74.9101C49.7001 74.8958 49.7048 74.8768 49.7048 74.8529V63.2387C49.6191 63.272 49.5334 63.3053 49.4477 63.3339C49.3287 63.372 49.2096 63.4053 49.0858 63.4291L49.081 63.4244Z" fill="#E0222E"></path><path d="M66.7762 55.1768H59.4905C59.3858 55.7291 59.2762 56.2863 59.1715 56.8387C59.081 57.3101 58.9286 57.7672 58.7191 58.1958C58.4762 58.691 58.1334 59.191 57.6286 59.4482C57.5048 59.5149 57.3715 59.5577 57.2334 59.5815C57.2239 59.5815 57.081 59.5958 57.081 59.591C56.6953 61.772 54.3334 61.8768 54.3334 61.8768C54.1905 62.1577 54.0001 62.4101 53.7667 62.6244C53.4001 62.9529 52.9477 63.172 52.4667 63.2529C52.0381 63.3244 51.6048 63.3244 51.1762 63.2529C50.9905 63.2244 50.8048 63.1815 50.6191 63.1339C50.5334 63.1149 50.4524 63.091 50.3715 63.0625L50.3 63.0291V74.8529C50.3 74.9101 50.3477 74.9577 50.4048 74.9577C50.4239 74.9577 50.4429 74.9529 50.4572 74.9434C59.2096 69.8196 66.381 64.9244 66.881 55.2863C66.881 55.2291 66.8381 55.1815 66.781 55.1768C66.781 55.1768 66.7762 55.1768 66.7715 55.1768H66.7762Z" fill="#E0222E"></path><path d="M50.9142 44.7907V38.6812C50.9142 38.624 50.9618 38.5764 51.019 38.5764H66.2142C66.2714 38.5764 66.319 38.624 66.319 38.6812V53.924C66.319 53.9812 66.2761 54.0288 66.219 54.0288H59.6094C59.619 54.2098 59.6094 54.3907 59.5904 54.5717H66.7666C66.8237 54.5717 66.8713 54.524 66.8713 54.4669V38.1336C66.8713 38.0764 66.8237 38.0288 66.7666 38.0288H50.419C50.3618 38.0288 50.3142 38.0764 50.3142 38.1336V45.1336C50.3237 45.1717 50.3333 45.2145 50.338 45.2526C50.5142 45.0764 50.7094 44.924 50.919 44.786L50.9142 44.7907Z" fill="#E0222E"></path><path d="M23.8477 39.4386L24.8429 38.9672L24.8143 34.5005L24.0382 34.81C23.9334 35.2529 23.5143 35.7529 23.2524 35.7529V36.5386L23.8001 36.2005L23.8477 39.4433V39.4386Z" fill="#FBDA42"></path><path d="M71.019 33.8527L70.6047 34.148C70.0333 34.5527 69.7476 34.9908 69.7476 35.5813V35.7242L72.1999 36.7718V35.9956L70.8999 35.4813C70.9333 35.3242 71.1142 35.0908 71.4428 34.8908C71.4428 34.8908 71.9618 34.5289 72.019 34.3289C72.1095 34.1289 72.1476 33.9146 72.138 33.7004C72.138 33.3099 72.0904 32.9146 71.8809 32.6289C71.6571 32.3337 71.3523 32.1051 71.0047 31.9766C70.5952 31.8099 70.2857 31.8004 70.0714 31.9432C69.8571 32.0861 69.8047 32.3718 69.8047 32.8051V33.0289L70.7333 33.4385V33.2289C70.7333 32.8242 70.7237 32.5956 70.938 32.667C71.0523 32.7051 71.1523 32.7908 71.2047 32.9051C71.2571 33.0099 71.2857 33.1242 71.2809 33.2385C71.2809 33.5289 71.1952 33.7432 71.019 33.8623V33.8527Z" fill="#FBDA42"></path><path d="M28.7096 35.1671C28.9477 35.0433 29.1524 34.8671 29.3096 34.6433V34.9433C29.3096 35.1099 29.3096 35.2718 29.2905 35.4337C29.2477 35.6433 29.2048 35.729 29.0477 35.8004C28.8429 35.8956 28.8524 35.5718 28.8477 35.3004L27.8762 35.7195C27.8858 36.1433 27.8334 36.4623 28.1858 36.7195C28.3524 36.8433 28.6905 36.7718 29.1239 36.5718C29.5667 36.3718 29.9096 36.0004 30.0715 35.5433C30.2001 35.2147 30.2667 34.7671 30.2715 34.1909L30.2858 33.0052C30.2953 31.9528 29.8858 31.6147 29.0572 31.9909C28.5572 32.2195 28.2001 32.5337 27.9953 32.9242C27.8191 33.2575 27.7858 33.7004 27.7715 34.248C27.7715 35.148 28.081 35.4528 28.7191 35.1623L28.7096 35.1671ZM28.7762 33.1671C28.7858 33.0099 28.8905 32.8766 29.0429 32.8337C29.0429 32.8337 29.2762 32.7671 29.2762 33.0575V33.8099C29.2762 33.9147 29.2334 34.0195 29.1667 34.1004C29.1001 34.1814 28.9953 34.2814 28.881 34.2242C28.8191 34.1909 28.781 34.129 28.781 34.0575V33.1671H28.7762Z" fill="#FBDA42"></path><path d="M28.2904 39.2908C28.1095 39.1574 27.8999 39.0669 27.6809 39.0241C27.4714 38.9812 27.2666 38.9098 27.0761 38.8098C26.7571 38.6098 26.5571 38.2669 26.538 37.8908V32.8574C26.3333 32.9717 26.1666 33.1384 26.0571 33.3479V38.0193C26.0428 38.2288 26.0714 38.4431 26.1428 38.6384C26.2809 38.9717 26.5666 39.1574 26.8571 39.3431C26.9761 39.4241 27.119 39.4669 27.2476 39.5431C27.3761 39.6193 27.5714 39.7431 27.4571 39.9146C27.3857 40.0003 27.2857 40.0479 27.1761 40.0574C27.0714 40.0717 26.9666 40.0717 26.8571 40.0765C26.8571 40.0765 25.1523 40.1193 24.2476 40.2622C23.8428 40.3289 23.7618 40.486 23.7285 40.7527C23.7285 40.7527 25.6618 40.5289 27.0285 40.5431C27.2523 40.5431 27.4761 40.5431 27.6952 40.5146C27.838 40.5003 27.9761 40.4717 28.1142 40.4241C28.1523 40.4098 28.2333 40.3812 28.2571 40.3717C28.3571 40.3336 28.4428 40.2669 28.5047 40.1765C28.5809 40.0336 28.5999 39.8669 28.5666 39.7098C28.5285 39.5431 28.4333 39.3955 28.2999 39.2908H28.2904Z" fill="#FBDA42"></path><path d="M31.8428 29.9336C31.6285 30.0622 31.4285 30.2193 31.2524 30.4003V38.5669L31.2095 38.5431C30.9476 38.4003 28.4 37.0526 27.0952 38.1288C27.0952 38.1288 27.9333 38.4479 28.2095 38.6098C28.5666 38.8145 28.9143 39.0907 29.1 39.4288C29.1524 39.5241 29.2428 39.5907 29.3476 39.6145C29.7619 39.7003 30.8333 40.1193 31.7619 40.9003C31.7857 40.9193 31.819 40.9145 31.8333 40.8907C31.8381 40.8812 31.8428 40.8717 31.8428 40.8622V30.4431V29.9336Z" fill="#FBDA42"></path><path d="M72.9048 38.1239C71.6001 37.0478 69.0525 38.3954 68.7906 38.5382L68.7477 38.562V30.3954C68.5715 30.2144 68.3715 30.0573 68.1572 29.9287V30.4382V40.8573C68.1572 40.8859 68.181 40.9097 68.2096 40.9097C68.2191 40.9097 68.2334 40.9097 68.2429 40.8954C69.1763 40.1192 70.2429 39.6954 70.6572 39.6097C70.762 39.5906 70.8572 39.524 70.9096 39.424C71.0906 39.0906 71.4382 38.8097 71.8001 38.6049C72.0715 38.443 72.9096 38.1192 72.9096 38.1192L72.9048 38.1239Z" fill="#FBDA42"></path><path d="M75.757 40.2573C74.8523 40.1144 73.1475 40.0716 73.1475 40.0716C73.0428 40.0668 72.9332 40.0668 72.8285 40.0525C72.719 40.043 72.619 39.9954 72.5475 39.9097C72.438 39.7383 72.638 39.6049 72.757 39.5383C72.8761 39.4716 73.0237 39.4192 73.1475 39.3383C73.4332 39.1478 73.7237 38.9621 73.8618 38.6335C73.9332 38.4335 73.9618 38.224 73.9428 38.0144V33.343C73.8332 33.1383 73.6666 32.9668 73.4618 32.8525V37.8811C73.4428 38.2573 73.2428 38.6002 72.9237 38.8002C72.7332 38.9002 72.5285 38.9763 72.3189 39.0144C72.0999 39.0525 71.8904 39.143 71.7094 39.2811C71.5761 39.3859 71.4809 39.5335 71.4428 39.7002C71.4094 39.8573 71.4285 40.024 71.5047 40.1668C71.5666 40.2525 71.6523 40.3192 71.7523 40.3621C71.7761 40.3764 71.8618 40.4049 71.8951 40.4144C72.0332 40.4573 72.1713 40.4906 72.3142 40.5049C72.538 40.5287 72.757 40.5383 72.9809 40.5335C74.3428 40.524 76.2761 40.743 76.2761 40.743C76.2428 40.4763 76.1618 40.3144 75.757 40.2525V40.2573Z" fill="#FBDA42"></path><path d="M76.2142 36.2908C76.0142 36.1813 75.7809 36.1718 75.5714 36.2575L75.6285 35.5908L77.0476 36.248L77.0666 35.4766L74.9571 34.4956L74.7952 36.7766L75.5952 37.148C75.619 36.948 75.7285 36.8908 75.9285 36.9813C76.0952 37.0575 76.1428 37.2194 76.1904 37.4575C76.2095 37.6337 76.2142 37.8147 76.2047 37.9956C76.1952 38.4956 76.1238 38.6718 75.8857 38.5385C75.7571 38.4623 75.7142 38.3337 75.6809 38.1575C75.6714 38.0242 75.6428 37.6099 75.6333 37.4766L74.738 37.0766L74.7476 37.4861C74.7523 37.6194 74.7666 37.7527 74.7904 37.8813C74.8428 38.1527 74.9523 38.4051 75.1047 38.6337C75.3047 38.9051 75.5761 39.1194 75.8809 39.2527C76.338 39.467 76.6666 39.4813 76.8761 39.3051C77.0571 39.148 77.1571 38.8242 77.1714 38.3289C77.1904 37.9575 77.1428 37.5908 77.019 37.2385C76.8666 36.8527 76.5999 36.4575 76.2142 36.2766V36.2908Z" fill="#FBDA42"></path><path d="M60.5238 33.4859C60.5238 33.0525 60.2857 32.8335 59.8095 32.8335H59.1523V34.1335H59.8095C60.2857 34.1335 60.5238 33.9144 60.5238 33.4811V33.4859Z" fill="#E0222E"></path><path d="M41.7477 35.8908C42.6096 35.8908 42.7953 35.3432 42.7953 34.2432C42.7953 33.2098 42.4477 32.7241 41.7477 32.7241C41.0477 32.7241 40.7048 33.3622 40.7048 34.2432C40.7048 35.3432 41.0525 35.8956 41.7477 35.8908Z" fill="#E0222E"></path><path d="M66.862 37.4434V29.8862H33.1382V37.4434H66.862ZM62.3382 31.8481H65.8429V32.8386H63.6191V33.7196H65.6668V34.71H63.6144V35.791H65.8382V36.7815H62.3382V31.8434V31.8481ZM57.881 31.8481H59.9953C61.2382 31.8481 61.862 32.3958 61.862 33.491C61.862 34.5862 60.7906 35.1338 59.9953 35.1338H59.1572V36.7862H57.8858V31.8529L57.881 31.8481ZM53.9049 31.8481H57.4049V32.8386H55.181V33.7196H57.2334V34.71H55.1763V35.791H57.4001V36.7815H53.9049V31.8434V31.8481ZM49.081 31.8481H53.4287V32.7815H51.8191V36.7862H50.5477V32.7815H49.0858V31.8481H49.081ZM44.6572 35.7958L47.0763 32.7815H44.7858V31.8481H48.6001V32.891L46.2668 35.7958H48.7572V36.7862H44.662V35.7958H44.6572ZM42.081 30.4529H43.1144V31.3196H42.081V30.4529ZM40.4287 30.4529H41.462V31.3196H40.4287V30.4529ZM39.9858 32.4434C40.4001 31.9767 40.9906 31.7434 41.7477 31.7434C42.5049 31.7434 43.0953 31.9767 43.5049 32.4434C43.9191 32.9053 44.2429 33.3862 44.2429 34.2291C44.2429 35.0719 44.0334 35.7291 43.6191 36.1958C43.2049 36.6624 42.5049 36.8862 41.7477 36.8862C40.9906 36.8862 40.3429 36.6577 39.9287 36.1958C39.5144 35.7339 39.3096 35.1862 39.3096 34.3434C39.3096 33.3339 39.5763 32.9053 39.9858 32.4434ZM34.162 34.2291C34.262 31.9291 36.2096 31.8196 36.9239 31.7958C37.6049 31.7719 38.4049 32.0434 38.7668 32.2291C38.7668 32.4529 38.7668 32.7148 38.7715 33.3862H38.6287C38.162 32.8434 37.4715 32.6719 36.9049 32.6862C36.3572 32.6958 35.5287 33.091 35.5287 34.3053C35.5287 34.8243 35.6144 35.1529 35.8429 35.4434C36.0715 35.7529 36.4287 35.9386 36.8144 35.9481C37.0572 35.9767 37.3001 35.9624 37.5334 35.91V34.9815L36.5334 34.9672V34.11H38.7429V36.5577C38.3668 36.6291 37.9858 36.7577 37.6049 36.8291C34.2763 37.21 34.1287 35.0338 34.162 34.2291Z" fill="#E0222E"></path><path d="M37.6048 36.8195C37.9858 36.748 38.3667 36.6195 38.7429 36.548V34.1004H36.5334V34.9576L37.5334 34.9718V35.9004C37.2953 35.9528 37.0524 35.9671 36.8143 35.9385C36.4286 35.929 36.0715 35.7433 35.8429 35.4338C35.6143 35.148 35.5286 34.8147 35.5286 34.2957C35.5286 33.0814 36.3572 32.6909 36.9048 32.6766C37.4715 32.6623 38.162 32.8338 38.6286 33.3766H38.7715C38.762 32.7099 38.7667 32.448 38.7667 32.2195C38.4048 32.0338 37.6096 31.7623 36.9239 31.7861C36.2048 31.8099 34.2524 31.9195 34.162 34.2195C34.1239 35.0242 34.2715 37.2052 37.6048 36.8195Z" fill="#FBDA42"></path><path d="M48.7525 35.7909H46.262L48.6001 32.8861V31.8433H44.7858V32.7766H47.0763L44.6572 35.7909V36.7814H48.7525V35.7909Z" fill="#FBDA42"></path><path d="M50.5428 36.7814H51.8143V32.7766H53.4238V31.8433H49.0762V32.7766H50.5428V36.7814Z" fill="#FBDA42"></path><path d="M59.1524 35.129H59.9905C60.7857 35.129 61.8572 34.5814 61.8572 33.4861C61.8572 32.3909 61.2334 31.8433 59.9905 31.8433H57.8762V36.7766H59.1524V35.1242V35.129ZM59.1524 32.8337H59.8096C60.2857 32.8337 60.5238 33.0528 60.5238 33.4861C60.5238 33.9195 60.2857 34.1385 59.8096 34.1385H59.1524V32.8385V32.8337Z" fill="#FBDA42"></path><path d="M41.4618 30.4434H40.4285V31.31H41.4618V30.4434Z" fill="#FBDA42"></path><path d="M43.1144 30.4434H42.0811V31.31H43.1144V30.4434Z" fill="#FBDA42"></path><path d="M41.7477 36.8811C42.5096 36.8811 43.2096 36.6526 43.6191 36.1907C44.0286 35.7288 44.2429 35.0669 44.2429 34.224C44.2429 33.3811 43.9191 32.9002 43.5048 32.4383C43.0905 31.9764 42.5048 31.7383 41.7477 31.7383C40.9905 31.7383 40.4 31.9716 39.9858 32.4383C39.5715 32.9049 39.3096 33.3288 39.3096 34.3383C39.3096 35.1811 39.5143 35.724 39.9286 36.1907C40.3429 36.6573 40.9905 36.8811 41.7477 36.8811ZM41.7477 32.724C42.4429 32.724 42.7953 33.2097 42.7953 34.243C42.7953 35.343 42.6096 35.8907 41.7477 35.8907C41.0524 35.8907 40.7048 35.343 40.7048 34.243C40.7048 33.3621 41.0524 32.724 41.7477 32.724Z" fill="#FBDA42"></path><path d="M65.8381 35.7909H63.6096V34.7052H65.6619V33.7147H63.6096V32.8337H65.8381V31.8433H62.3381V36.7814H65.8381V35.7909Z" fill="#FBDA42"></path><path d="M57.4047 35.7909H55.1761V34.7052H57.2237V33.7147H55.1761V32.8337H57.4047V31.8433H53.8999V36.7814H57.4047V35.7909Z" fill="#FBDA42"></path><path d="M53.7191 46.0196C53.9857 45.8625 54.2905 45.7863 54.6 45.7958C55.3762 45.8482 55.9476 46.5339 56.3143 47.1625C56.3667 47.253 56.4191 47.3482 56.4619 47.4482C56.4905 47.5339 56.5476 47.6054 56.6191 47.6577C56.7048 47.7101 56.8095 47.7244 56.9 47.7673C57.3286 47.9863 57.7143 48.2768 58.0381 48.6292C58.4619 49.1006 58.7762 49.6625 58.9619 50.2673C59.1238 50.7863 59.2143 51.3292 59.2334 51.872C59.2429 52.0768 59.2429 52.2815 59.2334 52.4863C59.2334 52.5863 59.2191 52.6911 59.2143 52.7911C59.1953 52.872 59.1857 52.9577 59.2 53.0434C59.2143 53.072 59.2286 53.0958 59.2476 53.1196C59.3476 53.2244 59.4286 53.3434 59.4953 53.472C59.5476 53.6149 59.5762 53.7625 59.5953 53.9101C59.5953 53.953 59.6 53.9911 59.6048 54.0339H66.2143C66.2715 54.0339 66.3191 53.9911 66.3191 53.9339V38.6863C66.3191 38.6292 66.2715 38.5815 66.2143 38.5815H51.0191C50.9619 38.5815 50.9143 38.6292 50.9143 38.6863V44.7958C51.1524 44.6339 51.4334 44.553 51.7238 44.5577C54.1048 44.6673 53.7191 46.0292 53.7191 46.0292V46.0196Z" fill="#FBDA42"></path><path d="M33.5857 55.8574C33.5905 55.9241 33.6 55.9908 33.6047 56.0527L33.5857 55.8622V55.8574Z" fill="#FED500"></path><path d="M48.3095 63.4767C48.1238 63.4767 47.9381 63.4529 47.7524 63.4244C47.5619 63.3815 47.3762 63.3244 47.1952 63.2434C46.8381 63.0815 46.4095 62.8005 46.4047 62.3529C46.4047 62.3244 46.4047 62.2958 46.4 62.2672C46.3619 62.1482 46.2905 62.2434 46.2428 62.291C46.1952 62.3482 46.1333 62.3958 46.0666 62.4244C45.9428 62.4815 45.8095 62.5101 45.6762 62.5053C45.5143 62.5053 45.3524 62.4767 45.2 62.4101C43.9143 61.772 42.9666 60.5672 42.9666 60.5672C42.8143 60.3672 42.719 60.1291 42.6905 59.8767C42.6762 59.6625 42.6905 59.4529 42.7238 59.2434C42.7333 59.2148 42.7333 59.1863 42.7238 59.1577C42.7095 59.1291 42.6762 59.1053 42.6428 59.1053C42.4 59.0672 42.1666 59.0434 41.9524 58.9053C41.7857 58.7815 41.6524 58.6196 41.5666 58.4291C41.419 58.1672 41.3 57.8958 41.1952 57.6196C41.0905 57.3529 41.019 57.0767 40.9809 56.791C40.9571 56.5434 40.9952 56.291 41.1 56.0672C41.1476 55.972 41.1619 55.8577 41.1333 55.7529H33.6952C33.6381 55.7529 33.5905 55.7958 33.5857 55.8577L33.6047 56.0529C34.0286 59.9196 35.5762 63.0005 37.8809 65.6482C38.1047 65.9005 38.3286 66.1529 38.5619 66.3958C41.3238 69.3005 45.0143 71.6958 49.0809 74.1053V63.4291C48.8286 63.4767 48.5666 63.491 48.3095 63.4767Z" fill="#FBDA42"></path><path d="M33.5857 55.8573L33.6047 56.0478L33.5857 55.8525V55.8573Z" fill="#FBDA42"></path><path d="M36.8144 38.0337H33.1382V41.7099H36.8144V38.0337ZM36.2049 41.1004H33.7477V38.6432H36.2049V41.1004Z" fill="#E0222E"></path><path d="M36.8144 42.3291H33.1382V46.0053H36.8144V42.3291Z" fill="#E0222E"></path><path d="M36.8144 46.6196H33.1382V50.2958H36.8144V46.6196ZM36.2049 49.6863H33.7477V47.2292H36.2049V49.6863Z" fill="#E0222E"></path><path d="M36.8144 50.9146H33.1382V54.5907H36.8144V50.9146Z" fill="#E0222E"></path><path d="M40.3905 53.9859H38.0381V51.524H40.4953V52.9954C40.5429 52.7144 40.6334 52.443 40.7715 52.1954C40.8762 52.0049 40.9429 51.8001 40.9619 51.5859C40.9905 51.3573 41.0334 51.1335 41.0857 50.9097H37.4238V54.5859H40.4381C40.4 54.3859 40.3857 54.1811 40.3857 53.9763L40.3905 53.9859Z" fill="#E0222E"></path><path d="M41.1047 46.6196H37.4285V50.2958H41.1047V46.6196Z" fill="#E0222E"></path><path d="M42.3333 48.2812V47.2335H43.2952C43.4238 47.124 43.5571 47.0097 43.6952 46.9002C43.8142 46.805 43.938 46.7145 44.0618 46.624H41.7285V49.2431C41.7714 49.1669 41.8095 49.0859 41.8523 49.0097C41.9999 48.7574 42.1619 48.5145 42.338 48.2812H42.3333Z" fill="#E0222E"></path><path d="M41.1047 42.3291H37.4285V46.0053H41.1047V42.3291ZM40.4951 45.3958H38.038V42.9386H40.4951V45.3958Z" fill="#E0222E"></path><path d="M45.4001 42.3291H41.7239V46.0053H44.9382C45.0858 45.9053 45.2382 45.8101 45.4001 45.7196V42.3291Z" fill="#E0222E"></path><path d="M46.6333 45.0956V42.9385H49.0809V44.5433L49.2 44.529C49.3619 44.5099 49.5286 44.5099 49.6905 44.5385V42.3242H46.019V45.3718L46.0762 45.3433C46.2571 45.2528 46.4429 45.1718 46.6333 45.0909V45.0956Z" fill="#E0222E"></path><path d="M41.1047 38.0337H37.4285V41.7099H41.1047V38.0337Z" fill="#E0222E"></path><path d="M45.4001 41.7099V38.0337H41.7239V41.7099H45.4001ZM42.3334 38.6432H44.7905V41.1004H42.3334V38.6432Z" fill="#E0222E"></path><path d="M49.6952 38.0337H46.019V41.7099H49.6952V38.0337Z" fill="#E0222E"></path><path d="M36.2047 38.6431H33.7476V41.1002H36.2047V38.6431Z" fill="#FBDA42"></path><path d="M44.7904 38.6431H42.3333V41.1002H44.7904V38.6431Z" fill="#FBDA42"></path><path d="M40.4999 42.9385H38.0427V45.3956H40.4999V42.9385Z" fill="#FBDA42"></path><path d="M36.2047 47.229H33.7476V49.6861H36.2047V47.229Z" fill="#FBDA42"></path><path d="M38.0427 51.5239V53.9858H40.3951C40.3951 53.8668 40.3999 53.7477 40.4142 53.6334C40.438 53.4239 40.4618 53.2096 40.4999 53.0049V51.5287H38.0427V51.5239Z" fill="#FBDA42"></path><path d="M43.2953 47.229H42.3286V48.2766C42.6143 47.8957 42.9381 47.5433 43.2953 47.229Z" fill="#FBDA42"></path><path d="M49.0809 44.5432V42.9385H46.6333V45.0956C47.0333 44.929 47.4476 44.8004 47.8666 44.7099C48.2666 44.6337 48.6714 44.5766 49.0762 44.5432H49.0809Z" fill="#FBDA42"></path><path d="M46.1096 46.2097C46.1096 46.2097 46.1191 46.1907 46.1239 46.1812L46.1096 46.2097Z" fill="#FBDA42"></path><path d="M53.1953 45.71C53.1572 45.6339 53.1 45.572 53.0334 45.5196C52.7619 45.3053 52.4381 45.1624 52.0953 45.1148C51.8048 45.0577 51.5 45.091 51.2334 45.2196C51.1191 45.2767 51.0143 45.3434 50.9191 45.4291C50.8762 45.4672 50.8381 45.5053 50.8 45.5481L50.5381 45.8005C50.5381 45.8005 50.4572 45.8815 50.3143 46.0339C49.1667 47.2529 48.1381 48.5767 47.2476 49.9862C47.1238 50.1577 47.081 50.3767 47.1286 50.5815C47.1715 50.7148 47.2429 50.8386 47.3381 50.9434C47.4524 51.1005 47.5715 51.2481 47.7048 51.3862C47.8048 51.5053 47.9286 51.6053 48.0667 51.672C48.3476 51.772 48.6572 51.5815 48.8048 51.3529C48.9429 51.1481 49.0857 50.9434 49.2286 50.7386C49.581 50.2339 49.9429 49.7434 50.3143 49.2529L50.3334 49.2291C50.5286 48.9767 50.7238 48.7243 50.9238 48.4767C51.2191 48.1053 51.5238 47.7434 51.8381 47.3815C52.0905 47.0958 52.3476 46.8148 52.6143 46.5434C52.7476 46.41 52.8857 46.272 53.0286 46.1386C53.1429 46.0339 53.2714 45.8672 53.1953 45.691V45.71Z" fill="#FBDA42"></path><path d="M55.5714 49.786L58.5333 52.1337C58.5618 52.1575 58.6047 52.1527 58.6285 52.1241C58.638 52.1146 58.6428 52.1003 58.6428 52.0908C58.6571 51.9813 58.6666 51.8718 58.6714 51.7622C58.6761 51.5956 58.6714 51.4337 58.6571 51.267C58.638 51.0622 58.6047 50.8575 58.5523 50.6575C58.419 50.1479 58.1857 49.6718 57.8666 49.2575C57.6666 49.0003 57.438 48.767 57.1857 48.5622C57.0523 48.4527 56.9095 48.3527 56.7571 48.267C56.7142 48.2432 56.6571 48.2479 56.6238 48.286L55.5428 49.4956C55.4714 49.5813 55.4809 49.7051 55.5666 49.7765C55.5666 49.7765 55.5666 49.7765 55.5714 49.7813V49.786Z" fill="#FBDA42"></path><path d="M53.4713 58.1671C53.5666 58.5433 53.6713 58.9195 53.7904 59.2861C53.857 59.4957 53.9332 59.7052 54.0142 59.9147C54.0999 60.1337 54.1999 60.3385 54.2999 60.5433L54.3666 60.6766C54.4285 60.8004 54.5094 60.9147 54.6094 61.0099C54.8808 61.2576 55.2428 61.1671 55.5237 60.9909C55.5237 60.9909 56.1618 60.548 56.3523 60.1099C56.3523 60.1099 56.6237 59.7623 56.1856 59.2528C55.6999 58.6909 54.538 57.3909 54.538 57.3909L54.3047 57.129C54.2666 57.0909 54.2047 57.0861 54.157 57.1195C53.9237 57.3099 53.6761 57.4861 53.4189 57.6433C53.3808 57.6671 53.3618 57.7099 53.3713 57.7528C53.3999 57.8956 53.4332 58.0337 53.4666 58.1718L53.4713 58.1671Z" fill="#FBDA42"></path><path d="M50.7525 62.5479C50.9906 62.7765 51.362 62.7336 51.662 62.7146C52.0144 62.6955 52.3668 62.6336 52.7096 62.5336C53.0001 62.4384 53.3763 62.2955 53.562 62.0384C53.7287 61.805 53.7287 61.5003 53.662 61.2336L52.3334 57.905C52.3191 57.867 52.2763 57.8384 52.2334 57.8384L50.8429 57.8479C50.7906 57.8479 50.7429 57.8908 50.7382 57.9431L50.6048 59.2289C50.6048 59.2289 50.4239 60.8431 50.5906 62.2479C50.6096 62.3622 50.662 62.4717 50.7477 62.5527L50.7525 62.5479Z" fill="#FBDA42"></path><path d="M49.6095 57.6622L49.0809 57.586L48.5952 57.5146C48.5571 57.5098 48.519 57.5241 48.4952 57.5527C48.3095 57.7908 47.4857 58.9527 46.9333 61.5051C46.9333 61.5051 46.5095 62.6812 48.0333 62.8717C48.5238 62.9336 48.8571 62.9051 49.0809 62.8384C49.5381 62.7051 49.5571 62.4193 49.5571 62.4193L49.7 57.7717C49.7 57.7193 49.6619 57.6717 49.6095 57.6622Z" fill="#FBDA42"></path><path d="M47.4668 56.7811C47.262 56.5239 46.9287 56.6716 46.9287 56.6716L46.7763 56.7382C46.1382 57.0239 45.5287 57.3668 44.9572 57.762C44.5715 58.0287 44.2096 58.3287 43.881 58.662C43.6001 58.9478 43.1668 59.3049 43.2477 59.743C43.2953 59.9478 43.3906 60.1382 43.5239 60.3001L43.5858 60.3858C43.8144 60.6858 44.081 60.9573 44.381 61.1954C44.681 61.4144 44.9906 61.6144 45.3096 61.8001C46.0715 62.2668 46.181 61.3287 46.181 61.3287C46.6239 58.5954 47.5477 57.4858 47.6763 57.3239C47.7477 57.2239 47.7382 57.0906 47.6525 57.0049L47.4668 56.7859V56.7811Z" fill="#FBDA42"></path><path d="M53.1572 55.1767C52.9572 54.9196 52.6429 54.7815 52.3191 54.8005C51.0191 54.8148 50.1096 54.7624 50.1096 54.7624C50.1096 54.7624 49.6525 54.7243 49.381 54.5719C49.1096 54.4196 48.5525 54.4957 48.1953 54.8672C48.1048 54.9576 48.0286 55.0624 47.9715 55.1767C47.881 55.3576 47.862 55.5624 47.9191 55.7529C47.962 55.9005 48.0286 56.0434 48.1239 56.1672C48.3477 56.5005 48.6905 56.7291 49.0858 56.8148C49.2905 56.8672 49.4953 56.9005 49.7048 56.9196C49.8144 56.9291 49.9382 56.9386 50.062 56.9481C50.1382 56.9481 50.2191 56.9576 50.3001 56.9576C51.1001 56.9624 51.8953 56.9243 52.6905 56.8338C53.0429 56.7957 53.3286 56.5243 53.381 56.1719C53.4334 55.8243 53.3525 55.4672 53.1525 55.1767H53.1572ZM48.5525 56.1005C48.4286 56.1005 48.3286 56.0053 48.3286 55.8815C48.3286 55.8338 48.3429 55.791 48.3667 55.7529C48.3953 55.7148 48.4334 55.6815 48.4763 55.6672L48.5572 55.2576C48.5096 55.2148 48.481 55.1576 48.481 55.091C48.481 54.9672 48.581 54.8672 48.7048 54.8672C48.8286 54.8672 48.9286 54.9672 48.9286 55.091C48.9286 55.1196 48.9239 55.1481 48.9096 55.1767C48.8858 55.2338 48.8382 55.2815 48.7763 55.3005L48.6953 55.71C48.6953 55.71 48.7239 55.7386 48.7334 55.7529C48.7572 55.791 48.7715 55.8338 48.7715 55.8767C48.7715 55.9957 48.6715 56.0957 48.5525 56.0957V56.1005ZM49.7001 55.3434C49.6763 55.3767 49.6429 55.4005 49.6048 55.4148L49.5048 55.9767C49.5525 56.0196 49.581 56.0815 49.581 56.1434C49.581 56.2672 49.481 56.3672 49.3572 56.3672C49.2334 56.3672 49.1334 56.2672 49.1334 56.1434C49.1334 56.0529 49.1905 55.9719 49.2763 55.9386L49.3763 55.3767C49.3286 55.3338 49.3001 55.2719 49.3001 55.21C49.3001 55.2005 49.3001 55.1957 49.3001 55.1862C49.3144 55.0624 49.4239 54.9767 49.5429 54.9862C49.662 54.9957 49.7525 55.11 49.7429 55.2291C49.7429 55.2719 49.7239 55.31 49.6953 55.3434H49.7001ZM50.4001 55.3815L50.3382 56.1434C50.4382 56.2148 50.462 56.3529 50.3953 56.4529C50.3715 56.4862 50.3382 56.5148 50.3001 56.5291C50.2715 56.5386 50.2429 56.5481 50.2096 56.5481C50.0858 56.5481 49.9858 56.4529 49.9858 56.3291C49.9858 56.2434 50.0334 56.1624 50.1096 56.1291L50.1715 55.3672C50.1144 55.3243 50.0763 55.2576 50.0763 55.1862C50.0763 55.0624 50.1763 54.9624 50.3001 54.9624C50.4239 54.9624 50.5239 55.0624 50.5239 55.1862C50.5239 55.2719 50.4763 55.3481 50.4001 55.3862V55.3815ZM51.2239 55.4338L51.1429 56.191C51.2429 56.2624 51.262 56.4053 51.1905 56.5005C51.1191 56.6005 50.9763 56.6196 50.881 56.5481C50.781 56.4767 50.762 56.3338 50.8334 56.2386C50.8572 56.2053 50.8858 56.1815 50.9239 56.1672L51.0048 55.41C50.9477 55.3672 50.9144 55.3005 50.9144 55.2338C50.9144 55.2148 50.9144 55.2005 50.9191 55.1815C50.9429 55.0624 51.062 54.9862 51.1858 55.01C51.2715 55.0291 51.3382 55.0957 51.3572 55.1815C51.3572 55.1957 51.362 55.2148 51.362 55.2338C51.362 55.3196 51.3096 55.4005 51.2286 55.4338H51.2239ZM52.0334 55.5529L51.962 56.1815C52.0572 56.2576 52.0763 56.3957 52.0001 56.4957C51.9239 56.591 51.7858 56.61 51.6858 56.5338C51.5905 56.4576 51.5715 56.3196 51.6477 56.2196C51.6715 56.191 51.7001 56.1672 51.7334 56.1529L51.8048 55.5243C51.7048 55.4481 51.6858 55.31 51.762 55.2148C51.7715 55.2005 51.781 55.191 51.7905 55.1815C51.8334 55.1434 51.8858 55.1243 51.9382 55.1243C51.9905 55.1243 52.0429 55.1434 52.0858 55.1815C52.1763 55.2624 52.1858 55.4005 52.1096 55.4957C52.0905 55.5196 52.062 55.5386 52.0334 55.5529ZM52.8905 56.2624C52.8905 56.3862 52.7905 56.4862 52.6667 56.4815C52.5429 56.4815 52.4429 56.3815 52.4477 56.2576C52.4477 56.1719 52.4953 56.0957 52.5715 56.0624L52.6048 55.6481C52.5477 55.6053 52.5096 55.5386 52.5096 55.4672C52.5096 55.3434 52.6096 55.2434 52.7334 55.2434C52.8572 55.2434 52.9572 55.3434 52.9572 55.4672C52.9572 55.5529 52.9096 55.6291 52.8334 55.6672L52.8001 56.0815C52.8572 56.1243 52.8953 56.191 52.8953 56.2624H52.8905Z" fill="#FBDA42"></path><path d="M52.7953 56.0764L52.8286 55.6621C52.9048 55.624 52.9524 55.5478 52.9524 55.4621C52.9524 55.3383 52.8524 55.2383 52.7286 55.2383C52.6048 55.2383 52.5048 55.3383 52.5048 55.4621C52.5048 55.5335 52.5381 55.6002 52.6 55.643L52.5667 56.0573C52.4572 56.1097 52.4096 56.243 52.4667 56.3573C52.5239 56.4716 52.6524 56.5145 52.7667 56.4573C52.8762 56.4049 52.9239 56.2716 52.8667 56.1573C52.8524 56.124 52.8286 56.0954 52.8 56.0764H52.7953Z" fill="#E0222E"></path><path d="M52.1618 55.3478C52.1618 55.2812 52.1333 55.224 52.0856 55.1812C52.0428 55.1431 51.9952 55.124 51.938 55.124C51.8142 55.124 51.7142 55.224 51.7142 55.3478C51.7142 55.4193 51.7475 55.4812 51.8047 55.524L51.7333 56.1526C51.6237 56.205 51.5713 56.3335 51.6237 56.4478C51.6761 56.5574 51.8047 56.6097 51.919 56.5574C52.0285 56.505 52.0809 56.3764 52.0285 56.2621C52.0142 56.2288 51.9904 56.2002 51.9618 56.1764L52.0333 55.5478C52.1094 55.5097 52.1618 55.4335 52.1618 55.3478Z" fill="#E0222E"></path><path d="M51.3524 55.2291C51.3524 55.2291 51.3525 55.1958 51.3477 55.1768C51.3239 55.0577 51.2048 54.9815 51.081 55.0053C50.9953 55.0244 50.9286 55.091 50.9096 55.1768C50.9096 55.191 50.9048 55.2101 50.9048 55.2291C50.9048 55.3006 50.9382 55.3672 50.9953 55.4053L50.9144 56.1625C50.8001 56.2101 50.7525 56.3434 50.8001 56.4577C50.8477 56.572 50.981 56.6196 51.0953 56.572C51.2096 56.5244 51.2572 56.391 51.2096 56.2768C51.1953 56.2434 51.1715 56.2101 51.1382 56.1863L51.2191 55.4291C51.3001 55.3958 51.3524 55.3149 51.3524 55.2244V55.2291Z" fill="#E0222E"></path><path d="M50.3048 54.9525C50.181 54.9525 50.081 55.0525 50.081 55.1763C50.081 55.2478 50.1144 55.3144 50.1763 55.3573L50.1144 56.1192C50.0048 56.1716 49.9572 56.3049 50.0096 56.4144C50.0477 56.4906 50.1239 56.543 50.2096 56.5382C50.2382 56.5382 50.2715 56.5335 50.3001 56.5192C50.4144 56.4716 50.4667 56.3382 50.4191 56.2287C50.4048 56.1906 50.3763 56.1573 50.3429 56.1335L50.4048 55.3716C50.481 55.3335 50.5287 55.2573 50.5287 55.1716C50.5287 55.0478 50.4287 54.9478 50.3096 54.9478L50.3048 54.9525Z" fill="#E0222E"></path><path d="M49.5238 54.9766C49.4095 54.9766 49.3142 55.0623 49.3 55.1766C49.3 55.1861 49.3 55.1908 49.3 55.2004C49.3 55.267 49.3285 55.3242 49.3761 55.367L49.2761 55.9289C49.1619 55.9718 49.1047 56.1051 49.1523 56.2194C49.1952 56.3337 49.3285 56.3908 49.4428 56.3432C49.5285 56.3099 49.5857 56.2289 49.5857 56.1385C49.5857 56.0718 49.5571 56.0147 49.5095 55.9718L49.6095 55.4099C49.7238 55.367 49.7857 55.2385 49.7428 55.1242C49.7095 55.0337 49.6238 54.9766 49.5285 54.9766H49.5238Z" fill="#E0222E"></path><path d="M48.7048 54.872C48.581 54.872 48.481 54.9719 48.481 55.0958C48.481 55.1577 48.5096 55.2196 48.5572 55.2624L48.4763 55.672C48.4287 55.6862 48.3906 55.7196 48.3668 55.7577C48.3001 55.8624 48.3334 56.0005 48.4382 56.0624C48.5429 56.1291 48.681 56.0958 48.7429 55.991C48.7668 55.9577 48.7763 55.9196 48.7763 55.8767C48.7763 55.8339 48.762 55.791 48.7382 55.7529C48.7287 55.7386 48.7144 55.7243 48.7001 55.71L48.781 55.3005C48.8382 55.2815 48.8858 55.2339 48.9144 55.1767C48.9239 55.1481 48.9334 55.1196 48.9334 55.091C48.9334 54.9672 48.8334 54.8672 48.7096 54.8672L48.7048 54.872Z" fill="#E0222E"></path><path d="M55.4856 46.9005C55.138 46.5482 54.6904 46.1386 54.157 46.3434C53.9808 46.4196 53.8189 46.5196 53.6713 46.6434C53.0523 47.1339 52.4713 47.6672 51.9332 48.2482L51.8475 48.3386C51.5189 48.6958 51.2142 49.0672 50.9094 49.4529C50.7856 49.6101 50.657 49.772 50.538 49.9291C50.457 50.0339 50.3808 50.1434 50.2999 50.2529C50.0999 50.5291 49.9094 50.8101 49.7285 51.0958C49.557 51.3624 49.3856 51.6434 49.3523 51.9624C49.3189 52.4005 49.5332 52.8196 49.9094 53.0482C50.0285 53.1196 50.1618 53.172 50.2999 53.1958C50.5856 53.2529 50.8856 53.2148 51.1523 53.091C51.4808 52.9339 51.7332 52.6577 51.9761 52.391L55.5427 48.4577C55.7332 48.2482 55.938 48.0148 55.9427 47.7243C55.9523 47.4005 55.7094 47.1339 55.4856 46.9053V46.9005Z" fill="#FBDA42"></path><path d="M57.7858 57.029L57.6572 56.8814L56.0048 55.1767L55.4191 54.5719L54.8905 54.029L53.5715 52.6671C53.4667 52.5528 53.3334 52.4719 53.181 52.4433C52.9524 52.4243 52.7238 52.5195 52.581 52.7005C52.4191 52.8766 52.2667 53.0624 52.1191 53.2576C52.0096 53.4052 51.8429 53.5576 51.9 53.7624C51.9286 53.8386 51.9715 53.9052 52.0286 53.9576L52.0953 54.0338C52.1381 54.0814 52.1858 54.129 52.2334 54.1671C52.3239 54.2386 52.4381 54.2766 52.5572 54.2671C52.6667 54.2481 52.781 54.2481 52.8905 54.2671C53.1238 54.31 53.3477 54.4052 53.5429 54.5481L53.5715 54.5719C53.6572 54.6338 53.7334 54.71 53.8048 54.7862C53.9143 54.91 54.0143 55.0386 54.1048 55.1767C54.2762 55.4147 54.381 55.6909 54.4143 55.9814C54.4143 56.0052 54.4239 56.029 54.4429 56.0481L56.8143 58.6243L57.1286 58.9671C57.1905 59.0338 57.2953 59.0433 57.3667 58.9909C57.5858 58.8386 57.7667 58.6433 57.9096 58.4195C57.9096 58.4195 58.3667 57.6909 57.7762 57.029H57.7858Z" fill="#FBDA42"></path><path d="M59.0048 54.129V54.029C58.9667 53.3529 58.3762 52.9767 58.3762 52.9767C58.3762 52.9767 56.2619 51.3433 55.5239 50.729C55.3334 50.5719 55.081 50.3957 54.8191 50.41C54.7524 50.41 54.6858 50.4338 54.6239 50.4719C54.5429 50.5386 54.4715 50.6148 54.4096 50.6957L53.9715 51.1719L53.781 51.3814C53.7524 51.41 53.7239 51.4386 53.7 51.4719C53.6905 51.4909 53.6762 51.5052 53.6667 51.5243C53.5858 51.6481 53.5762 51.8052 53.6381 51.9386C53.7096 52.0814 53.8762 52.1957 53.9905 52.31C54.2905 52.61 54.581 52.91 54.881 53.2148C55.1477 53.4862 55.4143 53.7576 55.681 54.0338C55.8096 54.1624 55.9334 54.2957 56.062 54.4243L56.2143 54.5767L56.8096 55.1814L57.2239 55.6052C57.481 55.8624 57.7334 56.1243 58 56.3767C58.1239 56.4957 58.2762 56.629 58.4572 56.6338C58.6143 56.6338 58.6905 56.4386 58.7286 56.2814C58.8239 55.9195 58.9 55.5529 58.9477 55.1814C58.9762 54.9481 58.9953 54.7433 59.0048 54.5767C59.0143 54.3005 59.0096 54.1338 59.0096 54.1338L59.0048 54.129Z" fill="#FBDA42"></path><path d="M46.9952 51.8625C46.9761 51.8149 46.9571 51.772 46.9333 51.7291C46.9095 51.6863 46.8904 51.6434 46.8666 51.6006C46.8428 51.5577 46.8238 51.5196 46.8 51.4815C46.7761 51.4434 46.7571 51.4053 46.7333 51.372C46.7095 51.3387 46.6904 51.3053 46.6666 51.2672C46.6428 51.2291 46.6238 51.2053 46.6047 51.1768L46.5428 51.0958C46.5238 51.072 46.5095 51.0482 46.4904 51.0244L46.4428 50.9672L46.4047 50.9196L46.3571 50.8672C46.3381 50.8434 46.3142 50.8196 46.2904 50.8006C46.0333 50.6244 45.6333 50.7196 45.3619 50.7958C45.0285 50.8863 44.6952 50.9768 44.3666 51.072C43.8285 51.2244 43.2952 51.4006 42.7666 51.5815C42.6238 51.6339 42.4809 51.6815 42.3428 51.7434C42.2047 51.8053 42.0523 51.8815 41.9047 51.9482C41.7238 52.0196 41.5571 52.1196 41.4095 52.2434C41.3428 52.3101 41.2904 52.3815 41.2476 52.4672C41.1761 52.6149 41.1238 52.7672 41.1047 52.9291C41.0952 52.9958 41.0857 53.0577 41.0809 53.1196C41.0476 53.6101 41.0476 54.1006 41.0809 54.591C41.0904 54.691 41.0952 54.7529 41.0952 54.7529C41.0952 54.7529 41.1476 55.3672 41.7142 54.9815C41.8666 54.872 42.0142 54.7529 42.1523 54.6244C42.3285 54.4672 42.5 54.3101 42.6809 54.1625C42.919 53.9625 43.1761 53.7815 43.4381 53.6149C43.8 53.3863 44.1761 53.1815 44.5619 53.0053C44.8142 52.8863 45.0666 52.7815 45.3238 52.672C45.5238 52.591 45.7238 52.5101 45.9285 52.4291C46.1809 52.3339 46.4428 52.2529 46.7047 52.1958C46.8142 52.172 46.9571 52.1339 47.0047 52.0196C47.0238 51.9672 47.0238 51.9053 46.9952 51.8577V51.8625Z" fill="#FBDA42"></path><path d="M49.5904 45.1193C49.5047 45.1098 49.419 45.105 49.3333 45.1098C49.2524 45.1098 49.1666 45.1098 49.0809 45.1145C48.7428 45.1336 48.4095 45.1717 48.0809 45.2383C47.8476 45.2717 47.619 45.3241 47.3952 45.3907C47.2047 45.4479 47.0143 45.5145 46.8285 45.5955C46.6047 45.686 46.4095 45.8241 46.2476 46.0003C46.2 46.0526 46.1619 46.1098 46.1285 46.1717C46.1285 46.1717 46.119 46.1955 46.1143 46.205C45.8857 46.705 45.6952 47.2241 45.5428 47.7526C45.4904 47.9241 45.4476 48.0907 45.4095 48.2574C45.2714 48.8193 45.1666 49.386 45.1047 49.9622L45.4095 49.9336L46.6952 49.8098L46.7952 49.5288C46.9428 49.1764 47.1143 48.8383 47.3143 48.5145C47.6571 47.9479 48.0333 47.405 48.4428 46.886C48.5857 46.7003 48.7285 46.5241 48.8809 46.3526C48.9809 46.2383 49.0762 46.1241 49.1714 46.0003C49.2238 45.9383 49.2714 45.8717 49.319 45.8098C49.3666 45.7479 49.8285 45.1526 49.6047 45.1193H49.5904Z" fill="#FBDA42"></path><path d="M44.8714 46.6338C44.5857 46.829 44.3285 47.029 44.0952 47.2338C43.3999 47.81 42.8095 48.5005 42.338 49.2719C42.1428 49.6005 41.9714 49.9433 41.838 50.3005C41.7571 50.5147 41.6904 50.7338 41.638 50.9576C41.6285 51.0195 41.6714 51.0766 41.7333 51.0814C41.7476 51.0814 41.7619 51.0814 41.7761 51.0814L43.8904 50.3052L44.038 50.2528C44.0571 50.1147 44.0809 49.9243 44.1238 49.6957C44.219 49.1386 44.3428 48.5862 44.4999 48.0433C44.4999 48.0433 44.5999 47.6862 44.7619 47.2385C44.819 47.0814 44.8809 46.91 44.9523 46.7433C44.9523 46.7243 44.9571 46.7052 44.9619 46.6909C44.9619 46.6624 44.9428 46.6386 44.9142 46.6338C44.9047 46.6338 44.8904 46.6338 44.8809 46.6433L44.8714 46.6338Z" fill="#FBDA42"></path><path d="M49.5905 53.8194C48.1285 52.2623 46.7476 52.8289 46.7 52.8527C44.8762 53.4956 43.419 54.5432 42.6476 55.1813C42.2762 55.4861 42.0619 55.6956 42.0333 55.7242H42.0285L41.9905 55.7527C41.8619 55.8575 41.4857 56.2051 41.5476 56.6432C41.6381 57.2765 41.8 57.8575 42.2 58.2908C42.4 58.5385 42.7619 58.5813 43.0143 58.3813H43.019C43.9809 57.4004 45.1809 56.6623 45.9762 56.2575C46.0238 56.2337 46.5333 55.9956 46.8524 55.8908C46.9428 55.867 47.0238 55.8242 47.0905 55.7623C47.1381 55.7242 47.1619 55.6623 47.1619 55.6004C47.1619 55.4623 47.1619 55.3242 47.1809 55.1861C47.2381 54.6765 47.4285 54.4861 47.4285 54.4861C47.9905 53.8099 49.1238 53.9099 49.5571 53.9146C49.5857 53.9146 49.6095 53.8956 49.6143 53.867C49.6143 53.8527 49.6143 53.8337 49.6 53.8242L49.5905 53.8194Z" fill="#FBDA42"></path><path d="M59.6047 54.029C59.6047 53.9862 59.6047 53.9481 59.5951 53.9052C59.5809 53.7576 59.5475 53.61 59.4951 53.4671C59.4285 53.3385 59.3475 53.2195 59.2475 53.1147C59.2285 53.0909 59.2094 53.0671 59.1999 53.0385C59.1904 52.9528 59.1951 52.8671 59.2142 52.7862C59.2237 52.6862 59.2332 52.5814 59.2332 52.4814C59.2428 52.2766 59.2428 52.0719 59.2332 51.8671C59.2142 51.3243 59.119 50.7909 58.9618 50.2719C58.7761 49.6671 58.4618 49.11 58.038 48.6338C57.7094 48.2814 57.3237 47.9909 56.8999 47.7719C56.8094 47.7243 56.7094 47.71 56.619 47.6624C56.5475 47.61 56.4904 47.5385 56.4618 47.4528C56.419 47.3528 56.3713 47.2624 56.3142 47.1671C55.9475 46.5385 55.3809 45.8528 54.5999 45.8005C54.2904 45.7909 53.9856 45.8671 53.719 46.0243C53.719 46.0243 54.1047 44.6624 51.7237 44.5528C51.438 44.5528 51.157 44.6338 50.9142 44.7909C50.7047 44.9243 50.5094 45.0814 50.3285 45.2576C50.3237 45.2195 50.3142 45.1766 50.3047 45.1385C50.2809 45.0528 50.2523 44.9671 50.2094 44.8862C50.1047 44.6957 49.9094 44.5671 49.6904 44.5433C49.5285 44.5147 49.3618 44.5147 49.1999 44.5338L49.0809 44.5481C48.6713 44.5814 48.2618 44.6385 47.857 44.7147C47.438 44.8005 47.0285 44.929 46.6285 45.0909C46.4428 45.1671 46.257 45.2481 46.0713 45.3433L46.0142 45.3719C45.8047 45.4766 45.5999 45.5909 45.3999 45.71C45.2428 45.8004 45.0904 45.8957 44.938 45.9957C44.638 46.1909 44.3475 46.4005 44.0618 46.6147C43.938 46.7052 43.819 46.8005 43.6951 46.8909C43.557 47.0005 43.4237 47.1147 43.2951 47.2243C42.938 47.5433 42.6142 47.8909 42.3285 48.2719C42.1523 48.5052 41.9904 48.7481 41.8428 49.0005C41.7999 49.0766 41.757 49.1528 41.719 49.2338C41.438 49.7624 41.2237 50.3243 41.0856 50.9052C41.0332 51.129 40.9904 51.3528 40.9618 51.5814C40.938 51.7957 40.8761 52.0005 40.7713 52.1909C40.6332 52.4385 40.5428 52.71 40.4951 52.9909C40.457 53.2004 40.4332 53.41 40.4094 53.6195C40.3951 53.7385 40.3904 53.8528 40.3904 53.9719C40.3904 54.1766 40.4094 54.3814 40.4428 54.5814C40.4761 54.7624 40.5237 54.9433 40.5856 55.1147C40.5904 55.1338 40.5999 55.1481 40.6047 55.1671C40.6713 55.3481 40.738 55.51 40.9237 55.6052C40.9809 55.6243 41.0332 55.6528 41.0809 55.6814C41.1047 55.6957 41.119 55.7195 41.1285 55.7433C41.157 55.8481 41.1475 55.9624 41.0951 56.0576C40.9904 56.2814 40.9475 56.5338 40.9761 56.7814C41.0142 57.0624 41.0856 57.3433 41.1904 57.61C41.2904 57.8909 41.4142 58.1624 41.5618 58.4195C41.6475 58.61 41.7809 58.7766 41.9475 58.8957C42.1618 59.0338 42.3999 59.0576 42.638 59.0957C42.6713 59.0957 42.6999 59.1195 42.719 59.1481C42.7285 59.1766 42.7285 59.2052 42.719 59.2338C42.6809 59.4433 42.6666 59.6576 42.6856 59.8671C42.7142 60.1195 42.8094 60.3576 42.9618 60.5576C42.9618 60.5576 43.9094 61.7624 45.1951 62.4052C45.3475 62.4671 45.5047 62.5005 45.6713 62.5005C45.8047 62.5052 45.9428 62.4766 46.0618 62.4195C46.1285 62.3862 46.1904 62.3385 46.238 62.2862C46.2809 62.2385 46.357 62.1433 46.3951 62.2624C46.3999 62.2909 46.4047 62.3195 46.3999 62.3481C46.3999 62.7862 46.8332 63.0719 47.1904 63.2385C47.3666 63.3195 47.557 63.3814 47.7475 63.4195C47.9332 63.4481 48.119 63.4671 48.3047 63.4719C48.5618 63.4862 48.819 63.4719 49.0761 63.4195C49.1999 63.3957 49.319 63.3671 49.438 63.3243C49.5237 63.2957 49.6094 63.2624 49.6951 63.229C49.7809 63.1957 49.8761 63.1433 49.9618 63.0957C50.0237 63.0576 50.0904 63.0243 50.1618 63.0052C50.2047 62.9957 50.2523 63.0004 50.2904 63.0195L50.3618 63.0528C50.4428 63.0814 50.5237 63.1052 50.6094 63.1243C50.7904 63.1766 50.9761 63.2147 51.1666 63.2433C51.5951 63.3147 52.0285 63.3147 52.457 63.2433C52.9428 63.1624 53.3951 62.9433 53.757 62.6147C53.9856 62.4005 54.1761 62.1481 54.3237 61.8671C54.3237 61.8671 56.6856 61.7624 57.0713 59.5814C57.0713 59.5814 57.219 59.5719 57.2237 59.5719C57.3618 59.5481 57.4951 59.5005 57.619 59.4385C58.1237 59.1814 58.4666 58.6814 58.7094 58.1862C58.919 57.7576 59.0713 57.3004 59.1618 56.829C59.2666 56.2766 59.3761 55.7243 59.4809 55.1671V55.1385C59.5237 54.9481 59.557 54.7576 59.5761 54.5671C59.5999 54.3862 59.6047 54.2005 59.5951 54.0195L59.6047 54.029ZM56.6332 48.2909C56.6666 48.2528 56.7237 48.2433 56.7666 48.2719C56.919 48.3576 57.0618 48.4576 57.1951 48.5671C57.4475 48.7719 57.6761 49.0052 57.8761 49.2624C58.1951 49.6766 58.4332 50.1528 58.5618 50.6624C58.6142 50.8624 58.6475 51.0671 58.6666 51.2719C58.6809 51.4338 58.6856 51.6005 58.6809 51.7671C58.6761 51.8766 58.6666 51.9862 58.6475 52.0957C58.6475 52.1338 58.6094 52.1624 58.5713 52.1576C58.557 52.1576 58.5475 52.1528 58.538 52.1433L55.5761 49.7957C55.4904 49.7243 55.4761 49.6005 55.5475 49.5147C55.5475 49.5147 55.5475 49.5147 55.5523 49.51L56.6332 48.2957V48.2909ZM53.6761 46.6433C53.819 46.5195 53.9856 46.4195 54.1618 46.3433C54.6951 46.1385 55.138 46.5481 55.4904 46.9004C55.7142 47.129 55.957 47.3909 55.9475 47.7147C55.9428 48.0004 55.738 48.2385 55.5475 48.4481L51.9809 52.3862C51.738 52.6576 51.4856 52.929 51.157 53.0862C50.8904 53.21 50.5951 53.2481 50.3047 53.1909C50.1666 53.1624 50.038 53.1147 49.9142 53.0433C49.538 52.8147 49.3237 52.3957 49.357 51.9576C49.3904 51.6433 49.5618 51.3576 49.7332 51.0909C49.9142 50.8052 50.1094 50.5243 50.3047 50.2481C50.3809 50.1385 50.4618 50.029 50.5428 49.9243C50.6666 49.7624 50.7904 49.6052 50.9142 49.4481C51.2142 49.0719 51.5237 48.7005 51.8523 48.3338L51.938 48.2433C52.4761 47.6671 53.057 47.1338 53.6761 46.6433ZM50.3047 46.0338C50.4475 45.8814 50.5285 45.8005 50.5285 45.8005L50.7904 45.5481C50.8285 45.5052 50.8666 45.4671 50.9094 45.429C51.0047 45.3433 51.1094 45.2719 51.2237 45.2195C51.4951 45.0957 51.7951 45.0576 52.0856 45.1147C52.4285 45.1671 52.7523 45.3052 53.0237 45.5195C53.0904 45.5671 53.1475 45.6338 53.1856 45.71C53.2618 45.8814 53.1332 46.0481 53.019 46.1624C52.8809 46.2957 52.7428 46.429 52.6047 46.5671C52.3332 46.8385 52.0761 47.1147 51.8285 47.4052C51.5142 47.7624 51.2094 48.129 50.9142 48.5004C50.7142 48.7481 50.5142 49.0005 50.3237 49.2528L50.3047 49.2766C49.9332 49.7624 49.5713 50.2576 49.219 50.7624C49.0761 50.9671 48.9332 51.1671 48.7951 51.3766C48.6428 51.6005 48.338 51.7957 48.057 51.6957C47.919 51.6243 47.7951 51.529 47.6951 51.41C47.5666 51.2671 47.4428 51.1195 47.3285 50.9671C47.2332 50.8624 47.1618 50.7385 47.119 50.6052C47.0713 50.4004 47.119 50.1814 47.238 50.01C48.1332 48.5957 49.157 47.2671 50.3094 46.0528L50.3047 46.0338ZM45.538 47.7528C45.6904 47.2243 45.8809 46.7052 46.1094 46.2052L46.1237 46.1766C46.157 46.11 46.1999 46.0481 46.2428 45.9957C46.4047 45.8195 46.6047 45.6814 46.8237 45.5909C47.0094 45.51 47.1951 45.4433 47.3904 45.3862C47.6142 45.3195 47.8428 45.2671 48.0761 45.2338C48.4047 45.1671 48.7428 45.1243 49.0761 45.11C49.1618 45.11 49.2428 45.1052 49.3285 45.1052C49.4142 45.1052 49.4999 45.1052 49.5856 45.1147C49.8094 45.1481 49.3523 45.7338 49.2999 45.8052C49.2475 45.8766 49.1999 45.9338 49.1523 45.9957C49.057 46.1147 48.9618 46.2338 48.8618 46.3481C48.7094 46.5195 48.5666 46.7004 48.4237 46.8814C48.0142 47.4004 47.638 47.9433 47.2999 48.51C47.0999 48.8338 46.9285 49.1719 46.7809 49.5243L46.6809 49.8052L45.3951 49.929L45.0904 49.9576C45.157 49.3814 45.257 48.8147 45.3951 48.2528C45.4332 48.0862 45.4809 47.9195 45.5285 47.7481L45.538 47.7528ZM41.6285 50.9481C41.6809 50.7243 41.7475 50.5052 41.8285 50.2909C41.9666 49.9338 42.1332 49.5909 42.3285 49.2624C42.7999 48.4909 43.3904 47.8004 44.0856 47.2243C44.3237 47.0243 44.5809 46.8195 44.8618 46.6243C44.8856 46.6052 44.919 46.6147 44.9332 46.6385C44.9428 46.6481 44.9428 46.6624 44.9428 46.6766C44.9428 46.6957 44.9428 46.71 44.9332 46.729C44.8666 46.8957 44.7999 47.0624 44.7428 47.2243C44.5809 47.6671 44.4809 48.029 44.4809 48.029C44.3237 48.5719 44.1951 49.1243 44.1047 49.6814C44.0666 49.91 44.038 50.1005 44.019 50.2385L43.8713 50.2909L41.757 51.0671C41.6999 51.0862 41.638 51.0528 41.619 50.9909C41.619 50.9766 41.6142 50.9576 41.619 50.9433L41.6285 50.9481ZM41.0951 54.7481C41.0951 54.7481 41.0904 54.6909 41.0809 54.5862C41.0475 54.0957 41.0475 53.6052 41.0809 53.1147C41.0809 53.0528 41.0951 52.9862 41.1047 52.9243C41.1285 52.7624 41.1761 52.6052 41.2475 52.4624C41.2904 52.3814 41.3428 52.3052 41.4094 52.2385C41.557 52.1147 41.7237 52.0147 41.9047 51.9433C42.0523 51.8766 42.1951 51.8052 42.3428 51.7385C42.4904 51.6719 42.6237 51.629 42.7666 51.5766C43.2951 51.3957 43.8285 51.2195 44.3666 51.0671C44.6999 50.9719 45.0332 50.8814 45.3618 50.7909C45.6332 50.7147 46.0285 50.6195 46.2904 50.7957C46.3142 50.8147 46.338 50.8338 46.357 50.8624L46.4047 50.9147L46.4428 50.9624L46.4904 51.0195C46.4904 51.0195 46.5285 51.0671 46.5428 51.0909L46.6047 51.1719C46.6237 51.2052 46.6475 51.2338 46.6666 51.2624C46.6856 51.2909 46.7142 51.329 46.7332 51.3671C46.7523 51.4052 46.7809 51.4385 46.7999 51.4766C46.819 51.5147 46.8475 51.5576 46.8666 51.5957C46.8856 51.6338 46.9094 51.6814 46.9332 51.7243C46.957 51.7671 46.9761 51.81 46.9951 51.8576C47.0237 51.91 47.0237 51.9671 46.9999 52.0243C46.9523 52.1338 46.8094 52.1766 46.6999 52.2005C46.4332 52.2576 46.1761 52.3385 45.9237 52.4338C45.719 52.5147 45.519 52.5957 45.319 52.6766C45.0618 52.7814 44.8094 52.8862 44.557 53.01C44.1713 53.1862 43.7951 53.3909 43.4332 53.6195C43.1713 53.7862 42.919 53.9671 42.6761 54.1671C42.4951 54.3147 42.3237 54.4719 42.1475 54.629C42.0094 54.7576 41.8666 54.8766 41.7094 54.9862C41.1475 55.3671 41.0999 54.7528 41.0999 54.7528L41.0951 54.7481ZM43.0047 58.3766C42.7523 58.5766 42.3904 58.5338 42.1904 58.2862C41.7951 57.8528 41.6332 57.2719 41.538 56.6385C41.4713 56.2005 41.8523 55.8624 41.9809 55.7481L42.019 55.7195H42.0237C42.0523 55.6909 42.2666 55.4814 42.638 55.1766C43.4142 54.5385 44.8666 53.4909 46.6904 52.8481C46.738 52.829 48.119 52.2624 49.5809 53.8147C49.5999 53.8338 49.5999 53.8671 49.5809 53.8909C49.5713 53.9004 49.557 53.9052 49.5428 53.9052C49.1094 53.9004 47.9761 53.8005 47.4142 54.4766C47.4142 54.4766 47.2285 54.6671 47.1666 55.1766C47.1523 55.3147 47.1475 55.4528 47.1475 55.5909C47.1475 55.6528 47.119 55.71 47.0761 55.7528C47.0094 55.8147 46.9237 55.8576 46.838 55.8814C46.519 55.9909 46.0047 56.229 45.9618 56.2481C45.1666 56.6528 43.9666 57.3957 43.0047 58.3719H42.9951L43.0047 58.3766ZM46.1856 61.3195C46.1856 61.3195 46.0761 62.2528 45.3094 61.7862C44.9904 61.6005 44.6809 61.4004 44.3809 61.1814C44.0809 60.9481 43.8142 60.6766 43.5856 60.3719L43.5237 60.2862C43.3904 60.1243 43.2951 59.9338 43.2475 59.729C43.1666 59.2909 43.5999 58.9338 43.8809 58.6481C44.2094 58.3147 44.5713 58.0147 44.957 57.7481C45.5332 57.3528 46.1428 57.01 46.7761 56.7243L46.9285 56.6576C46.9285 56.6576 47.2618 56.5147 47.4666 56.7671L47.657 56.9862C47.7428 57.0719 47.7523 57.2052 47.6809 57.3052C47.557 57.4766 46.638 58.5862 46.1856 61.3147V61.3195ZM49.5475 62.41C49.5475 62.41 49.5285 62.6957 49.0713 62.829C48.8475 62.8957 48.5142 62.9243 48.0237 62.8624C46.5047 62.6719 46.9237 61.4957 46.9237 61.4957C47.4809 58.9385 48.2999 57.7814 48.4856 57.5433C48.5094 57.5147 48.5475 57.5005 48.5856 57.5052L49.0713 57.5766L49.5999 57.6528C49.6523 57.6624 49.6951 57.71 49.6904 57.7624L49.5475 62.41ZM50.2904 56.9481C50.2094 56.9481 50.1285 56.9433 50.0523 56.9385C49.9237 56.9338 49.8047 56.9195 49.6951 56.91C49.4856 56.8909 49.2809 56.8576 49.0761 56.8052C48.6856 56.7243 48.3428 56.4909 48.1142 56.1576C48.0237 56.0338 47.9523 55.8909 47.9094 55.7433C47.857 55.5528 47.8761 55.3481 47.9618 55.1671C48.019 55.0528 48.0951 54.9481 48.1856 54.8576C48.5428 54.4862 49.1047 54.4147 49.3713 54.5624C49.638 54.71 50.0999 54.7528 50.0999 54.7528C50.0999 54.7528 51.0047 54.8052 52.3094 54.7909C52.6332 54.7719 52.9475 54.91 53.1475 55.1671C53.3475 55.4576 53.4237 55.8147 53.3713 56.1624C53.319 56.5147 53.0332 56.7862 52.6809 56.8243C51.8904 56.9147 51.0951 56.9576 50.2999 56.9528H50.2904V56.9481ZM53.5523 62.0195C53.3713 62.2766 52.9951 62.4195 52.6999 62.5147C52.3618 62.6147 52.0094 62.6766 51.6523 62.6957C51.3475 62.7195 50.9856 62.7624 50.7428 62.529C50.657 62.4481 50.5999 62.3433 50.5856 62.2243C50.419 60.8195 50.5999 59.2052 50.5999 59.2052L50.7332 57.9195C50.738 57.8671 50.7809 57.8243 50.838 57.8243L52.2285 57.8147C52.2713 57.8147 52.3094 57.8385 52.3285 57.8814L53.657 61.21C53.7285 61.4814 53.7285 61.7862 53.5618 62.0195H53.5523ZM56.3428 60.1004C56.157 60.5338 55.5237 60.9814 55.5237 60.9814C55.238 61.1576 54.8809 61.2481 54.6094 61.0005C54.5094 60.9052 54.4285 60.7909 54.3666 60.6671L54.2999 60.5385C54.1999 60.329 54.0999 60.1243 54.0142 59.91C53.9285 59.6957 53.857 59.4957 53.7904 59.2814C53.6713 58.9147 53.5666 58.5385 53.4713 58.1624C53.438 58.0243 53.4047 57.8862 53.3713 57.7433C53.3618 57.7005 53.3809 57.6528 53.419 57.6338C53.6761 57.4814 53.9237 57.3052 54.157 57.11C54.1999 57.0766 54.2618 57.0814 54.3047 57.1195L54.5428 57.3862C54.5428 57.3862 55.7047 58.6862 56.1904 59.2481C56.6237 59.7528 56.3475 60.1004 56.3475 60.1004H56.3428ZM57.8999 58.4005C57.7618 58.6243 57.5761 58.8195 57.357 58.9719C57.2856 59.029 57.1809 59.0195 57.119 58.9481L56.8047 58.6052L54.4332 56.0338C54.4332 56.0338 54.4142 55.9957 54.4094 55.9766C54.3761 55.6862 54.2666 55.41 54.0951 55.1766C54.0047 55.0385 53.9047 54.91 53.7951 54.7862C53.7237 54.7052 53.6475 54.6338 53.5618 54.5719L53.5332 54.5481C53.338 54.4052 53.119 54.31 52.8809 54.2671C52.7713 54.2481 52.657 54.2481 52.5475 54.2671C52.4332 54.2766 52.3142 54.2385 52.2237 54.1671C52.1713 54.129 52.1237 54.0814 52.0856 54.0338L52.019 53.9576C51.9618 53.9052 51.919 53.8385 51.8904 53.7624C51.8332 53.5528 51.9904 53.4052 52.1094 53.2576C52.257 53.0671 52.4094 52.8814 52.5713 52.7004C52.7142 52.5195 52.9428 52.4243 53.1713 52.4433C53.3237 52.4719 53.4618 52.5528 53.5618 52.6671L54.8809 54.029L55.4094 54.5719L55.9951 55.1766L57.6475 56.8814L57.7761 57.029C58.3618 57.6909 57.9047 58.41 57.9047 58.41L57.8999 58.4005ZM58.9809 54.5576C58.9713 54.7243 58.9523 54.929 58.9237 55.1624C58.8761 55.5338 58.8047 55.9005 58.7047 56.2624C58.6713 56.4243 58.5951 56.6195 58.4332 56.6147C58.2523 56.6147 58.0999 56.4766 57.9761 56.3576C57.7142 56.1052 57.457 55.8433 57.1999 55.5862L56.7856 55.1624L56.1904 54.5576L56.038 54.4052C55.9094 54.2766 55.7856 54.1433 55.657 54.0147C55.3904 53.7433 55.1237 53.4719 54.857 53.1957C54.5618 52.8909 54.2666 52.5909 53.9666 52.2909C53.857 52.1814 53.6904 52.0624 53.6142 51.9195C53.5523 51.7862 53.5618 51.629 53.6428 51.5052C53.6523 51.4862 53.6666 51.4719 53.6761 51.4528C53.6999 51.4195 53.7285 51.3909 53.757 51.3624L53.9475 51.1528L54.3809 50.6766C54.4428 50.5957 54.5142 50.5195 54.5951 50.4528C54.6523 50.4147 54.719 50.3957 54.7904 50.3909C55.0523 50.3719 55.3047 50.5481 55.4951 50.71C56.238 51.3243 58.3475 52.9576 58.3475 52.9576C58.3475 52.9576 58.938 53.3338 58.9761 54.01V54.11C58.9761 54.11 58.9951 54.2814 58.9761 54.5576H58.9809Z" fill="#E0222E"></path><path d="M30.7095 11.3384L31.1143 12.0717L28.9 13.2955L29.2476 13.9289L31.2143 12.8431L31.6143 13.5717L29.6476 14.6574L30.1333 15.5336L29.2714 16.0098L27.6333 13.0431L30.7095 11.3431V11.3384Z" fill="black"></path><path d="M36.3001 12.6237L35.762 12.1523L33.8286 12.938L33.7715 13.6523L32.7905 14.0523L33.1334 10.2571L34.3905 9.74756L37.281 12.2285L36.3048 12.6237H36.3001ZM33.8953 12.1142L35.1334 11.6095L34.0143 10.6333L33.8953 12.1142Z" fill="black"></path><path d="M41.3476 10.1764L40.7619 7.81927L41.7095 7.58594L42.5238 10.8764L41.1286 11.224L38.6048 9.34784L39.1905 11.705L38.2381 11.9431L37.4238 8.6526L38.8238 8.30499L41.3476 10.1812V10.1764Z" fill="black"></path><path d="M46.1189 6.96208L50.1998 6.79541L50.2332 7.62874L48.6856 7.69065L48.7903 10.243L47.8094 10.2811L47.7046 7.72874L46.1522 7.79065L46.1189 6.95731V6.96208Z" fill="black"></path><path d="M51.3905 8.49526C51.4857 7.37622 52.3143 6.78098 53.7381 6.90479C55.1572 7.0286 55.8762 7.75717 55.781 8.87145C55.6857 9.9905 54.8524 10.5953 53.4334 10.4715C52.0096 10.3476 51.2953 9.61907 51.3905 8.49526ZM54.7572 8.78574C54.8096 8.20003 54.5048 7.80955 53.6667 7.73812C52.8334 7.66669 52.4667 7.9905 52.4191 8.58574C52.3667 9.18098 52.6762 9.57145 53.5048 9.64288C54.3381 9.71431 54.7096 9.38098 54.7619 8.7905L54.7572 8.78574Z" fill="black"></path><path d="M61.6239 8.36681L59.6334 9.38109L60.881 11.6763L59.6763 11.4049L58.8096 9.8049L57.862 10.2859L57.7096 10.9573L56.7524 10.7382L57.5001 7.42871L58.462 7.643L58.1286 9.12871L60.1953 8.03823L61.6334 8.36204L61.6239 8.36681Z" fill="black"></path><path d="M66.3286 9.99553L66.0667 10.7193L63.6858 9.85744L63.5 10.367L65.7905 11.1955L65.5286 11.9193L63.2381 11.0908L63.0524 11.6003L65.4334 12.4622L65.1715 13.186L61.8667 11.9908L63.0191 8.80029L66.3238 9.99553H66.3286Z" fill="black"></path><path d="M69.7618 14.3526L70.8761 12.1907L71.7476 12.6383L70.1904 15.6526L68.9095 14.9907L68.2476 11.9097L67.1333 14.0716L66.2571 13.6193L67.8142 10.605L69.0999 11.2669L69.7618 14.3478V14.3526Z" fill="black"></path><path d="M27.3953 85.4763C27.2476 85.7192 27.3953 86.0239 28.1572 86.4858C28.8572 86.9049 29.0953 86.9001 29.2048 86.7192C29.3334 86.5097 29.2238 86.3906 28.3953 85.8144C27.2667 85.024 26.8905 84.4763 27.2762 83.8335C27.6429 83.2287 28.4619 83.3478 29.4667 83.9525C30.5857 84.6239 31.0238 85.3525 30.6619 86.0144L29.781 85.4859C29.9334 85.2287 29.7143 84.962 29.0619 84.5716C28.4429 84.2001 28.2429 84.2192 28.1476 84.3763C28.0381 84.5573 28.1476 84.6954 28.8953 85.2335C29.9143 85.9573 30.5619 86.4478 30.1048 87.2097C29.6572 87.9525 28.8381 87.7573 27.8048 87.1335C26.6286 86.4239 26.0905 85.7382 26.5096 84.9478L27.3905 85.4811L27.3953 85.4763Z" fill="black"></path><path d="M31.5238 87.1909C31.9714 86.1576 32.9428 85.8623 34.2571 86.429C35.5667 86.9957 36.0143 87.9147 35.5714 88.9433C35.1238 89.9766 34.1428 90.2814 32.8333 89.7147C31.519 89.148 31.0762 88.229 31.5238 87.1909ZM34.6286 88.5385C34.8619 87.9957 34.6952 87.5338 33.9238 87.1957C33.1571 86.8623 32.7047 87.0576 32.4714 87.6004C32.2333 88.1481 32.4047 88.6147 33.1667 88.948C33.9333 89.2814 34.3952 89.0814 34.6286 88.5338V88.5385Z" fill="black"></path><path d="M39.3049 88.2194C40.5096 88.5575 41.043 89.2623 40.9049 90.129L39.9001 89.848C39.9191 89.529 39.6858 89.1909 39.0811 89.0242C38.3811 88.829 37.9477 89.0766 37.7906 89.648C37.6287 90.2242 37.8763 90.6671 38.5715 90.8623C39.1763 91.029 39.5525 90.8623 39.7001 90.5718L40.7049 90.8528C40.3715 91.6718 39.5477 92.0004 38.343 91.6671C37.0334 91.3004 36.4858 90.4909 36.7953 89.3718C37.1096 88.2575 37.9953 87.8528 39.3049 88.2194Z" fill="black"></path><path d="M43.3953 89.2289L42.7953 92.5623L41.8286 92.3861L42.4286 89.0527L43.3953 89.2289Z" fill="black"></path><path d="M44.419 91.1481C44.5095 90.029 45.3333 89.4338 46.7571 89.5481C48.1762 89.6624 48.9 90.3909 48.8047 91.5052C48.7143 92.6243 47.8857 93.229 46.4666 93.1147C45.0428 93.0005 44.3238 92.2719 44.419 91.1481ZM47.7857 91.4243C47.8333 90.8386 47.5285 90.4528 46.6905 90.3814C45.8571 90.3148 45.4952 90.6433 45.4428 91.2338C45.3952 91.829 45.7047 92.2148 46.5333 92.2862C47.3666 92.3528 47.7381 92.0195 47.7857 91.4243Z" fill="black"></path><path d="M51.119 92.048C51.1333 92.3337 51.4238 92.5051 52.3143 92.4575C53.1286 92.4146 53.3238 92.2766 53.3095 92.0623C53.2952 91.8146 53.1428 91.7813 52.1333 91.767C50.7571 91.7432 50.1333 91.5004 50.0952 90.748C50.0571 90.0432 50.8047 89.6813 51.9762 89.6242C53.2809 89.5575 54.0524 89.9099 54.119 90.6623L53.0952 90.7146C53.0809 90.4146 52.7476 90.3194 51.9857 90.3575C51.2666 90.3956 51.1095 90.5242 51.119 90.7051C51.1285 90.9146 51.2952 90.9718 52.219 91.0004C53.4666 91.0289 54.2809 91.0718 54.3285 91.9623C54.3714 92.8289 53.5857 93.1242 52.3809 93.1861C51.0095 93.2575 50.1762 92.9861 50.0857 92.0956L51.1143 92.0432L51.119 92.048Z" fill="black"></path><path d="M55.7428 92.0429L56.6809 91.9048L56.7857 92.6334L55.8476 92.7715L55.738 92.0429H55.7428Z" fill="black"></path><path d="M59.4811 88.5382C60.6953 88.243 61.5096 88.5953 61.8144 89.4191L60.8001 89.6668C60.662 89.3763 60.2906 89.2001 59.6811 89.3477C58.9763 89.5192 58.7192 89.9477 58.8572 90.5287C59.0001 91.1096 59.4334 91.3763 60.1334 91.2049C60.743 91.0572 60.9906 90.7239 60.9763 90.3953L61.9906 90.1477C62.1001 91.0239 61.543 91.7191 60.3287 92.0144C59.0049 92.3382 58.1287 91.9001 57.8525 90.7715C57.5763 89.6477 58.1525 88.862 59.4763 88.5382H59.4811Z" fill="black"></path><path d="M63.1524 89.3907C62.7382 88.3431 63.2191 87.4431 64.5477 86.9193C65.8715 86.3955 66.8429 86.7288 67.2524 87.7717C67.6667 88.8193 67.1858 89.7288 65.862 90.2526C64.5334 90.7764 63.5667 90.4431 63.1524 89.3907ZM66.3001 88.1478C66.0858 87.6002 65.6382 87.3859 64.8572 87.6955C64.081 88.0002 63.8953 88.4574 64.1143 89.0097C64.3334 89.5669 64.7858 89.7764 65.5572 89.4717C66.3334 89.1669 66.5191 88.7002 66.3001 88.1478Z" fill="black"></path><path d="M69.3381 88.6907L67.6333 85.7574L68.9571 84.986L71.1095 86.3383L70.9952 83.8002L72.319 83.0288L74.0238 85.9621L73.1762 86.4526L71.9428 84.3288L72.0762 87.0955L71.2904 87.5526L68.9524 86.0717L70.1904 88.1955L69.3381 88.6907Z" fill="black"></path><path d="M23.019 81.8382C13.9952 74.1811 8.2666 62.7573 8.2666 50.0001C8.2666 37.243 14.2999 25.2144 23.738 17.562" stroke="#EA0029" stroke-miterlimit="10"></path><path d="M76.2666 17.5669C85.7047 25.2193 91.7333 36.905 91.7333 50.0002C91.7333 63.0955 86.0047 74.1859 76.9809 81.8431" stroke="#EA0029" stroke-miterlimit="10"></path></g><defs><clipPath id="clip0_101_22113"><rect width="100" height="100" fill="white"></rect></clipPath></defs></svg>