<svg xmlns="http://www.w3.org/2000/svg" width="100" height="100" viewBox="0 0 100 100" fill="none"><g clip-path="url(#clip0_101_22075)"><path d="M93.7382 31.5242C91.3477 25.8718 87.9239 20.7956 83.5668 16.4337C79.2049 12.0718 74.1287 8.65274 68.4763 6.26226C62.6239 3.78607 56.4096 2.53369 50.0001 2.53369C43.5906 2.53369 37.3763 3.78607 31.5239 6.26226C25.8715 8.65274 20.7954 12.0765 16.4334 16.4337C12.0715 20.7956 8.65249 25.8718 6.26202 31.5242C3.78583 37.3765 2.53345 43.5908 2.53345 50.0004C2.53345 56.4099 3.78583 62.6242 6.26202 68.4765C8.65249 74.1289 12.0763 79.2051 16.4334 83.567C20.7954 87.9289 25.8715 91.348 31.5239 93.7385C37.3763 96.2146 43.5906 97.467 50.0001 97.467C56.4096 97.467 62.6239 96.2146 68.4763 93.7385C74.1287 91.348 79.2049 87.9242 83.5668 83.567C87.9287 79.2051 91.3477 74.1289 93.7382 68.4765C96.2144 62.6242 97.4668 56.4099 97.4668 50.0004C97.4668 43.5908 96.2144 37.3765 93.7382 31.5242Z" fill="#051A32"></path><path d="M96.5333 31.6668C96.2333 30.9096 95.919 30.162 95.5857 29.4239C94.919 27.9477 94.181 26.5096 93.3762 25.1144C92.9762 24.4144 92.5571 23.7287 92.1238 23.0525C91.6905 22.3763 91.2429 21.7096 90.7762 21.0573C90.5429 20.7287 90.3095 20.4049 90.0667 20.0858C89.5857 19.443 89.0905 18.8144 88.581 18.1954C87.5619 16.962 86.4857 15.7763 85.3524 14.643C84.7857 14.0763 84.2095 13.5239 83.6143 12.9858C83.0238 12.4477 82.419 11.9239 81.8 11.4144C81.4905 11.162 81.181 10.9096 80.8667 10.662C79.9238 9.91917 78.9524 9.20964 77.9524 8.53822C76.9571 7.86203 75.9333 7.22393 74.8857 6.62393C74.1857 6.22393 73.481 5.83822 72.7619 5.47155C72.4048 5.28583 72.0429 5.10964 71.6762 4.93345C70.9476 4.58107 70.2095 4.24774 69.4619 3.93345C69.0857 3.77631 68.7095 3.62393 68.3333 3.47155C67.5762 3.17155 66.8095 2.8906 66.0381 2.62869C65.2667 2.36679 64.4809 2.12393 63.6905 1.90012C62.9 1.67631 62.1 1.47155 61.2952 1.28584C57.6667 0.44774 53.8857 0.00488281 50.0048 0.00488281C46.1238 0.00488281 42.3429 0.44774 38.7143 1.28584C37.9095 1.47155 37.1095 1.67631 36.319 1.90012C35.5286 2.12393 34.7429 2.36679 33.9714 2.62869C33.2 2.8906 32.4333 3.17155 31.6762 3.47155C31.3 3.61917 30.9238 3.77631 30.5476 3.93345C29.8 4.24774 29.0619 4.58583 28.3333 4.93345C27.9667 5.10964 27.6095 5.2906 27.2476 5.47155C26.5286 5.83822 25.819 6.22393 25.1238 6.62393C24.0762 7.22393 23.0524 7.86679 22.0571 8.53822C21.0619 9.21441 20.0857 9.91917 19.1429 10.662C18.8286 10.9096 18.5143 11.162 18.2095 11.4144C17.5905 11.9239 16.9857 12.4477 16.3952 12.9858C15.8048 13.5239 15.2238 14.0763 14.6571 14.643C13.5238 15.7763 12.4476 16.9573 11.4286 18.1954C10.919 18.8144 10.4238 19.443 9.94286 20.0858C9.70476 20.4049 9.46667 20.7287 9.23333 21.0573C8.76667 21.7096 8.31905 22.3763 7.88571 23.0525C7.45238 23.7287 7.03333 24.4144 6.63333 25.1144C5.82857 26.5096 5.09524 27.9477 4.42381 29.4239C4.09048 30.162 3.77143 30.9096 3.47619 31.6668C1.22857 37.343 0 43.5287 0 50.0001C0 56.043 1.07143 61.8335 3.03333 67.1906C3.45238 68.3382 3.91429 69.4668 4.41429 70.5763C5.08095 72.0525 5.81905 73.4906 6.62381 74.8858C7.02381 75.5858 7.44286 76.2715 7.87619 76.9477C8.30952 77.6239 8.75714 78.2906 9.22381 78.943C9.45714 79.2715 9.69048 79.5954 9.93333 79.9144C10.4143 80.5573 10.9095 81.1858 11.419 81.8049C12.181 82.7287 12.981 83.6287 13.8095 84.4954C15.4667 86.2335 17.2429 87.8477 19.1333 89.3335C20.0762 90.0763 21.0476 90.7858 22.0476 91.4573C23.0429 92.1335 24.0667 92.7715 25.1143 93.3715C26.8571 94.3763 28.6714 95.2763 30.5381 96.0668C36.519 98.5954 43.0952 99.9954 50 99.9954C56.9048 99.9954 63.4809 98.5954 69.4619 96.0668C71.3333 95.2763 73.1429 94.3763 74.8857 93.3715C75.9333 92.7715 76.9571 92.1287 77.9524 91.4573C78.9476 90.7811 79.9238 90.0763 80.8667 89.3335C82.7571 87.8477 84.5333 86.2335 86.1905 84.4954C87.0191 83.6287 87.8143 82.7287 88.581 81.8049C89.0905 81.1858 89.5857 80.5573 90.0667 79.9144C90.3048 79.5954 90.5429 79.2715 90.7762 78.943C91.2429 78.2906 91.6905 77.6239 92.1238 76.9477C92.5571 76.2715 92.9762 75.5858 93.3762 74.8858C94.181 73.4906 94.9143 72.0525 95.5857 70.5763C96.0857 69.4668 96.5476 68.3382 96.9667 67.1906C98.9286 61.8287 100 56.0382 100 50.0001C100 43.5287 98.7714 37.343 96.5333 31.6668ZM93.7381 68.4763C91.3476 74.1287 87.9238 79.2049 83.5667 83.5668C79.2048 87.9287 74.1286 91.3477 68.4762 93.7382C62.6238 96.2144 56.4095 97.4668 50 97.4668C43.5905 97.4668 37.3762 96.2144 31.5238 93.7382C25.8714 91.3477 20.7952 87.9239 16.4333 83.5668C12.0714 79.2049 8.65238 74.1287 6.2619 68.4763C3.78571 62.6239 2.53333 56.4096 2.53333 50.0001C2.53333 43.5906 3.78571 37.3763 6.2619 31.5239C8.65238 25.8715 12.0762 20.7954 16.4333 16.4335C20.7952 12.0715 25.8714 8.6525 31.5238 6.26202C37.3762 3.78583 43.5905 2.53345 50 2.53345C56.4095 2.53345 62.6238 3.78583 68.4762 6.26202C74.1286 8.6525 79.2048 12.0763 83.5667 16.4335C87.9286 20.7954 91.3476 25.8715 93.7381 31.5239C96.2143 37.3763 97.4667 43.5906 97.4667 50.0001C97.4667 56.4096 96.2143 62.6239 93.7381 68.4763Z" fill="#ED5E27"></path><path d="M30.4283 27.4715L31.3188 32.6048L31.8283 38.9857L31.1283 44.5524L30.4236 48.0572L29.9141 53.781L30.3617 59.5191L31.576 64.8572L33.8617 68.8762L36.6569 72.6619L40.0045 74.881L43.8807 76.9715C43.8807 76.9715 46.876 78.2524 47.0712 78.2524C47.2664 78.2524 50.2188 78.7 50.2188 78.7L52.9617 77.9381L57.695 76.1857L62.576 72.7334L64.8474 70.7476L67.0664 67.6667L68.8807 63.9715L69.7712 60.7191L70.2807 56.7V52.7143L69.5141 48.9667L68.876 44.5619L68.5998 40.5619V33.3572L69.3236 30.0429L69.8331 27.1762L67.0617 27.4905L63.8807 27.8H56.7522L53.5807 27.1762L51.2617 26.4143L50.1236 25.9048L48.5712 26.7953L45.6141 27.8048L39.9664 28.2L35.2712 27.8048L31.9522 27.4953H30.4283" fill="white"></path><mask id="mask0_101_22075" style="mask-type:luminance" maskUnits="userSpaceOnUse" x="28" y="24" width="44" height="56"><path d="M50.0856 79.2856C50.0856 79.2856 76.5951 75.8618 69.9332 45.8761C67.8999 36.7285 70.9904 26.119 70.9904 26.119C70.9904 26.119 53.3523 28.7856 50.157 24.2666H49.8808C46.6904 28.7809 28.9951 26.1904 28.9951 26.1904C28.9951 26.1904 32.3475 36.738 30.3094 45.8857C23.6427 75.8761 50.1904 79.8523 50.0808 79.2809L50.0856 79.2856ZM49.9999 77.8856C48.238 77.5856 39.1904 75.6904 34.157 67.9333C30.5808 62.4285 29.7713 55.1428 31.7427 46.2714C33.2237 39.6333 32.238 32.519 31.5285 28.8714L31.3951 28.1761L32.0951 28.2571C34.7665 28.5809 37.4475 28.7476 40.1332 28.7666C44.7475 28.7666 47.9094 28.138 49.7999 26.8476L50.0904 26.6523L50.3808 26.8476C52.2713 28.138 55.4332 28.7666 60.0427 28.7666C62.7332 28.7476 65.4142 28.5761 68.0856 28.2571L68.7856 28.1761L68.6523 28.8714C67.938 32.519 66.9523 39.6285 68.4332 46.2714C70.4046 55.1428 69.5951 62.4237 66.0189 67.9285C60.9808 75.6904 51.9284 77.5856 50.1618 77.8856L50.0761 77.8999L49.9904 77.8856H49.9999Z" fill="white"></path></mask><g mask="url(#mask0_101_22075)"><path d="M50.0856 79.2856C50.0856 79.2856 76.5951 75.8618 69.9332 45.8761C67.8999 36.7285 70.9904 26.119 70.9904 26.119C70.9904 26.119 53.3523 28.7856 50.157 24.2666H49.8808C46.6904 28.7809 28.9951 26.1904 28.9951 26.1904C28.9951 26.1904 32.3475 36.738 30.3094 45.8857C23.6427 75.8761 50.1904 79.8523 50.0808 79.2809L50.0856 79.2856ZM49.9999 77.8856C48.238 77.5856 39.1904 75.6904 34.157 67.9333C30.5808 62.4285 29.7713 55.1428 31.7427 46.2714C33.2237 39.6333 32.238 32.519 31.5285 28.8714L31.3951 28.1761L32.0951 28.2571C34.7665 28.5809 37.4475 28.7476 40.1332 28.7666C44.7475 28.7666 47.9094 28.138 49.7999 26.8476L50.0904 26.6523L50.3808 26.8476C52.2713 28.138 55.4332 28.7666 60.0427 28.7666C62.7332 28.7476 65.4142 28.5761 68.0856 28.2571L68.7856 28.1761L68.6523 28.8714C67.938 32.519 66.9523 39.6285 68.4332 46.2714C70.4046 55.1428 69.5951 62.4237 66.0189 67.9285C60.9808 75.6904 51.9284 77.5856 50.1618 77.8856L50.0761 77.8999L49.9904 77.8856H49.9999Z" fill="url(#paint0_linear_101_22075)"></path></g><path d="M49.9475 76.9192C47.5856 76.4811 39.5046 74.4907 34.8856 67.4002C32.6903 64.0192 31.5808 59.8811 31.5808 55.1002C31.6094 52.1954 31.9522 49.324 32.6046 46.4954C33.1522 43.924 33.4141 41.324 33.3951 38.6954C33.3856 35.8907 33.1475 33.1049 32.6903 30.3383L32.5189 29.2668L33.5665 29.3716C35.8665 29.6002 38.1427 29.7192 40.138 29.7192C44.4475 29.7192 47.6665 29.143 49.7046 27.9954L50.0856 27.7764L50.476 27.9954C52.5189 29.1335 55.7332 29.7192 60.0284 29.7192C62.038 29.7192 64.3141 29.6002 66.6141 29.3716L67.6618 29.2668L67.4903 30.3383C67.0284 33.1002 66.7951 35.8859 66.7856 38.6859C66.7665 41.3192 67.0284 43.924 67.576 46.4954C68.2284 49.3287 68.5713 52.1954 68.5999 55.1002C68.5999 59.8811 67.4903 64.0192 65.2951 67.3954C60.6713 74.4954 52.5903 76.4811 50.2189 76.924L50.0713 76.9526L49.9284 76.924H49.938" fill="#EB5E28"></path><path d="M34.8857 39.0337C34.9047 41.6813 34.6381 44.3051 34.0857 46.8956C33.4619 49.5718 33.1381 52.2813 33.1143 55.0289C33.1143 59.5003 34.1238 63.2908 36.1428 66.4003C40.4 72.9765 48.0666 74.8289 50.0809 75.2003C52.0904 74.8289 59.7666 72.9813 64.0285 66.3956C66.0476 63.2908 67.0619 59.5003 67.0666 55.0337C67.0381 52.286 66.7143 49.5765 66.0952 46.9003C65.5428 44.3051 65.2762 41.686 65.2952 39.0337C65.3047 36.3717 65.519 33.7289 65.9333 31.1003C64.1524 31.267 61.9904 31.4098 59.7952 31.4098C55.4762 31.4098 52.2952 30.8527 50.0904 29.686C47.8904 30.8622 44.7047 31.4098 40.3857 31.4098C38.1857 31.4098 36.0238 31.267 34.2476 31.1003C34.6619 33.7289 34.8762 36.3765 34.8904 39.0384" fill="#062541"></path><path d="M52.8571 36.4526H52.9571C52.9856 36.4526 53.019 36.4574 53.0475 36.4669C53.0761 36.4764 53.1047 36.4907 53.1285 36.5097C53.1523 36.5288 53.1713 36.5478 53.1856 36.5764C53.1999 36.605 53.2094 36.6336 53.2094 36.6669C53.2094 36.705 53.2047 36.7431 53.1856 36.7764C53.1666 36.8097 53.1428 36.8383 53.1142 36.8621C53.0285 36.9145 52.938 36.9383 52.838 36.9288C52.7761 36.9288 52.719 36.924 52.6571 36.9097C52.6142 36.905 52.5761 36.8907 52.538 36.8716L52.5951 36.7431C52.6237 36.7574 52.6571 36.7669 52.6856 36.7716C52.7237 36.7812 52.7618 36.7859 52.7999 36.7859C52.838 36.7859 52.8713 36.7764 52.9047 36.7574C52.9332 36.7431 52.9475 36.7193 52.9475 36.6907C52.9475 36.6621 52.938 36.6383 52.9142 36.624C52.8856 36.605 52.8523 36.5955 52.819 36.5955H52.7666L52.719 36.6097L52.6618 36.5431L52.8285 36.2955H52.9904L52.8761 36.4621L52.8666 36.4526H52.8571ZM52.5904 35.6955C52.5904 35.7383 52.5904 35.7812 52.5904 35.824C52.5952 35.8621 52.6094 35.8955 52.6332 35.924C52.6571 35.9526 52.6856 35.9716 52.719 35.9859C52.7666 36.0002 52.8094 36.0097 52.8618 36.0097C52.9285 36.0097 52.9856 35.9907 53.038 35.9478C53.0666 35.924 53.0856 35.8955 53.0999 35.8621C53.1142 35.8288 53.119 35.7955 53.1142 35.7574C53.1142 35.7145 53.1094 35.6764 53.0951 35.6383C53.0809 35.605 53.0618 35.5716 53.0332 35.5478C52.9952 35.5193 52.9571 35.4955 52.9142 35.4764C52.8571 35.4526 52.7951 35.4288 52.7332 35.4097C52.6475 35.3859 52.5666 35.3526 52.4856 35.3097C52.419 35.2764 52.3618 35.2336 52.3094 35.1859C52.2618 35.1383 52.2285 35.0812 52.2047 35.0193C52.1809 34.9478 52.1713 34.8716 52.1713 34.7955C52.1666 34.7097 52.1761 34.6288 52.2094 34.5478C52.2428 34.4669 52.2856 34.4002 52.3523 34.3431C52.4237 34.2907 52.4999 34.2526 52.5856 34.224C52.6713 34.1955 52.7571 34.1907 52.8475 34.1955C52.938 34.1955 53.0237 34.205 53.1094 34.224C53.1856 34.2431 53.2571 34.2716 53.319 34.3193C53.3809 34.3621 53.4237 34.4193 53.4571 34.4907C53.4904 34.5669 53.5094 34.6526 53.5047 34.7383V34.7955H53.0904C53.0951 34.7145 53.0761 34.6383 53.038 34.5716C53.019 34.5431 52.9904 34.524 52.9571 34.5097C52.9237 34.4955 52.8904 34.4907 52.8571 34.4955C52.8142 34.4955 52.7761 34.5002 52.738 34.5145C52.7094 34.524 52.6809 34.5431 52.6618 34.5669C52.6428 34.5907 52.6285 34.6145 52.6237 34.6431C52.6237 34.6716 52.6237 34.7002 52.6237 34.7336C52.6237 34.7907 52.638 34.8431 52.6666 34.8907C52.7142 34.9478 52.7761 34.9859 52.8475 35.0097L53.1809 35.1431C53.2523 35.1716 53.319 35.205 53.3809 35.2478C53.4285 35.2812 53.4713 35.3193 53.5047 35.3669C53.5332 35.4097 53.5571 35.4574 53.5666 35.505C53.5809 35.5621 53.5856 35.6193 53.5856 35.6764C53.5951 35.7669 53.5809 35.8526 53.5428 35.9336C53.5094 36.0145 53.4571 36.0859 53.3856 36.1431C53.3047 36.1955 53.219 36.2336 53.1237 36.2621C53.0285 36.2859 52.9332 36.2955 52.838 36.2907C52.7428 36.3002 52.6523 36.2907 52.5618 36.2669C52.4713 36.2383 52.3904 36.2002 52.3142 36.1431C52.2618 36.0859 52.219 36.0193 52.1904 35.9478C52.1618 35.8764 52.1523 35.8002 52.1571 35.7193V35.6383H52.5904V35.6955Z" fill="white"></path><path d="M57.6808 36.4527H57.7808C57.8094 36.4527 57.8427 36.4574 57.8713 36.467C57.8998 36.4765 57.9284 36.4908 57.9522 36.5098C57.976 36.5289 57.9951 36.5479 58.0094 36.5765C58.0236 36.605 58.0332 36.6336 58.0332 36.667C58.0332 36.7051 58.0284 36.7431 58.0094 36.7765C57.9903 36.8098 57.9665 36.8384 57.9379 36.8622C57.8522 36.9146 57.7617 36.9384 57.6617 36.9289C57.5998 36.9289 57.5427 36.9241 57.4808 36.9098C57.4379 36.9051 57.3998 36.8908 57.3617 36.8717L57.4189 36.7431C57.4474 36.7574 57.476 36.767 57.5094 36.7717C57.5474 36.7812 57.5855 36.786 57.6236 36.786C57.6617 36.786 57.6998 36.7765 57.7284 36.7574C57.757 36.7431 57.7713 36.7193 57.7713 36.6908C57.7713 36.6622 57.757 36.6384 57.7332 36.6241C57.7046 36.6051 57.6713 36.5955 57.6379 36.5955H57.5855L57.5379 36.6051L57.4713 36.5479L57.6379 36.3003H57.7998L57.6855 36.467V36.4527H57.6808ZM57.4094 35.6955C57.4094 35.7384 57.4094 35.7812 57.4094 35.8241C57.4141 35.8622 57.4284 35.8955 57.4522 35.9241C57.476 35.9527 57.5046 35.9717 57.5427 35.986C57.5855 36.0003 57.6332 36.0098 57.6808 36.0098C57.7474 36.0098 57.8046 35.9908 57.857 35.9479C57.8855 35.9241 57.9046 35.8955 57.9189 35.8622C57.9332 35.8289 57.9379 35.7955 57.9332 35.7574C57.9332 35.7146 57.9284 35.6765 57.9141 35.6384C57.8998 35.605 57.8808 35.5717 57.8522 35.5479C57.8141 35.5193 57.776 35.4955 57.7332 35.4765C57.676 35.4527 57.6141 35.4289 57.5522 35.4098C57.4665 35.386 57.3855 35.3527 57.3046 35.3098C57.2379 35.2765 57.1808 35.2336 57.1284 35.186C57.0808 35.1384 57.0474 35.0812 57.0236 35.0193C56.9998 34.9479 56.9903 34.8717 56.9903 34.7955C56.9855 34.7098 56.9951 34.6289 57.0284 34.5479C57.0617 34.467 57.1046 34.4003 57.1713 34.3431C57.2427 34.2908 57.3189 34.2527 57.4046 34.2241C57.4903 34.2003 57.576 34.1908 57.6665 34.1955C57.757 34.1955 57.8427 34.2051 57.9284 34.2241C58.0046 34.2431 58.076 34.2717 58.1379 34.3193C58.1998 34.3622 58.2427 34.4193 58.276 34.4908C58.3094 34.567 58.3284 34.6527 58.3236 34.7384V34.7955H57.9141C57.9189 34.7146 57.8998 34.6384 57.8617 34.5717C57.8427 34.5431 57.8141 34.5241 57.7808 34.5098C57.7474 34.4955 57.7141 34.4908 57.6808 34.4955C57.6379 34.4955 57.5998 34.5003 57.5617 34.5146C57.5332 34.5241 57.5046 34.5431 57.4855 34.567C57.4665 34.5908 57.4522 34.6146 57.4474 34.6431C57.4474 34.6717 57.4474 34.7003 57.4474 34.7336C57.4474 34.7908 57.4617 34.8431 57.4903 34.8908C57.5379 34.9479 57.5998 34.986 57.6713 35.0098L58.0046 35.1431C58.076 35.1717 58.1427 35.205 58.2046 35.2479C58.2522 35.2812 58.2951 35.3193 58.3284 35.367C58.357 35.4098 58.3808 35.4574 58.3903 35.505C58.4046 35.5622 58.4094 35.6193 58.4094 35.6765C58.4189 35.767 58.4046 35.8527 58.3665 35.9336C58.3332 36.0146 58.2808 36.086 58.2094 36.1431C58.1284 36.1955 58.0427 36.2336 57.9474 36.2622C57.8522 36.286 57.757 36.2955 57.6617 36.2908C57.5665 36.3003 57.476 36.2908 57.3855 36.267C57.2951 36.2384 57.2141 36.2003 57.1379 36.1431C57.0808 36.086 57.0427 36.0193 57.0141 35.9431C56.9855 35.867 56.976 35.7908 56.9808 35.7098V35.6289H57.4141V35.6955" fill="white"></path><path d="M48.5141 59.2336V56.3098C49.9237 56.3574 50.5094 56.6574 50.7332 56.8336C50.8237 56.9002 50.9046 56.9812 50.976 57.0669C51.0475 57.1526 51.1046 57.2479 51.1522 57.3526C51.1999 57.4526 51.2332 57.5621 51.2522 57.6717C51.2713 57.7812 51.2808 57.8955 51.2713 58.005C51.2713 58.5002 51.0999 58.705 50.9141 58.8383C50.8284 58.9002 50.3141 59.2098 48.5141 59.2336ZM48.5141 50.2764V48.305C48.8618 48.2955 49.1903 48.3669 49.4998 48.5336C49.5237 48.5478 49.5475 48.5669 49.5713 48.5859C49.6189 48.6288 49.6618 48.6764 49.6999 48.7336C49.7618 48.8336 49.7951 48.9383 49.8046 49.0526C49.8046 49.1098 49.8046 49.1621 49.8046 49.2193C49.8141 49.2859 49.8094 49.3574 49.8046 49.424C49.7951 49.4907 49.7808 49.5574 49.7522 49.624C49.7284 49.6859 49.6951 49.7478 49.657 49.805C49.6189 49.8621 49.5713 49.9145 49.5237 49.9574C49.4094 50.0574 49.1284 50.2145 48.5094 50.2621L48.5189 50.2812L48.5141 50.2764ZM55.4856 61.3669C55.2046 61.8336 54.8665 62.2479 54.4665 62.6193C54.0665 62.9907 53.6284 63.2955 53.1427 63.5431C52.1856 64.024 50.8665 64.2621 49.1808 64.2621H43.3284V51.5098H48.1713C49.1379 51.5098 49.857 51.305 50.3284 50.8955C50.4475 50.7907 50.5522 50.6764 50.6427 50.5479C50.7332 50.4193 50.8094 50.2859 50.8713 50.1383C50.9332 49.9955 50.976 49.8431 51.0046 49.6907C51.0332 49.5383 51.0427 49.3812 51.0332 49.224C51.0332 49.1193 51.0284 49.0098 51.0141 48.905C50.9808 48.6002 50.8808 48.3193 50.7189 48.0621C50.6189 47.9098 50.4999 47.7764 50.3618 47.6574C50.2951 47.6002 50.2237 47.5479 50.1522 47.5002C49.876 47.3431 49.5808 47.2288 49.2713 47.1574C48.9618 47.0859 48.6475 47.0574 48.3284 47.0764H47.3046V50.2526H43.3332V43.2717H46.6141C48.5189 43.2717 49.9094 43.3955 50.7903 43.6431C51.0808 43.7145 51.3618 43.805 51.6379 43.9193C51.9141 44.0336 52.176 44.1717 52.4332 44.3288C52.6856 44.4859 52.9284 44.6621 53.1522 44.8574C53.376 45.0526 53.5856 45.2669 53.776 45.4955C53.9618 45.7193 54.1237 45.9574 54.2618 46.2098C54.4046 46.4621 54.5189 46.724 54.6141 47.0002C54.7094 47.2717 54.776 47.5526 54.8237 47.8383C54.8665 48.124 54.8856 48.4098 54.8808 48.7002C54.8856 49.0764 54.8475 49.4479 54.7665 49.8193C54.6856 50.1859 54.557 50.5383 54.3903 50.8764C54.1903 51.2383 53.9522 51.5764 53.676 51.8859C53.3999 52.1955 53.0903 52.4717 52.7522 52.7098C52.5237 52.8717 52.2856 53.0098 52.0379 53.1383C51.0808 53.6193 49.7618 53.8574 48.076 53.8574H47.3094V60.4479H48.2951C49.9379 60.4479 51.0522 60.2383 51.6332 59.8193C51.776 59.7145 51.8999 59.5955 52.0141 59.4574C52.1284 59.3193 52.2189 59.1717 52.2951 59.0145C52.3713 58.8574 52.4237 58.6907 52.457 58.5145C52.4903 58.3431 52.5046 58.1669 52.4951 57.9907C52.5046 57.7859 52.4856 57.5812 52.4475 57.3812C52.4046 57.1812 52.3427 56.9859 52.2522 56.8002C52.1665 56.6145 52.057 56.4431 51.9237 56.2812C51.7951 56.1193 51.6475 55.9812 51.4856 55.8526C50.8665 55.3669 49.8665 55.105 48.4808 55.0621C50.1856 55.024 51.5284 54.7478 52.5856 54.2145C53.0618 53.9764 53.4999 53.6859 53.9094 53.3431C54.1094 53.4669 54.2999 53.6098 54.4808 53.7574C54.6618 53.9098 54.8332 54.0717 54.9903 54.2431C55.1522 54.4145 55.2999 54.6002 55.4332 54.7907C55.5665 54.9812 55.6903 55.1859 55.7999 55.3955C55.9094 55.605 56.0046 55.8193 56.0856 56.0383C56.1665 56.2621 56.2332 56.4859 56.2856 56.7145C56.3379 56.9431 56.3713 57.1764 56.3951 57.4098C56.4141 57.6431 56.4189 57.8812 56.4094 58.1145C56.4094 58.4002 56.3951 58.6812 56.357 58.9621C56.3189 59.2431 56.2618 59.5193 56.1856 59.7907C56.1094 60.0621 56.0141 60.3288 55.8999 60.5907C55.7856 60.8478 55.6522 61.1002 55.4999 61.3383V61.3479L55.4856 61.3669ZM56.5284 54.2859C56.1046 53.6479 55.5808 53.0955 54.9665 52.6336L54.7522 52.4764C55.0237 52.1574 55.257 51.8098 55.4475 51.4383C55.6618 51.0145 55.8237 50.5717 55.9332 50.1098C56.0427 49.6479 56.0951 49.1764 56.0903 48.7002C56.0951 48.3431 56.0713 47.9859 56.0141 47.6288C55.957 47.2717 55.8665 46.9288 55.7522 46.5859C55.6332 46.2479 55.4856 45.9193 55.3094 45.605C55.1332 45.2907 54.9332 44.9955 54.7046 44.7193C54.4713 44.4431 54.2237 44.1859 53.9522 43.9479C53.6808 43.7098 53.3903 43.4955 53.0856 43.305C52.7808 43.1145 52.4618 42.9478 52.1284 42.805C51.7951 42.6621 51.4522 42.5526 51.1046 42.4621C50.1189 42.1859 48.6379 42.0479 46.6094 42.0479H42.1094V65.4764H49.176C51.0713 65.4764 52.5475 65.2002 53.6856 64.624C53.976 64.4764 54.257 64.3098 54.5237 64.124C54.7903 63.9383 55.0427 63.7336 55.2856 63.5145C55.5237 63.2955 55.7475 63.0574 55.9522 62.805C56.157 62.5526 56.3475 62.2859 56.5141 62.0098C56.6951 61.7193 56.8522 61.4193 56.9903 61.1098C57.1284 60.8002 57.2427 60.4764 57.3379 60.1526C57.4284 59.824 57.4998 59.4907 57.5427 59.1526C57.5903 58.8145 57.6094 58.4764 57.6046 58.1336C57.6094 57.7955 57.5951 57.4574 57.5522 57.1193C57.5094 56.7812 57.4427 56.4526 57.3522 56.124C57.2618 55.7955 57.1475 55.4812 57.0094 55.1669C56.8713 54.8574 56.7094 54.5574 56.5284 54.2717" fill="white"></path><path d="M52.8571 36.4526H52.9571C52.9856 36.4526 53.019 36.4574 53.0475 36.4669C53.0761 36.4764 53.1047 36.4907 53.1285 36.5097C53.1523 36.5288 53.1713 36.5478 53.1856 36.5764C53.1999 36.605 53.2094 36.6336 53.2094 36.6669C53.2094 36.705 53.2047 36.7431 53.1856 36.7764C53.1666 36.8097 53.1428 36.8383 53.1142 36.8621C53.0285 36.9145 52.938 36.9383 52.838 36.9288C52.7761 36.9288 52.719 36.924 52.6571 36.9097C52.6142 36.905 52.5761 36.8907 52.538 36.8716L52.5951 36.7431C52.6237 36.7574 52.6571 36.7669 52.6856 36.7716C52.7237 36.7812 52.7618 36.7859 52.7999 36.7859C52.838 36.7859 52.8713 36.7764 52.9047 36.7574C52.9332 36.7431 52.9475 36.7193 52.9475 36.6907C52.9475 36.6621 52.9332 36.6383 52.9094 36.624C52.8809 36.605 52.8475 36.5955 52.8142 36.5955H52.7571L52.7094 36.6097L52.6571 36.5431L52.8237 36.2955H52.9856L52.8713 36.4621L52.8618 36.4526H52.8571ZM52.5904 35.6955C52.5904 35.7383 52.5904 35.7812 52.5904 35.824C52.5952 35.8621 52.6094 35.8955 52.6332 35.924C52.6571 35.9526 52.6856 35.9716 52.719 35.9859C52.7666 36.0002 52.8094 36.0097 52.8618 36.0097C52.9285 36.0097 52.9856 35.9907 53.038 35.9478C53.0666 35.924 53.0856 35.8955 53.0999 35.8621C53.1142 35.8288 53.119 35.7955 53.1142 35.7574C53.1142 35.7145 53.1094 35.6764 53.0951 35.6383C53.0809 35.605 53.0618 35.5716 53.0332 35.5478C52.9952 35.5193 52.9571 35.4955 52.9142 35.4764C52.8571 35.4526 52.7951 35.4288 52.7332 35.4097C52.6475 35.3859 52.5666 35.3526 52.4856 35.3097C52.419 35.2764 52.3618 35.2336 52.3094 35.1859C52.2618 35.1383 52.2285 35.0812 52.2047 35.0193C52.1809 34.9478 52.1713 34.8716 52.1713 34.7955C52.1666 34.7097 52.1761 34.6288 52.2094 34.5478C52.2428 34.4669 52.2856 34.4002 52.3523 34.3431C52.4237 34.2907 52.4999 34.2526 52.5856 34.224C52.6713 34.1955 52.7571 34.1907 52.8475 34.1955C52.938 34.1955 53.0237 34.205 53.1094 34.224C53.1856 34.2431 53.2571 34.2716 53.319 34.3193C53.3809 34.3621 53.4237 34.4193 53.4571 34.4907C53.4904 34.5669 53.5094 34.6526 53.5047 34.7383V34.7955H53.0904C53.0951 34.7145 53.0761 34.6383 53.038 34.5716C53.019 34.5431 52.9904 34.524 52.9571 34.5097C52.9237 34.4955 52.8904 34.4907 52.8571 34.4955C52.8142 34.4955 52.7761 34.5002 52.738 34.5145C52.7094 34.524 52.6809 34.5431 52.6618 34.5669C52.6428 34.5907 52.6285 34.6145 52.6237 34.6431C52.6237 34.6716 52.6237 34.7002 52.6237 34.7336C52.6237 34.7907 52.638 34.8431 52.6666 34.8907C52.7142 34.9478 52.7761 34.9859 52.8475 35.0097L53.1809 35.1431C53.2523 35.1716 53.319 35.205 53.3809 35.2478C53.4285 35.2812 53.4713 35.3193 53.5047 35.3669C53.5332 35.4097 53.5571 35.4574 53.5666 35.505C53.5809 35.5621 53.5856 35.6193 53.5856 35.6764C53.5951 35.7669 53.5809 35.8526 53.5428 35.9336C53.5094 36.0145 53.4571 36.0859 53.3856 36.1431C53.3047 36.1955 53.219 36.2336 53.1237 36.2621C53.0285 36.2859 52.9332 36.2955 52.838 36.2907C52.7428 36.3002 52.6523 36.2907 52.5618 36.2669C52.4713 36.2383 52.3904 36.2002 52.3142 36.1431C52.2618 36.0859 52.219 36.0193 52.1904 35.9478C52.1618 35.8764 52.1523 35.8002 52.1571 35.7193V35.6383H52.5904V35.6955Z" fill="white"></path><path fill-rule="evenodd" clip-rule="evenodd" d="M37.0952 59.5051L36.7762 57.1956L34.0952 57.2861L36.7428 54.6813L37.0428 51.0527L38.8809 52.9099L41.0381 51.467L39.8666 54.3337L40.7333 56.1527L38.6381 56.8384L37.1 59.5004" fill="#081A30"></path><path fill-rule="evenodd" clip-rule="evenodd" d="M37.8903 47.024L38.8522 43.9812L37.0427 42.8812L39.857 41.6764L41.2284 39.1812L42.4427 40.8097L45.6332 40.0431L43.2903 42.5621L44.1618 45.5383L40.9237 44.7764L40.8618 44.7621L37.8951 47.0288" fill="url(#paint1_linear_101_22075)"></path><path fill-rule="evenodd" clip-rule="evenodd" d="M47.3761 38.662L46.5856 36.6572L44.9427 35.6715L46.0094 34.8049L45.5189 32.6001L47.138 34.2144L49.1094 33.5858L48.6047 35.9477L50.1237 38.0811L48.0999 37.3763L47.3808 38.662" fill="url(#paint2_linear_101_22075)"></path><path fill-rule="evenodd" clip-rule="evenodd" d="M55.9094 43.6621L55.3999 40.4811L52.9618 38.9859L55.2285 37.6811L55.3523 34.3145L57.4666 36.7906L60.7666 35.9811L59.1618 39.2954L60.9046 42.5668L57.7142 41.5478L55.9094 43.6668" fill="#081A30"></path><path fill-rule="evenodd" clip-rule="evenodd" d="M48.6236 44.605L47.8331 44.9812L48.1665 43.9764L47.757 43.2383L48.5189 43.1526L49.0427 42.1812L49.2522 43.1859L50.257 43.3764L49.3427 44.1335V45.3669L48.6189 44.605" fill="url(#paint3_linear_101_22075)"></path><path fill-rule="evenodd" clip-rule="evenodd" d="M47.3903 52.4051L47.995 49.7003L44.2712 47.867L49.0665 47.1051L51.3141 43.2812L53.3141 46.7908L57.7855 46.8479L54.1903 49.1717L54.6236 51.786L51.0522 50.8336L47.3903 52.4051Z" fill="url(#paint4_linear_101_22075)"></path><path fill-rule="evenodd" clip-rule="evenodd" d="M64.8284 45.4765L63.2951 45.6575L62.1427 44.5527L62.2046 45.9194L61.1379 46.3289L62.3808 46.9194L62.7046 47.9718L63.476 47.3242L64.857 47.7051L64.1094 46.6051L64.8379 45.4813" fill="url(#paint5_linear_101_22075)"></path><path fill-rule="evenodd" clip-rule="evenodd" d="M62.9665 50.4905L60.976 48.9619L61.1808 50.4191L59.676 50.5L61.5046 51.3333L62.0856 52.4381L63.3284 52.0572L65.2332 52.7048L64.2522 51.6333L65.476 50.7667L62.9617 50.4857" fill="#081A30"></path><path fill-rule="evenodd" clip-rule="evenodd" d="M51.0189 62.8004L51.9475 58.848L49.1617 56.7956L53.0046 56.0004L54.5665 52.9956L56.376 55.6432L60.4141 55.6051L57.6856 58.2718L58.9951 62.1432L54.857 60.4527L51.0284 62.8004" fill="#081A30"></path><path fill-rule="evenodd" clip-rule="evenodd" d="M51.9046 72.1382L53.1284 68.8049L56.0189 67.6477L54.0094 65.7192L54.6618 62.5239L52.6427 64.8096L51.038 64.1858L51.0856 66.8906L49.5189 69.3287L51.3284 69.2477L51.9094 72.143" fill="url(#paint6_linear_101_22075)"></path><path fill-rule="evenodd" clip-rule="evenodd" d="M43.8379 57.686L44.4379 56.4432L43.1855 55.967L45.2855 55.0432L46.6189 53.1479L46.7665 54.5146L48.0522 54.2003L46.6951 55.4432L46.4475 56.6099L45.3094 56.586L43.8332 57.686" fill="url(#paint7_linear_101_22075)"></path><path fill-rule="evenodd" clip-rule="evenodd" d="M45.0047 60.781L42.957 58.4619V61.9048L40.8856 63.4619L43.2094 64.8524L43.7951 68.1953L45.4285 65.8143L48.6332 66.7143L46.7285 63.2619L48.119 59.6095L44.9999 60.7762" fill="#081A30"></path><mask id="mask1_101_22075" style="mask-type:luminance" maskUnits="userSpaceOnUse" x="33" y="48" width="6" height="3"><path d="M33.6475 49.1048L33.6094 49.319L34.476 49.6L33.9618 50.819L36.0475 49.9524L38.2951 50.2905L37.4284 49.2571L38.5284 48.5524L36.7189 48.6762L35.7332 48.0571L34.976 48.8809L33.6522 49.1048H33.6475Z" fill="white"></path></mask><g mask="url(#mask1_101_22075)"><path d="M33.6475 49.1046L33.6094 49.3189L34.476 49.5999L33.9618 50.8189L36.0475 49.9475L38.2951 50.2856L37.4284 49.2522L38.5284 48.5475L36.7237 48.6713L35.7379 48.0522L34.9808 48.8761L33.657 49.0999H33.6522" fill="url(#paint8_linear_101_22075)"></path></g><path d="M60.7523 70.1379C61.9047 69.1426 62.9142 68.0236 63.7761 66.7665L63.6952 66.6569L64.3095 63.8522L61.8047 64.5903L59.3095 62.3569L59.6285 65.6046L56.7666 67.4379L60.2571 68.5665L60.7666 70.1379H60.7523Z" fill="#081A30"></path><mask id="mask2_101_22075" style="mask-type:luminance" maskUnits="userSpaceOnUse" x="36" y="66" width="10" height="7"><path d="M36.8999 67.4665C37.7475 68.5522 38.6999 69.5379 39.757 70.4236C40.8142 71.3093 41.9523 72.0712 43.1713 72.7141L43.1285 71.757L45.7332 70.7712L42.7047 69.3284L41.9142 66.7617L40.0428 68.3379L36.9047 67.476V67.4665H36.8999Z" fill="white"></path></mask><g mask="url(#mask2_101_22075)"><path d="M36.8999 67.4665C37.7475 68.5522 38.6999 69.5379 39.757 70.4236C40.8142 71.3093 41.9523 72.0712 43.1713 72.7141L43.1285 71.757L45.7332 70.7712L42.7047 69.3284L41.9142 66.7617L40.0428 68.3379L36.9047 67.476V67.4665" fill="url(#paint9_linear_101_22075)"></path></g><mask id="mask3_101_22075" style="mask-type:luminance" maskUnits="userSpaceOnUse" x="64" y="57" width="3" height="6"><path d="M66.0617 62.0476C66.3951 60.9904 66.6379 59.919 66.7998 58.8238L66.0141 57.6333L66.0522 59.919L64.2332 60.9047L66.0665 62.0381V62.0476H66.0617Z" fill="white"></path></mask><g mask="url(#mask3_101_22075)"><path d="M66.0617 62.0476C66.3951 60.9904 66.6379 59.919 66.7998 58.8238L66.0141 57.6333L66.0522 59.919L64.2332 60.9047L66.0665 62.0381V62.0476" fill="url(#paint10_linear_101_22075)"></path></g><path d="M65.5617 43.7092C65.4093 42.4092 65.3284 41.1187 65.3141 39.8616L63.8855 39.7949L65.3665 41.7664L64.895 43.9187L65.5569 43.7235V43.7092" fill="#081A30"></path><path d="M33.8617 61.1713C34.2474 62.657 34.8141 64.0713 35.5569 65.4142L35.895 65.6761L35.6188 63.7237L37.6331 63.6142L35.1665 62.4951L34.3855 61.0142L33.8474 61.1808H33.8617" fill="#081A30"></path><path d="M36.8617 36.2711H36.4521V34.7378H36.8617V36.2711ZM36.8617 34.5473H36.4521V34.2188H36.8617V34.5521" fill="white"></path><path d="M37.5141 35.6952C37.5141 35.738 37.5141 35.7809 37.5141 35.8237C37.5189 35.8618 37.5331 35.8952 37.557 35.9237C37.5808 35.9523 37.6093 35.9713 37.6474 35.9856C37.6903 35.9999 37.7379 36.0094 37.7855 36.0094C37.8522 36.0094 37.9093 35.9904 37.9617 35.9475C37.9903 35.9237 38.0093 35.8952 38.0236 35.8618C38.0379 35.8285 38.0427 35.7952 38.0379 35.7571C38.0379 35.719 38.0331 35.6761 38.0189 35.638C38.0046 35.6047 37.9808 35.5761 37.9569 35.5475C37.9189 35.519 37.8808 35.4952 37.8379 35.4761C37.7808 35.4523 37.7189 35.4285 37.657 35.4094C37.5712 35.3809 37.4903 35.3523 37.4093 35.3094C37.3427 35.2761 37.2855 35.2333 37.2331 35.1856C37.1855 35.138 37.1522 35.0809 37.1284 35.019C37.1046 34.9475 37.095 34.8761 37.095 34.7999C37.0903 34.7142 37.0998 34.6333 37.1331 34.5523C37.1665 34.4713 37.2093 34.4047 37.276 34.3475C37.3474 34.2952 37.4236 34.2571 37.5093 34.2285C37.595 34.2047 37.6808 34.1952 37.7712 34.1999C37.8617 34.1999 37.9474 34.2094 38.0331 34.2285C38.1093 34.2475 38.1808 34.2761 38.2427 34.3237C38.3046 34.3666 38.3474 34.4237 38.3808 34.4952C38.4141 34.5714 38.4331 34.6571 38.4284 34.7428V34.7999H38.0189C38.0236 34.719 38.0046 34.6428 37.9665 34.5761C37.9474 34.5475 37.9189 34.5285 37.8855 34.5142C37.8522 34.4999 37.8189 34.4952 37.7855 34.4999C37.7427 34.4999 37.7046 34.5047 37.6665 34.519C37.6379 34.5285 37.6093 34.5475 37.5903 34.5713C37.5712 34.5952 37.557 34.619 37.5522 34.6475C37.5522 34.6761 37.5522 34.7047 37.5522 34.738C37.5522 34.7952 37.5665 34.8475 37.595 34.8952C37.6427 34.9523 37.7046 34.9904 37.776 35.0142L38.1093 35.1475C38.1808 35.1761 38.2474 35.2094 38.3093 35.2523C38.3569 35.2856 38.3998 35.3237 38.4331 35.3713C38.4617 35.4142 38.4855 35.4618 38.495 35.5094C38.5093 35.5666 38.5141 35.6237 38.5141 35.6809C38.5236 35.7714 38.5093 35.8571 38.4712 35.938C38.4379 36.019 38.3855 36.0904 38.3141 36.1475C38.2331 36.1999 38.1474 36.238 38.0522 36.2666C37.957 36.2904 37.8617 36.2999 37.7665 36.2952C37.6712 36.3047 37.5808 36.2952 37.4903 36.2713C37.3998 36.2428 37.3189 36.2047 37.2427 36.1475C37.1855 36.0904 37.1474 36.0237 37.1189 35.9475C37.0903 35.8713 37.0808 35.7952 37.0855 35.7142V35.6333H37.5189V35.6999" fill="white"></path><path d="M39.9713 34.5711H39.5046V36.2711H39.076V34.5711H38.6094V34.2378H39.976V34.5711" fill="white"></path><path d="M41.0474 35.5045L40.8426 34.5902L40.6378 35.5045H41.0521H41.0474ZM41.1045 34.2378L41.6712 36.2711H41.2236L41.1236 35.8378H40.5521L40.4521 36.2711H39.9998L40.5759 34.2378H41.0998" fill="white"></path><path d="M42.8379 35.6283H42.8474V34.2378H43.2427V36.2711H42.7522L42.2236 34.8473H42.2188V36.2711H41.8236V34.2378H42.3236L42.8427 35.6283" fill="white"></path><path d="M44.1378 35.9662C44.2283 35.9662 44.3093 35.9472 44.3855 35.8996C44.4236 35.871 44.4474 35.8329 44.4664 35.7901C44.4855 35.7472 44.4902 35.6996 44.4807 35.6567C44.4807 35.6043 44.4759 35.5567 44.4569 35.5091C44.4426 35.471 44.4188 35.4424 44.3902 35.4139C44.3569 35.3853 44.3236 35.371 44.2807 35.3615C44.2378 35.3615 44.1997 35.3615 44.1569 35.3615H43.9712V35.971H44.1378V35.9662ZM44.095 35.0662C44.1902 35.071 44.2759 35.052 44.3569 35.0043C44.3855 34.9805 44.4093 34.9472 44.4236 34.9091C44.4378 34.871 44.4426 34.8329 44.4378 34.7948C44.4378 34.7567 44.4378 34.7186 44.4236 34.6853C44.4093 34.6472 44.3902 34.6186 44.3617 34.5901C44.2855 34.5424 44.2045 34.5234 44.114 34.5329H43.9569V35.0662H44.0902H44.095ZM44.2616 34.2329C44.3426 34.2329 44.4283 34.2377 44.5093 34.2567C44.5807 34.271 44.6426 34.2996 44.6997 34.3424C44.7569 34.3853 44.7997 34.4377 44.8236 34.5043C44.8569 34.5853 44.8712 34.6662 44.8664 34.752C44.8664 34.8567 44.8426 34.9472 44.7855 35.0329C44.7236 35.1186 44.6426 35.171 44.5378 35.1948C44.6521 35.2043 44.7474 35.252 44.8236 35.3424C44.8997 35.4377 44.9331 35.5472 44.9283 35.671C44.9283 35.7472 44.9188 35.8234 44.895 35.8996C44.8712 35.971 44.8331 36.0329 44.7807 36.0901C44.7236 36.1472 44.6521 36.1901 44.5759 36.2186C44.4759 36.252 44.3664 36.271 44.2616 36.2662H43.5378V34.2377H44.2616" fill="white"></path><path d="M45.6046 35.652C45.6046 35.6996 45.6046 35.7472 45.6046 35.7901C45.6093 35.8282 45.6236 35.8662 45.6427 35.8996C45.6617 35.9329 45.6903 35.9567 45.7236 35.971C45.7617 35.9901 45.8046 35.9996 45.8474 35.9996C45.8903 35.9996 45.9332 35.9948 45.9712 35.971C46.0046 35.952 46.0284 35.9281 46.0474 35.8996C46.0665 35.8662 46.0808 35.8282 46.0855 35.7901C46.0855 35.7424 46.0855 35.6948 46.0855 35.652V34.2329H46.5189V35.652C46.5189 35.7615 46.5046 35.871 46.4617 35.971C46.4284 36.052 46.376 36.1186 46.3093 36.171C46.2427 36.2186 46.1712 36.252 46.0903 36.271C46.0093 36.2853 45.9284 36.2948 45.8427 36.2948C45.757 36.2948 45.676 36.2853 45.5951 36.271C45.5141 36.2567 45.4427 36.2282 45.376 36.1805C45.3093 36.1282 45.257 36.0615 45.2236 35.9853C45.1808 35.8805 45.1617 35.7662 45.1665 35.652V34.2329H45.5998V35.652H45.6046Z" fill="white"></path><path d="M46.8141 34.2378H47.2474V35.9378H48.0093V36.2711H46.8141V34.2378Z" fill="white"></path><path d="M49.5141 35.9664C49.6045 35.9664 49.6855 35.9473 49.7617 35.8997C49.7998 35.8711 49.8236 35.833 49.8426 35.7902C49.8617 35.7473 49.8664 35.6997 49.8569 35.6568C49.8569 35.6045 49.8522 35.5568 49.8331 35.5092C49.8188 35.4711 49.795 35.4426 49.7664 35.414C49.7379 35.3902 49.6998 35.3711 49.6617 35.3664C49.6188 35.3568 49.576 35.3521 49.5331 35.3521H49.3474V35.9616L49.5188 35.9711L49.5141 35.9664ZM49.4712 35.0711C49.5664 35.0807 49.6522 35.0568 49.7331 35.0092C49.7617 34.9854 49.7855 34.9521 49.7998 34.914C49.8141 34.8759 49.8188 34.8378 49.8188 34.7997C49.8188 34.7616 49.8188 34.7235 49.8045 34.6902C49.7903 34.6521 49.7712 34.6235 49.7426 34.5949C49.6664 34.5473 49.5855 34.5283 49.495 34.5378H49.3379V35.0711H49.4664H49.4712ZM49.6379 34.2378C49.7188 34.2378 49.8045 34.2426 49.8855 34.2616C49.9569 34.2759 50.0188 34.3045 50.076 34.3473C50.1331 34.3902 50.176 34.4426 50.1998 34.5092C50.2331 34.5902 50.2474 34.6711 50.2426 34.7568C50.2426 34.8616 50.2188 34.9521 50.1617 35.0378C50.0998 35.1235 50.0188 35.1759 49.9141 35.1997C50.0284 35.2092 50.1236 35.2568 50.1998 35.3473C50.276 35.4426 50.3093 35.5521 50.3045 35.6759C50.3045 35.7521 50.295 35.8283 50.2712 35.9045C50.2522 35.9759 50.2141 36.0378 50.1617 36.0949C50.1045 36.1521 50.0331 36.1949 49.9569 36.2235C49.8569 36.2568 49.7474 36.2759 49.6426 36.2711H48.9045V34.2426H49.6426" fill="white"></path><path d="M51.4712 35.5045L51.2664 34.5902L51.0617 35.5045H51.476H51.4712ZM51.5283 34.2378L52.095 36.2711H51.6474L51.5474 35.8378H50.976L50.876 36.2711H50.4331L50.9998 34.2378H51.5236" fill="white"></path><path d="M54.6903 35.5045L54.4856 34.5902L54.2808 35.5045H54.6951H54.6903ZM54.7475 34.2378L55.3141 36.2711H54.876L54.776 35.8378H54.2046L54.1046 36.2711H53.6379L54.2046 34.2378H54.7427" fill="white"></path><path d="M55.895 35.0472H55.8998L56.4426 34.2329H56.9093L56.3283 35.1043L56.976 36.2662H56.4902L56.0474 35.4281L55.8902 35.6615V36.2662H55.4569V34.2329H55.8902V35.0472" fill="white"></path><path d="M59.8189 34.571H59.057V35.0472H59.776V35.3853H59.057V35.9329H59.8522V36.2662H58.6284V34.2329H59.8237V34.5662" fill="white"></path><path d="M60.4902 34.2378V35.014H60.995V34.2378H61.4283V36.2711H60.995V35.3711H60.4902V36.2711H60.0569V34.2378H60.4902Z" fill="white"></path><path d="M62.1427 36.2711H61.7284V34.7378H62.1427V36.2711ZM62.1427 34.5473H61.7284V34.2188H62.1427V34.5521" fill="white"></path><path d="M63.0569 35.1141C63.1474 35.1236 63.2283 35.0998 63.3045 35.0474C63.3379 35.0141 63.3617 34.976 63.376 34.9332C63.3902 34.8903 63.395 34.8474 63.3902 34.7998C63.3902 34.6141 63.2902 34.5189 63.0902 34.5189H62.8855V35.1141H63.0617H63.0569ZM63.2426 34.2236C63.3188 34.2236 63.3902 34.2236 63.4664 34.2522C63.5379 34.276 63.6045 34.3093 63.6617 34.357C63.7141 34.4093 63.7569 34.4665 63.7807 34.5379C63.8093 34.6046 63.8188 34.676 63.8093 34.7522C63.8141 34.8713 63.7855 34.9855 63.7236 35.0855C63.6902 35.1284 63.6522 35.1665 63.6045 35.1951C63.5569 35.2236 63.5093 35.2427 63.4521 35.2522C63.5474 35.2522 63.6283 35.2903 63.6998 35.3522C63.7569 35.4236 63.7902 35.5046 63.795 35.5998V35.8713C63.795 35.9808 63.795 36.0617 63.814 36.1189C63.8188 36.1712 63.8474 36.2093 63.8902 36.2332V36.2522H63.4236C63.3998 36.2236 63.3855 36.1903 63.3807 36.1522C63.3807 36.1141 63.3807 36.076 63.3807 36.0379V35.6474C63.3807 35.576 63.3617 35.5141 63.3188 35.4617C63.2664 35.4093 63.1998 35.3855 63.1283 35.3951H62.895V36.257H62.4617V34.2427L63.2379 34.2284" fill="white"></path><path d="M48.5141 59.2331V56.3093C49.9237 56.3569 50.5094 56.6569 50.7332 56.8331C50.8237 56.8997 50.9046 56.9807 50.976 57.0664C51.0475 57.1521 51.1046 57.2474 51.1522 57.3521C51.1999 57.4521 51.2332 57.5616 51.2522 57.6712C51.2713 57.7807 51.2808 57.895 51.2713 58.0045C51.2713 58.4997 51.0999 58.7045 50.9141 58.8378C50.8284 58.8997 50.3141 59.2093 48.5141 59.2331ZM48.5141 50.2759V48.3045C48.8618 48.295 49.1903 48.3664 49.4998 48.5331C49.5237 48.5474 49.5475 48.5664 49.5713 48.5855C49.6189 48.6283 49.6618 48.6759 49.6999 48.7331C49.7618 48.8331 49.7951 48.9378 49.8046 49.0521C49.8046 49.1093 49.8046 49.1616 49.8046 49.2188C49.8141 49.2855 49.8094 49.3569 49.8046 49.4236C49.7951 49.4902 49.7808 49.5569 49.7522 49.6236C49.7284 49.6855 49.6951 49.7474 49.657 49.8045C49.6189 49.8616 49.5713 49.914 49.5237 49.9569C49.4094 50.0569 49.1284 50.214 48.5094 50.2616L48.5189 50.2807L48.5141 50.2759ZM55.4856 61.3664C55.2046 61.8331 54.8665 62.2474 54.4665 62.6188C54.0665 62.9902 53.6284 63.295 53.1427 63.5426C52.1856 64.0236 50.8665 64.2616 49.1808 64.2616H43.3284V51.5093H48.1713C49.1379 51.5093 49.857 51.3045 50.3284 50.895C50.4475 50.7902 50.5522 50.6759 50.6427 50.5474C50.7332 50.4188 50.8094 50.2855 50.8713 50.1378C50.9332 49.995 50.976 49.8426 51.0046 49.6902C51.0332 49.5378 51.0427 49.3807 51.0332 49.2236C51.0332 49.1188 51.0284 49.0093 51.0141 48.9045C50.9808 48.5997 50.8808 48.3188 50.7189 48.0616C50.6189 47.9093 50.4999 47.7759 50.3618 47.6569C50.2951 47.5997 50.2237 47.5474 50.1522 47.4997C49.876 47.3426 49.5808 47.2283 49.2713 47.1569C48.9618 47.0855 48.6475 47.0569 48.3284 47.0759H47.3046V50.2521H43.3332V43.2712H46.6141C48.5189 43.2712 49.9094 43.395 50.7903 43.6426C51.0808 43.714 51.3618 43.8045 51.6379 43.9188C51.9141 44.0331 52.176 44.1712 52.4332 44.3283C52.6856 44.4855 52.9284 44.6616 53.1522 44.8569C53.376 45.0521 53.5856 45.2664 53.776 45.495C53.9618 45.7188 54.1237 45.9569 54.2618 46.2093C54.4046 46.4616 54.5189 46.7236 54.6141 46.9997C54.7094 47.2712 54.776 47.5521 54.8237 47.8378C54.8665 48.1236 54.8856 48.4093 54.8808 48.6997C54.8856 49.0759 54.8475 49.4474 54.7665 49.8188C54.6856 50.1855 54.557 50.5378 54.3903 50.8759C54.1903 51.2378 53.9522 51.5759 53.676 51.8855C53.3999 52.195 53.0903 52.4712 52.7522 52.7093C52.5237 52.8712 52.2856 53.0093 52.0379 53.1378C51.0808 53.6188 49.7618 53.8569 48.076 53.8569H47.3094V60.4474H48.2951C49.9379 60.4474 51.0522 60.2378 51.6332 59.8188C51.776 59.714 51.8999 59.595 52.0141 59.4569C52.1284 59.3188 52.2189 59.1712 52.2951 59.014C52.3713 58.8569 52.4237 58.6902 52.457 58.514C52.4903 58.3426 52.5046 58.1664 52.4951 57.9902C52.5046 57.7855 52.4856 57.5807 52.4475 57.3807C52.4046 57.1807 52.3427 56.9855 52.2522 56.7997C52.1665 56.614 52.057 56.4426 51.9237 56.2807C51.7951 56.1188 51.6475 55.9807 51.4856 55.8521C50.8665 55.3664 49.8665 55.1045 48.4808 55.0616C50.1856 55.0236 51.5284 54.7474 52.5856 54.214C53.0618 53.9759 53.4999 53.6855 53.9094 53.3426C54.1094 53.4664 54.2999 53.6093 54.4808 53.7569C54.6618 53.9093 54.8332 54.0712 54.9903 54.2426C55.1522 54.414 55.2999 54.5997 55.4332 54.7902C55.5665 54.9807 55.6903 55.1855 55.7999 55.395C55.9094 55.6045 56.0046 55.8188 56.0856 56.0378C56.1665 56.2616 56.2332 56.4855 56.2856 56.714C56.3379 56.9426 56.3713 57.1759 56.3951 57.4093C56.4141 57.6426 56.4189 57.8807 56.4094 58.114C56.4094 58.3997 56.3951 58.6807 56.357 58.9616C56.3189 59.2426 56.2618 59.5188 56.1856 59.7902C56.1094 60.0616 56.0141 60.3283 55.8999 60.5902C55.7856 60.8474 55.6522 61.0997 55.4999 61.3378V61.3474L55.4856 61.3664ZM56.5284 54.2855C56.1046 53.6474 55.5808 53.095 54.9665 52.6331L54.7522 52.4759C55.0237 52.1569 55.257 51.8093 55.4475 51.4378C55.6618 51.014 55.8237 50.5712 55.9332 50.1093C56.0427 49.6474 56.0951 49.1759 56.0903 48.6997C56.0951 48.3426 56.0713 47.9855 56.0141 47.6283C55.957 47.2712 55.8665 46.9283 55.7522 46.5855C55.6332 46.2474 55.4856 45.9188 55.3094 45.6045C55.1332 45.2902 54.9332 44.995 54.7046 44.7188C54.4713 44.4426 54.2237 44.1855 53.9522 43.9474C53.6808 43.7093 53.3903 43.495 53.0856 43.3045C52.7808 43.114 52.4618 42.9474 52.1284 42.8045C51.7951 42.6616 51.4522 42.5521 51.1046 42.4616C50.1189 42.1855 48.6379 42.0474 46.6094 42.0474H42.1094V65.4759H49.176C51.0713 65.4759 52.5475 65.1997 53.6856 64.6236C53.976 64.4759 54.257 64.3093 54.5237 64.1236C54.7903 63.9378 55.0427 63.7331 55.2856 63.514C55.5237 63.295 55.7475 63.0569 55.9522 62.8045C56.157 62.5521 56.3475 62.2855 56.5141 62.0093C56.6951 61.7188 56.8522 61.4188 56.9903 61.1093C57.1284 60.7997 57.2427 60.4759 57.3379 60.1521C57.4284 59.8236 57.4998 59.4902 57.5427 59.1521C57.5903 58.814 57.6094 58.4759 57.6046 58.1331C57.6094 57.795 57.5951 57.4569 57.5522 57.1188C57.5094 56.7807 57.4427 56.4521 57.3522 56.1236C57.2618 55.795 57.1475 55.4807 57.0094 55.1664C56.8713 54.8569 56.7094 54.5569 56.5284 54.2712" fill="white"></path><path d="M47.4807 70.2188C47.5045 70.1427 47.5379 70.076 47.5903 70.0188C47.6426 69.9617 47.7045 69.9141 47.776 69.8855C47.8569 69.8522 47.9379 69.8379 48.0236 69.8379C48.0903 69.8379 48.1569 69.8474 48.2236 69.8665C48.2903 69.8855 48.3474 69.9188 48.3998 69.9665C48.4522 70.0093 48.4903 70.0665 48.5188 70.1284C48.5522 70.1998 48.5665 70.2712 48.5617 70.3522C48.5617 70.4236 48.5522 70.495 48.5236 70.5617C48.4998 70.6188 48.4664 70.676 48.4284 70.7236C48.3855 70.7712 48.3426 70.8141 48.2903 70.8522C48.2379 70.8903 48.1855 70.9284 48.1284 70.9617L47.9617 71.0617C47.9093 71.0903 47.8569 71.1284 47.8093 71.1665C47.7665 71.1998 47.7236 71.2426 47.6903 71.2855C47.6569 71.3284 47.6331 71.3807 47.6284 71.4331H48.5426V71.6236H47.3855C47.3903 71.5284 47.4093 71.4379 47.4426 71.3522C47.4712 71.2807 47.5045 71.2188 47.5522 71.1569C47.595 71.0998 47.6474 71.0522 47.7045 71.0093C47.7617 70.9665 47.8188 70.9284 47.8807 70.8903L48.076 70.7617C48.1284 70.7284 48.176 70.6855 48.2141 70.6427C48.2522 70.6046 48.2807 70.5569 48.2998 70.5093C48.3188 70.4569 48.3284 70.4046 48.3284 70.3522C48.3284 70.3046 48.3188 70.2617 48.2998 70.2188C48.2807 70.1807 48.2569 70.1427 48.2236 70.1141C48.1903 70.0855 48.1569 70.0665 48.1141 70.0522C48.0712 70.0379 48.0284 70.0284 47.9807 70.0284C47.9236 70.0284 47.8712 70.0379 47.8188 70.0665C47.776 70.0903 47.7379 70.1236 47.7093 70.1665C47.6807 70.2093 47.6617 70.2569 47.6474 70.3093C47.6331 70.3617 47.6284 70.4141 47.6284 70.4712H47.4141C47.4093 70.3855 47.4141 70.3046 47.4426 70.2236" fill="white"></path><path d="M49.0046 70.9712C49.0046 71.0522 49.0236 71.1284 49.0427 71.2046C49.0617 71.276 49.0998 71.3379 49.1522 71.3903C49.1808 71.4141 49.2141 71.4331 49.2522 71.4474C49.2903 71.4617 49.3236 71.4665 49.3665 71.4665C49.4093 71.4665 49.4427 71.4617 49.4808 71.4474C49.5189 71.4331 49.5474 71.4141 49.5808 71.3903C49.6331 71.3379 49.6665 71.276 49.6903 71.2046C49.7141 71.1284 49.7284 71.0522 49.7284 70.9712C49.7284 70.8855 49.7284 70.8141 49.7284 70.7427V70.595C49.7284 70.4903 49.7141 70.3855 49.6855 70.2807C49.6712 70.2331 49.6522 70.1903 49.6236 70.1474C49.5951 70.1093 49.5617 70.0807 49.5189 70.0569C49.4712 70.0331 49.4189 70.0236 49.3665 70.0236C49.3141 70.0236 49.2617 70.0331 49.2141 70.0569C49.1712 70.0807 49.1379 70.1093 49.1093 70.1474C49.0808 70.1903 49.0617 70.2331 49.0474 70.2807C49.0331 70.3331 49.0236 70.3855 49.0141 70.4379C49.0141 70.4903 49.0141 70.5427 49.0141 70.595V70.9665H49.0093L49.0046 70.9712ZM48.776 70.5427C48.776 70.4712 48.7855 70.4046 48.7998 70.3379C48.8141 70.2712 48.8331 70.2093 48.857 70.1474C48.8808 70.0903 48.9141 70.0379 48.9617 69.9903C49.0093 69.9427 49.0617 69.9046 49.1236 69.8807C49.2808 69.8236 49.4379 69.8236 49.5951 69.8807C49.657 69.9046 49.7093 69.9427 49.757 69.9903C49.7998 70.0379 49.8379 70.0903 49.8617 70.1474C49.8855 70.2093 49.9046 70.276 49.9189 70.3379C49.9331 70.4046 49.9427 70.476 49.9427 70.5427V70.9522C49.9427 71.0236 49.9331 71.0903 49.9189 71.1569C49.9046 71.2236 49.8855 71.2855 49.8617 71.3474C49.8379 71.4046 49.8046 71.4569 49.757 71.5046C49.7093 71.5522 49.657 71.5855 49.5951 71.6093C49.4379 71.6617 49.276 71.6617 49.1189 71.6093C49.057 71.5855 49.0046 71.5522 48.957 71.5046C48.9141 71.4569 48.876 71.4046 48.8522 71.3474C48.8284 71.2855 48.8093 71.2236 48.7951 71.1569C48.7808 71.0903 48.7712 71.0188 48.7712 70.9522V70.5427" fill="white"></path><path d="M50.6855 71.6235V70.3425H50.2189V70.1711C50.276 70.1711 50.3379 70.1663 50.3951 70.1568C50.4474 70.1473 50.4998 70.133 50.5474 70.1044C50.5951 70.0806 50.6332 70.0425 50.6617 69.9997C50.6951 69.9473 50.7189 69.8949 50.7236 69.833H50.8855V71.6187H50.6808" fill="white"></path><path d="M52.1855 70.1427L51.595 71.0141H52.1903V70.1427H52.1855ZM52.6284 71.0141V71.2046H52.3807V71.6236H52.1807V71.2046H51.4045V70.9998L52.2141 69.8379H52.3855V71.0141H52.6284Z" fill="white"></path><path d="M57.6808 36.4522H57.7808C57.8094 36.4522 57.8427 36.4569 57.8713 36.4665C57.8998 36.476 57.9284 36.4903 57.9522 36.5093C57.976 36.5284 57.9951 36.5474 58.0094 36.576C58.0236 36.6046 58.0332 36.6331 58.0332 36.6665C58.0332 36.7046 58.0284 36.7427 58.0094 36.776C57.9903 36.8093 57.9665 36.8379 57.9379 36.8617C57.8522 36.9141 57.7617 36.9379 57.6617 36.9284C57.5998 36.9284 57.5427 36.9236 57.4808 36.9093C57.4379 36.9046 57.3998 36.8903 57.3617 36.8712L57.4189 36.7427C57.4474 36.7569 57.476 36.7665 57.5094 36.7712C57.5474 36.7808 57.5855 36.7855 57.6236 36.7855C57.6617 36.7855 57.6998 36.776 57.7284 36.7569C57.757 36.7427 57.7713 36.7188 57.7713 36.6903C57.7713 36.6617 57.757 36.6379 57.7332 36.6236C57.7046 36.6046 57.6713 36.595 57.6379 36.595H57.5855L57.5379 36.6046L57.4713 36.5474L57.6379 36.2998H57.7998L57.6855 36.4665V36.4522H57.6808ZM57.4094 35.695C57.4094 35.7379 57.4094 35.7808 57.4094 35.8236C57.4141 35.8617 57.4284 35.895 57.4522 35.9236C57.476 35.9522 57.5046 35.9712 57.5427 35.9855C57.5855 35.9998 57.6332 36.0093 57.6808 36.0093C57.7474 36.0093 57.8046 35.9903 57.857 35.9474C57.8855 35.9236 57.9046 35.895 57.9189 35.8617C57.9332 35.8284 57.9379 35.795 57.9332 35.7569C57.9332 35.7141 57.9284 35.676 57.9141 35.6379C57.8998 35.6046 57.8808 35.5712 57.8522 35.5474C57.8141 35.5188 57.776 35.495 57.7332 35.476C57.676 35.4522 57.6141 35.4284 57.5522 35.4093C57.4665 35.3855 57.3855 35.3522 57.3046 35.3093C57.2379 35.276 57.1808 35.2331 57.1284 35.1855C57.0808 35.1379 57.0474 35.0808 57.0236 35.0188C56.9998 34.9474 56.9903 34.8712 56.9903 34.795C56.9855 34.7093 56.9951 34.6284 57.0284 34.5474C57.0617 34.4665 57.1046 34.3998 57.1713 34.3427C57.2427 34.2903 57.3189 34.2522 57.4046 34.2236C57.4903 34.1998 57.576 34.1903 57.6665 34.195C57.757 34.195 57.8427 34.2046 57.9284 34.2236C58.0046 34.2427 58.076 34.2712 58.1379 34.3188C58.1998 34.3617 58.2427 34.4188 58.276 34.4903C58.3094 34.5665 58.3284 34.6522 58.3236 34.7379V34.795H57.9141C57.9189 34.7141 57.8998 34.6379 57.8617 34.5712C57.8427 34.5427 57.8141 34.5236 57.7808 34.5093C57.7474 34.495 57.7141 34.4903 57.6808 34.495C57.6379 34.495 57.5998 34.4998 57.5617 34.5141C57.5332 34.5236 57.5046 34.5427 57.4855 34.5665C57.4665 34.5903 57.4522 34.6141 57.4474 34.6427C57.4474 34.6712 57.4474 34.6998 57.4474 34.7331C57.4474 34.7903 57.4617 34.8427 57.4903 34.8903C57.5379 34.9474 57.5998 34.9855 57.6713 35.0093L58.0046 35.1427C58.076 35.1712 58.1427 35.2046 58.2046 35.2474C58.2522 35.2808 58.2951 35.3188 58.3284 35.3665C58.357 35.4093 58.3808 35.4569 58.3903 35.5046C58.4046 35.5617 58.4094 35.6188 58.4094 35.676C58.4189 35.7665 58.4046 35.8522 58.3665 35.9331C58.3332 36.0141 58.2808 36.0855 58.2094 36.1427C58.1284 36.195 58.0427 36.2331 57.9474 36.2617C57.8522 36.2855 57.757 36.295 57.6617 36.2903C57.5665 36.2998 57.476 36.2903 57.3855 36.2665C57.2951 36.2379 57.2141 36.1998 57.1379 36.1427C57.0808 36.0855 57.0427 36.0189 57.0141 35.9427C56.9855 35.8665 56.976 35.7903 56.9808 35.7093V35.6284H57.4141V35.695" fill="white"></path><path d="M30.7095 11.3384L31.1143 12.0717L28.9 13.2955L29.2476 13.9289L31.2143 12.8431L31.6143 13.5717L29.6476 14.6574L30.1333 15.5336L29.2714 16.0098L27.6333 13.0431L30.7095 11.3431V11.3384Z" fill="white"></path><path d="M36.3001 12.6237L35.762 12.1523L33.8286 12.938L33.7715 13.6523L32.7905 14.0523L33.1334 10.2571L34.3905 9.74756L37.281 12.2285L36.3048 12.6237H36.3001ZM33.8953 12.1142L35.1334 11.6095L34.0143 10.6333L33.8953 12.1142Z" fill="white"></path><path d="M41.3476 10.1764L40.7619 7.81927L41.7095 7.58594L42.5238 10.8764L41.1286 11.224L38.6048 9.34784L39.1905 11.705L38.2381 11.9431L37.4238 8.6526L38.8238 8.30499L41.3476 10.1812V10.1764Z" fill="white"></path><path d="M46.119 6.96208L50.2 6.79541L50.2333 7.62874L48.6857 7.69065L48.7904 10.243L47.8095 10.2811L47.7047 7.72874L46.1524 7.79065L46.119 6.95731V6.96208Z" fill="white"></path><path d="M51.3905 8.49526C51.4857 7.37622 52.3143 6.78098 53.7381 6.90479C55.1572 7.0286 55.8762 7.75717 55.781 8.87145C55.6857 9.9905 54.8524 10.5953 53.4334 10.4715C52.0096 10.3476 51.2953 9.61907 51.3905 8.49526ZM54.7572 8.78574C54.8096 8.20003 54.5048 7.80955 53.6667 7.73812C52.8334 7.66669 52.4667 7.9905 52.4191 8.58574C52.3667 9.18098 52.6762 9.57145 53.5048 9.64288C54.3381 9.71431 54.7096 9.38098 54.7619 8.7905L54.7572 8.78574Z" fill="white"></path><path d="M61.6237 8.36681L59.6333 9.38109L60.8809 11.6763L59.6761 11.4049L58.8095 9.8049L57.8618 10.2859L57.7095 10.9573L56.7523 10.7382L57.4999 7.42871L58.4618 7.643L58.1285 9.12871L60.1952 8.03823L61.6333 8.36204L61.6237 8.36681Z" fill="white"></path><path d="M66.3285 9.99553L66.0666 10.7193L63.6856 9.85744L63.4999 10.367L65.7904 11.1955L65.5285 11.9193L63.238 11.0908L63.0523 11.6003L65.4332 12.4622L65.1713 13.186L61.8666 11.9908L63.019 8.80029L66.3237 9.99553H66.3285Z" fill="white"></path><path d="M69.7618 14.3526L70.8761 12.1907L71.7476 12.6383L70.1904 15.6526L68.9095 14.9907L68.2476 11.9097L67.1333 14.0716L66.2571 13.6193L67.8142 10.605L69.0999 11.2669L69.7618 14.3478V14.3526Z" fill="white"></path><path d="M27.3953 85.4763C27.2476 85.7192 27.3953 86.0239 28.1572 86.4858C28.8572 86.9049 29.0953 86.9001 29.2048 86.7192C29.3334 86.5097 29.2238 86.3906 28.3953 85.8144C27.2667 85.024 26.8905 84.4763 27.2762 83.8335C27.6429 83.2287 28.4619 83.3478 29.4667 83.9525C30.5857 84.6239 31.0238 85.3525 30.6619 86.0144L29.781 85.4859C29.9334 85.2287 29.7143 84.962 29.0619 84.5716C28.4429 84.2001 28.2429 84.2192 28.1476 84.3763C28.0381 84.5573 28.1476 84.6954 28.8953 85.2335C29.9143 85.9573 30.5619 86.4478 30.1048 87.2097C29.6572 87.9525 28.8381 87.7573 27.8048 87.1335C26.6286 86.4239 26.0905 85.7382 26.5096 84.9478L27.3905 85.4811L27.3953 85.4763Z" fill="white"></path><path d="M31.5238 87.1909C31.9714 86.1576 32.9428 85.8623 34.2571 86.429C35.5667 86.9957 36.0143 87.9147 35.5714 88.9433C35.1238 89.9766 34.1428 90.2814 32.8333 89.7147C31.519 89.148 31.0762 88.229 31.5238 87.1909ZM34.6286 88.5385C34.8619 87.9957 34.6952 87.5338 33.9238 87.1957C33.1571 86.8623 32.7047 87.0576 32.4714 87.6004C32.2333 88.1481 32.4047 88.6147 33.1667 88.948C33.9333 89.2814 34.3952 89.0814 34.6286 88.5338V88.5385Z" fill="white"></path><path d="M39.3049 88.2194C40.5096 88.5575 41.043 89.2623 40.9049 90.129L39.9001 89.848C39.9191 89.529 39.6858 89.1909 39.0811 89.0242C38.3811 88.829 37.9477 89.0766 37.7906 89.648C37.6287 90.2242 37.8763 90.6671 38.5715 90.8623C39.1763 91.029 39.5525 90.8623 39.7001 90.5718L40.7049 90.8528C40.3715 91.6718 39.5477 92.0004 38.343 91.6671C37.0334 91.3004 36.4858 90.4909 36.7953 89.3718C37.1096 88.2575 37.9953 87.8528 39.3049 88.2194Z" fill="white"></path><path d="M43.3953 89.2289L42.7953 92.5623L41.8286 92.3861L42.4286 89.0527L43.3953 89.2289Z" fill="white"></path><path d="M44.419 91.1481C44.5095 90.029 45.3333 89.4338 46.7571 89.5481C48.1762 89.6624 48.9 90.3909 48.8047 91.5052C48.7143 92.6243 47.8857 93.229 46.4666 93.1147C45.0428 93.0005 44.3238 92.2719 44.419 91.1481ZM47.7857 91.4243C47.8333 90.8386 47.5285 90.4528 46.6905 90.3814C45.8571 90.3148 45.4952 90.6433 45.4428 91.2338C45.3952 91.829 45.7047 92.2148 46.5333 92.2862C47.3666 92.3528 47.7381 92.0195 47.7857 91.4243Z" fill="white"></path><path d="M51.119 92.048C51.1333 92.3337 51.4238 92.5051 52.3143 92.4575C53.1286 92.4146 53.3238 92.2766 53.3095 92.0623C53.2952 91.8146 53.1428 91.7813 52.1333 91.767C50.7571 91.7432 50.1333 91.5004 50.0952 90.748C50.0571 90.0432 50.8047 89.6813 51.9762 89.6242C53.2809 89.5575 54.0524 89.9099 54.119 90.6623L53.0952 90.7146C53.0809 90.4146 52.7476 90.3194 51.9857 90.3575C51.2666 90.3956 51.1095 90.5242 51.119 90.7051C51.1285 90.9146 51.2952 90.9718 52.219 91.0004C53.4666 91.0289 54.2809 91.0718 54.3285 91.9623C54.3714 92.8289 53.5857 93.1242 52.3809 93.1861C51.0095 93.2575 50.1762 92.9861 50.0857 92.0956L51.1143 92.0432L51.119 92.048Z" fill="white"></path><path d="M55.7429 92.0429L56.681 91.9048L56.7858 92.6334L55.8477 92.7715L55.7382 92.0429H55.7429Z" fill="white"></path><path d="M59.4809 88.5382C60.6952 88.243 61.5095 88.5953 61.8143 89.4191L60.8 89.6668C60.6619 89.3763 60.2905 89.2001 59.6809 89.3477C58.9762 89.5192 58.719 89.9477 58.8571 90.5287C59 91.1096 59.4333 91.3763 60.1333 91.2049C60.7428 91.0572 60.9905 90.7239 60.9762 90.3953L61.9905 90.1477C62.1 91.0239 61.5428 91.7191 60.3286 92.0144C59.0047 92.3382 58.1286 91.9001 57.8524 90.7715C57.5762 89.6477 58.1524 88.862 59.4762 88.5382H59.4809Z" fill="white"></path><path d="M63.1524 89.3907C62.7382 88.3431 63.2191 87.4431 64.5477 86.9193C65.8715 86.3955 66.8429 86.7288 67.2524 87.7717C67.6667 88.8193 67.1858 89.7288 65.862 90.2526C64.5334 90.7764 63.5667 90.4431 63.1524 89.3907ZM66.3001 88.1478C66.0858 87.6002 65.6382 87.3859 64.8572 87.6955C64.081 88.0002 63.8953 88.4574 64.1143 89.0097C64.3334 89.5669 64.7858 89.7764 65.5572 89.4717C66.3334 89.1669 66.5191 88.7002 66.3001 88.1478Z" fill="white"></path><path d="M69.3381 88.6907L67.6333 85.7574L68.9571 84.986L71.1095 86.3383L70.9952 83.8002L72.319 83.0288L74.0238 85.9621L73.1762 86.4526L71.9428 84.3288L72.0762 87.0955L71.2904 87.5526L68.9524 86.0717L70.1904 88.1955L69.3381 88.6907Z" fill="white"></path><path d="M23.019 81.8382C13.9952 74.1811 8.2666 62.7573 8.2666 50.0001C8.2666 37.243 14.2999 25.2144 23.738 17.562" stroke="#ED5E27" stroke-miterlimit="10"></path><path d="M76.2666 17.5669C85.7047 25.2193 91.7333 36.905 91.7333 50.0002C91.7333 63.0955 86.0047 74.1859 76.9809 81.8431" stroke="#ED5E27" stroke-miterlimit="10"></path></g><defs><linearGradient id="paint0_linear_101_22075" x1="86.0001" y1="71.6357" x2="34.5882" y2="29.4055" gradientUnits="userSpaceOnUse"><stop offset="0.19" stop-color="#025D8E"></stop><stop offset="0.5" stop-color="#2FADE3"></stop><stop offset="1" stop-color="#13416D"></stop></linearGradient><linearGradient id="paint1_linear_101_22075" x1="34.6602" y1="38.6174" x2="43.3659" y2="38.6174" gradientUnits="userSpaceOnUse"><stop stop-color="#236698"></stop><stop offset="0.5" stop-color="#2FADE3"></stop><stop offset="1" stop-color="#236698"></stop></linearGradient><linearGradient id="paint2_linear_101_22075" x1="46.588" y1="38.7811" x2="51.838" y2="38.7811" gradientUnits="userSpaceOnUse"><stop stop-color="#236698"></stop><stop offset="0.5" stop-color="#2FADE3"></stop><stop offset="1" stop-color="#236698"></stop></linearGradient><linearGradient id="paint3_linear_101_22075" x1="48.7411" y1="45.5815" x2="51.228" y2="45.5815" gradientUnits="userSpaceOnUse"><stop stop-color="#236698"></stop><stop offset="0.5" stop-color="#2FADE3"></stop><stop offset="1" stop-color="#236698"></stop></linearGradient><linearGradient id="paint4_linear_101_22075" x1="56.6851" y1="57.0106" x2="40.0375" y2="46.9721" gradientUnits="userSpaceOnUse"><stop stop-color="#236698"></stop><stop offset="0.5" stop-color="#2FADE3"></stop><stop offset="1" stop-color="#236698"></stop></linearGradient><linearGradient id="paint5_linear_101_22075" x1="67.2257" y1="41.4563" x2="60.2486" y2="48.5562" gradientUnits="userSpaceOnUse"><stop stop-color="#236698"></stop><stop offset="0.5" stop-color="#2FADE3"></stop><stop offset="1" stop-color="#236698"></stop></linearGradient><linearGradient id="paint6_linear_101_22075" x1="47.2179" y1="63.1014" x2="53.8142" y2="63.1014" gradientUnits="userSpaceOnUse"><stop stop-color="#236698"></stop><stop offset="0.5" stop-color="#2FADE3"></stop><stop offset="1" stop-color="#236698"></stop></linearGradient><linearGradient id="paint7_linear_101_22075" x1="42.5554" y1="60.1866" x2="51.4273" y2="53.6887" gradientUnits="userSpaceOnUse"><stop stop-color="#236698"></stop><stop offset="0.5" stop-color="#2FADE3"></stop><stop offset="1" stop-color="#236698"></stop></linearGradient><linearGradient id="paint8_linear_101_22075" x1="27.9286" y1="53.6073" x2="33.3765" y2="45.2215" gradientUnits="userSpaceOnUse"><stop stop-color="#236698"></stop><stop offset="0.5" stop-color="#2FADE3"></stop><stop offset="1" stop-color="#236698"></stop></linearGradient><linearGradient id="paint9_linear_101_22075" x1="35.1491" y1="66.4796" x2="44.1045" y2="66.4796" gradientUnits="userSpaceOnUse"><stop stop-color="#236698"></stop><stop offset="0.5" stop-color="#2FADE3"></stop><stop offset="1" stop-color="#236698"></stop></linearGradient><linearGradient id="paint10_linear_101_22075" x1="73.2034" y1="62.4586" x2="66.7158" y2="55.4821" gradientUnits="userSpaceOnUse"><stop stop-color="#236698"></stop><stop offset="0.5" stop-color="#2FADE3"></stop><stop offset="1" stop-color="#236698"></stop></linearGradient><clipPath id="clip0_101_22075"><rect width="100" height="100" fill="white"></rect></clipPath></defs></svg>