<svg xmlns="http://www.w3.org/2000/svg" width="100" height="100" viewBox="0 0 100 100" fill="none"><g clip-path="url(#clip0_101_22087)"><path d="M50 100C77.6142 100 100 77.6142 100 50C100 22.3858 77.6142 0 50 0C22.3858 0 0 22.3858 0 50C0 77.6142 22.3858 100 50 100Z" fill="#283791"></path><path d="M50 2.53333C76.1714 2.53333 97.4667 23.8286 97.4667 50C97.4667 76.1714 76.1714 97.4667 50 97.4667C23.8286 97.4667 2.53333 76.1714 2.53333 50C2.53333 23.8286 23.8286 2.53333 50 2.53333ZM50 0C22.3857 0 0 22.3857 0 50C0 77.6143 22.3857 100 50 100C77.6143 100 100 77.6143 100 50C100 22.3857 77.6143 0 50 0Z" fill="black"></path><path d="M49.9999 16.4761C31.4666 16.4761 16.4761 31.4666 16.4761 49.9999C16.4761 68.5332 31.4666 83.5237 49.9999 83.5237C68.5332 83.5237 83.5237 68.5332 83.5237 49.9999C83.5237 31.4666 68.5332 16.4761 49.9999 16.4761ZM49.9999 78.7332C34.1475 78.7332 21.2666 65.8523 21.2666 49.9999C21.2666 34.1475 34.1475 21.2666 49.9999 21.2666C65.8523 21.2666 78.7332 34.1475 78.7332 49.9999C78.7332 65.8523 65.8523 78.7332 49.9999 78.7332Z" fill="#010101"></path><path d="M78.7333 49.9999C78.7333 65.8523 65.8523 78.7333 49.9999 78.7333C34.1476 78.7333 21.2666 65.8523 21.2666 49.9999C21.2666 34.1476 34.1476 21.2666 49.9999 21.2666C65.8523 21.2666 78.7333 34.1476 78.7333 49.9999Z" fill="#283791"></path><path d="M62.5951 40.038L65.1332 68.5808C63.6951 69.7284 62.2142 70.6856 60.5856 71.4999L58.5761 48.6094L54.6951 56.9427V45.5903L62.2618 29.4046C63.6522 30.2665 64.9427 31.2237 66.1903 32.3237L62.5999 40.0332L62.5951 40.038ZM67.957 34.1475L65.7046 39.0332C67.8618 42.0999 69.1522 45.9284 69.1522 49.9999C69.1522 53.3999 68.2427 56.6094 66.7094 59.3856L67.3332 66.5237C71.4522 62.2141 73.9427 56.4189 73.9427 49.9999C73.9427 43.9189 71.6903 38.3618 67.957 34.1475ZM34.2903 39.0332L32.038 34.1475C28.2999 38.3618 26.0522 43.9189 26.0522 49.9999C26.0522 56.4189 28.5427 62.2094 32.6618 66.5237L33.2856 59.3903C31.7522 56.6142 30.8427 53.4046 30.8427 50.0046C30.8427 45.9332 32.138 42.1046 34.2903 39.038V39.0332ZM37.738 29.4094C36.3475 30.2713 35.057 31.2284 33.8094 32.3284L37.3999 40.038L34.8618 68.5808C36.2999 69.7284 37.7808 70.6856 39.4094 71.4999L41.4189 48.6094L45.2999 56.9427V45.5903L37.7332 29.4046L37.738 29.4094ZM52.4427 69.0141V30.9856C54.4522 31.2237 56.3713 31.7999 58.0951 32.6142L60.1046 28.3046C57.038 26.8665 53.638 26.0522 49.9999 26.0522C46.3618 26.0522 42.9618 26.8665 39.8951 28.3046L41.9046 32.6142C43.6284 31.7999 45.5427 31.2237 47.557 30.9856V69.0094C45.6427 68.7713 43.8713 68.2427 42.1951 67.4761L41.7618 72.5046C44.2999 73.4142 47.0761 73.9427 49.9999 73.9427C52.9237 73.9427 55.6999 73.4142 58.238 72.5046L57.8094 67.4761C56.1332 68.2427 54.3142 68.7713 52.4475 69.0094L52.4427 69.0141Z" fill="white"></path><path d="M30.7095 11.3384L31.1143 12.0717L28.9 13.2955L29.2476 13.9289L31.2143 12.8431L31.6143 13.5717L29.6476 14.6574L30.1333 15.5336L29.2714 16.0098L27.6333 13.0431L30.7095 11.3431V11.3384Z" fill="white"></path><path d="M36.3001 12.6237L35.762 12.1523L33.8286 12.938L33.7715 13.6523L32.7905 14.0523L33.1334 10.2571L34.3905 9.74756L37.281 12.2285L36.3048 12.6237H36.3001ZM33.8953 12.1142L35.1334 11.6095L34.0143 10.6333L33.8953 12.1142Z" fill="white"></path><path d="M41.3476 10.1764L40.7619 7.81927L41.7095 7.58594L42.5238 10.8764L41.1286 11.224L38.6048 9.34784L39.1905 11.705L38.2381 11.9431L37.4238 8.6526L38.8238 8.30499L41.3476 10.1812V10.1764Z" fill="white"></path><path d="M46.1189 6.96208L50.1998 6.79541L50.2332 7.62874L48.6856 7.69065L48.7903 10.243L47.8094 10.2811L47.7046 7.72874L46.1522 7.79065L46.1189 6.95731V6.96208Z" fill="white"></path><path d="M51.3905 8.49526C51.4857 7.37622 52.3143 6.78098 53.7381 6.90479C55.1572 7.0286 55.8762 7.75717 55.781 8.87145C55.6857 9.9905 54.8524 10.5953 53.4334 10.4715C52.0096 10.3476 51.2953 9.61907 51.3905 8.49526ZM54.7572 8.78574C54.8096 8.20003 54.5048 7.80955 53.6667 7.73812C52.8334 7.66669 52.4667 7.9905 52.4191 8.58574C52.3667 9.18098 52.6762 9.57145 53.5048 9.64288C54.3381 9.71431 54.7096 9.38098 54.7619 8.7905L54.7572 8.78574Z" fill="white"></path><path d="M61.6239 8.36681L59.6334 9.38109L60.881 11.6763L59.6763 11.4049L58.8096 9.8049L57.862 10.2859L57.7096 10.9573L56.7524 10.7382L57.5001 7.42871L58.462 7.643L58.1286 9.12871L60.1953 8.03823L61.6334 8.36204L61.6239 8.36681Z" fill="white"></path><path d="M66.3286 9.99541L66.0667 10.7192L63.6858 9.85732L63.5 10.3668L65.7905 11.1954L65.5286 11.9192L63.2381 11.0906L63.0524 11.6002L65.4334 12.4573L65.1715 13.1811L61.8667 11.9859L63.0191 8.79541L66.3238 9.99065L66.3286 9.99541Z" fill="white"></path><path d="M69.7618 14.3526L70.8761 12.1907L71.7476 12.6383L70.1904 15.6526L68.9095 14.9907L68.2476 11.9097L67.1333 14.0716L66.2571 13.6193L67.8142 10.605L69.0999 11.2669L69.7618 14.3478V14.3526Z" fill="white"></path><path d="M27.3953 85.4763C27.2476 85.7192 27.3953 86.0239 28.1572 86.4858C28.8572 86.9049 29.0953 86.9001 29.2048 86.7192C29.3334 86.5097 29.2238 86.3906 28.3953 85.8144C27.2667 85.024 26.8905 84.4763 27.2762 83.8335C27.6429 83.2287 28.4619 83.3478 29.4667 83.9525C30.5857 84.6239 31.0238 85.3525 30.6619 86.0144L29.781 85.4859C29.9334 85.2287 29.7143 84.962 29.0619 84.5716C28.4429 84.2001 28.2429 84.2192 28.1476 84.3763C28.0381 84.5573 28.1476 84.6954 28.8953 85.2335C29.9143 85.9573 30.5619 86.4478 30.1048 87.2097C29.6572 87.9525 28.8381 87.7573 27.8048 87.1335C26.6286 86.4239 26.0905 85.7382 26.5096 84.9478L27.3905 85.4811L27.3953 85.4763Z" fill="white"></path><path d="M31.5238 87.1909C31.9714 86.1576 32.9428 85.8623 34.2571 86.429C35.5667 86.9957 36.0143 87.9147 35.5714 88.9433C35.1238 89.9766 34.1428 90.2814 32.8333 89.7147C31.519 89.148 31.0762 88.229 31.5238 87.1909ZM34.6286 88.5385C34.8619 87.9957 34.6952 87.5338 33.9238 87.1957C33.1571 86.8623 32.7047 87.0576 32.4714 87.6004C32.2333 88.1481 32.4047 88.6147 33.1667 88.948C33.9333 89.2814 34.3952 89.0814 34.6286 88.5338V88.5385Z" fill="white"></path><path d="M39.2952 88.2146C40.4952 88.5527 41.0333 89.2574 40.8952 90.1241L39.8905 89.8431C39.9095 89.5241 39.6762 89.186 39.0714 89.0193C38.3714 88.8241 37.9381 89.0717 37.7762 89.6431C37.6143 90.2193 37.8619 90.6622 38.5571 90.8574C39.1619 91.0241 39.5381 90.8574 39.6857 90.5669L40.6905 90.8479C40.3571 91.6669 39.5333 91.9955 38.3286 91.6622C37.019 91.2955 36.4714 90.486 36.7809 89.3669C37.0952 88.2527 37.9809 87.8479 39.2905 88.2146H39.2952Z" fill="white"></path><path d="M43.3953 89.2289L42.7953 92.5623L41.8286 92.3861L42.4286 89.0527L43.3953 89.2289Z" fill="white"></path><path d="M44.4191 91.1481C44.5096 90.029 45.3334 89.4338 46.7572 89.5481C48.1763 89.6624 48.9001 90.3909 48.8049 91.5052C48.7144 92.6243 47.8858 93.229 46.462 93.1147C45.0382 93.0005 44.3191 92.2719 44.4144 91.1481H44.4191ZM47.7858 91.4243C47.8334 90.8386 47.5287 90.4528 46.6906 90.3814C45.8572 90.3148 45.4953 90.6433 45.443 91.2338C45.3953 91.829 45.7049 92.2148 46.5334 92.2862C47.3668 92.3528 47.7382 92.0195 47.7858 91.4243Z" fill="white"></path><path d="M51.119 92.048C51.1333 92.3337 51.4238 92.5051 52.3143 92.4575C53.1286 92.4146 53.3238 92.2766 53.3095 92.0623C53.2952 91.8146 53.1428 91.7813 52.1333 91.767C50.7571 91.7432 50.1333 91.5004 50.0952 90.748C50.0571 90.0432 50.8047 89.6813 51.9762 89.6242C53.2809 89.5575 54.0524 89.9099 54.119 90.6623L53.0952 90.7146C53.0809 90.4146 52.7476 90.3194 51.9857 90.3575C51.2666 90.3956 51.1095 90.5242 51.119 90.7051C51.1285 90.9146 51.2952 90.9718 52.219 91.0004C53.4666 91.0289 54.2809 91.0718 54.3285 91.9623C54.3714 92.8289 53.5857 93.1242 52.3809 93.1861C51.0095 93.2575 50.1762 92.9861 50.0857 92.0956L51.1143 92.0432L51.119 92.048Z" fill="white"></path><path d="M55.7428 92.0434L56.6809 91.9053L56.7857 92.6338L55.8476 92.7719L55.738 92.0434H55.7428Z" fill="white"></path><path d="M59.4811 88.5387C60.6953 88.2434 61.5096 88.5958 61.8144 89.4196L60.8001 89.6673C60.662 89.3768 60.2906 89.2006 59.6811 89.3482C58.9763 89.5196 58.7192 89.9482 58.8572 90.5292C59.0001 91.1101 59.4334 91.3768 60.1334 91.2054C60.743 91.0577 60.9906 90.7244 60.9763 90.3958L61.9906 90.1482C62.1001 91.0244 61.543 91.7196 60.3287 92.0149C59.0049 92.3387 58.1287 91.9006 57.8525 90.772C57.5763 89.6482 58.1525 88.8625 59.4763 88.5387H59.4811Z" fill="white"></path><path d="M63.1524 89.3956C62.7382 88.348 63.2191 87.4527 64.5477 86.9242C65.8715 86.4003 66.8429 86.7337 67.2524 87.7765C67.6667 88.8242 67.1858 89.7337 65.862 90.2575C64.5334 90.7813 63.5667 90.448 63.1524 89.3956ZM66.3001 88.1527C66.0858 87.6051 65.6382 87.3908 64.8572 87.7003C64.081 88.0051 63.8953 88.4622 64.1143 89.0146C64.3334 89.5718 64.7858 89.7813 65.5572 89.4765C66.3334 89.1718 66.5191 88.7051 66.3001 88.1527Z" fill="white"></path><path d="M69.3334 88.6956L67.6287 85.7623L68.9525 84.9908L71.1049 86.3432L70.9906 83.8051L72.3144 83.0337L74.0191 85.967L73.1715 86.4575L71.9382 84.3337L72.0715 87.1004L71.2858 87.5575L68.9477 86.0765L70.1858 88.2004L69.3334 88.6956Z" fill="white"></path><path d="M23.019 81.8382C13.9952 74.1811 8.2666 62.7573 8.2666 50.0001C8.2666 37.243 14.2999 25.2144 23.738 17.562" stroke="white" stroke-miterlimit="10"></path><path d="M76.2666 17.5669C85.7047 25.2193 91.7333 36.905 91.7333 50.0002C91.7333 63.0955 86.0047 74.1859 76.9809 81.8431" stroke="white" stroke-miterlimit="10"></path></g><defs><clipPath id="clip0_101_22087"><rect width="100" height="100" fill="white"></rect></clipPath></defs></svg>