<svg xmlns="http://www.w3.org/2000/svg" width="100" height="100" viewBox="0 0 100 100" fill="none"><g clip-path="url(#clip0_101_22106)"><path d="M50 100C77.6142 100 100 77.6142 100 50C100 22.3858 77.6142 0 50 0C22.3858 0 0 22.3858 0 50C0 77.6142 22.3858 100 50 100Z" fill="#005596"></path><path d="M50.0001 98.7333C76.9147 98.7333 98.7334 76.9146 98.7334 49.9999C98.7334 23.0853 76.9147 1.2666 50.0001 1.2666C23.0854 1.2666 1.26672 23.0853 1.26672 49.9999C1.26672 76.9146 23.0854 98.7333 50.0001 98.7333Z" fill="#005596"></path><path d="M50 2.53333C76.1714 2.53333 97.4667 23.8286 97.4667 50C97.4667 76.1714 76.1714 97.4667 50 97.4667C23.8286 97.4667 2.53333 76.1714 2.53333 50C2.53333 23.8286 23.8286 2.53333 50 2.53333ZM50 0C22.3857 0 0 22.3857 0 50C0 77.6143 22.3857 100 50 100C77.6143 100 100 77.6143 100 50C100 22.3857 77.6143 0 50 0Z" fill="#005596"></path><path d="M50 100C77.6142 100 100 77.6142 100 50C100 22.3858 77.6142 0 50 0C22.3858 0 0 22.3858 0 50C0 77.6142 22.3858 100 50 100Z" fill="#006AB0"></path><path d="M50 2.53333C76.1714 2.53333 97.4667 23.8286 97.4667 50C97.4667 76.1714 76.1714 97.4667 50 97.4667C23.8286 97.4667 2.53333 76.1714 2.53333 50C2.53333 23.8286 23.8286 2.53333 50 2.53333ZM50 0C22.3857 0 0 22.3857 0 50C0 77.6143 22.3857 100 50 100C77.6143 100 100 77.6143 100 50C100 22.3857 77.6143 0 50 0Z" fill="#002E5D"></path><path d="M66.2286 31.3335C63.5906 30.6002 60.9048 30.0478 58.1953 29.6812C55.4858 29.3097 52.7525 29.124 50.0144 29.124H50.0001C44.5144 29.124 39.0572 29.8669 33.7715 31.3335L33.1906 31.4955V62.8478C33.1906 72.1145 40.7286 79.6574 50.0001 79.6574C59.2715 79.6574 66.8096 72.1193 66.8096 62.8478V31.4955L66.2286 31.3335ZM65.2239 62.8478C65.2239 71.2431 58.3953 78.0716 50.0001 78.0716C41.6048 78.0716 34.7763 71.2431 34.7763 62.8478V32.7002C39.7429 31.3764 44.862 30.705 50.0001 30.705H50.0096C55.1429 30.705 60.262 31.3764 65.2191 32.7002V62.8478H65.2239Z" fill="white"></path><path d="M36.3 34.229V42.6147H38.0239V34.229H36.3Z" fill="white"></path><path d="M38.9905 34.229V35.8147H40.3952V42.6147H42.119V35.8147H43.5238V34.229H38.9905Z" fill="white"></path><path d="M46.8238 34.229H45.2381L42.9476 42.6147H44.6953L45.1048 41.0147H47.0333L47.4619 42.6147H49.2095L46.8286 34.229H46.8238ZM45.5191 39.4338L46.0524 36.6909L46.5857 39.4338H45.5191Z" fill="white"></path><path d="M51.7476 41.029V34.229H50.0238V42.6147H53.9476V41.029H51.7476Z" fill="white"></path><path d="M54.981 34.229V42.6147H56.7048V34.229H54.981Z" fill="white"></path><path d="M61.3191 34.229H59.7333L57.4429 42.6147H59.1905L59.6 41.0147H61.5286L61.9572 42.6147H63.7048L61.3238 34.229H61.3191ZM60.0143 39.4338L60.5476 36.6909L61.081 39.4338H60.0143Z" fill="white"></path><path d="M47.6096 44.4004V43.8242H46.2001V46.9766H46.8286V45.548H47.6144V44.9718H46.8286V44.3956H47.6144L47.6096 44.4004Z" fill="#C5B783"></path><path d="M48.0477 43.8242V46.9766H48.6763V43.8242H48.0477Z" fill="#C5B783"></path><path d="M50.1144 45.2668V45.843H50.6382C50.6382 45.9906 50.6192 46.124 50.5477 46.2335C50.4953 46.3144 50.4192 46.3716 50.3096 46.3954C50.2811 46.4002 50.2477 46.4049 50.2096 46.4049C49.8668 46.4049 49.7096 46.1335 49.7096 45.4049C49.7096 44.6764 49.8763 44.4049 50.2096 44.4049C50.243 44.4049 50.2763 44.4049 50.3096 44.4144C50.4334 44.443 50.5096 44.524 50.5715 44.643C50.6096 44.7287 50.6382 44.8335 50.6382 44.9573H51.2811C51.2477 44.2906 50.8906 43.8716 50.3096 43.8335C50.2763 43.8335 50.243 43.8335 50.2096 43.8335C49.4477 43.8335 49.0668 44.4668 49.0668 45.4097C49.0668 46.3525 49.4239 46.9859 50.2096 46.9859C50.243 46.9859 50.2763 46.9859 50.3096 46.9859C50.9144 46.9383 51.2811 46.4716 51.2811 45.8668V45.2811H50.1144V45.2668Z" fill="#C5B783"></path><path d="M52.7477 46.386C52.4572 46.386 52.2382 46.1289 52.2382 45.4003C52.2382 44.6717 52.462 44.4146 52.7477 44.4146C52.9858 44.4146 53.143 44.5431 53.162 45.0812H53.8049C53.8144 44.3765 53.4382 43.8193 52.7001 43.8193C52.0334 43.8193 51.5953 44.3336 51.5953 45.3955C51.5953 46.4574 52.0334 46.9717 52.7001 46.9717C53.4191 46.9717 53.8001 46.4289 53.8049 45.7336H53.162C53.1477 46.0574 53.0763 46.3765 52.7477 46.3765V46.386Z" fill="#C5B783"></path><path d="M44.6715 48.186V75.4098C39.7572 73.3289 36.3 68.4527 36.3 62.7908V48.186H44.6715Z" fill="#009F4D"></path><path d="M46.1953 48.186H53.8001V75.9527C52.5906 76.3003 51.3144 76.4908 49.9953 76.4908C48.6763 76.4908 47.4001 76.3051 46.1906 75.9527V48.186H46.1953Z" fill="white"></path><path d="M63.7 48.186V62.7908C63.7 68.4527 60.2429 73.3289 55.3286 75.4098V48.186H63.7Z" fill="#E40030"></path><path d="M44.6715 44.7954H36.3V46.0049H44.6715V44.7954Z" fill="#C5B783"></path><path d="M63.7 44.7954H55.3286V46.0049H63.7V44.7954Z" fill="#C5B783"></path><path d="M36.5477 26.8098L38.6239 27.9193L38.2286 25.605L39.9096 24.0336L37.5858 23.6621L36.5477 21.5479L35.5144 23.6621L33.1906 24.0336L34.8667 25.605L34.4763 27.9193L36.5477 26.8098Z" fill="white"></path><path d="M63.4525 26.8098L65.5239 27.9193L65.1334 25.605L66.8096 24.0336L64.4858 23.6621L63.4525 21.5479L62.4144 23.6621L60.0906 24.0336L61.7715 25.605L61.3763 27.9193L63.4525 26.8098Z" fill="white"></path><path d="M54.4858 25.6052L56.5572 26.7147L56.1668 24.3956L57.8429 22.829L55.5191 22.4528V22.4575V22.4528L54.4858 20.3433L53.4477 22.4528V22.4575V22.4528L51.1239 22.829L52.8049 24.3956L52.4096 26.7147L54.4858 25.6052Z" fill="white"></path><path d="M45.5144 25.6052L47.5906 26.7147L47.1953 24.3956L48.8763 22.829L46.5525 22.4528V22.4575V22.4528L45.5144 20.3433L44.481 22.4528V22.4575V22.4528L42.1572 22.829L43.8334 24.3956L43.4429 26.7147L45.5144 25.6052Z" fill="white"></path><path d="M30.7095 11.3384L31.1143 12.0717L28.9 13.2955L29.2476 13.9289L31.2143 12.8431L31.6143 13.5717L29.6476 14.6574L30.1333 15.5336L29.2714 16.0098L27.6333 13.0431L30.7095 11.3431V11.3384Z" fill="white"></path><path d="M36.2999 12.6237L35.7618 12.1523L33.8285 12.938L33.7714 13.6523L32.7904 14.0523L33.1333 10.2571L34.3904 9.74756L37.2809 12.2285L36.3047 12.6237H36.2999ZM33.8952 12.1142L35.1333 11.6095L34.0142 10.6333L33.8952 12.1142Z" fill="white"></path><path d="M41.3476 10.1764L40.7619 7.81927L41.7095 7.58594L42.5238 10.8764L41.1286 11.224L38.6048 9.34784L39.1905 11.705L38.2381 11.9431L37.4238 8.6526L38.8238 8.30499L41.3476 10.1812V10.1764Z" fill="white"></path><path d="M46.119 6.96208L50.2 6.79541L50.2333 7.62874L48.6857 7.69065L48.7904 10.243L47.8095 10.2811L47.7047 7.72874L46.1524 7.79065L46.119 6.95731V6.96208Z" fill="white"></path><path d="M51.3905 8.49526C51.4857 7.37622 52.3143 6.78098 53.7381 6.90479C55.1572 7.0286 55.8762 7.75717 55.781 8.87145C55.6857 9.9905 54.8524 10.5953 53.4334 10.4715C52.0096 10.3476 51.2953 9.61907 51.3905 8.49526ZM54.7572 8.78574C54.8096 8.20003 54.5048 7.80955 53.6667 7.73812C52.8334 7.66669 52.4667 7.9905 52.4191 8.58574C52.3667 9.18098 52.6762 9.57145 53.5048 9.64288C54.3381 9.71431 54.7096 9.38098 54.7619 8.7905L54.7572 8.78574Z" fill="white"></path><path d="M61.6237 8.36681L59.6333 9.38109L60.8809 11.6763L59.6761 11.4049L58.8095 9.8049L57.8618 10.2859L57.7095 10.9573L56.7523 10.7382L57.4999 7.42871L58.4618 7.643L58.1285 9.12871L60.1952 8.03823L61.6333 8.36204L61.6237 8.36681Z" fill="white"></path><path d="M66.3285 9.99553L66.0666 10.7193L63.6856 9.85744L63.4999 10.367L65.7904 11.1955L65.5285 11.9193L63.238 11.0908L63.0523 11.6003L65.4332 12.4622L65.1713 13.186L61.8666 11.9908L63.019 8.80029L66.3237 9.99553H66.3285Z" fill="white"></path><path d="M69.7618 14.3526L70.8761 12.1907L71.7476 12.6383L70.1904 15.6526L68.9095 14.9907L68.2476 11.9097L67.1333 14.0716L66.2571 13.6193L67.8142 10.605L69.0999 11.2669L69.7618 14.3478V14.3526Z" fill="white"></path><path d="M27.3953 85.4763C27.2476 85.7192 27.3953 86.0239 28.1572 86.4858C28.8572 86.9049 29.0953 86.9001 29.2048 86.7192C29.3334 86.5097 29.2238 86.3906 28.3953 85.8144C27.2667 85.024 26.8905 84.4763 27.2762 83.8335C27.6429 83.2287 28.4619 83.3478 29.4667 83.9525C30.5857 84.6239 31.0238 85.3525 30.6619 86.0144L29.781 85.4859C29.9334 85.2287 29.7143 84.962 29.0619 84.5716C28.4429 84.2001 28.2429 84.2192 28.1476 84.3763C28.0381 84.5573 28.1476 84.6954 28.8953 85.2335C29.9143 85.9573 30.5619 86.4478 30.1048 87.2097C29.6572 87.9525 28.8381 87.7573 27.8048 87.1335C26.6286 86.4239 26.0905 85.7382 26.5096 84.9478L27.3905 85.4811L27.3953 85.4763Z" fill="white"></path><path d="M31.5238 87.1909C31.9714 86.1576 32.9428 85.8623 34.2571 86.429C35.5667 86.9957 36.0143 87.9147 35.5714 88.9433C35.1238 89.9766 34.1428 90.2814 32.8333 89.7147C31.519 89.148 31.0762 88.229 31.5238 87.1909ZM34.6286 88.5385C34.8619 87.9957 34.6952 87.5338 33.9238 87.1957C33.1571 86.8623 32.7047 87.0576 32.4714 87.6004C32.2333 88.1481 32.4047 88.6147 33.1667 88.948C33.9333 89.2814 34.3952 89.0814 34.6286 88.5338V88.5385Z" fill="white"></path><path d="M39.2952 88.2194C40.4952 88.5575 41.0333 89.2623 40.8952 90.129L39.8905 89.848C39.9095 89.529 39.6762 89.1909 39.0714 89.0242C38.3714 88.829 37.9381 89.0766 37.7762 89.648C37.6143 90.2242 37.8619 90.6671 38.5571 90.8623C39.1619 91.029 39.5381 90.8623 39.6857 90.5718L40.6905 90.8528C40.3571 91.6718 39.5333 92.0004 38.3286 91.6671C37.019 91.3004 36.4714 90.4909 36.7809 89.3718C37.0952 88.2575 37.9809 87.8528 39.2905 88.2194H39.2952Z" fill="white"></path><path d="M43.3953 89.2289L42.7953 92.5623L41.8286 92.3861L42.4286 89.0527L43.3953 89.2289Z" fill="white"></path><path d="M44.419 91.1481C44.5095 90.029 45.3333 89.4338 46.7571 89.5481C48.1762 89.6624 48.9 90.3909 48.8047 91.5052C48.7143 92.6243 47.8857 93.229 46.4619 93.1147C45.0381 93.0005 44.319 92.2719 44.4143 91.1481H44.419ZM47.7857 91.4243C47.8333 90.8386 47.5285 90.4528 46.6905 90.3814C45.8571 90.3148 45.4952 90.6433 45.4428 91.2338C45.3952 91.829 45.7047 92.2148 46.5333 92.2862C47.3666 92.3528 47.7381 92.0195 47.7857 91.4243Z" fill="white"></path><path d="M51.119 92.048C51.1333 92.3337 51.4238 92.5051 52.3143 92.4575C53.1286 92.4146 53.3238 92.2766 53.3095 92.0623C53.2952 91.8146 53.1428 91.7813 52.1333 91.767C50.7571 91.7432 50.1333 91.5004 50.0952 90.748C50.0571 90.0432 50.8047 89.6813 51.9762 89.6242C53.2809 89.5575 54.0524 89.9099 54.119 90.6623L53.0952 90.7146C53.0809 90.4146 52.7476 90.3194 51.9857 90.3575C51.2666 90.3956 51.1095 90.5242 51.119 90.7051C51.1285 90.9146 51.2952 90.9718 52.219 91.0004C53.4666 91.0289 54.2809 91.0718 54.3285 91.9623C54.3714 92.8289 53.5857 93.1242 52.3809 93.1861C51.0095 93.2575 50.1762 92.9861 50.0857 92.0956L51.1143 92.0432L51.119 92.048Z" fill="white"></path><path d="M55.7429 92.0429L56.681 91.9048L56.7858 92.6334L55.8477 92.7715L55.7382 92.0429H55.7429Z" fill="white"></path><path d="M59.4809 88.5382C60.6952 88.243 61.5095 88.5953 61.8143 89.4191L60.8 89.6668C60.6619 89.3763 60.2905 89.2001 59.6809 89.3477C58.9762 89.5192 58.719 89.9477 58.8571 90.5287C59 91.1096 59.4333 91.3763 60.1333 91.2049C60.7428 91.0572 60.9905 90.7239 60.9762 90.3953L61.9905 90.1477C62.1 91.0239 61.5428 91.7191 60.3286 92.0144C59.0047 92.3382 58.1286 91.9001 57.8524 90.7715C57.5762 89.6477 58.1524 88.862 59.4762 88.5382H59.4809Z" fill="white"></path><path d="M63.1524 89.3956C62.7382 88.348 63.2191 87.448 64.5477 86.9242C65.8715 86.4003 66.8429 86.7337 67.2524 87.7765C67.6667 88.8242 67.1858 89.7337 65.862 90.2575C64.5334 90.7813 63.5667 90.448 63.1524 89.3956ZM66.3001 88.1527C66.0858 87.6051 65.6382 87.3908 64.8572 87.7003C64.081 88.0051 63.8953 88.4622 64.1143 89.0146C64.3334 89.5718 64.7858 89.7813 65.5572 89.4765C66.3334 89.1718 66.5191 88.7051 66.3001 88.1527Z" fill="white"></path><path d="M69.3381 88.6907L67.6333 85.7574L68.9571 84.986L71.1095 86.3383L70.9952 83.8002L72.319 83.0288L74.0238 85.9621L73.1762 86.4526L71.9428 84.3288L72.0762 87.0955L71.2904 87.5526L68.9524 86.0717L70.1904 88.1955L69.3381 88.6907Z" fill="white"></path><path d="M23.0191 81.8382C13.9953 74.1811 8.26672 62.7573 8.26672 50.0001C8.26672 37.243 14.3001 25.2144 23.7382 17.562" stroke="#002E5D" stroke-miterlimit="10"></path><path d="M76.2667 17.5669C85.7048 25.2193 91.7334 36.905 91.7334 50.0002C91.7334 63.0955 86.0048 74.1859 76.981 81.8431" stroke="#002E5D" stroke-miterlimit="10"></path></g><defs><clipPath id="clip0_101_22106"><rect width="100" height="100" fill="white"></rect></clipPath></defs></svg>