<svg xmlns="http://www.w3.org/2000/svg" width="100" height="100" viewBox="0 0 100 100" fill="none"><g clip-path="url(#clip0_101_22112)"><path d="M50 100C77.6142 100 100 77.6142 100 50C100 22.3858 77.6142 0 50 0C22.3858 0 0 22.3858 0 50C0 77.6142 22.3858 100 50 100Z" fill="#00205C"></path><path d="M50 2.53333C76.1714 2.53333 97.4667 23.8286 97.4667 50C97.4667 76.1714 76.1714 97.4667 50 97.4667C23.8286 97.4667 2.53333 76.1714 2.53333 50C2.53333 23.8286 23.8286 2.53333 50 2.53333ZM50 0C22.3857 0 0 22.3857 0 50C0 77.6143 22.3857 100 50 100C77.6143 100 100 77.6143 100 50C100 22.3857 77.6143 0 50 0Z" fill="#EA0029"></path><path d="M70.3382 31.0667L69.8667 31.2334C69.8429 31.2429 67.2763 32.1429 62.8715 32.1429C58.7906 32.1429 54.5001 31.3953 50.1191 29.9238L50.0048 29.8857L49.8906 29.9238C45.5096 31.3953 41.2144 32.1429 37.1334 32.1429C32.7287 32.1429 30.162 31.2429 30.1334 31.2334L29.662 31.0667V49.3429C29.662 60.8667 35.1525 68.6857 39.762 73.2143C44.7477 78.1191 49.8144 80.3334 49.862 80.3572L50.0001 80.4191L50.1382 80.3572C50.1906 80.3334 55.2525 78.1191 60.2334 73.2143C64.8382 68.681 70.3287 60.8619 70.3287 49.3429V31.0667H70.3382Z" fill="#8C9091"></path><path d="M46.8239 29.2859L50.0049 27.1955L53.1763 29.2859L51.9906 25.6526L54.8906 23.3669H51.2382L50.0049 19.5859L48.762 23.3669H45.1144L48.0144 25.6526L46.8239 29.2859Z" fill="#8C9091"></path><path d="M36.3334 29.2859L39.5144 27.1955L42.6953 29.2859L41.5001 25.6526L44.4049 23.3669H40.7525L39.5144 19.5859L38.2763 23.3669H34.6239L37.5287 25.6526L36.3334 29.2859Z" fill="#8C9091"></path><path d="M57.3096 29.2859L60.4906 27.1955L63.6668 29.2859L62.4763 25.6526L65.3763 23.3669H61.7287L60.4953 19.5859L59.2525 23.3669H55.6001L58.5049 25.6526L57.3096 29.2859Z" fill="#8C9091"></path><path d="M50.0049 30.2573C37.7906 34.3573 30.0144 31.5621 30.0144 31.5621V49.3383C30.0144 71.4049 50.0049 80.0288 50.0049 80.0288C50.0049 80.0288 69.9858 71.4049 69.9858 49.3383V31.5621C69.9858 31.5621 62.2192 34.3573 50.0049 30.2573Z" fill="#00205C"></path><path d="M53.8715 23.7192H50.981L50.0049 20.7192L49.0191 23.7192H46.1287L48.4287 25.5288L47.4763 28.4335L50.0049 26.7716L52.5287 28.4335L51.5763 25.5288L53.8715 23.7192Z" fill="#00205C"></path><path d="M43.3858 23.7192H40.4953L39.5144 20.7192L38.5287 23.7192H35.6382L37.9382 25.5288L36.9858 28.4335L39.5144 26.7716L42.0429 28.4335L41.0858 25.5288L43.3858 23.7192Z" fill="#00205C"></path><path d="M64.362 23.7192H61.4715L60.4906 20.7192L59.5096 23.7192H56.6191L58.9191 25.5288L57.962 28.4335L60.4906 26.7716L63.0191 28.4335L62.0668 25.5288L64.362 23.7192Z" fill="#00205C"></path><path d="M50.0049 31.8003C38.6668 35.6051 31.4573 33.3051 31.4573 33.3051V49.5098C31.4573 69.9908 50.0049 77.9955 50.0049 77.9955C50.0049 77.9955 68.5525 69.9908 68.5525 49.5098V33.3051C68.5525 33.3051 61.3382 35.6051 50.0049 31.8003ZM67.4573 49.5479C67.4573 69.0812 50.0049 76.7146 50.0049 76.7146C50.0049 76.7146 32.5478 69.0765 32.5478 49.5479V34.6146C42.3668 36.3098 50.0049 32.9812 50.0049 32.9812C50.0049 32.9812 57.6382 36.3098 67.4573 34.6146V49.5479Z" fill="#EA0029"></path><path d="M37.9096 43.9525C37.8382 44.043 37.7668 44.0906 37.6858 44.0906C37.6429 44.0906 37.6096 44.0763 37.581 44.043L36.6668 42.8525C36.6334 42.8192 36.6191 42.7716 36.6191 42.7097C36.6191 42.6192 36.6477 42.5382 36.7001 42.4668L38.7953 39.7192C38.8477 39.6478 38.9239 39.5906 39.0287 39.5382C39.1334 39.4906 39.2334 39.4668 39.3239 39.4668H40.9906C41.1144 39.4668 41.1763 39.5097 41.1763 39.5954C41.1763 39.6335 41.1572 39.6763 41.1287 39.7239L37.9096 43.9573V43.9525Z" fill="#D9D8D6"></path><path d="M46.5858 39.4717C46.7144 39.4717 46.781 39.5145 46.781 39.6003C46.781 39.6383 46.7668 39.6812 46.7334 39.7288L45.0001 42.005C44.9477 42.0764 44.8715 42.1336 44.7668 42.186C44.662 42.2336 44.5668 42.2622 44.481 42.2622H39.8191C39.6906 42.2622 39.6239 42.2193 39.6239 42.1336C39.6239 42.0955 39.6429 42.0526 39.6715 42.0098L41.4049 39.7336C41.4572 39.6622 41.5334 39.605 41.6382 39.5526C41.743 39.505 41.8382 39.4764 41.9239 39.4764H46.5858V39.4717ZM44.2049 39.9764C44.2382 39.9288 44.2525 39.8907 44.2525 39.8479C44.2525 39.7622 44.1906 39.7241 44.0668 39.7241C43.9763 39.7241 43.8763 39.7479 43.7715 39.8003C43.6668 39.8479 43.5906 39.9098 43.5382 39.9812L42.1906 41.7526C42.1572 41.8003 42.1382 41.8383 42.1382 41.8812C42.1382 41.9669 42.2001 42.0098 42.3239 42.0098C42.4144 42.0098 42.5144 41.986 42.6191 41.9336C42.7239 41.886 42.8001 41.8241 42.8525 41.7526L44.2001 39.9812L44.2049 39.9764Z" fill="#D9D8D6"></path><path d="M52.1525 39.4715C52.281 39.4715 52.3477 39.5144 52.3477 39.6001C52.3477 39.6382 52.3286 39.681 52.2906 39.7287L50.562 42.0048C50.5048 42.0763 50.4286 42.1334 50.3286 42.1858C50.2286 42.2334 50.1286 42.262 50.0382 42.262H48.3715C48.2429 42.262 48.1763 42.2191 48.1763 42.1334C48.1763 42.0953 48.1953 42.0525 48.2334 42.0096L49.7667 39.9858C49.8048 39.9382 49.8239 39.9001 49.8239 39.8572C49.8239 39.7715 49.762 39.7334 49.6286 39.7334C49.5382 39.7334 49.4382 39.7572 49.3382 39.8096C49.2382 39.8572 49.1572 39.9191 49.1048 39.9906L47.5715 42.0144C47.5144 42.0858 47.4382 42.1429 47.3382 42.1953C47.2334 42.2429 47.1382 42.2668 47.0477 42.2668H45.381C45.2525 42.2668 45.1858 42.2239 45.1858 42.1382C45.1858 42.1001 45.2048 42.0572 45.2429 42.0144L48.462 37.7763C48.5334 37.6858 48.6048 37.6382 48.6858 37.6382C48.7286 37.6382 48.7572 37.6525 48.781 37.6858L49.7048 38.8763C49.7334 38.9096 49.7477 38.9572 49.7477 39.0191C49.7477 39.1049 49.7191 39.1858 49.6667 39.262C49.6382 39.2953 49.6239 39.3287 49.6239 39.362C49.6239 39.4429 49.6906 39.481 49.8334 39.481H52.1667L52.1525 39.4715Z" fill="#D9D8D6"></path><path d="M57.7429 39.4717C57.8715 39.4717 57.9382 39.5145 57.9382 39.6003C57.9382 39.6383 57.9191 39.6812 57.8905 39.7288L56.1572 42.005C56.1048 42.0764 56.0286 42.1336 55.9239 42.186C55.8191 42.2336 55.7239 42.2622 55.6381 42.2622H50.9715C50.8429 42.2622 50.7762 42.2193 50.7762 42.1336C50.7762 42.0955 50.7905 42.0526 50.8239 42.0098L52.562 39.7336C52.6143 39.6622 52.6905 39.605 52.7953 39.5526C52.9001 39.505 52.9953 39.4764 53.081 39.4764H57.7429V39.4717ZM55.362 39.9764C55.3953 39.9288 55.4096 39.8907 55.4096 39.8479C55.4096 39.7622 55.3477 39.7241 55.2239 39.7241C55.1334 39.7241 55.0334 39.7479 54.9286 39.8003C54.8239 39.8479 54.7477 39.9098 54.6953 39.9812L53.3477 41.7526C53.3143 41.8003 53.3001 41.8383 53.3001 41.8812C53.3001 41.9669 53.362 42.0098 53.4858 42.0098C53.581 42.0098 53.6762 41.986 53.781 41.9336C53.8858 41.886 53.962 41.8241 54.0143 41.7526L55.362 39.9812V39.9764Z" fill="#D9D8D6"></path><path d="M63.3048 39.4716C63.4334 39.4716 63.5 39.5144 63.5 39.6001C63.5 39.6382 63.481 39.6811 63.4429 39.7287L63.0619 40.2335C63.0096 40.3049 62.9334 40.362 62.8286 40.4144C62.7238 40.462 62.6286 40.4858 62.5334 40.4858H60.8667C60.7429 40.4858 60.681 40.443 60.681 40.3573C60.681 40.3192 60.6953 40.2763 60.7286 40.2287L60.9239 39.9763C60.9572 39.9287 60.9715 39.8906 60.9715 39.8478C60.9715 39.762 60.9048 39.7239 60.7762 39.7239C60.6858 39.7239 60.5905 39.7478 60.4858 39.8001C60.381 39.8478 60.3048 39.9097 60.2524 39.9763L58.7096 41.9954C58.6572 42.0668 58.581 42.1287 58.4762 42.1763C58.3715 42.2239 58.2762 42.2525 58.181 42.2525H56.5191C56.3953 42.2525 56.3334 42.2097 56.3334 42.1239C56.3334 42.0858 56.3477 42.043 56.381 42.0001L58.1096 39.7239C58.1619 39.6525 58.2429 39.5954 58.3429 39.543C58.4429 39.4954 58.5429 39.4668 58.6334 39.4668H63.2953L63.3048 39.4716Z" fill="#D9D8D6"></path><path d="M41.2096 36.9335C41.243 37.2525 41.2382 37.5763 41.2668 37.9001C41.6096 37.9906 41.9477 38.0811 42.2858 38.1859C41.962 38.3097 41.6192 38.3906 41.2906 38.4954C41.3049 38.8144 41.3192 39.1382 41.3382 39.4573C41.0953 39.2097 40.8906 38.9335 40.6477 38.6859C40.3096 38.7906 39.9763 38.8954 39.6334 38.9859C39.8334 38.7239 40.0382 38.462 40.2334 38.1954C40.0096 37.9382 39.7811 37.6906 39.5715 37.4239C39.9192 37.5144 40.262 37.6144 40.6096 37.7097C40.8096 37.4525 41.0049 37.1859 41.2096 36.9287V36.9335Z" fill="#D9D8D6"></path><path d="M63.1621 38.0526C63.1478 37.986 63.1192 37.9336 63.0764 37.905C63.1431 37.8717 63.1954 37.805 63.1954 37.7145C63.1954 37.6526 63.1716 37.5955 63.1288 37.5574C63.0764 37.5098 63.005 37.4907 62.9002 37.4907C62.8335 37.4907 62.7621 37.4955 62.7097 37.505H62.6954V38.2812H62.8288V37.9574H62.9002C62.9431 37.9574 62.9669 37.9669 62.9859 37.986C63.005 38.005 63.0192 38.0383 63.0335 38.086C63.0526 38.1812 63.0716 38.2431 63.0859 38.2717V38.2812H63.2335L63.2192 38.2526C63.2192 38.2526 63.1859 38.1574 63.1621 38.0526ZM62.8288 37.6098C62.8288 37.6098 62.8716 37.6098 62.905 37.6098C62.9526 37.6098 62.9907 37.6193 63.0192 37.6383C63.0431 37.6574 63.0573 37.686 63.0573 37.7288C63.0573 37.7669 63.0431 37.7955 63.0192 37.8193C62.9954 37.8383 62.9573 37.8526 62.9097 37.8526H62.8288V37.6145V37.6098Z" fill="#D9D8D6"></path><path d="M63.3287 37.4906C63.2192 37.3811 63.0716 37.3145 62.9049 37.3145C62.7383 37.3145 62.5907 37.3811 62.4811 37.4906C62.3716 37.6002 62.3049 37.7478 62.3049 37.9145C62.3049 38.0811 62.3716 38.2287 62.4811 38.3383C62.5907 38.4478 62.7383 38.5145 62.9049 38.5145C63.0716 38.5145 63.2192 38.4478 63.3287 38.3383C63.4383 38.2287 63.5049 38.0811 63.5049 37.9145C63.5049 37.7478 63.4383 37.6002 63.3287 37.4906ZM63.2764 38.2811C63.1811 38.3764 63.0526 38.4335 62.9097 38.4335C62.7668 38.4335 62.6335 38.3764 62.543 38.2811C62.4478 38.1859 62.3906 38.0573 62.3906 37.9145C62.3906 37.7716 62.4478 37.6383 62.543 37.5478C62.6383 37.4525 62.7668 37.3954 62.9097 37.3954C63.0526 37.3954 63.1859 37.4525 63.2764 37.5478C63.3716 37.643 63.4287 37.7716 63.4287 37.9145C63.4287 38.0573 63.3716 38.1906 63.2764 38.2811Z" fill="#D9D8D6"></path><path fill-rule="evenodd" clip-rule="evenodd" d="M61.7573 64.4192C61.6906 63.843 61.5478 63.2859 61.2287 62.7573C60.8097 63.2859 60.2382 63.5145 59.6525 63.7145C59.4763 63.7764 59.2906 63.8097 59.1144 63.8764C59.0525 63.9002 58.9668 63.9859 58.9668 64.0478C58.9049 65.3097 58.4954 66.4621 57.9621 67.5907C57.9144 67.6859 57.9049 67.8145 57.924 67.9192C58.043 68.6954 58.0335 69.4335 57.8621 70.1335C59.2097 68.8335 60.5668 67.2907 61.7954 65.4811C61.8097 65.1335 61.8002 64.7764 61.7573 64.4192Z" fill="#D9D8D6"></path><path fill-rule="evenodd" clip-rule="evenodd" d="M48.7144 73.5286C48.1382 73.2143 47.6097 72.7953 47.1192 72.3572C46.424 71.7381 45.943 70.9429 45.5002 70.1286C45.4002 69.9429 45.3002 69.7239 45.143 69.6C44.2525 68.8905 43.5811 68.0096 42.9763 67.0572C42.7716 66.7381 42.5287 66.4334 42.2573 66.1667C42.1478 66.0572 41.9192 66.0429 41.7478 66.0381C41.4668 66.0334 41.1763 66.1191 40.9049 66.0762C40.1192 65.9477 39.4525 65.5381 38.8002 65.1048C38.6621 65.0143 38.5287 64.9191 38.3954 64.8286C38.7382 65.4429 39.1621 65.9667 39.7478 66.3619C40.2954 66.7334 40.8525 67.0953 41.3525 67.5239C43.2192 69.1429 44.6716 71.1048 45.9478 73.2048C45.9859 73.2667 46.0192 73.3286 46.0573 73.3905C47.0573 74.0858 47.9335 74.6143 48.6049 74.9905H50.1525C49.8573 74.3239 49.3716 73.8762 48.724 73.5238L48.7144 73.5286Z" fill="#D9D8D6"></path><path fill-rule="evenodd" clip-rule="evenodd" d="M55.0573 68.3903C54.7763 69.3665 54.0477 69.857 53.1192 70.0855C52.7049 70.1903 52.2716 70.2094 51.8477 70.2808C51.2382 70.3855 50.6382 70.5522 50.0287 70.5998C49.1477 70.6713 48.2954 70.5284 47.6811 69.8094C47.4335 69.5189 47.2858 69.1522 47.1049 68.8379C46.6477 69.7379 46.9144 71.0189 47.7811 71.6713C48.8573 72.4808 50.1239 72.7141 51.4192 72.6141C52.5525 72.5284 53.5573 71.9903 54.4906 71.3522C54.7382 71.1808 54.962 70.9665 55.162 70.7379C55.8811 69.9236 55.943 68.7522 55.1763 67.6855C55.1382 67.9141 55.1239 68.157 55.0573 68.3808V68.3903Z" fill="#D9D8D6"></path><path fill-rule="evenodd" clip-rule="evenodd" d="M48.7382 69.3046C49.0763 69.6522 49.3096 69.6617 49.7001 69.3617C49.7525 69.3237 49.8382 69.2665 49.8715 69.2808C50.1858 69.457 50.3287 69.2856 50.4048 69.0665C50.5382 69.057 50.6477 69.076 50.7287 69.0379C50.8096 68.9951 50.8239 68.857 50.981 68.9237C51.0334 68.9475 51.1477 68.8332 51.2048 68.7998C51.3191 68.8046 51.4144 68.8094 51.5048 68.8141C51.5525 68.8141 51.6191 68.7998 51.6429 68.8236C51.8144 68.9903 51.9668 68.9141 52.0572 68.8379C52.262 68.8808 52.4096 68.9617 52.5048 68.9189C52.6239 68.8617 52.7001 68.7046 52.7953 68.5951C53.2572 69.0713 53.5572 69.0189 53.8382 68.4094C53.8858 68.3046 53.9429 68.1951 53.9525 68.0808C54.0001 67.5665 54.0429 67.0522 54.062 66.5379C54.0668 66.4094 53.9858 66.276 53.9477 66.1475C53.8334 66.2332 53.6763 66.2903 53.6048 66.4046C53.2429 66.976 52.9001 67.557 52.5429 68.1475C51.9953 68.257 51.3953 68.3808 50.8001 68.4998C50.8001 68.5237 50.8048 68.5427 50.8096 68.5665C50.6953 68.5046 50.581 68.4427 50.462 68.376C50.3906 68.457 50.3287 68.5189 50.2668 68.5856C50.0334 68.4665 49.7858 68.3856 49.5906 68.2332C49.0668 67.8284 48.5668 67.3951 48.0572 66.9713C47.9382 66.8713 47.8334 66.876 47.8144 67.0475C47.7906 67.2237 47.7763 67.4046 47.7953 67.5808C47.881 68.2713 48.2572 68.8094 48.7287 69.2951L48.7382 69.3046Z" fill="#D9D8D6"></path><path fill-rule="evenodd" clip-rule="evenodd" d="M47.2621 64.3617C47.4716 64.0712 47.5002 63.8093 47.5002 63.5426C47.4907 62.4617 47.4668 61.376 47.4526 60.295C47.4478 59.8903 47.2764 59.776 46.8907 59.9236C46.8145 59.9522 46.7383 59.9855 46.6764 60.0284C46.5573 60.1093 46.4621 60.1236 46.3145 60.0617C46.1668 59.9998 45.9859 60.0188 45.7621 59.9998C45.824 60.2284 45.8526 60.3569 45.8954 60.4855C46.2668 61.6331 46.6383 62.7807 47.0192 63.9236C47.0668 64.0665 47.1716 64.1855 47.2764 64.3617H47.2621Z" fill="#D9D8D6"></path><path fill-rule="evenodd" clip-rule="evenodd" d="M53.1668 61.5714C53.2906 61.9524 53.3573 62.3524 53.4716 62.7381C53.5192 62.8952 53.6097 63.0381 53.6859 63.1857C53.7382 63.1762 53.7906 63.1667 53.843 63.1571C54.1335 61.8143 54.0287 60.4476 54.0763 59.0381C53.524 59.3619 52.9954 59.1571 52.4097 59.1048C52.462 59.3619 52.4811 59.5762 52.5478 59.7714C52.7478 60.3714 52.9811 60.9667 53.1716 61.5667L53.1668 61.5714Z" fill="#D9D8D6"></path><path fill-rule="evenodd" clip-rule="evenodd" d="M48.3192 61.1094C48.3859 61.1237 48.4859 61.0427 48.5525 60.9808C48.643 60.8951 48.7097 60.7904 48.8049 60.6713C49.1097 61.0761 49.5097 60.5427 49.8335 60.8142C49.8383 60.8189 49.9049 60.7332 49.9478 60.7142C50.043 60.6761 50.143 60.6475 50.243 60.6332C50.3002 60.6237 50.3906 60.6856 50.4192 60.6618C50.6192 60.4856 50.8097 60.5713 50.9906 60.6761C51.0906 60.5856 51.1763 60.5094 51.2716 60.4237C51.4049 60.5142 51.5287 60.5951 51.6525 60.6808C51.7763 60.7666 51.8763 60.7237 51.8906 60.5904C51.9287 60.2142 51.943 59.838 51.9668 59.438C51.5144 59.5047 51.3144 59.8189 51.0859 60.0904C50.9335 60.1189 50.8002 60.1761 50.6621 60.2285C50.6097 60.2475 50.5525 60.2475 50.4954 60.257C50.3287 60.2808 50.1668 60.2999 50.0002 60.3237C49.824 60.3237 49.6383 60.2189 49.4621 60.4094C49.443 60.4285 49.3859 60.4237 49.343 60.4189C49.1525 60.3999 48.9621 60.3761 48.7097 60.3475C48.543 60.1189 48.2716 59.9237 47.8716 59.9427C47.9668 60.2808 48.043 60.5904 48.143 60.8999C48.1668 60.9856 48.2382 61.0999 48.3097 61.1142L48.3192 61.1094Z" fill="#D9D8D6"></path><path fill-rule="evenodd" clip-rule="evenodd" d="M45.7144 73.1619C45.5811 72.9905 45.4525 72.819 45.3144 72.6476C43.9715 70.9619 42.5763 69.3238 40.8763 67.981C40.1477 67.4048 39.3477 66.9048 38.7668 66.1619C38.3811 65.6714 38.0144 65.1619 37.6954 64.6286C37.5096 64.3238 37.4525 63.9667 37.6287 63.6191C37.2334 63.1238 36.9239 62.581 36.7192 61.981C36.7144 61.9905 36.7096 62 36.7049 62.0095C36.6477 62.281 36.5906 62.5476 36.5334 62.819C39.1239 67.7429 42.843 71.1095 45.7144 73.1619Z" fill="#D9D8D6"></path><path fill-rule="evenodd" clip-rule="evenodd" d="M45.3525 51.2431C45.3953 50.7526 44.8858 50.305 44.2144 50.2526C43.5477 50.1954 42.9715 50.5526 42.9287 51.0431C42.8858 51.5335 43.3953 51.9812 44.0668 52.0335C44.0953 52.0335 44.1191 52.0335 44.1477 52.0335C44.5144 51.8193 44.8906 51.6335 45.281 51.4764C45.3191 51.4002 45.3429 51.324 45.3525 51.2383V51.2431ZM44.3763 51.1716C44.3763 51.1716 44.3525 51.1716 44.343 51.1669C44.343 51.1669 44.343 51.1669 44.343 51.1716C44.343 51.2002 44.3191 51.224 44.2906 51.224C44.262 51.224 44.2382 51.2002 44.2382 51.1716C44.2382 51.1478 44.2525 51.124 44.2763 51.1193C44.262 51.0954 44.2477 51.0716 44.2477 51.0383C44.2477 50.9669 44.3049 50.9097 44.3763 50.9097C44.4477 50.9097 44.5049 50.9669 44.5049 51.0383C44.5049 51.1097 44.4477 51.1669 44.3763 51.1669V51.1716Z" fill="#D9D8D6"></path><path fill-rule="evenodd" clip-rule="evenodd" d="M54.1287 50.9144C54.7859 50.7715 55.2287 50.262 55.124 49.7763C55.0192 49.2953 54.4001 49.0191 53.743 49.1668C53.0859 49.3096 52.643 49.8191 52.7478 50.3001C52.7811 50.4429 52.862 50.5668 52.9716 50.6668C53.3239 50.7525 53.6763 50.8429 54.0239 50.9287C54.0573 50.9239 54.0954 50.9191 54.1287 50.9144ZM53.8525 49.962C53.8239 49.962 53.8001 49.9382 53.8001 49.9096C53.8001 49.8858 53.8144 49.862 53.8382 49.8572C53.8192 49.8334 53.8144 49.8096 53.8144 49.781C53.8144 49.7096 53.8716 49.6525 53.943 49.6525C54.0144 49.6525 54.0763 49.7096 54.0763 49.781C54.0763 49.8525 54.0192 49.9096 53.943 49.9096C53.9335 49.9096 53.9192 49.9096 53.9097 49.9049C53.9097 49.9382 53.8859 49.962 53.8573 49.962H53.8525Z" fill="#D9D8D6"></path><path fill-rule="evenodd" clip-rule="evenodd" d="M57.7525 53.6237C57.8525 53.6094 57.943 53.5856 58.0287 53.5571C58.1001 53.5237 58.1668 53.4951 58.2382 53.4618C58.4335 53.3523 58.5906 53.1856 58.6954 52.9475C58.7906 52.9999 58.8763 53.0666 58.9477 53.1428C59.243 53.0094 59.5335 52.8809 59.8287 52.7475C59.8287 52.619 59.8287 52.4904 59.8192 52.3618C59.5954 52.4571 59.3715 52.5475 59.1525 52.638C58.6001 52.8713 58.0525 53.1142 57.5144 53.3761C57.6001 53.4523 57.6811 53.5332 57.7477 53.619L57.7525 53.6237Z" fill="#D9D8D6"></path><path fill-rule="evenodd" clip-rule="evenodd" d="M58.6192 54.2383C58.6192 54.2383 58.6049 54.2145 58.6002 54.2002C58.1668 54.3431 57.7335 54.4859 57.2954 54.6288C57.343 54.7192 57.3906 54.8097 57.4335 54.905C57.8335 54.7716 58.2335 54.6431 58.6335 54.5097C58.6478 54.405 58.643 54.3097 58.6192 54.2383Z" fill="#D9D8D6"></path><path fill-rule="evenodd" clip-rule="evenodd" d="M62.2001 48.5331C61.8096 48.6759 61.4525 48.8759 61.0906 49.0712C60.9239 49.1617 60.762 49.2569 60.6001 49.3474C60.6382 49.395 60.6811 49.4378 60.7191 49.4855C61.2191 49.1664 61.7096 48.8474 62.2001 48.5283V48.5331Z" fill="#D9D8D6"></path><path fill-rule="evenodd" clip-rule="evenodd" d="M60.2953 52.1714C60.262 52.1857 60.2286 52.2 60.1953 52.2142C60.2572 52.2952 60.3191 52.3857 60.381 52.4761C60.3572 52.3666 60.3286 52.2666 60.2905 52.1761L60.2953 52.1714Z" fill="#D9D8D6"></path><path fill-rule="evenodd" clip-rule="evenodd" d="M59.343 54.2858C59.4716 54.2429 59.6049 54.2 59.7335 54.1619C59.7335 54.1096 59.7335 54.0524 59.7335 53.9953C59.7383 53.9381 59.7478 53.881 59.7525 53.8286C59.6097 53.8762 59.4668 53.9238 59.324 53.9715C59.3383 54.0715 59.343 54.181 59.343 54.2905V54.2858Z" fill="#D9D8D6"></path><path fill-rule="evenodd" clip-rule="evenodd" d="M59.843 55.5046C59.9907 55.4808 60.143 55.4617 60.2907 55.4379C60.2669 55.3427 60.2383 55.2427 60.2049 55.1475C60.0478 55.1665 59.8907 55.1856 59.7335 55.2094C59.7811 55.3046 59.8192 55.3998 59.843 55.4998V55.5046Z" fill="#D9D8D6"></path><path fill-rule="evenodd" clip-rule="evenodd" d="M58.1096 55.4902C57.9667 55.5188 57.8286 55.5426 57.6858 55.5712C57.7144 55.6617 57.7429 55.7521 57.7667 55.8426C57.8477 55.8283 57.9239 55.814 58.0001 55.8045C58.0144 55.7379 58.0334 55.6712 58.0572 55.6045C58.0715 55.5664 58.0906 55.5283 58.1096 55.495V55.4902Z" fill="#D9D8D6"></path><path fill-rule="evenodd" clip-rule="evenodd" d="M60.2954 51.2381C60.4811 51.4667 60.6668 51.7 60.8573 51.9333C60.724 51.9857 60.5954 52.0429 60.4716 52.0952C60.4811 52.2143 60.4811 52.3333 60.4716 52.4571C60.5573 52.419 60.6383 52.381 60.7192 52.3476C60.9287 52.2524 61.0383 52.2762 61.1335 52.4905C61.2478 52.7571 61.3906 53.0143 61.5049 53.2476C61.2526 53.3286 61.0002 53.4143 60.7478 53.4952C60.7716 53.6 60.7954 53.7048 60.8097 53.8095C61.0097 53.7429 61.2049 53.681 61.4049 53.619C61.4716 53.5952 61.543 53.5905 61.643 53.5667C61.7859 54.0143 61.9287 54.4571 62.0859 54.9524C61.6192 54.9905 61.1573 55.0381 60.6954 55.0952C60.6811 55.1619 60.6811 55.2286 60.6811 55.3C60.6811 55.3333 60.6811 55.3619 60.6811 55.3905C61.1573 55.3238 61.6383 55.2571 62.1145 55.1952C62.3621 56.3952 62.4002 57.5571 62.2335 58.7429C61.6716 58.7429 61.4764 58.3476 61.3287 57.981C61.1478 58.3952 60.9859 58.8429 60.7621 59.2524C59.8668 60.8714 58.5383 62.0524 56.9097 62.8857C56.4002 63.1476 56.0526 63.5048 55.8478 64.0048C55.6621 64.4571 55.524 64.9333 55.4097 65.4095C55.3335 65.7095 55.3383 66.0286 55.3049 66.3381C55.5335 65.9762 55.7097 65.6 55.9287 65.2571C56.3716 64.5619 56.9764 64.1143 57.8192 63.9714C58.8192 63.8048 59.7621 63.4667 60.5764 62.8429C60.824 62.6524 61.043 62.419 61.2764 62.2048C61.3716 62.4429 61.4716 62.6952 61.5859 62.9809C62.3906 62.1429 62.9906 61.2286 63.3621 60.1762C63.7764 58.9952 63.7906 57.8095 63.3287 56.6048C63.5621 56.619 63.7621 56.6286 64.0097 56.6476C63.8192 56.0857 63.6478 55.5667 63.4621 55.0238C63.7668 54.9905 64.043 54.9619 64.3145 54.9286C64.5906 54.8952 64.8621 54.8571 65.1383 54.819C65.0621 54.7857 64.9906 54.781 64.9192 54.7857C64.5859 54.8 64.2573 54.819 63.924 54.8333C63.5526 54.8492 63.2922 54.6921 63.143 54.3619C63.0859 54.2381 63.024 54.119 62.9621 54C62.843 53.7667 62.724 53.5333 62.5906 53.2762C63.4906 53.019 64.3526 52.7714 65.2145 52.5238C65.143 52.4905 65.0811 52.4952 65.0192 52.5095C64.243 52.6857 63.4668 52.8714 62.6859 53.0381C62.5954 53.0571 62.4478 53.0476 62.4049 52.9905C62.1573 52.6667 61.9335 52.3238 61.6811 51.9619C62.7859 51.5143 63.8716 51.081 64.9573 50.6429C64.9478 50.619 64.9335 50.5952 64.924 50.5762C63.8478 50.9381 62.7716 51.2952 61.6954 51.6667C61.5287 51.7238 61.4335 51.7048 61.2954 51.5857C60.8859 51.2286 60.4573 50.8905 60.024 50.5571C60.0002 50.5381 59.9668 50.519 59.9383 50.5C60.0192 50.6571 60.0906 50.8048 60.1621 50.9524C60.2097 51.0524 60.2478 51.1571 60.2859 51.2619L60.2954 51.2381Z" fill="#D9D8D6"></path><path fill-rule="evenodd" clip-rule="evenodd" d="M53.3716 56.8188C53.3573 56.776 53.3382 56.7331 53.3239 56.6902C53.8906 56.3617 54.4192 55.9283 55.0239 55.7188C55.6716 55.4902 56.3192 55.2712 56.9668 55.0569C56.9525 54.9569 56.9382 54.8521 56.9192 54.7521C56.2811 54.9617 55.643 55.1712 54.9954 55.3855C54.962 55.314 54.9096 55.1998 54.843 55.0569C55.2858 54.8331 55.7144 54.595 56.162 54.395C56.3668 54.2998 56.5763 54.2093 56.7858 54.114C56.7573 54.014 56.7335 53.914 56.7001 53.814C56.7763 53.8902 56.8477 53.9712 56.9144 54.0569C57.0668 53.9902 57.2192 53.9188 57.3716 53.8521C57.3192 53.814 57.2668 53.776 57.2144 53.7331C57.1668 53.6902 57.1144 53.6426 57.0668 53.5998C56.1525 54.0569 55.2573 54.5521 54.3811 55.0998C53.9335 55.376 53.4525 55.595 52.9811 55.8331C52.9049 55.8712 52.8192 55.8855 52.6716 55.9331C52.9716 55.6093 53.2573 55.3569 53.462 55.0569C53.7811 54.5855 54.1811 54.2331 54.662 53.9426C54.962 53.7617 55.2811 53.5664 55.3668 53.1712C55.3763 53.1331 55.4239 53.1045 55.462 53.0807C56.3811 52.4331 57.3001 51.7902 58.2335 51.1283C58.1382 51.0712 58.0335 51.0188 57.9287 50.9712C57.4668 51.276 57.0096 51.5855 56.5573 51.9093C55.8192 52.4379 55.1382 53.0426 54.2763 53.4045C53.7049 53.6426 53.2001 54.0283 52.6716 54.3426C52.543 53.9093 52.2763 53.6188 51.8811 53.5045C51.8954 53.6902 51.9096 53.876 51.9192 54.0664C51.962 55.1093 51.7477 56.0283 50.8239 56.6902C50.5335 56.8998 50.3382 57.2521 50.1335 57.5617C50.0192 57.7379 50.0477 57.9664 50.2239 58.0998C50.7049 58.4664 51.2287 58.7236 51.8668 58.5998C52.5382 58.476 53.2192 58.376 53.8906 58.5807C54.2715 58.695 54.543 58.5379 54.7811 58.2998C55.0192 58.0569 54.9525 57.776 54.8096 57.5045C54.7906 57.4664 54.7716 57.4236 54.7525 57.3855C54.9192 57.1998 55.0858 57.0236 55.2335 56.8331C55.362 56.6712 55.4335 56.495 55.0811 56.376C55.7335 56.2283 56.3811 56.095 57.0287 55.976C57.0287 55.8902 57.0287 55.8045 57.0287 55.7188C55.7906 56.0045 54.5763 56.3617 53.3763 56.814L53.3716 56.8188Z" fill="#D9D8D6"></path><path fill-rule="evenodd" clip-rule="evenodd" d="M59.7573 50.1093C59.8002 50.0807 59.843 50.0521 59.8859 50.0283C59.8335 50.0331 59.7811 50.0426 59.724 50.0521C59.7335 50.0712 59.743 50.0902 59.7526 50.114L59.7573 50.1093Z" fill="#D9D8D6"></path><path fill-rule="evenodd" clip-rule="evenodd" d="M59.1668 50.4763C59.1334 50.4001 59.1049 50.3239 59.0715 50.2524C58.8954 50.362 58.7192 50.4715 58.543 50.581C58.5953 50.6572 58.643 50.7334 58.6906 50.8143C58.8477 50.7048 59.0096 50.5905 59.1668 50.4763Z" fill="#D9D8D6"></path><path fill-rule="evenodd" clip-rule="evenodd" d="M60.7001 55.0903C60.5334 55.1094 60.3667 55.1332 60.2001 55.1522C60.2334 55.2475 60.262 55.3427 60.2858 55.4427C60.4144 55.4237 60.5477 55.4046 60.681 55.3856C60.681 55.357 60.681 55.3237 60.681 55.2951C60.681 55.2284 60.681 55.157 60.6953 55.0903H60.7001Z" fill="#D9D8D6"></path><path fill-rule="evenodd" clip-rule="evenodd" d="M57.6906 55.5713C57.4715 55.6189 57.2477 55.6713 57.0287 55.7189C57.0287 55.8046 57.0287 55.8903 57.0287 55.9761C57.2763 55.9284 57.5239 55.8856 57.7668 55.8427C57.743 55.7522 57.7144 55.6618 57.6858 55.5713H57.6906Z" fill="#D9D8D6"></path><path fill-rule="evenodd" clip-rule="evenodd" d="M57.7525 53.6237C57.6811 53.538 57.6001 53.457 57.5192 53.3809C57.3668 53.4523 57.2192 53.5237 57.0715 53.5999C57.1192 53.6428 57.1715 53.6904 57.2192 53.7332C57.2715 53.7761 57.3239 53.819 57.3763 53.8523C57.5953 53.7523 57.8144 53.6571 58.0334 53.5571C57.9477 53.5856 57.8525 53.6094 57.7572 53.6237H57.7525Z" fill="#D9D8D6"></path><path fill-rule="evenodd" clip-rule="evenodd" d="M60.3859 52.4714C60.3192 52.3809 60.2573 52.2952 60.2002 52.2095C60.0764 52.2619 59.9478 52.3143 59.8287 52.3619C59.8335 52.4905 59.8383 52.619 59.8383 52.7476C60.0525 52.6524 60.2668 52.5571 60.4811 52.4571C60.4859 52.3333 60.4811 52.2143 60.4811 52.0952C60.424 52.119 60.3621 52.1428 60.3049 52.1666C60.343 52.2571 60.3716 52.3571 60.3954 52.4666L60.3859 52.4714Z" fill="#D9D8D6"></path><path fill-rule="evenodd" clip-rule="evenodd" d="M57.3001 54.6284C57.1763 54.6713 57.0525 54.7094 56.9287 54.7522C56.9478 54.8522 56.962 54.957 56.9763 55.057C57.1287 55.0046 57.2859 54.957 57.4382 54.9046C57.3954 54.8094 57.3525 54.7189 57.3001 54.6284Z" fill="#D9D8D6"></path><path fill-rule="evenodd" clip-rule="evenodd" d="M56.7048 53.8188C56.7334 53.9188 56.762 54.0188 56.7905 54.1188C56.8334 54.0998 56.8763 54.0808 56.9191 54.0617C56.8525 53.9808 56.781 53.8998 56.7048 53.8188Z" fill="#D9D8D6"></path><path fill-rule="evenodd" clip-rule="evenodd" d="M58.1096 55.4905C58.0906 55.5286 58.0715 55.562 58.0573 55.6001C58.0335 55.6667 58.0144 55.7334 58.0001 55.8001C58.6144 55.6953 59.2287 55.5953 59.8382 55.5048C59.8144 55.4048 59.7811 55.3048 59.7287 55.2144C59.1858 55.2953 58.643 55.3858 58.1049 55.4905H58.1096Z" fill="#D9D8D6"></path><path fill-rule="evenodd" clip-rule="evenodd" d="M59.1668 50.4761C59.2763 50.3999 59.3811 50.3237 59.4906 50.2475C59.762 50.5856 60.0287 50.9094 60.2906 51.238C60.2525 51.1332 60.2144 51.0332 60.1668 50.9285C60.1001 50.7809 60.0239 50.6285 59.943 50.4761C59.8239 50.3999 59.6858 50.338 59.5287 50.2523C59.6049 50.2047 59.6811 50.1571 59.7525 50.1047C59.743 50.0856 59.7334 50.0666 59.7239 50.0428C59.7811 50.0332 59.8287 50.0285 59.8858 50.019C60.1668 49.838 60.443 49.6618 60.7144 49.4809C60.6763 49.4333 60.6334 49.3904 60.5953 49.3428C60.0811 49.6332 59.5715 49.9332 59.0668 50.2428C59.1001 50.319 59.1334 50.3952 59.162 50.4666L59.1668 50.4761Z" fill="#D9D8D6"></path><path fill-rule="evenodd" clip-rule="evenodd" d="M59.7335 53.9904C59.7288 54.0475 59.724 54.1046 59.7335 54.157C60.0907 54.0427 60.4526 53.9237 60.8145 53.8094C60.8002 53.7046 60.7811 53.5999 60.7526 53.4951C60.4192 53.6046 60.0859 53.7142 59.7573 53.8237C59.7526 53.8808 59.743 53.938 59.7383 53.9904H59.7335Z" fill="#D9D8D6"></path><path fill-rule="evenodd" clip-rule="evenodd" d="M58.6954 52.9521C58.5907 53.1902 58.4335 53.3521 58.2383 53.4664C58.4764 53.3617 58.7097 53.2522 58.9478 53.1474C58.8716 53.076 58.7907 53.0045 58.6954 52.9521Z" fill="#D9D8D6"></path><path fill-rule="evenodd" clip-rule="evenodd" d="M58.6906 50.8144C58.643 50.7382 58.5954 50.6572 58.543 50.5811C58.3382 50.7096 58.1382 50.843 57.9335 50.9763C58.0382 51.0239 58.1382 51.0715 58.2382 51.1334C58.3906 51.0287 58.5382 50.9191 58.6906 50.8144Z" fill="#D9D8D6"></path><path fill-rule="evenodd" clip-rule="evenodd" d="M59.3239 53.9619C59.0811 54.0429 58.843 54.1191 58.6001 54.2C58.6049 54.2143 58.6144 54.2238 58.6191 54.2381C58.6477 54.3095 58.6525 54.4095 58.6334 54.5095C58.8668 54.4333 59.1049 54.3572 59.3382 54.281C59.3382 54.1667 59.3334 54.0619 59.3191 53.9619H59.3239Z" fill="#D9D8D6"></path><path fill-rule="evenodd" clip-rule="evenodd" d="M39.624 55.7141C39.4907 55.7046 39.3526 55.6951 39.2192 55.6855C39.2192 55.6855 39.2192 55.6855 39.2192 55.6903C39.2192 55.7522 39.243 55.8474 39.2859 55.876C39.3859 55.9427 39.4621 56.0189 39.5192 56.0998C39.6002 56.1094 39.6764 56.1141 39.7573 56.1236C39.6907 55.9903 39.6478 55.8522 39.624 55.7141Z" fill="#D9D8D6"></path><path fill-rule="evenodd" clip-rule="evenodd" d="M39.6811 53.9049C39.6954 53.8001 39.7192 53.7001 39.7478 53.6001C39.6049 53.562 39.4668 53.5239 39.324 53.4858C39.3145 53.5858 39.3049 53.6858 39.3002 53.7906C39.4287 53.8287 39.5526 53.8668 39.6811 53.9049Z" fill="#D9D8D6"></path><path fill-rule="evenodd" clip-rule="evenodd" d="M35.843 59.8669C35.9525 59.8335 36.0573 59.8002 36.1573 59.7716C36.2525 59.7431 36.3525 59.7145 36.4525 59.6812C36.3811 60.5431 36.4811 61.3002 36.7144 61.9859C36.7239 61.9669 36.743 61.9478 36.7716 61.9002C37.0811 62.4193 37.3763 62.9145 37.6668 63.4097C37.6858 63.4478 37.6858 63.5193 37.6668 63.5526C37.6525 63.5764 37.643 63.5954 37.6335 63.6193C38.1811 64.3145 38.8906 64.924 39.7001 65.4859C39.743 65.1526 39.7811 64.8812 39.8239 64.5669C40.3763 65.0478 40.9906 65.305 41.6477 65.3954C42.3001 65.4907 42.9668 65.4954 43.6239 65.5383C43.8573 65.5526 44.0954 65.5193 44.3192 65.5574C45.1382 65.6954 45.7097 66.2193 46.2239 66.8193C46.343 66.9574 46.4525 67.105 46.562 67.2526C46.3049 66.1335 45.8097 65.1669 44.8763 64.4716C44.7763 64.3954 44.6287 64.3669 44.5049 64.3383C42.1192 63.7574 40.0906 62.6431 38.7573 60.5002C38.6477 61.1812 38.4716 61.4193 37.9906 61.4669C37.7906 60.7097 37.5858 59.9478 37.3811 59.1716C37.5382 59.1288 37.6239 59.1002 37.7097 59.0812C38.3668 58.9669 39.0239 58.8574 39.6811 58.7478C39.662 58.6859 39.643 58.624 39.6239 58.5669C39.6097 58.524 39.6144 58.4716 39.6239 58.4193C38.8763 58.5669 38.1287 58.7383 37.3716 58.924C37.3525 58.4335 37.3239 57.9716 37.3239 57.5145C37.3239 57.4716 37.4763 57.3907 37.562 57.3859C37.9001 57.3716 38.2335 57.3574 38.5716 57.3478C38.5477 57.2574 38.5239 57.1669 38.5097 57.0764C38.1097 57.1002 37.7144 57.124 37.3144 57.1526C37.3668 56.7431 37.4049 56.3812 37.462 56.0193C37.4668 55.9764 37.5763 55.9097 37.6335 55.9145C37.9382 55.9431 38.243 55.9764 38.543 56.005C38.5573 55.8859 38.5668 55.7669 38.5811 55.6478C38.3477 55.6383 38.1144 55.6288 37.8811 55.6193C37.7858 55.6193 37.6858 55.605 37.5763 55.5954C37.5763 55.5335 37.5573 55.4764 37.5716 55.4335C37.7668 54.8383 37.9668 54.2478 38.1668 53.6574C38.2144 53.5145 38.3001 53.4907 38.4335 53.5335C38.5716 53.5764 38.7097 53.6145 38.8478 53.6574C38.862 53.5621 38.8763 53.4669 38.8858 53.3669C38.7144 53.3193 38.5477 53.2764 38.3763 53.2288C38.4811 53.0383 38.5858 52.8383 38.6906 52.6431C38.6001 52.6669 38.5287 52.7002 38.4858 52.7526C38.1716 53.1954 37.7763 53.1954 37.2858 53.0669C36.6668 52.905 36.0287 52.8288 35.4001 52.7193C35.4001 52.7383 35.3954 52.7526 35.3906 52.7716C36.1954 52.9716 37.0001 53.1764 37.8287 53.3812C37.7811 53.4573 37.743 53.5097 37.7144 53.5621C37.4239 54.0574 37.0811 54.524 36.8668 55.0526C36.6906 55.4954 36.4668 55.6193 36.0049 55.5954C35.3287 55.5574 34.6525 55.5716 33.9716 55.5812C33.9811 55.6193 33.9858 55.6621 33.9954 55.7002C34.8287 55.7478 35.6668 55.7954 36.5192 55.8431C36.4287 56.1669 36.3382 56.4669 36.262 56.7669C36.1382 57.2526 36.143 57.2478 35.6525 57.3002C35.2382 57.3431 34.8239 57.3907 34.4049 57.4383C34.4144 57.4669 34.4192 57.4954 34.4287 57.524C34.9763 57.5002 35.5239 57.4764 36.0716 57.4478C36.0001 58.0526 35.943 58.624 35.8573 59.1907C35.8478 59.2716 35.7192 59.3621 35.6287 59.3954C35.4477 59.4574 35.2668 59.5097 35.0811 59.5621C35.0906 59.5859 35.1001 59.6097 35.1049 59.6335C35.3382 59.5859 35.5763 59.5383 35.8192 59.4907C35.8287 59.6288 35.8335 59.7431 35.8382 59.8764L35.843 59.8669Z" fill="#D9D8D6"></path><path fill-rule="evenodd" clip-rule="evenodd" d="M44.443 55.3237C44.5239 55.3475 44.6049 55.3999 44.6715 55.4522C45.1144 55.7999 45.5525 56.1475 45.9953 56.4999C46.0191 56.5189 46.0477 56.5427 46.0715 56.5618C46.062 56.5808 46.0572 56.5999 46.0477 56.6189C45.7382 56.5522 45.4287 56.4951 45.1191 56.4189C44.7715 56.3284 44.4334 56.2189 44.0906 56.1189C44.0334 56.0999 43.9239 56.0713 43.9144 56.0856C43.7763 56.3332 43.5715 56.2046 43.3953 56.176C42.4715 56.0141 41.543 55.8903 40.6144 55.7999C40.6191 55.9379 40.6287 56.076 40.6477 56.2141C41.643 56.3094 42.6382 56.4046 43.6334 56.5046C43.6525 56.5046 43.6668 56.5189 43.7001 56.5284C43.7001 56.9665 44.1763 56.8237 44.381 57.0665C43.2144 56.9903 42.0525 56.9665 40.8858 56.9856C40.9477 57.0999 41.0096 57.2046 41.081 57.2999C42.3049 57.2903 43.5239 57.2903 44.7477 57.2999C45.0477 57.2999 45.3477 57.4046 45.6477 57.4665C45.643 57.4808 45.6382 57.4951 45.6334 57.5094C45.1906 57.5094 44.7477 57.5094 44.3049 57.5094C44.1715 57.5094 44.0287 57.4951 43.9049 57.5379C43.7763 57.5856 43.6715 57.6951 43.581 57.8189C43.0668 57.8665 42.5477 57.9284 42.0334 57.9999C42.1668 58.0475 42.3049 58.0856 42.4572 58.1094C42.481 58.1094 42.5049 58.1332 42.5477 58.157C42.5287 58.1903 42.5096 58.2237 42.4906 58.2618C42.781 58.2094 43.0715 58.1618 43.3668 58.1094C43.7858 58.0332 44.0668 58.1903 44.362 58.4379C44.3382 58.5379 44.3049 58.6379 44.2858 58.7427C44.243 58.9903 44.3049 59.2141 44.5239 59.357C44.762 59.5046 45.0334 59.6427 45.3049 59.4999C45.9096 59.1808 46.562 59.0665 47.2287 59.076C47.8525 59.0856 48.3382 58.8427 48.7715 58.4379C49.0906 58.1427 49.1287 57.8618 48.8191 57.5618C48.5477 57.2999 48.2334 57.0522 47.8953 56.8808C47.3382 56.5999 46.9525 56.1903 46.762 55.6189C46.5953 55.1284 46.5001 54.6189 46.3715 54.1094C46.1763 54.3046 46.0191 54.5475 45.8477 54.7856C45.8191 54.8856 45.8049 54.9903 45.8049 55.1046C45.5906 54.9999 45.4144 54.8856 45.2239 54.8237C44.5858 54.6141 43.9477 54.4189 43.3049 54.2284C43.0906 54.1665 42.9525 54.2522 42.9668 54.4713C42.6191 54.376 42.2715 54.2808 41.9239 54.1856C41.8049 54.276 41.6858 54.3665 41.5715 54.457C42.5287 54.7427 43.4906 55.0237 44.4477 55.3141L44.443 55.3237Z" fill="#D9D8D6"></path><path fill-rule="evenodd" clip-rule="evenodd" d="M40.1049 57.0049C39.9335 57.0096 39.7668 57.0192 39.5954 57.0239C39.5715 57.1239 39.5477 57.2239 39.5192 57.3239C39.6906 57.3239 39.8573 57.3144 40.0287 57.3144C40.0525 57.2382 40.0763 57.162 40.0954 57.0858C40.1001 57.062 40.1049 57.0335 40.1096 57.0096L40.1049 57.0049Z" fill="#D9D8D6"></path><path fill-rule="evenodd" clip-rule="evenodd" d="M41.3716 54.0474C41.1668 53.9903 40.9573 53.9331 40.7478 53.876C40.7669 53.9807 40.7811 54.0807 40.8002 54.1855C41.0002 54.1569 41.1859 54.1045 41.3669 54.0426L41.3716 54.0474Z" fill="#D9D8D6"></path><path fill-rule="evenodd" clip-rule="evenodd" d="M34.7096 59.657C34.7096 59.657 34.7144 59.6856 34.7191 59.6999C34.8477 59.6761 34.981 59.6475 35.1096 59.6237C35.1001 59.5999 35.0905 59.5761 35.0858 59.5522C34.962 59.5856 34.8334 59.6237 34.7096 59.657Z" fill="#D9D8D6"></path><path fill-rule="evenodd" clip-rule="evenodd" d="M39.2858 55.876C39.2382 55.8475 39.2144 55.7522 39.2192 55.6903C39.2192 55.6903 39.2192 55.6903 39.2192 55.6856C39.0049 55.6713 38.7858 55.6617 38.5715 55.6475C38.5573 55.7665 38.5477 55.8856 38.5334 56.0046C38.862 56.0379 39.1906 56.0665 39.5192 56.0998C39.462 56.0189 39.3858 55.9427 39.2858 55.876Z" fill="#D9D8D6"></path><path fill-rule="evenodd" clip-rule="evenodd" d="M39.3287 53.4905C39.1764 53.4477 39.0287 53.4096 38.8764 53.3667C38.8621 53.4619 38.8478 53.5572 38.8383 53.6572C38.9954 53.7048 39.1478 53.7477 39.3049 53.7953C39.3097 53.6953 39.3192 53.5905 39.3287 53.4905Z" fill="#D9D8D6"></path><path fill-rule="evenodd" clip-rule="evenodd" d="M39.5954 57.0239C39.2335 57.0382 38.8668 57.0573 38.5001 57.0763C38.5144 57.1668 38.5335 57.2573 38.562 57.3477C38.8811 57.3382 39.2001 57.3287 39.5192 57.3239C39.5477 57.2239 39.5763 57.1239 39.5954 57.0239Z" fill="#D9D8D6"></path><path fill-rule="evenodd" clip-rule="evenodd" d="M41.5667 54.4669C41.6858 54.3764 41.8048 54.2859 41.9191 54.1955C41.7382 54.1478 41.5525 54.0955 41.3667 54.0431C41.1858 54.105 41.0001 54.1574 40.8001 54.1859C40.781 54.0812 40.762 53.9812 40.7477 53.8764C40.4144 53.7859 40.081 53.6955 39.7477 53.605C39.7191 53.705 39.7001 53.805 39.681 53.9097C40.3096 54.0955 40.9382 54.2812 41.562 54.4716L41.5667 54.4669Z" fill="#D9D8D6"></path><path fill-rule="evenodd" clip-rule="evenodd" d="M39.7572 56.1238C40.0572 56.1523 40.3525 56.1809 40.6525 56.2095C40.6334 56.0714 40.6239 55.938 40.6191 55.7952C40.2906 55.7619 39.9572 55.7333 39.6287 55.7095C39.6525 55.8476 39.6953 55.9857 39.762 56.119L39.7572 56.1238Z" fill="#D9D8D6"></path><path fill-rule="evenodd" clip-rule="evenodd" d="M40.1049 57.0046C40.1049 57.0332 40.1001 57.057 40.0906 57.0808C40.0715 57.157 40.0477 57.2332 40.0239 57.3094C40.0477 57.3094 40.0763 57.3094 40.1001 57.3094C40.4287 57.3094 40.7573 57.3094 41.0858 57.3094C41.0144 57.2094 40.9477 57.1046 40.8906 56.9951C40.6287 56.9951 40.3668 57.0046 40.1049 57.0142V57.0046Z" fill="#D9D8D6"></path><path fill-rule="evenodd" clip-rule="evenodd" d="M42.5572 58.162C42.5144 58.1382 42.4906 58.1192 42.4668 58.1144C42.3191 58.0906 42.1763 58.0525 42.043 58.0049C41.2334 58.1192 40.4239 58.2573 39.6096 58.4192C39.6049 58.4716 39.6001 58.5239 39.6096 58.5668C39.6287 58.6287 39.6477 58.6858 39.6668 58.7477C40.6096 58.5906 41.5477 58.4239 42.4906 58.2573C42.5096 58.2239 42.5287 58.1906 42.5477 58.1525L42.5572 58.162Z" fill="#D9D8D6"></path><path fill-rule="evenodd" clip-rule="evenodd" d="M37.6667 63.4094C37.3763 62.9142 37.081 62.4189 36.7715 61.8999C36.7429 61.9428 36.7239 61.9666 36.7144 61.9856C36.9191 62.5856 37.2334 63.1237 37.6239 63.6237C37.6334 63.5999 37.6429 63.5809 37.6572 63.557C37.681 63.5189 37.681 63.4475 37.6572 63.4142L37.6667 63.4094Z" fill="#D9D8D6"></path><path d="M44.4763 50.1383C44.7525 50.3097 45.0001 50.5336 45.2716 50.7383C45.562 50.4859 45.8335 50.1526 46.3097 50.2002C46.1954 49.3955 46.1478 48.6145 46.4335 47.8431C46.2763 47.9859 46.124 48.1288 45.9382 48.2955C45.9763 47.705 46.024 47.1621 46.5144 46.7431C46.0144 46.7002 45.5716 46.724 45.1954 47.0193C44.6906 47.4145 44.6906 47.9764 44.7097 48.5478C44.4335 48.2002 44.1906 47.8526 44.4335 47.3764C43.7144 47.7335 43.5859 48.1955 43.9906 48.9383C43.962 48.9574 43.9382 48.9955 43.9049 48.9955C43.6954 49.0145 43.4811 49.024 43.243 49.0383C43.2811 49.1859 43.3239 49.3336 43.362 49.4812C42.4668 49.5669 41.8335 50.0145 41.4192 50.8383C42.024 50.824 42.4859 50.5907 42.9049 50.224C43.0335 50.1097 43.2001 50.0193 43.362 49.9716C43.7525 49.8574 44.1335 49.924 44.4716 50.1335L44.4763 50.1383Z" fill="#D9D8D6"></path><path d="M38.9573 52.7714C38.9287 52.9714 38.9049 53.1667 38.8763 53.3667C39.0287 53.4095 39.1763 53.4476 39.3287 53.4905C39.3335 53.4095 39.3382 53.3286 39.3478 53.2524C39.4097 52.6524 39.5954 52.0667 39.9192 51.5809C40.1192 51.6905 40.3001 51.7857 40.4668 51.8762C40.7525 51.4857 41.0097 51.1333 41.2859 50.7524C40.9811 50.8 40.7001 50.8428 40.3668 50.8952C40.6335 50.5524 40.8668 50.2524 41.1335 49.9095C40.9859 49.9381 40.8954 49.9524 40.8001 49.9714C40.8954 49.3095 41.2525 48.8143 41.6906 48.6857C41.562 48.9238 41.4239 49.1714 41.2906 49.4238C41.3097 49.4381 41.3287 49.4476 41.3478 49.4619C41.4478 49.4286 41.543 49.3952 41.6192 49.3714C41.9954 49.6047 41.7716 49.9238 41.7525 50.1809C42.1668 49.8952 42.5811 49.6095 43.062 49.2762H42.4001C42.6192 48.9714 42.8287 48.6809 43.043 48.3857C43.143 48.4762 43.2144 48.5381 43.3192 48.6286C43.6144 47.5762 44.2478 46.819 45.1954 46.3428C46.124 45.8762 47.1144 45.7095 48.1478 45.7428V46.0762C47.1097 45.7619 45.9144 46.1047 45.3478 46.9286C45.8478 46.5524 46.3525 46.6 46.8239 46.6714C46.7668 46.7809 46.6859 46.9286 46.5763 47.1381C46.7049 47.0619 46.7668 47.0286 46.8192 46.9952C46.7525 47.219 46.6906 47.4381 46.6287 47.6571C46.662 47.6809 46.6954 47.7 46.7287 47.7238C47.1478 47.4381 47.5668 47.1524 47.9906 46.8619C47.9478 47.0238 47.8811 47.1714 47.7763 47.2857C47.4097 47.6809 47.0525 48.0857 46.6525 48.4381C46.3859 48.6714 46.3239 48.9333 46.3573 49.2476C46.3811 49.4857 46.4144 49.7286 46.462 49.9619C46.4954 50.1428 46.4573 50.2524 46.2906 50.3619C46.1573 50.4476 46.0811 50.6143 45.9763 50.7428C45.9906 50.7619 46.0097 50.7857 46.0239 50.8047C47.1716 50.519 48.1811 50.8619 49.1287 51.4905C49.9573 50.7 50.8906 50.1857 52.0859 50.2524C51.943 50.0905 51.8192 49.9714 51.724 49.8333C51.7001 49.7952 51.6716 49.7571 51.643 49.719C51.9001 49.8047 52.162 49.8809 52.4478 49.9667C52.7716 49.1238 53.5049 48.8286 54.4049 48.8476C54.5859 48.8476 54.7716 48.919 54.943 48.9809C55.3049 49.1095 55.6668 49.2 56.0525 49.0619C55.8097 48.5047 55.4906 48.3428 54.9144 48.3905C54.543 48.4238 54.1668 48.3952 53.7906 48.3952C53.7859 48.3619 53.7811 48.3238 53.7763 48.2905C53.9573 48.2143 54.1335 48.1428 54.343 48.0571C53.9859 47.8095 53.6716 48.0428 53.3525 48.0952C53.7811 47.1571 53.5906 46.5857 52.8478 46.5476C52.943 47.0381 52.8478 47.6047 52.5906 48.0571C52.4859 47.2095 52.3763 46.3762 51.343 46.1667H51.1287C51.024 46.2 50.9192 46.2381 50.8192 46.2714C50.8906 46.3905 50.9763 46.4905 51.0144 46.6C51.1287 46.9619 51.2287 47.3333 51.3287 47.7C51.1335 47.2667 50.7906 46.8905 50.4811 46.4905C50.6192 46.5143 50.7049 46.5286 50.843 46.5524C50.7478 46.4 50.6811 46.2905 50.6525 46.2524C51.0859 46.1286 51.5382 46.0047 51.9859 45.8762C50.8382 45.1524 49.7382 45.4238 48.6573 45.9952C48.562 45.6571 48.6954 45.3905 48.9859 45.3381C49.9763 45.1571 50.9668 45.1286 51.943 45.3857C52.5716 45.5476 53.1573 45.8047 53.6859 46.2667C53.3144 46.1857 52.9906 46.1143 52.6668 46.0428C52.6573 46.0714 52.643 46.1047 52.6335 46.1333C52.8382 46.2238 53.0382 46.3476 53.2478 46.3905C53.7049 46.4762 54.0239 46.7095 54.1859 47.1381C54.2763 47.3667 54.3192 47.6143 54.3859 47.8667C54.7478 47.6571 54.6335 47.3095 54.6192 46.9857C55.3001 47.2809 55.5049 47.6238 55.3478 48.1952C55.7716 48.2238 55.943 48.5762 56.2382 48.8571C56.2811 48.4571 56.3287 48.0571 56.3763 47.6381C57.0906 47.8619 57.5716 48.3143 57.7906 49.0571H56.9097C57.5763 49.5047 57.7192 50.1143 57.5382 50.8476C57.6811 50.8809 57.8192 50.9286 57.9478 50.9857C58.1478 50.8524 58.3525 50.719 58.5573 50.5905C58.3382 50.2619 58.0954 49.9476 57.8716 49.6238C58.2525 49.3333 58.6239 49.3762 58.8573 49.7857C58.943 49.9381 59.0144 50.0952 59.0859 50.2571C59.5906 49.9476 60.1001 49.6476 60.6144 49.3571C60.3097 49 60.0049 48.6428 59.6716 48.3143C58.9049 47.5571 58.0287 46.9571 56.9716 46.6667C56.8716 46.6381 56.7811 46.5714 56.7001 46.5047C55.843 45.819 54.9335 45.219 53.9049 44.819C52.1001 44.1143 50.3001 44.0143 48.5144 44.8857C48.4478 44.919 48.3573 44.9238 48.2859 44.9143C47.1335 44.7333 46.0192 44.8857 44.9335 45.3C44.2859 45.5476 43.6811 45.8714 43.1382 46.3143C43.9287 45.8238 44.7668 45.4428 45.6906 45.2428C45.5192 45.3952 45.3478 45.5524 45.1763 45.7047C45.8811 45.4095 46.5811 45.2143 47.343 45.4047C45.5954 45.5667 44.1144 46.2667 42.9287 47.5809C42.9049 47.5667 42.8811 47.5524 42.8573 47.5381C42.9097 47.2714 42.9668 47 43.0239 46.7095C42.6573 46.9809 42.2954 47.2428 41.9382 47.5047C41.9144 47.4809 41.8954 47.4571 41.8716 47.4333C42.1478 47.2 42.4287 46.9619 42.7049 46.7286C42.6811 46.6952 42.6525 46.6619 42.6287 46.6286C42.262 46.8524 41.8763 47.0619 41.5239 47.3095C40.2049 48.2381 39.143 49.4286 38.2287 50.7476C37.9239 51.1905 37.5335 51.4571 37.0478 51.619C36.8573 51.6809 36.6668 51.7333 36.4287 51.8047C37.2097 52.6619 38.1525 52.4667 39.1049 52.3428C39.0573 52.5047 38.9954 52.6428 38.9763 52.7905L38.9573 52.7714ZM50.1859 46.9047C50.7668 47.2333 51.0906 47.7571 51.3192 48.3476C51.2859 48.4667 51.2668 48.5857 51.2668 48.7047C51.1954 48.5571 51.1097 48.4143 51.0049 48.2714C50.6859 47.8476 50.4097 47.3952 50.1144 46.9524C50.1382 46.9333 50.162 46.919 50.1906 46.9L50.1859 46.9047ZM56.0287 46.3714C55.7668 46.2095 55.5097 46.0428 55.2382 45.8952C54.9763 45.7571 54.7001 45.6476 54.4335 45.5238C54.4097 45.5524 54.3859 45.5809 54.3668 45.6095C54.4144 45.7333 54.4668 45.8571 54.5382 46.0333C53.8478 45.4524 53.1097 45.0381 52.2668 44.819C51.4192 44.6 50.5668 44.6095 49.7192 44.8143C51.624 44.1047 54.1906 44.5428 56.0287 46.3714Z" fill="#D9D8D6"></path><path d="M59.8859 50.0236C60.2525 49.9759 60.6002 49.9283 60.943 49.8807C60.9573 49.8569 60.9716 49.8283 60.9859 49.8045C60.8954 49.6998 60.8049 49.595 60.7144 49.4902C60.4382 49.6664 60.1621 49.8474 59.8859 50.0283V50.0236Z" fill="#D9D8D6"></path><path d="M59.4906 50.2476C59.381 50.3237 59.2715 50.3999 59.1667 50.4761C59.2382 50.6523 59.3144 50.8285 59.3953 50.9999C59.4667 51.1523 59.581 51.2999 59.7096 51.4095C59.962 51.619 60.1667 51.8476 60.2953 52.1714C60.3525 52.1476 60.4144 52.1238 60.4715 52.0999C60.4525 51.8047 60.3906 51.519 60.2953 51.2428C60.0287 50.9142 59.7667 50.5904 59.4953 50.2523L59.4906 50.2476Z" fill="#D9D8D6"></path><path d="M60.281 56.7334C60.0287 57.8 59.4334 58.6762 58.7096 59.4715C58.7001 59.4857 58.6763 59.4857 58.6191 59.5048C58.6953 59.3667 58.7477 59.2667 58.8049 59.1667C59.2763 58.2905 59.7096 57.3953 59.8525 56.4C59.8953 56.0905 59.9096 55.7905 59.8477 55.5096C59.2334 55.6 58.6239 55.7 58.0096 55.8048C57.9668 55.9953 57.9525 56.1953 57.9144 56.4C57.8715 56.2096 57.8239 56.0286 57.7715 55.8429C57.5239 55.8857 57.281 55.9334 57.0334 55.9762C57.0334 56.2715 57.0191 56.5667 56.9858 56.8667C56.9715 56.9953 57.0049 57.1286 57.0239 57.2619C57.0763 57.6667 57.1763 58.0762 57.1858 58.481C57.2287 59.9715 56.8191 61.3572 56.2049 62.6953C56.1715 62.7715 56.1382 62.8476 56.1049 62.9238C56.3096 62.8429 56.4763 62.7381 56.6239 62.6143C58.1001 61.3857 59.3334 59.9286 60.562 58.4667C60.6144 58.4 60.6287 58.2857 60.6334 58.1953C60.6525 57.2572 60.6668 56.3191 60.6858 55.3857C60.5525 55.4048 60.4239 55.4238 60.2906 55.4429C60.3858 55.8524 60.3858 56.2857 60.281 56.7334Z" fill="#D9D8D6"></path><path d="M57.5192 53.381C57.1477 53.0382 56.643 52.7858 56.0811 52.6953C56.4382 53.0239 56.7525 53.3191 57.0715 53.6001C57.2192 53.5239 57.3715 53.4525 57.5192 53.381Z" fill="#D9D8D6"></path><path d="M59.7145 51.543C59.7811 51.8192 59.8097 52.0906 59.824 52.3668C59.9478 52.3144 60.0716 52.2668 60.1954 52.2144C60.024 51.9763 59.8669 51.762 59.7145 51.5477V51.543Z" fill="#D9D8D6"></path><path d="M58.6907 50.8145C58.5383 50.9192 58.3859 51.0287 58.2383 51.1335C58.5811 51.3383 58.8764 51.6145 59.1669 51.9002C59.0716 51.5002 58.8954 51.1478 58.6907 50.8145Z" fill="#D9D8D6"></path><path d="M59.3049 54.7474C59.3287 54.5808 59.3382 54.4284 59.343 54.2808C59.1096 54.357 58.8715 54.4331 58.6382 54.5093C58.6144 54.6808 58.543 54.8712 58.4668 54.9617C58.3334 55.1236 58.2049 55.2998 58.1144 55.4903C58.6525 55.3855 59.1906 55.2903 59.7382 55.2141C59.6477 55.0427 59.5096 54.8808 59.3096 54.7474H59.3049Z" fill="#D9D8D6"></path><path d="M59.8335 52.7475C59.8288 53.1094 59.7954 53.4666 59.7573 53.8237C60.0907 53.7142 60.4192 53.6046 60.7526 53.4951C60.7002 53.2808 60.6335 53.0713 60.543 52.857C60.4954 52.7475 60.4716 52.6142 60.4764 52.4951C60.4764 52.4808 60.4764 52.4713 60.4764 52.457C60.2621 52.5523 60.0478 52.6523 59.8335 52.7475Z" fill="#D9D8D6"></path><path d="M58.1287 54.0141C58.3144 53.976 58.5049 54.0094 58.6002 54.2046C58.843 54.1237 59.0811 54.0475 59.324 53.9665C59.2811 53.6237 59.1573 53.3475 58.9525 53.1475C58.7144 53.2522 58.4811 53.3617 58.243 53.4665C58.1763 53.5046 58.1049 53.5379 58.0335 53.5617C57.8144 53.6617 57.5954 53.757 57.3763 53.857C57.5954 54.0046 57.8382 54.076 58.1287 54.0189V54.0141Z" fill="#D9D8D6"></path><path d="M59.7335 54.1569C59.743 54.2712 59.7716 54.376 59.8526 54.4855C60.0049 54.6998 60.1192 54.9188 60.2049 55.1474C60.3716 55.1236 60.5383 55.1046 60.7049 55.0855C60.7049 55.076 60.7049 55.0617 60.7097 55.0474C60.8526 54.6236 60.8716 54.2093 60.8145 53.7998C60.4573 53.9141 60.0954 54.0331 59.7335 54.1474V54.1569Z" fill="#D9D8D6"></path><path d="M57.6906 55.5714C57.6192 55.3429 57.5335 55.1191 57.4382 54.9048C57.2811 54.9572 57.1287 55.0048 56.9763 55.0572C57.0049 55.2762 57.0239 55.5 57.0335 55.7238C57.2525 55.6714 57.4763 55.6191 57.6954 55.5762L57.6906 55.5714Z" fill="#D9D8D6"></path><path d="M56.7906 54.1192C56.8478 54.3287 56.8906 54.543 56.9287 54.7572C57.0526 54.7144 57.1764 54.6763 57.3002 54.6334C57.1906 54.4334 57.0668 54.243 56.9192 54.062C56.8764 54.0811 56.8335 54.1001 56.7906 54.1192Z" fill="#D9D8D6"></path><path d="M59.5334 50.2526C59.6906 50.3383 59.8287 50.4002 59.9477 50.4764C59.8858 50.3574 59.8239 50.2383 59.7573 50.105C59.6811 50.1526 59.6096 50.2002 59.5334 50.2526Z" fill="#D9D8D6"></path><path d="M39.6334 56.8525C39.6858 56.5858 39.6715 56.3192 39.5192 56.1001C39.1906 56.0668 38.862 56.0335 38.5334 56.0049C38.5192 56.143 38.5001 56.2811 38.4858 56.4192C38.462 56.6382 38.4668 56.8573 38.5001 57.0763C38.8668 57.0573 39.2287 57.0382 39.5954 57.0239C39.6096 56.9668 39.6239 56.9096 39.6334 56.8525Z" fill="#D9D8D6"></path><path d="M38.562 57.3475C38.6287 57.5761 38.7287 57.7999 38.8811 58.0047C39.062 58.2475 39.1858 58.2571 39.2953 57.9809C39.3763 57.7666 39.4525 57.5475 39.5192 57.3237C39.2001 57.3285 38.8811 57.338 38.562 57.3475Z" fill="#D9D8D6"></path><path d="M38.5715 55.6477C38.7858 55.6572 39.0049 55.6715 39.2192 55.6858C39.2477 55.0572 39.2572 54.4239 39.3001 53.7953C39.143 53.7477 38.9906 53.7048 38.8334 53.6572C38.7382 54.3191 38.6477 54.9858 38.5715 55.6477Z" fill="#D9D8D6"></path><path d="M43.2478 53.0522C42.624 53.3951 42.0478 53.8189 41.3716 54.0475C41.5573 54.0999 41.7383 54.1475 41.924 54.1999C42.2192 53.9713 42.5192 53.7427 42.8097 53.5094C42.9716 53.3808 43.1002 53.2094 43.2478 53.057V53.0522Z" fill="#D9D8D6"></path><path d="M42.043 58.0095C41.6525 57.8714 41.3334 57.638 41.0858 57.3047C40.7572 57.3047 40.4287 57.3047 40.1001 57.3047C40.0763 57.3047 40.0477 57.3047 40.0239 57.3047C39.9287 57.5952 39.7858 57.8714 39.681 58.1618C39.6525 58.2428 39.6239 58.3333 39.6096 58.419C40.4239 58.2571 41.2334 58.119 42.043 58.0047V58.0095Z" fill="#D9D8D6"></path><path d="M39.6811 53.9047C39.6573 54.0618 39.6383 54.2285 39.6478 54.3999C39.6526 54.5666 39.6145 54.7332 39.6097 54.8999C39.5954 55.1761 39.5859 55.4475 39.6288 55.7094C39.9621 55.7332 40.2907 55.7618 40.6192 55.7951C40.6192 55.6713 40.6145 55.5475 40.6192 55.4237C40.6192 55.2428 40.6811 55.138 40.8192 55.0332C41.0716 54.8428 41.3192 54.6523 41.5716 54.4618C40.943 54.2761 40.3145 54.0904 39.6907 53.8999L39.6811 53.9047Z" fill="#D9D8D6"></path><path d="M43.7383 62.2142C43.4002 61.6523 43.1621 61.0428 43.1335 60.3666C43.1145 59.9095 43.2145 59.4952 43.4383 59.0999C42.9288 59.4428 42.6192 59.8999 42.6288 60.5428C42.3478 59.7856 42.0668 59.038 42.4954 58.2666C41.5526 58.4333 40.6145 58.5952 39.6716 58.7571C39.7383 58.9666 39.824 59.1761 39.9526 59.3428C40.2859 59.7666 40.6764 60.1476 41.0383 60.538C40.2764 60.3095 39.7859 59.7428 39.3859 58.9857C39.3811 59.0999 39.3668 59.138 39.3764 59.1714C39.6573 60.3666 40.3002 61.2809 41.3954 61.8809C42.3288 62.3904 43.2383 62.9476 44.1573 63.4904C44.4049 63.638 44.6335 63.8095 44.8716 63.9714C44.8573 63.8809 44.8192 63.8237 44.7811 63.7666C44.4288 63.2523 44.0526 62.7571 43.7335 62.2237L43.7383 62.2142Z" fill="#D9D8D6"></path><path d="M40.8907 56.9859C40.8907 56.9859 40.8716 56.9526 40.8621 56.9335C40.7478 56.7002 40.6859 56.4574 40.6526 56.2097C40.3526 56.1812 40.0573 56.1526 39.7573 56.124C39.8049 56.224 39.8668 56.324 39.9526 56.4193C40.0716 56.5526 40.124 56.805 40.1049 57.005C40.3668 56.9955 40.6288 56.9907 40.8907 56.9859Z" fill="#D9D8D6"></path><path d="M41.743 51.0858C41.624 51.0858 41.4668 51.1049 41.3907 51.1811C41.0716 51.5049 40.7526 51.8334 40.4811 52.2001C40.1621 52.6334 39.8859 53.0906 39.7478 53.6001C40.0811 53.6906 40.4145 53.7811 40.7478 53.8715C40.6526 53.2811 40.6192 52.7001 40.9811 52.1287C41.2859 52.7287 41.6383 53.2239 42.3859 53.1477C42.7907 53.1049 43.0526 52.862 43.1859 52.543C42.9288 52.2191 42.6478 51.9525 42.4859 51.6287C42.3192 51.2953 42.1192 51.0858 41.7478 51.0811L41.743 51.0858Z" fill="#D9D8D6"></path><path d="M62.643 61.9761C62.424 62.3094 62.2097 62.6094 62.0144 62.9285C61.9764 62.9904 61.9906 63.1094 62.024 63.1808C62.2287 63.6142 62.3621 64.057 62.424 64.5237C62.7764 63.957 63.1097 63.3713 63.4335 62.757C63.2145 62.4618 62.9525 62.1951 62.643 61.9761Z" fill="#D9D8D6"></path><path d="M55.8716 51.2288C55.5573 51.1764 55.224 51.205 54.9145 51.1383C54.6145 51.0716 54.3192 51.005 54.0192 50.9288C53.6716 50.8431 53.3192 50.7573 52.9669 50.6669C52.8669 50.6431 52.7716 50.6192 52.6716 50.5954C52.624 50.605 52.5431 50.6478 52.4669 50.6383C51.1859 50.4573 50.0669 50.7478 49.2002 51.7669C49.1907 51.7812 49.1669 51.7812 49.1716 51.7812C48.8383 51.6145 48.5288 51.4383 48.2002 51.3002C47.6431 51.0716 47.0669 50.9621 46.4669 51.124C46.0716 51.2335 45.6669 51.3288 45.2859 51.4812C45.2859 51.4812 45.2812 51.4812 45.2764 51.4812C44.8859 51.6383 44.5097 51.824 44.1431 52.0383C43.8192 52.2288 43.505 52.4335 43.1954 52.6716C44.224 53.2764 45.0002 54.1192 45.7764 54.8812C45.7954 54.8526 45.8145 54.824 45.8383 54.7954C46.0097 54.5573 46.1669 54.3145 46.3621 54.1192C46.4573 54.0288 46.7002 53.9859 46.8097 54.0431C47.7621 54.5478 48.7716 54.5716 49.7859 54.405C50.5097 54.2859 51.1288 53.8764 51.7335 53.4812C51.9192 53.3621 52.0431 53.3669 52.2002 53.505C52.4145 53.7002 52.6431 53.8812 52.8669 54.0669C53.6669 52.7002 55.0288 52.124 56.4192 51.4669C56.2002 51.3764 56.0383 51.2716 55.8621 51.2431L55.8716 51.2288Z" fill="#D9D8D6"></path><path d="M50.0049 32.9766C39.2716 36.5813 32.443 34.4051 32.443 34.4051V49.748C32.443 69.1385 50.0049 76.7194 50.0049 76.7194C50.0049 76.7194 67.562 69.1385 67.562 49.748V34.4051C67.562 34.4051 60.7287 36.5813 50.0049 32.9766ZM66.5287 49.7813C66.5287 68.2718 50.0049 75.5051 50.0049 75.5051C50.0049 75.5051 33.4763 68.2766 33.4763 49.7813V35.6432C42.7763 37.248 50.0049 34.0956 50.0049 34.0956C50.0049 34.0956 57.2335 37.248 66.5287 35.6432V49.7813Z" fill="white"></path><path d="M53.7477 43.3192H54.6144C54.6144 43.3192 54.9954 43.3287 55.0668 43.2239H54.5906H54.4477C54.4477 43.2239 54.4287 43.2239 54.4334 43.2144L55.562 42.5954C55.7001 42.5192 55.562 42.5287 55.562 42.5287H54.6811C54.6811 42.5287 54.3096 42.5192 54.2382 42.6239H54.6287H54.9049L53.743 43.2573C53.743 43.2573 53.6239 43.3192 53.743 43.3192H53.7477Z" fill="#D9D8D6"></path><path d="M51.643 42.6287H51.7906C51.9668 42.6287 52.0477 42.5382 52.0477 42.5382H51.5287H51.2001C51.2001 42.5382 50.6239 42.5239 50.6239 42.6334H51.0097H51.0763L50.4906 43.3287H51.0477L51.5144 42.7763L51.6382 42.6287H51.643Z" fill="#D9D8D6"></path><path d="M53.2143 42.7334C53.3714 42.5382 52.981 42.5382 52.981 42.5382H52.3714C52.1381 42.5287 52.0333 42.6334 52.0333 42.6334L51.4524 43.3144H52.0143L52.2619 43.0239C52.2619 43.0239 52.2714 43.0192 52.3 43.0192H52.3952C52.3952 43.0192 52.4143 43.0192 52.4095 43.0239L52.1619 43.3144H52.7191L53.1714 42.7811L53.2095 42.7239L53.2143 42.7334ZM52.6381 42.7477L52.5714 42.8192L52.5429 42.8525C52.5429 42.8525 52.5333 42.862 52.5048 42.862H52.4143C52.4143 42.862 52.3952 42.862 52.4 42.8525L52.4143 42.8382L52.4952 42.7477C52.4952 42.7477 52.5048 42.743 52.5333 42.743H52.6286C52.6286 42.743 52.6476 42.743 52.6429 42.7477H52.6381Z" fill="#D9D8D6"></path><path d="M58.3191 42.6146L57.8334 43.186C57.8334 43.186 57.7334 43.3193 57.5429 43.3193H57.1572L57.7334 42.6336L57.7191 42.6241H57.6239C57.5953 42.6241 57.5858 42.6336 57.5858 42.6336L57.0905 43.2193L57.4524 42.786L57.1144 43.1813C57.1144 43.1813 57.0144 43.3146 56.8239 43.3146H56.4429L57.0191 42.6289L57.0048 42.6193H56.9096C56.881 42.6193 56.8715 42.6289 56.8715 42.6289L56.3763 43.2146C56.3763 43.2146 56.3001 43.3146 56.1048 43.3146H55.7334L56.3144 42.6336C56.3144 42.6336 56.4191 42.5241 56.6524 42.5384H58.2715C58.2715 42.5384 58.381 42.5384 58.3143 42.6098L58.3191 42.6146Z" fill="#D9D8D6"></path><path d="M56.3096 42.5337H55.9525C55.7334 42.5337 55.6192 42.6908 55.6192 42.6908L55.0811 43.3242H55.4572C55.4572 43.3242 55.6477 43.3242 55.7906 43.1527L56.3096 42.5337Z" fill="#D9D8D6"></path><path d="M54.1572 42.5337H53.8C53.581 42.5337 53.4667 42.6908 53.4667 42.6908L53.3572 42.8242H53.7334C53.7334 42.8242 53.9238 42.8242 54.0667 42.6527L54.1572 42.5337Z" fill="#D9D8D6"></path><path d="M49.3191 43.2337C49.3191 43.2337 49.3001 43.2337 49.3048 43.2242L49.881 42.5337H49.5239C49.3048 42.5337 49.1906 42.6908 49.1906 42.6908L48.6525 43.3242H49.5572C49.5572 43.3242 49.9287 43.3289 50.0001 43.2289H49.4096H49.3144L49.3191 43.2337Z" fill="#D9D8D6"></path><path d="M44.781 42.5337H44.0858C43.8477 42.5337 43.7525 42.6766 43.7525 42.6766L43.2048 43.3242H44.1096C44.1096 43.3242 44.481 43.3289 44.5525 43.2289L45.0048 42.7004C45.1334 42.548 44.781 42.5337 44.781 42.5337ZM44.3763 42.748L44.1286 43.0385L44.1001 43.0718C44.1001 43.0718 44.0905 43.0765 44.062 43.0765H43.9667C43.9667 43.0765 43.9477 43.0765 43.9525 43.067L43.9667 43.0527L44.2334 42.7432C44.2334 42.7432 44.2429 42.7337 44.2715 42.7337H44.3667C44.3667 42.7337 44.3858 42.7337 44.3763 42.7432V42.748Z" fill="#D9D8D6"></path><path d="M46.3334 42.7334C46.4906 42.5382 46.1001 42.5382 46.1001 42.5382H45.4906C45.2572 42.5287 45.1525 42.6334 45.1525 42.6334L44.5715 43.3144H45.1334L45.3811 43.0239C45.3811 43.0239 45.3906 43.0192 45.4192 43.0192H45.5144C45.5144 43.0192 45.5334 43.0192 45.5287 43.0239L45.2811 43.3144H45.8382L46.2906 42.7811L46.3334 42.7239V42.7334ZM45.7572 42.7477L45.6906 42.8192L45.662 42.8525C45.662 42.8525 45.6525 42.862 45.6239 42.862H45.5334C45.5334 42.862 45.5144 42.862 45.5192 42.8525L45.5334 42.8382L45.6144 42.7477C45.6144 42.7477 45.6239 42.743 45.6525 42.743H45.743C45.743 42.743 45.762 42.743 45.7572 42.7477Z" fill="#D9D8D6"></path><path d="M48.662 43.2239L49.2429 42.543H48.8715C48.6762 42.543 48.6001 42.643 48.6001 42.643L48.1048 43.2287C48.1048 43.2287 48.0953 43.2382 48.0667 43.2382H47.9715C47.9715 43.2382 47.9524 43.2382 47.9572 43.2287L48.5286 42.543H48.1477C47.9572 42.543 47.8572 42.6811 47.8572 42.6811L47.5191 43.0763L47.4762 43.1334C47.3191 43.3287 47.7096 43.3239 47.7096 43.3239H48.3191C48.5524 43.3334 48.6572 43.2287 48.6572 43.2287L48.662 43.2239Z" fill="#D9D8D6"></path><path d="M47.2905 42.9765C47.2905 42.9765 47.4619 42.9907 47.5333 42.9288L47.6619 42.7907L47.7095 42.7336C47.881 42.5145 47.4714 42.5384 47.4714 42.5384H46.8619C46.6286 42.5288 46.5238 42.6336 46.5238 42.6336L45.9429 43.3145H46.5048L46.7524 43.0241C46.7524 43.0241 46.7619 43.0193 46.7905 43.0193H46.8857C46.8857 43.0193 46.9048 43.0193 46.9 43.0241L46.6524 43.3145H47.2095L47.3524 43.1479C47.4 43.086 47.4048 43.0479 47.381 43.0193C47.381 43.0193 47.3762 42.9907 47.2905 42.9717V42.9765ZM47.1095 42.7526L47.0429 42.8241L47.0143 42.8574C47.0143 42.8574 47.0048 42.8669 46.9762 42.8669H46.881C46.881 42.8669 46.8619 42.8669 46.8667 42.8574L46.881 42.8431L46.9619 42.7526C46.9619 42.7526 46.9714 42.7479 47 42.7479H47.0953C47.0953 42.7479 47.1143 42.7479 47.1095 42.7526Z" fill="#D9D8D6"></path><path d="M30.7095 11.3384L31.1143 12.0717L28.9 13.2955L29.2476 13.9289L31.2143 12.8431L31.6143 13.5717L29.6476 14.6574L30.1333 15.5336L29.2714 16.0098L27.6333 13.0431L30.7095 11.3431V11.3384Z" fill="white"></path><path d="M36.2999 12.6237L35.7618 12.1523L33.8285 12.938L33.7714 13.6523L32.7904 14.0523L33.1333 10.2571L34.3904 9.74756L37.2809 12.2285L36.3047 12.6237H36.2999ZM33.8952 12.1142L35.1333 11.6095L34.0142 10.6333L33.8952 12.1142Z" fill="white"></path><path d="M41.3476 10.1764L40.7619 7.81927L41.7095 7.58594L42.5238 10.8764L41.1286 11.224L38.6048 9.34784L39.1905 11.705L38.2381 11.9431L37.4238 8.6526L38.8238 8.30499L41.3476 10.1812V10.1764Z" fill="white"></path><path d="M46.119 6.96208L50.2 6.79541L50.2333 7.62874L48.6857 7.69065L48.7904 10.243L47.8095 10.2811L47.7047 7.72874L46.1524 7.79065L46.119 6.95731V6.96208Z" fill="white"></path><path d="M51.3905 8.49526C51.4857 7.37622 52.3143 6.78098 53.7381 6.90479C55.1572 7.0286 55.8762 7.75717 55.781 8.87145C55.6857 9.9905 54.8524 10.5953 53.4334 10.4715C52.0096 10.3476 51.2953 9.61907 51.3905 8.49526ZM54.7572 8.78574C54.8096 8.20003 54.5048 7.80955 53.6667 7.73812C52.8334 7.66669 52.4667 7.9905 52.4191 8.58574C52.3667 9.18098 52.6762 9.57145 53.5048 9.64288C54.3381 9.71431 54.7096 9.38098 54.7619 8.7905L54.7572 8.78574Z" fill="white"></path><path d="M61.6237 8.36681L59.6333 9.38109L60.8809 11.6763L59.6761 11.4049L58.8095 9.8049L57.8618 10.2859L57.7095 10.9573L56.7523 10.7382L57.4999 7.42871L58.4618 7.643L58.1285 9.12871L60.1952 8.03823L61.6333 8.36204L61.6237 8.36681Z" fill="white"></path><path d="M66.3285 9.99541L66.0666 10.7192L63.6856 9.85732L63.4999 10.3668L65.7904 11.1954L65.5285 11.9192L63.238 11.0906L63.0523 11.6002L65.4332 12.4573L65.1713 13.1811L61.8666 11.9859L63.019 8.79541L66.3237 9.99065L66.3285 9.99541Z" fill="white"></path><path d="M69.7618 14.3526L70.8761 12.1907L71.7476 12.6383L70.1904 15.6526L68.9095 14.9907L68.2476 11.9097L67.1333 14.0716L66.2571 13.6193L67.8142 10.605L69.0999 11.2669L69.7618 14.3478V14.3526Z" fill="white"></path><path d="M27.3953 85.4763C27.2476 85.7192 27.3953 86.0239 28.1572 86.4858C28.8572 86.9049 29.0953 86.9001 29.2048 86.7192C29.3334 86.5097 29.2238 86.3906 28.3953 85.8144C27.2667 85.024 26.8905 84.4763 27.2762 83.8335C27.6429 83.2287 28.4619 83.3478 29.4667 83.9525C30.5857 84.6239 31.0238 85.3525 30.6619 86.0144L29.781 85.4859C29.9334 85.2287 29.7143 84.962 29.0619 84.5716C28.4429 84.2001 28.2429 84.2192 28.1476 84.3763C28.0381 84.5573 28.1476 84.6954 28.8953 85.2335C29.9143 85.9573 30.5619 86.4478 30.1048 87.2097C29.6572 87.9525 28.8381 87.7573 27.8048 87.1335C26.6286 86.4239 26.0905 85.7382 26.5096 84.9478L27.3905 85.4811L27.3953 85.4763Z" fill="white"></path><path d="M31.5238 87.1909C31.9714 86.1576 32.9428 85.8623 34.2571 86.429C35.5667 86.9957 36.0143 87.9147 35.5714 88.9433C35.1238 89.9766 34.1428 90.2814 32.8333 89.7147C31.519 89.148 31.0762 88.229 31.5238 87.1909ZM34.6286 88.5385C34.8619 87.9957 34.6952 87.5338 33.9238 87.1957C33.1571 86.8623 32.7047 87.0576 32.4714 87.6004C32.2333 88.1481 32.4047 88.6147 33.1667 88.948C33.9333 89.2814 34.3952 89.0814 34.6286 88.5338V88.5385Z" fill="white"></path><path d="M39.2952 88.2146C40.4952 88.5527 41.0333 89.2574 40.8952 90.1241L39.8905 89.8431C39.9095 89.5241 39.6762 89.186 39.0714 89.0193C38.3714 88.8241 37.9381 89.0717 37.7762 89.6431C37.6143 90.2193 37.8619 90.6622 38.5571 90.8574C39.1619 91.0241 39.5381 90.8574 39.6857 90.5669L40.6905 90.8479C40.3571 91.6669 39.5333 91.9955 38.3286 91.6622C37.019 91.2955 36.4714 90.486 36.7809 89.3669C37.0952 88.2527 37.9809 87.8479 39.2905 88.2146H39.2952Z" fill="white"></path><path d="M43.3953 89.2289L42.7953 92.5623L41.8286 92.3861L42.4286 89.0527L43.3953 89.2289Z" fill="white"></path><path d="M44.419 91.1481C44.5095 90.029 45.3333 89.4338 46.7571 89.5481C48.1762 89.6624 48.9 90.3909 48.8047 91.5052C48.7143 92.6243 47.8857 93.229 46.4619 93.1147C45.0381 93.0005 44.319 92.2719 44.4143 91.1481H44.419ZM47.7857 91.4243C47.8333 90.8386 47.5285 90.4528 46.6905 90.3814C45.8571 90.3148 45.4952 90.6433 45.4428 91.2338C45.3952 91.829 45.7047 92.2148 46.5333 92.2862C47.3666 92.3528 47.7381 92.0195 47.7857 91.4243Z" fill="white"></path><path d="M51.119 92.048C51.1333 92.3337 51.4238 92.5051 52.3143 92.4575C53.1286 92.4146 53.3238 92.2766 53.3095 92.0623C53.2952 91.8146 53.1428 91.7813 52.1333 91.767C50.7571 91.7432 50.1333 91.5004 50.0952 90.748C50.0571 90.0432 50.8047 89.6813 51.9762 89.6242C53.2809 89.5575 54.0524 89.9099 54.119 90.6623L53.0952 90.7146C53.0809 90.4146 52.7476 90.3194 51.9857 90.3575C51.2666 90.3956 51.1095 90.5242 51.119 90.7051C51.1285 90.9146 51.2952 90.9718 52.219 91.0004C53.4666 91.0289 54.2809 91.0718 54.3285 91.9623C54.3714 92.8289 53.5857 93.1242 52.3809 93.1861C51.0095 93.2575 50.1762 92.9861 50.0857 92.0956L51.1143 92.0432L51.119 92.048Z" fill="white"></path><path d="M55.7429 92.0434L56.681 91.9053L56.7858 92.6338L55.8477 92.7719L55.7382 92.0434H55.7429Z" fill="white"></path><path d="M59.4809 88.5387C60.6952 88.2434 61.5095 88.5958 61.8143 89.4196L60.8 89.6673C60.6619 89.3768 60.2905 89.2006 59.6809 89.3482C58.9762 89.5196 58.719 89.9482 58.8571 90.5292C59 91.1101 59.4333 91.3768 60.1333 91.2054C60.7428 91.0577 60.9905 90.7244 60.9762 90.3958L61.9905 90.1482C62.1 91.0244 61.5428 91.7196 60.3286 92.0149C59.0047 92.3387 58.1286 91.9006 57.8524 90.772C57.5762 89.6482 58.1524 88.8625 59.4762 88.5387H59.4809Z" fill="white"></path><path d="M63.1524 89.3956C62.7382 88.348 63.2191 87.4527 64.5477 86.9242C65.8715 86.4003 66.8429 86.7337 67.2524 87.7765C67.6667 88.8242 67.1858 89.7337 65.862 90.2575C64.5334 90.7813 63.5667 90.448 63.1524 89.3956ZM66.3001 88.1527C66.0858 87.6051 65.6382 87.3908 64.8572 87.7003C64.081 88.0051 63.8953 88.4622 64.1143 89.0146C64.3334 89.5718 64.7858 89.7813 65.5572 89.4765C66.3334 89.1718 66.5191 88.7051 66.3001 88.1527Z" fill="white"></path><path d="M69.3334 88.6956L67.6287 85.7623L68.9525 84.9908L71.1049 86.3432L70.9906 83.8051L72.3144 83.0337L74.0191 85.967L73.1715 86.4575L71.9382 84.3337L72.0715 87.1004L71.2858 87.5575L68.9477 86.0765L70.1858 88.2004L69.3334 88.6956Z" fill="white"></path><path d="M23.0191 81.8382C13.9953 74.1811 8.26672 62.7573 8.26672 50.0001C8.26672 37.243 14.3001 25.2144 23.7382 17.562" stroke="#EA0029" stroke-miterlimit="10"></path><path d="M76.2667 17.5669C85.7048 25.2193 91.7334 36.905 91.7334 50.0002C91.7334 63.0955 86.0048 74.1859 76.981 81.8431" stroke="#EA0029" stroke-miterlimit="10"></path></g><defs><clipPath id="clip0_101_22112"><rect width="100" height="100" fill="white"></rect></clipPath></defs></svg>