<svg xmlns="http://www.w3.org/2000/svg" width="100" height="100" viewBox="0 0 100 100" fill="none"><g clip-path="url(#clip0_101_22073)"><path d="M50 100C77.6142 100 100 77.6142 100 50C100 22.3858 77.6142 0 50 0C22.3858 0 0 22.3858 0 50C0 77.6142 22.3858 100 50 100Z" fill="white"></path><path d="M50 2.53333C76.1714 2.53333 97.4667 23.8286 97.4667 50C97.4667 76.1714 76.1714 97.4667 50 97.4667C23.8286 97.4667 2.53333 76.1714 2.53333 50C2.53333 23.8286 23.8286 2.53333 50 2.53333ZM50 0C22.3857 0 0 22.3857 0 50C0 77.6143 22.3857 100 50 100C77.6143 100 100 77.6143 100 50C100 22.3857 77.6143 0 50 0Z" fill="black"></path><path d="M50.0001 80.519L49.1668 79.2952C46.9191 75.9904 44.1572 74.0857 41.5049 72.519C40.7477 72.0714 39.9668 71.638 39.2096 71.2142C36.0287 69.4428 32.743 67.6095 30.2001 64.3523C27.043 60.3095 26.5382 55.219 28.662 48.7857C29.0001 47.7666 29.3382 46.8142 29.6668 45.8904C30.6239 43.2047 31.4525 40.8857 31.5763 38.5809C31.7334 35.6714 30.8906 32.9238 28.8334 29.6714L28.4525 29.0666L34.3239 21.7285H65.662L71.5334 29.0666L71.1525 29.6714C69.1001 32.9238 68.2525 35.6714 68.4096 38.5809C68.5334 40.8857 69.362 43.2047 70.3191 45.8857C70.6477 46.8095 70.9906 47.7619 71.3239 48.7809C73.4477 55.2142 72.943 60.3047 69.7858 64.3476C67.243 67.5999 63.9572 69.4333 60.7763 71.2095C60.0239 71.6285 59.243 72.0666 58.4858 72.5142C55.8334 74.0761 53.0668 75.9809 50.8239 79.2904L49.9953 80.5142L50.0001 80.519Z" fill="white"></path><path d="M68.1287 62.6665C69.562 60.757 70.2715 58.4094 70.2239 55.7427C70.1858 53.5284 69.6001 51.0903 68.7191 48.4903C67.462 44.7808 66.2239 41.7094 66.0668 38.6903C65.9287 36.0284 66.5477 32.7665 68.6715 29.3237L64.4239 24.0903H40.6001L65.4572 65.4522C66.4287 64.638 67.3334 63.7284 68.1287 62.6665Z" fill="white"></path><path d="M35.5763 24.0854L32.6953 27.6331L58.2144 70.0283C59.4239 69.3426 60.6858 68.6616 61.9239 67.914L35.5763 24.0854Z" fill="white"></path><path d="M31.3287 29.3191C33.4525 32.762 34.0715 36.0239 33.9334 38.6858C33.7763 41.7001 32.5382 44.7715 31.2811 48.4858C30.4001 51.0906 29.8144 53.5287 29.7763 55.7382C29.7287 58.4096 30.4382 60.7525 31.8715 62.662C34.6287 66.3429 38.7096 68.2525 42.2715 70.3049C44.9001 71.8239 47.9382 73.7239 50.0001 76.8334C52.062 73.7239 55.1001 71.8191 57.7287 70.3049C57.8906 70.2144 58.0525 70.1191 58.2144 70.0287L32.6953 27.6382L31.3287 29.3239V29.3191Z" fill="#007A3E"></path><path d="M64.4906 66.214C64.543 66.1712 64.6001 66.1331 64.6525 66.095C64.9096 65.8997 65.1668 65.695 65.4192 65.4855L65.4573 65.4521L40.6001 24.0854H35.5763L61.9239 67.914L61.9906 67.8712C62.5477 67.5378 63.0953 67.1854 63.6382 66.814C63.7049 66.7664 63.7715 66.7235 63.8382 66.6759C64.0572 66.5235 64.2763 66.3664 64.4906 66.2093" fill="#C82026"></path><path d="M70.381 49.1049C69.0477 45.0669 67.5906 41.9097 67.4144 38.643C67.2572 35.7621 67.9572 32.8669 70.3096 29.143L65.1858 22.7383H34.8144L29.6906 29.143C32.0429 32.8669 32.7429 35.7621 32.5858 38.643C32.4096 41.9097 30.9525 45.0669 29.6191 49.1049C27.5668 55.324 28.0953 60.024 30.9953 63.7383C33.9953 67.5811 38.0668 69.324 42.0144 71.6526C44.8953 73.3526 47.7144 75.3621 50.0001 78.7288C52.2858 75.3621 55.1048 73.3526 57.9858 71.6526C61.9334 69.324 66.0049 67.5811 69.0049 63.7383C71.9049 60.024 72.4334 55.324 70.381 49.1049ZM63.6382 66.8192C63.1001 67.1907 62.5477 67.5383 61.9906 67.8764L61.9239 67.9192C60.6858 68.6621 59.4287 69.3478 58.2144 70.0335C58.0525 70.1288 57.8906 70.2192 57.7287 70.3145C55.1001 71.8288 52.062 73.7335 50.0001 76.843C47.9382 73.7335 44.9001 71.8288 42.2715 70.3145C38.7096 68.2573 34.6287 66.3478 31.8715 62.6669C30.4382 60.7573 29.7287 58.4097 29.7763 55.743C29.8144 53.5288 30.4001 51.0907 31.281 48.4907C32.5334 44.7764 33.7763 41.7097 33.9334 38.6907C34.0715 36.0288 33.4525 32.7669 31.3287 29.324L32.6953 27.6383L35.5763 24.0907H64.4287L68.6763 29.324C66.5525 32.7669 65.9334 36.0288 66.0715 38.6907C66.2287 41.7049 67.4668 44.7764 68.7239 48.4907C69.8906 52.0669 70.1906 53.5335 70.2287 55.743C70.2763 58.4145 69.5668 60.7573 68.1334 62.6669C67.3382 63.7288 66.4334 64.6383 65.462 65.4526L65.4239 65.4859C65.1715 65.6954 64.9144 65.9002 64.6572 66.0954C64.6049 66.1383 64.5477 66.1764 64.4953 66.2145C64.281 66.3716 64.062 66.5288 63.8429 66.6811C63.7763 66.7288 63.7096 66.7764 63.6429 66.8192" fill="#1D1C1A"></path><path d="M57.7049 25.7285C53.9287 25.7285 50.8668 28.7904 50.8668 32.5714C50.8668 36.3523 53.9287 39.4142 57.7049 39.4142C61.4811 39.4142 64.5478 36.3523 64.5478 32.5714C64.5478 28.7904 61.4859 25.7285 57.7049 25.7285ZM57.7049 38.3476C54.5144 38.3476 51.9287 35.7618 51.9287 32.5714C51.9287 29.3809 54.5144 26.7952 57.7049 26.7952C60.8954 26.7952 63.4811 29.3809 63.4811 32.5714C63.4811 35.7618 60.8954 38.3476 57.7049 38.3476Z" fill="#1D1C1A"></path><path d="M56.9524 28.3809H55.3143V36.4713H60.581V34.857H56.9524V28.3809Z" fill="#1D1C1A"></path><path d="M30.7095 11.3384L31.1143 12.0717L28.9 13.2955L29.2476 13.9289L31.2143 12.8431L31.6143 13.5717L29.6476 14.6574L30.1333 15.5336L29.2714 16.0098L27.6333 13.0431L30.7095 11.3431V11.3384Z" fill="black"></path><path d="M36.2999 12.6237L35.7618 12.1523L33.8285 12.938L33.7714 13.6523L32.7904 14.0523L33.1333 10.2571L34.3904 9.74756L37.2809 12.2285L36.3047 12.6237H36.2999ZM33.8952 12.1142L35.1333 11.6095L34.0142 10.6333L33.8952 12.1142Z" fill="black"></path><path d="M41.3476 10.1764L40.7619 7.81927L41.7095 7.58594L42.5238 10.8764L41.1286 11.224L38.6048 9.34784L39.1905 11.705L38.2381 11.9431L37.4238 8.6526L38.8238 8.30499L41.3476 10.1812V10.1764Z" fill="black"></path><path d="M46.119 6.96208L50.2 6.79541L50.2333 7.62874L48.6857 7.69065L48.7904 10.243L47.8095 10.2811L47.7047 7.72874L46.1524 7.79065L46.119 6.95731V6.96208Z" fill="black"></path><path d="M51.3905 8.49526C51.4857 7.37622 52.3143 6.78098 53.7381 6.90479C55.1572 7.0286 55.8762 7.75717 55.781 8.87145C55.6857 9.9905 54.8524 10.5953 53.4334 10.4715C52.0096 10.3476 51.2953 9.61907 51.3905 8.49526ZM54.7572 8.78574C54.8096 8.20003 54.5048 7.80955 53.6667 7.73812C52.8334 7.66669 52.4667 7.9905 52.4191 8.58574C52.3667 9.18098 52.6762 9.57145 53.5048 9.64288C54.3381 9.71431 54.7096 9.38098 54.7619 8.7905L54.7572 8.78574Z" fill="black"></path><path d="M61.6237 8.36681L59.6333 9.38109L60.8809 11.6763L59.6761 11.4049L58.8095 9.8049L57.8618 10.2859L57.7095 10.9573L56.7523 10.7382L57.4999 7.42871L58.4618 7.643L58.1285 9.12871L60.1952 8.03823L61.6333 8.36204L61.6237 8.36681Z" fill="black"></path><path d="M66.3285 9.99553L66.0666 10.7193L63.6856 9.85744L63.4999 10.367L65.7904 11.1955L65.5285 11.9193L63.238 11.0908L63.0523 11.6003L65.4332 12.4622L65.1713 13.186L61.8666 11.9908L63.019 8.80029L66.3237 9.99553H66.3285Z" fill="black"></path><path d="M69.7618 14.3526L70.8761 12.1907L71.7476 12.6383L70.1904 15.6526L68.9095 14.9907L68.2476 11.9097L67.1333 14.0716L66.2571 13.6193L67.8142 10.605L69.0999 11.2669L69.7618 14.3478V14.3526Z" fill="black"></path><path d="M27.3953 85.4763C27.2476 85.7192 27.3953 86.0239 28.1572 86.4858C28.8572 86.9049 29.0953 86.9001 29.2048 86.7192C29.3334 86.5097 29.2238 86.3906 28.3953 85.8144C27.2667 85.024 26.8905 84.4763 27.2762 83.8335C27.6429 83.2287 28.4619 83.3478 29.4667 83.9525C30.5857 84.6239 31.0238 85.3525 30.6619 86.0144L29.781 85.4859C29.9334 85.2287 29.7143 84.962 29.0619 84.5716C28.4429 84.2001 28.2429 84.2192 28.1476 84.3763C28.0381 84.5573 28.1476 84.6954 28.8953 85.2335C29.9143 85.9573 30.5619 86.4478 30.1048 87.2097C29.6572 87.9525 28.8381 87.7573 27.8048 87.1335C26.6286 86.4239 26.0905 85.7382 26.5096 84.9478L27.3905 85.4811L27.3953 85.4763Z" fill="black"></path><path d="M31.5238 87.1909C31.9714 86.1576 32.9428 85.8623 34.2571 86.429C35.5667 86.9957 36.0143 87.9147 35.5714 88.9433C35.1238 89.9766 34.1428 90.2814 32.8333 89.7147C31.519 89.148 31.0762 88.229 31.5238 87.1909ZM34.6286 88.5385C34.8619 87.9957 34.6952 87.5338 33.9238 87.1957C33.1571 86.8623 32.7047 87.0576 32.4714 87.6004C32.2333 88.1481 32.4047 88.6147 33.1667 88.948C33.9333 89.2814 34.3952 89.0814 34.6286 88.5338V88.5385Z" fill="black"></path><path d="M39.2952 88.2146C40.4952 88.5527 41.0333 89.2574 40.8952 90.1241L39.8905 89.8431C39.9095 89.5241 39.6762 89.186 39.0714 89.0193C38.3714 88.8241 37.9381 89.0717 37.7762 89.6431C37.6143 90.2193 37.8619 90.6622 38.5571 90.8574C39.1619 91.0241 39.5381 90.8574 39.6857 90.5669L40.6905 90.8479C40.3571 91.6669 39.5333 91.9955 38.3286 91.6622C37.019 91.2955 36.4714 90.486 36.7809 89.3669C37.0952 88.2527 37.9809 87.8479 39.2905 88.2146H39.2952Z" fill="black"></path><path d="M43.3953 89.2289L42.7953 92.5623L41.8286 92.3861L42.4286 89.0527L43.3953 89.2289Z" fill="black"></path><path d="M44.419 91.1481C44.5095 90.029 45.3333 89.4338 46.7571 89.5481C48.1762 89.6624 48.9 90.3909 48.8047 91.5052C48.7143 92.6243 47.8857 93.229 46.4619 93.1147C45.0381 93.0005 44.319 92.2719 44.4143 91.1481H44.419ZM47.7857 91.4243C47.8333 90.8386 47.5285 90.4528 46.6905 90.3814C45.8571 90.3148 45.4952 90.6433 45.4428 91.2338C45.3952 91.829 45.7047 92.2148 46.5333 92.2862C47.3666 92.3528 47.7381 92.0195 47.7857 91.4243Z" fill="black"></path><path d="M51.119 92.048C51.1333 92.3337 51.4238 92.5051 52.3143 92.4575C53.1286 92.4146 53.3238 92.2766 53.3095 92.0623C53.2952 91.8146 53.1428 91.7813 52.1333 91.767C50.7571 91.7432 50.1333 91.5004 50.0952 90.748C50.0571 90.0432 50.8047 89.6813 51.9762 89.6242C53.2809 89.5575 54.0524 89.9099 54.119 90.6623L53.0952 90.7146C53.0809 90.4146 52.7476 90.3194 51.9857 90.3575C51.2666 90.3956 51.1095 90.5242 51.119 90.7051C51.1285 90.9146 51.2952 90.9718 52.219 91.0004C53.4666 91.0289 54.2809 91.0718 54.3285 91.9623C54.3714 92.8289 53.5857 93.1242 52.3809 93.1861C51.0095 93.2575 50.1762 92.9861 50.0857 92.0956L51.1143 92.0432L51.119 92.048Z" fill="black"></path><path d="M55.7429 92.0429L56.681 91.9048L56.7858 92.6334L55.8477 92.7715L55.7382 92.0429H55.7429Z" fill="black"></path><path d="M59.4809 88.5338C60.6952 88.2386 61.5095 88.5909 61.8143 89.4148L60.8 89.6624C60.6619 89.3719 60.2905 89.1957 59.6809 89.3433C58.9762 89.5148 58.719 89.9433 58.8571 90.5243C59 91.1052 59.4333 91.3719 60.1333 91.2005C60.7428 91.0528 60.9905 90.7195 60.9762 90.3909L61.9905 90.1433C62.1 91.0195 61.5428 91.7148 60.3286 92.01C59.0047 92.3338 58.1286 91.8957 57.8524 90.7671C57.5762 89.6433 58.1524 88.8576 59.4762 88.5338H59.4809Z" fill="black"></path><path d="M63.1524 89.3907C62.7382 88.3431 63.2191 87.4431 64.5477 86.9193C65.8715 86.3955 66.8429 86.7288 67.2524 87.7717C67.6667 88.8193 67.1858 89.7288 65.862 90.2526C64.5334 90.7764 63.5667 90.4431 63.1524 89.3907ZM66.3001 88.1478C66.0858 87.6002 65.6382 87.3859 64.8572 87.6955C64.081 88.0002 63.8953 88.4574 64.1143 89.0097C64.3334 89.5669 64.7858 89.7764 65.5572 89.4717C66.3334 89.1669 66.5191 88.7002 66.3001 88.1478Z" fill="black"></path><path d="M69.3381 88.6907L67.6333 85.7574L68.9571 84.986L71.1095 86.3383L70.9952 83.8002L72.319 83.0288L74.0238 85.9621L73.1762 86.4526L71.9428 84.3288L72.0762 87.0955L71.2904 87.5526L68.9524 86.0717L70.1904 88.1955L69.3381 88.6907Z" fill="black"></path><path d="M23.0191 81.8382C13.9953 74.1811 8.26672 62.7573 8.26672 50.0001C8.26672 37.243 14.3001 25.2144 23.7382 17.562" stroke="black" stroke-miterlimit="10"></path><path d="M76.2667 17.5669C85.7048 25.2193 91.7334 36.905 91.7334 50.0002C91.7334 63.0955 86.0048 74.1859 76.981 81.8431" stroke="black" stroke-miterlimit="10"></path></g><defs><clipPath id="clip0_101_22073"><rect width="100" height="100" fill="white"></rect></clipPath></defs></svg>