<svg xmlns="http://www.w3.org/2000/svg" width="100" height="100" viewBox="0 0 100 100" fill="none"><g clip-path="url(#clip0_101_22103)"><path d="M50 100C77.6142 100 100 77.6142 100 50C100 22.3858 77.6142 0 50 0C22.3858 0 0 22.3858 0 50C0 77.6142 22.3858 100 50 100Z" fill="#004A98"></path><path d="M50 2.53333C76.1714 2.53333 97.4667 23.8286 97.4667 50C97.4667 76.1714 76.1714 97.4667 50 97.4667C23.8286 97.4667 2.53333 76.1714 2.53333 50C2.53333 23.8286 23.8286 2.53333 50 2.53333ZM50 0C22.3857 0 0 22.3857 0 50C0 77.6143 22.3857 100 50 100C77.6143 100 100 77.6143 100 50C100 22.3857 77.6143 0 50 0Z" fill="#C10230"></path><path d="M44.862 25.7289C44.862 24.021 45.716 23.167 47.4239 23.167C48.3811 23.167 49.2144 23.6908 49.6525 24.4622H50.343C50.7858 23.686 51.6144 23.167 52.5715 23.167C54.2763 23.167 55.1303 24.021 55.1334 25.7289C55.1334 27.0765 54.0954 28.1765 52.7811 28.286C52.6334 28.6956 52.5525 29.1384 52.5525 29.5956C52.5525 31.7194 54.2715 33.4432 56.3954 33.4432C58.5192 33.4432 60.243 31.7194 60.243 29.5956C60.243 28.1479 59.443 26.886 58.2573 26.2289L59.1573 24.4051C72.5096 28.1194 77.9858 42.2432 68.4906 59.4479C68.9811 60.0908 69.2715 60.8956 69.2715 61.767C69.2715 63.8908 67.5477 65.6098 65.4239 65.6098C65.1382 65.6098 64.862 65.5765 64.5906 65.5194C61.8049 69.3241 58.3001 73.2289 54.0096 77.167C50.2715 80.6003 49.7192 80.5908 45.9906 77.1765C41.6954 73.2337 38.1858 69.3289 35.4001 65.5194C35.1334 65.5765 34.8525 65.6098 34.5668 65.6098C32.443 65.6098 30.7239 63.8908 30.7239 61.767C30.7239 60.8956 31.0144 60.0956 31.5001 59.4479C22.0001 42.2384 27.4763 28.1098 40.8334 24.4003L41.7287 26.2241C40.543 26.8813 39.7477 28.1384 39.7477 29.5908C39.7477 31.7146 41.4668 33.4384 43.5906 33.4384C45.7144 33.4384 47.4382 31.7146 47.4382 29.5908C47.4382 29.1289 47.3573 28.6908 47.2096 28.2765C45.8954 28.167 44.8573 27.067 44.8573 25.7194L44.862 25.7289Z" fill="#1D1E1C"></path><path d="M64.8811 51.3526L65.6382 51.2003V50.4431L64.8811 50.5907V51.3479V51.3526ZM36.0144 57.0955L38.062 56.6907V55.9955L36.8096 56.2479V52.305L36.0144 52.4622V57.0955ZM38.5525 56.5907L40.7763 56.1479V55.4526L39.3477 55.7384V54.3765L40.3763 54.1717V53.4765L39.3477 53.6812V52.486L40.6811 52.2193V51.5241L38.5525 51.9479V56.5812V56.5907ZM43.0239 51.0669L42.4334 54.4003L41.8525 51.3003L41.0715 51.4574L42.043 55.9003L42.8382 55.7431L43.8096 50.9145L43.0239 51.0717V51.0669ZM44.7144 55.3669L44.8572 54.3098L45.7287 54.1336L45.8715 55.1336L46.643 54.9812L45.7858 50.5145L44.8001 50.7098L43.9477 55.5145L44.7192 55.3622L44.7144 55.3669ZM47.1049 54.8907L47.8239 54.7479L47.8382 51.8526L48.8525 54.5479L49.5477 54.4098V49.7764L48.8287 49.9193L48.8144 52.5717L47.8477 50.1145L47.1096 50.2622V54.9003L47.1049 54.8907ZM50.7811 50.2145V54.1574L51.5763 54.0003V50.0574L52.3477 49.905V49.2098L50.0096 49.6764V50.3717L50.7811 50.2193V50.2145ZM52.8144 53.7526L55.0334 53.3098V52.6145L53.6096 52.9003V51.5384L54.6382 51.3336V50.6384L53.6096 50.8431V49.6479L54.9477 49.3812V48.6907L52.8144 49.1145V53.7479V53.7526ZM57.0906 48.2669V51.7336C57.0906 52.1336 57.1953 52.4193 57.4096 52.586C57.6287 52.7526 57.9287 52.7955 58.3096 52.7241C58.6906 52.6479 58.9906 52.4812 59.2001 52.2288C59.4192 51.9764 59.5287 51.6479 59.5287 51.2479V47.7812L58.7334 47.9384V51.4384C58.7334 51.7764 58.5906 51.9717 58.3096 52.0288C58.0239 52.086 57.8858 51.9431 57.8858 51.605V48.105L57.0906 48.2622V48.2669ZM60.2477 52.2764L61.0096 52.1241V51.3669L60.2477 51.5193V52.2764ZM61.7239 47.3479V51.9812L62.9049 51.7479C63.3239 51.6669 63.6334 51.4907 63.843 51.2193C64.0573 50.9479 64.1668 50.5764 64.1668 50.0955V48.2574C64.1668 47.7812 64.062 47.4479 63.843 47.2622C63.6334 47.0764 63.3239 47.0288 62.9049 47.1098L61.7239 47.3431V47.3479ZM68.1049 45.4336C68.2715 47.3098 68.1477 49.3431 67.6858 51.5098L34.6144 58.0907C33.6953 56.1574 33.0192 54.2907 32.562 52.505L68.1049 45.4336ZM44.9715 53.5907L45.3001 51.5336L45.6144 53.4622L44.9715 53.5907ZM62.5192 51.1669V47.8384L62.7953 47.786L63.2382 47.8384C63.3239 47.9145 63.3668 48.0764 63.3668 48.3193V50.3479C63.3668 50.5907 63.3239 50.7669 63.2382 50.8812L62.7953 51.1098L62.5192 51.1669Z" fill="white"></path><path d="M61.2953 64.9052C59.3667 67.5528 56.9953 70.2767 54.1382 73.0433V67.8338C54.9429 66.8862 55.4334 65.6576 55.4334 64.3195C55.4334 62.9814 54.9477 61.7528 54.1382 60.8052V54.7719L61.2953 53.3481V64.9052ZM54.1382 41.1005C54.4525 41.21 54.7953 41.2671 55.1477 41.2671C55.5001 41.2671 55.8096 41.2005 56.1334 41.1195C56.5334 42.0433 57.362 42.7433 58.3667 42.9576L61.3001 43.5386V46.2195L54.1429 47.6433V41.1005H54.1382ZM45.8715 73.0338C43.0144 70.2671 40.6382 67.5386 38.7096 64.8909V57.8386L45.8715 56.4148V60.8147C45.0715 61.7576 44.5905 62.9814 44.5905 64.3147C44.5905 65.6481 45.0715 66.8671 45.8715 67.8148V73.0338ZM38.7096 43.5576C40.4048 43.2195 41.6477 42.9528 41.6477 42.9528C42.6525 42.7338 43.481 42.0386 43.881 41.11C44.2048 41.1909 44.5286 41.2576 44.8667 41.2576C45.2048 41.2576 45.5525 41.2005 45.8667 41.0957V49.2814L38.7048 50.7052V43.5528L38.7096 43.5576Z" fill="#C10230"></path><path fill-rule="evenodd" clip-rule="evenodd" d="M54.3572 66.5051C54.3096 65.6432 53.4477 65.0956 52.3382 65.4051C52.3287 64.4099 51.2048 63.8956 50.0668 64.1194C49.0763 63.0099 49.4096 61.648 51.262 61.9385C52.3382 62.1051 53.962 62.9242 54.8668 64.5956C54.8287 65.2813 54.6477 65.9242 54.3572 66.5051ZM45.9572 67.0099C46.7191 67.3813 47.6048 66.9051 47.8906 65.8051C48.7572 66.3004 49.7715 65.5861 50.1429 64.4861C51.6001 64.1813 52.6144 65.1528 51.4382 66.6099C50.762 67.4528 49.2525 68.4432 47.3668 68.4004C46.8048 68.0385 46.3239 67.5623 45.9572 67.0051V67.0099ZM47.1858 60.3575C46.4572 61.9289 46.581 63.5718 46.9668 64.5575C47.1382 65.0004 47.3477 65.3289 47.5763 65.5575C47.2953 67.0337 45.8668 67.2909 45.3096 65.5575C45.2048 65.1623 45.1477 64.7432 45.1477 64.3147C45.1477 62.6813 45.9525 61.2385 47.1858 60.3528V60.3575ZM49.7334 59.4575C49.0001 59.9242 48.9572 60.948 49.7763 61.7575C48.9191 62.2623 49.0334 63.4956 49.8001 64.367C49.3334 65.7813 47.9906 66.1718 47.3144 64.4242C46.9191 63.4099 46.8191 61.6004 47.8096 59.9813C48.3953 59.6813 49.0477 59.5004 49.7382 59.4575H49.7334ZM54.862 63.8766C53.8668 62.4528 52.3715 61.7385 51.3287 61.5766C50.8525 61.5004 50.4668 61.5194 50.1525 61.6051C48.9858 60.6004 49.5334 59.1909 51.4191 59.6766C51.9953 59.8242 52.9334 60.3147 53.7001 61.148C54.3429 61.8956 54.762 62.8385 54.8572 63.8766H54.862ZM51.3668 68.9909C50.9382 69.1147 50.4858 69.1813 50.0144 69.1813C49.2953 69.1813 48.6144 69.0242 48.0048 68.748C49.7191 68.5861 51.0715 67.6623 51.7334 66.8432C52.0334 66.4718 52.2144 66.1242 52.2953 65.8099C53.7525 65.2956 54.7049 66.4766 53.3382 67.8718L53.281 67.9289L52.8763 68.2575C52.4287 68.5861 51.9191 68.8385 51.3715 68.9909H51.3668ZM51.3668 68.9909C51.9144 68.8337 52.4191 68.5813 52.8715 68.2575C52.4906 68.5289 51.9715 68.8051 51.3668 68.9909Z" fill="#B47F00"></path><path d="M46.424 60.2482V56.3006L53.5811 54.8767V60.2387C52.6287 59.4006 51.3764 58.8958 50.0097 58.8958C48.643 58.8958 47.3811 59.4101 46.424 60.2482ZM38.1525 64.1101C36.8383 62.2291 35.743 60.3863 34.8573 58.6006L38.1525 57.9434V64.1101ZM53.5764 73.572C53.2525 73.8767 52.924 74.1863 52.5859 74.4958C52.3192 74.7387 50.4811 76.6101 50.043 76.6244C49.5716 76.6387 47.6859 74.7434 47.4192 74.4958C47.0764 74.1863 46.7478 73.872 46.4192 73.5625V68.3767C47.3716 69.2196 48.6287 69.7291 50.0049 69.7291C51.3811 69.7291 52.624 69.2244 53.5764 68.3863V73.572ZM67.5478 52.1006C66.6668 55.7958 64.8335 59.8529 61.843 64.1244V53.2339L67.5478 52.1006ZM32.424 51.9625C31.7383 48.9958 31.6716 46.2625 32.124 43.8434C32.5525 41.5577 33.7287 40.4386 34.5764 40.4386C34.9811 40.4386 35.3097 40.7672 35.3097 41.172C35.3097 41.5767 34.9906 41.9053 34.5573 41.9053H33.9954L34.024 44.3053C34.024 44.3053 34.8335 44.3053 35.6954 44.1434C36.5383 43.9863 37.3811 43.8244 38.1525 43.672V50.8244L32.4287 51.9625H32.424ZM61.843 43.6529L64.3097 44.1434C64.9335 44.2672 65.4906 44.3196 65.9811 44.3053L66.0097 41.9053H65.4478C65.0192 41.9053 64.6954 41.572 64.6954 41.172C64.6954 40.772 65.024 40.4386 65.4287 40.4386C66.2764 40.4386 67.4525 41.5577 67.8811 43.8434C67.9478 44.1815 68.0002 44.5244 68.043 44.8767L61.8478 46.1101V43.6482L61.843 43.6529ZM46.4192 40.8529C46.7049 40.6863 46.9621 40.4815 47.1811 40.2339C47.943 40.8672 48.9287 41.2529 50.0002 41.2529C51.0764 41.2529 52.0573 40.8672 52.824 40.2339C53.0383 40.472 53.2906 40.6815 53.5764 40.8434V47.7529L46.4192 49.1767V40.8529Z" fill="#004A98"></path><path d="M60.6811 26.4716C67.8716 29.2573 72.2287 35.6954 71.7335 44.3668C71.624 38.3335 68.8478 33.5858 64.2668 30.7954L63.943 30.6097C63.3478 33.562 60.9192 35.8573 57.7811 35.8573C55.924 35.8573 54.3049 35.0858 53.2002 33.8716C54.0859 34.5287 55.1811 34.9144 56.3668 34.9144C59.3097 34.9144 61.6906 32.5287 61.6906 29.5906C61.6906 28.4239 61.3144 27.3477 60.6811 26.4668V26.4716ZM39.2859 26.4716C38.6478 27.3477 38.2763 28.4287 38.2763 29.5954C38.2763 32.5335 40.6621 34.9192 43.6002 34.9192C44.7859 34.9192 45.8811 34.5287 46.7668 33.8763C45.6621 35.0906 44.043 35.862 42.1859 35.862C39.0525 35.862 36.624 33.5668 36.024 30.6144L35.7049 30.8001C31.124 33.5906 28.3478 38.3382 28.2335 44.3716C27.7383 35.7001 32.0954 29.262 39.2859 26.4763V26.4716Z" fill="#98989A"></path><path d="M50.0049 40.7005C48.8478 40.7005 47.8144 40.191 47.1097 39.391C46.6716 40.1767 45.8287 40.7101 44.8621 40.7101L44.224 40.6291C44.2811 40.3863 44.3097 40.1339 44.3097 39.872L44.2525 39.272L44.8621 39.4244C45.5716 39.4244 46.1478 38.8482 46.1478 38.1386V37.272H47.4668C47.6716 38.4815 48.724 39.4053 49.9954 39.4053C51.2668 39.4053 52.324 38.4815 52.524 37.272H53.8478V38.1386C53.8478 38.8482 54.4192 39.4244 55.1287 39.4244L55.7335 39.272L55.6811 39.872C55.6811 40.1339 55.7097 40.3863 55.7668 40.6291L55.1335 40.7101C54.1668 40.7101 53.3287 40.1767 52.8859 39.391C52.1811 40.1958 51.1478 40.7005 49.9906 40.7005H50.0049ZM35.8668 41.172C35.8668 40.4625 35.2906 39.8863 34.5811 39.8863C33.2954 39.8863 32.0192 41.4148 31.5859 43.7434C30.0716 51.8244 34.1954 63.1148 47.0525 74.9053C50.4287 78.0053 49.743 77.8672 52.9668 74.9053C65.824 63.1148 69.943 51.8244 68.4335 43.7434C68.0002 41.4148 66.724 39.8863 65.4335 39.8863C64.724 39.8863 64.1478 40.4625 64.1478 41.172C64.1478 41.8815 64.724 42.4577 65.4573 42.4577L65.443 43.7482C64.0192 43.7482 62.8668 42.5958 62.8668 41.172C62.8668 39.7482 64.0192 38.5958 65.4478 38.5958C68.0097 38.6053 69.1192 41.1863 69.5716 43.7339C71.0764 52.3196 66.5621 63.9291 53.7144 75.7148C49.7478 79.3529 50.2621 79.3529 46.3002 75.7148C33.4525 63.9291 28.9383 52.3196 30.4478 43.7339C30.8954 41.1863 32.0049 38.6053 34.5668 38.5958C36.0002 38.5958 37.1478 39.7482 37.1478 41.172C37.1478 42.5958 35.9954 43.7482 34.5716 43.7482L34.5573 42.4577C35.2906 42.4577 35.8668 41.8815 35.8668 41.172ZM40.7144 37.3053L40.9811 37.2815C42.4144 37.2815 43.5763 38.4434 43.5763 39.8767C43.5763 41.1196 42.7002 42.1625 41.5335 42.4148L41.443 42.4339L37.1192 43.2958C37.5954 42.7196 37.8811 41.9815 37.8811 41.1815C37.8811 39.9005 37.1525 38.7863 36.0859 38.2339L40.7097 37.3148L40.7144 37.3053ZM59.2954 37.3053L63.9192 38.2244C62.8573 38.7767 62.124 39.891 62.124 41.172C62.124 41.9767 62.4097 42.7148 62.8859 43.2863L58.5621 42.4244L58.4763 42.4053C57.3097 42.1529 56.4335 41.1148 56.4335 39.8672C56.4335 38.4339 57.5954 37.272 59.0287 37.272L59.2954 37.2958V37.3053Z" fill="#FFB71B"></path><path d="M30.7095 11.3384L31.1143 12.0717L28.9 13.2955L29.2476 13.9289L31.2143 12.8431L31.6143 13.5717L29.6476 14.6574L30.1333 15.5336L29.2714 16.0098L27.6333 13.0431L30.7095 11.3431V11.3384Z" fill="white"></path><path d="M36.2999 12.6237L35.7618 12.1523L33.8285 12.938L33.7714 13.6523L32.7904 14.0523L33.1333 10.2571L34.3904 9.74756L37.2809 12.2285L36.3047 12.6237H36.2999ZM33.8952 12.1142L35.1333 11.6095L34.0142 10.6333L33.8952 12.1142Z" fill="white"></path><path d="M41.3476 10.1764L40.7619 7.81927L41.7095 7.58594L42.5238 10.8764L41.1286 11.224L38.6048 9.34784L39.1905 11.705L38.2381 11.9431L37.4238 8.6526L38.8238 8.30499L41.3476 10.1812V10.1764Z" fill="white"></path><path d="M46.119 6.96208L50.2 6.79541L50.2333 7.62874L48.6857 7.69065L48.7904 10.243L47.8095 10.2811L47.7047 7.72874L46.1524 7.79065L46.119 6.95731V6.96208Z" fill="white"></path><path d="M51.3905 8.49526C51.4857 7.37622 52.3143 6.78098 53.7381 6.90479C55.1572 7.0286 55.8762 7.75717 55.781 8.87145C55.6857 9.9905 54.8524 10.5953 53.4334 10.4715C52.0096 10.3476 51.2953 9.61907 51.3905 8.49526ZM54.7572 8.78574C54.8096 8.20003 54.5048 7.80955 53.6667 7.73812C52.8334 7.66669 52.4667 7.9905 52.4191 8.58574C52.3667 9.18098 52.6762 9.57145 53.5048 9.64288C54.3381 9.71431 54.7096 9.38098 54.7619 8.7905L54.7572 8.78574Z" fill="white"></path><path d="M61.6237 8.36681L59.6333 9.38109L60.8809 11.6763L59.6761 11.4049L58.8095 9.8049L57.8618 10.2859L57.7095 10.9573L56.7523 10.7382L57.4999 7.42871L58.4618 7.643L58.1285 9.12871L60.1952 8.03823L61.6333 8.36204L61.6237 8.36681Z" fill="white"></path><path d="M66.3285 9.99541L66.0666 10.7192L63.6856 9.85732L63.4999 10.3668L65.7904 11.1954L65.5285 11.9192L63.238 11.0906L63.0523 11.6002L65.4332 12.4573L65.1713 13.1811L61.8666 11.9859L63.019 8.79541L66.3237 9.99065L66.3285 9.99541Z" fill="white"></path><path d="M69.7618 14.3526L70.8761 12.1907L71.7476 12.6383L70.1904 15.6526L68.9095 14.9907L68.2476 11.9097L67.1333 14.0716L66.2571 13.6193L67.8142 10.605L69.0999 11.2669L69.7618 14.3478V14.3526Z" fill="white"></path><path d="M27.3953 85.4763C27.2476 85.7192 27.3953 86.0239 28.1572 86.4858C28.8572 86.9049 29.0953 86.9001 29.2048 86.7192C29.3334 86.5097 29.2238 86.3906 28.3953 85.8144C27.2667 85.024 26.8905 84.4763 27.2762 83.8335C27.6429 83.2287 28.4619 83.3478 29.4667 83.9525C30.5857 84.6239 31.0238 85.3525 30.6619 86.0144L29.781 85.4859C29.9334 85.2287 29.7143 84.962 29.0619 84.5716C28.4429 84.2001 28.2429 84.2192 28.1476 84.3763C28.0381 84.5573 28.1476 84.6954 28.8953 85.2335C29.9143 85.9573 30.5619 86.4478 30.1048 87.2097C29.6572 87.9525 28.8381 87.7573 27.8048 87.1335C26.6286 86.4239 26.0905 85.7382 26.5096 84.9478L27.3905 85.4811L27.3953 85.4763Z" fill="white"></path><path d="M31.5238 87.1909C31.9714 86.1576 32.9428 85.8623 34.2571 86.429C35.5667 86.9957 36.0143 87.9147 35.5714 88.9433C35.1238 89.9766 34.1428 90.2814 32.8333 89.7147C31.519 89.148 31.0762 88.229 31.5238 87.1909ZM34.6286 88.5385C34.8619 87.9957 34.6952 87.5338 33.9238 87.1957C33.1571 86.8623 32.7047 87.0576 32.4714 87.6004C32.2333 88.1481 32.4047 88.6147 33.1667 88.948C33.9333 89.2814 34.3952 89.0814 34.6286 88.5338V88.5385Z" fill="white"></path><path d="M39.2952 88.2146C40.4952 88.5527 41.0333 89.2574 40.8952 90.1241L39.8905 89.8431C39.9095 89.5241 39.6762 89.186 39.0714 89.0193C38.3714 88.8241 37.9381 89.0717 37.7762 89.6431C37.6143 90.2193 37.8619 90.6622 38.5571 90.8574C39.1619 91.0241 39.5381 90.8574 39.6857 90.5669L40.6905 90.8479C40.3571 91.6669 39.5333 91.9955 38.3286 91.6622C37.019 91.2955 36.4714 90.486 36.7809 89.3669C37.0952 88.2527 37.9809 87.8479 39.2905 88.2146H39.2952Z" fill="white"></path><path d="M43.3953 89.2289L42.7953 92.5623L41.8286 92.3861L42.4286 89.0527L43.3953 89.2289Z" fill="white"></path><path d="M44.419 91.1481C44.5095 90.029 45.3333 89.4338 46.7571 89.5481C48.1762 89.6624 48.9 90.3909 48.8047 91.5052C48.7143 92.6243 47.8857 93.229 46.4619 93.1147C45.0381 93.0005 44.319 92.2719 44.4143 91.1481H44.419ZM47.7857 91.4243C47.8333 90.8386 47.5285 90.4528 46.6905 90.3814C45.8571 90.3148 45.4952 90.6433 45.4428 91.2338C45.3952 91.829 45.7047 92.2148 46.5333 92.2862C47.3666 92.3528 47.7381 92.0195 47.7857 91.4243Z" fill="white"></path><path d="M51.119 92.048C51.1333 92.3337 51.4238 92.5051 52.3143 92.4575C53.1286 92.4146 53.3238 92.2766 53.3095 92.0623C53.2952 91.8146 53.1428 91.7813 52.1333 91.767C50.7571 91.7432 50.1333 91.5004 50.0952 90.748C50.0571 90.0432 50.8047 89.6813 51.9762 89.6242C53.2809 89.5575 54.0524 89.9099 54.119 90.6623L53.0952 90.7146C53.0809 90.4146 52.7476 90.3194 51.9857 90.3575C51.2666 90.3956 51.1095 90.5242 51.119 90.7051C51.1285 90.9146 51.2952 90.9718 52.219 91.0004C53.4666 91.0289 54.2809 91.0718 54.3285 91.9623C54.3714 92.8289 53.5857 93.1242 52.3809 93.1861C51.0095 93.2575 50.1762 92.9861 50.0857 92.0956L51.1143 92.0432L51.119 92.048Z" fill="white"></path><path d="M55.7429 92.0434L56.681 91.9053L56.7858 92.6338L55.8477 92.7719L55.7382 92.0434H55.7429Z" fill="white"></path><path d="M59.4809 88.5387C60.6952 88.2434 61.5095 88.5958 61.8143 89.4196L60.8 89.6673C60.6619 89.3768 60.2905 89.2006 59.6809 89.3482C58.9762 89.5196 58.719 89.9482 58.8571 90.5292C59 91.1101 59.4333 91.3768 60.1333 91.2054C60.7428 91.0577 60.9905 90.7244 60.9762 90.3958L61.9905 90.1482C62.1 91.0244 61.5428 91.7196 60.3286 92.0149C59.0047 92.3387 58.1286 91.9006 57.8524 90.772C57.5762 89.6482 58.1524 88.8625 59.4762 88.5387H59.4809Z" fill="white"></path><path d="M63.1524 89.3956C62.7382 88.348 63.2191 87.4527 64.5477 86.9242C65.8715 86.4003 66.8429 86.7337 67.2524 87.7765C67.6667 88.8242 67.1858 89.7337 65.862 90.2575C64.5334 90.7813 63.5667 90.448 63.1524 89.3956ZM66.3001 88.1527C66.0858 87.6051 65.6382 87.3908 64.8572 87.7003C64.081 88.0051 63.8953 88.4622 64.1143 89.0146C64.3334 89.5718 64.7858 89.7813 65.5572 89.4765C66.3334 89.1718 66.5191 88.7051 66.3001 88.1527Z" fill="white"></path><path d="M69.3334 88.6956L67.6287 85.7623L68.9525 84.9908L71.1049 86.3432L70.9906 83.8051L72.3144 83.0337L74.0191 85.967L73.1715 86.4575L71.9382 84.3337L72.0715 87.1004L71.2858 87.5575L68.9477 86.0765L70.1858 88.2004L69.3334 88.6956Z" fill="white"></path><path d="M23.0191 81.8382C13.9953 74.1811 8.26672 62.7573 8.26672 50.0001C8.26672 37.243 14.3001 25.2144 23.7382 17.562" stroke="#C10230" stroke-miterlimit="10"></path><path d="M76.2667 17.5669C85.7048 25.2193 91.7334 36.905 91.7334 50.0002C91.7334 63.0955 86.0048 74.1859 76.981 81.8431" stroke="#C10230" stroke-miterlimit="10"></path></g><defs><clipPath id="clip0_101_22103"><rect width="100" height="100" fill="white"></rect></clipPath></defs></svg>