<svg xmlns="http://www.w3.org/2000/svg" width="100" height="100" viewBox="0 0 100 100" fill="none"><g clip-path="url(#clip0_101_22069)"><path d="M50 100C77.6142 100 100 77.6142 100 50C100 22.3858 77.6142 0 50 0C22.3858 0 0 22.3858 0 50C0 77.6142 22.3858 100 50 100Z" fill="#005596"></path><path d="M50 98.7333C76.9147 98.7333 98.7333 76.9146 98.7333 49.9999C98.7333 23.0853 76.9147 1.2666 50 1.2666C23.0853 1.2666 1.26666 23.0853 1.26666 49.9999C1.26666 76.9146 23.0853 98.7333 50 98.7333Z" fill="#005596"></path><path d="M50 2.53333C76.1714 2.53333 97.4667 23.8286 97.4667 50C97.4667 76.1714 76.1714 97.4667 50 97.4667C23.8286 97.4667 2.53333 76.1714 2.53333 50C2.53333 23.8286 23.8286 2.53333 50 2.53333ZM50 0C22.3857 0 0 22.3857 0 50C0 77.6143 22.3857 100 50 100C77.6143 100 100 77.6143 100 50C100 22.3857 77.6143 0 50 0Z" fill="#005596"></path><path d="M50 100C77.6142 100 100 77.6142 100 50C100 22.3858 77.6142 0 50 0C22.3858 0 0 22.3858 0 50C0 77.6142 22.3858 100 50 100Z" fill="#193076"></path><path d="M50 2.53333C76.1714 2.53333 97.4667 23.8286 97.4667 50C97.4667 76.1714 76.1714 97.4667 50 97.4667C23.8286 97.4667 2.53333 76.1714 2.53333 50C2.53333 23.8286 23.8286 2.53333 50 2.53333ZM50 0C22.3857 0 0 22.3857 0 50C0 77.6143 22.3857 100 50 100C77.6143 100 100 77.6143 100 50C100 22.3857 77.6143 0 50 0Z" fill="#FFE003"></path><path d="M71.6666 32.2668L71.5809 31.962L71.3809 31.7144C68.0428 27.5382 58.6524 23.062 50 23.062C41.3476 23.062 31.9571 27.5334 28.619 31.7144L28.419 31.962L28.3333 32.2668C26.0857 40.1477 25.4428 63.843 49.1619 78.6715L50.0047 79.1953L50.8476 78.6715C74.5666 63.843 73.9238 40.1477 71.6762 32.2668H71.6666Z" fill="#0060A4"></path><path d="M50.0095 42.6524H33.8571C33.8571 42.6524 33.8381 37.1476 34.5857 36.0238C36.7571 33.1 43.5523 30.1143 50.0095 30.1143C56.4666 30.1143 63.2619 33.1 65.4333 36.0238C66.1809 37.1476 66.1619 42.6524 66.1619 42.6524H50.0095Z" fill="#0060A4"></path><path d="M56.3619 44.8998L64.4857 53.876C64.9047 52.6712 65.2238 51.495 65.4666 50.3522L60.5285 44.895H56.3571L56.3619 44.8998Z" fill="#0060A4"></path><path d="M63.6904 44.8999L65.938 47.3856C66.0333 46.519 66.0809 45.6904 66.0952 44.8999H63.6857H63.6904Z" fill="#0060A4"></path><path d="M55.6095 63.7573V66.9049C56.1476 66.4288 56.6571 65.943 57.1428 65.4573L55.6095 63.7621V63.7573Z" fill="#0060A4"></path><path d="M55.6095 55.6572V60.262L58.7476 63.7239C59.4524 62.9096 60.0952 62.081 60.6809 61.2572L55.6095 55.6572Z" fill="#0060A4"></path><path d="M55.6095 47.562V52.1668L62 59.2239C62.5762 58.2477 63.0857 57.2715 63.5238 56.3001L55.6143 47.562H55.6095Z" fill="#0060A4"></path><path d="M43.6571 44.8998L35.5333 53.876C35.1142 52.6712 34.7952 51.495 34.5523 50.3522L39.4904 44.895H43.6618L43.6571 44.8998Z" fill="#0060A4"></path><path d="M36.3285 44.8999L34.0761 47.3856C33.9857 46.519 33.9333 45.6904 33.919 44.8999H36.3285Z" fill="#0060A4"></path><path d="M44.4095 63.7573V66.9049C43.8714 66.4288 43.3619 65.943 42.8762 65.4573L44.4095 63.7621V63.7573Z" fill="#0060A4"></path><path d="M44.4095 55.6572V60.262L41.2762 63.7239C40.5714 62.9096 39.9238 62.081 39.3428 61.2572L44.4143 55.6572H44.4095Z" fill="#0060A4"></path><path d="M44.4095 47.562V52.1668L38.0237 59.2239C37.4428 58.2477 36.938 57.2715 36.4999 56.3001L44.4095 47.562Z" fill="#0060A4"></path><path d="M70.1428 32.7002C67.1476 28.9526 58.1523 24.6431 50 24.6431C41.8476 24.6431 32.8523 28.9526 29.8571 32.7002C28.0619 38.9954 26.2666 62.4859 50 77.324C73.7333 62.4859 71.9428 38.9954 70.1428 32.7002ZM33.9142 44.9002H36.3238L34.0714 47.3859C33.9809 46.5193 33.9285 45.6907 33.9142 44.9002ZM34.5428 50.3574L39.4809 44.9002H43.6523L35.5285 53.8764C35.1095 52.6716 34.7904 51.4954 34.5476 50.3526L34.5428 50.3574ZM44.4 66.905C43.8619 66.4288 43.3523 65.9431 42.8666 65.4574L44.4 63.7621V66.905ZM44.4 60.2669L41.2666 63.7288C40.5619 62.9145 39.9142 62.0859 39.3333 61.2621L44.4047 55.6621V60.2669H44.4ZM44.4 52.1716L38.0142 59.2288C37.4333 58.2526 36.9285 57.2764 36.4904 56.305L44.4 47.5669V52.1716ZM55.6 66.905V63.7621L57.1333 65.4574C56.6476 65.9431 56.1381 66.4288 55.6 66.905ZM58.7381 63.7335L55.6 60.2716V55.6669L60.6714 61.2669C60.0857 62.0954 59.4428 62.9193 58.7381 63.7335ZM61.9904 59.2288L55.6 52.1716V47.5669L63.5095 56.305C63.0714 57.2764 62.5666 58.2478 61.9857 59.2288H61.9904ZM64.4809 53.8812L56.3571 44.905H60.5285L65.4666 50.3621C65.2238 51.505 64.9047 52.6812 64.4857 53.8859L64.4809 53.8812ZM65.9333 47.3907L63.6857 44.905H66.0952C66.0809 45.6954 66.0333 46.524 65.9381 47.3907H65.9333ZM50.0047 42.6574H33.8523C33.8523 42.6574 33.8333 37.1526 34.5809 36.0288C36.7523 33.105 43.5476 30.1193 50.0047 30.1193C56.4619 30.1193 63.2571 33.105 65.4285 36.0288C66.1762 37.1526 66.1571 42.6574 66.1571 42.6574" fill="#FFE003"></path><path d="M50 77.624L49.8667 77.5382C39.619 71.1335 32.9714 62.4954 30.1095 51.8716C27.8143 43.3478 28.719 35.7668 29.6143 32.6287L29.6286 32.5811L29.6619 32.543C32.7429 28.6859 41.8571 24.3906 50.0048 24.3906C58.1524 24.3906 67.2667 28.6859 70.3476 32.543L70.381 32.5811L70.3952 32.6287C71.2905 35.7668 72.1952 43.3525 69.9 51.8716C67.0381 62.4954 60.3905 71.1287 50.1429 77.5382L50.0095 77.624H50ZM30.0857 32.8192C27.9571 40.3621 27.4286 62.824 50 77.024C72.5714 62.824 72.0429 40.3621 69.9143 32.8192C66.8762 29.0621 57.9762 24.9001 50 24.9001C42.0238 24.9001 33.1286 29.0668 30.0857 32.8192Z" fill="#FFF04B"></path><path d="M46.6333 68.7238L47.7952 69.8095C48.4952 70.3095 49.2285 70.8 50 71.281C50.7809 70.7905 51.5238 70.2905 52.2381 69.7857L53.3762 68.7238V44.9048H46.6381V68.7238H46.6333Z" fill="white"></path><path d="M54.5476 35.1003C54.4428 33.9812 53.9476 32.9907 53.0762 32.3526C52.2 31.7146 51.0952 31.5526 50 31.805C48.9047 31.5574 47.8095 31.7193 46.9333 32.3574C46.0571 32.9955 45.5619 33.9955 45.4619 35.1145C44.8904 36.0812 44.7047 37.1717 45.0381 38.2003C45.3714 39.2288 46.1714 40.0098 47.2047 40.4526C47.9428 41.2955 48.9285 41.8098 50.0095 41.8098C51.0904 41.8098 52.0809 41.2907 52.819 40.4431C53.8523 40.0003 54.6428 39.2241 54.9762 38.1955C55.3143 37.1669 55.1238 36.0669 54.5476 35.1003Z" fill="white"></path><path d="M50.0048 32.7812L50.4667 31.7955L50.0048 30.4336L49.5428 31.7955L50.0048 32.7812Z" fill="white"></path><path d="M46.3904 35.4098L45.5952 34.667H44.119L45.3095 35.5432L46.3904 35.4098Z" fill="white"></path><path d="M47.7714 39.6572L46.819 40.1858L46.3476 41.6191L47.5666 40.7287L47.7714 39.6572Z" fill="white"></path><path d="M52.2428 39.6572L52.4476 40.7239L53.6571 41.6048L53.1952 40.181L52.2428 39.6572Z" fill="white"></path><path d="M53.6238 35.405L54.7 35.5431L55.8809 34.6716L54.419 34.6621L53.6238 35.405Z" fill="white"></path><path d="M50.0047 32.7767C50.0047 32.7767 50.2095 32.71 50.2095 32.3338C50.2095 31.9576 50.0047 31.0195 50.0047 31.0195C50.0047 31.0195 49.8 31.9576 49.8 32.3338C49.8 32.71 50.0047 32.7767 50.0047 32.7767Z" fill="#0060A9"></path><path d="M52.2333 39.624C52.2333 39.624 52.1047 39.7954 52.3238 40.1002C52.5476 40.4049 53.2666 41.043 53.2666 41.043C53.2666 41.043 52.8809 40.1621 52.6619 39.8573C52.4381 39.5525 52.2333 39.624 52.2333 39.624Z" fill="#0060A9"></path><path d="M53.6095 35.3905C53.6095 35.3905 53.7333 35.5667 54.0904 35.4477C54.4476 35.3334 55.2762 34.8477 55.2762 34.8477C55.2762 34.8477 54.319 34.9429 53.9619 35.0572C53.6047 35.1715 53.6047 35.3905 53.6047 35.3905H53.6095Z" fill="#0060A9"></path><path d="M46.8476 36.5906C46.8476 34.843 48.2619 33.4287 50.0047 33.4287C51.7476 33.4287 53.1619 34.843 53.1619 36.5906C53.1619 38.3382 51.7476 39.7478 50.0047 39.7478C48.2619 39.7478 46.8476 38.3335 46.8476 36.5906Z" fill="#0060A9"></path><path d="M52.1 35.8858C52.1 35.8858 52.181 36.1049 52.4095 36.0573C52.7667 35.9858 52.3048 35.8144 53.4143 35.4525C53.7714 35.3382 54.1857 35.3716 54.3572 35.7478C54.5524 36.1716 54.3667 36.5287 54.1667 36.7001C53.8905 36.943 53.6572 37.7478 53.6572 37.7478C53.6572 37.7478 53.3715 38.5382 53.4524 38.8906C53.5095 39.1478 53.4524 39.543 53.0476 39.7716C52.6905 39.9716 52.3334 39.7573 52.1143 39.4525C51.4286 38.5097 51.9 38.6573 51.6524 38.3858C51.4953 38.2144 51.3048 38.343 51.3048 38.343C51.3048 38.343 51.1238 38.4858 51.2381 38.6906C51.4191 39.0097 51.4286 38.5097 52.1143 39.4573C52.3334 39.762 52.4286 40.1668 52.1238 40.443C51.781 40.7573 51.3857 40.6906 51.1619 40.5573C50.8476 40.3716 50.0095 40.3954 50.0095 40.3954C50.0095 40.3954 49.1762 40.3716 48.8572 40.5573C48.6334 40.6906 48.2381 40.7573 47.8953 40.443C47.5905 40.1668 47.6857 39.7573 47.9048 39.4573C48.5905 38.5144 48.6048 39.0097 48.781 38.6906C48.8953 38.4858 48.7143 38.3478 48.7143 38.3478C48.7143 38.3478 48.5191 38.2192 48.3619 38.3906C48.1143 38.6573 48.5857 38.5144 47.9 39.4573C47.681 39.762 47.3238 39.9763 46.9667 39.7716C46.5619 39.543 46.5 39.143 46.5572 38.8906C46.6381 38.5335 46.3572 37.743 46.3572 37.743C46.3572 37.743 46.1238 36.9382 45.8476 36.6954C45.6524 36.5239 45.4667 36.1668 45.6572 35.743C45.8286 35.3668 46.2429 35.3335 46.6 35.4478C47.7095 35.8097 47.2476 35.9811 47.6048 36.0525C47.8334 36.1001 47.9143 35.8811 47.9143 35.8811C47.9143 35.8811 47.9762 35.6573 47.7619 35.562C47.4286 35.4097 47.7048 35.8049 46.6 35.4478C46.2429 35.3335 45.9286 35.0573 46.0095 34.6573C46.1 34.2001 46.4619 34.0192 46.7191 33.9954C47.0857 33.962 47.7476 33.4478 47.7476 33.4478C47.7476 33.4478 48.4381 32.9763 48.5857 32.643C48.6905 32.4001 48.9714 32.1144 49.4334 32.1668C49.8429 32.2144 50.0048 32.6001 50.0048 32.9716C50.0048 34.1382 49.7048 33.7573 49.7476 34.1192C49.7762 34.3525 50.0048 34.3573 50.0048 34.3573C50.0048 34.3573 50.2381 34.3478 50.2619 34.1144C50.3048 33.7525 50.0048 34.1335 50.0048 32.9668C50.0048 32.5906 50.1667 32.2097 50.5762 32.162C51.0381 32.1097 51.3191 32.3954 51.4238 32.6382C51.5667 32.9763 52.2619 33.4478 52.2619 33.4478C52.2619 33.4478 52.9238 33.962 53.2857 33.9954C53.5476 34.0192 53.9048 34.2001 53.9953 34.6573C54.0762 35.062 53.7619 35.3335 53.4048 35.4478C52.2953 35.8097 52.5762 35.4097 52.2429 35.562C52.0334 35.6573 52.0953 35.8811 52.0953 35.8811L52.1 35.8858Z" fill="white"></path><path d="M51.5714 40.762C51.4 40.762 51.2381 40.7096 51.119 40.6382C50.881 40.4953 50.2381 40.4811 50.0143 40.4906C49.781 40.4858 49.1429 40.4953 48.9048 40.6382C48.6429 40.7954 48.2095 40.8525 47.8381 40.5144C47.619 40.3144 47.5857 40.0668 47.6429 39.8287C47.4381 39.9573 47.1857 40.0001 46.9286 39.8573C46.4905 39.6096 46.4143 39.1763 46.481 38.8811C46.5429 38.6096 46.3571 37.9954 46.281 37.7858C46.2143 37.562 46.0048 36.9573 45.7952 36.7763C45.5667 36.5763 45.3762 36.1811 45.5857 35.7239C45.7095 35.4573 45.9333 35.343 46.1762 35.3239C45.9714 35.1477 45.8762 34.9096 45.9286 34.6525C46.0286 34.1573 46.4143 33.9525 46.7143 33.9239C46.9952 33.9001 47.519 33.5334 47.6952 33.3953C47.8857 33.2668 48.3952 32.8811 48.5048 32.6239C48.6238 32.343 48.9333 32.0382 49.4429 32.1001C49.7 32.1287 49.9 32.2906 50.0048 32.5382C50.1 32.3096 50.2762 32.1287 50.5667 32.0954C51.0667 32.0382 51.3857 32.343 51.5048 32.6192C51.6143 32.8763 52.1238 33.262 52.3095 33.3906C52.4952 33.5334 53.019 33.8953 53.2952 33.9239C53.6 33.9525 53.9857 34.1573 54.0857 34.6525C54.1429 34.943 54.0286 35.1668 53.8429 35.3239C54.1143 35.3477 54.3286 35.4858 54.4381 35.7239C54.6476 36.1811 54.4571 36.5763 54.2286 36.7763C54.0238 36.9573 53.8143 37.543 53.7476 37.7715V37.7906C53.6667 38.0049 53.481 38.6144 53.5429 38.8858C53.6095 39.1811 53.5333 39.6144 53.0952 39.862C52.8381 40.0049 52.5905 39.9668 52.381 39.8382C52.4429 40.1001 52.381 40.3525 52.1857 40.5287C51.9857 40.7096 51.7714 40.7763 51.5714 40.7763V40.762ZM50.119 40.3144C50.3619 40.3144 50.9381 40.3334 51.2048 40.4906C51.4143 40.6144 51.7667 40.662 52.0667 40.3858C52.3381 40.1382 52.2333 39.7715 52.0429 39.5144C51.6333 38.9477 51.4857 38.9287 51.3952 38.9192C51.3095 38.9049 51.2381 38.8858 51.1571 38.743C51.0381 38.5334 51.1619 38.3525 51.2429 38.2858C51.3381 38.2239 51.5476 38.1573 51.7095 38.3382C51.819 38.4573 51.819 38.5287 51.8048 38.6144C51.7905 38.7001 51.7667 38.8477 52.1762 39.4096C52.3667 39.6668 52.6762 39.8811 53 39.7001C53.3571 39.5001 53.419 39.1477 53.3667 38.9144C53.2857 38.5525 53.5381 37.8192 53.5714 37.7287C53.581 37.6906 53.8143 36.8954 54.1095 36.6382C54.2905 36.4763 54.4476 36.1573 54.2762 35.7858C54.1238 35.4525 53.7429 35.4382 53.4381 35.5382C52.7762 35.7525 52.7048 35.8906 52.6667 35.9715C52.6286 36.0525 52.5857 36.1096 52.4238 36.143C52.181 36.1954 52.0524 36.0192 52.0143 35.9192C51.9857 35.8096 51.9905 35.5906 52.2095 35.4906C52.3571 35.4239 52.4238 35.443 52.5048 35.4811C52.5857 35.5192 52.719 35.5858 53.381 35.3715C53.6857 35.2715 53.9857 35.0382 53.9143 34.6811C53.8333 34.2811 53.5238 34.1144 53.281 34.0906C52.8952 34.0573 52.2381 33.5477 52.2095 33.5287C52.1857 33.5096 51.4952 33.043 51.3429 32.6858C51.2476 32.462 50.9905 32.2192 50.5857 32.262C50.2238 32.3049 50.0905 32.662 50.0905 32.9811C50.0905 33.6811 50.1952 33.7906 50.2619 33.8525C50.3238 33.9144 50.3667 33.9715 50.3476 34.1334C50.319 34.3763 50.1143 34.4477 50.0095 34.4525C49.8952 34.4525 49.6905 34.3811 49.6619 34.1382C49.6429 33.9763 49.6857 33.9192 49.7476 33.8525C49.8095 33.7858 49.919 33.6763 49.919 32.9763C49.919 32.6573 49.7905 32.3001 49.4238 32.2573C49.0143 32.2096 48.7619 32.4525 48.6667 32.6811C48.5143 33.0382 47.8286 33.5049 47.8 33.5239C47.7762 33.543 47.119 34.0525 46.7333 34.0858C46.4905 34.1096 46.181 34.2763 46.1 34.6763C46.0286 35.0382 46.3286 35.2715 46.6333 35.3668C47.2952 35.5811 47.4333 35.5144 47.5143 35.4763C47.5905 35.4382 47.6619 35.4192 47.8095 35.4858C48.0286 35.5858 48.0381 35.8049 48.0095 35.9096C47.9714 36.0144 47.8429 36.1906 47.6 36.143C47.4381 36.1096 47.3952 36.0525 47.3571 35.9715C47.3143 35.8906 47.2476 35.7525 46.5857 35.5382C46.281 35.4382 45.9 35.4525 45.7476 35.7858C45.5762 36.1573 45.7333 36.4763 45.9143 36.6382C46.1952 36.8858 46.4238 37.6382 46.4476 37.7192C46.4619 37.7525 46.7381 38.5382 46.6524 38.9144C46.6 39.1525 46.6619 39.5001 47.019 39.7001C47.3429 39.8811 47.6524 39.6668 47.8429 39.4096C48.2524 38.843 48.2286 38.7001 48.2143 38.6144C48.2 38.5287 48.2 38.4573 48.3095 38.3382C48.4714 38.1573 48.6857 38.2239 48.7714 38.2811C48.8619 38.3477 48.9857 38.5287 48.8667 38.7382C48.7857 38.8811 48.719 38.9001 48.6286 38.9144C48.5381 38.9287 48.3905 38.9477 47.981 39.5096C47.7905 39.7668 47.6857 40.1334 47.9571 40.3811C48.2571 40.6573 48.6095 40.6096 48.819 40.4858C49.1524 40.2906 49.981 40.3096 50.0143 40.3144C50.019 40.3144 50.0619 40.3144 50.1238 40.3144H50.119ZM48.5571 38.3906C48.5143 38.3906 48.4667 38.4049 48.4238 38.4525C48.3619 38.5192 48.3619 38.5382 48.3714 38.5858C48.381 38.643 48.3905 38.7144 48.3524 38.8382C48.4619 38.762 48.5381 38.7525 48.5952 38.743C48.6476 38.7382 48.6619 38.7334 48.7048 38.6525C48.781 38.5144 48.6667 38.4239 48.6571 38.4192C48.6476 38.4144 48.6048 38.3906 48.5571 38.3906ZM51.4571 38.3906C51.4048 38.3906 51.3619 38.4144 51.3476 38.4239C51.3429 38.4287 51.2333 38.5239 51.3095 38.6573C51.3571 38.7382 51.3667 38.7382 51.419 38.7477C51.4762 38.7573 51.5524 38.7668 51.6571 38.843C51.619 38.7144 51.6286 38.643 51.6381 38.5858C51.6476 38.5382 51.6476 38.5239 51.5857 38.4525C51.5429 38.4049 51.4952 38.3906 51.4571 38.3906ZM47.3286 35.7001C47.4381 35.7811 47.4714 35.8477 47.4952 35.9049C47.519 35.9525 47.5238 35.9668 47.619 35.9858C47.7762 36.0192 47.8286 35.8763 47.8286 35.8668C47.8286 35.8573 47.8619 35.7192 47.7238 35.6525C47.6381 35.6144 47.6238 35.6192 47.5762 35.643C47.5238 35.6668 47.4571 35.7001 47.3286 35.7001ZM52.1762 35.862C52.1905 35.8953 52.2476 36.0049 52.3905 35.9763C52.481 35.9573 52.4905 35.943 52.5143 35.8953C52.5429 35.843 52.5762 35.7763 52.681 35.6954C52.5476 35.6954 52.481 35.662 52.4286 35.6382C52.381 35.6144 52.3667 35.6096 52.281 35.6477C52.1476 35.7096 52.1714 35.8382 52.181 35.862H52.1762ZM50 33.7525C49.9571 33.8811 49.9048 33.9334 49.8619 33.9763C49.8238 34.0144 49.8143 34.0287 49.8238 34.1192C49.8429 34.2668 49.9762 34.2811 50 34.2811C50.019 34.2811 50.1524 34.262 50.1667 34.1144C50.1762 34.0192 50.1667 34.0096 50.1286 33.9715C50.0857 33.9287 50.0381 33.8763 49.9952 33.7525H50Z" fill="#0060A9"></path><path d="M50.0095 35.8813L50.6524 36.3242L50.4047 37.1623H49.5428L49.3381 36.3242L50.0095 35.8813Z" fill="#FFDF1C"></path><path d="M50.4333 37.2002H49.5143L49.5048 37.1716L49.2952 36.3049L50.0095 35.8335L50.6952 36.3049L50.6857 36.3335L50.4333 37.2002ZM49.5714 37.124H50.3762L50.6048 36.3383L50.0048 35.9287L49.3762 36.343L49.5667 37.1287L49.5714 37.124Z" fill="#0060A9"></path><path d="M49.3238 36.3573L48.6809 36.0715L48.7142 36.0049L49.3523 36.2858L49.3238 36.3573Z" fill="#0060A9"></path><path d="M50.0476 35.1338H49.9714V35.8814H50.0476V35.1338Z" fill="#0060A9"></path><path d="M50.6476 36.4146L50.6285 36.3384L51.3047 36.1479L51.3285 36.2194L50.6476 36.4146Z" fill="#0060A9"></path><path d="M49.1762 37.7147L49.1143 37.6719L49.5 37.1338L49.5619 37.1766L49.1762 37.7147Z" fill="#0060A9"></path><path d="M50.7809 37.7191L50.3238 37.1858L50.3809 37.1382L50.8381 37.6715L50.7809 37.7191Z" fill="#0060A9"></path><path d="M49.4571 34.9909L50.0047 35.1433L50.5761 34.9862L50.5904 34.7766C50.5904 34.7766 50.1952 34.6433 49.9857 34.6528C49.8476 34.6528 49.4428 34.7433 49.4428 34.7433L49.4523 34.9909H49.4571Z" fill="#FFDF1C"></path><path d="M50.0095 35.1814L49.4238 35.0195L49.4095 34.71H49.4428C49.4428 34.71 49.8523 34.6148 49.9952 34.61C50.2095 34.6052 50.5952 34.7338 50.6095 34.7386L50.6381 34.7481L50.619 35.01L50.0142 35.1767L50.0095 35.1814ZM49.4952 34.9624L50.0095 35.1052L50.5428 34.9576L50.5523 34.8052C50.4619 34.7767 50.1762 34.6909 50.0047 34.6909C50.0047 34.6909 49.9952 34.6909 49.9904 34.6909C49.8809 34.6909 49.5809 34.7528 49.4857 34.7767L49.4952 34.9671V34.9624Z" fill="#0060A9"></path><path d="M51.3428 35.6099L51.3286 36.1956L51.6428 36.6956L51.8905 36.6337C51.8905 36.6337 51.9047 36.1766 51.8476 36.048C51.7952 35.9194 51.5905 35.5146 51.5905 35.5146L51.3381 35.6051L51.3428 35.6099Z" fill="#FFDF1C"></path><path d="M51.6238 36.7385L51.2905 36.2051V36.1956L51.3095 35.5861L51.619 35.4766L51.6333 35.5051C51.6333 35.5051 51.8333 35.9099 51.8905 36.0385C51.9476 36.1718 51.9333 36.5908 51.9333 36.6385V36.667L51.6286 36.7385H51.6238ZM51.3619 36.1813L51.6571 36.648L51.8524 36.6004C51.8524 36.4575 51.8524 36.1528 51.8143 36.0623C51.7714 35.9575 51.6238 35.6575 51.5762 35.5623L51.3809 35.6337L51.3667 36.1813H51.3619Z" fill="#0060A9"></path><path d="M51.3714 37.4956L50.8285 37.7194L50.4952 38.1718L50.6237 38.3766C50.6237 38.3766 51.0761 38.1956 51.1714 38.0956C51.2714 37.9861 51.5666 37.6908 51.5666 37.6908L51.3761 37.4956H51.3714Z" fill="#FFDF1C"></path><path d="M50.6095 38.4192L50.4476 38.1668L50.8047 37.6858H50.8142L51.3761 37.4478L51.6142 37.6906L51.5904 37.7192C51.5904 37.7192 51.3 38.0144 51.1952 38.1239C51.1 38.2287 50.6809 38.3954 50.638 38.4144L50.6095 38.4239V38.4192ZM50.5428 38.1668L50.6428 38.3239C50.7809 38.2668 51.0761 38.1382 51.1428 38.0668C51.2285 37.9763 51.438 37.762 51.5095 37.6858L51.3619 37.5335L50.8523 37.743L50.538 38.1668H50.5428Z" fill="#0060A9"></path><path d="M49.5 38.1574L49.1238 37.7193L48.6238 37.4717L48.438 37.6717C48.438 37.6717 48.7523 38.0574 48.8714 38.1193C48.9952 38.186 49.3714 38.3574 49.3714 38.3574L49.5 38.1526V38.1574Z" fill="#FFDF1C"></path><path d="M49.3857 38.4097L49.3571 38.3954C49.3571 38.3954 48.9762 38.2192 48.8571 38.1573C48.7285 38.0906 48.4428 37.7382 48.4095 37.7001L48.3904 37.6763L48.619 37.4287L49.1571 37.7001L49.5523 38.162L49.3904 38.4144L49.3857 38.4097ZM48.4857 37.6763C48.5857 37.7954 48.8 38.043 48.8904 38.0906C48.9904 38.143 49.2666 38.2716 49.3571 38.3144L49.4523 38.162L49.1 37.7478L48.6285 37.5144L48.4857 37.6716V37.6763Z" fill="#0060A9"></path><path d="M48.3285 36.4908L48.6952 36.0384L48.7524 35.4479L48.5619 35.3574C48.5619 35.3574 48.2857 35.7193 48.2428 35.8527C48.1904 36.0146 48.1 36.4098 48.1 36.4098L48.3238 36.486L48.3285 36.4908Z" fill="#FFDF1C"></path><path d="M48.3428 36.5337L48.0571 36.4337L48.0667 36.4004C48.0667 36.4004 48.1571 36.0052 48.2095 35.8385C48.2524 35.7004 48.5238 35.3433 48.5381 35.329L48.5571 35.3052L48.8 35.4195V35.448L48.7381 36.048L48.3428 36.529V36.5337ZM48.1476 36.3861L48.3143 36.4433L48.6571 36.0195L48.7095 35.4671L48.5714 35.4004C48.4857 35.5147 48.3047 35.7671 48.2762 35.8623C48.2333 35.9957 48.1667 36.2861 48.1428 36.3814L48.1476 36.3861Z" fill="#0060A9"></path><path d="M50.0095 38.529C48.9238 38.529 48.0428 37.6481 48.0428 36.5624C48.0428 35.4767 48.9238 34.5957 50.0095 34.5957C51.0952 34.5957 51.9762 35.4767 51.9762 36.5624C51.9762 37.6481 51.0952 38.529 50.0095 38.529ZM50.0095 34.7386C49.0048 34.7386 48.1857 35.5576 48.1857 36.5624C48.1857 37.5671 49.0048 38.3862 50.0095 38.3862C51.0143 38.3862 51.8333 37.5671 51.8333 36.5624C51.8333 35.5576 51.0143 34.7386 50.0095 34.7386Z" fill="#0060A9"></path><path d="M47.2714 32.7717L48.2619 32.2812L47.5048 33.086L46.5048 33.5574L47.2714 32.7717Z" fill="#0060A9"></path><path d="M49.9809 41.2002L48.8952 41.0192L49.9809 40.8145L51.0666 41.0145L49.9809 41.2002Z" fill="#0060A9"></path><path d="M54.4238 38.0001L53.9095 38.9763L54.0523 37.8811L54.5809 36.9097L54.4238 38.0001Z" fill="#0060A9"></path><path d="M52.7476 32.786L53.519 33.5717L52.519 33.1003L51.7619 32.3003L52.7476 32.786Z" fill="#0060A9"></path><path d="M45.5666 37.9718L45.4047 36.8813L45.9333 37.848L46.0762 38.948L45.5666 37.9718Z" fill="#0060A9"></path><path d="M46.4095 35.3905C46.4095 35.3905 46.4095 35.1762 46.0523 35.0572C45.6952 34.9429 44.738 34.8477 44.738 34.8477C44.738 34.8477 45.5666 35.3334 45.9238 35.4477C46.2809 35.5619 46.4047 35.3905 46.4047 35.3905H46.4095Z" fill="#0060A9"></path><path d="M47.7857 39.6239C47.7857 39.6239 47.581 39.5572 47.3619 39.8619C47.1381 40.1667 46.7524 41.0477 46.7524 41.0477C46.7524 41.0477 47.4714 40.4096 47.6905 40.1048C47.9095 39.8 47.7857 39.6286 47.7857 39.6286V39.6239Z" fill="#0060A9"></path><path d="M52.7429 49.8194C52.7429 49.7575 52.6571 49.786 52.6238 49.8194C52.5905 49.8527 51.9714 50.4384 51.5476 50.4527C51.1238 50.467 50.4857 50.4527 49.6952 50.0432C49.9524 49.6098 50.4905 48.6622 50.7333 47.7479C51.4952 47.6146 52.1 47.2146 52.3381 46.9051C52.6048 46.5575 52.7095 46.086 52.5048 45.8813C52.1048 45.4813 51.0667 45.5289 50.4762 46.6575C50.3524 46.8956 50.2381 47.1479 50.1333 47.4051C49.881 47.3765 49.6238 47.2479 49.5762 47.2051C49.519 47.1575 49.481 47.1337 49.4905 47.1956C49.5 47.2575 49.481 47.3289 49.481 47.3289C49.481 47.3289 49.4429 47.4146 49.5048 47.4384C49.681 47.5384 49.8667 47.5956 50.0476 47.6146C49.6857 48.5194 49.4095 49.4479 49.1429 49.9146C48.8667 49.7956 48.4429 49.767 48.1286 49.8575C47.8143 49.9527 47.2429 50.2289 47.2952 50.7241C47.3524 51.2194 48.2619 51.186 48.3429 51.1813C48.419 51.1717 48.9857 51.0956 49.3952 50.4908C50.0095 50.9003 50.519 51.1289 50.9714 51.1194C51.4286 51.1098 52.2524 50.986 52.7429 50.0575C52.7667 50.0098 52.7524 49.867 52.7524 49.8051L52.7429 49.8194ZM51.181 46.3194C51.3 46.1765 51.6286 45.9241 51.8952 46.1765C52.1619 46.4289 51.8333 46.8765 51.7619 46.9384C51.3476 47.2908 50.7857 47.386 50.7857 47.386C50.8714 47.1194 51.0619 46.4575 51.1762 46.3146L51.181 46.3194ZM47.9762 50.7479C47.8905 50.7479 47.4952 50.6479 47.7476 50.2908C48 49.9384 48.4857 49.967 48.819 50.2051C48.4571 50.8241 48.0619 50.7479 47.9762 50.7479Z" fill="#0060A9"></path><path d="M52.4381 52.6859C52.4857 52.624 52.5238 52.4954 52.4619 52.4954C52.4 52.4954 52.0904 52.4526 51.9666 52.4383C51.8381 52.424 51.8476 52.4478 51.8047 52.5097C51.7619 52.5716 51.5428 52.9859 51.3952 53.2859C51.2476 53.5859 50.5666 55.024 50.1381 55.9621C49.7095 56.9002 49.0524 56.9811 48.7857 56.9573C48.519 56.9335 48.4047 56.6431 48.5904 56.1431C48.7809 55.6478 50.1857 53.3621 50.2095 53.0859C50.2381 52.8097 50.1666 52.4907 49.6047 52.3526C48.8857 52.1764 48.419 52.7669 48.3952 52.8002C48.3714 52.8383 48.2857 52.9145 48.3095 52.9526C48.3333 52.9907 48.3524 53.0335 48.3905 53.0573C48.4285 53.0859 48.4381 53.1431 48.5047 53.0383C48.719 52.6859 49.1143 52.4764 49.3857 52.5907C49.6571 52.705 49.4857 53.1526 49.3952 53.3335C49.3047 53.5145 48.4666 55.005 48.0238 55.6859C47.8714 55.9145 47.3047 57.2335 48.4095 57.3907C49.4047 57.5288 49.9095 56.8383 50.0571 56.6145C50.0666 57.0526 50.5333 57.4335 50.8619 57.4764C51.3095 57.5383 51.6524 57.3669 51.8047 57.0716C51.9857 56.7192 51.8238 56.3621 51.8047 56.324C51.7904 56.2859 51.7333 56.2669 51.6714 56.2907C51.6095 56.3097 51.5476 56.3431 51.5476 56.3431C51.5476 56.3431 51.519 56.3573 51.5285 56.3859C51.5381 56.4192 51.5904 56.5431 51.5619 56.6954C51.5047 56.9907 51.1238 56.9621 51 56.9288C50.9285 56.9097 50.5762 56.7669 50.7666 56.1811C50.9524 55.5954 52.3905 52.7383 52.4381 52.6764V52.6859Z" fill="#0060A9"></path><path d="M51.681 64.0052C51.5714 63.9671 50.9238 63.7576 50.0381 64.3195C49.1714 64.8671 48.2143 65.7862 48.0048 67.2338C47.7953 68.6814 48.8 69.1957 48.9143 69.2242C49.0286 69.2576 49.9953 69.629 50.6619 68.7814C51.0572 68.2814 51.0572 68.1481 51.0905 68.0671C51.1191 67.9862 50.9762 67.8909 50.9143 67.9862C50.8476 68.0814 50.481 68.629 50.2048 68.7719C49.9334 68.9147 49.3619 68.9862 49.1191 68.6433C48.8619 68.2719 48.8143 67.7385 48.9429 67.2052C49.0714 66.6766 49.481 65.4385 50.2524 64.7814C51.0238 64.1242 51.5048 64.1623 51.6667 64.2766C51.8286 64.3909 51.9191 64.7862 51.7953 65.029C51.7476 65.1195 51.9048 65.2385 51.9762 65.1242C52.2619 64.6719 51.9619 64.1052 51.6857 64.0052H51.681Z" fill="#0060A9"></path><path d="M52.7952 58.4576C52.7714 58.41 52.7095 58.4053 52.6714 58.4767C52.6333 58.5434 52.5286 58.7148 52.319 58.7529C51.6809 58.8815 51.1809 58.8195 50.4667 58.7767C49.7524 58.7338 48.819 58.7957 48.5524 59.1338C48.2857 59.4719 48.3952 59.71 48.4476 59.81C48.5286 59.9529 48.6905 60.0767 48.919 60.1386C49.1476 60.2053 49.319 60.1481 49.4 60.091C49.4762 60.0386 49.3428 59.9719 49.2952 59.9434C49.2476 59.9148 48.9428 59.8434 48.9333 59.7005C48.9333 59.6386 48.9667 59.4576 49.1524 59.3719C49.3428 59.2862 49.7857 59.2386 50.1667 59.2862C50.1524 59.6576 49.9286 60.6291 49.7667 60.9815C49.5238 60.9815 48.7476 61.0243 48.5714 61.4862C48.4857 61.7148 48.5571 61.91 48.6333 61.9767C48.7143 62.0386 48.7667 62.0338 48.7667 61.9529C48.7667 61.8719 48.7762 61.7148 48.8524 61.6291C48.9286 61.5434 49.2381 61.41 49.6524 61.4862C49.519 61.9576 49.119 63.1481 48.6905 63.3672C48.2667 63.5862 47.9952 63.4243 47.9619 63.3719C47.8857 63.2672 47.8619 63.1672 47.8619 63.1148C47.8619 63.0624 47.7095 62.8862 47.6619 63.1291C47.6143 63.3719 47.8428 63.7386 48.2048 63.8291C48.8428 63.991 49.2143 63.6148 49.3286 63.5195C49.4476 63.4243 50.0762 62.7957 50.4047 61.5576C50.6714 61.591 51.0571 61.5815 51.2048 61.5195C51.5524 61.3719 51.6809 61.1434 51.7048 61.0005C51.7286 60.8576 51.719 60.7434 51.6857 60.6719C51.6524 60.6005 51.5476 60.5005 51.5286 60.5862C51.5143 60.6719 51.5286 60.8243 51.3809 60.9338C51.3381 60.9672 51.1095 61.1481 50.5428 61.0529C50.6524 60.7053 50.919 59.3243 50.919 59.3243C51.219 59.3481 51.8762 59.3005 52.0762 59.2481C52.2714 59.191 52.6286 59.0338 52.7428 58.8005C52.8286 58.6291 52.8143 58.5148 52.7857 58.4672L52.7952 58.4576Z" fill="#0060A9"></path><path d="M59.5714 77.2479C59.5714 76.4765 60.1476 75.886 60.9 75.886C61.6524 75.886 62.219 76.4813 62.219 77.2479C62.219 78.0146 61.6429 78.6289 60.9 78.6289C60.1571 78.6289 59.5714 78.0337 59.5714 77.2479ZM59.2809 77.2479C59.2809 78.1718 60.019 78.867 60.9048 78.867C61.7905 78.867 62.519 78.1765 62.519 77.2479C62.519 76.3194 61.7809 75.6479 60.9048 75.6479C60.0286 75.6479 59.2809 76.3384 59.2809 77.2479ZM60.2762 78.1956H60.5667V77.386H60.8762L61.3857 78.1956H61.7L61.1619 77.367C61.4381 77.3384 61.6524 77.1956 61.6524 76.8575C61.6524 76.4956 61.4428 76.3194 60.9952 76.3194H60.2714V78.2003L60.2762 78.1956ZM60.5667 76.5527H60.9524C61.1524 76.5527 61.3667 76.5908 61.3667 76.8384C61.3667 77.1337 61.1286 77.1479 60.8714 77.1479H60.5667V76.5527Z" fill="#0060A3"></path><path d="M30.7095 11.3384L31.1143 12.0717L28.9 13.2955L29.2476 13.9289L31.2143 12.8431L31.6143 13.5717L29.6476 14.6574L30.1333 15.5336L29.2714 16.0098L27.6333 13.0431L30.7095 11.3431V11.3384Z" fill="white"></path><path d="M36.3 12.6237L35.7619 12.1523L33.8286 12.938L33.7714 13.6523L32.7905 14.0523L33.1333 10.2571L34.3905 9.74756L37.2809 12.2285L36.3048 12.6237H36.3ZM33.8952 12.1142L35.1333 11.6095L34.0143 10.6333L33.8952 12.1095V12.1142Z" fill="white"></path><path d="M41.3476 10.1764L40.7619 7.81927L41.7095 7.58594L42.5238 10.8764L41.1285 11.224L38.6047 9.34784L39.1904 11.705L38.2381 11.9431L37.4238 8.6526L38.8238 8.30499L41.3476 10.1812V10.1764Z" fill="white"></path><path d="M46.119 6.96208L50.2 6.79541L50.2333 7.62874L48.6857 7.69065L48.7904 10.243L47.8095 10.2811L47.7047 7.72874L46.1524 7.79065L46.119 6.95731V6.96208Z" fill="white"></path><path d="M51.3904 8.49526C51.4857 7.37622 52.3143 6.78098 53.7381 6.90479C55.1571 7.0286 55.8762 7.75717 55.7809 8.87145C55.6857 9.9905 54.8523 10.5905 53.4333 10.4715C52.0095 10.3476 51.2952 9.61907 51.3904 8.49526ZM54.7571 8.78574C54.8095 8.20003 54.5047 7.80955 53.6666 7.73812C52.8333 7.66669 52.4666 7.9905 52.419 8.58574C52.3666 9.18098 52.6762 9.57145 53.5047 9.64288C54.3381 9.71431 54.7095 9.38098 54.7619 8.7905L54.7571 8.78574Z" fill="white"></path><path d="M61.619 8.36693L59.6237 9.38121L60.8714 11.6765L59.6666 11.405L58.7999 9.80502L57.8523 10.286L57.6999 10.9574L56.7428 10.7431L57.4904 7.43359L58.4523 7.65264L58.119 9.13836L60.1857 8.04788L61.6238 8.37169L61.619 8.36693Z" fill="white"></path><path d="M66.3285 9.99553L66.0666 10.7193L63.6857 9.85744L63.5 10.367L65.7905 11.1955L65.5285 11.9193L63.2381 11.0908L63.0524 11.6003L65.4333 12.4622L65.1714 13.186L61.8666 11.9908L63.019 8.80029L66.3238 9.99553H66.3285Z" fill="white"></path><path d="M69.7618 14.3526L70.8761 12.1907L71.7476 12.6383L70.1904 15.6526L68.9095 14.9907L68.2476 11.9097L67.1333 14.0716L66.2571 13.6193L67.8142 10.605L69.0999 11.2669L69.7618 14.3478V14.3526Z" fill="white"></path><path d="M27.3952 85.4763C27.2476 85.7192 27.3952 86.0239 28.1571 86.4858C28.8571 86.9049 29.0952 86.9001 29.2047 86.7192C29.3333 86.5097 29.2238 86.3906 28.3952 85.8144C27.2666 85.024 26.8904 84.4763 27.2762 83.8335C27.6428 83.2287 28.4619 83.3478 29.4666 83.9525C30.5857 84.6239 31.0238 85.3525 30.6619 86.0144L29.7809 85.4859C29.9333 85.2287 29.7143 84.962 29.0619 84.5716C28.4428 84.2001 28.2428 84.2192 28.1476 84.3763C28.0381 84.5573 28.1476 84.6954 28.8952 85.2335C29.9143 85.9573 30.5619 86.4478 30.1047 87.2097C29.6571 87.9525 28.8381 87.7573 27.8047 87.1335C26.6285 86.4239 26.0904 85.7382 26.5095 84.9478L27.3904 85.4811L27.3952 85.4763Z" fill="white"></path><path d="M31.5238 87.1909C31.9714 86.1576 32.9428 85.8623 34.2571 86.429C35.5667 86.9957 36.0143 87.9147 35.5714 88.9433C35.1238 89.9766 34.1428 90.2814 32.8333 89.7147C31.519 89.148 31.0762 88.229 31.5238 87.1909ZM34.6286 88.5385C34.8619 87.9957 34.6952 87.5338 33.9238 87.1957C33.1571 86.8623 32.7047 87.0576 32.4714 87.6004C32.2333 88.1481 32.4047 88.6147 33.1667 88.948C33.9333 89.2814 34.3952 89.0814 34.6286 88.5338V88.5385Z" fill="white"></path><path d="M39.2952 88.2146C40.4952 88.5527 41.0333 89.2574 40.8952 90.1241L39.8905 89.8431C39.9095 89.5241 39.6762 89.186 39.0714 89.0193C38.3714 88.8241 37.9381 89.0717 37.7762 89.6431C37.6143 90.2193 37.8619 90.6622 38.5571 90.8574C39.1619 91.0241 39.5381 90.8574 39.6857 90.5669L40.6905 90.8479C40.3571 91.6669 39.5333 91.9955 38.3286 91.6622C37.019 91.2955 36.4714 90.486 36.7809 89.3669C37.0952 88.2527 37.9809 87.8479 39.2905 88.2146H39.2952Z" fill="white"></path><path d="M43.3952 89.2289L42.7952 92.5623L41.8286 92.3861L42.4286 89.0527L43.3952 89.2289Z" fill="white"></path><path d="M44.419 91.1481C44.5095 90.029 45.3333 89.4338 46.7571 89.5481C48.1762 89.6624 48.9 90.3909 48.8047 91.5052C48.7143 92.6243 47.8857 93.229 46.4619 93.1147C45.0381 93.0005 44.319 92.2719 44.4143 91.1481H44.419ZM47.7857 91.4243C47.8333 90.8386 47.5285 90.4528 46.6905 90.3814C45.8571 90.3148 45.4952 90.6433 45.4428 91.2338C45.3952 91.829 45.7047 92.2148 46.5333 92.2862C47.3666 92.3528 47.7381 92.0195 47.7857 91.4243Z" fill="white"></path><path d="M51.119 92.048C51.1333 92.3337 51.4238 92.5051 52.3143 92.4575C53.1286 92.4146 53.3238 92.2766 53.3095 92.0623C53.2952 91.8146 53.1428 91.7813 52.1333 91.767C50.7571 91.7432 50.1333 91.5004 50.0952 90.748C50.0571 90.0432 50.8047 89.6813 51.9762 89.6242C53.2809 89.5575 54.0524 89.9099 54.119 90.6623L53.0952 90.7146C53.0809 90.4146 52.7476 90.3194 51.9857 90.3575C51.2666 90.3956 51.1095 90.5242 51.119 90.7051C51.1285 90.9146 51.2952 90.9718 52.219 91.0004C53.4666 91.0289 54.2809 91.0718 54.3285 91.9623C54.3714 92.8289 53.5857 93.1242 52.3809 93.1861C51.0095 93.2575 50.1762 92.9861 50.0857 92.0956L51.1143 92.0432L51.119 92.048Z" fill="white"></path><path d="M55.7428 92.0434L56.6809 91.9053L56.7857 92.6338L55.8476 92.7719L55.738 92.0434H55.7428Z" fill="white"></path><path d="M59.4809 88.5387C60.6952 88.2434 61.5095 88.5958 61.8143 89.4196L60.8 89.6673C60.6619 89.3768 60.2905 89.2006 59.6809 89.3482C58.9762 89.5196 58.719 89.9482 58.8571 90.5292C59 91.1101 59.4333 91.3768 60.1333 91.2054C60.7428 91.0577 60.9905 90.7244 60.9762 90.3958L61.9905 90.1482C62.1 91.0244 61.5428 91.7196 60.3286 92.0149C59.0047 92.3387 58.1286 91.9006 57.8524 90.772C57.5762 89.6482 58.1524 88.8625 59.4762 88.5387H59.4809Z" fill="white"></path><path d="M63.1523 89.3956C62.738 88.348 63.219 87.4527 64.5476 86.9242C65.8714 86.4003 66.8428 86.7337 67.2523 87.7765C67.6666 88.8242 67.1857 89.7337 65.8618 90.2575C64.5333 90.7813 63.5666 90.448 63.1523 89.3956ZM66.2999 88.1527C66.0857 87.6051 65.638 87.3908 64.8571 87.7003C64.0809 88.0051 63.8952 88.4622 64.1142 89.0146C64.3333 89.5718 64.7857 89.7813 65.5571 89.4765C66.3333 89.1718 66.519 88.7051 66.2999 88.1527Z" fill="white"></path><path d="M69.3333 88.6956L67.6285 85.7623L68.9523 84.9908L71.1047 86.3432L70.9904 83.8051L72.3143 83.0337L74.019 85.967L73.1714 86.4575L71.9381 84.3337L72.0714 87.1004L71.2857 87.5575L68.9476 86.0765L70.1857 88.2004L69.3333 88.6956Z" fill="white"></path><path d="M23.019 81.8382C13.9952 74.1811 8.26666 62.7573 8.26666 50.0001C8.26666 37.243 14.3 25.2144 23.7381 17.562" stroke="#FFE003" stroke-miterlimit="10"></path><path d="M76.2667 17.5669C85.7048 25.2193 91.7333 36.905 91.7333 50.0002C91.7333 63.0955 86.0048 74.1859 76.9809 81.8431" stroke="#FFE003" stroke-miterlimit="10"></path></g><defs><clipPath id="clip0_101_22069"><rect width="100" height="100" fill="white"></rect></clipPath></defs></svg>