<svg xmlns="http://www.w3.org/2000/svg" width="100" height="100" viewBox="0 0 100 100" fill="none"><g clip-path="url(#clip0_101_22101)"><path d="M50 100C77.6142 100 100 77.6142 100 50C100 22.3858 77.6142 0 50 0C22.3858 0 0 22.3858 0 50C0 77.6142 22.3858 100 50 100Z" fill="black"></path><path d="M50 2.53333C76.1714 2.53333 97.4667 23.8286 97.4667 50C97.4667 76.1714 76.1714 97.4667 50 97.4667C23.8286 97.4667 2.53333 76.1714 2.53333 50C2.53333 23.8286 23.8286 2.53333 50 2.53333ZM50 0C22.3857 0 0 22.3857 0 50C0 77.6143 22.3857 100 50 100C77.6143 100 100 77.6143 100 50C100 22.3857 77.6143 0 50 0Z" fill="#C12A27"></path><path fill-rule="evenodd" clip-rule="evenodd" d="M38.9047 65.9668C38.9047 69.2145 38.1476 70.7145 36.7857 71.7097C38.4952 73.4906 42.9476 74.2668 46.5952 73.2049C44.2381 71.7478 43.4619 69.4192 43.4524 66.5192C41.9238 66.5145 40.3857 66.343 38.9047 65.9716M55.3428 66.5906V63.6525C54.0857 61.7526 52.5904 59.543 50.8095 58.1145V66.0906C50.8095 68.9764 50.0476 70.7716 48.6762 71.7145C50.3857 73.4954 54.8381 74.2716 58.4857 73.2097C56.0857 71.7478 55.3476 69.0478 55.3476 66.5906H55.3428ZM69.4095 43.724C74.4857 41.1764 73.5333 34.8192 72.9 33.2097C72.0666 34.7049 70.5333 35.6573 67.6904 35.6573H64.3762C65.0809 36.7525 65.7333 37.9573 66.3428 39.2716C69 39.2811 69.7666 42.0906 69.4143 43.7287L69.4095 43.724ZM60.9952 55.3049C63.7762 55.3049 64.8809 57.1906 64.6476 59.7573C69.5476 57.1716 68.719 51.4335 68.0809 49.8192C67.2857 50.824 66.1762 51.6906 63.4762 51.6906H55.3381V39.2621H57.8047C57.4666 37.9002 56.8714 36.6954 56.1476 35.6478H55.0809C53.0143 35.6478 51.0523 35.3525 49.0095 34.5764L50.8 39.2573V51.6621C52.9714 52.3716 54.4523 53.6621 56.0476 55.2954H60.9904L60.9952 55.3049ZM56.3047 50.7097H60.0095C64.1333 46.5287 63.4095 41.2764 66.1904 41.2764C62.3095 31.6573 56.9143 27.0097 44.8857 27.3145C41.2571 27.3668 39.5285 27.3906 36.5381 26.3145L38.7143 31.9954C40.7762 31.2335 43.3904 30.6811 46.0381 30.6811C53.8762 30.6811 59.2143 34.9668 59.2143 42.8287C59.2143 45.7573 58.3 48.6478 56.3 50.7097H56.3047ZM31.1095 48.8145C31.1095 55.643 35.4809 61.1525 42.3428 62.0145C44.8095 62.324 47.5571 61.9764 49.8047 60.9383V64.4716C47.3428 65.2859 44.9381 65.6287 42.5143 65.5002C32.6381 64.9621 26 57.2621 23.8714 48.043C25.7238 48.043 26.4333 45.4002 28.0476 42.4383C30.419 38.0906 34.4238 34.4811 39.1238 32.8668C41.1143 32.1811 43.5619 31.7002 46.0333 31.7002C46.6476 31.7002 47.2428 31.7287 47.8238 31.7764C48.6619 33.8573 48.5476 38.6335 47.5285 40.8525C46.4285 37.9049 44.019 36.6811 41.4762 36.6811C35.1381 36.6811 31.1047 42.5573 31.1047 48.8145H31.1095ZM43.4476 37.9668V51.4145C46.7 51.4145 50.6285 51.924 53.5428 54.3335C57.7762 57.8383 60.0904 62.3811 62.4714 64.9811C65.0857 67.8335 68.3571 67.5859 71.1714 65.543C70.8095 69.7335 66.2238 72.9859 64.1476 73.3954C60.6 70.9192 56.8762 63.7002 53.9952 60.0145C51.2619 56.5145 48.8238 55.1145 43.4476 55.1145V61.1335C41.8952 61.0811 40.3428 60.6954 38.9 60.1049V38.0478C40.4285 37.624 41.9095 37.5287 43.4476 37.9668Z" fill="white"></path><path d="M30.7095 11.3384L31.1143 12.0717L28.9 13.2955L29.2476 13.9289L31.2143 12.8431L31.6143 13.5717L29.6476 14.6574L30.1333 15.5336L29.2714 16.0098L27.6333 13.0431L30.7095 11.3431V11.3384Z" fill="white"></path><path d="M36.3 12.6237L35.7619 12.1523L33.8286 12.938L33.7714 13.6523L32.7905 14.0523L33.1333 10.2571L34.3905 9.74756L37.2809 12.2285L36.3048 12.6237H36.3ZM33.8952 12.1142L35.1333 11.6095L34.0143 10.6333L33.8952 12.1142Z" fill="white"></path><path d="M41.3476 10.1764L40.7619 7.81927L41.7095 7.58594L42.5238 10.8764L41.1285 11.224L38.6047 9.34784L39.1904 11.705L38.2381 11.9431L37.4238 8.6526L38.8238 8.30499L41.3476 10.1812V10.1764Z" fill="white"></path><path d="M46.119 6.96208L50.2 6.79541L50.2333 7.62874L48.6857 7.69065L48.7904 10.243L47.8095 10.2811L47.7047 7.72874L46.1524 7.79065L46.119 6.95731V6.96208Z" fill="white"></path><path d="M51.3904 8.49526C51.4857 7.37622 52.3143 6.78098 53.7381 6.90479C55.1571 7.0286 55.8762 7.75717 55.7809 8.87145C55.6857 9.9905 54.8523 10.5953 53.4333 10.4715C52.0095 10.3476 51.2952 9.61907 51.3904 8.49526ZM54.7571 8.78574C54.8095 8.20003 54.5047 7.80955 53.6666 7.73812C52.8333 7.66669 52.4666 7.9905 52.419 8.58574C52.3666 9.18098 52.6762 9.57145 53.5047 9.64288C54.3381 9.71431 54.7095 9.38098 54.7619 8.7905L54.7571 8.78574Z" fill="white"></path><path d="M61.6237 8.36681L59.6333 9.38109L60.8809 11.6763L59.6761 11.4049L58.8095 9.8049L57.8618 10.2859L57.7095 10.9573L56.7523 10.7382L57.4999 7.42871L58.4618 7.643L58.1285 9.12871L60.1952 8.03823L61.6333 8.36204L61.6237 8.36681Z" fill="white"></path><path d="M66.3285 9.99553L66.0666 10.7193L63.6857 9.85744L63.5 10.367L65.7905 11.1955L65.5285 11.9193L63.2381 11.0908L63.0524 11.6003L65.4333 12.4622L65.1714 13.186L61.8666 11.9908L63.019 8.80029L66.3238 9.99553H66.3285Z" fill="white"></path><path d="M69.7618 14.3526L70.8761 12.1907L71.7476 12.6383L70.1904 15.6526L68.9095 14.9907L68.2476 11.9097L67.1333 14.0716L66.2571 13.6193L67.8142 10.605L69.0999 11.2669L69.7618 14.3478V14.3526Z" fill="white"></path><path d="M27.3952 85.4763C27.2476 85.7192 27.3952 86.0239 28.1571 86.4858C28.8571 86.9049 29.0952 86.9001 29.2047 86.7192C29.3333 86.5097 29.2238 86.3906 28.3952 85.8144C27.2666 85.024 26.8904 84.4763 27.2762 83.8335C27.6428 83.2287 28.4619 83.3478 29.4666 83.9525C30.5857 84.6239 31.0238 85.3525 30.6619 86.0144L29.7809 85.4859C29.9333 85.2287 29.7143 84.962 29.0619 84.5716C28.4428 84.2001 28.2428 84.2192 28.1476 84.3763C28.0381 84.5573 28.1476 84.6954 28.8952 85.2335C29.9143 85.9573 30.5619 86.4478 30.1047 87.2097C29.6571 87.9525 28.8381 87.7573 27.8047 87.1335C26.6285 86.4239 26.0904 85.7382 26.5095 84.9478L27.3904 85.4811L27.3952 85.4763Z" fill="white"></path><path d="M31.5238 87.1909C31.9714 86.1576 32.9428 85.8623 34.2571 86.429C35.5667 86.9957 36.0143 87.9147 35.5714 88.9433C35.1238 89.9766 34.1428 90.2814 32.8333 89.7147C31.519 89.148 31.0762 88.229 31.5238 87.1909ZM34.6286 88.5385C34.8619 87.9957 34.6952 87.5338 33.9238 87.1957C33.1571 86.8623 32.7047 87.0576 32.4714 87.6004C32.2333 88.1481 32.4047 88.6147 33.1667 88.948C33.9333 89.2814 34.3952 89.0814 34.6286 88.5338V88.5385Z" fill="white"></path><path d="M39.2952 88.2146C40.4952 88.5527 41.0333 89.2574 40.8952 90.1241L39.8905 89.8431C39.9095 89.5241 39.6762 89.186 39.0714 89.0193C38.3714 88.8241 37.9381 89.0717 37.7762 89.6431C37.6143 90.2193 37.8619 90.6622 38.5571 90.8574C39.1619 91.0241 39.5381 90.8574 39.6857 90.5669L40.6905 90.8479C40.3571 91.6669 39.5333 91.9955 38.3286 91.6622C37.019 91.2955 36.4714 90.486 36.7809 89.3669C37.0952 88.2527 37.9809 87.8479 39.2905 88.2146H39.2952Z" fill="white"></path><path d="M43.3952 89.2289L42.7952 92.5623L41.8286 92.3861L42.4286 89.0527L43.3952 89.2289Z" fill="white"></path><path d="M44.419 91.1481C44.5095 90.029 45.3333 89.4338 46.7571 89.5481C48.1762 89.6624 48.9 90.3909 48.8047 91.5052C48.7143 92.6243 47.8857 93.229 46.4619 93.1147C45.0381 93.0005 44.319 92.2719 44.4143 91.1481H44.419ZM47.7857 91.4243C47.8333 90.8386 47.5285 90.4528 46.6905 90.3814C45.8571 90.3148 45.4952 90.6433 45.4428 91.2338C45.3952 91.829 45.7047 92.2148 46.5333 92.2862C47.3666 92.3528 47.7381 92.0195 47.7857 91.4243Z" fill="white"></path><path d="M51.119 92.048C51.1333 92.3337 51.4238 92.5051 52.3143 92.4575C53.1286 92.4146 53.3238 92.2766 53.3095 92.0623C53.2952 91.8146 53.1428 91.7813 52.1333 91.767C50.7571 91.7432 50.1333 91.5004 50.0952 90.748C50.0571 90.0432 50.8047 89.6813 51.9762 89.6242C53.2809 89.5575 54.0524 89.9099 54.119 90.6623L53.0952 90.7146C53.0809 90.4146 52.7476 90.3194 51.9857 90.3575C51.2666 90.3956 51.1095 90.5242 51.119 90.7051C51.1285 90.9146 51.2952 90.9718 52.219 91.0004C53.4666 91.0289 54.2809 91.0718 54.3285 91.9623C54.3714 92.8289 53.5857 93.1242 52.3809 93.1861C51.0095 93.2575 50.1762 92.9861 50.0857 92.0956L51.1143 92.0432L51.119 92.048Z" fill="white"></path><path d="M55.7428 92.0429L56.6809 91.9048L56.7857 92.6334L55.8476 92.7715L55.738 92.0429H55.7428Z" fill="white"></path><path d="M59.4809 88.5382C60.6952 88.243 61.5095 88.5953 61.8143 89.4191L60.8 89.6668C60.6619 89.3763 60.2905 89.2001 59.6809 89.3477C58.9762 89.5192 58.719 89.9477 58.8571 90.5287C59 91.1096 59.4333 91.3763 60.1333 91.2049C60.7428 91.0572 60.9905 90.7239 60.9762 90.3953L61.9905 90.1477C62.1 91.0239 61.5428 91.7191 60.3286 92.0144C59.0047 92.3382 58.1286 91.9001 57.8524 90.7715C57.5762 89.6477 58.1524 88.862 59.4762 88.5382H59.4809Z" fill="white"></path><path d="M63.1523 89.3956C62.738 88.348 63.219 87.448 64.5476 86.9242C65.8714 86.4003 66.8428 86.7337 67.2523 87.7765C67.6666 88.8242 67.1857 89.7337 65.8618 90.2575C64.5333 90.7813 63.5666 90.448 63.1523 89.3956ZM66.2999 88.1527C66.0857 87.6051 65.638 87.3908 64.8571 87.7003C64.0809 88.0051 63.8952 88.4622 64.1142 89.0146C64.3333 89.5718 64.7857 89.7813 65.5571 89.4765C66.3333 89.1718 66.519 88.7051 66.2999 88.1527Z" fill="white"></path><path d="M69.3381 88.6907L67.6333 85.7574L68.9571 84.986L71.1095 86.3383L70.9952 83.8002L72.319 83.0288L74.0238 85.9621L73.1762 86.4526L71.9428 84.3288L72.0762 87.0955L71.2904 87.5526L68.9524 86.0717L70.1904 88.1955L69.3381 88.6907Z" fill="white"></path><path d="M23.019 81.8382C13.9952 74.1811 8.26666 62.7573 8.26666 50.0001C8.26666 37.243 14.3 25.2144 23.7381 17.562" stroke="#C12A27" stroke-miterlimit="10"></path><path d="M76.2667 17.5669C85.7048 25.2193 91.7333 36.905 91.7333 50.0002C91.7333 63.0955 86.0048 74.1859 76.9809 81.8431" stroke="#C12A27" stroke-miterlimit="10"></path></g><defs><clipPath id="clip0_101_22101"><rect width="100" height="100" fill="white"></rect></clipPath></defs></svg>