<svg xmlns="http://www.w3.org/2000/svg" width="100" height="100" viewBox="0 0 100 100" fill="none"><g clip-path="url(#clip0_101_22098)"><path d="M50 100C77.6142 100 100 77.6142 100 50C100 22.3858 77.6142 0 50 0C22.3858 0 0 22.3858 0 50C0 77.6142 22.3858 100 50 100Z" fill="#304494"></path><path d="M50 2.53333C76.1714 2.53333 97.4667 23.8286 97.4667 50C97.4667 76.1714 76.1714 97.4667 50 97.4667C23.8286 97.4667 2.53333 76.1714 2.53333 50C2.53333 23.8286 23.8286 2.53333 50 2.53333ZM50 0C22.3857 0 0 22.3857 0 50C0 77.6143 22.3857 100 50 100C77.6143 100 100 77.6143 100 50C100 22.3857 77.6143 0 50 0Z" fill="white"></path><path fill-rule="evenodd" clip-rule="evenodd" d="M31.381 24.9668C38.2762 29.4668 43.281 29.4382 49.9333 25.1858C56.9905 29.4001 61.8095 29.562 68.6191 24.9668L76.5143 34.1049L75.6238 35.362L75.2952 35.8525L74.9667 36.343L74.6667 36.8239L74.3667 37.3049L74.0952 37.7858L73.8333 38.2668L73.5857 38.7478L73.3524 39.2144L73.1476 39.6811L72.9572 40.1477L72.781 40.6144L72.6191 41.0811L72.481 41.5477L72.3571 42.0287L72.2619 42.4954L72.1667 42.962L72.1 43.443L72.0572 43.9239L72.0286 44.4049L72.0143 44.8954L72.0286 45.3858L72.0714 45.8906L72.1238 46.4097L72.2048 46.9287L72.3 47.462L72.4238 47.9954L72.5762 48.5573L72.7524 49.1192L72.9572 49.7097L73.1762 50.3001L73.4381 50.9144L73.7524 51.6239L74.0667 52.362L74.3952 53.143L74.7095 53.9382L74.8714 54.4287L75.0333 54.9192L75.1714 55.4001L75.3095 55.8811L75.4333 56.362L75.5429 56.843L75.6524 57.3239L75.7333 57.8144L75.8 58.2954L75.8667 58.7763L75.9095 59.2573L75.9381 59.7382L75.9524 60.2192L75.9667 60.7001L75.9524 61.1668L75.9238 61.6335L75.8714 62.1144L75.8191 62.5954L75.7381 63.062L75.6429 63.543L75.5333 64.0097L75.4095 64.4763L75.2571 64.943L75.0952 65.4097L74.9191 65.8763L74.7143 66.343L74.5095 66.7954L74.2619 67.262L74.0143 67.7144L73.7429 68.1525L73.4429 68.6049L73.1 69.0858L72.3333 69.962C66.0286 75.7763 56.6714 73.5335 50.0048 79.1573C43.6048 73.8097 35.2286 75.5335 28.7429 70.7573L28.0429 70.1668L27.3857 69.5097L26.7571 68.7858L26.1667 67.9906L25.6048 67.1001L25.0571 65.9239L24.881 65.4335L24.7429 64.9811L24.6191 64.5287L24.4952 64.0906L24.4 63.6525L24.3048 63.2144L24.2381 62.7763L24.1714 62.3382L24.1286 61.9144L24.0857 61.4906L24.0571 61.0811L24.0429 60.6573V60.2335L24.0571 59.8239L24.0857 59.4001L24.1143 58.9906L24.1714 58.5811L24.2238 58.1716L24.281 57.762L24.3619 57.3525L24.4429 56.943L24.5381 56.5335L24.6476 56.1239L24.7571 55.7287L24.881 55.3192L25.0048 54.9097L25.1429 54.5001L25.281 54.0906L25.4333 53.6811L25.5952 53.2716L25.7571 52.8478L25.9333 52.4239L26.2476 51.6858L26.4952 51.0954L26.7286 50.5192L26.9333 49.9573L27.1095 49.4097L27.2714 48.862L27.4238 48.3144L27.5476 47.7954L27.6429 47.2763L27.7238 46.7573L27.7762 46.2525L27.8191 45.7477L27.8476 45.243V44.7525L27.8333 44.262L27.7905 43.7716L27.7333 43.2811L27.6524 42.7906L27.5571 42.3001L27.4476 41.8097L27.3095 41.3049L27.1476 40.8144L26.9714 40.3097L26.781 39.8049L26.5619 39.2858L26.3143 38.7811L26.0524 38.2477L25.7667 37.7287L25.4667 37.1811L25.1381 36.6477L24.781 36.1001L24.4095 35.5382L23.481 34.1954L31.3762 25.0716L31.381 24.9668Z" fill="#23223D"></path><path d="M50 77.5905L49.9762 77.5714C46.9286 74.8476 43.0048 74.081 39.2048 73.3333C36.8143 72.8667 34.3429 72.381 32.1667 71.4048C29.7333 70.3143 27.9143 68.7048 26.6143 66.481L26.1191 65.4381C24.4333 60.7143 25.2476 56.9714 26.9953 52.7953L27.3095 52.0572C28.7667 48.7381 29.2667 45.8714 28.881 43.0333C28.5 40.2381 27.2572 37.4286 24.9619 34.2L24.9476 34.1762L24.9667 34.1572L31.6238 26.4476L31.6476 26.4619C37.7191 30.1143 43.181 30.1238 49.9191 26.5L49.9381 26.4905L49.9572 26.5C53.4286 28.3714 56.3619 29.2619 59.181 29.2953C62.1667 29.3333 65.0857 28.4333 68.3619 26.4572L68.3857 26.4429L75.0572 34.1762L75.0429 34.2C72.8333 37.3095 71.6238 39.7953 71.1286 42.2524C70.5524 45.1143 70.9619 48.0905 72.3762 51.3476L72.6905 52.0572L73.0048 52.7953L73.3191 53.5476L73.6191 54.3143C74.5667 56.9429 74.9476 59.2952 74.7762 61.5143C74.5905 63.9619 73.7429 66.181 72.1905 68.3048L71.5048 69.0857L70.7619 69.7714C67.7619 72.0667 64.1476 72.7476 60.6572 73.4143C56.9238 74.1238 53.0619 74.8572 50.0238 77.5714L50 77.5905ZM25.0381 34.1762C27.3286 37.4095 28.5762 40.2191 28.9524 43.0191C29.3381 45.8714 28.8381 48.7524 27.3762 52.081L27.0619 52.8191C25.3238 56.9762 24.5095 60.7095 26.1857 65.4048L26.6762 66.4429C27.9667 68.6524 29.7714 70.2524 32.1953 71.3381C34.3619 72.3095 36.8286 72.7905 39.2191 73.2619C43.0143 74.0048 46.9429 74.7762 50 77.4953C53.0476 74.781 56.9095 74.0476 60.6429 73.3429C64.1286 72.681 67.7333 72 70.7191 69.7191L71.4572 69.0381L72.1381 68.2619C73.681 66.1524 74.5238 63.9429 74.7095 61.5095C74.8762 59.3048 74.5 56.9619 73.5572 54.3429L73.2572 53.5762L72.9429 52.8238L72.6286 52.0857L72.3143 51.3762C70.8905 48.1048 70.481 45.1191 71.0619 42.2381C71.5572 39.7762 72.7667 37.2857 74.9714 34.181L68.3762 26.5381C65.0952 28.5095 62.1762 29.4048 59.181 29.3714C56.3524 29.3333 53.4143 28.4476 49.9381 26.5762C46.5762 28.381 43.5286 29.2857 40.5667 29.2857C37.5857 29.2857 34.6905 28.3714 31.6381 26.5429L25.0429 34.1857L25.0381 34.1762Z" fill="#23223D"></path><path fill-rule="evenodd" clip-rule="evenodd" d="M31.8714 28.0193C38.4809 32.1241 44.4571 31.8765 50.0095 27.8955C55.6714 32.0288 61.5143 32.1241 68.1238 28.0193L73.5 34.2431C63.6619 47.5146 74.2095 51.1526 73.6524 61.5098C71.6143 75.6003 56.1952 69.786 50 75.9574C43.8047 69.786 28.3857 75.6003 26.3476 61.5098C25.7857 51.1526 36.3333 47.5146 26.5 34.2431L31.8762 28.0193H31.8714Z" fill="white"></path><path d="M48.4667 30.2194C48.9572 29.9337 49.4238 29.5908 49.8905 29.2051L50 29.1099L50.1096 29.2194C50.8905 29.848 51.7096 30.367 52.5572 30.7813C53.4191 31.1908 54.2953 31.4813 55.1953 31.6861C59.8048 32.7527 64.7286 31.3575 67.4667 29.8241L67.6048 29.7432L67.7 29.867L69.0286 31.3575L69.1524 31.4813L69.0286 31.6194L48.4667 52.1813V51.648L68.6334 31.467L67.5238 30.2241C64.7048 31.7718 59.7524 33.1241 55.1143 32.0575C54.1857 31.8527 53.281 31.5527 52.4048 31.1289C51.5572 30.7337 50.7476 30.2241 49.9953 29.6099C49.5048 30.0051 48.9953 30.3622 48.4619 30.6622V30.2241L48.4667 30.2194ZM48.4667 72.9432C48.9572 73.2432 49.4238 73.5718 49.8762 73.967L50 74.0765L50.1096 73.967C52.8715 71.6003 56.2667 71.148 59.5762 70.6956C64.7762 69.9956 69.7524 69.3289 71.8334 61.5289C71.9 61.2432 71.9715 60.9956 72.0096 60.7194C72.0524 60.4575 72.0619 60.1718 72.0762 59.8718C72.1191 57.2051 71.0619 54.9861 69.981 52.6765C67.8619 48.1622 65.5762 43.3051 71.2524 34.0575L71.3334 33.9337L71.2381 33.8241L69.8572 32.2765L69.7191 32.1241L69.581 32.2765L48.4572 53.4003V53.9337L69.7048 32.6861L70.8524 33.9718C65.1619 43.3146 67.4715 48.2527 69.6334 52.8384C70.7 55.1099 71.7286 57.2861 71.6857 59.8718C71.6857 60.1432 71.6572 60.4051 71.6191 60.667C71.5762 60.9289 71.5238 61.1718 71.4572 61.4337C69.4476 68.986 64.5905 69.6432 59.5143 70.3241C56.2048 70.7622 52.7953 71.2289 49.9905 73.567C49.5 73.1575 48.9905 72.8003 48.4572 72.5003V72.9384L48.4667 72.9432ZM32.5286 29.8241C33.0619 30.1241 33.6762 30.4146 34.3476 30.6861C35.0334 30.948 35.7715 31.2051 36.5619 31.4099C40.1619 32.3527 44.7 32.5051 48.4619 30.2194V30.6575C44.6334 32.8861 40.0762 32.7384 36.4619 31.7813C35.6524 31.5622 34.9 31.3146 34.2048 31.0289C33.5619 30.7813 32.9715 30.5099 32.4667 30.2194L29.1286 33.9813C34.8191 43.3241 32.4953 48.2622 30.3476 52.848C29.1715 55.3527 28.0476 57.7432 28.3381 60.7003C28.7619 62.5337 29.3381 63.9956 30.0334 65.1622C30.6905 66.286 31.4572 67.1337 32.3048 67.7765L48.4619 51.648V52.1813L32.4715 68.1718L32.3476 68.2813L32.2238 68.1861C31.281 67.4861 30.4334 66.5718 29.7048 65.367C28.9953 64.148 28.4048 62.6432 27.9667 60.7718V60.7432C27.6524 57.6908 28.8 55.2432 30.0048 52.6861C32.1238 48.1718 34.4096 43.3146 28.7334 34.067L28.6524 33.9432L28.7476 33.8337L32.2905 29.867L32.3857 29.7432L32.5238 29.8241H32.5286ZM48.4667 53.4099L33.281 68.5813L33.1048 68.7575L33.3238 68.8813C35.4429 70.0289 37.9048 70.3718 40.4238 70.7003C43.1857 71.0718 46.0048 71.4527 48.4667 72.9432V72.5051C45.9905 71.067 43.2 70.7003 40.4762 70.3289C38.081 70.0003 35.7429 69.6861 33.7334 68.6718L48.4667 53.9384V53.4051V53.4099Z" fill="#937D43"></path><path fill-rule="evenodd" clip-rule="evenodd" d="M51.1476 30.205C56.6762 33.7765 63.981 31.986 67.5619 29.986L68.8905 31.4765L51.1476 49.2193V30.205ZM51.1476 72.9574C58.2476 68.3622 68.4524 73.4765 71.6429 61.4955C71.7953 60.9479 71.8762 60.4574 71.8905 59.8812C72.0143 52.0146 62.4905 47.9812 71.0953 33.9717L69.7286 32.4146L51.1524 50.9908V72.9622L51.1476 72.9574ZM32.4334 29.986C36.2762 32.1336 44.3762 34.0193 50 29.3574C50.3715 29.6717 50.7524 29.9479 51.1476 30.205V49.2193L32.3381 68.0289C30.4905 66.6622 29.0143 64.4431 28.1667 60.7241L28.1524 60.6955V58.7669C28.8619 51.6003 37.0857 47.2908 28.9048 33.9622L32.4334 29.9812V29.986ZM51.1476 50.986L33.4191 68.7146C38.2905 71.3527 45.1143 69.6289 50 73.8193C50.3715 73.505 50.7524 73.2193 51.1476 72.9574V50.986Z" fill="#304494"></path><path fill-rule="evenodd" clip-rule="evenodd" d="M69.2476 54.8333C71.219 59.4428 70.5476 64.6428 66.0333 67.5428L65.4428 67.8714L64.8143 68.1428C60.0809 69.8523 55.1 69.2523 50.5571 71.7952L49.7905 72.3142L49.519 72.1237C45.1286 69.2904 40.0095 69.9476 35.2762 68.319L69.3286 34.2666L67.7809 37.2904C64.9762 44.1856 66.3714 48.4523 69.2429 54.8285L69.2476 54.8333Z" fill="white"></path><path d="M51.3286 35.9095C53.6524 38.2333 53.6524 42.0095 51.3286 44.3381C50.4381 45.2286 49.3333 45.7905 48.1524 45.9952V45.6143C49.2333 45.4095 50.2476 44.8905 51.0524 44.081C53.2286 41.8905 53.2286 38.3619 51.0524 36.1857C50.2333 35.3667 49.2333 34.8429 48.1524 34.6381V34.2572C49.3286 34.4619 50.4381 35.0238 51.3286 35.9143V35.9095ZM48.1524 44.8143C49.0286 44.6238 49.8476 44.1857 50.5048 43.5286C52.381 41.6524 52.381 38.6048 50.5048 36.7286C49.8619 36.0571 49.0286 35.6191 48.1524 35.4286V35.8238C48.9333 36 49.6571 36.4 50.2333 36.9857C51.9714 38.7238 51.9714 41.5286 50.2333 43.2524C49.6571 43.8429 48.9333 44.2381 48.1524 44.4286V44.8095V44.8143ZM48.1524 45.9905C47.1952 46.1524 46.2095 46.1 45.281 45.8C45.2143 45.7714 45.1571 45.7572 45.1048 45.7333V45.3381H45.1333C45.2286 45.381 45.3095 45.4048 45.3952 45.4333C46.3 45.7333 47.2429 45.7762 48.1571 45.6095V45.9905H48.1524ZM45.1 34.5143C46.0857 34.1572 47.1381 34.0762 48.1524 34.2524V34.6333C47.1381 34.4572 46.0857 34.5381 45.1 34.9191V34.5095V34.5143ZM48.1524 35.4286V35.8238C47.4143 35.6476 46.6191 35.6571 45.881 35.8667C45.8143 35.8952 45.7571 35.9095 45.6905 35.9333C45.4857 36 45.2952 36.0857 45.1 36.181V35.7571C45.2524 35.6905 45.4 35.6333 45.5667 35.581C45.6191 35.5524 45.6905 35.5286 45.7714 35.5143C46.5524 35.281 47.3714 35.2667 48.1524 35.4333V35.4286ZM48.1524 44.4286V44.8095C47.181 45.0286 46.1571 44.9333 45.2238 44.5381C45.181 44.5238 45.1429 44.4952 45.1 44.4857V44.0619C45.181 44.1048 45.2762 44.1572 45.3714 44.1857C46.2619 44.5667 47.2333 44.6524 48.1476 44.4333L48.1524 44.4286ZM45.1 43.8286V43.1857C45.2381 42.9667 45.3714 42.7333 45.481 42.5C45.5238 42.3905 45.5762 42.2952 45.6191 42.1857C46.2905 40.5048 46.0857 38.5714 45.1 37.0667V36.4095C45.1286 36.4524 45.1667 36.5048 45.1952 36.5476C45.3191 36.7095 45.4429 36.8762 45.5381 37.0524C46.4952 38.6381 46.6476 40.6095 45.9619 42.3333C45.9191 42.4429 45.881 42.5524 45.8238 42.6619C45.6333 43.0714 45.3857 43.4714 45.1 43.8238V43.8286ZM45.1 41.2714C45.2762 40.5191 45.2762 39.7381 45.1 39V41.2714ZM45.1 45.7333C45.0571 45.7191 45.0333 45.7048 44.9905 45.6905C44.9238 45.6619 44.8667 45.6476 44.8 45.6238V45.2C44.8952 45.2524 45.0048 45.2952 45.1 45.3381V45.7333ZM44.8 34.6381C44.8952 34.5952 45.0048 34.5572 45.1 34.5143V34.9238C45.0048 34.9667 44.8952 35.0048 44.8 35.0476V34.6381ZM45.1 35.7619V36.1857C45.0571 36.2143 45.0048 36.2429 44.9619 36.2524C45.0048 36.3048 45.0571 36.3619 45.1 36.4143V37.0714C45.0333 36.9619 44.9619 36.8667 44.8952 36.7714C44.8667 36.7286 44.8381 36.7048 44.8 36.6619V35.9095C44.8952 35.8524 44.9905 35.8143 45.1 35.7571V35.7619ZM45.1 39.0048V41.2762C45.0429 41.4952 44.9762 41.7286 44.881 41.9476C44.8524 42 44.8286 42.0714 44.8 42.1238V40.8095C44.8667 40.3714 44.8667 39.9048 44.8 39.4714V38.1429C44.9238 38.4143 45.0333 38.7048 45.1 39.0048ZM45.1 43.1905V43.8333C45.0571 43.8905 45.0048 43.9429 44.9619 44C44.9905 44.0143 45.0286 44.0429 45.0571 44.0524L45.1 44.0667V44.4905C45.0333 44.4619 44.9619 44.4238 44.881 44.381C44.8524 44.3667 44.8286 44.3524 44.8 44.3381V43.6C44.9095 43.4619 45.0048 43.3286 45.1 43.1905ZM44.8 45.6238C44.4429 45.4714 44.1 45.281 43.7762 45.0619V44.5952L43.8857 44.6762C44.1714 44.881 44.4762 45.0572 44.8 45.1952V45.6191V45.6238ZM43.7762 35.1857V35.2C43.8857 35.1191 43.981 35.0619 44.0905 34.9952C44.2286 34.9143 44.3762 34.8286 44.5286 34.7619C44.6238 34.7095 44.7191 34.6667 44.8 34.6381V35.0476C44.7714 35.0619 44.7333 35.0762 44.7048 35.1048C44.5524 35.1572 44.4191 35.2429 44.281 35.3238C44.1429 35.4048 44.0095 35.4857 43.8857 35.5857L43.7762 35.6524V35.1857ZM44.8 35.9095V36.6619C44.7191 36.5524 44.6238 36.4429 44.5286 36.3333L44.3762 36.1667L44.5667 36.0429C44.6476 36 44.7191 35.9619 44.8 35.9048V35.9095ZM44.8 38.1381V39.4667C44.6762 38.6476 44.3333 37.8667 43.7762 37.2238V36.6762L43.9143 36.8143C44.0381 36.9381 44.1333 37.0619 44.2429 37.1952C44.4619 37.481 44.6524 37.7952 44.8048 38.1381H44.8ZM44.8 40.8048V42.1191C44.7857 42.1476 44.7714 42.1762 44.7571 42.2C44.5381 42.6667 44.2524 43.0762 43.9095 43.4333L43.7714 43.5857V43.0238C44.0333 42.7381 44.2524 42.3952 44.4143 42.0381C44.4571 41.9714 44.4952 41.8857 44.5238 41.7905C44.6619 41.4762 44.7429 41.1476 44.7952 40.8048H44.8ZM44.8 43.5952V44.3333C44.7191 44.2905 44.6476 44.2381 44.5667 44.1952L44.3762 44.0714L44.5286 43.9048C44.6238 43.7952 44.7191 43.7 44.8 43.5905V43.5952ZM43.7762 45.0572C43.681 45.1238 43.5714 45.1952 43.4619 45.2476C43.3238 45.3429 43.1762 45.4095 43.0238 45.4952C42.9286 45.5381 42.8476 45.5762 42.7524 45.6048V45.1952C42.7952 45.181 42.8191 45.1667 42.8619 45.1524C43 45.0857 43.1333 45 43.2714 44.9191C43.4095 44.8524 43.5429 44.7571 43.6667 44.6714L43.7762 44.5905V45.0572ZM42.7524 34.6333C43.1095 34.7857 43.4524 34.9619 43.7762 35.181V35.6476L43.6667 35.581C43.381 35.3762 43.0667 35.2 42.7524 35.0476V34.6381V34.6333ZM43.7762 36.6714V37.2191C43.2286 37.8619 42.8714 38.6286 42.7524 39.4476V38.1191C42.9714 37.6381 43.2714 37.2048 43.6429 36.8048L43.781 36.6667L43.7762 36.6714ZM43.7762 43.0191V43.5667L43.6381 43.4429V43.4286C43.5286 43.3048 43.4191 43.181 43.3095 43.0571C43.2143 42.9191 43.1191 42.7857 43.0238 42.6333C42.9286 42.4714 42.8333 42.3048 42.7524 42.1286V40.8143C42.8476 41.3905 43.0381 41.9381 43.3524 42.4429C43.4333 42.5667 43.5143 42.7048 43.6143 42.8238C43.6667 42.8905 43.7238 42.9476 43.7762 43.0143V43.0191ZM42.7524 44.3333V43.5952C42.8333 43.7048 42.9286 43.8 43.0238 43.9095L43.1762 44.0762L42.9857 44.2C42.9191 44.2429 42.8333 44.2952 42.7524 44.3381V44.3333ZM42.7524 36.6429V35.9191C42.8333 35.9619 42.9048 36 42.9857 36.0429L43.1762 36.1667L43.0238 36.3333C42.9286 36.4429 42.8333 36.5381 42.7524 36.6476V36.6429ZM42.7524 45.6048C42.6571 45.6571 42.5619 45.6857 42.4667 45.7286V45.3191C42.5619 45.2905 42.6571 45.2524 42.7524 45.1952V45.6048ZM42.4667 34.5095C42.5619 34.5524 42.6571 34.5905 42.7524 34.6333V35.0429C42.6571 35 42.5619 34.9619 42.4667 34.9191V34.5095ZM42.7524 35.9191V36.6429C42.6571 36.781 42.5476 36.9143 42.4667 37.0524V36.4095C42.5095 36.3524 42.5476 36.3 42.5905 36.2476C42.5619 36.2333 42.5238 36.2191 42.4952 36.1905L42.4667 36.1762V35.7667C42.5333 35.7952 42.6048 35.8238 42.6714 35.8619C42.7 35.8762 42.7238 35.8905 42.7524 35.9191ZM42.7524 38.1238V39.4524C42.6857 39.9048 42.6857 40.3667 42.7524 40.8191V42.1333C42.6286 41.8619 42.5333 41.5714 42.4667 41.2714V38.9857C42.5333 38.7 42.6286 38.4095 42.7524 38.1238ZM42.7524 43.5952V44.3333C42.6571 44.3905 42.5619 44.4286 42.4667 44.4857V44.0619C42.5095 44.0333 42.5476 44.0191 42.5905 43.9952C42.5476 43.9381 42.5095 43.8857 42.4667 43.8286V43.1857C42.5191 43.281 42.5905 43.3762 42.6571 43.4714C42.6857 43.5143 42.7238 43.5524 42.7524 43.5952ZM42.4667 45.7286C41.4667 46.0857 40.4143 46.1667 39.4 45.9905V45.6095C40.4143 45.8 41.481 45.7048 42.4667 45.3238V45.7333V45.7286ZM39.4 34.2524C40.4238 34.0762 41.481 34.1714 42.4667 34.5143V34.9238C41.481 34.5429 40.4286 34.4571 39.4 34.6381V34.2572V34.2524ZM42.4667 35.7714V36.181C42.3714 36.1381 42.2762 36.1 42.181 36.0572C41.2905 35.6762 40.3191 35.6048 39.4048 35.8238V35.4286C40.4191 35.2095 41.5 35.3191 42.4714 35.7714H42.4667ZM42.4667 36.4143V37.0571C41.3191 38.8095 41.2238 41.1333 42.3429 42.9952C42.3857 43.0619 42.4238 43.1333 42.4667 43.1857V43.8286C42.4238 43.7857 42.3857 43.7476 42.3571 43.6905C42.2333 43.5238 42.1238 43.3619 42.0143 43.2C40.7286 41.0524 40.9476 38.3143 42.4667 36.4143ZM42.4667 38.9857C42.2905 39.7381 42.2762 40.5191 42.4667 41.2714V38.9857ZM42.4667 44.0619V44.4857C42.3048 44.5524 42.1524 44.6238 41.9857 44.6762C41.9286 44.6905 41.8619 44.7191 41.781 44.7286C41 44.9619 40.181 44.9905 39.4 44.8095V44.4286C40.2095 44.6191 41.0714 44.581 41.8619 44.3048C42.0667 44.2381 42.2714 44.1524 42.4619 44.0571L42.4667 44.0619ZM39.4 45.9905C38.2238 45.7857 37.1 45.2238 36.2238 44.3333C33.9 42.0095 33.9 38.2333 36.2238 35.9048C37.1143 35.0143 38.2333 34.4524 39.4 34.2476V34.6286C38.3333 34.8333 37.3048 35.3524 36.4857 36.1762C34.3095 38.3524 34.3095 41.881 36.4857 44.0714C37.3048 44.881 38.3333 45.4 39.4 45.6048V45.9857V45.9905ZM39.4 35.4286C38.5238 35.6191 37.7048 36.0571 37.0333 36.7286C35.1571 38.6048 35.1571 41.6524 37.0333 43.5286C37.7048 44.1857 38.5238 44.6238 39.4 44.8143V44.4333C38.6333 44.2429 37.8952 43.8429 37.3048 43.2571C35.581 41.5333 35.581 38.7286 37.3048 36.9905C37.8952 36.4 38.6333 36.0048 39.4 35.8286V35.4333V35.4286Z" fill="#937D43"></path><path fill-rule="evenodd" clip-rule="evenodd" d="M48.2095 34.4621C50.8619 34.9668 52.8762 37.3097 52.8762 40.124C52.8762 42.9383 50.8667 45.2811 48.2095 45.8002V44.6097C50.2191 44.1287 51.7238 42.2954 51.7238 40.124C51.7238 37.9525 50.2191 36.1287 48.2095 35.6383V34.4621ZM47.1286 34.3525C47.5 34.3525 47.8524 34.3954 48.2095 34.4621V35.6383C47.8524 35.5573 47.5 35.5144 47.1286 35.5144C46.2953 35.5144 45.5286 35.7192 44.8572 36.1049V34.8192C45.5572 34.5192 46.3191 34.3525 47.1286 34.3525ZM48.2095 45.8049C47.8524 45.8573 47.5 45.9002 47.1286 45.9002C46.3191 45.9002 45.5572 45.7335 44.8572 45.4335V44.1478C45.5286 44.5287 46.2953 44.7478 47.1286 44.7478C47.5 44.7478 47.8524 44.6954 48.2095 44.6097V45.8002V45.8049ZM44.8572 43.8335V41.4383C44.981 41.0287 45.0476 40.5763 45.0476 40.124C45.0476 39.6716 44.981 39.2335 44.8572 38.8097V36.4287C45.7048 37.4287 46.2 38.7144 46.2 40.124C46.2 41.5335 45.7095 42.8192 44.8572 43.8335ZM44.8572 45.4335C44.4762 45.2716 44.1191 45.0621 43.7762 44.8335V43.3144C44.2667 42.7954 44.6524 42.1525 44.8572 41.4383V43.8335C44.8048 43.9002 44.7334 43.9716 44.681 44.0383C44.7334 44.0811 44.8048 44.1192 44.8572 44.1478V45.4335ZM43.7762 35.4192C44.1191 35.1859 44.4762 34.9811 44.8572 34.8192V36.1049C44.8048 36.1478 44.7334 36.1716 44.681 36.2144C44.7334 36.2811 44.8048 36.3525 44.8572 36.4335V38.8144C44.6524 38.1144 44.2667 37.4716 43.7762 36.9525V35.4192ZM43.7762 44.8335C43.4334 45.0668 43.0762 45.2716 42.6953 45.4335V44.1478C42.7619 44.1192 42.8191 44.0811 42.8857 44.0383C42.8191 43.9716 42.7476 43.9002 42.6953 43.8335V41.4383C42.9 42.1478 43.2857 42.7906 43.7762 43.3144V44.8335ZM42.6953 34.8192C43.0762 34.9811 43.4334 35.1906 43.7762 35.4192V36.9525C43.2857 37.4716 42.9 38.1144 42.6953 38.8144V36.4335C42.7476 36.3525 42.8191 36.2811 42.8857 36.2144C42.8191 36.1716 42.7619 36.1478 42.6953 36.1049V34.8192ZM42.6953 45.4335C41.9953 45.7335 41.2334 45.9002 40.4381 45.9002C40.0667 45.9002 39.7 45.8573 39.3429 45.8049V44.6144C39.7 44.6954 40.0524 44.7525 40.4381 44.7525C41.2572 44.7525 42.0238 44.5335 42.6953 44.1525V45.4383V45.4335ZM39.3429 34.4621C39.7 34.3954 40.0667 34.3525 40.4381 34.3525C41.2334 34.3525 42 34.5192 42.6953 34.8192V36.1049C42.0238 35.724 41.2572 35.5144 40.4381 35.5144C40.0572 35.5144 39.7 35.5573 39.3429 35.6383V34.4621ZM42.6953 36.4335V38.8144C42.5715 39.2383 42.5048 39.6763 42.5048 40.1287C42.5048 40.5811 42.5715 41.0192 42.6953 41.443V43.8383C41.8619 42.824 41.3524 41.5383 41.3524 40.1287C41.3524 38.7192 41.8572 37.4335 42.6953 36.4335ZM39.3429 45.8049C36.6762 45.2859 34.6619 42.9478 34.6619 40.1287C34.6619 37.3097 36.6715 34.9716 39.3429 34.4668V35.643C37.3191 36.1335 35.8143 37.9573 35.8143 40.1287C35.8143 42.3002 37.3191 44.1383 39.3429 44.6144V45.8049Z" fill="white"></path><path d="M57.8238 59.8667L57.8381 59.881L61.3381 53.3667L61.5857 52.9286L61.6953 53.4095L64.4191 64.8048L64.4714 65.0381H62.9953L62.9667 64.9L61.0381 57.8429L58 63.481L57.8238 63.781V62.9857L60.9286 57.2524L61.1619 56.8286L61.2857 57.2953L63.2953 64.6715H63.9953L61.4524 53.9857L58.0048 60.3762L57.8429 60.6905L57.8286 60.6762V59.8667H57.8238ZM51.2286 64.7762L53.9667 53.3953L54.0762 52.9048L54.3095 53.3429L57.8238 59.8667V60.6762L57.6714 60.3762L54.2095 53.9619L51.6524 64.6476H52.3619L54.3714 57.2762L54.4953 56.8095L54.7286 57.2334L57.8191 62.9953V63.7905L57.6572 63.4905L54.6191 57.8286L52.6905 64.8857L52.6476 65.0238H51.1714L51.2286 64.7905V64.7762Z" fill="#937D43"></path><path fill-rule="evenodd" clip-rule="evenodd" d="M51.4238 64.8193L54.1429 53.4336L57.8381 60.2907L61.5191 53.4622L64.2429 64.8431H63.1476L61.1095 57.3336L57.8238 63.3812L54.5572 57.305L52.5191 64.8193H51.4238Z" fill="#344B9D"></path><path d="M30.7095 11.3384L31.1143 12.0717L28.9 13.2955L29.2476 13.9289L31.2143 12.8431L31.6143 13.5717L29.6476 14.6574L30.1333 15.5336L29.2714 16.0098L27.6333 13.0431L30.7095 11.3431V11.3384Z" fill="white"></path><path d="M36.3 12.6237L35.7619 12.1523L33.8286 12.938L33.7714 13.6523L32.7905 14.0523L33.1333 10.2571L34.3905 9.74756L37.2809 12.2285L36.3048 12.6237H36.3ZM33.8952 12.1142L35.1333 11.6095L34.0143 10.6333L33.8952 12.1142Z" fill="white"></path><path d="M41.3476 10.1764L40.7619 7.81927L41.7095 7.58594L42.5238 10.8764L41.1285 11.224L38.6047 9.34784L39.1904 11.705L38.2381 11.9431L37.4238 8.6526L38.8238 8.30499L41.3476 10.1812V10.1764Z" fill="white"></path><path d="M46.119 6.96208L50.2 6.79541L50.2333 7.62874L48.6857 7.69065L48.7904 10.243L47.8095 10.2811L47.7047 7.72874L46.1524 7.79065L46.119 6.95731V6.96208Z" fill="white"></path><path d="M51.3904 8.49526C51.4857 7.37622 52.3143 6.78098 53.7381 6.90479C55.1571 7.0286 55.8762 7.75717 55.7809 8.87145C55.6857 9.9905 54.8523 10.5953 53.4333 10.4715C52.0095 10.3476 51.2952 9.61907 51.3904 8.49526ZM54.7571 8.78574C54.8095 8.20003 54.5047 7.80955 53.6666 7.73812C52.8333 7.66669 52.4666 7.9905 52.419 8.58574C52.3666 9.18098 52.6762 9.57145 53.5047 9.64288C54.3381 9.71431 54.7095 9.38098 54.7619 8.7905L54.7571 8.78574Z" fill="white"></path><path d="M61.6237 8.36681L59.6333 9.38109L60.8809 11.6763L59.6761 11.4049L58.8095 9.8049L57.8618 10.2859L57.7095 10.9573L56.7523 10.7382L57.4999 7.42871L58.4618 7.643L58.1285 9.12871L60.1952 8.03823L61.6333 8.36204L61.6237 8.36681Z" fill="white"></path><path d="M66.3285 9.99541L66.0666 10.7192L63.6857 9.85732L63.5 10.3668L65.7905 11.1954L65.5285 11.9192L63.2381 11.0906L63.0524 11.6002L65.4333 12.4573L65.1714 13.1811L61.8666 11.9859L63.019 8.79541L66.3238 9.99065L66.3285 9.99541Z" fill="white"></path><path d="M69.7618 14.3526L70.8761 12.1907L71.7476 12.6383L70.1904 15.6526L68.9095 14.9907L68.2476 11.9097L67.1333 14.0716L66.2571 13.6193L67.8142 10.605L69.0999 11.2669L69.7618 14.3478V14.3526Z" fill="white"></path><path d="M27.3952 85.4763C27.2476 85.7192 27.3952 86.0239 28.1571 86.4858C28.8571 86.9049 29.0952 86.9001 29.2047 86.7192C29.3333 86.5097 29.2238 86.3906 28.3952 85.8144C27.2666 85.024 26.8904 84.4763 27.2762 83.8335C27.6428 83.2287 28.4619 83.3478 29.4666 83.9525C30.5857 84.6239 31.0238 85.3525 30.6619 86.0144L29.7809 85.4859C29.9333 85.2287 29.7143 84.962 29.0619 84.5716C28.4428 84.2001 28.2428 84.2192 28.1476 84.3763C28.0381 84.5573 28.1476 84.6954 28.8952 85.2335C29.9143 85.9573 30.5619 86.4478 30.1047 87.2097C29.6571 87.9525 28.8381 87.7573 27.8047 87.1335C26.6285 86.4239 26.0904 85.7382 26.5095 84.9478L27.3904 85.4811L27.3952 85.4763Z" fill="white"></path><path d="M31.5238 87.1909C31.9714 86.1576 32.9428 85.8623 34.2571 86.429C35.5667 86.9957 36.0143 87.9147 35.5714 88.9433C35.1238 89.9766 34.1428 90.2814 32.8333 89.7147C31.519 89.148 31.0762 88.229 31.5238 87.1909ZM34.6286 88.5385C34.8619 87.9957 34.6952 87.5338 33.9238 87.1957C33.1571 86.8623 32.7047 87.0576 32.4714 87.6004C32.2333 88.1481 32.4047 88.6147 33.1667 88.948C33.9333 89.2814 34.3952 89.0814 34.6286 88.5338V88.5385Z" fill="white"></path><path d="M39.2952 88.2146C40.4952 88.5527 41.0333 89.2574 40.8952 90.1241L39.8905 89.8431C39.9095 89.5241 39.6762 89.186 39.0714 89.0193C38.3714 88.8241 37.9381 89.0717 37.7762 89.6431C37.6143 90.2193 37.8619 90.6622 38.5571 90.8574C39.1619 91.0241 39.5381 90.8574 39.6857 90.5669L40.6905 90.8479C40.3571 91.6669 39.5333 91.9955 38.3286 91.6622C37.019 91.2955 36.4714 90.486 36.7809 89.3669C37.0952 88.2527 37.9809 87.8479 39.2905 88.2146H39.2952Z" fill="white"></path><path d="M43.3952 89.2289L42.7952 92.5623L41.8286 92.3861L42.4286 89.0527L43.3952 89.2289Z" fill="white"></path><path d="M44.419 91.1481C44.5095 90.029 45.3333 89.4338 46.7571 89.5481C48.1762 89.6624 48.9 90.3909 48.8047 91.5052C48.7143 92.6243 47.8857 93.229 46.4619 93.1147C45.0381 93.0005 44.319 92.2719 44.4143 91.1481H44.419ZM47.7857 91.4243C47.8333 90.8386 47.5285 90.4528 46.6905 90.3814C45.8571 90.3148 45.4952 90.6433 45.4428 91.2338C45.3952 91.829 45.7047 92.2148 46.5333 92.2862C47.3666 92.3528 47.7381 92.0195 47.7857 91.4243Z" fill="white"></path><path d="M51.119 92.048C51.1333 92.3337 51.4238 92.5051 52.3143 92.4575C53.1286 92.4146 53.3238 92.2766 53.3095 92.0623C53.2952 91.8146 53.1428 91.7813 52.1333 91.767C50.7571 91.7432 50.1333 91.5004 50.0952 90.748C50.0571 90.0432 50.8047 89.6813 51.9762 89.6242C53.2809 89.5575 54.0524 89.9099 54.119 90.6623L53.0952 90.7146C53.0809 90.4146 52.7476 90.3194 51.9857 90.3575C51.2666 90.3956 51.1095 90.5242 51.119 90.7051C51.1285 90.9146 51.2952 90.9718 52.219 91.0004C53.4666 91.0289 54.2809 91.0718 54.3285 91.9623C54.3714 92.8289 53.5857 93.1242 52.3809 93.1861C51.0095 93.2575 50.1762 92.9861 50.0857 92.0956L51.1143 92.0432L51.119 92.048Z" fill="white"></path><path d="M55.7428 92.0434L56.6809 91.9053L56.7857 92.6338L55.8476 92.7719L55.738 92.0434H55.7428Z" fill="white"></path><path d="M59.4809 88.5387C60.6952 88.2434 61.5095 88.5958 61.8143 89.4196L60.8 89.6673C60.6619 89.3768 60.2905 89.2006 59.6809 89.3482C58.9762 89.5196 58.719 89.9482 58.8571 90.5292C59 91.1101 59.4333 91.3768 60.1333 91.2054C60.7428 91.0577 60.9905 90.7244 60.9762 90.3958L61.9905 90.1482C62.1 91.0244 61.5428 91.7196 60.3286 92.0149C59.0047 92.3387 58.1286 91.9006 57.8524 90.772C57.5762 89.6482 58.1524 88.8625 59.4762 88.5387H59.4809Z" fill="white"></path><path d="M63.1523 89.3956C62.738 88.348 63.219 87.4527 64.5476 86.9242C65.8714 86.4003 66.8428 86.7337 67.2523 87.7765C67.6666 88.8242 67.1857 89.7337 65.8618 90.2575C64.5333 90.7813 63.5666 90.448 63.1523 89.3956ZM66.2999 88.1527C66.0857 87.6051 65.638 87.3908 64.8571 87.7003C64.0809 88.0051 63.8952 88.4622 64.1142 89.0146C64.3333 89.5718 64.7857 89.7813 65.5571 89.4765C66.3333 89.1718 66.519 88.7051 66.2999 88.1527Z" fill="white"></path><path d="M69.3333 88.6956L67.6285 85.7623L68.9523 84.9908L71.1047 86.3432L70.9904 83.8051L72.3143 83.0337L74.019 85.967L73.1714 86.4575L71.9381 84.3337L72.0714 87.1004L71.2857 87.5575L68.9476 86.0765L70.1857 88.2004L69.3333 88.6956Z" fill="white"></path><path d="M23.019 81.8382C13.9952 74.1811 8.26666 62.7573 8.26666 50.0001C8.26666 37.243 14.3 25.2144 23.7381 17.562" stroke="white" stroke-miterlimit="10"></path><path d="M76.2667 17.5669C85.7048 25.2193 91.7333 36.905 91.7333 50.0002C91.7333 63.0955 86.0048 74.1859 76.9809 81.8431" stroke="white" stroke-miterlimit="10"></path></g><defs><clipPath id="clip0_101_22098"><rect width="100" height="100" fill="white"></rect></clipPath></defs></svg>