<svg xmlns="http://www.w3.org/2000/svg" width="100" height="100" viewBox="0 0 100 100" fill="none"><g clip-path="url(#clip0_101_22121)"><path d="M50 100C77.6142 100 100 77.6142 100 50C100 22.3858 77.6142 0 50 0C22.3858 0 0 22.3858 0 50C0 77.6142 22.3858 100 50 100Z" fill="#1E4693"></path><path d="M50 2.53333C76.1714 2.53333 97.4667 23.8286 97.4667 50C97.4667 76.1714 76.1714 97.4667 50 97.4667C23.8286 97.4667 2.53333 76.1714 2.53333 50C2.53333 23.8286 23.8286 2.53333 50 2.53333ZM50 0C22.3857 0 0 22.3857 0 50C0 77.6143 22.3857 100 50 100C77.6143 100 100 77.6143 100 50C100 22.3857 77.6143 0 50 0Z" fill="#FBED21"></path><path fill-rule="evenodd" clip-rule="evenodd" d="M28.9619 50.51L31.1286 47.4338C31.3238 47.1815 31.6524 46.6672 31.8571 46.3958L33.0381 44.7291C33.0714 44.6815 33.1 44.6481 33.1286 44.6005C33.1857 44.51 33.2524 44.4291 33.3095 44.3386C33.9333 43.3529 34.5905 43.4957 35.9667 43.4957H64.0095C65.0286 43.4957 65.5905 43.3481 66.2714 43.8529C66.5 44.0243 66.6762 44.3196 66.8524 44.5767C66.9143 44.6624 66.9762 44.7434 67.0381 44.8291L70.6714 49.9815C70.7571 50.1148 70.9952 50.4196 71.0333 50.51C71.0714 50.3529 71.0429 45.0767 71.0429 44.7672V28.9148C71.0429 28.3862 71.0952 28.0196 70.7524 27.7481C70.581 27.61 70.5191 27.5862 70.2619 27.5338L68.4619 27.1672C62.6762 25.991 55.8524 25.4243 50 25.4148C44.119 25.4005 37.3667 26.0053 31.5524 27.1624C31.1524 27.2434 30.7476 27.3196 30.3571 27.4005C29.9762 27.4815 29.4762 27.5291 29.2381 27.7386C28.881 28.0529 28.9429 28.291 28.9429 28.8719V49.0719C28.9429 49.3243 28.9095 50.3481 28.9524 50.51H28.9619Z" fill="#FBED21"></path><path fill-rule="evenodd" clip-rule="evenodd" d="M38.6333 71.5432C39.1143 71.4289 40.8667 70.8527 41.4381 70.667C41.9048 70.5146 42.3762 70.367 42.8476 70.2242C44.5333 69.7051 43.9952 69.7146 45.7143 70.2527C46.181 70.4003 46.6571 70.5432 47.1286 70.6956C47.5333 70.8242 49.7524 71.5527 49.981 71.5527C50.2143 71.5527 52.4333 70.8337 52.8238 70.7051L54.9429 70.0432C55.1238 69.9861 55.481 69.8527 55.6619 69.8384C55.981 69.8099 56.7952 70.1099 57.1238 70.2146L61.3476 71.548C61.1191 71.7908 59.219 72.767 58.9048 72.9194C58.7333 73.0004 58.7238 72.9575 58.5429 72.9051C58.1095 72.7718 56.2238 72.1765 55.9714 72.1194C55.5857 72.0337 54.8095 72.3432 54.4381 72.4575L51.5095 73.348C51.2238 73.4384 50.2476 73.767 50 73.7718C49.7333 73.7718 48.8095 73.448 48.5048 73.3575L45.5714 72.467C43.8857 71.9622 44.4524 71.9861 42.5714 72.5623L41.4714 72.9003C41.3143 72.948 41.2381 73.0099 41.0857 72.9384C40.6571 72.7384 40.2048 72.5099 39.8191 72.2861C39.6143 72.167 39.4238 72.0623 39.2143 71.9384L38.6571 71.5861C38.6095 71.5432 38.6524 71.5861 38.619 71.548L38.6333 71.5432ZM34.4714 68.0527L33.7571 67.2194C33.6 67.0384 32.5381 65.6718 32.4429 65.4337C32.8952 65.3623 33.2143 65.5289 33.6095 65.6432L37.9286 66.9527C38.5048 67.1289 38.5333 67.1099 39.0952 66.9337L43.4048 65.6146C43.7857 65.4956 44.1333 65.3337 44.5619 65.467C44.9191 65.5765 45.2762 65.6813 45.6286 65.7908L48.881 66.7813C50.2095 67.1765 49.7571 67.1861 51.1048 66.7813C52.5095 66.3623 54.0429 65.9099 55.4238 65.4718C55.8619 65.3337 56.1952 65.5051 56.581 65.6194C57.2952 65.8337 58.0143 66.0527 58.7286 66.2765C59.4476 66.5003 60.1714 66.7242 60.8905 66.9384C61.4714 67.1099 61.4571 67.1384 62.0571 66.9575L65.2905 65.9765C65.6476 65.867 66.0143 65.7527 66.3762 65.648C66.781 65.5289 67.0714 65.3813 67.5286 65.4337C67.4762 65.567 67.2857 65.8004 67.2048 65.9242C67.1524 66.0003 67.0905 66.0908 67.0429 66.1623L66.3762 67.0384C66.0429 67.448 65.7667 67.7242 65.4714 68.0765C65.3762 68.1908 65.4048 68.1765 65.2286 68.2289L64.3524 68.5051C63.5619 68.7623 62.7714 68.9908 61.981 69.248C61.381 69.4432 61.2714 69.3146 60.7191 69.148L57.1762 68.0337C55.7667 67.5908 56.0381 67.4908 54.7429 67.9051L51.1952 69.0146C49.7762 69.4718 50.1667 69.4384 48.7667 69.0051L45.2143 67.8956C43.9905 67.5003 44.2238 67.5908 42.781 68.0432L39.2191 69.1623C38.6333 69.3432 38.6 69.4242 37.9714 69.2384L34.9952 68.3051C34.6619 68.2003 34.6095 68.2289 34.4667 68.0575L34.4714 68.0527ZM30.4333 61.6051C30.581 61.5337 30.8619 61.467 31.0333 61.4099C33.0238 60.767 32.4333 60.8337 34.1238 61.3384C34.5333 61.4622 34.9333 61.5861 35.3333 61.7146C36.1429 61.9765 36.9524 62.2146 37.7571 62.4718C38.381 62.6718 38.3857 62.7242 39.0381 62.5242L43.8571 61.0051C44.3619 60.8432 44.6762 61.0337 45.1333 61.1718L48.7667 62.3051C50.1952 62.748 49.7667 62.7718 51.2286 62.3051L54.8619 61.1718C55.3048 61.0384 55.6476 60.848 56.1381 61.0051L59.7476 62.1432C60.1524 62.2718 60.5524 62.3956 60.9571 62.5242C61.6095 62.7289 61.619 62.667 62.2381 62.4718L65.8714 61.3337C67.3048 60.8765 67.0524 60.7956 68.3571 61.2146C68.7524 61.3432 69.1571 61.467 69.5476 61.5861C69.4381 62.0051 68.8619 63.0956 68.6524 63.5527C68.281 63.4861 67.8667 63.2813 67.4905 63.2099C67.1429 63.1432 66.581 63.367 66.2619 63.467L62.8048 64.5146C61.4476 64.9146 61.7857 65.0003 60.4238 64.5765L56.9905 63.5289C55.5667 63.0861 55.9952 63.0956 54.6095 63.5051L51.1524 64.5527C49.8143 64.948 50.2095 64.9861 48.8 64.5432L45.3429 63.4956C45.0381 63.4051 44.4476 63.1765 44.1286 63.2051C43.9571 63.2194 43.1857 63.4765 42.9619 63.5432L39.5286 64.5956C39.2048 64.6908 38.6476 64.9194 38.3048 64.8623L33.6905 63.467C33.3571 63.367 32.819 63.1384 32.4619 63.2289C32.1571 63.3051 31.5524 63.5289 31.3143 63.5718C31.2714 63.4384 31.1429 63.2242 31.0762 63.0813C30.8619 62.6432 30.5905 62.0575 30.4286 61.6099L30.4333 61.6051ZM29.2714 57.4861C29.6429 57.4003 31.3524 56.8432 31.8286 56.6908C32.4048 56.5051 32.5619 56.3765 33.1952 56.5765C33.6286 56.7146 34.0429 56.8432 34.4714 56.9765C35.319 57.2384 36.1762 57.5194 37.0286 57.7765C37.2714 57.848 38.1524 58.1432 38.3143 58.1718C38.6571 58.2337 39.3429 57.9623 39.6667 57.8575C40.5191 57.5861 41.3571 57.3146 42.2191 57.0527C42.6476 56.9194 43.0667 56.7861 43.4952 56.6527C44.181 56.4384 44.1476 56.3956 44.8571 56.6146L48.6952 57.8146C50.2952 58.3051 49.7286 58.3003 51.3238 57.8099C51.7476 57.6813 52.1714 57.5432 52.6048 57.4099C53.4571 57.1432 54.3095 56.867 55.1619 56.6099C55.8905 56.3908 55.8286 56.4384 56.5238 56.6527C57.8 57.0432 59.0714 57.4718 60.3524 57.8623C61.619 58.248 61.319 58.2908 62.3476 57.967L66.8238 56.567C67.4571 56.3623 67.619 56.5194 68.1905 56.6908C68.6143 56.8194 69.0429 56.9575 69.4667 57.0908C69.8667 57.2194 70.3286 57.3813 70.7238 57.4861C70.6429 58.2289 70.3619 58.9575 70.2524 59.5718L67.7286 58.8099C67.1905 58.6432 66.9 58.8003 66.4095 58.9575L62.6476 60.1003C61.4238 60.4765 61.6524 60.4765 60.7095 60.1956L57.581 59.2384C57.1619 59.1146 56.7476 58.9908 56.3286 58.8575C55.6619 58.6432 55.6429 58.7289 55.0095 58.9146L51.2476 60.0575C49.7857 60.4956 50.2429 60.5289 48.7143 60.048L44.9524 58.9051C44.2905 58.7003 44.319 58.6623 43.6333 58.867L39.881 60.0146C38.4191 60.4622 38.7476 60.5289 37.3191 60.0861L33.5571 58.9432C33 58.7765 32.8476 58.6384 32.2381 58.8194C31.8143 58.948 31.4095 59.0718 30.9857 59.2003L29.7333 59.5718C29.6571 59.067 29.3476 58.2337 29.2667 57.4813L29.2714 57.4861ZM33.2333 49.3384H37.7571V51.4575L42.8857 51.448L42.8952 49.3384H47.4048C47.4048 49.9527 47.3857 50.8765 47.4048 51.4527H52.5762L52.581 49.3384C53.119 49.3384 56.8429 49.3099 57.0524 49.3527V51.4575H62.2286V49.3432H66.7524V51.4575H71.0381V55.4099H28.9476V51.4527H33.2333V49.3337V49.3384ZM28.9571 50.5146H32.3381V49.2099C32.3381 48.7337 32.3619 48.448 32.8714 48.448H38.1048C38.6143 48.448 38.6476 48.7099 38.6476 49.1908V50.5242H41.9905C41.9905 50.0861 41.9905 49.6527 41.9905 49.2146C41.9905 48.7194 42.0095 48.4527 42.5429 48.4527H47.8C48.3 48.4527 48.3476 48.7242 48.3476 49.1956C48.3476 49.6384 48.3476 50.0813 48.3476 50.5289H51.6476C51.6476 50.0908 51.6476 49.6575 51.6476 49.2194C51.6476 48.748 51.6905 48.4575 52.1952 48.4575H57.4524C57.9762 48.4575 58.0048 48.7099 58.0048 49.2003C58.0048 49.6432 58.0048 50.0861 58.0048 50.5289H61.3476V49.2194C61.3476 48.7575 61.3667 48.4575 61.8667 48.4575H67.1C67.6191 48.4575 67.6571 48.7051 67.6571 49.2003V50.5289H71.0381C71.0762 50.3718 71.0476 45.0956 71.0476 44.7861V28.9146C71.0476 28.3861 71.1 28.0194 70.7571 27.748C70.5857 27.6099 70.5238 27.5861 70.2667 27.5337L68.4667 27.167C62.681 25.9908 55.8571 25.4242 50.0048 25.4146C44.1238 25.4003 37.3714 26.0051 31.5571 27.1623C31.1571 27.2432 30.7524 27.3194 30.3619 27.4003C29.981 27.4813 29.481 27.5289 29.2429 27.7384C28.8857 28.0527 28.9476 28.2908 28.9476 28.8718V49.0718C28.9476 49.3242 28.9143 50.348 28.9571 50.5099V50.5146ZM28.0667 54.8384C28.2 58.3337 29.1524 61.6003 30.5714 64.248C30.9286 64.9099 31.2905 65.5384 31.6762 66.1242C32.0619 66.7099 32.681 67.5575 33.1095 68.048L33.981 69.0527C34.4238 69.5432 35.3667 70.4003 35.8905 70.8527C35.981 70.9289 36.019 70.9527 36.1 71.0194C36.1667 71.0765 36.2286 71.1289 36.3048 71.1908L37.5857 72.1432C38.1333 72.5194 38.7952 72.9432 39.4286 73.2813C40.0905 73.6289 40.7143 73.9575 41.4333 74.2575C47.7762 76.9099 54.7476 76.5194 60.7381 73.1861C61.1048 72.9813 62.2191 72.3051 62.5667 72.0337L62.7857 71.8765C63.3048 71.5242 63.6048 71.2432 64.0524 70.8908C64.5 70.5337 64.6857 70.3242 65.0333 70.0194C65.3048 69.7813 65.881 69.2146 66.1476 68.9003L66.8524 68.1003C67.2857 67.6099 68.0714 66.5242 68.4286 65.967C69.1857 64.7718 69.8762 63.5051 70.4524 62.0289C71.0191 60.567 71.4571 59.0003 71.7095 57.3242C71.9952 55.4003 71.9524 53.5623 71.9524 51.5956V30.7337C71.9524 30.1146 72.0238 28.2956 71.8667 27.8289C71.5667 26.9289 70.8572 26.7718 70.1 26.6146C61.9762 24.9051 54.0143 24.1765 45.4952 24.5861C40.3 24.8337 34.7429 25.5337 29.6905 26.6623C29.2381 26.7623 28.8952 26.8527 28.6286 27.1051C27.8905 27.8051 28.0571 28.448 28.0571 29.5194V51.8623C28.0571 52.848 28.0333 53.8623 28.0714 54.8432L28.0667 54.8384Z" fill="white"></path><path fill-rule="evenodd" clip-rule="evenodd" d="M28.9619 50.5099H32.3429V49.2051C32.3429 48.7289 32.3667 48.4432 32.8762 48.4432H38.1095C38.619 48.4432 38.6524 48.7051 38.6524 49.186V50.5194H41.9952C41.9952 50.0813 41.9952 49.6479 41.9952 49.2098C41.9952 48.7146 42.0143 48.4479 42.5476 48.4479H47.8048C48.3048 48.4479 48.3524 48.7194 48.3524 49.1908C48.3524 49.6337 48.3524 50.0765 48.3524 50.5241H51.6524C51.6524 50.086 51.6524 49.6527 51.6524 49.2146C51.6524 48.7432 51.6952 48.4527 52.2 48.4527H57.4571C57.981 48.4527 58.0095 48.7051 58.0095 49.1956C58.0095 49.6384 58.0095 50.0813 58.0095 50.5241H61.3524V49.2146C61.3524 48.7527 61.3714 48.4527 61.8714 48.4527H67.1048C67.6238 48.4527 67.6619 48.7003 67.6619 49.1956V50.5241H71.0429C71.0048 50.4337 70.7619 50.1241 70.681 49.9956L67.0476 44.8432C66.9857 44.7575 66.9191 44.6765 66.8619 44.5908C66.6857 44.3384 66.5095 44.0384 66.281 43.867C65.6 43.3622 65.0381 43.5099 64.0191 43.5099H35.9762C34.5952 43.5099 33.9429 43.367 33.3191 44.3527C32.881 45.0432 32.3381 45.7432 31.8667 46.4098C31.6619 46.6813 31.3333 47.1956 31.1381 47.4479L28.9714 50.5241L28.9619 50.5099Z" fill="#14A74C"></path><path fill-rule="evenodd" clip-rule="evenodd" d="M33.2333 51.4526H28.9476V55.4049H71.0476V51.4573H66.7667V49.3383H62.2429V51.4526H57.0714L57.0667 49.3478C56.8571 49.3097 53.1333 49.3335 52.5952 49.3335V51.4478H47.4143C47.3952 50.8716 47.4143 49.9478 47.4143 49.3335H42.9048L42.8952 51.443L37.7667 51.4526V49.3335H33.2381V51.4526H33.2333Z" fill="#020203"></path><path fill-rule="evenodd" clip-rule="evenodd" d="M29.2714 57.4814C29.3524 58.2338 29.6619 59.0671 29.7381 59.5719L30.9905 59.2004C31.4143 59.0719 31.819 58.9433 32.2429 58.8195C32.8524 58.6385 33.0048 58.7766 33.5619 58.9433L37.3238 60.0861C38.7524 60.529 38.4238 60.4623 39.8857 60.0147L43.6381 58.8671C44.319 58.6623 44.2952 58.7004 44.9571 58.9052L48.719 60.048C50.2524 60.529 49.7905 60.4957 51.2524 60.0576L55.0143 58.9147C55.6476 58.729 55.6667 58.6433 56.3333 58.8576C56.7524 58.9909 57.1667 59.1147 57.5857 59.2385L60.7143 60.1957C61.6571 60.4766 61.4286 60.4766 62.6524 60.1004L66.4143 58.9576C66.9048 58.8004 67.1952 58.6433 67.7333 58.8099L70.2571 59.5719C70.3714 58.9576 70.6476 58.2242 70.7286 57.4861C70.3286 57.3861 69.8714 57.2195 69.4714 57.0909C69.0476 56.9576 68.6191 56.8195 68.1952 56.6909C67.6238 56.5195 67.4619 56.3623 66.8286 56.5671L62.3524 57.9671C61.3238 58.2861 61.619 58.248 60.3571 57.8623C59.0762 57.4719 57.8048 57.048 56.5286 56.6528C55.8286 56.4385 55.8952 56.3909 55.1667 56.6099C54.3143 56.8671 53.4619 57.1433 52.6095 57.4099C52.1762 57.5433 51.7571 57.6766 51.3286 57.8099C49.7381 58.3004 50.3 58.31 48.7 57.8147L44.8619 56.6147C44.1476 56.3909 44.181 56.4338 43.5 56.6528C43.0714 56.7861 42.6524 56.9242 42.2238 57.0528C41.3667 57.3147 40.5286 57.5861 39.6714 57.8576C39.3476 57.9623 38.6619 58.229 38.319 58.1719C38.1571 58.1433 37.2762 57.848 37.0333 57.7766C36.181 57.5195 35.3238 57.2385 34.4762 56.9766C34.0429 56.8433 33.6286 56.7099 33.2 56.5766C32.5714 56.3766 32.4143 56.5052 31.8333 56.6909C31.3571 56.8433 29.6429 57.4004 29.2762 57.4861L29.2714 57.4814Z" fill="#1E4693"></path><path fill-rule="evenodd" clip-rule="evenodd" d="M30.4333 61.6002C30.6 62.0431 30.8714 62.6335 31.081 63.0716C31.1476 63.2097 31.2762 63.4288 31.319 63.5621C31.5571 63.524 32.1619 63.2954 32.4667 63.2192C32.8238 63.1288 33.3619 63.3573 33.6952 63.4573L38.3095 64.8526C38.6524 64.9145 39.2095 64.6859 39.5333 64.5859L42.9667 63.5335C43.1905 63.4669 43.9619 63.2097 44.1333 63.1954C44.4524 63.1669 45.0429 63.3954 45.3476 63.4859L48.8048 64.5335C50.2143 64.9811 49.819 64.943 51.1571 64.543L54.6143 63.4954C55.9952 63.0859 55.5667 63.0811 56.9952 63.5192L60.4286 64.5669C61.7905 64.9907 61.4524 64.905 62.8095 64.505L66.2667 63.4573C66.5857 63.3621 67.1476 63.1335 67.4952 63.2002C67.8714 63.2764 68.2857 63.4764 68.6571 63.5431C68.8619 63.0859 69.4429 61.9954 69.5524 61.5764C69.1619 61.4573 68.7571 61.3288 68.3619 61.205C67.0571 60.7811 67.3095 60.8669 65.8762 61.324L62.2429 62.4621C61.6238 62.6573 61.619 62.7192 60.9619 62.5145C60.5571 62.3859 60.1571 62.2621 59.7524 62.1335L56.1429 60.9954C55.6524 60.8383 55.3095 61.0288 54.8667 61.1621L51.2333 62.2954C49.7714 62.7621 50.1952 62.7383 48.7714 62.2954L45.1381 61.1621C44.681 61.024 44.3667 60.8383 43.8619 60.9954L39.0429 62.5145C38.3905 62.7145 38.3905 62.6621 37.7619 62.4621C36.9571 62.205 36.1476 61.9669 35.3381 61.705C34.9333 61.5764 34.5381 61.4478 34.1286 61.3288C32.4381 60.824 33.0286 60.7573 31.0381 61.4002C30.8667 61.4573 30.5857 61.524 30.4381 61.5954L30.4333 61.6002Z" fill="#1E4693"></path><path fill-rule="evenodd" clip-rule="evenodd" d="M32.4476 65.4291C32.5381 65.6671 33.6 67.0338 33.7619 67.2148L34.4762 68.0481C34.6191 68.2195 34.6714 68.1862 35.0048 68.2957L37.981 69.2291C38.6048 69.4195 38.6429 69.3386 39.2286 69.1529L42.7905 68.0338C44.2333 67.5814 44 67.491 45.2238 67.8862L48.7762 68.9957C50.1762 69.4338 49.7857 69.4672 51.2048 69.0052L54.7524 67.8957C56.0476 67.4814 55.7762 67.5767 57.1857 68.0243L60.7286 69.1386C61.281 69.3052 61.3905 69.4338 61.9905 69.2386C62.781 68.9862 63.5714 68.7529 64.3619 68.4957L65.2381 68.2195C65.4143 68.1671 65.3857 68.1814 65.481 68.0672C65.7762 67.7148 66.0524 67.4386 66.3857 67.0291L67.0524 66.1529C67.1 66.0814 67.1619 65.991 67.2143 65.9148C67.3 65.791 67.4905 65.5576 67.5381 65.4243C67.081 65.3719 66.7905 65.5243 66.3857 65.6386C66.0238 65.7433 65.6571 65.8576 65.3 65.9672L62.0667 66.9481C61.4667 67.1291 61.481 67.1005 60.9 66.9291C60.181 66.7148 59.4524 66.4957 58.7381 66.2672C58.0286 66.0433 57.3048 65.8195 56.5905 65.61C56.2 65.4957 55.8667 65.3243 55.4333 65.4624C54.0524 65.9005 52.519 66.3529 51.1143 66.7719C49.7714 67.1719 50.219 67.1672 48.8905 66.7719L45.6381 65.7814C45.2857 65.6719 44.9286 65.5672 44.5714 65.4576C44.1429 65.3243 43.7952 65.4862 43.4143 65.6052L39.1048 66.9243C38.5429 67.1005 38.5143 67.1195 37.9381 66.9433L33.619 65.6338C33.2238 65.5148 32.9 65.3529 32.4524 65.4243L32.4476 65.4291Z" fill="#1E4693"></path><path fill-rule="evenodd" clip-rule="evenodd" d="M38.6333 71.5431C38.6619 71.5765 38.6191 71.5384 38.6714 71.5812L39.2286 71.9336C39.4381 72.0574 39.6286 72.1622 39.8333 72.2812C40.2238 72.505 40.6762 72.7336 41.1 72.9336C41.2524 73.005 41.3286 72.9479 41.4857 72.8955L42.5857 72.5574C44.4667 71.9812 43.9048 71.9574 45.5857 72.4622L48.5191 73.3526C48.8238 73.4431 49.7476 73.7717 50.0143 73.7669C50.2619 73.7669 51.2381 73.4336 51.5238 73.3431L54.4524 72.4526C54.8238 72.3431 55.5952 72.0336 55.9857 72.1145C56.2381 72.1717 58.1238 72.7669 58.5571 72.9003C58.7381 72.9574 58.7476 73.0003 58.9191 72.9145C59.2333 72.7622 61.1333 71.786 61.3619 71.5431L57.1381 70.2098C56.8095 70.105 55.9952 69.8003 55.6762 69.8336C55.4952 69.8526 55.1381 69.9812 54.9571 70.0384L52.8381 70.7003C52.4476 70.8288 50.2238 71.5479 49.9952 71.5479C49.7667 71.5479 47.5476 70.8193 47.1429 70.6907C46.6714 70.5384 46.2 70.3955 45.7286 70.2479C44.0095 69.7098 44.5429 69.7003 42.8619 70.2193C42.3905 70.3622 41.9191 70.5098 41.4524 70.6622C40.881 70.8479 39.1286 71.4241 38.6476 71.5384L38.6333 71.5431Z" fill="#1E4693"></path><path fill-rule="evenodd" clip-rule="evenodd" d="M48.5714 38.9524C48.8429 38.8571 49 39.0429 49.0381 39.2714C49.0571 39.3905 49.0619 39.5476 49.0619 39.6714C49.0619 39.7714 49.1048 39.8095 48.819 39.8238C48.2524 39.8476 48.2476 39.3905 48.3571 39.1429C48.4048 39.0286 48.4476 38.9952 48.5714 38.9524ZM47.9762 40.9333C47.9429 41.019 47.9333 41.1429 47.919 41.2429C47.8714 41.5238 47.8619 41.4857 47.9762 41.5048C48.1286 41.5333 48.5095 41.5238 48.6619 41.5C49.0952 41.4238 49.3524 41.1809 49.5238 40.9048C49.8714 40.3476 49.9619 39.0238 49.4952 38.5905C49.2524 38.3714 48.7619 38.2381 48.3333 38.3619C47.9714 38.4667 47.7095 38.7286 47.6 39.0857C47.4667 39.5381 47.6095 39.9809 47.8667 40.1952C48.2952 40.5524 48.619 40.4143 49.0048 40.3476C48.9524 40.6286 48.7143 40.9619 48.3333 40.9476C48.2333 40.9476 48.1048 40.8952 48.0095 40.9143L47.9762 40.9286V40.9333Z" fill="#020203"></path><path fill-rule="evenodd" clip-rule="evenodd" d="M50.5667 39.0667C51.9286 38.6239 51.5143 39.4334 51.4476 39.4905C51.3333 39.5905 51.1333 39.581 50.9429 39.5858V40.1477C51.1619 40.1572 51.4 40.1334 51.5667 40.2477C51.7095 40.3429 51.7429 40.6286 51.6048 40.7667C51.3095 41.0667 50.5476 40.7572 50.4238 40.7763L50.381 41.362C50.6333 41.5477 51.681 41.6477 52.1667 41.2001C52.5286 40.8667 52.6095 40.1191 52.0667 39.881C52 39.8525 51.9333 39.8477 51.8857 39.7953C51.9286 39.7477 52 39.7239 52.0476 39.6905C52.4286 39.4239 52.3667 38.7429 52.0333 38.5191C51.5 38.162 51.0476 38.3191 50.4667 38.4953L50.5619 39.062L50.5667 39.0667Z" fill="#020203"></path><path fill-rule="evenodd" clip-rule="evenodd" d="M53.1524 39.0665C53.3048 39.0379 53.4381 38.9617 53.6333 38.9427C54.3714 38.8617 54.2191 39.3665 54.0762 39.4951C53.9571 39.5998 53.7667 39.5903 53.581 39.5903V40.157C53.8 40.157 54.0333 40.1475 54.1762 40.276C54.3191 40.4046 54.3286 40.6379 54.1905 40.776C53.9286 41.0427 53.3952 40.8427 53.0619 40.7713L53.0191 41.3856C53.6095 41.5903 54.381 41.5665 54.7714 41.2046C54.9381 41.0475 55.081 40.7284 55.0333 40.3903C54.9619 39.9189 54.6333 39.9094 54.5238 39.8046C54.6191 39.7141 54.7143 39.7141 54.8095 39.5903C55.0286 39.3046 55.0048 38.7903 54.6571 38.5189C54.2381 38.1903 53.5524 38.3427 53.0619 38.5094L53.1524 39.0713V39.0665Z" fill="#020203"></path><path fill-rule="evenodd" clip-rule="evenodd" d="M45.1476 39.4906C45.3286 39.4287 45.5429 39.2335 45.7143 39.1811V40.9097H45.0524V41.4764H46.9857V40.9097H46.4191V38.424C46.3238 38.4049 46.0286 38.4049 45.9191 38.4145C45.7286 38.424 45.2381 38.824 44.9524 38.9192L45.1429 39.4906H45.1476Z" fill="#020203"></path><path fill-rule="evenodd" clip-rule="evenodd" d="M63.6571 34.5906V33.0906C63.9762 33.0763 64.6857 33.0573 64.9714 33.1001C65.7857 33.2192 65.8 34.462 65 34.5811C64.7238 34.6239 63.9571 34.6049 63.6571 34.5906ZM63.6571 30.4573C63.9809 30.4382 64.3429 30.4573 64.6714 30.4573C65.0048 30.4573 65.2476 30.5335 65.3857 30.743C65.5857 31.0525 65.5857 31.8668 64.719 31.8668H63.6619V30.462L63.6571 30.4573ZM65.1476 35.9954C65.6333 36.0335 66.1571 35.762 66.4571 35.5144C66.7286 35.2906 66.9095 35.0239 67.0286 34.6716C67.219 34.1001 67.1905 33.2477 66.7524 32.7954C66.6809 32.7192 66.6381 32.6811 66.5476 32.6049C66.4667 32.5335 66.3762 32.4954 66.3095 32.4192C66.5667 32.2811 66.8524 31.943 66.9667 31.5811C67.2048 30.8335 66.9476 29.8525 66.2429 29.3954C65.9905 29.2287 65.4429 29.0192 65.0524 29.0573H62.0619V35.9954H65.1476Z" fill="#1E4693"></path><path fill-rule="evenodd" clip-rule="evenodd" d="M47.2714 30.5049C48.0571 30.4906 48.6857 30.3954 48.7667 31.2192C48.8 31.5383 48.7333 31.9383 48.5524 32.1002C48.2905 32.3287 47.6762 32.2954 47.2714 32.2906V30.5049ZM45.619 36.0097H47.2714V33.7097H48.0286L49.0095 36.0097H50.7L49.4381 33.3811C49.9952 32.9811 50.3095 32.6716 50.4381 31.8383C50.5571 31.0525 50.3857 30.2954 49.9905 29.7954C49.3286 28.9525 48.0333 29.0383 46.8952 29.0383C46.5048 29.0383 45.9905 29.0097 45.619 29.043V36.0049V36.0097Z" fill="#1E4693"></path><path fill-rule="evenodd" clip-rule="evenodd" d="M40.7857 34.5479C40.7667 34.5193 40.7762 34.5479 40.7667 34.5002V33.6193C40.7667 33.3669 40.7286 33.2383 40.8238 33.224H43.1619V31.7812H41.3143C40.7143 31.7812 40.7667 31.8288 40.7667 31.6336V30.705C40.7667 30.6717 40.7667 30.624 40.7667 30.5955C40.7667 30.5669 40.7667 30.5621 40.7762 30.5383L40.7905 30.5098H43.3191L43.8381 29.0479H39.1714V36.0145H43.6V34.5526H40.7905L40.7857 34.5479Z" fill="#1E4693"></path><path fill-rule="evenodd" clip-rule="evenodd" d="M34.181 30.5049C34.5048 30.4906 34.9048 30.4954 35.1952 30.5954C35.4476 30.6811 35.5714 31.0239 35.5905 31.2811C35.6619 32.2954 34.9857 32.3049 34.1857 32.2858V30.5049H34.181ZM32.5286 36.0096H34.1667C34.219 35.8382 34.181 34.0525 34.181 33.7096C34.719 33.6906 35.1095 33.7192 35.6286 33.5954C36.2476 33.443 36.7095 33.1382 37 32.6239C37.481 31.7715 37.3619 30.3334 36.6476 29.6287C36.0429 29.0334 34.9857 29.043 34.1143 29.043C33.619 29.043 33.0238 29.0144 32.5381 29.043L32.5286 36.0096Z" fill="#1E4693"></path><path fill-rule="evenodd" clip-rule="evenodd" d="M52.3143 34.224L52.3048 35.824C52.8905 35.9716 53.3238 36.1145 53.9857 36.1431C54.5952 36.1716 55.219 36.0812 55.7 35.8383C56.1524 35.6097 56.4714 35.2907 56.6571 34.7621C56.8333 34.2574 56.8333 33.5193 56.619 33.0383C56.1571 32.0002 54.9762 31.9764 54.1571 31.4574C53.7429 31.1955 53.5619 30.5336 54.419 30.3812C54.8381 30.305 55.3571 30.4097 55.7524 30.5431C55.8762 30.5859 56.0143 30.6526 56.1286 30.6812L56.6429 29.3145C56.3667 29.224 56.1429 29.1383 55.8476 29.0621C55.5524 28.9859 55.2524 28.9336 54.9381 28.905C54.2857 28.8526 53.6429 28.9669 53.1429 29.2336C52.0238 29.8431 51.8619 31.2383 52.4476 32.1288C52.7 32.5097 53.1095 32.8097 53.6476 33.0288C54.0333 33.1859 54.8524 33.4621 55.0238 33.7764C55.1762 34.0526 55.0714 34.4097 54.881 34.524C54.2476 34.9145 52.8381 34.505 52.3238 34.2193L52.3143 34.224Z" fill="#1E4693"></path><path fill-rule="evenodd" clip-rule="evenodd" d="M58.4286 29.6049V36.0049L60.0762 36.0096V29.043L58.4286 29.6049Z" fill="#1E4693"></path><path fill-rule="evenodd" clip-rule="evenodd" d="M65.1476 35.9954H62.0619V29.0525H65.0524C65.0524 29.0525 62.3095 29.0049 62.0571 29.0382C62.0191 29.1573 62.0238 35.9096 62.0571 36.0144C62.3095 36.0477 65.1095 36.0287 65.1476 35.9954Z" fill="#1E4693"></path><path fill-rule="evenodd" clip-rule="evenodd" d="M40.7857 34.5479V33.2479C41.0905 33.2574 43.019 33.2812 43.1762 33.2336L43.1857 31.7764C43.0619 31.7383 41.0476 31.7479 40.7857 31.7621V30.5098L40.7714 30.5383C40.7667 30.5621 40.7667 30.5669 40.7619 30.5955C40.7619 30.6241 40.7619 30.6764 40.7619 30.705V31.6336C40.7619 31.8288 40.7095 31.7812 41.3095 31.7812H43.1571V33.2288H40.819C40.7238 33.2431 40.7619 33.3717 40.7619 33.6241V34.505C40.7714 34.5526 40.7619 34.5241 40.7857 34.5526V34.5479Z" fill="#1E4693"></path><path fill-rule="evenodd" clip-rule="evenodd" d="M28.0714 54.886C28.2095 58.5622 29.1524 61.8003 30.7714 64.6527C32.3952 67.5051 34.7048 69.9717 37.581 72.1051C41.0333 74.4574 44.9905 75.7336 48.9952 75.9098C53.0095 76.0908 57.0714 75.1717 60.7381 73.1384C63.6714 71.5146 66.1571 69.2241 68.0381 66.5146C69.9238 63.7955 71.2 60.6622 71.6952 57.3574C71.9524 55.6574 71.9476 54.0193 71.9429 52.3051C71.9429 51.7574 71.9429 52.0098 71.9429 51.6098V30.4384C71.9429 30.4051 71.9429 30.1289 71.9476 29.8622C71.9619 28.2193 71.9762 27.0051 70.3952 26.6765C63.6429 25.2622 56.5238 24.5051 49.4095 24.5146C42.619 24.5241 35.8333 25.2289 29.3905 26.7241C28.8333 26.8527 28.5048 27.1051 28.3238 27.4717C28.119 27.886 28.0619 28.4717 28.0619 29.2098V51.8812C28.0619 51.9146 28.0619 52.3241 28.0571 52.7289C28.0524 53.4479 28.0476 54.1765 28.0762 54.8908L28.0714 54.886ZM30.0333 65.0717C28.3429 62.1051 27.3667 58.7336 27.219 54.9146C27.1905 54.1955 27.1952 53.4527 27.2 52.7193C27.2 52.5574 27.2 52.4003 27.2 51.8765V29.2051C27.2 28.3479 27.2762 27.6479 27.5524 27.0908C27.8524 26.486 28.3571 26.086 29.1905 25.8908C35.6905 24.3812 42.5429 23.6717 49.4 23.6622C56.5762 23.6527 63.7571 24.4146 70.5619 25.8384C72.8238 26.3146 72.8095 27.8241 72.7905 29.867C72.7905 29.9717 72.7905 30.0812 72.7905 30.4384V51.6098C72.7905 52.4765 72.7905 52.2193 72.7905 52.3051C72.7905 54.0622 72.8 55.7384 72.5381 57.4812C72.0238 60.9146 70.7 64.1765 68.7381 67.0003C66.7857 69.8146 64.1952 72.1955 61.1476 73.886C57.3429 75.9955 53.1238 76.9479 48.9571 76.7622C44.7952 76.5765 40.6905 75.2527 37.1 72.8098L37.0857 72.8003C34.1048 70.5955 31.7143 68.0384 30.0286 65.0765L30.0333 65.0717Z" fill="#020203"></path><path d="M30.7095 11.3384L31.1143 12.0717L28.9 13.2955L29.2476 13.9289L31.2143 12.8431L31.6143 13.5717L29.6476 14.6574L30.1333 15.5336L29.2714 16.0098L27.6333 13.0431L30.7095 11.3431V11.3384Z" fill="white"></path><path d="M36.3 12.6237L35.7619 12.1523L33.8286 12.938L33.7714 13.6523L32.7905 14.0523L33.1333 10.2571L34.3905 9.74756L37.281 12.2285L36.3048 12.6237H36.3ZM33.8952 12.1142L35.1333 11.6095L34.0143 10.6333L33.8952 12.1142Z" fill="white"></path><path d="M41.3476 10.1764L40.7619 7.81927L41.7095 7.58594L42.5238 10.8764L41.1286 11.224L38.6048 9.34784L39.1905 11.705L38.2381 11.9431L37.4238 8.6526L38.8238 8.30499L41.3476 10.1812V10.1764Z" fill="white"></path><path d="M46.119 6.96208L50.2 6.79541L50.2333 7.62874L48.6857 7.69065L48.7905 10.243L47.8095 10.2811L47.7048 7.72874L46.1524 7.79065L46.119 6.95731V6.96208Z" fill="white"></path><path d="M51.3905 8.49526C51.4857 7.37622 52.3143 6.78098 53.7381 6.90479C55.1571 7.0286 55.8762 7.75717 55.7809 8.87145C55.6857 9.9905 54.8524 10.5953 53.4333 10.4715C52.0095 10.3476 51.2952 9.61907 51.3905 8.49526ZM54.7571 8.78574C54.8095 8.20003 54.5048 7.80955 53.6667 7.73812C52.8333 7.66669 52.4667 7.9905 52.419 8.58574C52.3667 9.18098 52.6762 9.57145 53.5048 9.64288C54.3381 9.71431 54.7095 9.38098 54.7619 8.7905L54.7571 8.78574Z" fill="white"></path><path d="M61.6238 8.36681L59.6333 9.38109L60.881 11.6763L59.6762 11.4049L58.8095 9.8049L57.8619 10.2859L57.7095 10.9573L56.7524 10.7382L57.5 7.42871L58.4619 7.643L58.1286 9.12871L60.1952 8.03823L61.6333 8.36204L61.6238 8.36681Z" fill="white"></path><path d="M66.3286 9.99553L66.0667 10.7193L63.6857 9.85744L63.5 10.367L65.7905 11.1955L65.5286 11.9193L63.2381 11.0908L63.0524 11.6003L65.4333 12.4622L65.1714 13.186L61.8667 11.9908L63.019 8.80029L66.3238 9.99553H66.3286Z" fill="white"></path><path d="M69.7619 14.3526L70.8762 12.1907L71.7476 12.6383L70.1905 15.6526L68.9095 14.9907L68.2476 11.9097L67.1333 14.0716L66.2571 13.6193L67.8143 10.605L69.1 11.2669L69.7619 14.3478V14.3526Z" fill="white"></path><path d="M27.3952 85.4763C27.2476 85.7192 27.3952 86.0239 28.1571 86.4858C28.8571 86.9049 29.0952 86.9001 29.2048 86.7192C29.3333 86.5097 29.2238 86.3906 28.3952 85.8144C27.2667 85.024 26.8905 84.4763 27.2762 83.8335C27.6429 83.2287 28.4619 83.3478 29.4667 83.9525C30.5857 84.6239 31.0238 85.3525 30.6619 86.0144L29.781 85.4859C29.9333 85.2287 29.7143 84.962 29.0619 84.5716C28.4429 84.2001 28.2429 84.2192 28.1476 84.3763C28.0381 84.5573 28.1476 84.6954 28.8952 85.2335C29.9143 85.9573 30.5619 86.4478 30.1048 87.2097C29.6571 87.9525 28.8381 87.7573 27.8048 87.1335C26.6286 86.4239 26.0905 85.7382 26.5095 84.9478L27.3905 85.4811L27.3952 85.4763Z" fill="white"></path><path d="M31.5238 87.1909C31.9714 86.1576 32.9429 85.8623 34.2571 86.429C35.5667 86.9957 36.0143 87.9147 35.5714 88.9433C35.1238 89.9766 34.1429 90.2814 32.8333 89.7147C31.519 89.148 31.0762 88.229 31.5238 87.1909ZM34.6286 88.5385C34.8619 87.9957 34.6952 87.5338 33.9238 87.1957C33.1571 86.8623 32.7048 87.0576 32.4714 87.6004C32.2333 88.1481 32.4048 88.6147 33.1667 88.948C33.9333 89.2814 34.3952 89.0814 34.6286 88.5338V88.5385Z" fill="white"></path><path d="M39.2952 88.2146C40.4952 88.5527 41.0333 89.2574 40.8952 90.1241L39.8905 89.8431C39.9095 89.5241 39.6762 89.186 39.0714 89.0193C38.3714 88.8241 37.9381 89.0717 37.7762 89.6431C37.6143 90.2193 37.8619 90.6622 38.5571 90.8574C39.1619 91.0241 39.5381 90.8574 39.6857 90.5669L40.6905 90.8479C40.3571 91.6669 39.5333 91.9955 38.3286 91.6622C37.019 91.2955 36.4714 90.486 36.781 89.3669C37.0952 88.2527 37.981 87.8479 39.2905 88.2146H39.2952Z" fill="white"></path><path d="M43.3952 89.2289L42.7952 92.5623L41.8286 92.3861L42.4286 89.0527L43.3952 89.2289Z" fill="white"></path><path d="M44.419 91.1481C44.5095 90.029 45.3333 89.4338 46.7571 89.5481C48.1762 89.6624 48.9 90.3909 48.8048 91.5052C48.7143 92.6243 47.8857 93.229 46.4619 93.1147C45.0381 93.0005 44.319 92.2719 44.4143 91.1481H44.419ZM47.7857 91.4243C47.8333 90.8386 47.5286 90.4528 46.6905 90.3814C45.8571 90.3148 45.4952 90.6433 45.4429 91.2338C45.3952 91.829 45.7048 92.2148 46.5333 92.2862C47.3667 92.3528 47.7381 92.0195 47.7857 91.4243Z" fill="white"></path><path d="M51.119 92.048C51.1333 92.3337 51.4238 92.5051 52.3143 92.4575C53.1286 92.4146 53.3238 92.2766 53.3095 92.0623C53.2952 91.8146 53.1429 91.7813 52.1333 91.767C50.7571 91.7432 50.1333 91.5004 50.0952 90.748C50.0571 90.0432 50.8048 89.6813 51.9762 89.6242C53.281 89.5575 54.0524 89.9099 54.1191 90.6623L53.0952 90.7146C53.081 90.4146 52.7476 90.3194 51.9857 90.3575C51.2667 90.3956 51.1095 90.5242 51.119 90.7051C51.1286 90.9146 51.2952 90.9718 52.2191 91.0004C53.4667 91.0289 54.281 91.0718 54.3286 91.9623C54.3714 92.8289 53.5857 93.1242 52.381 93.1861C51.0095 93.2575 50.1762 92.9861 50.0857 92.0956L51.1143 92.0432L51.119 92.048Z" fill="white"></path><path d="M55.7429 92.0429L56.681 91.9048L56.7857 92.6334L55.8476 92.7715L55.7381 92.0429H55.7429Z" fill="white"></path><path d="M59.481 88.5338C60.6952 88.2386 61.5095 88.5909 61.8143 89.4148L60.8 89.6624C60.6619 89.3719 60.2905 89.1957 59.681 89.3433C58.9762 89.5148 58.7191 89.9433 58.8571 90.5243C59 91.1052 59.4333 91.3719 60.1333 91.2005C60.7429 91.0528 60.9905 90.7195 60.9762 90.3909L61.9905 90.1433C62.1 91.0195 61.5429 91.7148 60.3286 92.01C59.0048 92.3338 58.1286 91.8957 57.8524 90.7671C57.5762 89.6433 58.1524 88.8576 59.4762 88.5338H59.481Z" fill="white"></path><path d="M63.1524 89.3907C62.7381 88.3431 63.219 87.4431 64.5476 86.9193C65.8714 86.3955 66.8429 86.7288 67.2524 87.7717C67.6667 88.8193 67.1857 89.7288 65.8619 90.2526C64.5333 90.7764 63.5667 90.4431 63.1524 89.3907ZM66.3 88.1478C66.0857 87.6002 65.6381 87.3859 64.8571 87.6955C64.081 88.0002 63.8952 88.4574 64.1143 89.0097C64.3333 89.5669 64.7857 89.7764 65.5571 89.4717C66.3333 89.1669 66.519 88.7002 66.3 88.1478Z" fill="white"></path><path d="M69.3381 88.6907L67.6333 85.7574L68.9571 84.986L71.1095 86.3383L70.9952 83.8002L72.319 83.0288L74.0238 85.9621L73.1762 86.4526L71.9429 84.3288L72.0762 87.0955L71.2905 87.5526L68.9524 86.0717L70.1905 88.1955L69.3381 88.6907Z" fill="white"></path><path d="M23.019 81.8382C13.9952 74.1811 8.26667 62.7573 8.26667 50.0001C8.26667 37.243 14.3 25.2144 23.7381 17.562" stroke="#FBED21" stroke-miterlimit="10"></path><path d="M76.2667 17.5669C85.7048 25.2193 91.7333 36.905 91.7333 50.0002C91.7333 63.0955 86.0048 74.1859 76.981 81.8431" stroke="#FBED21" stroke-miterlimit="10"></path></g><defs><clipPath id="clip0_101_22121"><rect width="100" height="100" fill="white"></rect></clipPath></defs></svg>