<svg xmlns="http://www.w3.org/2000/svg" width="100" height="100" viewBox="0 0 100 100" fill="none"><g clip-path="url(#clip0_101_22094)"><path d="M50 100C77.6142 100 100 77.6142 100 50C100 22.3858 77.6142 0 50 0C22.3858 0 0 22.3858 0 50C0 77.6142 22.3858 100 50 100Z" fill="#005596"></path><path d="M50 2.53333C76.1714 2.53333 97.4667 23.8286 97.4667 50C97.4667 76.1714 76.1714 97.4667 50 97.4667C23.8286 97.4667 2.53333 76.1714 2.53333 50C2.53333 23.8286 23.8286 2.53333 50 2.53333ZM50 0C22.3857 0 0 22.3857 0 50C0 77.6143 22.3857 100 50 100C77.6143 100 100 77.6143 100 50C100 22.3857 77.6143 0 50 0Z" fill="#EF3E42"></path><path d="M50.0238 30.3619C39.1238 30.3619 30.2572 39.2238 30.2572 50.1095C30.2572 60.9952 39.1238 69.8571 50.0238 69.8571C60.9238 69.8571 69.7905 61 69.7905 50.1095C69.7905 39.219 60.9191 30.3619 50.0238 30.3619ZM33.5476 58.3857C32.2905 55.8952 31.581 53.0905 31.581 50.1095C31.581 40.819 38.4667 33.1333 47.4191 31.8714C46.6095 43.7095 41.6714 52.2952 33.5429 58.3857H33.5476ZM56.6381 67.3048C54.5857 68.0952 52.3524 68.5333 50.0238 68.5333C47.6952 68.5333 45.4619 68.1 43.4048 67.3048C42.6572 66.1714 42.2191 64.8286 42.2191 63.3857C42.2191 59.3 45.7143 55.9809 50.0191 55.9809C54.3238 55.9809 57.8238 59.3 57.8238 63.3857C57.8238 64.8238 57.3905 66.1667 56.6381 67.3048ZM66.5 58.3857C58.3762 52.2952 53.4381 43.7143 52.6238 31.8714C61.5762 33.1381 68.4619 40.819 68.4619 50.1095C68.4619 53.0905 67.7524 55.8952 66.4953 58.3857H66.5ZM73.7048 26.3238C67.3714 20.0048 58.9524 16.519 49.9952 16.519C41.0381 16.519 32.6238 20 26.2905 26.3238C19.9571 32.6476 16.4714 41.0619 16.4714 50.0048C16.4714 58.9476 19.9571 67.3571 26.2905 73.6857C32.6238 80.0095 41.0429 83.4857 49.9952 83.4857C58.9476 83.4857 67.3667 80.0143 73.7048 73.6857C80.0333 67.3571 83.5238 58.9476 83.5238 50.0048C83.5238 41.0619 80.0381 32.6524 73.7048 26.3238ZM49.9952 82.1619C32.2143 82.1619 17.8048 67.7333 17.8048 49.9333C17.8048 32.1333 32.2191 17.7143 50 17.7143C67.781 17.7143 82.1953 32.1381 82.1953 49.9333C82.1953 67.7286 67.781 82.1619 50 82.1619H49.9952Z" fill="white"></path><path d="M65.5095 60.281C64.0238 62.5429 62.0572 64.4571 59.7572 65.881C59.8476 65.3905 59.8905 64.8857 59.8905 64.3762C59.8905 59.2571 55.4524 55.1048 49.9762 55.1048C44.5 55.1048 40.0572 59.2571 40.0572 64.3762C40.0572 64.8905 40.1048 65.3905 40.1857 65.881C37.8857 64.4524 35.9191 62.5333 34.4286 60.2762C37.8714 57.5 40.8095 54.2333 43.0905 50.4524H56.8333C59.1143 54.2381 62.0619 57.5 65.5 60.281H65.5095ZM51.6667 31.581C51.1095 31.5286 50.5476 31.5 49.9762 31.5C49.4048 31.5 48.8334 31.5333 48.2714 31.581C48.1429 38.619 46.4238 44.6333 43.5191 49.7333H56.4143C53.5095 44.6333 51.7905 38.619 51.6619 31.581H51.6667Z" fill="#EF3E42"></path><path d="M50.6333 65.6905C50.4142 65.5572 50.2476 65.3429 50.1904 65.0905C50.1666 64.9953 50.0762 64.9238 49.9714 64.9238C49.8666 64.9238 49.7762 64.9905 49.7523 65.0905C49.6904 65.3429 49.5238 65.5572 49.3095 65.6905C49.2666 65.7143 49.2619 65.7334 49.2809 65.7619C49.4142 66.0238 49.6333 66.3476 49.9095 66.5667C49.9476 66.6 49.9619 66.6 49.9714 66.6C49.9762 66.6 49.9904 66.6 50.0285 66.5667C50.3047 66.3476 50.5238 66.0238 50.6571 65.7619C50.6714 65.7286 50.6666 65.7095 50.6285 65.6905H50.6333Z" fill="#D0B15E"></path><path d="M51.2666 61.5236C51.2666 60.7617 50.2761 58.395 49.9761 58.395C49.9523 58.395 49.9285 58.4093 49.9 58.4331C49.5381 58.7236 48.6857 60.8236 48.6857 61.5284C48.6857 62.0903 49.8285 63.5855 49.8285 64.3998C49.8285 64.4807 49.8952 64.5522 49.9809 64.5522C50.0666 64.5522 50.1285 64.4855 50.1285 64.3998C50.1285 63.5855 51.2714 62.095 51.2714 61.5284L51.2666 61.5236Z" fill="#D0B15E"></path><path d="M49.3285 64.3238C48.7905 62.9047 47.8619 62.1333 46.9047 62.1333C46.1762 62.1333 45.5857 62.7238 45.5857 63.4524C45.5857 64.1809 46.1762 64.7714 46.9047 64.7714C47.119 64.7714 47.3476 64.6666 47.4571 64.5428C47.6476 64.3238 47.6095 64.1143 47.5905 64.0666C47.5714 64.0143 47.5238 64.0285 47.5047 64.0285C47.4857 64.0333 47.4476 64.0381 47.4285 64.0381C47.1857 64.0381 46.9857 63.8381 46.9857 63.5952C46.9857 63.3524 47.1857 63.1571 47.4285 63.1571C47.8571 63.1571 48.6238 63.5762 49.0333 64.4619C49.0333 64.4619 49.0333 64.4714 49.0333 64.4762C49.0619 64.5285 49.119 64.5619 49.1809 64.5619C49.2666 64.5571 49.3428 64.4857 49.3428 64.3952C49.3428 64.3666 49.3381 64.3428 49.3285 64.3285V64.3238Z" fill="#D0B15E"></path><path d="M53 62.1283C52.0381 62.1283 51.1143 62.8997 50.5762 64.3188C50.5667 64.3378 50.5619 64.3616 50.5619 64.3854C50.5619 64.4712 50.6286 64.5473 50.7238 64.5521C50.7857 64.5521 50.8428 64.514 50.8714 64.4664V64.4569C51.2857 63.5664 52.0476 63.1473 52.4762 63.1473C52.719 63.1473 52.9143 63.3426 52.9143 63.5854C52.9143 63.8283 52.719 64.0283 52.4762 64.0283C52.4524 64.0283 52.419 64.0283 52.3952 64.0188C52.3762 64.0188 52.3286 64.0045 52.3095 64.0569C52.2905 64.1045 52.2524 64.314 52.4428 64.5331C52.5524 64.6569 52.7809 64.7616 52.9952 64.7616C53.7238 64.7616 54.3143 64.1711 54.3143 63.4426C54.3143 62.714 53.7238 62.1235 52.9952 62.1235L53 62.1283Z" fill="#D0B15E"></path><path opacity="0.7" d="M47.5905 64.0621C47.5905 64.0621 47.6 64.0906 47.6047 64.1144C47.6047 64.1382 47.5952 64.1621 47.5905 64.1811C47.5666 64.1335 47.519 64.143 47.5047 64.1478C47.4857 64.1478 47.4476 64.1525 47.4286 64.1525C47.1857 64.1525 46.9857 63.9573 46.9857 63.7144C46.9857 63.6906 46.9857 63.6716 46.9905 63.6525C47.019 63.8668 47.2047 64.0382 47.4286 64.0382C47.4476 64.0382 47.4905 64.0382 47.5047 64.0287C47.5238 64.0287 47.5714 64.0144 47.5905 64.0668V64.0621ZM53 62.1287C52.0381 62.1287 51.1143 62.9002 50.5762 64.3192C50.5762 64.3192 50.5762 64.3192 50.5714 64.3287C50.5666 64.3478 50.5619 64.3668 50.5619 64.3859C50.5619 64.4049 50.5619 64.4287 50.5714 64.443C50.5714 64.443 50.5714 64.443 50.5714 64.4335C50.5809 64.4097 50.5905 64.3906 50.6 64.3716C51.1381 63.0001 52.0524 62.243 53 62.243C53.6857 62.243 54.2476 62.7668 54.3095 63.443C54.3095 63.424 54.3095 63.4001 54.3095 63.3859C54.3095 63.4049 54.3143 63.424 54.3143 63.443C54.3143 62.7144 53.7238 62.124 52.9952 62.124L53 62.1287ZM52.4762 64.0335C52.4762 64.0335 52.419 64.0335 52.3952 64.024C52.3762 64.024 52.3286 64.0097 52.3095 64.0621C52.3095 64.0763 52.3 64.0954 52.2952 64.1144C52.2952 64.1144 52.2952 64.1335 52.2952 64.143V64.1859C52.2952 64.1859 52.2952 64.2144 52.2952 64.2287V64.2382C52.2952 64.2382 52.3047 64.2001 52.3095 64.1906C52.3333 64.1382 52.3762 64.1478 52.3952 64.1525C52.4143 64.1525 52.4524 64.1573 52.4762 64.1573C52.719 64.1573 52.9143 63.9621 52.9143 63.7192C52.9143 63.6954 52.9143 63.6763 52.9143 63.6573C52.8857 63.8716 52.7 64.043 52.4809 64.043L52.4762 64.0335ZM48.6762 61.4382V61.5192C48.6762 61.5192 48.6762 61.5382 48.6762 61.5573C48.6762 61.5335 48.6762 61.5049 48.6809 61.4906C48.7762 60.6763 49.5476 58.8192 49.8857 58.5478C49.9143 58.524 49.9428 58.5097 49.9619 58.5097C50.2381 58.5097 51.1333 60.5954 51.2381 61.4811C51.2381 61.4668 51.2476 61.4478 51.2476 61.4335C51.1809 60.6001 50.2476 58.3906 49.9619 58.3906C49.9381 58.3906 49.9143 58.4049 49.8857 58.4287C49.5238 58.7192 48.6714 60.8192 48.6714 61.524V61.4382H48.6762ZM49.3238 64.3335C48.7905 62.9192 47.8571 62.1335 46.9 62.1335C46.1714 62.1335 45.5809 62.724 45.5809 63.4525V63.3954V63.5144C45.5809 63.5144 45.5857 63.4716 45.5905 63.4525C45.6524 62.7811 46.2143 62.2525 46.9 62.2525C47.8476 62.2525 48.7571 63.0097 49.3 64.3811C49.3143 64.3668 49.3238 64.3525 49.3285 64.3335H49.3238ZM50.6619 65.7287C50.6619 65.7287 50.6619 65.7192 50.6619 65.7144C50.6571 65.7144 50.6524 65.7097 50.6476 65.7049C50.6428 65.7001 50.6428 65.7001 50.6381 65.7001C50.419 65.5621 50.2524 65.3478 50.1952 65.0954C50.1714 65.0001 50.0809 64.9287 49.9762 64.9287C49.8714 64.9287 49.7809 64.9954 49.7571 65.0954C49.6952 65.3478 49.5285 65.5621 49.3143 65.7001C49.3095 65.7001 49.3047 65.7001 49.3047 65.7049C49.3047 65.7049 49.2952 65.7049 49.2905 65.7144C49.2905 65.7192 49.2857 65.724 49.2809 65.7287C49.2809 65.7335 49.2809 65.7382 49.2809 65.7382L49.3666 65.7716C49.5571 65.6382 49.7047 65.4478 49.7619 65.2097C49.7857 65.1144 49.8762 65.043 49.9809 65.043C50.0857 65.043 50.1714 65.1097 50.2 65.2097C50.2524 65.4478 50.4047 65.6382 50.5905 65.7716L50.6714 65.7382C50.6714 65.7382 50.6714 65.7382 50.6714 65.7287H50.6619Z" fill="url(#paint0_linear_101_22094)"></path><path opacity="0.7" d="M52.4809 63.1522C52.0524 63.1522 51.2857 63.5712 50.8762 64.4569C50.8762 64.4569 50.8762 64.4664 50.8762 64.4712C50.8476 64.5236 50.7952 64.5569 50.7285 64.5569C50.6571 64.5522 50.6047 64.5093 50.5762 64.4522C50.5857 64.4236 50.6047 64.395 50.6047 64.3807C50.6333 64.4188 50.6762 64.4379 50.7285 64.4379C50.7905 64.4379 50.8476 64.4045 50.8762 64.3522C50.8762 64.3522 50.8762 64.3522 50.8762 64.3426C51.2905 63.4569 52.0524 63.0426 52.4809 63.0426C52.7238 63.0426 52.919 63.2331 52.919 63.4855C52.919 63.5045 52.919 63.5236 52.919 63.5426C52.8905 63.3283 52.7047 63.1617 52.4857 63.1617L52.4809 63.1522ZM47.6047 64.1141C47.6047 64.1141 47.6 64.1617 47.5905 64.1807C47.5714 64.2522 47.5333 64.3331 47.4571 64.4188C47.3476 64.5426 47.119 64.6474 46.9047 64.6474C46.219 64.6474 45.6571 64.1236 45.5952 63.4474C45.5952 63.4664 45.5952 63.4902 45.5857 63.5093V63.4474C45.5857 64.176 46.1762 64.7664 46.9047 64.7664C47.119 64.7664 47.3476 64.6617 47.4571 64.5379C47.5524 64.4283 47.5905 64.3188 47.6047 64.2331C47.6047 64.2331 47.6047 64.1998 47.6047 64.1807V64.1569C47.6047 64.1569 47.6047 64.1474 47.6047 64.1379V64.1093V64.1141ZM54.3143 63.3902C54.3143 63.3902 54.3143 63.4331 54.3143 63.4474C54.2524 64.1188 53.6905 64.6474 53.0047 64.6474C52.7905 64.6474 52.5619 64.5426 52.4524 64.4188C52.3809 64.3331 52.3381 64.2522 52.319 64.1807C52.319 64.1807 52.3095 64.2093 52.3047 64.2331C52.319 64.3188 52.3524 64.4283 52.4524 64.5379C52.5619 64.6617 52.7905 64.7664 53.0047 64.7664C53.7285 64.7664 54.319 64.1807 54.3238 63.4569V63.4474C54.3238 63.4474 54.319 63.4045 54.319 63.3902H54.3143ZM49.8238 64.3903C49.8238 64.4712 49.8905 64.5426 49.9762 64.5426C50.0619 64.5426 50.1238 64.476 50.1238 64.3903C50.1238 63.5903 51.219 62.1426 51.2619 61.5522C51.2619 61.5379 51.2619 61.5283 51.2619 61.5188C51.2619 61.4903 51.2619 61.4617 51.2619 61.4331C51.2619 61.4474 51.2571 61.4664 51.2524 61.4807C51.1714 62.095 50.1286 63.4903 50.1238 64.2664C50.1238 64.3522 50.0571 64.4236 49.9762 64.4236C49.8905 64.4236 49.8238 64.3569 49.8238 64.2712C49.8238 63.495 48.7809 62.0998 48.6905 61.4903C48.6905 61.5093 48.6857 61.5379 48.6809 61.5569V61.5188C48.6809 62.0807 49.8238 63.576 49.8238 64.3903ZM50.5857 65.7712C50.4524 66.0045 50.2666 66.2664 50.0381 66.4474C49.9952 66.4807 49.9857 66.4807 49.9809 66.4807C49.9714 66.4807 49.9524 66.4807 49.919 66.4474C49.6905 66.2664 49.5047 66.0045 49.3666 65.7712L49.2809 65.7379C49.2809 65.7379 49.2857 65.7522 49.2905 65.7617C49.2952 65.776 49.3095 65.795 49.319 65.8141C49.4524 66.0664 49.6619 66.3617 49.919 66.5712C49.9571 66.6045 49.9714 66.6045 49.9809 66.6045C49.9857 66.6045 50 66.6045 50.0381 66.5712C50.2952 66.3664 50.5 66.0664 50.6381 65.8141C50.6381 65.8141 50.6571 65.776 50.6666 65.7617C50.6666 65.7522 50.6666 65.7426 50.6666 65.7379L50.5857 65.7712ZM49.3381 64.4188C49.3381 64.4188 49.3381 64.4188 49.3381 64.4093C49.3381 64.3998 49.3381 64.3903 49.3381 64.3855C49.3381 64.3617 49.3333 64.3426 49.3285 64.3283C49.3238 64.3474 49.3143 64.3617 49.3 64.376L49.3285 64.4474C49.3285 64.4474 49.3285 64.4331 49.3333 64.4236L49.3381 64.4188ZM49.3285 64.4426L49.3 64.3712C49.2666 64.4093 49.2285 64.4283 49.1809 64.4283C49.119 64.4283 49.0619 64.395 49.0333 64.3426C49.0333 64.3426 49.0333 64.3395 49.0333 64.3331C48.619 63.4474 47.8571 63.0283 47.4285 63.0283C47.1857 63.0283 46.9857 63.2188 46.9857 63.4712C46.9857 63.4902 46.9857 63.5093 46.9905 63.5283C47.019 63.3141 47.2047 63.1474 47.4285 63.1474C47.8571 63.1474 48.6238 63.5664 49.0333 64.4522C49.0333 64.4522 49.0333 64.4617 49.0333 64.4664C49.0619 64.5188 49.119 64.5522 49.1809 64.5522C49.2476 64.5474 49.3 64.5093 49.3285 64.4474V64.4426Z" fill="#897439"></path><path d="M31.0048 25.8761L27.5238 29.7047L33.5857 35.2333C33.9667 34.819 34.3667 34.419 34.7762 34.0333L32.8857 32.3095L35.2286 29.7237C36.2905 28.5618 36.2905 26.6904 35.1286 25.6285C33.9619 24.5666 32.0619 24.7142 31.0048 25.8761ZM34.0667 28.8142L31.7905 31.3142L29.7524 29.4571L32.0286 26.9618C32.5381 26.3952 33.4143 26.3523 33.9762 26.8666C34.5381 27.3809 34.5762 28.2571 34.0619 28.8142H34.0667ZM39.0143 21.8047L38.3905 31.2761C38.9524 30.9333 39.5286 30.619 40.119 30.3237L40.2095 28.1142C41.3524 27.6095 42.5429 27.1952 43.7714 26.8714L45.2286 28.5428C45.8667 28.4047 46.5143 28.2952 47.1762 28.2142L40.7714 21.1856C40.1762 21.3761 39.5905 21.5856 39.0143 21.8142V21.8047ZM40.2714 26.5904L40.4143 23.0142L42.7667 25.7095C41.9143 25.9618 41.0809 26.2523 40.2714 26.5904ZM56.0619 22.6428C56.0619 21.0666 54.5714 19.7856 52.9905 19.7856H48.1952V28.0999C48.7571 28.0523 49.3143 28.0285 49.8857 28.0285V25.5047H52.0048L53.8286 28.3904C54.5524 28.5237 55.2619 28.6904 55.9619 28.8856L53.7762 25.3999C55.0286 25.0666 56.0619 23.9571 56.0619 22.6428ZM52.9905 24.0237H49.8857V21.2666H52.9905C53.7524 21.2666 54.3714 21.8856 54.3714 22.6428C54.3714 23.3999 53.7524 24.0237 52.9905 24.0237ZM66.6381 28.6047L67.4571 29.4666C69.4238 31.538 69.8809 33.2333 68.6286 34.3952C68.1286 34.8618 67.3667 34.9761 66.6 34.8237C65.6286 34.6333 64.5428 33.9475 63.5476 32.8999C62.6619 31.9714 62.0143 30.8761 61.7238 30.1237L62.9428 29.2095C64.3 32.0809 66.5524 33.7476 67.3619 33.0856C68.119 32.4571 67.2952 31.4714 66.3524 30.4761L65.4286 29.4999C64.4762 28.4999 63.8571 26.9142 64.9476 25.8856C66.7857 24.1523 70.6571 26.919 71.6333 29.6856C71.6333 29.6856 70.819 30.2856 70.4524 30.5666C70.0143 29.0142 67.7143 26.7333 66.4619 27.0285C66.1095 27.1095 65.7429 27.6523 66.6476 28.6095L66.6381 28.6047ZM62.3476 22.3475L59.1381 30.0666C58.6095 29.8237 58.0809 29.6047 57.5333 29.3999L60.7428 21.6904C61.2857 21.8952 61.819 22.1095 62.3428 22.3475H62.3476Z" fill="white"></path><path d="M33.9715 68.4857L30.8239 69.981L31.1762 70.2905L31.2381 70.2714H31.2429L32.2715 69.7667L33.3905 70.7143L33.0381 71.8095L33.0477 71.8191L33.0381 71.8476L33.3762 72.0857L33.3858 72.0524H33.3905L34.3619 68.8238L33.9667 68.481L33.9715 68.4857ZM32.7477 69.6048L33.8524 69.0238L33.4905 70.2381L32.7477 69.6048Z" fill="#ADBBD0"></path><path d="M36.4953 70.4097L36.0905 70.1431V70.1478L36.0858 70.1431L34.3239 72.824L34.7239 73.0716L34.7381 73.0478L34.7429 73.0526L36.4953 70.4097Z" fill="#ADBBD0"></path><path d="M39.481 72.1237L38.3762 74.2332L37.8333 71.2618L37.4619 71.0618L37.4381 71.0522V71.057L37.4333 71.0522L35.9619 73.857L36.2952 74.0427L36.3381 74.057L36.3476 74.0189L36.3524 74.0094L36.3667 74.0189H36.3714L36.381 73.9999H36.3857H36.3952L37.5 71.8903L38.0524 74.7808L38.4429 74.9618V74.957L38.4476 74.9618L38.4524 74.9522L38.4619 74.957H38.4667H38.4714L38.481 74.938H38.4905H38.4952L39.9048 72.3522L39.481 72.1237Z" fill="#ADBBD0"></path><path d="M40.7572 72.7095L40.6096 73.1523L41.6905 73.5L40.7857 76.0095L40.7953 76.0142L40.7857 76.0428L41.1524 76.1476L41.1667 76.1095L41.1762 76.1142H41.181L42.0334 73.6285L43.081 73.9761H43.0858L43.0953 73.9476L43.1 73.9523H43.1048L43.2477 73.5714L40.7572 72.7095Z" fill="#ADBBD0"></path><path d="M55.3905 76.6526L55.3857 76.6431H55.3619H55.3524L53.2334 76.9479L53.0905 76.0383L54.1334 75.886L54.1286 75.8574L54.1476 75.8526L54.081 75.4145L54.0572 75.4193V75.4145L54.0524 75.4193V75.4145L53.0238 75.5574L52.9095 74.786L54.9762 74.4907L54.9715 74.4574H54.9953L54.9286 74.0098H54.9238H54.9048H54.9H54.8953L52.4095 74.3717L52.8524 77.4574H52.8572L52.8619 77.4955L55.4334 77.1193L55.4286 77.086H55.4524L55.3905 76.6526Z" fill="#ADBBD0"></path><path d="M66.5667 70.986L64.4715 69.7241L64.0429 70.0146L64.7191 73.4146L65.1001 73.1622L65.1334 73.1336L64.9191 71.9956L66.0762 71.1432L67.0381 71.7289L67.381 71.5003L67.3715 71.4908L67.4 71.4717L66.562 70.9813L66.5667 70.986ZM64.8191 71.4813L64.5572 70.2622L65.6524 70.8956L64.8239 71.4813H64.8191Z" fill="#ADBBD0"></path><path d="M66.4381 68.1714L66.1096 68.4761L68.2572 70.7381H68.2619L68.5477 70.5047L68.5429 70.5L68.5619 70.4761L66.4381 68.1714Z" fill="#ADBBD0"></path><path d="M71.5334 67.3476L69.2143 65.2285L68.9143 65.5666L70.7953 67.2095L67.6476 66.9714H67.6429L67.3667 67.2857L69.7238 69.3523L69.7286 69.3476V69.3523L69.9143 69.1047L69.9096 69.0999L69.9381 69.0761L68.1857 67.4333L71.281 67.6333H71.2857L71.5143 67.3761V67.3714L71.5334 67.3476Z" fill="#ADBBD0"></path><path d="M44.9191 75.3428L44.8143 75.8142L45.9096 76.0618H45.9143L45.9191 76.0285L45.9239 76.0332V76.0285L45.9286 76.0332L46.0286 75.5904L44.9191 75.3428Z" fill="#ADBBD0"></path><path d="M58.8429 74.657C58.9763 74.4808 59.0524 74.2094 58.9382 73.8332C58.8477 73.5379 58.7048 73.3474 58.5001 73.2665C58.3763 73.2094 58.2572 73.1665 58.1191 73.1713C58.0001 73.1713 57.8763 73.1903 57.7572 73.2236L55.9905 73.7522L56.5572 75.5998L56.9096 76.7665H56.9143L56.9429 76.757L56.962 76.7665L57.281 76.6665L56.9001 75.4046L58.0953 75.0141L59.0334 76.1094H59.0382L59.0715 76.0951L59.081 76.1094L59.4524 75.9475L58.462 74.8951C58.562 74.8427 58.7429 74.7903 58.8334 74.657H58.8429ZM56.5191 74.1046L57.9096 73.6332C57.9715 73.6141 58.0382 73.5998 58.1001 73.5951C58.2905 73.5808 58.4715 73.7046 58.5477 73.957C58.5572 73.9903 58.562 74.0189 58.5667 74.0522C58.581 74.2808 58.4286 74.4522 58.1572 74.5332L56.7763 74.9427L56.5239 74.0998L56.5191 74.1046Z" fill="#ADBBD0"></path><path d="M31.0334 68.6763C31.0953 68.5858 31.0619 68.4239 31.081 68.3144C31.1381 67.9477 30.9619 67.5525 30.5238 66.9667L30.2286 66.5715C29.9953 66.262 30.0572 66.0239 30.1048 65.9048C30.1143 65.8905 30.1286 65.8715 30.1381 65.8524C30.1905 65.7953 30.2572 65.7572 30.3286 65.7477C30.3477 65.7477 30.3619 65.7429 30.3762 65.7429C30.9096 65.7477 31.7048 66.5953 31.9 67.281V67.3001H31.9096L31.9286 67.2905C32.0381 67.2286 32.1238 67.1905 32.2048 67.1477L32.2143 67.1382V67.1286C32.2191 67.1286 32.2048 67.1286 32.2048 67.1286L32.2143 67.1144C32.0048 66.3334 31.3429 65.562 30.7048 65.3096C30.5524 65.2477 30.4048 65.2144 30.2667 65.2144C30.1 65.2144 29.9572 65.262 29.8334 65.3525C29.6905 65.462 29.6191 65.6001 29.5953 65.7763C29.5858 65.8429 29.5858 65.9239 29.5953 66.0001C29.6143 66.2382 29.8143 66.5858 29.9953 66.8334L30.2762 67.2429C30.4953 67.5382 30.6572 67.6525 30.681 67.9096C30.6905 68.0191 30.681 68.1048 30.6762 68.1334C30.6524 68.262 30.6 68.3525 30.4953 68.4239C30.4381 68.462 30.3524 68.481 30.281 68.481C30.2238 68.481 30.1667 68.4667 30.1096 68.4429C29.6572 68.262 29.0429 67.5286 28.7238 66.5286L28.7048 66.481L28.6858 66.5001L28.3572 66.8096H28.3524C28.3524 66.8096 28.3619 66.8429 28.3619 66.8525C28.3619 66.8525 28.6572 67.5763 28.9857 68.0191C29.3334 68.481 29.681 68.781 30.0524 68.9001C30.1762 68.9429 30.2905 68.9572 30.4048 68.9572C30.5715 68.9572 30.7238 68.962 30.8381 68.8858C30.9286 68.8239 31.0048 68.7429 31.0572 68.662L31.0334 68.6763Z" fill="#ADBBD0"></path><path d="M50.0905 75.8906H50.081L50.0905 76.324H50.0953V76.3525H50.1238L51.0572 76.3716L51.0381 76.7049C51.0334 76.9668 50.6476 77.2144 50.1096 77.2049C50.0667 77.2049 50.0286 77.2049 49.9905 77.2049C49.6048 77.1573 49.2715 76.9906 49.0667 76.7287C48.881 76.4906 48.8476 76.362 48.8524 76.062C48.8572 75.862 48.9048 75.6668 48.9953 75.5001C49.2 75.143 49.6429 74.8763 50.1953 74.8859C50.7476 74.9001 50.981 75.1859 51.1286 75.3335L51.1381 75.3192C51.1381 75.3192 51.1476 75.3287 51.1524 75.3335L51.4715 75.0192L51.4857 75.0049C51.4381 74.962 51.381 74.9049 51.3 74.8335C51.081 74.6478 50.7238 74.4192 50.1619 74.4144H50.1238C49.1286 74.3954 48.4048 75.1144 48.3905 76.0001C48.3905 76.0716 48.3953 76.143 48.4 76.2049C48.4762 77.1478 49.281 77.662 50.0667 77.6716H50.081C50.081 77.6716 50.0905 77.6763 50.1 77.6763C50.6857 77.6859 51.1619 77.4859 51.3715 77.1478C51.4429 77.0287 51.4857 76.9001 51.4905 76.7525L51.5 75.9192L50.0762 75.8906H50.0905Z" fill="#ADBBD0"></path><path d="M62.3953 71.1191L61.9857 71.3239L61.9191 73.5668L60.0857 72.3049L59.6953 72.4953L60.4953 74.081L61.1 75.3144H61.1095L61.3381 75.2144L61.4619 75.1334L60.4905 73.0906L62.3381 74.3382V74.3334V74.3382V74.3001L62.3524 74.3048H62.3572L62.4143 72.5668L62.4333 72.1953L62.4381 72.1906L63.5 74.1144L63.5095 74.0906L63.5143 74.1001H63.5191L63.8333 73.8715L62.3953 71.1191Z" fill="#ADBBD0"></path><path d="M44.919 75.3618L44.8143 75.819V75.8237L45.9047 76.0713H45.9095L45.9143 76.0523H45.9238L46.0238 75.6142L44.919 75.3618Z" fill="white"></path><path d="M50.119 75.9144H50.0857L50.0952 76.3525V76.3763L51.0809 76.3906L51.0523 76.7144C51.0285 76.9858 50.6619 77.2239 50.1333 77.2239C49.3476 77.2096 48.8285 76.6763 48.8381 76.0668C48.8428 75.8287 48.9143 75.6049 49.0381 75.4192C49.1047 75.3239 49.2238 75.2239 49.319 75.1525C49.3476 75.1287 49.3762 75.1096 49.4047 75.0906C49.6095 74.9668 49.8714 74.9001 50.1714 74.9096C50.7381 74.9096 50.9762 75.1953 51.1238 75.343H51.1285C51.1285 75.343 51.1285 75.343 51.1333 75.343L51.1428 75.3334L51.4619 75.0192L51.4714 75.0096C51.2952 74.8334 50.9095 74.4334 50.1619 74.4192H50.1285C49.1333 74.4049 48.4095 75.1239 48.3952 76.0144C48.3952 76.0239 48.3952 76.0287 48.3952 76.0382C48.3952 76.0382 48.3952 76.0382 48.3952 76.0477C48.3762 77.1049 49.2571 77.6763 50.0904 77.6953C50.4381 77.6953 50.7333 77.6382 50.9666 77.5096C51.0381 77.4763 51.1 77.4334 51.1571 77.3906C51.2428 77.3239 51.3142 77.2382 51.3714 77.1572C51.4428 77.0382 51.4857 76.9144 51.4904 76.762L51.5143 75.9334L50.119 75.9144Z" fill="white"></path><path d="M30.9381 68.8001C31.0524 68.6858 31.0524 68.4905 31.0714 68.3382C31.1286 67.9667 30.9571 67.5715 30.519 66.9905L30.2238 66.5905C29.9905 66.281 30.0524 66.0477 30.0952 65.9334C30.119 65.8858 30.1476 65.8524 30.1809 65.8191C30.2238 65.7858 30.2714 65.7667 30.3238 65.762H30.3714C30.9047 65.762 31.7047 66.6096 31.9 67.2953V67.3143H31.9095L31.9286 67.3048C32.0381 67.2429 32.1238 67.2048 32.2095 67.162H32.2333C32.1333 66.8001 31.9428 66.4143 31.7 66.1143C31.2905 65.6001 30.7381 65.2334 30.2762 65.2334C30.1143 65.2334 29.9666 65.281 29.8428 65.3762C29.8047 65.4048 29.7714 65.4286 29.7428 65.4667C29.6809 65.5286 29.6476 65.6143 29.6143 65.7001C29.6 65.7429 29.5952 65.7715 29.5905 65.8239C29.5857 65.8572 29.5809 65.8953 29.5809 65.9334C29.5809 66.1905 29.7333 66.5429 29.9381 66.8096L30.2286 67.2143C30.4524 67.5143 30.6571 67.7858 30.6762 68.0477C30.6762 68.0858 30.6762 68.1001 30.6666 68.181C30.6666 68.2048 30.6428 68.2477 30.6333 68.2715C30.6143 68.3239 30.5857 68.362 30.5476 68.4001C30.5238 68.4191 30.5047 68.4382 30.4762 68.4572C30.4143 68.4953 30.3524 68.5096 30.2762 68.5096C30.0238 68.5096 29.6762 68.2572 29.3476 67.8382C29.0905 67.5048 28.8571 67.0715 28.6952 66.5667L28.6857 66.5286L28.3381 66.8524C28.3381 66.8524 28.5 67.4667 28.8952 67.9905C29.2428 68.4524 29.6571 68.8096 30.0286 68.9286C30.1476 68.9667 30.2619 68.9858 30.3762 68.9858C30.5381 68.9858 30.7 68.9953 30.8095 68.9191C30.8524 68.881 30.8905 68.8524 30.9333 68.8096L30.9381 68.8001Z" fill="white"></path><path d="M39.8952 72.3619L39.8857 72.3524L39.4905 72.1476L39.4857 72.1524L39.481 72.1476V72.1524L38.3714 74.2714L37.8381 71.2857L37.8333 71.2809H37.8286V71.2762L37.4429 71.0762H37.4381L37.4333 71.0809L35.981 73.8571L35.9762 73.8666L35.9857 73.8714L36.3619 74.0428L36.3762 74.0143L36.3857 74.019L37.5095 71.8714L38.0667 74.8047L38.4619 74.9762L38.4762 74.9524L38.4857 74.9571L39.9 72.3667L39.8952 72.3619Z" fill="white"></path><path d="M34.3666 68.8429L33.9809 68.519L30.8524 70L31.1762 70.2952L32.2714 69.7905L33.3952 70.7381L33.0428 71.8476L33.0476 71.8571V71.8714L33.3762 72.1095L33.3857 72.0714V72.0809H33.3952L34.3666 68.8429ZM33.8571 69.0333L33.4952 70.2571L32.7428 69.6238L33.8571 69.0333Z" fill="white"></path><path d="M36.4905 70.424L36.0952 70.1621L34.3381 72.8288L34.7238 73.0716L34.7381 73.0669L36.4905 70.424Z" fill="white"></path><path d="M40.7524 72.7236L40.6143 73.1474L40.6095 73.1617L41.6905 73.5284L40.7857 76.0427V76.0474L40.7905 76.0522L40.7857 76.0665L41.1524 76.1617L41.1619 76.1379H41.1666V76.1332L41.1714 76.1379L42.0238 73.6427L43.0809 73.9998L43.0904 73.9712L43.1 73.9855L43.0952 73.9665H43.1047L43.2428 73.5855L40.7524 72.7236Z" fill="white"></path><path d="M55.3904 76.6573L55.3571 76.662L53.2285 76.962L53.0904 76.0573L54.1238 75.9096L54.119 75.8858V75.8811H54.1285H54.1381V75.8715H54.1476L54.0809 75.4239L54.0571 75.4287L53.019 75.5763L52.9047 74.8049L54.9714 74.5096L54.9619 74.4906V74.4858H54.9714V74.4811H54.9809V74.4715H54.9952L54.9285 74.0239L54.9 74.0287V74.0239L52.4142 74.3906V74.4049V74.4096V74.4239L52.419 74.4573L52.8571 77.4954V77.5049L55.4238 77.1334V77.1192H55.4285V77.1144H55.4381V77.1001H55.4476L55.3904 76.6573Z" fill="white"></path><path d="M58.4619 74.9143C58.5619 74.8667 58.7381 74.8095 58.8286 74.681C58.9619 74.5048 59.0476 74.2333 58.9333 73.8476C58.8524 73.5762 58.7238 73.3952 58.5381 73.3C58.3048 73.1762 58.0333 73.1667 57.7619 73.2429L56.0048 73.7667L56.2667 74.6238L56.9143 76.7667L57.0571 76.7286L57.281 76.6714L56.9095 75.4238L58.1048 75.0286L59.0429 76.1333L59.4095 75.9714L59.4429 75.9571L58.4619 74.9143ZM57.9 73.6476C58.1476 73.581 58.4381 73.6429 58.5429 73.981C58.5524 74.0143 58.5571 74.0429 58.5619 74.0714C58.5619 74.1048 58.5619 74.1333 58.5619 74.1572C58.5619 74.1905 58.5619 74.2191 58.5476 74.2429C58.5 74.3857 58.3571 74.4905 58.1571 74.5524L56.7667 74.9619L56.5095 74.1191L57.9 73.6429V73.6476Z" fill="white"></path><path d="M64.4905 69.7334L64.0762 70.0239L64.7476 73.4048L65.1095 73.1667L65.1333 73.1477L64.919 72.0191L66.0762 71.1667L67.0381 71.7572L67.3809 71.5239H67.3762L67.4047 71.4953L64.4952 69.7334H64.4905ZM64.8143 71.5001L64.5476 70.281L65.6524 70.9191L64.8143 71.5001Z" fill="white"></path><path d="M66.4428 68.1855L66.119 68.4855L68.2523 70.7617L68.5381 70.5284L68.5333 70.5236L68.5571 70.4951L66.4428 68.1855Z" fill="white"></path><path d="M71.5285 67.3621L69.2238 65.2383L68.9238 65.5716L70.7904 67.224L67.6666 66.9716L67.3762 67.2907L69.719 69.3716L69.9095 69.1288V69.124L69.9285 69.0954L68.1809 67.4526L71.2762 67.6526L71.5047 67.3954L71.5285 67.3621Z" fill="white"></path><path d="M62.4048 71.1382L62.0048 71.3429L61.9333 73.6001L60.8238 72.8477L60.0952 72.3191L60.0476 72.3429L59.7143 72.5096H59.7095L59.7191 72.5287L61.1 75.3382L61.4238 75.1525L61.4524 75.1382L60.4714 73.0858L61.3191 73.6668L62.3333 74.3572V74.3287H62.3381V74.3191L62.3476 74.3287V74.3191L62.3524 74.3287L62.4048 72.8001L62.4286 72.1525L62.6381 72.562L63.5 74.1239L63.5095 74.1191H63.5143L63.7667 73.9001L63.7905 73.8906L63.8143 73.881L62.4048 71.1382Z" fill="white"></path><path d="M31.3762 11.3384L31.7809 12.0717L29.5667 13.2955L29.9143 13.9289L31.8809 12.8431L32.2809 13.5717L30.3143 14.6574L30.8 15.5336L29.9381 16.0098L28.3 13.0431L31.3762 11.3431V11.3384Z" fill="white"></path><path d="M36.9667 12.6237L36.4286 12.1523L34.4952 12.938L34.4381 13.6523L33.4572 14.0523L33.8 10.2571L35.0572 9.74756L37.9476 12.2285L36.9714 12.6237H36.9667ZM34.5619 12.1142L35.8 11.6095L34.681 10.6333L34.5619 12.1142Z" fill="white"></path><path d="M42.0143 10.1764L41.4286 7.81927L42.3762 7.58594L43.1905 10.8764L41.7952 11.224L39.2714 9.34784L39.8571 11.705L38.9047 11.9431L38.0905 8.6526L39.4905 8.30499L42.0143 10.1812V10.1764Z" fill="white"></path><path d="M46.7857 6.96208L50.8667 6.79541L50.9 7.62874L49.3524 7.69065L49.4571 10.243L48.4762 10.2811L48.3714 7.72874L46.819 7.79065L46.7857 6.95731V6.96208Z" fill="white"></path><path d="M52.0571 8.49526C52.1524 7.37622 52.9809 6.78098 54.4047 6.90479C55.8238 7.0286 56.5428 7.75717 56.4476 8.87145C56.3524 9.9905 55.519 10.5953 54.1 10.4715C52.6762 10.3476 51.9619 9.61907 52.0571 8.49526ZM55.4238 8.78574C55.4762 8.20003 55.1714 7.80955 54.3333 7.73812C53.5 7.66669 53.1333 7.9905 53.0857 8.58574C53.0333 9.18098 53.3428 9.57145 54.1714 9.64288C55.0048 9.71431 55.3762 9.38098 55.4286 8.7905L55.4238 8.78574Z" fill="white"></path><path d="M62.2905 8.36681L60.3 9.38109L61.5476 11.6763L60.3429 11.4049L59.4762 9.8049L58.5286 10.2859L58.3762 10.9573L57.4191 10.7382L58.1667 7.42871L59.1286 7.643L58.7953 9.12871L60.8619 8.03823L62.3 8.36204L62.2905 8.36681Z" fill="white"></path><path d="M66.9952 9.99553L66.7333 10.7193L64.3524 9.85744L64.1667 10.367L66.4571 11.1955L66.1952 11.9193L63.9047 11.0908L63.719 11.6003L66.1 12.4622L65.8381 13.186L62.5333 11.9908L63.6857 8.80029L66.9905 9.99553H66.9952Z" fill="white"></path><path d="M70.4238 14.3526L71.5381 12.1907L72.4095 12.6383L70.8523 15.6526L69.5714 14.9907L68.9095 11.9097L67.7952 14.0716L66.919 13.6193L68.4762 10.605L69.7619 11.2669L70.4238 14.3478V14.3526Z" fill="white"></path><path d="M28.0571 85.4763C27.9095 85.7192 28.0571 86.0239 28.819 86.4858C29.519 86.9049 29.7571 86.9001 29.8667 86.7192C29.9952 86.5097 29.8857 86.3906 29.0571 85.8144C27.9286 85.024 27.5524 84.4763 27.9381 83.8335C28.3047 83.2287 29.1238 83.3478 30.1286 83.9525C31.2476 84.6239 31.6857 85.3525 31.3238 86.0144L30.4428 85.4859C30.5952 85.2287 30.3762 84.962 29.7238 84.5716C29.1047 84.2001 28.9047 84.2192 28.8095 84.3763C28.7 84.5573 28.8095 84.6954 29.5571 85.2335C30.5762 85.9573 31.2238 86.4478 30.7667 87.2097C30.319 87.9525 29.5 87.7573 28.4667 87.1335C27.2905 86.4239 26.7524 85.7382 27.1714 84.9478L28.0524 85.4811L28.0571 85.4763Z" fill="white"></path><path d="M32.1857 87.1909C32.6333 86.1576 33.6048 85.8623 34.9191 86.429C36.2286 86.9957 36.6762 87.9147 36.2333 88.9433C35.7857 89.9766 34.8048 90.2814 33.4952 89.7147C32.181 89.148 31.7381 88.229 32.1857 87.1909ZM35.2905 88.5385C35.5238 87.9957 35.3572 87.5338 34.5857 87.1957C33.8191 86.8623 33.3667 87.0576 33.1333 87.6004C32.8952 88.1481 33.0667 88.6147 33.8286 88.948C34.5952 89.2814 35.0572 89.0814 35.2905 88.5338V88.5385Z" fill="white"></path><path d="M39.9714 88.2194C41.1714 88.5575 41.7095 89.2623 41.5714 90.129L40.5667 89.848C40.5857 89.529 40.3524 89.1909 39.7476 89.0242C39.0476 88.829 38.6143 89.0766 38.4524 89.648C38.2905 90.2242 38.5381 90.6671 39.2333 90.8623C39.8381 91.029 40.2143 90.8623 40.3619 90.5718L41.3667 90.8528C41.0333 91.6718 40.2095 92.0004 39.0048 91.6671C37.6952 91.3004 37.1476 90.4909 37.4571 89.3718C37.7714 88.2575 38.6571 87.8528 39.9667 88.2194H39.9714Z" fill="white"></path><path d="M44.0619 89.2289L43.4619 92.5623L42.4952 92.3861L43.0952 89.0527L44.0619 89.2289Z" fill="white"></path><path d="M45.0809 91.1481C45.1714 90.029 45.9952 89.4338 47.419 89.5481C48.8381 89.6624 49.5619 90.3909 49.4667 91.5052C49.3762 92.6243 48.5476 93.229 47.1238 93.1147C45.7 93.0005 44.9809 92.2719 45.0762 91.1481H45.0809ZM48.4476 91.4243C48.4952 90.8386 48.1905 90.4528 47.3524 90.3814C46.519 90.3148 46.1571 90.6433 46.1048 91.2338C46.0571 91.829 46.3667 92.2148 47.1952 92.2862C48.0286 92.3528 48.4 92.0195 48.4476 91.4243Z" fill="white"></path><path d="M51.7857 92.048C51.8 92.3337 52.0905 92.5051 52.981 92.4575C53.7952 92.4146 53.9905 92.2766 53.9762 92.0623C53.9619 91.8146 53.8095 91.7813 52.8 91.767C51.4238 91.7432 50.8 91.5004 50.7619 90.748C50.7238 90.0432 51.4714 89.6813 52.6429 89.6242C53.9476 89.5575 54.719 89.9099 54.7857 90.6623L53.7619 90.7146C53.7476 90.4146 53.4143 90.3194 52.6524 90.3575C51.9333 90.3956 51.7762 90.5242 51.7857 90.7051C51.7952 90.9146 51.9619 90.9718 52.8857 91.0004C54.1333 91.0289 54.9476 91.0718 54.9952 91.9623C55.0381 92.8289 54.2524 93.1242 53.0476 93.1861C51.6762 93.2575 50.8429 92.9861 50.7524 92.0956L51.7809 92.0432L51.7857 92.048Z" fill="white"></path><path d="M56.419 92.0385L57.3571 91.9004L57.4619 92.629L56.5238 92.7671L56.4142 92.0385H56.419Z" fill="white"></path><path d="M60.1476 88.5338C61.3619 88.2386 62.1762 88.5909 62.481 89.4148L61.4667 89.6624C61.3286 89.3719 60.9571 89.1957 60.3476 89.3433C59.6429 89.5148 59.3857 89.9433 59.5238 90.5243C59.6667 91.1052 60.1 91.3719 60.8 91.2005C61.4095 91.0528 61.6571 90.7195 61.6429 90.3909L62.6571 90.1433C62.7667 91.0195 62.2095 91.7148 60.9952 92.01C59.6714 92.3338 58.7952 91.8957 58.519 90.7671C58.2429 89.6433 58.819 88.8576 60.1429 88.5338H60.1476Z" fill="white"></path><path d="M63.8191 89.3907C63.4048 88.3431 63.8857 87.4431 65.2143 86.9193C66.5381 86.3955 67.5095 86.7288 67.9191 87.7717C68.3334 88.8193 67.8524 89.7288 66.5286 90.2526C65.2 90.7764 64.2334 90.4431 63.8191 89.3907ZM66.9667 88.1478C66.7524 87.6002 66.3048 87.3859 65.5238 87.6955C64.7476 88.0002 64.5619 88.4574 64.781 89.0097C65 89.5669 65.4524 89.7764 66.2238 89.4717C67 89.1669 67.1857 88.7002 66.9667 88.1478Z" fill="white"></path><path d="M70.0048 88.6907L68.3 85.7574L69.6238 84.986L71.7762 86.3383L71.6619 83.8002L72.9857 83.0288L74.6905 85.9621L73.8429 86.4526L72.6095 84.3288L72.7428 87.0955L71.9571 87.5526L69.619 86.0717L70.8571 88.1955L70.0048 88.6907Z" fill="white"></path><path d="M23.6857 81.8382C14.6619 74.1811 8.93335 62.7573 8.93335 50.0001C8.93335 37.243 14.9619 25.2144 24.4048 17.562" stroke="white" stroke-miterlimit="10"></path><path d="M76.9333 17.5669C86.3714 25.2193 92.4 36.905 92.4 50.0002C92.4 63.0955 86.6714 74.1859 77.6476 81.8431" stroke="white" stroke-miterlimit="10"></path></g><defs><linearGradient id="paint0_linear_101_22094" x1="48.3571" y1="58.9763" x2="50.8" y2="65.6954" gradientUnits="userSpaceOnUse"><stop offset="0.15" stop-color="#FFE293"></stop><stop offset="0.3" stop-color="#FEDF8E"></stop><stop offset="0.46" stop-color="#FDD782"></stop><stop offset="0.62" stop-color="#FCC96D"></stop><stop offset="0.78" stop-color="#FAB650"></stop><stop offset="0.94" stop-color="#F79D2B"></stop><stop offset="1" stop-color="#F7941D"></stop></linearGradient><clipPath id="clip0_101_22094"><rect width="100" height="100" fill="white"></rect></clipPath></defs></svg>