<svg xmlns="http://www.w3.org/2000/svg" width="100" height="100" viewBox="0 0 100 100" fill="none"><g clip-path="url(#clip0_101_22090)"><path d="M50 100C77.6142 100 100 77.6142 100 50C100 22.3858 77.6142 0 50 0C22.3858 0 0 22.3858 0 50C0 77.6142 22.3858 100 50 100Z" fill="#0067B2"></path><path d="M50 2.53333C76.1714 2.53333 97.4667 23.8286 97.4667 50C97.4667 76.1714 76.1714 97.4667 50 97.4667C23.8286 97.4667 2.53333 76.1714 2.53333 50C2.53333 23.8286 23.8286 2.53333 50 2.53333ZM50 0C22.3857 0 0 22.3857 0 50C0 77.6143 22.3857 100 50 100C77.6143 100 100 77.6143 100 50C100 22.3857 77.6143 0 50 0Z" fill="white"></path><path fill-rule="evenodd" clip-rule="evenodd" d="M48.9238 77.967C46.2238 77.967 44.8714 77.0813 44.7286 76.9765L44.6286 76.9099L44.5476 76.8194C42.0857 74.0575 39.4619 72.5004 38.9095 72.1861C37.8905 71.9242 36.8952 71.2432 35.9524 70.1527C35.2571 69.348 34.8381 68.6004 34.8191 68.5718L34.8095 68.5527C32.9571 65.048 29.2286 62.648 28.9381 62.467C27.8048 61.8289 27.2048 59.8432 27.0095 59.0718C25.1095 55.3051 25.4905 53.1908 25.5429 52.9623L25.5571 52.9051C25.6191 52.0527 25.7857 51.2385 25.9476 50.4432C26.2619 48.9004 26.5571 47.4432 26.0762 45.8718L26.0667 45.848C24.9905 41.948 25.7381 37.1908 26.5333 33.6385C25.7572 33.3194 25.3 32.5527 25.1714 32.3099L25.1095 32.1956L25.081 32.067C24.7952 30.848 25.5429 29.967 26.0333 29.3813C26.1238 29.2718 26.2143 29.167 26.2952 29.0575L26.3476 28.9908L26.5143 28.8337C27.0238 28.3527 27.7952 27.6289 28.8619 27.6289C29.0857 27.6289 29.3048 27.6623 29.5238 27.7242L29.6 27.748L29.6714 27.7813C30.2524 28.0575 30.7381 28.5337 30.9714 29.0575L30.9905 29.0956L31.0048 29.1385C31.2143 29.7432 31.181 30.4099 30.9381 31.0146L40.9381 41.8194C40.8381 41.5337 40.8 41.2432 40.8238 40.9432C40.8238 40.8861 40.8333 40.8289 40.8429 40.7765C40.8333 40.7718 40.1048 40.3004 40.1048 40.3004L40.4762 39.4146C40.2857 39.3099 40.1 39.1718 39.9333 38.9861L39.7762 38.8099L39.7143 38.5861C39.6857 38.4908 39.5143 38.4385 39.4762 38.4289L39.4286 38.4146L39.3857 38.4004C39.3762 38.4004 39.3429 38.4004 39.281 38.4004C39.2191 38.4004 39.1429 38.4004 39.0762 38.4051C38.981 38.4051 38.8857 38.4146 38.7905 38.4146C37.481 38.4146 37.0905 37.548 36.9762 37.0289C36.8619 36.5242 36.881 36.1194 36.9619 35.8004C36.8048 35.4813 36.6714 35.0718 36.6905 34.5861V34.5385L36.7 34.4908C36.7286 34.2956 36.7667 34.0861 36.8476 33.867C36.6905 33.3718 36.681 32.8575 36.8238 32.3765C36.8857 32.1623 36.9857 31.9623 37.1191 31.7813C37.1 31.4004 37.1524 30.9146 37.4191 30.4813C37.6191 30.1575 37.8905 29.9337 38.1429 29.7813C38.3476 29.0289 38.8191 28.4861 39.4762 28.2718C39.5286 28.248 39.5857 28.2289 39.6381 28.2146C39.8048 27.867 40.0714 27.4861 40.5571 27.2385C40.8619 27.0765 41.2238 26.9908 41.6048 26.9908C41.6714 26.9908 41.7381 26.9908 41.8048 27.0004C41.8667 26.8861 41.9381 26.7813 42.0095 26.6765L42.0571 26.6146L42.1143 26.5575C42.7191 25.9527 43.4857 25.9527 43.7381 25.9527C43.8191 25.9527 43.9 25.9527 43.9857 25.9575H44.0333L44.081 25.967C44.4619 26.0194 44.7714 26.1908 45.0191 26.3861C45.1667 26.3337 45.3238 26.2908 45.481 26.2718C45.6238 26.0099 45.8572 25.7051 46.2619 25.5099C46.4571 25.3956 46.6714 25.3146 46.8952 25.2623V23.4146H47.9429V22.0337H50.9143V23.4146H51.9619V25.4099C51.9619 25.4099 51.981 25.4099 51.9952 25.4099C52.2238 25.4099 52.4429 25.448 52.6524 25.5242C53.0333 25.6432 53.3857 25.8956 53.6476 26.2146C53.8524 26.2289 54.0905 26.2623 54.3286 26.348C54.4571 26.2575 54.5952 26.1813 54.7333 26.1146L54.8762 26.048L55.0333 26.0289C55.2191 26.0051 55.3857 25.9956 55.5429 25.9956C56.2381 25.9956 56.7905 26.2242 57.1905 26.6765C57.6857 26.6908 58.1429 26.8527 58.4905 27.1385C58.781 27.3527 58.9571 27.6146 59.0714 27.867C59.5 27.9432 59.881 28.1337 60.1762 28.4242L60.2 28.448C60.5095 28.7813 60.6667 29.1527 60.7476 29.4861C61.1048 29.6956 61.4 30.0099 61.5857 30.3765L61.6 30.4004C61.7524 30.7242 61.7952 31.0623 61.8 31.3813C62.1476 31.767 62.3476 32.2242 62.3714 32.7051C62.4191 33.0527 62.3429 33.3527 62.2572 33.5718L62.3429 33.9051C62.5048 34.5527 62.381 35.2242 62.0095 35.7813C62.0619 36.5289 61.7762 37.2956 61.2191 37.7861C60.7905 38.1908 60.2667 38.1908 60.0952 38.1908C60.0381 38.1908 59.981 38.1908 59.9191 38.1908C59.8905 38.1908 59.8572 38.1908 59.8286 38.1908L59.7286 38.2385L59.5238 38.248C59.3905 38.2527 59.281 38.2908 59.2286 38.3146C59.0857 38.6527 58.8476 38.9385 58.5524 39.1527L59.0476 40.4718L58.1857 40.6908C58.2191 40.9908 58.2 41.3004 58.1286 41.6051C62.8762 44.5146 65.781 49.6623 65.781 55.2813C65.781 56.0194 65.7286 56.7527 65.6333 57.4813C66.3857 58.0146 67.7381 59.0337 68.7286 60.148L68.7429 60.167C70.2191 61.9146 73.6381 65.1956 73.6714 65.2289L74.9762 66.4813L73.2286 66.9432C72.0619 67.2527 70.2667 67.8146 67.6667 69.2051L73.6333 75.367L69.7524 77.9289L63.8143 71.8051C59.7571 74.7432 54.1 77.9861 48.9191 77.9861L48.9238 77.967ZM30.9286 37.5908C32.4095 40.7337 34.5286 43.6765 36.5191 46.1813C36.8667 45.6765 37.2429 45.1908 37.6476 44.7289L30.9286 37.5956V37.5908Z" fill="white"></path><path fill-rule="evenodd" clip-rule="evenodd" d="M72.9714 65.9435C72.9714 65.9435 69.4952 62.6149 67.9666 60.8054C66.8476 59.5435 65.1286 58.3339 64.5285 57.9387C64.6857 57.072 64.7666 56.1768 64.7666 55.2625C64.7666 49.4816 61.5 44.4625 56.7095 41.9482H56.719C56.9238 41.7816 57.0571 41.5911 57.1333 41.3863C57.2666 40.8816 57.1524 40.3149 56.8143 39.9768L57.6952 39.753L57.2428 38.553C57.6762 38.5339 58.1238 38.3101 58.2952 37.8958C58.4666 37.4244 59.0286 37.2387 59.4762 37.2196C59.7952 37.0673 60.2666 37.2958 60.5286 37.0339C60.9428 36.6768 61.1095 36.0387 60.9238 35.4958C61.2809 35.1577 61.4857 34.672 61.3571 34.1435C60.7571 33.6911 61.4714 33.3339 61.3571 32.7911C61.3571 32.3768 61.0762 32.0196 60.7571 31.7958C60.7952 31.4768 60.8143 31.1006 60.6809 30.8196C60.5095 30.4816 60.1762 30.2577 59.8381 30.2006C59.8 29.8054 59.7428 29.4292 59.4619 29.1292C59.1809 28.8482 58.7476 28.7911 58.3524 28.8673C58.2381 28.5292 58.1857 28.153 57.8619 27.9292C57.5619 27.6673 57.0905 27.6292 56.7 27.7435L56.4381 27.3482C56.119 26.972 55.6095 26.972 55.1619 27.0292C54.8809 27.1625 54.619 27.3863 54.4476 27.6482L54.3714 27.572C54.0714 27.1577 53.4905 27.2339 53.0571 27.1958C52.9428 26.8768 52.6428 26.5768 52.3238 26.4816C51.7809 26.2768 51.2143 26.6387 50.8428 26.9196C50.7047 26.4625 50.3524 26.0482 49.8952 25.8911V25.3673H50.9428V24.4244H49.8952V23.0435H48.9524V24.4244H47.9047V25.3673H48.9619V25.9149C48.6381 26.0244 48.3619 26.2435 48.1857 26.5244L48.0476 26.4196C47.6714 26.1577 47.1095 26.1577 46.7333 26.4006C46.319 26.5673 46.3 27.0196 46.0952 27.3006C45.6428 27.1673 45.1762 27.3387 44.8381 27.6768C44.6143 27.3768 44.3333 27.0196 43.9381 26.9625C43.5238 26.9435 43.1333 26.9625 42.8286 27.2625C42.6238 27.5435 42.4905 27.8816 42.4333 28.2196C42.0381 27.9768 41.4381 27.9006 41.0238 28.1244C40.6095 28.3292 40.5 28.7625 40.3666 29.1196C40.1809 29.1196 39.9905 29.1387 39.8238 29.2149C39.3 29.3625 39.0905 29.9482 39.0524 30.453C38.7714 30.5673 38.4524 30.7149 38.2809 30.9958C38.0952 31.2958 38.0952 31.7673 38.1857 32.1244C38 32.2577 37.8476 32.4435 37.7905 32.6482C37.6571 33.0816 37.7524 33.5292 37.9571 33.9054C37.7905 34.1101 37.7333 34.3577 37.6952 34.6196C37.6762 35.053 37.8809 35.4101 38.0905 35.7292C37.8476 36.0101 37.8857 36.4625 37.9571 36.8006C38.1619 37.7387 39.1 37.2149 39.7238 37.4387C40.1571 37.553 40.5476 37.8339 40.6809 38.3006C40.9809 38.6387 41.4333 38.6768 41.8428 38.7339L41.3571 39.8958C41.619 40.0625 42.0714 39.9911 42.2571 40.1577C42.0333 40.3625 41.8428 40.6625 41.8238 41.0006C41.7857 41.453 42.0286 41.8244 42.3286 42.1244H42.4143C41.8524 42.4339 41.3143 42.7816 40.8 43.1625L29.6762 31.1435C30.0524 30.6911 30.2381 30.053 30.0333 29.453C29.8809 29.1149 29.5428 28.8339 29.2286 28.6816C28.3286 28.4196 27.6333 29.153 27.0905 29.6577C26.5857 30.3149 25.8524 30.9339 26.0571 31.8149C26.2428 32.172 26.6 32.6054 27.0143 32.7149C27.2381 32.7911 27.5476 32.7768 27.7333 32.872C26.8238 36.6863 25.9476 41.6292 27.0333 45.553C27.8809 48.3387 26.6476 50.6958 26.5381 53.2054C26.5333 53.1863 26.5238 53.172 26.519 53.153C26.519 53.153 26.1 55.072 27.9524 58.6958C27.9524 58.6958 28.519 61.0863 29.4333 61.5673C29.4333 61.5673 33.619 64.1339 35.6905 68.0577C35.6905 68.0577 37.2 70.7673 39.2619 71.2101C39.2619 71.2101 42.3762 72.8577 45.2857 76.1244C45.2857 76.1244 50.9905 80.0958 63.9095 70.4244L69.8809 76.5816L72.0381 75.153L66 68.9196C69.1762 67.0816 71.3666 66.3339 72.9476 65.9196L72.9714 65.9435ZM38.4238 45.3816C37.9143 45.9673 37.4476 46.5911 37.0286 47.253C36.8857 47.472 36.7476 47.6911 36.619 47.9149C33.1095 43.6339 29.5809 38.7006 28.3809 33.4101L39.019 44.7054C38.8143 44.9244 38.619 45.153 38.4238 45.3816Z" fill="#010101"></path><path d="M51.8048 28.867C52.3095 28.6623 52.1238 29.1861 52.3286 29.3718C52.4048 29.5956 52.6476 29.6718 52.8191 29.8051C52.7238 30.1813 52.7238 30.6289 52.9524 30.9337C53.1571 31.1194 53.3286 31.348 53.6286 31.4051C53.5524 31.8004 53.7238 32.1956 54.0048 32.4384L54.2667 32.6051C54.0048 32.7004 53.8143 33.0194 53.7048 33.2813C53.6286 33.5813 53.6857 33.9004 53.8762 34.1432C52.881 34.5194 51.4905 34.5384 50.7048 33.8242C50.9667 33.5432 51.1 33.1099 50.9476 32.7337C50.8524 32.4908 51.3238 32.3194 51.381 32.0575C51.5524 31.7384 51.4572 31.3051 51.2476 31.0242L50.9286 30.7623C51.1333 30.5765 51.2857 30.2908 51.3048 29.9718C51.3238 29.5956 51.0619 29.2765 50.8 29.0908L50.4048 28.9765C50.4048 28.7908 50.3286 28.6384 50.2191 28.4861C50.4238 28.4099 50.6524 28.2623 50.8 28.0527C50.9333 28.4099 51.3619 28.8432 51.8143 28.8575L51.8048 28.867Z" fill="#E2101A"></path><path d="M48.7667 28.4528C48.6524 28.6195 48.5238 28.7719 48.5429 28.9766C48.2048 28.9576 47.9429 29.2195 47.7524 29.4623C47.6381 29.7814 47.6191 30.1576 47.7905 30.4576L48.1095 30.7766C47.8476 30.9623 47.619 31.2623 47.619 31.6195C47.6381 31.9576 47.8238 32.3147 48.1095 32.4814C47.8857 32.7433 47.8476 33.2147 47.9762 33.5147C48.1095 33.6671 48.2 33.8528 48.3714 33.9671C47.5476 34.5861 46.1952 34.7576 45.181 34.3433C45.3857 34.0433 45.3857 33.6861 45.2952 33.329C45.1286 32.9909 44.8429 32.7861 44.4905 32.729C44.7143 32.5957 44.9952 32.3719 45.1095 32.11C45.2429 31.9052 45.0905 31.6766 45.1476 31.4338C45.4476 31.3766 45.7286 31.1338 45.9 30.8719C46.0524 30.5909 46.0714 30.1957 45.9762 29.8957C46.181 29.7623 46.5 29.5766 46.6333 29.3338L46.7095 28.7528C46.9905 28.8861 47.519 28.9576 47.8714 28.81C48.0952 28.7147 48.3429 28.4719 48.4333 28.248C48.6 28.2671 48.6571 28.4004 48.7714 28.4528H48.7667Z" fill="#E2101A"></path><path d="M55.0333 29.3382C55.2953 29.4715 55.6714 29.5049 55.9714 29.4144C56.2333 29.8858 56.7238 30.2239 57.3048 30.1477H57.4C57.4572 30.543 57.681 30.9192 58.0191 31.143L58.4143 31.2763C58.3762 31.7811 58.6191 32.2144 58.9953 32.4954C58.881 32.9096 58.9572 33.3763 59.2381 33.6763C59.0143 34.0525 58.9 34.6144 59.1048 35.0287C58.9191 35.2144 58.6 34.9906 58.4286 35.2715C58.3143 35.4382 58.4857 35.7954 58.1286 35.7049C58.0524 35.743 57.9238 35.6096 57.9429 35.762L57.9238 35.7049C57.2095 35.6096 56.5524 35.3858 56.0286 34.8954C56.2714 34.762 56.6286 34.5573 56.7619 34.2192C56.8572 33.9573 56.8 33.6382 56.7048 33.3954C56.2 33.0573 56.2 32.1192 55.4095 32.1763C55.5238 31.8382 55.5429 31.443 55.3714 31.1239C54.6762 30.7858 55.5238 29.9954 54.9762 29.5477C54.9 29.3239 54.5238 29.1906 54.5429 29.0049C54.7667 29.0049 54.8048 29.3049 55.0333 29.343V29.3382Z" fill="#E2101A"></path><path d="M43.9429 29.3573C43.7 29.7526 43.4905 30.2954 43.7381 30.7669L43.8143 30.8431C43.4762 31.0478 43.2905 31.4431 43.2715 31.8383C43.2905 32.0431 43.4381 32.2526 43.4572 32.4192C43.1762 32.5526 42.7429 32.7383 42.7619 33.1716C42.5 33.324 42.3096 33.5859 42.2572 33.8478C42.181 34.1669 42.3143 34.4859 42.5191 34.7097C42.2191 35.0859 41.7143 35.405 41.3572 35.6288L41.0381 35.6859C40.9619 35.5002 40.8524 35.2716 40.6619 35.2002C40.4381 35.1621 40.1715 35.2764 39.9857 35.3145C40.1524 34.9002 40.1524 34.3573 39.8905 33.9811C40.1334 33.6431 40.3429 33.1907 40.1334 32.7621C39.981 32.5383 40.3572 32.405 40.4143 32.1811L40.5476 31.5811C40.8857 31.5431 41.1667 31.2811 41.3524 30.9811L41.5238 30.4764C41.9191 30.4192 42.3286 30.4002 42.6334 30.0621C42.8191 29.8192 42.9905 29.5573 42.9524 29.2002C43.2715 29.2954 43.5905 29.4811 43.9476 29.3669L43.9429 29.3573Z" fill="#E2101A"></path><path d="M48.8381 29.862C48.6714 30.0287 48.5762 30.2192 48.5381 30.443C48.3667 30.4239 48.2 30.2382 48.1619 30.0858C48.0476 29.8811 48.2381 29.7287 48.3286 29.5811C48.6476 29.2049 48.6286 29.7477 48.8333 29.862H48.8381Z" fill="#E4B531"></path><path d="M50.8666 29.862C50.8857 30.1239 50.7714 30.3668 50.5476 30.462C50.3952 30.4239 50.3952 30.1811 50.3047 30.0478C49.9095 29.862 50.3428 29.6716 50.3809 29.4668C50.6428 29.4478 50.7762 29.7097 50.8666 29.862Z" fill="#E4B531"></path><path d="M50.8095 31.3671C50.9048 31.5195 50.9619 31.7814 50.8667 31.948C50.7714 32.1147 50.6048 32.229 50.3952 32.229C50.2095 32.0957 50.0381 31.8718 49.8143 31.7433C49.7191 31.3861 50.1524 31.4433 50.2667 31.1623C50.4905 31.1052 50.6429 31.2576 50.8095 31.3671Z" fill="#E4B531"></path><path d="M49.2143 31.6862C48.9905 31.8004 48.7238 31.9481 48.5953 32.1909C48.3714 32.1338 48.2191 31.9862 48.1619 31.7576C48.1238 31.5147 48.3095 31.3052 48.5191 31.1957C48.8191 31.1766 49.1 31.4766 49.2143 31.6862Z" fill="#E4B531"></path><path d="M57.2666 36.9195C57.4333 37.1052 57.5286 37.3719 57.4 37.5957C57.2666 37.8004 57.0047 37.9528 56.7238 37.8385C55.8809 37.2766 54.8095 37.1052 53.8143 36.8052C49.8333 35.9433 45.5714 36.429 42.0428 37.9481C41.7809 37.9481 41.6286 37.6862 41.519 37.4766C41.4238 36.8576 42.1381 36.7814 42.5143 36.5576C47.019 34.8671 52.9143 34.7004 57.2666 36.9147V36.9195Z" fill="#E4B531"></path><path d="M56.0286 40.3954C56.2333 40.5478 56.2905 40.8478 56.1952 41.0907C56.0429 41.2954 55.7809 41.3716 55.5381 41.3335C51.9714 39.8335 47.1286 39.7954 43.619 41.4668C43.4333 41.4668 43.1333 41.524 43.019 41.3002C42.8857 41.1335 42.7762 40.8478 42.9429 40.6621C43.7333 40.1192 44.6714 39.9478 45.5333 39.6288C48.8762 38.7097 52.9857 39.0478 56.0286 40.4002V40.3954Z" fill="#E4B531"></path><path d="M65.4333 69.4004L64.4667 70.0718L64.6095 70.2194C65.7667 71.4147 69.3714 75.0099 69.8762 75.4575L69.9714 75.5432L70.081 75.4813C70.1286 75.4528 70.181 75.4242 70.2381 75.3956C70.4333 75.2909 70.6524 75.1718 70.7952 74.9813L70.8857 74.8623L65.4381 69.4051L65.4333 69.4004Z" fill="#E4B531"></path><path fill-rule="evenodd" clip-rule="evenodd" d="M35.9524 50.9859C37.7762 45.1049 43.2619 40.8335 49.7429 40.8335C49.9762 40.8335 50.2572 40.8335 50.4905 40.8478C48.7238 41.9002 47.4143 43.624 46.681 45.4478C44.3334 45.6716 42.2334 46.5906 40.4477 48.1525C38.7191 48.7525 37.2381 49.7668 35.8667 51.1002L35.9524 50.9906V50.9859Z" fill="#D97624"></path><path fill-rule="evenodd" clip-rule="evenodd" d="M51.4428 53.9097C49.4714 54.7478 47.2143 56.0716 44.919 58.1526C42.6857 56.3526 40.6952 54.005 40.1714 51.1716C40.0571 50.1954 40.2476 49.2764 40.9047 48.5812C42.4238 47.1002 44.3952 46.3859 46.5381 46.1431C46.5 47.8335 47.3285 49.2574 48.2476 50.4431C49.0714 51.8145 50.1619 52.8097 51.3809 53.8764L51.4476 53.9145L51.4428 53.9097Z" fill="#D97624"></path><path fill-rule="evenodd" clip-rule="evenodd" d="M61.5476 47.0002C60.7334 48.9383 59.3143 50.9431 57.4381 52.4622C56.5619 52.4526 54.5334 52.5336 51.9191 53.586C49.9095 51.8955 48.0524 49.7764 47.3 47.186C46.8857 45.686 47.9953 44.5574 48.6524 43.3574C49.4238 42.3812 50.4714 41.4431 51.5619 40.9717C52.4667 41.086 53.4 41.3003 54.2476 41.5717C52.481 42.2669 51.1524 43.6907 50.1905 45.3241C50.6953 45.6622 51.2619 46.0002 51.8048 46.3193C53.5334 47.4622 55.2572 48.8717 56.8334 50.3717H56.9095C58.4667 48.8907 59.5476 46.9622 59.781 44.9479C60.2905 45.2003 61.5476 46.9955 61.5476 46.9955V47.0002Z" fill="#D97624"></path><path fill-rule="evenodd" clip-rule="evenodd" d="M62.0143 47.6768C63.3857 49.8768 64.1762 52.4768 64.1762 55.2672C64.1762 56.0387 64.1143 56.7958 64 57.5339L63.9667 57.6434C61.1334 56.1196 58.8619 53.5529 58.1714 52.7291C59.7857 51.3196 61.1333 49.5339 62.0143 47.6768Z" fill="#D97624"></path><path d="M56.9476 42.7954C56.8333 42.9811 56.7428 43.1716 56.5905 43.3573C56.1762 43.3573 56.1952 42.662 55.7619 42.9239C55.6095 43.0382 55.519 43.262 55.6667 43.4144L56.2667 43.7716C56.2095 44.0144 55.9857 44.2049 55.8524 44.4097C55.3095 44.4668 54.8952 43.1335 54.4428 44.1097C54.5381 44.6525 55.1571 44.5811 55.419 45.0097L54.8 45.8192C54.3857 45.6144 54.1428 45.2954 53.8238 45.0287C53.6714 44.9716 53.4857 44.8954 53.3333 45.0287C53.1666 45.1811 53.1095 45.3858 53.1809 45.5906C53.519 45.8525 53.9524 46.1144 54.2905 46.4335C54.1762 46.6573 53.9714 46.9954 53.7476 46.9763C53.3143 46.6192 52.7905 46.2811 52.319 46.0001C51.9619 45.662 51.4762 45.4382 51.0619 45.1573C51.2476 44.6858 51.719 44.2954 52.0381 43.9001C52.9762 42.9811 54.0095 42.2668 55.2666 41.9668C55.8666 42.2097 56.3762 42.4716 56.9381 42.7906L56.9476 42.7954Z" fill="#D97624"></path><path d="M59.2762 44.467C59.1048 46.4384 58.2048 48.148 56.8191 49.4956C55.9381 48.8384 55.2619 48.1813 54.3762 47.467C54.4715 47.2432 54.6572 47.1099 54.7905 46.9051C55.4286 46.9622 55.7286 48.3146 56.3857 47.486C56.4619 47.2622 56.3857 46.9813 56.1619 46.9051C55.8238 46.7718 55.6191 46.4718 55.3191 46.248C55.4334 45.9289 55.7334 45.667 55.9191 45.4051C56.3524 45.4813 56.4429 46.1765 56.9524 45.8908C57.1048 45.7575 57.1191 45.5146 57.0286 45.348C56.7667 45.2337 56.5762 45.086 56.3524 44.8765C56.3905 44.6337 56.6334 44.4432 56.7667 44.2194C57.1429 44.1813 57.1429 44.8765 57.5715 44.6527C57.7048 44.5384 57.7381 44.3718 57.7048 44.2194C57.5381 43.9765 57.2524 44.0337 57.0857 43.786L57.5 43.1289C58.1572 43.486 58.7191 43.9718 59.2857 44.4622L59.2762 44.467Z" fill="#D97624"></path><path fill-rule="evenodd" clip-rule="evenodd" d="M44.3286 58.5624C40.5286 61.1243 37.2905 61.2958 36.6333 61.3053L36.5905 61.2148C35.7666 59.4005 35.3095 57.3862 35.3095 55.2672C35.3095 54.291 35.4047 53.3434 35.5905 52.4196L35.6809 52.1386C36.9 50.8434 37.9714 49.9672 39.6238 49.3672C39.0667 52.5577 41.8571 56.3148 42.2905 56.5767C42.8524 57.3291 43.5286 57.891 44.2809 58.5481L44.3333 58.5672L44.3286 58.5624Z" fill="#D97624"></path><path fill-rule="evenodd" clip-rule="evenodd" d="M46.3667 76.224C45.7381 76.0192 45.4667 75.8573 45.4667 75.8573C42.8762 72.5954 39.881 70.9097 39.881 70.9097C37.881 70.4811 36.1238 67.9811 36.1238 67.9811C35.2238 66.2764 34.1095 64.9192 33.1476 63.9383C34.4953 63.2097 36.0381 62.7954 37.6762 62.7954C42.9381 62.7954 47.2 67.0621 47.2 72.3192C47.2 73.7049 46.8953 75.0287 46.3619 76.2192L46.3667 76.224Z" fill="white"></path><path fill-rule="evenodd" clip-rule="evenodd" d="M49.5476 38.2242L50.7143 37.8099L49.5572 37.2861L48.3857 37.8099L49.5476 38.2242Z" fill="#0067B2"></path><path d="M49.5191 29.4052C49.6847 29.4052 49.8191 29.2709 49.8191 29.1052C49.8191 28.9395 49.6847 28.8052 49.5191 28.8052C49.3534 28.8052 49.2191 28.9395 49.2191 29.1052C49.2191 29.2709 49.3534 29.4052 49.5191 29.4052Z" fill="#E4B531"></path><path d="M49.5191 30.9101C49.6847 30.9101 49.8191 30.7757 49.8191 30.6101C49.8191 30.4444 49.6847 30.3101 49.5191 30.3101C49.3534 30.3101 49.2191 30.4444 49.2191 30.6101C49.2191 30.7757 49.3534 30.9101 49.5191 30.9101Z" fill="#E4B531"></path><path d="M39.4571 32.4576C39.8332 32.4576 40.1381 32.1527 40.1381 31.7767C40.1381 31.4006 39.8332 31.0957 39.4571 31.0957C39.0811 31.0957 38.7762 31.4006 38.7762 31.7767C38.7762 32.1527 39.0811 32.4576 39.4571 32.4576Z" fill="#E4B531"></path><path d="M59.5381 35.8147C59.2572 35.7766 59.0857 35.4195 58.7857 35.5528C58.6 35.6861 58.7857 35.8909 58.7286 36.0433C58.0715 36.1766 57.3191 36.0623 56.7191 35.8195C56.1191 35.5385 55.4048 34.9766 55.3476 34.3195C55.5 34.3195 55.6095 34.3956 55.7619 34.4528C56.0048 34.529 56.2667 34.4147 56.4 34.2099C56.5143 33.9861 56.4572 33.6861 56.2334 33.5337C55.5572 33.5337 56.2524 32.7814 55.6143 32.6337C55.3905 32.5766 55.1619 32.6337 54.9953 32.8004C54.9762 33.1576 54.6 32.9337 54.3762 33.0433C54.1334 33.1385 53.981 33.4195 54.0572 33.6623C54.0572 34.0004 54.6191 33.9052 54.4524 34.2242C53.4953 34.9195 52.0143 34.9956 50.981 34.3909C50.681 34.2052 50.3429 34.0147 50.1905 33.6766C50.2286 33.6195 50.2857 33.6385 50.3238 33.6004C50.5476 33.4861 50.7191 33.2623 50.6429 32.9814C50.6238 32.6052 50.1191 32.6433 50.0048 32.3814C49.9095 32.1956 49.6667 31.9861 49.4048 32.0433C49.2334 32.1004 48.9905 32.1956 48.9714 32.4195C48.8953 32.7576 48.3524 32.4766 48.2953 32.9052C48.181 33.148 48.3143 33.448 48.5381 33.5814C48.6905 33.6956 49.0429 33.5623 49.0429 33.7861C48.7619 34.0861 48.481 34.3671 48.1048 34.5195C46.9953 35.1576 45.3476 34.9909 44.3524 34.2766L44.7095 34.2004C44.9524 34.0861 45.0857 33.8052 45.0286 33.5433C44.9334 33.1671 44.5381 33.1861 44.2381 33.148C44.1619 32.9814 44.0334 32.7718 43.8238 32.7337C43.6191 32.6385 43.3715 32.7718 43.2048 32.9576C43.0524 33.1099 43.3 33.5576 42.9429 33.5195C42.6619 33.6147 42.6429 33.9147 42.5857 34.1385C42.6238 34.3623 42.8857 34.4766 42.9619 34.6433C42.5476 35.4861 41.6857 35.9576 40.7857 36.0909C40.5238 35.9766 40.8238 35.6766 40.6 35.548C40.281 35.4528 40.0762 35.7337 39.8095 35.848C39.5857 35.9623 39.3048 35.7147 39.1334 35.9433C39.0572 36.0957 39.0191 36.2433 39.1524 36.3576C39.6953 36.5242 40.2619 36.7147 40.9 36.6004C42.0619 36.5242 43.2857 35.7576 43.7524 34.5909L43.8857 34.5718C44.281 34.8337 44.6905 35.0242 45.1429 35.1718C46.6238 35.5861 48.1857 35.2099 49.3286 34.3099C49.6095 33.7861 49.9286 34.329 50.2095 34.4623C51.5429 35.3052 53.4381 35.4195 54.8476 34.6861C54.981 34.9861 55.1667 35.2671 55.4286 35.5099C56.3667 36.448 57.7191 36.9195 58.9953 36.4671C59.2572 36.4099 59.4286 36.129 59.7667 36.2242C59.9191 36.1671 60.2 36.148 60.1619 35.8861C59.9905 35.7004 59.7476 35.9242 59.5429 35.8099L59.5381 35.8147ZM43.781 34.1004C43.6143 34.1004 43.481 33.9671 43.481 33.8004C43.481 33.6337 43.6143 33.5004 43.781 33.5004C43.9476 33.5004 44.081 33.6337 44.081 33.8004C44.081 33.9671 43.9476 34.1004 43.781 34.1004ZM49.5143 33.3337C49.3476 33.3337 49.2143 33.2004 49.2143 33.0337C49.2143 32.8671 49.3476 32.7337 49.5143 32.7337C49.681 32.7337 49.8143 32.8671 49.8143 33.0337C49.8143 33.2004 49.681 33.3337 49.5143 33.3337ZM54.9476 33.6433C54.9476 33.4766 55.081 33.3433 55.2476 33.3433C55.4143 33.3433 55.5476 33.4766 55.5476 33.6433C55.5476 33.8099 55.4143 33.9433 55.2476 33.9433C55.081 33.9433 54.9476 33.8099 54.9476 33.6433Z" fill="#E4B531"></path><path d="M28.8714 31.2577C28.9 31.2243 28.9333 31.191 28.9714 31.1577C29.1905 30.9386 29.4905 30.6386 29.4381 30.0339V30.0053L29.4238 29.9815C29.219 29.5005 28.8905 29.3815 28.6524 29.3672H28.6333H28.6143C28.2524 29.4196 27.4619 30.1291 27.0762 30.672C26.8238 31.0243 26.719 31.3196 26.7619 31.5434V31.5672C26.9095 31.991 27.2476 32.1481 27.5571 32.2434L27.6286 32.2529C27.8428 32.2529 27.9952 32.1577 28.0952 32.0767C29.7524 33.8862 39.1428 43.9862 39.2381 44.091L39.3524 44.21L40.2714 43.4529L28.8714 31.2529V31.2577Z" fill="#E4B531"></path><path fill-rule="evenodd" clip-rule="evenodd" d="M30.6286 51.7388C30.6905 51.3388 30.7524 50.9626 30.8 50.6054C31.0143 48.034 30.7952 45.6054 30.181 43.7721C30.0048 42.5388 30.0286 41.0483 30.2381 39.5673V39.534C29.3524 37.8626 28.5857 36.1245 28 34.2769C27.1524 37.834 26.481 41.8769 27.4905 45.5388C28.3048 48.2197 27.0572 50.4721 26.9572 52.9959C26.9572 52.9959 26.9952 54.3054 26.9667 54.2864C26.9667 54.2864 28.2476 57.9245 31.7762 59.9769C29.6572 57.9673 30.1952 54.5292 30.6333 51.7435L30.6286 51.7388Z" fill="#0067B2"></path><path fill-rule="evenodd" clip-rule="evenodd" d="M32.581 52.1672C32.6572 51.2768 32.7381 50.3529 32.7191 49.4434C32.681 49.0625 32.6286 48.6625 32.581 48.272C32.3714 46.6387 32.1572 44.9482 32.5953 43.3958C31.8286 42.2672 31.1143 41.1196 30.4667 39.9434C30.4143 39.8529 30.3572 39.7672 30.3048 39.6768C30.1095 41.1149 30.0953 42.5577 30.2619 43.7482C30.8762 45.5863 31.0953 48.0244 30.881 50.6101C30.8333 50.972 30.7714 51.3482 30.7095 51.7482C30.2572 54.6291 29.6953 58.2053 32.0905 60.1434C32.1 60.1482 32.1143 60.1577 32.1238 60.1625C32.3286 60.2434 32.5334 60.3387 32.7381 60.4291C33.2143 60.6434 33.7048 60.8672 34.2238 60.9672C33.5762 59.9291 33.081 58.5672 32.6667 56.6958C32.3238 55.1958 32.4572 53.6529 32.5857 52.1625L32.581 52.1672Z" fill="white"></path><path fill-rule="evenodd" clip-rule="evenodd" d="M36.3476 48.3957C35.0333 46.7672 33.7857 45.1434 32.6524 43.4814C32.2429 45.0053 32.4524 46.6624 32.6524 48.2672C32.7 48.6529 32.7524 49.0529 32.7905 49.4434C32.8095 50.3576 32.7333 51.2814 32.6524 52.1767C32.5238 53.6624 32.3905 55.1957 32.7333 56.6862C33.1524 58.5957 33.6619 59.9672 34.3286 61.0053L34.3381 61.0195C34.8429 61.1481 35.381 61.2434 35.9476 61.2957C32.9381 54.7148 36.3429 48.4005 36.3429 48.4005L36.3476 48.3957Z" fill="#0067B2"></path><path d="M42.4714 72.3526C42.1619 72.0668 41.8381 71.7668 41.5095 71.4573C41.1667 71.1383 40.8095 70.8049 40.4429 70.4621C40.4762 70.4526 40.5095 70.443 40.5429 70.4335C41.2667 71.0383 41.8238 71.4383 42.2476 71.6811C42.6714 71.924 42.981 72.0192 43.1952 72.0002C43.6238 71.9573 43.3476 71.4716 42.9191 71.0335C42.6571 70.7668 42.3952 70.5526 42.1286 70.4097C41.9476 70.3145 41.6524 70.1764 41.3048 70.0573C41.1 69.9811 40.9 69.9049 40.7 69.8287C40.4095 69.7145 40.1476 69.6002 39.9 69.4811C39.6572 69.3621 39.4286 69.2383 39.2095 69.1002C38.8 68.8478 38.3381 68.4764 37.8333 68.0049C37.2524 67.4621 36.6857 66.8383 36.2952 66.2764C35.8762 65.6716 35.6571 65.124 35.8667 64.843C35.9762 64.6954 36.2286 64.6621 36.4571 64.6573C36.6905 64.6573 36.9048 64.6859 36.9191 64.6621C37 64.5668 36.8333 64.3478 36.5191 63.9621C36.5572 63.9145 36.5905 63.8621 36.6286 63.8145C37.2048 64.4287 37.7572 65.0097 38.2857 65.5716C38.7905 66.1049 39.2714 66.6145 39.7333 67.1049C39.6905 67.1335 39.6476 67.1573 39.6095 67.1859C38.9143 66.5621 38.1905 66.0049 37.5905 65.643C36.9857 65.2764 36.5286 65.1287 36.3714 65.3097C36.1667 65.5478 36.6238 66.2478 37.2857 66.8906C37.7 67.2859 38.0191 67.5478 38.2619 67.6764C38.5048 67.8049 38.9429 67.9859 39.5286 68.2002C39.7857 68.2906 40.0429 68.3859 40.3048 68.4764C40.6238 68.5764 40.9476 68.724 41.2619 68.924C41.8714 69.2811 42.4191 69.7383 42.9333 70.2859C43.3857 70.7668 43.7333 71.2668 43.8476 71.6478C43.9524 72.0002 43.8476 72.243 43.4238 72.2764C43.2429 72.2906 42.9905 72.2383 42.6952 72.1478C42.6524 72.1335 42.6143 72.124 42.5714 72.1097C42.5095 72.0906 42.4524 72.0716 42.4238 72.0764C42.3381 72.0859 42.4048 72.1716 42.5572 72.343C42.5191 72.343 42.4857 72.3478 42.4476 72.3526H42.4714Z" fill="#0067B2"></path><path d="M39.3714 63.7101C39.3714 63.7101 39.3952 63.6863 39.4095 63.6768C39.7381 63.9863 40.0714 64.3053 40.4095 64.6244C40.7571 64.953 41.1047 65.2863 41.4619 65.6244C41.4428 65.6434 41.4285 65.6672 41.4095 65.6863C40.8476 65.2101 40.3428 64.8768 39.9476 64.7006C39.5524 64.5244 39.2524 64.4958 39.1143 64.6339C38.8952 64.8482 39.1524 65.372 39.5809 65.8053C39.7238 65.9529 39.8524 66.0577 39.9857 66.1577C40.1619 66.2768 40.3571 66.3672 40.5714 66.4387C40.7381 66.5006 41.0286 66.5482 41.4619 66.6149C41.7714 66.6625 42.0571 66.7291 42.3143 66.8053C42.5714 66.8815 42.8047 66.9815 43.0095 67.0958C43.419 67.3387 43.8714 67.6815 44.3666 68.1529C44.9905 68.7482 45.519 69.4196 45.8666 70.0291C46.2238 70.6625 46.3905 71.2339 46.2476 71.5863C46.1571 71.8196 46.0047 71.9244 45.5666 71.9149C45.4476 71.9387 45.3762 71.9672 45.3571 72.0196C45.3143 72.1244 45.419 72.4053 45.7476 72.8482C45.7333 72.8863 45.719 72.9196 45.7047 72.9577C45.1524 72.3863 44.6143 71.8196 44.0857 71.2768C43.5762 70.7434 43.0714 70.2196 42.5857 69.7148C42.6047 69.6863 42.6238 69.6577 42.6381 69.6244C43.5143 70.4101 44.2571 70.9339 44.8095 71.191C45.3619 71.4529 45.7143 71.4387 45.8238 71.1815C45.9809 70.8053 45.5 69.9863 44.8952 69.3958C44.5143 69.0196 44.1571 68.8006 43.7714 68.6434C43.5571 68.5577 43.3095 68.5196 42.9619 68.472C42.4619 68.4006 42.0809 68.3149 41.7428 68.1863C41.4047 68.0577 41.1143 67.8958 40.8 67.6815C40.5095 67.472 40.1714 67.1863 39.8666 66.872C39.3476 66.3291 38.9619 65.772 38.7571 65.3006C38.5619 64.8482 38.5428 64.4815 38.7428 64.291C38.8143 64.2244 38.9095 64.191 39.019 64.1863C39.2047 64.1672 39.6333 64.272 39.6857 64.2196C39.7428 64.1672 39.7143 64.0863 39.3714 63.7006V63.7101Z" fill="#0067B2"></path><path d="M42.9572 28.1004C42.9572 27.7242 43.2619 27.4194 43.6381 27.4194C44.0143 27.4194 44.3191 27.7242 44.3191 28.1004C44.3191 28.4766 44.0143 28.7813 43.6381 28.7813C43.2619 28.7813 42.9572 28.4766 42.9572 28.1004Z" fill="#E4B531"></path><path d="M41.681 29.9625C42.057 29.9625 42.3619 29.6576 42.3619 29.2815C42.3619 28.9055 42.057 28.6006 41.681 28.6006C41.3049 28.6006 41 28.9055 41 29.2815C41 29.6576 41.3049 29.9625 41.681 29.9625Z" fill="#E4B531"></path><path d="M40.2476 30.9957C40.6237 30.9957 40.9286 30.6908 40.9286 30.3147C40.9286 29.9387 40.6237 29.6338 40.2476 29.6338C39.8715 29.6338 39.5667 29.9387 39.5667 30.3147C39.5667 30.6908 39.8715 30.9957 40.2476 30.9957Z" fill="#E4B531"></path><path d="M39.0953 33.9098C39.4713 33.9098 39.7762 33.6049 39.7762 33.2288C39.7762 32.8527 39.4713 32.5479 39.0953 32.5479C38.7192 32.5479 38.4143 32.8527 38.4143 33.2288C38.4143 33.6049 38.7192 33.9098 39.0953 33.9098Z" fill="#E4B531"></path><path d="M38.9571 35.4669C39.3332 35.4669 39.6381 35.162 39.6381 34.7859C39.6381 34.4099 39.3332 34.105 38.9571 34.105C38.5811 34.105 38.2762 34.4099 38.2762 34.7859C38.2762 35.162 38.5811 35.4669 38.9571 35.4669Z" fill="#E4B531"></path><path d="M46.7809 27.6004C46.7809 27.2242 47.0857 26.9194 47.4619 26.9194C47.8381 26.9194 48.1428 27.2242 48.1428 27.6004C48.1428 27.9766 47.8381 28.2813 47.4619 28.2813C47.0857 28.2813 46.7809 27.9766 46.7809 27.6004Z" fill="#E4B531"></path><path d="M45.681 29.3526C46.057 29.3526 46.3619 29.0478 46.3619 28.6717C46.3619 28.2956 46.057 27.9907 45.681 27.9907C45.3049 27.9907 45 28.2956 45 28.6717C45 29.0478 45.3049 29.3526 45.681 29.3526Z" fill="#E4B531"></path><path d="M44.9762 30.9288C45.3523 30.9288 45.6571 30.6239 45.6571 30.2478C45.6571 29.8718 45.3523 29.5669 44.9762 29.5669C44.6001 29.5669 44.2952 29.8718 44.2952 30.2478C44.2952 30.6239 44.6001 30.9288 44.9762 30.9288Z" fill="#E4B531"></path><path d="M43.7667 31.7577C43.7667 31.4577 44.0095 31.2148 44.3095 31.2148C44.6095 31.2148 44.8524 31.4577 44.8524 31.7577C44.8524 32.0577 44.6095 32.3006 44.3095 32.3006C44.0095 32.3006 43.7667 32.0577 43.7667 31.7577Z" fill="#E4B531"></path><path d="M48.7905 27.3958C48.7905 27.0196 49.0952 26.7148 49.4714 26.7148C49.8476 26.7148 50.1524 27.0196 50.1524 27.3958C50.1524 27.772 49.8476 28.0767 49.4714 28.0767C49.0952 28.0767 48.7905 27.772 48.7905 27.3958Z" fill="#E4B531"></path><path d="M58.981 31.4051C58.981 31.0289 59.2857 30.7241 59.6619 30.7241C60.0381 30.7241 60.3429 31.0289 60.3429 31.4051C60.3429 31.7813 60.0381 32.086 59.6619 32.086C59.2857 32.086 58.981 31.7813 58.981 31.4051Z" fill="#E4B531"></path><path d="M54.9048 28.1004C54.9048 27.7242 55.2095 27.4194 55.5857 27.4194C55.9619 27.4194 56.2667 27.7242 56.2667 28.1004C56.2667 28.4766 55.9619 28.7813 55.5857 28.7813C55.2095 28.7813 54.9048 28.4766 54.9048 28.1004Z" fill="#E4B531"></path><path d="M57.2381 29.6241C57.6142 29.6241 57.919 29.3192 57.919 28.9432C57.919 28.5671 57.6142 28.2622 57.2381 28.2622C56.862 28.2622 56.5571 28.5671 56.5571 28.9432C56.5571 29.3192 56.862 29.6241 57.2381 29.6241Z" fill="#E4B531"></path><path d="M57.9952 29.9812C57.9952 29.6051 58.3 29.3003 58.6762 29.3003C59.0524 29.3003 59.3571 29.6051 59.3571 29.9812C59.3571 30.3574 59.0524 30.6622 58.6762 30.6622C58.3 30.6622 57.9952 30.3574 57.9952 29.9812Z" fill="#E4B531"></path><path d="M60.0572 33.5767C60.4333 33.5767 60.7381 33.2719 60.7381 32.8958C60.7381 32.5197 60.4333 32.2148 60.0572 32.2148C59.6811 32.2148 59.3762 32.5197 59.3762 32.8958C59.3762 33.2719 59.6811 33.5767 60.0572 33.5767Z" fill="#E4B531"></path><path d="M60.1619 35.2291C60.538 35.2291 60.8429 34.9242 60.8429 34.5481C60.8429 34.1721 60.538 33.8672 60.1619 33.8672C59.7858 33.8672 59.481 34.1721 59.481 34.5481C59.481 34.9242 59.7858 35.2291 60.1619 35.2291Z" fill="#E4B531"></path><path d="M51.0809 27.6004C51.0809 27.2242 51.3857 26.9194 51.7619 26.9194C52.1381 26.9194 52.4428 27.2242 52.4428 27.6004C52.4428 27.9766 52.1381 28.2813 51.7619 28.2813C51.3857 28.2813 51.0809 27.9766 51.0809 27.6004Z" fill="#E4B531"></path><path d="M53.3714 29.3526C53.7475 29.3526 54.0524 29.0478 54.0524 28.6717C54.0524 28.2956 53.7475 27.9907 53.3714 27.9907C52.9954 27.9907 52.6905 28.2956 52.6905 28.6717C52.6905 29.0478 52.9954 29.3526 53.3714 29.3526Z" fill="#E4B531"></path><path d="M54.0095 30.9625C54.3856 30.9625 54.6905 30.6576 54.6905 30.2815C54.6905 29.9055 54.3856 29.6006 54.0095 29.6006C53.6334 29.6006 53.3286 29.9055 53.3286 30.2815C53.3286 30.6576 53.6334 30.9625 54.0095 30.9625Z" fill="#E4B531"></path><path d="M54.0667 31.7577C54.0667 31.4577 54.3095 31.2148 54.6095 31.2148C54.9095 31.2148 55.1524 31.4577 55.1524 31.7577C55.1524 32.0577 54.9095 32.3006 54.6095 32.3006C54.3095 32.3006 54.0667 32.0577 54.0667 31.7577Z" fill="#E4B531"></path><path d="M43.519 38.753L42.0048 38.6196L41.5048 39.8149L42.6333 39.9863L43.519 38.753Z" fill="#0067B2"></path><path d="M55.6714 38.7957L57.0381 38.4243L57.6429 39.7243L56.4095 39.8148L55.6714 38.7957Z" fill="#0067B2"></path><path fill-rule="evenodd" clip-rule="evenodd" d="M53.1905 66.2385L53.2857 66.1909L53.3809 66.1337C57.6095 63.548 61.9809 60.8766 67.1809 60.6575C67.0667 60.5385 66.9429 60.4147 66.819 60.2956C66.5381 60.0385 66.2619 59.8052 65.9333 59.5433C65.3286 59.4385 64.7 59.3813 64.0714 59.3813C61.9857 59.3813 59.819 59.9528 57.6381 61.0766C55.9809 61.8147 54.4 62.8575 52.8762 63.8623C50.8048 65.2337 48.6619 66.648 46.2667 67.3337L46.4429 67.6956C46.5333 67.8671 46.619 68.0433 46.7 68.2194L46.9952 68.8242C49.1952 68.2861 51.2238 67.2433 53.1857 66.2385H53.1905Z" fill="white"></path><path fill-rule="evenodd" clip-rule="evenodd" d="M48.6476 61.7864C52.3333 59.3197 56.1476 56.7673 60.819 56.7673C61.1762 56.7673 61.5428 56.7816 61.9047 56.8149C61.3381 56.4054 60.8095 55.9769 60.3333 55.553C58.1428 55.4911 55.6809 55.8626 53.4762 56.5911C51.4381 57.1245 49.6476 58.3816 47.919 59.5959C46.9762 60.2578 46.0047 60.9435 44.9952 61.5054C44.519 61.8197 43.9762 62.1149 43.4524 62.4007C42.8809 62.7102 42.3428 63.0054 41.8714 63.3245L41.9619 63.3816C42.5762 63.6769 43.1524 64.034 43.6904 64.4483C44.819 64.0721 45.9333 63.4721 46.9809 62.8816C47.5333 62.5245 48.0952 62.1483 48.6381 61.7816L48.6476 61.7864Z" fill="white"></path><path fill-rule="evenodd" clip-rule="evenodd" d="M58.6667 69.8055C62.3095 67.2436 66.0762 64.596 70.7762 64.4627C70.3 63.9817 69.7476 63.4246 69.2048 62.8579C66.4191 63.0722 64.0762 64.1674 61.9619 65.3198C57.7619 67.977 53.0048 70.996 47.5905 72.1436C47.5905 72.2055 47.5905 72.2627 47.5905 72.3246C47.5905 72.977 47.5238 73.6151 47.4048 74.2341C47.4048 74.2484 47.4048 74.2579 47.4048 74.2722C51.1572 74.2579 54.3381 72.5293 57.5334 70.6055C57.9143 70.3436 58.2905 70.077 58.6714 69.8103L58.6667 69.8055Z" fill="white"></path><path fill-rule="evenodd" clip-rule="evenodd" d="M53.4191 66.1957L53.3191 66.2576L53.2191 66.31C51.2429 67.3242 49.2048 68.3719 46.981 68.91C47.3429 69.9004 47.5524 70.9623 47.581 72.0671C52.9762 70.9147 57.7238 67.91 61.9191 65.2528C64.0286 64.1052 66.3571 63.0147 69.1333 62.7862C68.4952 62.1195 67.881 61.4528 67.4238 60.9195C67.3667 60.8528 67.3095 60.7909 67.2476 60.729C62.0381 60.9242 57.6571 63.6052 53.4191 66.1957Z" fill="#0067B2"></path><path fill-rule="evenodd" clip-rule="evenodd" d="M70.8524 64.5385C66.1429 64.648 62.3667 67.3004 58.7143 69.867C58.3333 70.1337 57.9524 70.4004 57.5714 70.667C54.3571 72.6004 51.1619 74.3385 47.3857 74.348C47.2429 75.0337 47.0333 75.6956 46.7571 76.3194C49.1048 76.9623 54.8476 77.167 64.8619 69.2194C68.3143 67.1385 70.5 66.2432 72.1429 65.8099C72.1429 65.8099 71.6 65.2813 70.8524 64.5337V64.5385Z" fill="#0067B2"></path><path fill-rule="evenodd" clip-rule="evenodd" d="M52.8333 63.8005C54.3619 62.791 55.9429 61.7481 57.6048 61.01C59.7952 59.8815 61.9714 59.3053 64.0714 59.3053C64.6809 59.3053 65.281 59.3577 65.8667 59.4529C64.7095 58.5005 63.6524 57.8434 63.919 58.0434C63.2571 57.7148 62.619 57.3243 62.0238 56.9053C61.6238 56.8672 61.2143 56.8481 60.8143 56.8481C56.1667 56.8481 52.3619 59.391 48.6857 61.8529C48.1429 62.2148 47.5809 62.5958 47.0238 62.9529C45.9857 63.5339 44.8857 64.1291 43.7667 64.5101C44.7429 65.272 45.5714 66.21 46.2048 67.2767C48.6 66.5958 50.7524 65.1767 52.8286 63.8005H52.8333Z" fill="#0067B2"></path><path fill-rule="evenodd" clip-rule="evenodd" d="M41.7857 63.3006C42.2667 62.9673 42.8524 62.6482 43.419 62.3387C43.9429 62.053 44.481 61.7577 44.9571 61.4435C45.9619 60.8815 46.9333 60.1958 47.8762 59.5387C49.6095 58.3196 51.4048 57.0577 53.4524 56.5244C55.6333 55.8054 58.0667 55.4292 60.2429 55.4815C58.6952 54.0958 57.7143 52.8292 57.7143 52.8292C57.7143 52.8292 51.8905 52.4244 45.4 58.3054C41.0095 61.5101 37.8 61.5482 37.8 61.5482C37.8 61.5482 30.7571 62.6625 27 55.3815C27 55.3815 27.3238 56.5387 28.7143 59.5054C28.7143 59.5054 29.2238 61.453 31.0333 62.1006C31.0333 62.1006 31.8143 62.6435 32.8571 63.6625C34.2857 62.8673 35.9333 62.4101 37.681 62.4101C39.1429 62.4101 40.5333 62.7292 41.7857 63.3006Z" fill="#0067B2"></path><path d="M42.2143 38.6292C42.2143 38.6292 42.2286 38.6244 42.2333 38.6196H42.2238L42.2143 38.6292Z" fill="#E4B531"></path><path d="M52.3715 37.8051L53.9476 38.1289C54.2334 38.186 54.4238 38.4098 54.381 38.6241C54.3381 38.8384 54.0715 38.967 53.7905 38.9098L52.2143 38.586C51.9286 38.5289 51.7381 38.3051 51.781 38.0908C51.8238 37.8765 52.0905 37.7479 52.3715 37.8051Z" fill="#E2101A"></path><path d="M46.2905 37.8098L44.7095 38.1479C44.4238 38.2098 44.2334 38.4336 44.2762 38.6479C44.3238 38.8622 44.5905 38.986 44.8762 38.9289L46.4572 38.5908C46.7429 38.5289 46.9334 38.305 46.8905 38.0908C46.8476 37.8765 46.5762 37.7527 46.2905 37.8098Z" fill="#E2101A"></path><path d="M56.8191 38.4624C52.5476 36.5338 46.4 36.4719 42.2333 38.6196L43.5667 38.7624L42.7 39.9243C45.3571 38.6196 48.7905 38.1386 51.9714 38.5338C51.8 38.4243 51.6952 38.2481 51.7333 38.0767C51.7714 37.8815 51.981 37.7434 52.2333 37.7434C52.281 37.7434 52.3333 37.7481 52.381 37.7577L53.9571 38.0815C54.2667 38.1434 54.4762 38.391 54.4286 38.6338C54.4 38.7815 54.2714 38.9005 54.1048 38.9481C54.8714 39.1529 55.6095 39.4148 56.2952 39.7386C56.1095 39.4386 55.8048 39.1386 55.6571 38.8005C55.9762 38.5958 56.4619 38.6148 56.8191 38.4624ZM46.8762 38.3719C46.7905 38.5005 46.6429 38.5957 46.4714 38.6338L44.8905 38.9719C44.8381 38.9815 44.7857 38.9862 44.7381 38.9862C44.4857 38.9862 44.281 38.8481 44.2381 38.6577C44.2191 38.5577 44.2381 38.4577 44.3 38.3672C44.3857 38.2386 44.5333 38.1434 44.7048 38.1053L46.2857 37.7672C46.3381 37.7577 46.3905 37.7529 46.4381 37.7529C46.6905 37.7529 46.8952 37.891 46.9381 38.0815C46.9571 38.1815 46.9381 38.2815 46.881 38.3719H46.8762ZM49.5476 38.2767L48.2667 37.8148L49.5619 37.2386L50.8429 37.8148L49.5476 38.2767Z" fill="#E4B531"></path><path d="M30.7095 11.3384L31.1143 12.0717L28.9 13.2955L29.2476 13.9289L31.2143 12.8431L31.6143 13.5717L29.6476 14.6574L30.1333 15.5336L29.2714 16.0098L27.6333 13.0431L30.7095 11.3431V11.3384Z" fill="white"></path><path d="M36.3 12.6237L35.7619 12.1523L33.8286 12.938L33.7714 13.6523L32.7905 14.0523L33.1333 10.2571L34.3905 9.74756L37.2809 12.2285L36.3048 12.6237H36.3ZM33.8952 12.1142L35.1333 11.6095L34.0143 10.6333L33.8952 12.1142Z" fill="white"></path><path d="M41.3476 10.1764L40.7619 7.81927L41.7095 7.58594L42.5238 10.8764L41.1285 11.224L38.6047 9.34784L39.1904 11.705L38.2381 11.9431L37.4238 8.6526L38.8238 8.30499L41.3476 10.1812V10.1764Z" fill="white"></path><path d="M46.119 6.96208L50.2 6.79541L50.2333 7.62874L48.6857 7.69065L48.7904 10.243L47.8095 10.2811L47.7047 7.72874L46.1524 7.79065L46.119 6.95731V6.96208Z" fill="white"></path><path d="M51.3904 8.49526C51.4857 7.37622 52.3143 6.78098 53.7381 6.90479C55.1571 7.0286 55.8762 7.75717 55.7809 8.87145C55.6857 9.9905 54.8523 10.5953 53.4333 10.4715C52.0095 10.3476 51.2952 9.61907 51.3904 8.49526ZM54.7571 8.78574C54.8095 8.20003 54.5047 7.80955 53.6666 7.73812C52.8333 7.66669 52.4666 7.9905 52.419 8.58574C52.3666 9.18098 52.6762 9.57145 53.5047 9.64288C54.3381 9.71431 54.7095 9.38098 54.7619 8.7905L54.7571 8.78574Z" fill="white"></path><path d="M61.6237 8.36681L59.6333 9.38109L60.8809 11.6763L59.6761 11.4049L58.8095 9.8049L57.8618 10.2859L57.7095 10.9573L56.7523 10.7382L57.4999 7.42871L58.4618 7.643L58.1285 9.12871L60.1952 8.03823L61.6333 8.36204L61.6237 8.36681Z" fill="white"></path><path d="M66.3285 9.99553L66.0666 10.7193L63.6857 9.85744L63.5 10.367L65.7905 11.1955L65.5285 11.9193L63.2381 11.0908L63.0524 11.6003L65.4333 12.4622L65.1714 13.186L61.8666 11.9908L63.019 8.80029L66.3238 9.99553H66.3285Z" fill="white"></path><path d="M69.7618 14.3526L70.8761 12.1907L71.7476 12.6383L70.1904 15.6526L68.9095 14.9907L68.2476 11.9097L67.1333 14.0716L66.2571 13.6193L67.8142 10.605L69.0999 11.2669L69.7618 14.3478V14.3526Z" fill="white"></path><path d="M27.3952 85.4763C27.2476 85.7192 27.3952 86.0239 28.1571 86.4858C28.8571 86.9049 29.0952 86.9001 29.2047 86.7192C29.3333 86.5097 29.2238 86.3906 28.3952 85.8144C27.2666 85.024 26.8904 84.4763 27.2762 83.8335C27.6428 83.2287 28.4619 83.3478 29.4666 83.9525C30.5857 84.6239 31.0238 85.3525 30.6619 86.0144L29.7809 85.4859C29.9333 85.2287 29.7143 84.962 29.0619 84.5716C28.4428 84.2001 28.2428 84.2192 28.1476 84.3763C28.0381 84.5573 28.1476 84.6954 28.8952 85.2335C29.9143 85.9573 30.5619 86.4478 30.1047 87.2097C29.6571 87.9525 28.8381 87.7573 27.8047 87.1335C26.6285 86.4239 26.0904 85.7382 26.5095 84.9478L27.3904 85.4811L27.3952 85.4763Z" fill="white"></path><path d="M31.5238 87.1909C31.9714 86.1576 32.9428 85.8623 34.2571 86.429C35.5667 86.9957 36.0143 87.9147 35.5714 88.9433C35.1238 89.9766 34.1428 90.2814 32.8333 89.7147C31.519 89.148 31.0762 88.229 31.5238 87.1909ZM34.6286 88.5385C34.8619 87.9957 34.6952 87.5338 33.9238 87.1957C33.1571 86.8623 32.7047 87.0576 32.4714 87.6004C32.2333 88.1481 32.4047 88.6147 33.1667 88.948C33.9333 89.2814 34.3952 89.0814 34.6286 88.5338V88.5385Z" fill="white"></path><path d="M39.3047 88.2194C40.5047 88.5575 41.0428 89.2623 40.9047 90.129L39.9 89.848C39.919 89.529 39.6857 89.1909 39.0809 89.0242C38.3809 88.829 37.9476 89.0766 37.7857 89.648C37.6238 90.2242 37.8714 90.6671 38.5666 90.8623C39.1714 91.029 39.5476 90.8623 39.6952 90.5718L40.7 90.8528C40.3666 91.6718 39.5428 92.0004 38.3381 91.6671C37.0285 91.3004 36.4809 90.4909 36.7905 89.3718C37.1047 88.2575 37.9905 87.8528 39.3 88.2194H39.3047Z" fill="white"></path><path d="M43.3952 89.2289L42.7952 92.5623L41.8286 92.3861L42.4286 89.0527L43.3952 89.2289Z" fill="white"></path><path d="M44.419 91.1481C44.5095 90.029 45.3333 89.4338 46.7571 89.5481C48.1762 89.6624 48.9 90.3909 48.8047 91.5052C48.7143 92.6243 47.8857 93.229 46.4619 93.1147C45.0381 93.0005 44.319 92.2719 44.4143 91.1481H44.419ZM47.7857 91.4243C47.8333 90.8386 47.5285 90.4528 46.6905 90.3814C45.8571 90.3148 45.4952 90.6433 45.4428 91.2338C45.3952 91.829 45.7047 92.2148 46.5333 92.2862C47.3666 92.3528 47.7381 92.0195 47.7857 91.4243Z" fill="white"></path><path d="M51.119 92.048C51.1333 92.3337 51.4238 92.5051 52.3143 92.4575C53.1286 92.4146 53.3238 92.2766 53.3095 92.0623C53.2952 91.8146 53.1428 91.7813 52.1333 91.767C50.7571 91.7432 50.1333 91.5004 50.0952 90.748C50.0571 90.0432 50.8047 89.6813 51.9762 89.6242C53.2809 89.5575 54.0524 89.9099 54.119 90.6623L53.0952 90.7146C53.0809 90.4146 52.7476 90.3194 51.9857 90.3575C51.2666 90.3956 51.1095 90.5242 51.119 90.7051C51.1285 90.9146 51.2952 90.9718 52.219 91.0004C53.4666 91.0289 54.2809 91.0718 54.3285 91.9623C54.3714 92.8289 53.5857 93.1242 52.3809 93.1861C51.0095 93.2575 50.1762 92.9861 50.0857 92.0956L51.1143 92.0432L51.119 92.048Z" fill="white"></path><path d="M55.7428 92.0429L56.6809 91.9048L56.7857 92.6334L55.8476 92.7715L55.738 92.0429H55.7428Z" fill="white"></path><path d="M59.4809 88.5382C60.6952 88.243 61.5095 88.5953 61.8143 89.4191L60.8 89.6668C60.6619 89.3763 60.2905 89.2001 59.6809 89.3477C58.9762 89.5192 58.719 89.9477 58.8571 90.5287C59 91.1096 59.4333 91.3763 60.1333 91.2049C60.7428 91.0572 60.9905 90.7239 60.9762 90.3953L61.9905 90.1477C62.1 91.0239 61.5428 91.7191 60.3286 92.0144C59.0047 92.3382 58.1286 91.9001 57.8524 90.7715C57.5762 89.6477 58.1524 88.862 59.4762 88.5382H59.4809Z" fill="white"></path><path d="M63.1523 89.3956C62.738 88.348 63.219 87.448 64.5476 86.9242C65.8714 86.4003 66.8428 86.7337 67.2523 87.7765C67.6666 88.8242 67.1857 89.7337 65.8618 90.2575C64.5333 90.7813 63.5666 90.448 63.1523 89.3956ZM66.2999 88.1527C66.0857 87.6051 65.638 87.3908 64.8571 87.7003C64.0809 88.0051 63.8952 88.4622 64.1142 89.0146C64.3333 89.5718 64.7857 89.7813 65.5571 89.4765C66.3333 89.1718 66.519 88.7051 66.2999 88.1527Z" fill="white"></path><path d="M69.3381 88.6907L67.6333 85.7574L68.9571 84.986L71.1095 86.3383L70.9952 83.8002L72.319 83.0288L74.0238 85.9621L73.1762 86.4526L71.9428 84.3288L72.0762 87.0955L71.2904 87.5526L68.9524 86.0717L70.1904 88.1955L69.3381 88.6907Z" fill="white"></path><path d="M23.019 81.8382C13.9952 74.1811 8.26666 62.7573 8.26666 50.0001C8.26666 37.243 14.3 25.2144 23.7381 17.562" stroke="white" stroke-miterlimit="10"></path><path d="M76.2666 17.5669C85.7047 25.2193 91.7333 36.905 91.7333 50.0002C91.7333 63.0955 86.0047 74.1859 76.9809 81.8431" stroke="white" stroke-miterlimit="10"></path></g><defs><clipPath id="clip0_101_22090"><rect width="100" height="100" fill="white"></rect></clipPath></defs></svg>