<svg xmlns="http://www.w3.org/2000/svg" width="100" height="100" viewBox="0 0 100 100" fill="none"><g clip-path="url(#clip0_101_22080)"><path d="M50 100C77.6142 100 100 77.6142 100 50C100 22.3858 77.6142 0 50 0C22.3858 0 0 22.3858 0 50C0 77.6142 22.3858 100 50 100Z" fill="#E20613"></path><path d="M50 2.53333C76.1714 2.53333 97.4667 23.8286 97.4667 50C97.4667 76.1714 76.1714 97.4667 50 97.4667C23.8286 97.4667 2.53333 76.1714 2.53333 50C2.53333 23.8286 23.8286 2.53333 50 2.53333ZM50 0C22.3857 0 0 22.3857 0 50C0 77.6143 22.3857 100 50 100C77.6143 100 100 77.6143 100 50C100 22.3857 77.6143 0 50 0Z" fill="white"></path><path fill-rule="evenodd" clip-rule="evenodd" d="M50 16.4766C68.5143 16.4766 83.5238 31.4861 83.5238 50.0004C83.5238 68.5147 68.5095 83.5242 50 83.5242C31.4905 83.5242 16.4762 68.5147 16.4762 50.0004C16.4762 31.4861 31.4905 16.4766 50 16.4766Z" fill="white"></path><path fill-rule="evenodd" clip-rule="evenodd" d="M50.0001 17.2812C68.0858 17.2812 82.7524 31.9336 82.7524 50.0003C82.7524 68.067 68.0858 82.7194 50.0001 82.7194C31.9143 82.7194 17.2524 68.067 17.2524 50.0003C17.2524 31.9336 31.9191 17.2812 50.0001 17.2812Z" fill="#E20613"></path><path fill-rule="evenodd" clip-rule="evenodd" d="M50 17.9478C67.7143 17.9478 82.081 32.3001 82.081 50.0001C82.081 67.7001 67.7143 82.0525 50 82.0525C32.2857 82.0525 17.9191 67.6954 17.9191 50.0001C17.9191 32.3049 32.2857 17.9478 50 17.9478Z" fill="white"></path><path fill-rule="evenodd" clip-rule="evenodd" d="M50 24.1812C64.2714 24.1812 75.8428 35.7431 75.8428 50.0002C75.8428 64.2573 64.2714 75.8192 50 75.8192C35.7285 75.8192 24.1571 64.2573 24.1571 50.0002C24.1571 35.7431 35.7285 24.1812 50 24.1812Z" fill="#E20613"></path><path fill-rule="evenodd" clip-rule="evenodd" d="M50 24.8481C63.9 24.8481 75.1762 36.11 75.1762 49.9958C75.1762 63.8815 63.9 75.1481 50 75.1481C36.1 75.1481 24.8239 63.8862 24.8239 49.9958C24.8239 36.1053 36.1 24.8481 50 24.8481Z" fill="white"></path><path fill-rule="evenodd" clip-rule="evenodd" d="M50 25.5146C63.5333 25.5146 74.5095 36.4766 74.5095 49.9956C74.5095 63.5146 63.5333 74.4861 50 74.4861C36.4667 74.4861 25.4952 63.5194 25.4952 49.9956C25.4952 36.4718 36.4667 25.5146 50 25.5146Z" fill="#E20613"></path><path d="M48.8476 58.2622C47.1523 58.1432 45.8571 57.8527 45.5761 57.786C45.2095 58.7956 44.6285 59.948 43.7047 61.0051C45.3619 61.4384 48.7428 61.9384 51.538 61.8622C54.2476 61.7861 55.2142 61.5813 57.6714 60.9146C57.6714 60.9146 57.9285 60.0051 57.9285 59.2861C57.9285 58.567 57.8047 58.0527 57.6047 57.6289C56.5476 57.8956 55.4714 58.1337 54.0761 58.2718C53.2761 58.348 50.8952 58.4099 48.838 58.267L48.8476 58.2622Z" fill="#EFEC98"></path><path d="M60.4905 41.7909C60.1428 42.729 60.0714 43.4004 60.0714 43.4004C63.7762 44.9956 65.4905 47.0623 65.4905 47.0623H66.3524L66.7714 46.6004C65.4286 44.2909 65.8667 39.4432 65.8667 39.4432L64.3762 38.9575L62.9238 40.9337C62.3714 40.6718 61.8238 40.4337 61.2809 40.2194C61.2809 40.2194 60.8286 40.8623 60.4857 41.7909H60.4905Z" fill="white"></path><path d="M65.8047 53.8384C65.2952 54.205 64.0762 54.9622 64.0762 54.9622C64.5571 56.005 64.5952 57.0003 64.5857 57.8193C66.5762 56.4622 67.5714 55.2289 67.5714 55.2289L65.8095 53.8431L65.8047 53.8384Z" fill="white"></path><path d="M39.681 54.6716C39.681 54.6716 39.5524 54.5573 39.4953 54.5002C35.1953 50.2811 38.5905 46.1287 38.5572 46.0573C37.7572 44.2383 37.7905 42.5097 37.8 41.8668C37.8 41.8621 37.8 41.8525 37.8 41.8525C37.7524 41.8859 37.6477 41.9621 37.6381 41.9716C34.9096 43.943 33.3048 46.124 32.4524 47.1906C30.6905 49.3716 29.3667 50.0049 29.3667 50.0049C29.3667 50.0049 30.6477 51.1383 31.9286 52.8763C32.581 53.7811 34.2572 56.0906 37.3048 58.1383C37.7667 57.6478 38.2667 57.0144 38.781 56.1954C38.9619 55.9002 39.6143 54.8954 39.6857 54.6763L39.681 54.6716Z" fill="white"></path><path d="M47.1524 63.8814C44.0095 63.4291 42.6572 61.0576 42.6572 61.0576C43.7953 59.9957 44.4238 58.8576 44.9572 57.6481C45.2429 56.9957 45.5667 55.7767 45.4619 54.7529C45.3857 54.0195 45.0191 53.2624 44.1 52.8767C42.9429 52.3957 41.5857 52.7433 40.3714 54.9243C39.2334 56.9672 38.0667 58.3576 38.0667 58.3576C38.0667 58.3576 37.4 59.1957 36.3667 59.8481C35.4953 60.3957 34.9286 60.4862 34.9286 60.4862L35.3714 62.21L37.6572 62.3767C43.6143 67.1053 46.7572 67.1719 47.1524 67.1624V63.8814Z" fill="white"></path><path d="M62.2286 52.9054C60.981 51.5149 58.6001 49.1387 54.2477 48.0625V53.8006C54.6905 53.9958 57.3667 55.2482 58.3191 57.4339C58.3191 57.4339 58.3286 57.4482 58.3286 57.4577C59.6143 60.2911 57.8143 63.7149 54.2477 63.8863V67.2054C54.7429 67.1911 59.5953 66.9387 62.381 62.8101C65.1096 58.7673 63.7715 54.6339 62.2286 52.9054Z" fill="white"></path><path d="M59.9429 35.872C59.9429 35.872 55.6191 32.772 54.2524 32.7148V36.0434C54.5572 36.1529 56.481 36.9291 56.9286 38.8625C56.9286 38.8625 57.1001 39.6291 56.9858 40.5577C56.8477 41.6434 56.1953 42.8101 56.0143 43.1006C55.1715 44.4672 55.9191 46.0339 57.2858 45.9625C58.3286 45.9101 58.7429 45.191 59.0382 44.2625C59.1572 43.8815 59.3382 42.7006 60.2096 40.7482C61.1191 38.7148 62.5239 37.4958 62.5239 37.4958V35.8196C62.5239 35.8196 61.2429 36.7339 59.9429 35.8767V35.872Z" fill="white"></path><path d="M46.4285 30.5097C47.319 30.5192 48.0571 31.2001 48.0333 32.4811V37.4954C48.8523 37.4192 49.8333 37.3478 50.5809 37.343C52.1095 37.3287 53.3666 37.4954 53.3666 37.4954V32.4811C53.3666 31.4906 53.8381 30.7239 54.6952 30.5287C55.6047 30.3239 56.2428 31.0525 56.2381 31.0144C56.119 28.443 53.9762 28.2859 53.9762 28.2859C52.6952 28.2859 52.3333 28.8525 52.3333 28.8525C51.6381 27.743 50.719 27.4478 50.719 27.4478C50.719 27.4478 49.7523 27.743 49.0809 28.8525C49.0809 28.8525 48.7238 28.2859 47.4428 28.2859C47.4428 28.2859 45.2476 28.4478 45.1571 31.0811C45.1571 31.1049 45.6 30.5049 46.4285 30.5097Z" fill="white"></path><path d="M56.3429 40.3624C56.4286 39.4481 56.1858 38.6814 56.1858 38.6814C56.1858 38.6814 54.5334 38.3386 53.6572 38.2195C52.7001 38.091 51.5715 38.0005 50.3286 38.0338C48.262 38.0957 45.5143 38.5052 44.3905 38.8005C44.3905 38.8005 43.3572 40.4433 44.2905 42.6005C44.2905 42.6005 47.9239 41.6576 50.5953 41.5767C53.3048 41.491 55.0001 41.9719 55.7334 42.1148C55.7334 42.1148 56.2477 41.3243 56.3382 40.3624H56.3429Z" fill="white"></path><path d="M54.6809 69.3766C53.7333 69.1861 53.3666 68.3766 53.3666 67.4814V62.429C52.3714 62.5433 50.4095 62.5718 48.0333 62.3813V67.4766C48.0333 68.9385 47.0809 69.4575 46.2666 69.3813C45.5285 69.3099 45.1571 68.7861 45.1571 68.8194C45.2142 71.5147 47.4476 71.6718 47.4476 71.6718C48.7285 71.6718 49.0857 71.1052 49.0857 71.1052C49.7571 72.2147 50.7238 72.5099 50.7238 72.5099C50.7238 72.5099 51.6476 72.2194 52.3381 71.1052C52.3381 71.1052 52.6952 71.6718 53.9809 71.6718C53.9809 71.6718 56.1762 71.5099 56.2476 68.848C56.2476 68.8052 55.7381 69.5861 54.6857 69.3718L54.6809 69.3766Z" fill="white"></path><path d="M53.3667 57.6291V42.4957C53.3667 42.4957 52.1619 42.3196 50.7905 42.3243C49.2714 42.3243 48.0333 42.5719 48.0333 42.5719V57.5053C48.819 57.6338 51.6762 57.7148 53.3667 57.6338V57.6291Z" fill="white"></path><path d="M47.1524 45.8528C47.1524 45.8528 43.1857 44.8242 43.1857 40.7433C43.1857 36.6623 47.1524 36.0052 47.1524 36.0052V32.71C47.1524 32.71 39.0143 34.2957 38.4429 41.4195C37.9953 46.9671 42.1334 50.1242 47.1524 51.6338V45.8528Z" fill="white"></path><path d="M48.8476 58.2621C47.1523 58.1431 45.8571 57.8526 45.5761 57.7859C45.2095 58.7955 44.6285 59.9478 43.7047 61.005C45.3619 61.4383 48.7428 61.9383 51.538 61.8621C54.2476 61.7859 55.2904 61.5764 57.7523 60.9097C57.7523 60.9097 58.138 60.1955 58.0714 59.0383C58.019 58.205 57.6095 57.624 57.6095 57.624C56.5523 57.8907 55.4761 58.1288 54.0809 58.2669C53.2809 58.3431 50.9 58.405 48.8428 58.2621H48.8476Z" fill="white"></path><path d="M22.5429 46.6051L21.9858 45.9337C22.3286 45.6337 22.5477 45.267 22.6239 44.8575C22.6715 44.5908 22.6048 44.4337 22.4524 44.4051H22.4429C22.2953 44.3765 22.1905 44.4765 21.9905 44.9432C21.6762 45.6718 21.3572 46.2146 20.6239 46.0813H20.6143C19.9524 45.9575 19.5715 45.348 19.7286 44.4908C19.8381 43.8861 20.0905 43.4432 20.4715 43.1099L21.0762 43.7337C20.7858 44.0194 20.6001 44.3527 20.5429 44.667C20.5001 44.9051 20.581 45.0432 20.7048 45.067H20.7143C20.8762 45.1003 20.9715 44.9908 21.1715 44.5146C21.5001 43.7289 21.8572 43.267 22.5239 43.3908H22.5334C23.262 43.5242 23.5905 44.1813 23.4286 45.0432C23.3143 45.6765 23.0048 46.2384 22.5334 46.6051H22.5429Z" fill="#E20613"></path><path d="M22.9286 42.4908L23.2334 41.5146L24.1953 41.8146L23.8905 42.7908L22.9286 42.4908Z" fill="#E20613"></path><path d="M23.5049 38.3762H23.4954C22.5573 37.8905 22.1906 36.7905 22.6858 35.8143C23.0239 35.1572 23.5144 34.8715 24.0573 34.7905L24.2334 35.7286C23.9096 35.7953 23.6525 35.9334 23.4954 36.2381C23.2668 36.6905 23.4858 37.2048 23.9525 37.4429H23.962C24.4477 37.6953 24.9858 37.5715 25.2192 37.1191C25.3906 36.781 25.3334 36.5048 25.2001 36.1905L26.0239 35.762C26.2858 36.281 26.3858 36.8477 26.0239 37.562C25.5525 38.481 24.4668 38.8667 23.5049 38.3715V38.3762Z" fill="#E20613"></path><path d="M26.4333 34.6619L27.0334 33.8286L27.8524 34.4191L27.2524 35.2524L26.4333 34.6619Z" fill="#E20613"></path><path d="M26.9286 29.7383L27.6048 28.9907L30.2857 31.4241L29.6095 32.1717L26.9286 29.7383Z" fill="#E20613"></path><path d="M29.5143 27.0718L30.2476 26.4861L32.6048 27.0528L31.4095 25.5575L32.1857 24.9385L34.4476 27.767L33.7619 28.3147L31.3143 27.729L32.5524 29.2813L31.7762 29.9004L29.5143 27.0718Z" fill="#E20613"></path><path d="M35.7191 23.8144L34.7572 24.3192L34.3477 23.5382L37.1619 22.062L37.5715 22.843L36.6096 23.3477L37.8858 25.7763L36.9953 26.243L35.7191 23.8144Z" fill="#E20613"></path><path d="M39.519 21.1049L42.3 20.2383L42.5524 21.0526L40.719 21.624L40.8809 22.1478L42.5429 21.6288L42.7762 22.3859L41.1143 22.9049L41.2857 23.4526L43.1429 22.8716L43.3952 23.6859L40.5905 24.5621L39.5143 21.1049H39.519Z" fill="#E20613"></path><path d="M44.9 19.686L46.6 19.4908C47.1476 19.4289 47.5476 19.5289 47.8191 19.7431C48.0524 19.9241 48.1953 20.1908 48.2334 20.5431V20.5527C48.3 21.1003 48.0476 21.5003 47.6238 21.7431L48.6286 22.8955L47.4762 23.0289L46.6238 22.0241L46.1857 22.0765L46.3143 23.1669L45.3191 23.2812L44.9 19.686ZM46.7572 21.2193C47.0953 21.1812 47.2715 20.9908 47.2429 20.7289V20.7193C47.2095 20.4384 46.9857 20.3146 46.6524 20.3574L46 20.4336L46.1 21.2955L46.7572 21.2193Z" fill="#E20613"></path><path d="M50.7381 19.2621L51.6714 19.3335L53.0048 21.3573L53.1572 19.4478L54.1476 19.524L53.8619 23.1335L52.9857 23.0621L51.6 20.9621L51.4429 22.943L50.4524 22.8668L50.7381 19.2573V19.2621Z" fill="#E20613"></path><path d="M58.1239 20.3574L59.0525 20.6289L59.5144 24.5622L58.481 24.2622L58.4096 23.5669L57.0668 23.1765L56.6382 23.7241L55.6239 23.4289L58.1239 20.3574ZM58.3477 22.7336L58.2477 21.6336L57.5668 22.5098L58.3477 22.7384V22.7336Z" fill="#E20613"></path><path d="M61.6668 23.5241V23.5146C62.1525 22.5765 63.2525 22.2099 64.2287 22.7099C64.8858 23.0479 65.1668 23.5432 65.2525 24.0813L64.3144 24.2575C64.2477 23.9337 64.1144 23.6765 63.8049 23.5194C63.3525 23.286 62.8382 23.5051 62.6001 23.9765V23.986C62.3477 24.467 62.4715 25.0099 62.9239 25.2432C63.262 25.4146 63.5382 25.3622 63.8525 25.2241L64.281 26.0479C63.762 26.3099 63.1953 26.4099 62.481 26.0432C61.562 25.5718 61.181 24.486 61.6763 23.5241H61.6668Z" fill="#E20613"></path><path d="M67.6476 24.8716L68.4619 25.4668L66.3286 28.3954L65.5143 27.8002L67.6476 24.8716Z" fill="#E20613"></path><path d="M69.2048 28.3478L69.2143 28.3383C69.9572 27.6097 71.1429 27.6145 71.9286 28.4097C72.7143 29.205 72.7001 30.3812 71.9572 31.1097L71.9477 31.1193C71.2048 31.8478 70.0191 31.8431 69.2334 31.0478C68.4477 30.2526 68.462 29.0764 69.2048 28.3478ZM71.2239 30.3955L71.2334 30.3859C71.6048 30.0193 71.6667 29.4288 71.2762 29.0383C70.8905 28.6478 70.3143 28.7002 69.9429 29.0669L69.9334 29.0764C69.562 29.4431 69.5001 30.0336 69.8858 30.424C70.2762 30.8193 70.8477 30.7669 71.2191 30.4002L71.2239 30.3955Z" fill="#E20613"></path><path d="M74.9096 31.9717L75.4143 32.7574L74.6096 35.0479L76.2191 34.0098L76.7572 34.8431L73.7096 36.805L73.2334 36.0669L74.0667 33.6907L72.3953 34.7669L71.8572 33.9336L74.9048 31.9717H74.9096Z" fill="#E20613"></path><path d="M78.5096 38.5147L78.8573 39.4194L76.0049 42.1671L75.6192 41.1623L76.1287 40.6813L75.6287 39.3766L74.9334 39.3671L74.5525 38.3813L78.5096 38.5099V38.5147ZM76.7525 40.1337L77.5668 39.3861L76.4573 39.3766L76.7477 40.1337H76.7525Z" fill="#E20613"></path><path d="M79.9857 43.2719L80.1619 44.2576L77.4619 44.7433L77.7715 46.4671L76.9048 46.6242L76.4143 43.9099L79.9762 43.2671L79.9857 43.2719Z" fill="#E20613"></path><path d="M42.5572 77.0099L41.9334 76.986L41.9476 76.186L43.0477 76.167L43.7524 76.3527L42.8191 79.8765L41.8619 79.6241L42.5572 77.0051V77.0099Z" fill="#E20613"></path><path d="M45.281 80.0341L45.8239 79.396C46.0477 79.6198 46.2762 79.7341 46.5667 79.7674C46.9762 79.8102 47.2286 79.5483 47.3286 79.0912C47.1239 79.2483 46.8524 79.3388 46.5334 79.3007C45.8334 79.2245 45.3715 78.7388 45.4477 78.0341V78.0245C45.5334 77.2293 46.2001 76.7769 47.0239 76.8674C47.5477 76.9245 47.8429 77.1055 48.0858 77.4102C48.3191 77.696 48.4477 78.1245 48.3762 78.7912V78.8007C48.2477 79.9769 47.5762 80.7198 46.4953 80.6007C45.962 80.5436 45.5858 80.3293 45.2858 80.0388L45.281 80.0341ZM47.4334 78.2007V78.1912C47.4667 77.915 47.2858 77.6817 46.9715 77.6483C46.6572 77.615 46.4429 77.8007 46.4143 78.0769V78.0864C46.3858 78.3579 46.562 78.5817 46.8762 78.615C47.1905 78.6483 47.4048 78.4626 47.4286 78.2007H47.4334Z" fill="#E20613"></path><path d="M50.3429 78.9672V78.9577C50.2714 77.9339 50.8619 77.0338 51.8905 76.9624C52.919 76.891 53.6143 77.6958 53.6857 78.7148V78.7243C53.7571 79.7481 53.1714 80.6481 52.1381 80.7196C51.1048 80.791 50.4143 79.9862 50.3429 78.9672ZM52.6809 78.8053V78.7958C52.6429 78.2243 52.3381 77.8243 51.9429 77.8529C51.5476 77.8815 51.3095 78.3005 51.3476 78.8767V78.8862C51.3857 79.4624 51.6857 79.8577 52.0857 79.8291C52.4905 79.8005 52.719 79.3767 52.6809 78.8053Z" fill="#E20613"></path><path d="M56.0905 79.7863L56.3762 79.0005C56.6666 79.1291 56.919 79.1624 57.2 79.091C57.6 78.991 57.7476 78.6529 57.6762 78.191C57.5381 78.4053 57.319 78.5863 57.0047 78.6672C56.3238 78.8386 55.719 78.5434 55.5428 77.8577V77.8482C55.3428 77.072 55.8143 76.4196 56.6143 76.2148C57.1238 76.0863 57.4619 76.1529 57.7952 76.3529C58.1143 76.5386 58.3809 76.8958 58.5476 77.5434V77.5529C58.8428 78.7005 58.4666 79.6291 57.4143 79.8958C56.8905 80.0291 56.4714 79.9577 56.0857 79.791L56.0905 79.7863ZM57.4714 77.3148V77.3053C57.4 77.0339 57.1524 76.8767 56.8476 76.9577C56.5428 77.0339 56.4047 77.2815 56.4762 77.5529V77.5625C56.5476 77.8291 56.7905 77.972 57.0952 77.8958C57.4 77.8196 57.5381 77.572 57.4714 77.3148Z" fill="#E20613"></path><path d="M30.7095 11.3384L31.1143 12.0717L28.9 13.2955L29.2476 13.9289L31.2143 12.8431L31.6143 13.5717L29.6476 14.6574L30.1333 15.5336L29.2714 16.0098L27.6333 13.0431L30.7095 11.3431V11.3384Z" fill="white"></path><path d="M36.2999 12.6237L35.7618 12.1523L33.8285 12.938L33.7714 13.6523L32.7904 14.0523L33.1333 10.2571L34.3904 9.74756L37.2809 12.2285L36.3047 12.6237H36.2999ZM33.8952 12.1142L35.1333 11.6095L34.0142 10.6333L33.8952 12.1142Z" fill="white"></path><path d="M41.3476 10.1764L40.7619 7.81927L41.7095 7.58594L42.5238 10.8764L41.1286 11.224L38.6048 9.34784L39.1905 11.705L38.2381 11.9431L37.4238 8.6526L38.8238 8.30499L41.3476 10.1812V10.1764Z" fill="white"></path><path d="M46.119 6.96208L50.2 6.79541L50.2333 7.62874L48.6857 7.69065L48.7904 10.243L47.8095 10.2811L47.7047 7.72874L46.1524 7.79065L46.119 6.95731V6.96208Z" fill="white"></path><path d="M51.3905 8.49526C51.4857 7.37622 52.3143 6.78098 53.7381 6.90479C55.1572 7.0286 55.8762 7.75717 55.781 8.87145C55.6857 9.9905 54.8524 10.5953 53.4334 10.4715C52.0096 10.3476 51.2953 9.61907 51.3905 8.49526ZM54.7572 8.78574C54.8096 8.20003 54.5048 7.80955 53.6667 7.73812C52.8334 7.66669 52.4667 7.9905 52.4191 8.58574C52.3667 9.18098 52.6762 9.57145 53.5048 9.64288C54.3381 9.71431 54.7096 9.38098 54.7619 8.7905L54.7572 8.78574Z" fill="white"></path><path d="M61.6237 8.36681L59.6333 9.38109L60.8809 11.6763L59.6761 11.4049L58.8095 9.8049L57.8618 10.2859L57.7095 10.9573L56.7523 10.7382L57.4999 7.42871L58.4618 7.643L58.1285 9.12871L60.1952 8.03823L61.6333 8.36204L61.6237 8.36681Z" fill="white"></path><path d="M66.3285 9.99553L66.0666 10.7193L63.6856 9.85744L63.4999 10.367L65.7904 11.1955L65.5285 11.9193L63.238 11.0908L63.0523 11.6003L65.4332 12.4622L65.1713 13.186L61.8666 11.9908L63.019 8.80029L66.3237 9.99553H66.3285Z" fill="white"></path><path d="M69.7618 14.3526L70.8761 12.1907L71.7476 12.6383L70.1904 15.6526L68.9095 14.9907L68.2476 11.9097L67.1333 14.0716L66.2571 13.6193L67.8142 10.605L69.0999 11.2669L69.7618 14.3478V14.3526Z" fill="white"></path><path d="M27.3953 85.4763C27.2476 85.7192 27.3953 86.0239 28.1572 86.4858C28.8572 86.9049 29.0953 86.9001 29.2048 86.7192C29.3334 86.5097 29.2238 86.3906 28.3953 85.8144C27.2667 85.024 26.8905 84.4763 27.2762 83.8335C27.6429 83.2287 28.4619 83.3478 29.4667 83.9525C30.5857 84.6239 31.0238 85.3525 30.6619 86.0144L29.781 85.4859C29.9334 85.2287 29.7143 84.962 29.0619 84.5716C28.4429 84.2001 28.2429 84.2192 28.1476 84.3763C28.0381 84.5573 28.1476 84.6954 28.8953 85.2335C29.9143 85.9573 30.5619 86.4478 30.1048 87.2097C29.6572 87.9525 28.8381 87.7573 27.8048 87.1335C26.6286 86.4239 26.0905 85.7382 26.5096 84.9478L27.3905 85.4811L27.3953 85.4763Z" fill="white"></path><path d="M31.5238 87.1909C31.9714 86.1576 32.9428 85.8623 34.2571 86.429C35.5667 86.9957 36.0143 87.9147 35.5714 88.9433C35.1238 89.9766 34.1428 90.2814 32.8333 89.7147C31.519 89.148 31.0762 88.229 31.5238 87.1909ZM34.6286 88.5385C34.8619 87.9957 34.6952 87.5338 33.9238 87.1957C33.1571 86.8623 32.7047 87.0576 32.4714 87.6004C32.2333 88.1481 32.4047 88.6147 33.1667 88.948C33.9333 89.2814 34.3952 89.0814 34.6286 88.5338V88.5385Z" fill="white"></path><path d="M39.2952 88.2146C40.4952 88.5527 41.0333 89.2574 40.8952 90.1241L39.8905 89.8431C39.9095 89.5241 39.6762 89.186 39.0714 89.0193C38.3714 88.8241 37.9381 89.0717 37.7762 89.6431C37.6143 90.2193 37.8619 90.6622 38.5571 90.8574C39.1619 91.0241 39.5381 90.8574 39.6857 90.5669L40.6905 90.8479C40.3571 91.6669 39.5333 91.9955 38.3286 91.6622C37.019 91.2955 36.4714 90.486 36.7809 89.3669C37.0952 88.2527 37.9809 87.8479 39.2905 88.2146H39.2952Z" fill="white"></path><path d="M43.3953 89.2289L42.7953 92.5623L41.8286 92.3861L42.4286 89.0527L43.3953 89.2289Z" fill="white"></path><path d="M44.419 91.1481C44.5095 90.029 45.3333 89.4338 46.7571 89.5481C48.1762 89.6624 48.9 90.3909 48.8047 91.5052C48.7143 92.6243 47.8857 93.229 46.4619 93.1147C45.0381 93.0005 44.319 92.2719 44.4143 91.1481H44.419ZM47.7857 91.4243C47.8333 90.8386 47.5285 90.4528 46.6905 90.3814C45.8571 90.3148 45.4952 90.6433 45.4428 91.2338C45.3952 91.829 45.7047 92.2148 46.5333 92.2862C47.3666 92.3528 47.7381 92.0195 47.7857 91.4243Z" fill="white"></path><path d="M51.119 92.048C51.1333 92.3337 51.4238 92.5051 52.3143 92.4575C53.1286 92.4146 53.3238 92.2766 53.3095 92.0623C53.2952 91.8146 53.1428 91.7813 52.1333 91.767C50.7571 91.7432 50.1333 91.5004 50.0952 90.748C50.0571 90.0432 50.8047 89.6813 51.9762 89.6242C53.2809 89.5575 54.0524 89.9099 54.119 90.6623L53.0952 90.7146C53.0809 90.4146 52.7476 90.3194 51.9857 90.3575C51.2666 90.3956 51.1095 90.5242 51.119 90.7051C51.1285 90.9146 51.2952 90.9718 52.219 91.0004C53.4666 91.0289 54.2809 91.0718 54.3285 91.9623C54.3714 92.8289 53.5857 93.1242 52.3809 93.1861C51.0095 93.2575 50.1762 92.9861 50.0857 92.0956L51.1143 92.0432L51.119 92.048Z" fill="white"></path><path d="M55.7429 92.0429L56.681 91.9048L56.7858 92.6334L55.8477 92.7715L55.7382 92.0429H55.7429Z" fill="white"></path><path d="M59.4809 88.5382C60.6952 88.243 61.5095 88.5953 61.8143 89.4191L60.8 89.6668C60.6619 89.3763 60.2905 89.2001 59.6809 89.3477C58.9762 89.5192 58.719 89.9477 58.8571 90.5287C59 91.1096 59.4333 91.3763 60.1333 91.2049C60.7428 91.0572 60.9905 90.7239 60.9762 90.3953L61.9905 90.1477C62.1 91.0239 61.5428 91.7191 60.3286 92.0144C59.0047 92.3382 58.1286 91.9001 57.8524 90.7715C57.5762 89.6477 58.1524 88.862 59.4762 88.5382H59.4809Z" fill="white"></path><path d="M63.1524 89.3956C62.7382 88.348 63.2191 87.448 64.5477 86.9242C65.8715 86.4003 66.8429 86.7337 67.2524 87.7765C67.6667 88.8242 67.1858 89.7337 65.862 90.2575C64.5334 90.7813 63.5667 90.448 63.1524 89.3956ZM66.3001 88.1527C66.0858 87.6051 65.6382 87.3908 64.8572 87.7003C64.081 88.0051 63.8953 88.4622 64.1143 89.0146C64.3334 89.5718 64.7858 89.7813 65.5572 89.4765C66.3334 89.1718 66.5191 88.7051 66.3001 88.1527Z" fill="white"></path><path d="M69.3381 88.6907L67.6333 85.7574L68.9571 84.986L71.1095 86.3383L70.9952 83.8002L72.319 83.0288L74.0238 85.9621L73.1762 86.4526L71.9428 84.3288L72.0762 87.0955L71.2904 87.5526L68.9524 86.0717L70.1904 88.1955L69.3381 88.6907Z" fill="white"></path><path d="M23.0191 81.8382C13.9953 74.1811 8.26672 62.7573 8.26672 50.0001C8.26672 37.243 14.3001 25.2144 23.7382 17.562" stroke="white" stroke-miterlimit="10"></path><path d="M76.2667 17.5669C85.7048 25.2193 91.7334 36.905 91.7334 50.0002C91.7334 63.0955 86.0048 74.1859 76.981 81.8431" stroke="white" stroke-miterlimit="10"></path></g><defs><clipPath id="clip0_101_22080"><rect width="100" height="100" fill="white"></rect></clipPath></defs></svg>