<svg xmlns="http://www.w3.org/2000/svg" width="100" height="100" viewBox="0 0 100 100" fill="none"><g clip-path="url(#clip0_101_22079)"><path d="M68.4762 93.7385C74.1286 91.348 79.2048 87.9242 83.5667 83.567C87.9286 79.2051 91.3476 74.1289 93.7381 68.4765C96.2143 62.6242 97.4667 56.4099 97.4667 50.0004C97.4667 43.5908 96.2143 37.3765 93.7381 31.5242C91.3476 25.8718 87.9238 20.7956 83.5667 16.4337C79.2048 12.0718 74.1286 8.65274 68.4762 6.26226C62.6238 3.78607 56.4095 2.53369 50 2.53369V97.467C56.4095 97.467 62.6238 96.2146 68.4762 93.7385Z" fill="#DB4440"></path><path d="M16.4381 16.4385C12.0762 20.8004 8.65713 25.8765 6.26666 31.5289C3.79047 37.3813 2.53809 43.5956 2.53809 50.0051C2.53809 56.4146 3.79047 62.6289 6.26666 68.4813C8.65713 74.1337 12.0809 79.2099 16.4381 83.5718C20.8 87.9337 25.8762 91.3527 31.5286 93.7432C37.3809 96.2194 43.5952 97.4718 50.0048 97.4718V2.53369C43.5952 2.53369 37.3809 3.78607 31.5286 6.26226C25.8762 8.65274 20.8 12.0765 16.4381 16.4337V16.4385Z" fill="white"></path><path d="M96.5333 31.6668C96.2333 30.9096 95.919 30.162 95.5857 29.4239C94.919 27.9477 94.181 26.5096 93.3762 25.1144C92.9762 24.4144 92.5571 23.7287 92.1238 23.0525C91.6905 22.3763 91.2429 21.7096 90.7762 21.0573C90.5429 20.7287 90.3095 20.4049 90.0667 20.0858C89.5857 19.443 89.0905 18.8144 88.581 18.1954C87.5619 16.962 86.4857 15.7763 85.3524 14.643C84.7857 14.0763 84.2095 13.5239 83.6143 12.9858C83.0238 12.4477 82.419 11.9239 81.8 11.4144C81.4905 11.162 81.181 10.9096 80.8667 10.662C79.9238 9.91917 78.9524 9.20964 77.9524 8.53822C76.9571 7.86203 75.9333 7.22393 74.8857 6.62393C74.1857 6.22393 73.481 5.83822 72.7619 5.47155C72.4048 5.28583 72.0429 5.10964 71.6762 4.93345C70.9476 4.58107 70.2095 4.24774 69.4619 3.93345C69.0857 3.77631 68.7095 3.62393 68.3333 3.47155C67.5762 3.17155 66.8095 2.8906 66.0381 2.62869C65.2667 2.36679 64.4809 2.12393 63.6905 1.90012C62.9 1.67631 62.1 1.47155 61.2952 1.28584C57.6667 0.44774 53.8857 0.00488281 50.0048 0.00488281C46.1238 0.00488281 42.3429 0.44774 38.7143 1.28584C37.9095 1.47155 37.1095 1.67631 36.319 1.90012C35.5286 2.12393 34.7429 2.36679 33.9714 2.62869C33.2 2.8906 32.4333 3.17155 31.6762 3.47155C31.3 3.61917 30.9238 3.77631 30.5476 3.93345C29.8 4.24774 29.0619 4.58583 28.3333 4.93345C27.9667 5.10964 27.6095 5.2906 27.2476 5.47155C26.5286 5.83822 25.819 6.22393 25.1238 6.62393C24.0762 7.22393 23.0524 7.86679 22.0571 8.53822C21.0619 9.21441 20.0857 9.91917 19.1429 10.662C18.8286 10.9096 18.5143 11.162 18.2095 11.4144C17.5905 11.9239 16.9857 12.4477 16.3952 12.9858C15.8048 13.5239 15.2238 14.0763 14.6571 14.643C13.5238 15.7763 12.4476 16.9573 11.4286 18.1954C10.919 18.8144 10.4238 19.443 9.94286 20.0858C9.70476 20.4049 9.46667 20.7287 9.23333 21.0573C8.76667 21.7096 8.31905 22.3763 7.88571 23.0525C7.45238 23.7287 7.03333 24.4144 6.63333 25.1144C5.82857 26.5096 5.09524 27.9477 4.42381 29.4239C4.09048 30.162 3.77143 30.9096 3.47619 31.6668C1.22857 37.343 0 43.5287 0 50.0001C0 56.043 1.07143 61.8335 3.03333 67.1906C3.45238 68.3382 3.91429 69.4668 4.41429 70.5763C5.08095 72.0525 5.81905 73.4906 6.62381 74.8858C7.02381 75.5858 7.44286 76.2715 7.87619 76.9477C8.30952 77.6239 8.75714 78.2906 9.22381 78.943C9.45714 79.2715 9.69048 79.5954 9.93333 79.9144C10.4143 80.5573 10.9095 81.1858 11.419 81.8049C12.181 82.7287 12.981 83.6287 13.8095 84.4954C15.4667 86.2335 17.2429 87.8477 19.1333 89.3335C20.0762 90.0763 21.0476 90.7858 22.0476 91.4573C23.0429 92.1335 24.0667 92.7715 25.1143 93.3715C26.8571 94.3763 28.6714 95.2763 30.5381 96.0668C36.519 98.5954 43.0952 99.9954 50 99.9954C56.9048 99.9954 63.4809 98.5954 69.4619 96.0668C71.3333 95.2763 73.1429 94.3763 74.8857 93.3715C75.9333 92.7715 76.9571 92.1287 77.9524 91.4573C78.9476 90.7811 79.9238 90.0763 80.8667 89.3335C82.7571 87.8477 84.5333 86.2335 86.1905 84.4954C87.0191 83.6287 87.8143 82.7287 88.581 81.8049C89.0905 81.1858 89.5857 80.5573 90.0667 79.9144C90.3048 79.5954 90.5429 79.2715 90.7762 78.943C91.2429 78.2906 91.6905 77.6239 92.1238 76.9477C92.5571 76.2715 92.9762 75.5858 93.3762 74.8858C94.181 73.4906 94.9143 72.0525 95.5857 70.5763C96.0857 69.4668 96.5476 68.3382 96.9667 67.1906C98.9286 61.8287 100 56.0382 100 50.0001C100 43.5287 98.7714 37.343 96.5333 31.6668ZM93.7381 68.4763C91.3476 74.1287 87.9238 79.2049 83.5667 83.5668C79.2048 87.9287 74.1286 91.3477 68.4762 93.7382C62.6238 96.2144 56.4095 97.4668 50 97.4668C43.5905 97.4668 37.3762 96.2144 31.5238 93.7382C25.8714 91.3477 20.7952 87.9239 16.4333 83.5668C12.0714 79.2049 8.65238 74.1287 6.2619 68.4763C3.78571 62.6239 2.53333 56.4096 2.53333 50.0001C2.53333 43.5906 3.78571 37.3763 6.2619 31.5239C8.65238 25.8715 12.0762 20.7954 16.4333 16.4335C20.7952 12.0715 25.8714 8.6525 31.5238 6.26202C37.3762 3.78583 43.5905 2.53345 50 2.53345C56.4095 2.53345 62.6238 3.78583 68.4762 6.26202C74.1286 8.6525 79.2048 12.0763 83.5667 16.4335C87.9286 20.7954 91.3476 25.8715 93.7381 31.5239C96.2143 37.3763 97.4667 43.5906 97.4667 50.0001C97.4667 56.4096 96.2143 62.6239 93.7381 68.4763Z" fill="#A43330"></path><path d="M29.9763 27.0854V47.3616C29.9763 50.4616 31.1477 62.0235 36.762 67.0521C42.3763 72.0807 50.0001 77.1902 50.0001 77.1902C50.0001 77.1902 58.462 72.414 62.4858 67.7235C66.5097 63.0331 70.0287 62.195 70.0287 37.4759V27.0854H29.9763Z" fill="white"></path><path d="M49.9954 77.2855L49.9525 77.2569C49.8763 77.2045 42.2573 72.0855 36.7049 67.1093C31.0478 62.0426 29.8906 50.2426 29.8906 47.3617V27.0093H70.1002V37.4759C70.1002 59.5807 67.324 62.5759 63.8049 66.3712C63.3954 66.814 62.9668 67.2759 62.5382 67.7759C58.5525 72.4236 50.1192 77.214 50.0335 77.2617L49.9906 77.2855H49.9954ZM30.0525 27.1664V47.3617C30.0525 50.2283 31.2001 61.9664 36.8144 66.995C42.1478 71.7712 49.3954 76.6902 50.0049 77.0998C50.6573 76.7236 58.6049 72.1331 62.424 67.6712C62.8573 67.1664 63.2811 66.7093 63.6954 66.2617C67.1859 62.495 69.9478 59.5188 69.9478 37.4759V27.1664H30.0525Z" fill="#D94535"></path><path fill-rule="evenodd" clip-rule="evenodd" d="M50.8239 43.2474C50.7572 43.1712 50.762 43.095 50.7763 42.9998C50.7763 42.9664 50.7763 42.9426 50.7763 42.9331C50.7572 42.9093 50.743 42.8188 50.7191 42.8045C50.6763 42.5236 50.6477 42.4855 50.7239 42.3379L50.7811 42.2379C50.6096 42.1379 50.5287 42.0807 50.5477 41.9236C50.5668 41.7617 50.7049 41.7283 50.8668 41.6617C50.9096 41.6426 50.943 41.6331 50.9668 41.6283L50.9477 41.5712C50.8906 41.1664 51.0001 40.8569 51.443 41.076C51.8763 41.2855 52.7572 41.7712 53.1096 41.9998C53.281 42.195 53.2953 42.276 53.043 42.4331C52.8239 42.5521 52.8334 42.8379 52.7144 43.0283C52.6953 43.0569 52.6763 43.0855 52.662 43.1188C53.6001 44.1855 53.9287 44.7093 52.9906 46.1283C52.6858 46.595 52.6096 46.8521 52.5239 46.995C52.4287 47.1617 52.3096 47.2045 52.0477 47.2283C52.1763 47.7712 52.1906 48.2569 51.7334 48.8283C51.7144 48.8521 51.6953 48.8807 51.6858 48.895C51.743 48.9379 51.8715 48.9569 51.943 48.9998C52.0144 49.0379 52.2096 49.0664 52.2858 49.0902C53.4715 49.4474 54.3525 50.2998 54.9287 51.395C56.0763 51.2045 56.6191 51.4093 57.843 52.0093C58.7191 52.395 58.5001 52.8188 58.4382 53.5188C58.4096 53.8045 58.4477 54.2474 58.1096 54.3712C57.9572 54.4283 57.8572 54.9093 57.8287 55.0331C57.7382 55.4236 57.6572 55.9331 57.5239 56.4379C57.3049 57.2712 57.043 57.5474 56.5191 58.1283C56.4001 58.2617 56.2763 58.4093 56.162 58.595C55.6811 59.3664 55.1049 59.5807 54.2906 59.7664C54.5334 59.9093 54.6239 60.1236 54.743 60.3664H43.1763C43.143 59.8712 42.8572 59.3759 43.1144 58.914C43.5049 58.2093 44.5572 58.5045 45.1668 58.5617C45.4572 58.5902 45.5906 58.7474 45.7906 58.4045C45.9525 58.1236 46.4144 57.9188 46.9239 57.7331C47.443 57.5426 48.0668 57.3521 48.6049 57.1188C49.2287 56.8521 49.5144 57.0759 49.5668 56.0807C49.6334 54.8664 49.843 54.4236 50.0239 53.4331C49.2001 53.4093 48.4858 53.114 47.943 52.8759L47.5239 53.3569L46.7287 53.1569L46.7144 52.914C46.1049 52.814 45.3763 52.2998 45.4382 52.0331C45.562 51.5855 45.7239 51.7521 45.9715 51.7617C46.1239 51.7664 46.2668 51.995 46.2572 51.814C46.2572 51.7664 46.2477 51.714 46.2477 51.6664C45.7144 51.5379 45.5906 51.3426 45.2287 51.0045C45.1096 50.8902 44.6953 50.614 44.5144 50.6617C44.4858 50.6712 44.462 50.6855 44.4334 50.695C44.3382 50.7283 44.2191 50.7188 43.9858 50.614C43.3334 50.3283 42.2906 50.014 41.6477 50.2236C41.4572 50.2902 40.1572 50.8045 40.1191 51.0807C40.1096 51.2188 40.3144 51.5331 40.1287 51.6093C39.9525 51.6807 39.8239 51.6379 39.6906 51.8188C39.5382 52.0188 39.7144 52.4521 39.3668 52.514C39.0525 52.5759 38.243 52.4664 38.1049 52.0759C38.2525 51.1807 38.6191 51.2188 38.7906 50.6759C39.0287 49.8998 39.2001 49.9902 39.543 49.4188C39.9811 48.695 40.2763 48.2521 40.8239 47.8902C41.1525 47.6712 41.5763 47.7045 42.0096 47.7855C42.4287 47.8617 42.8906 47.9902 43.362 48.0236C43.5144 47.7902 43.5668 47.6283 43.8001 47.4283C44.0668 47.195 44.1906 46.7188 44.2334 46.5283C44.2763 46.3521 44.2715 46.2902 44.262 46.2759C44.1858 46.2617 43.7572 46.5283 43.8191 46.0855C43.7001 46.1617 43.5525 46.2045 43.4477 46.0617C43.3477 45.9236 43.3239 45.9474 43.1811 45.8902C42.8953 45.776 42.7191 45.4283 42.9477 44.8902C43.1239 44.4902 43.2858 44.1712 43.3572 43.9331C43.5144 43.4283 43.062 43.6664 43.0239 43.3664C43.0001 43.195 43.2382 43.1045 43.3525 43.0331C43.4001 42.9998 43.5239 42.9188 43.562 42.8617C43.3715 42.7093 43.3382 42.7093 43.2906 42.395L43.2811 42.3188C43.4191 42.2712 43.5049 42.2331 43.6572 42.2617C43.7763 42.2855 43.9525 42.3474 44.2858 42.4712C44.5906 42.5807 45.0906 42.3521 45.4811 42.414C46.4191 42.5569 46.962 42.9331 47.5668 43.6474C48.0668 44.2426 48.1287 44.7617 48.3811 45.4617C48.543 45.9236 48.3525 46.2664 49.0001 46.1521C49.2049 46.114 49.4096 46.0426 49.5001 45.995C49.5477 45.9712 49.581 45.914 49.4668 45.7474C49.3668 45.5998 49.181 45.4379 48.9906 45.3379C48.5953 45.1283 48.143 45.0283 48.0715 44.4998C48.0049 44.0474 48.5525 43.7569 49.0001 43.6283C49.3572 43.5236 49.9049 43.5045 50.2096 43.3617C50.4096 43.2617 50.6001 43.2474 50.8144 43.2617M52.1144 57.5855C51.8382 57.7617 51.5572 57.9331 51.2811 58.114C50.2668 57.8902 50.1953 58.2474 49.7858 58.9331C49.1668 58.795 49.0906 58.9045 48.5287 58.9236C48.0001 58.9426 47.562 58.9521 47.0334 59.0379C46.943 58.6569 47.1382 58.5759 47.4811 58.5474C47.7334 58.5283 48.0096 58.5521 48.2525 58.4807C49.0668 58.0045 49.943 57.6855 50.3239 57.5664C50.5953 57.476 50.8811 57.3759 50.9191 57.0664C50.9287 56.995 50.9287 56.9188 50.9382 56.8331C50.9811 56.4045 51.0334 56.0759 51.2572 55.7093C51.5763 55.195 51.8287 55.414 52.0858 55.7569C52.1715 55.8712 52.2715 56.0188 52.3906 56.1759C52.943 56.9236 52.781 57.1617 52.1191 57.5902M53.3668 55.7236C53.0953 55.3521 52.962 55.1807 52.8906 54.7093C52.4858 54.8426 51.3334 53.6617 52.4191 55.4855C52.5906 55.5188 52.3525 54.7426 52.6239 54.8093C52.8953 55.1617 52.862 55.9283 53.3668 55.7236ZM56.1096 51.8331C56.5144 51.7664 56.8191 51.8998 57.262 52.2712C57.8049 52.4759 57.8715 52.7426 57.8715 53.3521C57.6763 53.3569 57.162 52.6093 57.3287 53.3521C57.3763 53.6093 57.4191 53.9759 57.2144 53.7379C57.1001 53.4188 56.943 52.9236 56.9096 53.5664C56.2715 52.9569 55.962 52.4521 55.2668 51.976C55.6477 52.1093 56.681 52.2521 56.1144 51.8283M53.1049 53.014L52.9715 52.6902C53.3287 52.6426 53.5668 52.6093 53.9191 52.2712C54.2763 52.7569 53.4096 52.7379 53.1049 53.014ZM51.8858 49.7093L52.8858 51.976C52.8858 51.976 53.3715 51.5236 53.3049 51.9093C53.1287 52.0807 53.0049 52.1998 52.8287 52.3712L51.543 49.2712C52.2191 49.6093 54.181 50.1855 54.7572 52.2807C54.5144 52.2379 53.9525 52.4712 54.1001 52.1664C54.3525 51.6712 54.1953 51.0617 54.1001 51.2664C53.9287 51.6236 53.8953 51.5712 53.5239 51.3521C53.443 50.4379 53.3001 50.4045 53.1668 51.0283C52.8096 50.2712 52.4572 49.8902 51.881 49.7093M51.2715 53.4664C50.4477 52.314 51.2572 51.5807 52.0001 52.2569C52.2239 52.3379 52.0001 51.8188 52.0001 51.5474L52.4953 52.6617C51.7715 52.6093 51.5525 52.995 51.2715 53.4664ZM51.0953 49.0617L51.4668 50.1093C51.5001 50.2045 51.3572 50.2569 51.3239 50.1617L50.9525 49.114C50.9191 49.0188 51.062 48.9664 51.0953 49.0617ZM46.9953 51.9283L46.7382 51.795L46.6906 52.0093L46.8953 52.0426L46.9953 51.9283ZM48.6334 51.7236C48.8572 51.7045 48.6191 51.2521 48.2477 51.214C48.0763 51.0807 47.9572 50.6521 47.4715 50.7855C46.9287 50.514 46.8001 50.614 46.843 50.5331C46.8763 50.4664 48.0953 50.5331 48.5334 51.076C48.8049 51.0283 49.0763 51.2807 49.243 50.9426C49.243 51.314 49.343 51.6188 48.9715 51.5521C49.0049 51.8902 48.9382 51.8569 48.4287 51.8569C48.0572 51.7569 48.5525 51.7712 48.6334 51.7236ZM48.7668 48.1712C49.0049 48.3045 48.4287 48.5426 48.7668 49.0188C48.9715 49.3093 49.0382 49.914 49.2049 50.4759C49.3049 48.9521 49.4096 47.8712 48.1239 47.6664C48.0906 48.0712 48.1572 48.3426 48.7668 48.1759M52.5144 45.8093C52.462 45.5664 52.8572 45.5045 52.7572 45.4188C52.5811 45.4379 52.4715 45.5331 52.3096 45.4807C52.3049 45.7712 52.2191 45.9474 51.9763 46.0902C52.5382 46.1093 52.5525 46.0759 52.5096 45.814M52.9906 44.8807C52.943 44.8521 52.8096 45.0093 52.7382 45.1188C52.662 45.2283 52.7572 45.2283 52.8144 45.2664C52.9096 45.3331 53.1477 45.2617 53.0858 45.1379C53.0382 45.0569 53.0096 44.895 52.9906 44.8807ZM50.6287 43.9474C50.762 44.414 50.9191 44.5474 50.9477 45.095C50.9525 45.195 50.8001 45.2045 50.7953 45.1045C50.7668 44.6045 50.6049 44.4331 50.4811 43.9902C50.4525 43.8902 50.6001 43.8521 50.6287 43.9474ZM52.9096 44.7664C53.1477 44.2045 52.4477 44.0712 52.3334 43.614C52.2811 43.9521 51.8715 43.9521 51.4525 43.9188C51.1001 43.8902 51.0715 43.8521 50.843 43.8188C51.0001 44.0093 50.9239 44.514 51.262 44.3283C50.9906 43.8569 52.162 44.0712 51.8715 44.5807C51.9382 44.9379 52.3096 43.9712 52.5144 44.276C52.5191 44.4379 52.443 44.5902 52.5668 44.7045C52.6668 44.795 52.781 44.7521 52.9049 44.7712M50.4001 47.6617C50.4001 47.6331 50.4334 47.6093 50.4763 47.6093C50.5191 47.6093 50.5525 47.6331 50.5525 47.6617C50.5525 47.6902 50.5191 47.714 50.4763 47.714C50.4334 47.714 50.4001 47.6902 50.4001 47.6617ZM50.6382 46.4045C50.6382 46.2236 50.6334 46.2569 50.4811 46.0998C50.4287 46.0379 50.5572 45.9998 50.6144 45.9998C50.8525 45.9855 50.9858 46.1569 51.343 46.0188C51.343 46.2331 51.4763 46.4379 51.7144 46.595C51.2763 46.7998 50.9906 46.1807 50.6334 46.4045M49.0239 47.8617C48.862 47.6236 48.7477 47.4759 48.5858 47.2379C48.6001 47.1569 48.5715 47.0331 48.6525 47.014C48.7049 46.9998 48.0763 46.9474 48.0953 47.014C48.1239 47.1236 48.281 47.0998 48.3477 47.2045C48.3906 47.2664 48.4715 47.376 48.4144 47.3855C48.1287 47.4712 48.7049 47.4188 49.0239 47.8569M49.7001 47.6521C49.3953 47.4759 49.2144 47.3521 48.9096 47.1807C49.1811 47.2093 49.3906 47.1474 49.6525 47.2664C49.8525 47.3617 50.2382 47.4521 50.0906 47.6188C49.9906 47.7331 50.1239 47.8902 49.7001 47.6521ZM48.8382 46.9283C49.1906 46.895 49.8001 46.876 49.7668 46.8045C49.4287 46.7093 48.8525 46.4188 48.7858 46.5902C48.7334 46.7236 48.8382 46.7855 48.8382 46.9283ZM50.4096 45.2521C50.443 44.9331 50.3144 44.6521 50.0239 44.5617C49.8334 44.2902 49.4144 44.5283 49.6858 44.7998C49.7858 44.8998 49.9572 45.0712 49.8668 45.3093C50.0572 45.376 50.1239 45.514 49.9906 45.7474C50.1382 45.9045 50.162 45.9855 49.9572 46.1664C50.1715 46.2998 50.2763 46.3712 50.0906 46.776C50.0049 46.9855 50.2001 46.9998 50.262 47.1331C50.2811 46.8331 50.7001 46.7045 50.3287 46.3188C50.3811 46.014 50.462 45.6759 50.4096 45.2474M49.3477 44.5379C49.0906 44.0283 50.362 43.9807 49.9049 43.914C49.6001 43.9902 49.2287 43.995 49.1287 44.1188C49.081 44.1807 49.1668 44.2807 49.1144 44.3569C49.062 44.4379 48.9477 44.3807 48.8906 44.4569C48.7763 44.5998 49.1906 44.5045 49.3525 44.5379M39.8763 50.5617C39.7049 50.6045 39.6049 50.6426 39.4382 50.6855C39.5953 50.514 39.681 50.3998 39.8239 50.2236C40.0953 50.0902 40.1001 50.414 39.8763 50.5617ZM42.0239 48.9379C42.5858 49.014 43.0049 48.9379 43.8049 49.195C44.0191 49.2093 43.9334 48.814 43.8191 48.9045C43.7049 48.995 43.4811 49.0617 43.4334 48.8712C43.3239 48.4188 42.4572 48.8998 42.0239 48.9379ZM44.4953 48.3617C44.2668 48.4426 44.1763 48.395 43.9049 48.5664C44.1763 48.7236 44.5001 48.9664 44.5525 48.9855C44.5953 48.9998 44.662 48.9331 44.6668 48.8855C44.6953 48.7569 44.4096 48.514 44.4906 48.3664M46.8953 47.7902C46.762 48.0664 46.7953 48.2855 46.5239 48.5188C46.3668 48.6521 46.3191 48.8379 46.2382 49.0617C46.162 49.2712 45.9191 49.2855 45.6763 48.8902C44.6144 48.7331 45.3239 48.5521 44.7477 48.4283C44.7477 48.4283 44.4763 48.3188 44.9287 48.3617C45.2715 48.3902 45.462 48.4569 45.7953 48.395C46.2763 48.3045 46.4715 48.0093 46.8906 47.7855M44.0334 44.3331H44.1334V44.4569H44.0334V44.3331ZM46.4858 43.5902C46.6144 43.8807 46.7715 43.9807 46.8239 44.3569C46.8906 44.776 47.062 44.9998 47.1477 45.2855C47.1668 45.3617 47.3858 45.8617 46.9572 45.4331C46.5239 44.9998 46.3525 44.6426 46.1096 44.1188C46.0334 44.2188 46.043 44.3474 45.981 44.4569C45.9668 44.4902 45.9287 44.8902 45.8715 44.4712C45.7287 43.3331 45.4049 42.9331 44.8953 43.1712C45.1239 43.5188 45.2763 43.7188 45.5049 44.0664C45.5049 43.8855 45.4287 43.5712 45.4906 43.5807C45.6144 43.595 45.6525 43.714 45.6858 43.8331C45.7096 43.914 45.6668 44.0045 45.6906 44.0474C45.8239 44.2712 45.7334 44.6283 45.5287 45.3521C45.4858 45.4998 45.3668 45.6569 45.6191 45.7807C45.8906 45.914 45.9906 45.4902 46.1287 45.2379C46.1811 45.1379 46.362 45.195 46.4668 45.2712C46.6525 45.4093 46.4049 45.6379 46.3811 45.8617L47.6334 45.9474C47.4763 44.7617 47.2287 43.9188 46.4811 43.5902M53.7763 58.5998L54.7049 58.6664L55.2477 58.3283L54.5049 58.4998L53.7811 58.5998H53.7763ZM55.3477 57.6998L55.5525 57.1569L56.3668 56.8855L55.3525 57.6998H55.3477ZM49.6287 51.1569L49.4953 51.5617L49.9668 51.6283L49.6287 51.1569ZM41.5763 48.8569L40.9668 48.9902L40.4477 49.3426L40.1572 49.8712L40.8334 49.4664L41.1049 49.195L41.5763 48.8569ZM46.4477 46.095C47.1906 46.2998 47.9572 46.3521 47.9572 46.3998C47.9572 46.5712 48.2287 46.7569 48.0715 46.8379C47.9906 46.8807 47.9287 46.8379 47.8334 46.8236C47.2239 46.7569 46.8477 46.5569 46.4477 46.095ZM46.162 46.7045C45.9572 46.5236 45.9906 46.4521 46.2096 46.3664L45.8572 46.095C45.6525 46.2664 45.6525 46.4188 45.0906 46.1474C45.0763 46.1807 45.043 46.1998 45.0239 46.2283C46.0858 46.5331 45.6049 47.0283 45.0763 46.8712C44.8049 46.7902 44.2287 47.3664 45.4953 47.3093C45.5572 47.4188 45.5763 47.5379 45.6858 47.5998C45.8001 47.6664 46.1049 47.6331 46.343 47.5998C47.4477 47.4283 46.943 46.7521 46.3096 47.1712C45.8239 47.495 45.6191 47.495 45.7572 47.0902C45.3858 47.3617 45.4953 47.014 45.5334 46.9664C45.6572 46.8331 45.9144 46.6474 46.162 46.695M49.9668 49.4569C49.8668 49.8093 49.9191 51.0617 49.6811 50.3855C49.0858 50.5569 49.4858 49.8902 49.3763 49.595C49.6191 49.5331 49.7191 49.5188 49.9668 49.4617M50.5953 50.1712C50.4239 49.8664 50.3572 51.1331 50.2049 50.6569C50.2525 50.3855 50.3382 50.2712 50.2953 49.9807C50.2525 49.7236 50.9382 49.6759 50.9858 50.5426C50.5953 50.6759 50.6668 50.3855 50.6001 50.1712M52.9144 56.1283C53.0477 56.3426 52.743 57.2807 53.2858 56.7045C53.5001 56.7664 53.4906 56.6712 53.862 56.876C53.6906 56.1998 53.2858 56.7426 52.9144 56.1331M52.3953 57.7093C52.0477 58.0569 51.9287 58.1569 51.4191 58.3379C51.3239 58.3712 51.2715 58.2283 51.3668 58.195C51.8572 58.0236 51.9525 57.9331 52.2858 57.6045C52.3572 57.5331 52.4668 57.6426 52.3953 57.714M51.743 58.8617C51.8144 58.8236 51.9096 58.7521 52.0763 58.6093C52.6668 58.1045 53.3191 57.714 53.9811 57.314C54.362 57.0807 54.4049 56.7188 54.0906 56.295C53.7525 55.8474 53.6144 55.3759 53.3668 54.8855C54.3525 54.2998 54.4096 53.914 54.9811 52.9998C55.9287 53.6045 56.0715 53.9569 56.2191 55.0426C55.7525 55.7426 55.562 56.3998 55.3668 57.2093C55.1572 58.0664 54.5239 58.2664 53.7858 58.3426C53.7382 58.3426 53.7049 58.3521 53.6811 58.3569C53.4144 58.4379 53.6239 58.7331 53.362 58.8902C53.1001 59.0426 52.9668 58.8426 52.6191 59.0569C52.3334 59.2331 52.0715 59.2998 51.7191 59.2331C51.3715 59.1617 51.0477 59.1188 50.6906 59.1045V59.0188C50.6906 58.5331 51.2811 58.8283 51.5382 58.7617C51.5572 58.7569 51.5763 58.7521 51.5953 58.7521C51.6668 58.7521 51.7239 58.795 51.743 58.8617Z" fill="#121516"></path><path fill-rule="evenodd" clip-rule="evenodd" d="M45.0239 67.2713V63.2808H44.5715V62.4951H45.943V67.2713H45.0239Z" fill="#DB4440"></path><path fill-rule="evenodd" clip-rule="evenodd" d="M48.6049 65.3331C48.4001 65.495 48.2001 65.576 47.9954 65.576C47.6954 65.576 47.462 65.4522 47.2906 65.1998C47.1192 64.9474 47.0334 64.5998 47.0334 64.1569C47.0334 63.5998 47.1477 63.176 47.3763 62.876C47.6049 62.5807 47.9287 62.4331 48.3573 62.4331C48.762 62.4331 49.0763 62.5807 49.3001 62.876C49.5239 63.1664 49.6382 63.576 49.6382 64.1045C49.6382 64.6331 49.443 65.3283 49.0573 66.1664L49.0144 66.2569L48.5525 67.276H47.6287L48.3668 65.7807C48.3668 65.7807 48.3715 65.7664 48.3811 65.7522C48.4477 65.6141 48.5239 65.476 48.6049 65.3379M48.3192 63.2807C48.0858 63.2807 47.9668 63.5283 47.9668 64.0283C47.9668 64.5283 48.0858 64.776 48.3192 64.776C48.5525 64.776 48.6763 64.5283 48.6763 64.0283C48.6763 63.5331 48.5573 63.2807 48.3192 63.2807Z" fill="#DB4440"></path><path fill-rule="evenodd" clip-rule="evenodd" d="M51.0573 64.4379C51.2668 64.2855 51.4668 64.2093 51.6525 64.2093C51.9525 64.2093 52.1858 64.3283 52.3573 64.5712C52.5287 64.814 52.6144 65.1521 52.6144 65.5807C52.6144 66.1331 52.5001 66.5664 52.2715 66.8712C52.043 67.1807 51.7287 67.3331 51.3239 67.3331C50.9001 67.3331 50.5715 67.1902 50.343 66.9045C50.1144 66.6188 50.0049 66.2045 50.0049 65.6759C50.0049 65.1474 50.2096 64.4664 50.6239 63.6188L50.6763 63.5093L51.1668 62.4902H52.0811L51.3192 63.9902C51.2287 64.1664 51.143 64.314 51.062 64.4331M51.3192 66.4902C51.562 66.4902 51.6858 66.2426 51.6858 65.7521C51.6858 65.2617 51.5715 65.0045 51.3477 65.0045C51.1001 65.0045 50.9763 65.2712 50.9763 65.8093C50.9763 66.2617 51.0906 66.4902 51.3192 66.4902Z" fill="#DB4440"></path><path fill-rule="evenodd" clip-rule="evenodd" d="M52.9573 67.143L53.0763 66.2811C53.3144 66.4239 53.5478 66.4954 53.7668 66.4954C54.262 66.4954 54.5097 66.2382 54.5097 65.7239C54.5097 65.1335 54.1239 64.8382 53.3525 64.8382C53.3287 64.8382 53.2668 64.8382 53.1573 64.8477C53.1478 64.8477 53.1287 64.8477 53.1097 64.8477L53.4382 62.4858H55.3001V63.2954H54.1001L53.9811 64.1668H54.0144C54.462 64.1668 54.8144 64.2954 55.0668 64.5573C55.3192 64.8144 55.4478 65.1716 55.4478 65.6287C55.4478 66.1525 55.3049 66.562 55.0239 66.8668C54.743 67.1716 54.362 67.3239 53.8763 67.3239C53.5239 67.3239 53.2144 67.262 52.9478 67.1382" fill="#DB4440"></path><path fill-rule="evenodd" clip-rule="evenodd" d="M35.3096 36.7809V35.9857C35.5001 36.1524 35.6905 36.2381 35.8715 36.2381C36.1477 36.2381 36.2858 36.1095 36.2858 35.8571C36.2858 35.7143 36.1858 35.5571 35.9858 35.3857C35.9477 35.3524 35.9096 35.319 35.862 35.2762C35.6334 35.0667 35.4715 34.8809 35.381 34.7095C35.2953 34.5476 35.2524 34.3571 35.2524 34.1428C35.2524 33.8143 35.3429 33.5476 35.5286 33.3428C35.7143 33.1381 35.9572 33.0381 36.2572 33.0381C36.462 33.0381 36.6763 33.1 36.9001 33.2286V33.9048C36.6667 33.7905 36.4953 33.7333 36.3905 33.7333C36.281 33.7333 36.1905 33.7667 36.1191 33.8381C36.0477 33.9048 36.0143 33.9952 36.0143 34.1095C36.0143 34.2143 36.0429 34.3048 36.0953 34.3857C36.1524 34.4762 36.2763 34.6 36.462 34.7619C36.7096 34.9762 36.8763 35.1571 36.9572 35.3095C37.0286 35.4476 37.0667 35.619 37.0667 35.8381C37.0667 36.1857 36.9667 36.4619 36.7715 36.6619C36.5763 36.8619 36.3096 36.9619 35.9715 36.9619C35.7143 36.9619 35.4953 36.9 35.3096 36.7809Z" fill="#DB4439"></path><path fill-rule="evenodd" clip-rule="evenodd" d="M37.5668 36.9141L38.4572 33.0903H39.2573L40.1049 36.9141H39.343L39.2144 36.2427H38.4477L38.3287 36.9141H37.5668ZM38.5858 35.6475H39.0953C38.9906 35.1046 38.9049 34.5189 38.843 33.8808C38.7668 34.4522 38.6811 35.0427 38.5858 35.6475Z" fill="#DB4439"></path><path fill-rule="evenodd" clip-rule="evenodd" d="M40.5953 36.9141L40.9715 33.0903H41.9525L42.1525 34.5475C42.2096 34.957 42.2477 35.3665 42.2763 35.776C42.3382 35.1237 42.381 34.7094 42.4096 34.5475L42.6572 33.0903H43.6287L43.9525 36.9141H43.1811L43.1001 35.138C43.1001 35.1046 43.1001 35.038 43.0906 34.9475C43.0668 34.4713 43.0572 34.0903 43.0572 33.8046L42.562 36.9094H42.0096L41.543 33.7808C41.543 34.038 41.5287 34.4094 41.4953 34.8951L41.4811 35.1427L41.362 36.9094H40.6049L40.5953 36.9141Z" fill="#DB4439"></path><path fill-rule="evenodd" clip-rule="evenodd" d="M44.643 36.7809V35.9857C44.8334 36.1524 45.0239 36.2381 45.2049 36.2381C45.4811 36.2381 45.6192 36.1095 45.6192 35.8571C45.6192 35.7143 45.5191 35.5571 45.3191 35.3857C45.2811 35.3524 45.2382 35.319 45.1953 35.2762C44.9668 35.0667 44.8049 34.8809 44.7144 34.7095C44.6287 34.5476 44.5858 34.3571 44.5858 34.1428C44.5858 33.8143 44.6763 33.5476 44.862 33.3428C45.0477 33.1381 45.2906 33.0381 45.5906 33.0381C45.7953 33.0381 46.0096 33.1 46.2334 33.2286V33.9048C45.9953 33.7905 45.8287 33.7333 45.7239 33.7333C45.6144 33.7333 45.5239 33.7667 45.4525 33.8381C45.3811 33.9048 45.3477 33.9952 45.3477 34.1095C45.3477 34.2143 45.3715 34.3048 45.4287 34.3857C45.4858 34.4762 45.6096 34.6 45.7953 34.7619C46.043 34.9762 46.2096 35.1571 46.2906 35.3095C46.362 35.4476 46.4001 35.619 46.4001 35.8381C46.4001 36.1857 46.3001 36.4619 46.1049 36.6619C45.9096 36.8619 45.643 36.9619 45.3049 36.9619C45.0477 36.9619 44.8287 36.9 44.643 36.7809Z" fill="#DB4439"></path><path fill-rule="evenodd" clip-rule="evenodd" d="M49.5858 33.0952V35.4952C49.5858 35.9666 49.5477 36.2762 49.4715 36.4238C49.2905 36.7857 48.9286 36.9619 48.3906 36.9619C47.8525 36.9619 47.4905 36.7809 47.3096 36.4238C47.2334 36.2714 47.1953 35.9619 47.1953 35.4952V33.0952H47.9572V35.5571C47.9572 35.8571 47.9906 36.0619 48.0525 36.1571C48.1096 36.2476 48.2239 36.2952 48.3906 36.2952C48.5572 36.2952 48.6763 36.2476 48.7382 36.1524C48.7953 36.0571 48.8286 35.8571 48.8286 35.5571V33.0952H49.5858Z" fill="#DB4439"></path><path fill-rule="evenodd" clip-rule="evenodd" d="M50.5668 36.9141V33.0903H51.3382L52.1096 35.1475C52.143 35.238 52.2239 35.4999 52.343 35.938C52.262 35.4094 52.2239 34.9522 52.2239 34.5618V33.0951H52.9287V36.9189H52.2239L51.3858 34.7808C51.3715 34.7427 51.3334 34.6094 51.2763 34.3903L51.2096 34.1427C51.243 34.438 51.262 34.8284 51.262 35.3094V36.9189H50.562L50.5668 36.9141Z" fill="#DB4439"></path><path fill-rule="evenodd" clip-rule="evenodd" d="M53.8239 36.7809V35.9857C54.0143 36.1524 54.2048 36.2381 54.3858 36.2381C54.662 36.2381 54.8001 36.1095 54.8001 35.8571C54.8001 35.7143 54.7001 35.5571 54.5001 35.3857C54.462 35.3524 54.4191 35.319 54.3762 35.2762C54.1477 35.0667 53.9858 34.8809 53.8953 34.7095C53.8096 34.5476 53.7667 34.3571 53.7667 34.1428C53.7667 33.8143 53.8572 33.5476 54.0429 33.3428C54.2286 33.1381 54.4715 33.0381 54.7715 33.0381C54.9762 33.0381 55.1905 33.1 55.4143 33.2286V33.9048C55.181 33.7905 55.0096 33.7333 54.9048 33.7333C54.7953 33.7333 54.7048 33.7667 54.6334 33.8381C54.562 33.9048 54.5286 33.9952 54.5286 34.1095C54.5286 34.2143 54.5572 34.3048 54.6096 34.3857C54.6667 34.4762 54.7905 34.6 54.9762 34.7619C55.2239 34.9762 55.3905 35.1571 55.4715 35.3095C55.5429 35.4476 55.581 35.619 55.581 35.8381C55.581 36.1857 55.481 36.4619 55.2858 36.6619C55.0905 36.8619 54.8239 36.9619 54.4858 36.9619C54.2286 36.9619 54.0096 36.9 53.8239 36.7809Z" fill="#DB4439"></path><path fill-rule="evenodd" clip-rule="evenodd" d="M56.4001 36.9141V33.0903H57.1954C58.024 33.0903 58.4382 33.4618 58.4382 34.1999C58.4382 34.557 58.3382 34.838 58.143 35.0332C57.9478 35.2284 57.6668 35.3284 57.3144 35.3284C57.243 35.3284 57.1859 35.3284 57.143 35.3237V36.9094H56.4001V36.9141ZM57.1382 34.7475C57.1382 34.7475 57.1573 34.7475 57.1763 34.7475C57.2001 34.7475 57.2144 34.7475 57.2192 34.7475C57.5525 34.7475 57.7144 34.5665 57.7144 34.2046C57.7144 33.8427 57.5478 33.6713 57.2192 33.6713C57.2144 33.6713 57.2001 33.6713 57.1763 33.6713C57.1573 33.6713 57.143 33.6713 57.1382 33.6713V34.7332V34.7475Z" fill="#DB4439"></path><path fill-rule="evenodd" clip-rule="evenodd" d="M61.8049 35.0616C61.8049 35.6426 61.681 36.1045 61.4382 36.4474C61.1953 36.7902 60.8668 36.9616 60.4572 36.9616C60.0477 36.9616 59.7049 36.7902 59.4715 36.4474C59.2382 36.0997 59.1191 35.6236 59.1191 35.0093C59.1191 34.395 59.2382 33.9188 59.4763 33.5712C59.7144 33.2236 60.043 33.0474 60.462 33.0474C60.881 33.0474 61.2096 33.2283 61.4477 33.5855C61.6858 33.9426 61.8049 34.4331 61.8049 35.0664M60.4572 36.2426C60.8477 36.2426 61.043 35.8331 61.043 35.014C61.043 34.1902 60.8477 33.7807 60.4572 33.7807C60.0668 33.7807 59.8763 34.1902 59.8763 35.014C59.8763 35.8378 60.0715 36.2426 60.4572 36.2426Z" fill="#DB4439"></path><path fill-rule="evenodd" clip-rule="evenodd" d="M62.6763 36.9141V33.0903H63.4715C63.9096 33.0903 64.2239 33.176 64.4191 33.3475C64.6144 33.5189 64.7144 33.7903 64.7144 34.1665C64.7144 34.7046 64.5144 35.038 64.1096 35.1713L64.8429 36.9141H64.0382L63.4144 35.3332V36.9141H62.6763ZM63.4144 34.7475C63.4144 34.7475 63.4334 34.7475 63.4572 34.7475C63.481 34.7475 63.4953 34.7475 63.5001 34.7475C63.8334 34.7475 64.0001 34.5665 64.0001 34.1999C64.0001 33.8475 63.8382 33.6713 63.5144 33.6713C63.4715 33.6713 63.4382 33.6713 63.4144 33.676V34.738V34.7475Z" fill="#DB4439"></path><path d="M49.9573 78.2476L49.4953 77.938C49.4192 77.8857 41.7525 72.7333 36.1572 67.7238C30.3715 62.5428 29.0715 51 29.0715 47.3619V26.1904H70.9191V37.4809C70.9191 47.7 70.3239 54.5428 69.0477 59.0238C67.8525 63.2142 66.1811 65.019 64.4049 66.9333C64.0001 67.3714 63.5763 67.8238 63.1572 68.3142C59.0811 73.0714 50.7811 77.7809 50.4334 77.9809L49.9525 78.2523L49.9573 78.2476ZM30.8715 27.9857V47.3619C30.8715 50.1523 31.9715 61.5571 37.3572 66.3809C42.0715 70.6047 48.3049 74.9428 50.0334 76.1285C51.862 75.0523 58.4668 71.0238 61.8001 67.1381C62.243 66.6238 62.6715 66.1571 63.0906 65.7047C66.462 62.0714 69.1239 59.1952 69.1239 37.4761V27.9857H30.8715Z" fill="#DB4440"></path><path d="M66.5096 38.0049H33.4954V39.8001H66.5096V38.0049Z" fill="#DB4440"></path><path d="M49.9572 73.8429L49.4953 73.5334C49.4334 73.4905 43.1049 69.2382 38.4858 65.1001C33.6763 60.7905 32.5906 51.2143 32.5906 48.2001V29.7524H67.4001V40.0524C67.4001 57.7048 65.343 60.8191 61.9906 64.4382C61.6572 64.8001 61.3096 65.1715 60.9668 65.5715C57.5858 69.5143 50.7287 73.4096 50.4382 73.5715L49.9572 73.8429ZM34.3906 48.2001C34.3906 50.4858 35.2906 59.8239 39.6858 63.762C43.4953 67.1715 48.5049 70.6763 50.0382 71.7286C51.6525 70.7763 56.9287 67.5286 59.6096 64.4001C59.9763 63.9715 60.3334 63.5858 60.6763 63.2143C63.4287 60.2429 65.6049 57.8953 65.6049 40.0524V31.5477H34.3906V48.2001Z" fill="#DB4440"></path><path d="M30.7095 11.3384L31.1143 12.0717L28.9 13.2955L29.2476 13.9289L31.2143 12.8431L31.6143 13.5717L29.6476 14.6574L30.1333 15.5336L29.2714 16.0098L27.6333 13.0431L30.7095 11.3431V11.3384Z" fill="black"></path><path d="M36.2999 12.6237L35.7618 12.1523L33.8285 12.938L33.7714 13.6523L32.7904 14.0523L33.1333 10.2571L34.3904 9.74756L37.2809 12.2285L36.3047 12.6237H36.2999ZM33.8952 12.1142L35.1333 11.6095L34.0142 10.6333L33.8952 12.1142Z" fill="black"></path><path d="M41.3476 10.1764L40.7619 7.81927L41.7095 7.58594L42.5238 10.8764L41.1286 11.224L38.6048 9.34784L39.1905 11.705L38.2381 11.9431L37.4238 8.6526L38.8238 8.30499L41.3476 10.1812V10.1764Z" fill="black"></path><path d="M46.119 6.96208L50.2 6.79541L50.2333 7.62874L48.6857 7.69065L48.7904 10.243L47.8095 10.2811L47.7047 7.72874L46.1524 7.79065L46.119 6.95731V6.96208Z" fill="black"></path><path d="M51.3905 8.49526C51.4857 7.37622 52.3143 6.78098 53.7381 6.90479C55.1572 7.0286 55.8762 7.75717 55.781 8.87145C55.6857 9.9905 54.8524 10.5953 53.4334 10.4715C52.0096 10.3476 51.2953 9.61907 51.3905 8.49526ZM54.7572 8.78574C54.8096 8.20003 54.5048 7.80955 53.6667 7.73812C52.8334 7.66669 52.4667 7.9905 52.4191 8.58574C52.3667 9.18098 52.6762 9.57145 53.5048 9.64288C54.3381 9.71431 54.7096 9.38098 54.7619 8.7905L54.7572 8.78574Z" fill="black"></path><path d="M61.6237 8.36681L59.6333 9.38109L60.8809 11.6763L59.6761 11.4049L58.8095 9.8049L57.8618 10.2859L57.7095 10.9573L56.7523 10.7382L57.4999 7.42871L58.4618 7.643L58.1285 9.12871L60.1952 8.03823L61.6333 8.36204L61.6237 8.36681Z" fill="black"></path><path d="M66.3285 9.99553L66.0666 10.7193L63.6856 9.85744L63.4999 10.367L65.7904 11.1955L65.5285 11.9193L63.238 11.0908L63.0523 11.6003L65.4332 12.4622L65.1713 13.186L61.8666 11.9908L63.019 8.80029L66.3237 9.99553H66.3285Z" fill="black"></path><path d="M69.7618 14.3526L70.8761 12.1907L71.7476 12.6383L70.1904 15.6526L68.9095 14.9907L68.2476 11.9097L67.1333 14.0716L66.2571 13.6193L67.8142 10.605L69.0999 11.2669L69.7618 14.3478V14.3526Z" fill="black"></path><path d="M27.3953 85.4763C27.2476 85.7192 27.3953 86.0239 28.1572 86.4858C28.8572 86.9049 29.0953 86.9001 29.2048 86.7192C29.3334 86.5097 29.2238 86.3906 28.3953 85.8144C27.2667 85.024 26.8905 84.4763 27.2762 83.8335C27.6429 83.2287 28.4619 83.3478 29.4667 83.9525C30.5857 84.6239 31.0238 85.3525 30.6619 86.0144L29.781 85.4859C29.9334 85.2287 29.7143 84.962 29.0619 84.5716C28.4429 84.2001 28.2429 84.2192 28.1476 84.3763C28.0381 84.5573 28.1476 84.6954 28.8953 85.2335C29.9143 85.9573 30.5619 86.4478 30.1048 87.2097C29.6572 87.9525 28.8381 87.7573 27.8048 87.1335C26.6286 86.4239 26.0905 85.7382 26.5096 84.9478L27.3905 85.4811L27.3953 85.4763Z" fill="black"></path><path d="M31.5238 87.1909C31.9714 86.1576 32.9428 85.8623 34.2571 86.429C35.5667 86.9957 36.0143 87.9147 35.5714 88.9433C35.1238 89.9766 34.1428 90.2814 32.8333 89.7147C31.519 89.148 31.0762 88.229 31.5238 87.1909ZM34.6286 88.5385C34.8619 87.9957 34.6952 87.5338 33.9238 87.1957C33.1571 86.8623 32.7047 87.0576 32.4714 87.6004C32.2333 88.1481 32.4047 88.6147 33.1667 88.948C33.9333 89.2814 34.3952 89.0814 34.6286 88.5338V88.5385Z" fill="black"></path><path d="M39.3047 88.2194C40.5095 88.5575 41.0428 89.2623 40.9047 90.129L39.9 89.848C39.919 89.529 39.6857 89.1909 39.0809 89.0242C38.3809 88.829 37.9476 89.0766 37.7905 89.648C37.6285 90.2242 37.8762 90.6671 38.5714 90.8623C39.1762 91.029 39.5524 90.8623 39.7 90.5718L40.7047 90.8528C40.3714 91.6718 39.5476 92.0004 38.3428 91.6671C37.0333 91.3004 36.4857 90.4909 36.7952 89.3718C37.1095 88.2575 37.9952 87.8528 39.3047 88.2194Z" fill="black"></path><path d="M43.3953 89.2289L42.7953 92.5623L41.8286 92.3861L42.4286 89.0527L43.3953 89.2289Z" fill="black"></path><path d="M44.419 91.1481C44.5095 90.029 45.3333 89.4338 46.7571 89.5481C48.1762 89.6624 48.9 90.3909 48.8047 91.5052C48.7143 92.6243 47.8857 93.229 46.4666 93.1147C45.0428 93.0005 44.3238 92.2719 44.419 91.1481ZM47.7857 91.4243C47.8333 90.8386 47.5285 90.4528 46.6905 90.3814C45.8571 90.3148 45.4952 90.6433 45.4428 91.2338C45.3952 91.829 45.7047 92.2148 46.5333 92.2862C47.3666 92.3528 47.7381 92.0195 47.7857 91.4243Z" fill="black"></path><path d="M51.119 92.048C51.1333 92.3337 51.4238 92.5051 52.3143 92.4575C53.1286 92.4146 53.3238 92.2766 53.3095 92.0623C53.2952 91.8146 53.1428 91.7813 52.1333 91.767C50.7571 91.7432 50.1333 91.5004 50.0952 90.748C50.0571 90.0432 50.8047 89.6813 51.9762 89.6242C53.2809 89.5575 54.0524 89.9099 54.119 90.6623L53.0952 90.7146C53.0809 90.4146 52.7476 90.3194 51.9857 90.3575C51.2666 90.3956 51.1095 90.5242 51.119 90.7051C51.1285 90.9146 51.2952 90.9718 52.219 91.0004C53.4666 91.0289 54.2809 91.0718 54.3285 91.9623C54.3714 92.8289 53.5857 93.1242 52.3809 93.1861C51.0095 93.2575 50.1762 92.9861 50.0857 92.0956L51.1143 92.0432L51.119 92.048Z" fill="black"></path><path d="M55.7429 92.0429L56.681 91.9048L56.7858 92.6334L55.8477 92.7715L55.7382 92.0429H55.7429Z" fill="black"></path><path d="M59.4809 88.5382C60.6952 88.243 61.5095 88.5953 61.8143 89.4191L60.8 89.6668C60.6619 89.3763 60.2905 89.2001 59.6809 89.3477C58.9762 89.5192 58.719 89.9477 58.8571 90.5287C59 91.1096 59.4333 91.3763 60.1333 91.2049C60.7428 91.0572 60.9905 90.7239 60.9762 90.3953L61.9905 90.1477C62.1 91.0239 61.5428 91.7191 60.3286 92.0144C59.0047 92.3382 58.1286 91.9001 57.8524 90.7715C57.5762 89.6477 58.1524 88.862 59.4762 88.5382H59.4809Z" fill="black"></path><path d="M63.1524 89.3907C62.7382 88.3431 63.2191 87.4431 64.5477 86.9193C65.8715 86.3955 66.8429 86.7288 67.2524 87.7717C67.6667 88.8193 67.1858 89.7288 65.862 90.2526C64.5334 90.7764 63.5667 90.4431 63.1524 89.3907ZM66.3001 88.1478C66.0858 87.6002 65.6382 87.3859 64.8572 87.6955C64.081 88.0002 63.8953 88.4574 64.1143 89.0097C64.3334 89.5669 64.7858 89.7764 65.5572 89.4717C66.3334 89.1669 66.5191 88.7002 66.3001 88.1478Z" fill="black"></path><path d="M69.3381 88.6907L67.6333 85.7574L68.9571 84.986L71.1095 86.3383L70.9952 83.8002L72.319 83.0288L74.0238 85.9621L73.1762 86.4526L71.9428 84.3288L72.0762 87.0955L71.2904 87.5526L68.9524 86.0717L70.1904 88.1955L69.3381 88.6907Z" fill="black"></path><path d="M23.0191 81.8382C13.9953 74.1811 8.26672 62.7573 8.26672 50.0001C8.26672 37.243 14.3001 25.2144 23.7382 17.562" stroke="#A43330" stroke-miterlimit="10"></path><path d="M76.2667 17.5669C85.7048 25.2193 91.7334 36.905 91.7334 50.0002C91.7334 63.0955 86.0048 74.1859 76.981 81.8431" stroke="#A43330" stroke-miterlimit="10"></path></g><defs><clipPath id="clip0_101_22079"><rect width="100" height="100" fill="white"></rect></clipPath></defs></svg>