<svg xmlns="http://www.w3.org/2000/svg" width="100" height="100" viewBox="0 0 100 100" fill="none"><g clip-path="url(#clip0_101_22088)"><path d="M50 100C77.6142 100 100 77.6142 100 50C100 22.3858 77.6142 0 50 0C22.3858 0 0 22.3858 0 50C0 77.6142 22.3858 100 50 100Z" fill="white"></path><path d="M50 2.53333C76.1714 2.53333 97.4667 23.8286 97.4667 50C97.4667 76.1714 76.1714 97.4667 50 97.4667C23.8286 97.4667 2.53333 76.1714 2.53333 50C2.53333 23.8286 23.8286 2.53333 50 2.53333ZM50 0C22.3857 0 0 22.3857 0 50C0 77.6143 22.3857 100 50 100C77.6143 100 100 77.6143 100 50C100 22.3857 77.6143 0 50 0Z" fill="#E20613"></path><path fill-rule="evenodd" clip-rule="evenodd" d="M25.4856 48.9478V29.9097H74.5046V48.8954L49.9951 78.8668L25.4856 48.9478Z" fill="white"></path><path fill-rule="evenodd" clip-rule="evenodd" d="M28.2856 48.0952L46.1571 69.8809V48.0952H28.2856Z" fill="#D71921"></path><path fill-rule="evenodd" clip-rule="evenodd" d="M71.7047 48.0952L53.8333 69.8857V48.0952H71.7047Z" fill="#001522"></path><path fill-rule="evenodd" clip-rule="evenodd" d="M46.1095 36.5287H42.9619V38.3906H46.1095C46.3476 38.3906 46.5 38.3239 46.5666 38.262C46.8523 38.0239 46.8285 36.8953 46.5666 36.681C46.4571 36.5953 46.3476 36.5287 46.1095 36.5287ZM28.2095 45.3763H71.7809V32.6572H28.2095V45.3763ZM38.4476 42.1096C38.4476 42.5001 37.8809 43.3429 37.4285 43.3429H30.8476V41.3763H36.1714C36.538 41.3763 36.538 39.8239 36.1714 39.8239H32.1285C31.6523 39.8239 30.8476 39.3906 30.8476 38.8715L30.8238 35.9715C30.8238 34.562 31.9999 34.7144 32.9761 34.7144H38.4476V36.4239H33.1285C32.6285 36.4239 32.6523 38.0525 33.1285 38.0525H36.7333C37.4952 38.0525 38.4714 38.2477 38.4714 39.3525L38.4476 42.1144V42.1096ZM48.6523 38.4715C48.6523 39.1001 48.5333 39.4525 48.2142 39.7715C47.8952 40.0858 47.519 40.162 47.1714 40.162H43V43.3429H41.0238V34.7096H47.1714C47.7333 34.7096 47.9809 34.8429 48.2142 35.081C48.4476 35.3144 48.6523 35.7763 48.6523 36.1382V38.4763V38.4715ZM58.8952 36.3715H53.0714V38.362H57.419V40.181H53.0714V43.3572H51.2714V34.681H58.8952V36.3715ZM69.1952 41.3191C69.1952 42.3763 68.7999 43.3953 67.4571 43.3953H63.219C61.7238 43.3953 61.4857 42.5715 61.4857 41.3191L61.4619 35.9715C61.4619 35.281 62.0714 34.6525 63.1999 34.6525H67.519C68.6285 34.6525 69.1523 35.4763 69.1523 35.9715V37.7667H67.2857C67.2857 36.862 67.1761 36.4715 66.7 36.4715H64.0285C63.6571 36.4715 63.2666 36.9667 63.2666 37.3572V40.7096C63.2666 40.8858 63.5952 41.4239 63.8999 41.4239H66.6809C67.0952 41.381 67.2904 40.9667 67.2666 40.2144H69.2047V41.3191H69.1952Z" fill="#001522"></path><path fill-rule="evenodd" clip-rule="evenodd" d="M24.8142 29.2334V49.1953L50.0047 79.9382L75.1904 49.1429V29.2334H24.8142ZM74.5047 48.8953L49.9999 78.862L25.4904 48.9477V29.9096H74.5094V48.8953H74.5047Z" fill="#001522"></path><path d="M30.7095 11.3384L31.1143 12.0717L28.9 13.2955L29.2476 13.9289L31.2143 12.8431L31.6143 13.5717L29.6476 14.6574L30.1333 15.5336L29.2714 16.0098L27.6333 13.0431L30.7095 11.3431V11.3384Z" fill="#001522"></path><path d="M36.3001 12.6237L35.762 12.1523L33.8286 12.938L33.7715 13.6523L32.7905 14.0523L33.1334 10.2571L34.3905 9.74756L37.281 12.2285L36.3048 12.6237H36.3001ZM33.8953 12.1142L35.1334 11.6095L34.0143 10.6333L33.8953 12.1142Z" fill="#001522"></path><path d="M41.3476 10.1764L40.7619 7.81927L41.7095 7.58594L42.5238 10.8764L41.1286 11.224L38.6048 9.34784L39.1905 11.705L38.2381 11.9431L37.4238 8.6526L38.8238 8.30499L41.3476 10.1812V10.1764Z" fill="#001522"></path><path d="M46.1189 6.96208L50.1998 6.79541L50.2332 7.62874L48.6856 7.69065L48.7903 10.243L47.8094 10.2811L47.7046 7.72874L46.1522 7.79065L46.1189 6.95731V6.96208Z" fill="#001522"></path><path d="M51.3905 8.49526C51.4857 7.37622 52.3143 6.78098 53.7381 6.90479C55.1572 7.0286 55.8762 7.75717 55.781 8.87145C55.6857 9.9905 54.8524 10.5953 53.4334 10.4715C52.0096 10.3476 51.2953 9.61907 51.3905 8.49526ZM54.7572 8.78574C54.8096 8.20003 54.5048 7.80955 53.6667 7.73812C52.8334 7.66669 52.4667 7.9905 52.4191 8.58574C52.3667 9.18098 52.6762 9.57145 53.5048 9.64288C54.3381 9.71431 54.7096 9.38098 54.7619 8.7905L54.7572 8.78574Z" fill="#001522"></path><path d="M61.6239 8.36681L59.6334 9.38109L60.881 11.6763L59.6763 11.4049L58.8096 9.8049L57.862 10.2859L57.7096 10.9573L56.7524 10.7382L57.5001 7.42871L58.462 7.643L58.1286 9.12871L60.1953 8.03823L61.6334 8.36204L61.6239 8.36681Z" fill="#001522"></path><path d="M66.3286 9.99553L66.0667 10.7193L63.6858 9.85744L63.5 10.367L65.7905 11.1955L65.5286 11.9193L63.2381 11.0908L63.0524 11.6003L65.4334 12.4622L65.1715 13.186L61.8667 11.9908L63.0191 8.80029L66.3238 9.99553H66.3286Z" fill="#001522"></path><path d="M69.7618 14.3526L70.8761 12.1907L71.7476 12.6383L70.1904 15.6526L68.9095 14.9907L68.2476 11.9097L67.1333 14.0716L66.2571 13.6193L67.8142 10.605L69.0999 11.2669L69.7618 14.3478V14.3526Z" fill="#001522"></path><path d="M27.3953 85.4763C27.2476 85.7192 27.3953 86.0239 28.1572 86.4858C28.8572 86.9049 29.0953 86.9001 29.2048 86.7192C29.3334 86.5097 29.2238 86.3906 28.3953 85.8144C27.2667 85.024 26.8905 84.4763 27.2762 83.8335C27.6429 83.2287 28.4619 83.3478 29.4667 83.9525C30.5857 84.6239 31.0238 85.3525 30.6619 86.0144L29.781 85.4859C29.9334 85.2287 29.7143 84.962 29.0619 84.5716C28.4429 84.2001 28.2429 84.2192 28.1476 84.3763C28.0381 84.5573 28.1476 84.6954 28.8953 85.2335C29.9143 85.9573 30.5619 86.4478 30.1048 87.2097C29.6572 87.9525 28.8381 87.7573 27.8048 87.1335C26.6286 86.4239 26.0905 85.7382 26.5096 84.9478L27.3905 85.4811L27.3953 85.4763Z" fill="#001522"></path><path d="M31.5238 87.1909C31.9714 86.1576 32.9428 85.8623 34.2571 86.429C35.5667 86.9957 36.0143 87.9147 35.5714 88.9433C35.1238 89.9766 34.1428 90.2814 32.8333 89.7147C31.519 89.148 31.0762 88.229 31.5238 87.1909ZM34.6286 88.5385C34.8619 87.9957 34.6952 87.5338 33.9238 87.1957C33.1571 86.8623 32.7047 87.0576 32.4714 87.6004C32.2333 88.1481 32.4047 88.6147 33.1667 88.948C33.9333 89.2814 34.3952 89.0814 34.6286 88.5338V88.5385Z" fill="#001522"></path><path d="M39.3047 88.2194C40.5047 88.5575 41.0428 89.2623 40.9047 90.129L39.9 89.848C39.919 89.529 39.6857 89.1909 39.0809 89.0242C38.3809 88.829 37.9476 89.0766 37.7857 89.648C37.6238 90.2242 37.8714 90.6671 38.5666 90.8623C39.1714 91.029 39.5476 90.8623 39.6952 90.5718L40.7 90.8528C40.3666 91.6718 39.5428 92.0004 38.3381 91.6671C37.0285 91.3004 36.4809 90.4909 36.7905 89.3718C37.1047 88.2575 37.9905 87.8528 39.3 88.2194H39.3047Z" fill="#001522"></path><path d="M43.3953 89.2289L42.7953 92.5623L41.8286 92.3861L42.4286 89.0527L43.3953 89.2289Z" fill="#001522"></path><path d="M44.4191 91.1481C44.5096 90.029 45.3334 89.4338 46.7572 89.5481C48.1763 89.6624 48.9001 90.3909 48.8049 91.5052C48.7144 92.6243 47.8858 93.229 46.462 93.1147C45.0382 93.0005 44.3191 92.2719 44.4144 91.1481H44.4191ZM47.7858 91.4243C47.8334 90.8386 47.5287 90.4528 46.6906 90.3814C45.8572 90.3148 45.4953 90.6433 45.443 91.2338C45.3953 91.829 45.7049 92.2148 46.5334 92.2862C47.3668 92.3528 47.7382 92.0195 47.7858 91.4243Z" fill="#001522"></path><path d="M51.119 92.048C51.1333 92.3337 51.4238 92.5051 52.3143 92.4575C53.1286 92.4146 53.3238 92.2766 53.3095 92.0623C53.2952 91.8146 53.1428 91.7813 52.1333 91.767C50.7571 91.7432 50.1333 91.5004 50.0952 90.748C50.0571 90.0432 50.8047 89.6813 51.9762 89.6242C53.2809 89.5575 54.0524 89.9099 54.119 90.6623L53.0952 90.7146C53.0809 90.4146 52.7476 90.3194 51.9857 90.3575C51.2666 90.3956 51.1095 90.5242 51.119 90.7051C51.1285 90.9146 51.2952 90.9718 52.219 91.0004C53.4666 91.0289 54.2809 91.0718 54.3285 91.9623C54.3714 92.8289 53.5857 93.1242 52.3809 93.1861C51.0095 93.2575 50.1762 92.9861 50.0857 92.0956L51.1143 92.0432L51.119 92.048Z" fill="#001522"></path><path d="M55.7428 92.0429L56.6809 91.9048L56.7857 92.6334L55.8476 92.7715L55.738 92.0429H55.7428Z" fill="#001522"></path><path d="M59.4811 88.5382C60.6953 88.243 61.5096 88.5953 61.8144 89.4191L60.8001 89.6668C60.662 89.3763 60.2906 89.2001 59.6811 89.3477C58.9763 89.5192 58.7192 89.9477 58.8572 90.5287C59.0001 91.1096 59.4334 91.3763 60.1334 91.2049C60.743 91.0572 60.9906 90.7239 60.9763 90.3953L61.9906 90.1477C62.1001 91.0239 61.543 91.7191 60.3287 92.0144C59.0049 92.3382 58.1287 91.9001 57.8525 90.7715C57.5763 89.6477 58.1525 88.862 59.4763 88.5382H59.4811Z" fill="#001522"></path><path d="M63.1524 89.3956C62.7382 88.348 63.2191 87.448 64.5477 86.9242C65.8715 86.4003 66.8429 86.7337 67.2524 87.7765C67.6667 88.8242 67.1858 89.7337 65.862 90.2575C64.5334 90.7813 63.5667 90.448 63.1524 89.3956ZM66.3001 88.1527C66.0858 87.6051 65.6382 87.3908 64.8572 87.7003C64.081 88.0051 63.8953 88.4622 64.1143 89.0146C64.3334 89.5718 64.7858 89.7813 65.5572 89.4765C66.3334 89.1718 66.5191 88.7051 66.3001 88.1527Z" fill="#001522"></path><path d="M69.3381 88.6907L67.6333 85.7574L68.9571 84.986L71.1095 86.3383L70.9952 83.8002L72.319 83.0288L74.0238 85.9621L73.1762 86.4526L71.9428 84.3288L72.0762 87.0955L71.2904 87.5526L68.9524 86.0717L70.1904 88.1955L69.3381 88.6907Z" fill="#001522"></path><path d="M23.019 81.8382C13.9952 74.1811 8.2666 62.7573 8.2666 50.0001C8.2666 37.243 14.2999 25.2144 23.738 17.562" stroke="#D71921" stroke-miterlimit="10"></path><path d="M76.2666 17.5669C85.7047 25.2193 91.7333 36.905 91.7333 50.0002C91.7333 63.0955 86.0047 74.1859 76.9809 81.8431" stroke="#D71921" stroke-miterlimit="10"></path></g><defs><clipPath id="clip0_101_22088"><rect width="100" height="100" fill="white"></rect></clipPath></defs></svg>