<svg xmlns="http://www.w3.org/2000/svg" id="Layer_1" viewBox="0 0 1500 1500"><defs><style> .st0 { fill: #020e3b; } .st1 { fill: #001c58; } .st2 { fill: #fff; } .st3 { fill: none; stroke: #001c58; stroke-miterlimit: 10; stroke-width: 15.85px; } </style></defs><g><circle class="st2" cx="750" cy="750" r="750"></circle><path class="st1" d="M750,38c96.14,0,189.38,18.82,277.13,55.94,42.18,17.84,82.87,39.93,120.93,65.64,37.71,25.48,73.17,54.74,105.4,86.96,32.23,32.23,61.49,67.69,86.96,105.4,25.71,38.06,47.8,78.75,65.64,120.93,37.12,87.75,55.94,180.99,55.94,277.13s-18.82,189.38-55.94,277.13c-17.84,42.18-39.93,82.87-65.64,120.93-25.48,37.71-54.74,73.17-86.96,105.4-32.23,32.23-67.69,61.49-105.4,86.96-38.06,25.71-78.75,47.8-120.93,65.64-87.75,37.12-180.99,55.94-277.13,55.94s-189.38-18.82-277.13-55.94c-42.18-17.84-82.87-39.93-120.93-65.64-37.71-25.48-73.17-54.74-105.4-86.96-32.23-32.23-61.49-67.69-86.96-105.4-25.71-38.06-47.8-78.75-65.64-120.93-37.12-87.75-55.94-180.99-55.94-277.13s18.82-189.38,55.94-277.13c17.84-42.18,39.92-82.87,65.64-120.93,25.48-37.71,54.74-73.17,86.96-105.4,32.23-32.23,67.69-61.49,105.4-86.96,38.06-25.71,78.75-47.8,120.93-65.64,87.75-37.12,180.99-55.94,277.13-55.94M750,0C335.79,0,0,335.79,0,750s335.79,750,750,750,750-335.79,750-750S1164.21,0,750,0h0Z"></path></g><g><g><g><g><path class="st1" d="M460.55,170.14l6.06,10.97-33.23,18.36,5.23,9.48,29.49-16.29,6.03,10.91-29.49,16.29,7.27,13.16-12.91,7.13-24.59-44.52,46.14-25.48Z"></path><path class="st1" d="M544.6,189.36l-8.11-7.09-29.04,11.8-.87,10.73-14.72,5.98,5.14-56.99,18.87-7.67,43.36,37.28-14.65,5.95ZM508.51,181.73l18.61-7.56-16.79-14.63-1.83,22.19Z"></path><path class="st1" d="M620.26,152.58l-8.78-35.4,14.24-3.53,12.25,49.36-20.95,5.2-37.89-28.18,8.78,35.4-14.31,3.55-12.25-49.36,21.02-5.21,37.89,28.18Z"></path><path class="st1" d="M691.7,104.46l61.2-2.57.53,12.53-23.2.97,1.61,38.29-14.73.62-1.61-38.29-23.27.98-.53-12.53Z"></path><path class="st1" d="M770.91,127.42c1.44-16.82,13.86-25.69,35.22-23.86,21.29,1.83,32.08,12.76,30.64,29.51-1.44,16.82-13.94,25.83-35.23,24-21.36-1.83-32.08-12.76-30.63-29.65ZM821.44,131.75c.75-8.8-3.82-14.63-16.38-15.7-12.49-1.07-17.99,3.82-18.75,12.69-.77,8.94,3.88,14.77,16.3,15.84,12.49,1.07,18.07-3.96,18.83-12.83Z"></path><path class="st1" d="M924.18,125.46l-29.87,15.25,18.69,34.37-18.07-4.07-13-23.96-14.19,7.24-2.27,10.08-14.38-3.24,11.18-49.61,14.38,3.24-5.01,22.24,31-16.38,21.54,4.85Z"></path><path class="st1" d="M994.88,149.93l-3.92,10.85-35.7-12.9-2.76,7.64,34.36,12.42-3.92,10.85-34.36-12.41-2.76,7.64,35.7,12.9-3.92,10.85-49.57-17.91,17.28-47.83,49.57,17.91Z"></path><path class="st1" d="M1046.44,215.35l16.74-32.4,13.04,6.74-23.35,45.18-19.17-9.91-9.9-46.17-16.74,32.4-13.1-6.77,23.35-45.18,19.24,9.94,9.9,46.17Z"></path></g><g><path class="st1" d="M410.87,1282.16c-2.21,3.66-.04,8.21,11.43,15.12,10.49,6.32,14.05,6.22,15.7,3.47,1.91-3.17.29-4.9-12.13-13.54-16.9-11.84-22.57-20.09-16.76-29.73,5.48-9.09,17.76-7.26,32.83,1.82,16.78,10.11,23.36,20.98,17.89,30.9l-13.18-7.94c2.32-3.84-1.01-7.84-10.77-13.72-9.27-5.59-12.27-5.31-13.7-2.93-1.62,2.68-.06,4.79,11.19,12.89,15.25,10.85,25.02,18.24,18.14,29.64-6.73,11.16-18.98,8.19-34.48-1.15-17.63-10.62-25.7-20.97-19.4-32.81l13.24,7.98Z"></path><path class="st1" d="M472.81,1307.85c6.71-15.49,21.3-19.96,40.97-11.44,19.61,8.49,26.37,22.29,19.69,37.71-6.71,15.49-21.42,20.07-41.03,11.58-19.68-8.52-26.37-22.29-19.63-37.84ZM519.35,1328.01c3.51-8.11,1.02-15.08-10.55-20.09-11.5-4.98-18.27-2.09-21.81,6.08-3.57,8.24-1.01,15.24,10.43,20.2,11.5,4.98,18.39,1.99,21.93-6.19Z"></path><path class="st1" d="M589.5,1323.24c18.04,5.05,26.09,15.67,23.99,28.69l-15.09-4.23c.31-4.8-3.23-9.86-12.28-12.39-10.49-2.94-17.01.78-19.41,9.36-2.42,8.64,1.26,15.29,11.69,18.21,9.05,2.54,14.73-.02,16.97-4.34l15.09,4.23c-4.99,12.29-17.4,17.24-35.44,12.19-19.69-5.51-27.9-17.65-23.19-34.46,4.69-16.74,17.99-22.77,37.68-17.26Z"></path><path class="st1" d="M650.9,1338.41l-9,50.05-14.51-2.61,9-50.05,14.51,2.61Z"></path><path class="st1" d="M666.18,1367.19c1.36-16.83,13.74-25.76,35.11-24.03,21.3,1.73,32.14,12.61,30.78,29.36-1.36,16.83-13.82,25.89-35.12,24.17-21.37-1.73-32.14-12.61-30.77-29.51ZM716.74,1371.28c.71-8.8-3.89-14.61-16.46-15.63-12.5-1.01-17.97,3.9-18.69,12.78-.73,8.95,3.95,14.76,16.37,15.76,12.5,1.01,18.05-4.04,18.77-12.92Z"></path><path class="st1" d="M766.71,1380.73c.22,4.27,4.56,6.83,17.93,6.13,12.24-.63,15.12-2.71,14.96-5.91-.19-3.7-2.5-4.22-17.63-4.44-20.63-.36-29.95-4.02-30.53-15.25-.55-10.6,10.66-15.96,28.23-16.87,19.56-1.01,31.11,4.31,32.12,15.6l-15.37.79c-.23-4.48-5.23-5.94-16.61-5.35-10.81.56-13.14,2.46-13,5.24.16,3.13,2.63,4,16.49,4.43,18.71.46,30.94,1.11,31.63,14.41.67,13.02-11.15,17.41-29.22,18.34-20.56,1.06-33.04-3-34.44-16.34l15.44-.8Z"></path><path class="st1" d="M836.26,1380.6l14.1-2.07,1.61,10.92-14.1,2.07-1.61-10.92Z"></path><path class="st1" d="M892.26,1328.01c18.2-4.45,30.42.85,34.99,13.22l-15.22,3.72c-2.09-4.33-7.65-7-16.79-4.77-10.59,2.59-14.44,9.03-12.32,17.68,2.13,8.72,8.61,12.71,19.13,10.14,9.13-2.23,12.82-7.24,12.66-12.12l15.22-3.72c1.68,13.16-6.7,23.57-24.9,28.02-19.86,4.86-32.98-1.69-37.12-18.64-4.13-16.88,4.5-28.68,24.36-33.53Z"></path><path class="st1" d="M947.23,1340.91c-6.19-15.71.98-29.17,20.93-37.04,19.88-7.84,34.41-2.84,40.57,12.8,6.19,15.71-.99,29.33-20.87,37.17-19.95,7.86-34.41,2.84-40.62-12.93ZM994.42,1322.31c-3.24-8.22-9.93-11.4-21.66-6.78-11.66,4.6-14.41,11.42-11.14,19.71,3.29,8.35,10.05,11.51,21.65,6.93,11.66-4.6,14.42-11.58,11.16-19.87Z"></path><path class="st1" d="M1039.97,1330.42l-25.58-43.96,19.89-11.57,32.25,20.3-1.71-38.07,19.83-11.54,25.58,43.96-12.68,7.38-18.52-31.83,1.96,41.47-11.76,6.84-35.02-22.23,18.52,31.83-12.75,7.42Z"></path></g></g><path class="st3" d="M345.26,1227.62c-135.37-114.83-221.28-286.18-221.28-477.6s90.49-371.77,232.07-486.55"></path><path class="st3" d="M1144,263.48c141.55,114.77,232.02,290.07,232.02,486.51s-85.92,362.79-221.3,477.62"></path></g><g><path class="st0" d="M658.19,310c65.1,3.62,60.71,71.87,56.63,120.21-3.38,40.18-12.72,78.53,6.27,116.58,9.3,18.63,33.85,49.28,53.7,56.44,18.53,6.69,22.31-.45,27.98-16.37s9.31-29.92,17.4-44.54c17.55-31.71,47.63-52.03,81.92-62.26,1.23.36,6.73,13.97,7.53,16.07s5.38,14.79,4.97,16.04c-5.94,3.56-12.6,6.44-18.21,10.66-1.57,1.18-7.68,5.8-5.1,7.85,2.87,2.28,13.02.54,16.74-.08,3.58-.59,7.14-1.48,10.68-2.27l.34.26c3.07,15.04,5.52,30.28,6.85,45.6,1.08,12.46,1.03,24.9,1.76,37.31.07,1.23-.04,2.47,0,3.69-64.18-1.36-116.46,43.09-141.48,99.38-9.41,21.17-19.3,54.52-12.34,77.24,1.2,3.94,3.05,7.27,5.67,10.41-9.34,13.6-18.26,27.51-25.62,42.3,11.74,5.11,25.97,2.82,37.9-.79,8.67-2.63,17.27-6.43,23.98-12.61,1.62-.66,2.69.43,2.42,2.04-.17,1.03-3.96,6-4.88,7.12-9.45,11.61-21.06,17.97-35.51,21.49-9.47,2.3-24.84,3.11-32.02,9.84-7,6.56-7.21,20.72-5.16,29.47,3.74,16.02,15.86,16.36,28.63,22.04,22.22,9.9,41.6,25.79,55.98,45.36l5.34,8.21-9.17-6.48c-35.74-20.63-80.7-19.38-119.65-9.26-30.08,7.82-59.4,21.79-83.47,41.43-2.63-2.8-5.51-5.7-9.68-5.63,5.01-23.38,15.72-47.01,33.7-63.08.43-10.85,1.99-18.28,13.17-21.84,14.45-4.6,24.69-4.09,38.58-12.79,32.09-20.09,45.49-69.67,46.48-105.56,2.09-76.09-80.45-101.79-124.37-149.43-37.15-40.3-47.23-100.26-20.76-149.26,21.9-40.54,66-67.32,55.3-120.09-5.72-28.23-28.45-43.91-56.17-46.57,9.61-9.5,23.7-14.44,36.86-16.62,4.17-.69,8.98-1.31,13.09-1.51h13.72ZM697.58,499.73c-.67-24.62,3.64-48.94,5.63-73.39,2.13-26.24,5.71-74.21-15.64-93.46-10.85-9.78-25.71-10.91-39.71-10.85-.76.22-.26,1.82-.13,2.49,1.19,5.79,5.09,10.81,11.6,9.69,2.48-.43,3.67-2.88,6.42-.97,7.02,4.88,10.41,18.76,8.02,26.68-1.55,5.13-6.24,9.36-11.72,9.58,3.28,16.54,3.17,34.8-1.58,51.04-3.53,12.07-10.31,22.74-10.74,35.71-.91,27.08,24.63,39.95,47.86,43.49Z"></path><path class="st0" d="M572.35,1048.5c.03-2.17.19-4.93.36-7.21.65-9.22,2.42-18.33,4.57-27.28,1.77,2.21,6.37,4.38,7.94,6.31.37.45.5.61.52,1.24.05,1.96-1.01,5.45-1.09,7.75-.09,2.93.67,5.46.73,8.13.04,1.75-4.7,8.82-5.83,11.06-2.63,5.24-4.82,10.83-6.15,16.55l-.7-4.75c.34-2.23-.32-4.89-.36-6.86-.03-1.63-.02-3.29,0-4.93Z"></path><path class="st0" d="M835.83,1098.84c2.12-13.64-3.26-27.98-16.19-33.96-12.07-2.51-26.1-7.43-38.2-8.94-17.96-2.25-33.53,8.48-39.91,24.92l-1.1-.05c-41.17-12.82-81.56-28.41-119.87-48.17,2.18-7.25,2.99-15.05,1.08-22.45,6.09-4.69,12.16-9.41,18.64-13.58,41.74-26.88,99.69-41.87,148.78-30.31,19.82,4.67,45.8,14.76,53.99,35.03,10.6,26.25,11.53,60.16,3.87,87.29-.52,1.85-1.81,6.88-2.68,8.23-1.13,1.73-6.39,2.05-8.4,1.98Z"></path><path class="st0" d="M833.08,1107.7c.24-.22,5.63-.77,6.44-.78.48,0,.69-.05.52.53-1.14,3.9-5.58,11.36-7.8,15.08-18.43,30.95-55.33,60-91.67,65.26-17.28,2.5-41.88-3.75-57.3-11.81-44.14-23.07-72.2-75.36-77.89-123.75,3.19-1.54,6.23-3.99,8.46-6.74.66-.81,2.9-4.77,3.16-4.94s.5-.23.81-.1c38.23,20.21,78.95,35.44,120.22,48.35.28.16.32.37.33.67.04,1.35-.94,4.27-1.05,6-.92,14.07,7.24,29.13,20.59,34.34,8.99,3.51,33.15,8.1,42.53,7.34,16.49-1.34,28.13-14.36,32.65-29.46Z"></path><path class="st0" d="M596.89,1052.8c6.64,55.02,37.99,109.71,89.9,132.68l11.84,4.51c-52.39-4.77-98.53-40.27-117.05-89.32-1.91-5.05-4.3-11.43-4.68-16.79-.92-13.29,5.46-25.41,11.98-36.44.54-.13.56.08.85.37,2.21,2.21,3.83,4.19,7.15,4.99Z"></path><path class="st0" d="M768.64,1097.43c.26.33-2.85,6.53-2.79,7.88.06,1.44,1.58,3.66,3.04,4,5.64,1.3,6.38-6.45,7.85-10.14l8.43,2.13c-.02,3.91-5.54,10.45-.59,13.08,6.55,3.48,7.33-7.97,9.26-11.3l7.52,1.38c-.19,3.46-5.09,8.16-1.6,11.27,5.49,4.89,9.13-6.18,10.08-9.83,4.59.62,9.25.83,13.86,1.37.48.06.64-.19.49.48-.32,1.42-2.06,4.57-2.85,5.96-10.56,18.42-24.67,15.84-42.91,12.46-5.37-1-12.53-2.27-17.52-4.3-11.69-4.75-17.44-18.43-14.43-30.44l22.16,5.99Z"></path><path class="st0" d="M827.03,1099.19l-15.12-1.41c.25-2.06.79-4.13,1.01-6.2.13-1.24.49-3.76.37-4.84-.45-4.22-6.85-5.2-8.15-1.18-.55,1.69-.96,10.41-1.33,10.82l-8.44-1.41c.51-3.59,2.52-8.94,2.34-12.44-.18-3.43-3.85-5.17-6.69-3.35-2.62,1.68-2.78,10.98-3.74,14.03l-8.06-1.79c.04-4.1,4.28-14.65-2.41-15.4-6.23-.7-4.49,9.63-6.07,13.31l-21.1-6.15c.07-.72,1.8-3.58,2.31-4.39,15.97-25.46,39.35-9.94,62.41-6.89,11.41,3.79,14.97,16.38,12.66,27.28Z"></path><path class="st0" d="M606.71,1003.23c4.22-.06,6.39,2.78,7.77,6.46,3.28,8.72.84,21.71-4.2,29.42-2.96,4.53-7.86,9.33-13.53,6.29-12.41-6.66-4.68-41.95,9.97-42.16Z"></path><path class="st0" d="M630.4,937.62c-13.09,14.23-22.28,31.15-27.96,49.63-.8,2.59-2.34,10.73-3.68,12.16-.77.82-2.36,1.62-3.19,2.44-3.03,2.97-5.06,7.13-7.19,10.74-.52.04-7.74-5.9-8.1-6.69-.12-.27-.23-.52-.17-.83,8.72-25.35,25.33-48.72,46.62-64.97.47-.36,3.41-2.72,3.68-2.48Z"></path></g></g></svg>