<svg xmlns="http://www.w3.org/2000/svg" width="100" height="100" viewBox="0 0 100 100" fill="none"><g clip-path="url(#clip0_101_22115)"><path d="M50 100C77.6142 100 100 77.6142 100 50C100 22.3858 77.6142 0 50 0C22.3858 0 0 22.3858 0 50C0 77.6142 22.3858 100 50 100Z" fill="#FFF100"></path><path d="M50 2.53333C76.1714 2.53333 97.4667 23.8286 97.4667 50C97.4667 76.1714 76.1714 97.4667 50 97.4667C23.8286 97.4667 2.53333 76.1714 2.53333 50C2.53333 23.8286 23.8286 2.53333 50 2.53333ZM50 0C22.3857 0 0 22.3857 0 50C0 77.6143 22.3857 100 50 100C77.6143 100 100 77.6143 100 50C100 22.3857 77.6143 0 50 0Z" fill="#000F9F"></path><path d="M32.2144 25.6763V65.3096H40.6382L50.0001 68.0715L59.0953 65.3096H68.1382V25.6763H32.2144Z" fill="#FFF100"></path><path d="M31.0095 24.4619L31.0571 63.0048C31.0571 63.0952 31.0714 63.9524 31.1048 64.0333C32.7095 68.4953 37.2619 67.1095 41.2762 67.2429C44.6143 67.3524 47.7667 67.4572 49.4524 69.6143C49.6 69.8 50.0667 70.8143 50.0667 70.8143C50.0667 70.8143 50.5333 69.8 50.6809 69.6143C52.3571 67.4619 55.4952 67.3572 58.819 67.2429C62.819 67.1095 67.3524 68.4953 68.9524 64.0333C68.9809 63.9476 69 63.0952 69 63.0048L68.9714 24.4619H31.0095ZM67.4524 26C67.4524 27.4667 67.4524 62.5095 67.4524 62.8381C66.1762 66.2191 62.7429 64.8048 58.7619 64.9381C55.5381 65.0476 52.2286 65.181 50.0619 67.2762C47.8857 65.181 44.5619 65.0476 41.3238 64.9381C37.3286 64.8048 33.8762 66.2191 32.5952 62.8381C32.5952 62.5095 32.5952 27.4667 32.5952 26C34.0381 26 66.0095 26 67.4524 26Z" fill="#000F9F"></path><path d="M57.1523 50.9717C59.4238 49.7097 61.9095 47.8431 62.6523 45.6193C63.4333 43.2812 64.1238 41.4193 64.4238 38.424C64.4904 37.7669 66.3047 32.4717 64.9571 33.5621C64.3904 30.5859 64.5809 33.624 63.7571 33.624C63.819 32.7002 63.8809 31.7764 63.9428 30.8574C62.8666 30.8574 63.6904 34.5478 62.4666 34.5478C62.5523 33.6955 63.3571 29.3812 62.2809 29.3812C62.2761 31.6336 60.5809 38.4478 57.4809 38.3621C56.2428 38.3288 55.8952 38.205 55.0809 37.5955C53.2904 36.2526 55.2904 33.2574 56.9285 33.2574C56.9285 33.0288 58.4 32.7145 58.6809 32.1478C59.019 31.4669 60.2238 31.224 60.9857 31.224C60.3333 30.6526 59.5238 31.4288 58.9571 30.6717C62.7047 28.8002 58.0476 29.6717 58.4238 28.3193C59.2381 25.3907 57.4381 28.2193 56.4761 27.6478C56.2 27.4859 54.6809 29.224 54.2523 28.5526C54.3 28.6288 54.7666 29.9859 54.7333 30.1193C54.6714 30.3621 54.3952 30.3716 54.3285 30.5716C54.0904 31.3002 55.4381 30.5336 54.3095 31.5097C53.919 31.8526 52.2 32.7002 53.2381 32.7002C53.0238 33.5716 52.0666 33.3002 52.2238 34.0859C52.2714 34.3288 52.2809 35.1002 51.9476 35.1002C51.7571 35.6669 51.0952 37.5002 50.6571 37.5002C49.4904 39.2478 49.0333 36.5764 48.4428 36.5764C48.4428 35.4764 47.0047 34.9431 47.6857 34.1336C47.9381 33.8336 46.8619 33.2193 46.7809 32.8859C47.1333 32.5288 46.8952 32.5574 46.4666 32.3526C45.6047 31.9431 45.2952 31.4383 45.4904 30.6717C45.3 30.2383 44.4333 30.1859 45.3047 29.7478C45.4619 28.9574 45.7238 28.5002 44.7523 28.824C44.7523 28.5812 44.2571 28.4574 44.0142 28.4574C43.4761 27.3812 43.5761 27.8574 42.5666 27.805C42.1476 27.7859 41.8095 27.2621 41.4333 26.9812C40.9714 27.705 41.8428 29.0097 40.8714 28.9574C40.3 28.9288 39.5 29.6383 39.4047 30.3002C40.0095 30.405 40.5333 30.5574 40.6952 31.224C40.0666 31.224 37.8285 31.5907 39.7714 31.5907C40.6761 31.8288 40.7476 31.5478 41.0619 31.9621C41.0619 33.2336 42.7238 32.6764 42.7238 33.4383C44.1476 33.4383 45.9381 34.9336 45.4761 36.6859C45.1476 37.9288 44.1476 38.7907 42.9523 38.6669C41.5381 38.5193 41.0952 38.0145 40.1 37.1812C37.9047 35.3383 37.3 32.2955 37.3714 29.5621C36.6619 29.7764 36.7333 30.5478 36.8857 31.1764C37.0619 31.8955 36.819 32.2955 36.819 32.7002C36.2857 32.7002 36.2619 31.0574 36.2666 30.6717C35.5571 30.6717 36.2238 33.1288 36.2238 33.7383C35.2142 33.305 36.2333 31.5955 35.1619 31.5955C35.1619 34.124 34.1428 32.005 34.2381 32.3431C34.2381 33.5002 34.1476 35.4336 34.4238 36.5717C34.6047 37.3097 35.1619 37.6621 35.1619 38.424C35.7857 38.7336 35.6523 40.6336 35.7761 41.3764C35.8952 42.1002 36.2 42.4574 36.4523 43.2193C36.8523 43.2193 36.8285 45.9859 37.5619 45.9859C37.5619 46.9383 39.1333 48.0859 39.7761 48.9383C40.2666 48.9383 41.419 50.0193 41.7142 50.4145C42.0285 50.8336 42.5952 51.1812 43.1 51.4621C44.2523 52.1002 44.4 52.3526 43.2904 53.2288C42.6809 53.7097 42.2333 54.8478 41.4381 54.8478C40.5142 56.0764 38.8904 58.0145 38.4857 55.5859C38.1428 55.5859 37.9333 55.7669 37.9333 56.1383C37.419 56.1383 36.9095 56.324 36.6428 56.324C37.1857 57.1812 36.8619 57.605 35.9047 57.9859C35.9047 58.6193 36.4381 58.9955 36.8285 59.4621C37.5952 59.7145 37.419 59.805 37.4523 60.5383C37.5 61.5431 38.8571 60.8336 38.8571 60.3812C39.2904 60.1955 39.6238 60.3621 40.0523 60.3907C40.4761 60.4145 40.5 60.0145 40.8857 60.0145C40.3666 59.2288 39.8142 58.9574 40.7904 58.1526C41.3952 57.6574 41.8571 57.1145 42.3619 56.5097C42.9904 56.3002 43.8238 55.605 44.2095 55.124C44.6809 54.5383 45.4619 54.3526 45.8714 53.7383C46.8904 53.8383 46.5381 54.3574 46.4142 55.1907C46.3095 55.8955 46.2 56.6002 46.0428 57.2955C45.8952 57.9431 45.3952 58.6288 45.5714 59.2716C45.7476 59.9145 46.0904 59.805 46.2809 60.0859L46.0333 62.3335L46.0809 62.2955C45.8809 63.2097 46.9333 63.4288 47.0571 63.4288C47.0904 64.6002 47.9904 64.1336 49.0095 64.4431C49.4238 63.8859 50.0952 63.2955 50.7142 64.2193C51.2047 64.9526 52.5761 64.4097 53.2523 64.0764C53.2523 63.1097 54.2285 63.2383 54.1285 62.5812C53.9952 61.7145 53.4666 60.9288 53.6714 60.0526C53.7428 59.7526 53.9333 59.5955 54.1952 59.4526C54.8047 59.124 54.4476 58.5478 54.2952 57.9478C53.9571 56.6097 53.4809 55.3145 53.4381 53.9193C54.6142 54.0574 55.8238 54.9097 56.3904 55.7669C56.9238 55.7669 57.9523 56.8193 58.2381 57.2431C58.7142 57.624 60.9761 58.8716 59.6666 59.505C59.1476 59.7574 59.4285 60.1621 60.0142 60.1574C61.2381 60.1478 61.4285 60.7526 62.4857 60.7526C62.4857 60.2859 62.6285 59.4859 63.2238 59.1526C63.8142 58.824 64.3333 58.8002 64.3333 58.0764C64.3333 57.2526 64.0857 57.8002 63.5523 57.4478C62.9238 57.0336 63.3142 56.4859 63.5952 55.9574C63.6809 55.5955 63.5238 55.7526 63.4095 55.7717C62.4381 56.3002 62.4809 55.9478 61.7476 55.405C61.6238 55.724 61.1952 56.4336 61.1952 56.6955C59.9238 56.3478 58.7523 54.705 57.8714 53.7431C57.3333 53.7431 56.7809 52.905 56.3333 52.5145C55.3047 51.6145 56.2904 51.4669 57.1714 50.9764L57.1523 50.9717ZM57.9904 31.5002C58.0809 31.5383 58.0857 31.7193 58.0047 31.9002C57.9238 32.0812 57.7857 32.1955 57.6952 32.1574C57.6047 32.1193 57.6 31.9383 57.6809 31.7574C57.7619 31.5764 57.9 31.4621 57.9904 31.5002ZM56.9285 29.3764C57.4285 29.2097 57.8523 29.1336 57.8523 29.7431C57.3619 29.7431 57.2428 29.6907 56.9285 29.3764ZM56.8142 28.8145C57.2714 28.6669 57.6666 28.605 57.6904 28.6764C57.7142 28.7478 57.3571 28.924 56.9 29.0716C56.4381 29.2193 56.0476 29.2812 56.0238 29.2097C56 29.1383 56.3571 28.9621 56.8142 28.8145ZM40.7952 30.4764C40.8 30.405 40.219 30.0812 40.1285 29.7431C40.8952 29.7431 40.5428 29.8002 41.0523 30.1145C40.9476 30.2574 40.8095 30.3145 40.7952 30.4812V30.4764ZM41.6047 29.7431C41.6047 30.6145 42.4761 29.7431 41.6047 29.7431V29.7431ZM42.3428 29.3764C42.3428 30.2478 43.2142 29.3764 42.3428 29.3764V29.3764ZM40.5 48.7526C40.3714 48.3336 40.3142 48.3907 40.3142 47.8288C40.6904 47.8288 40.8095 48.4478 40.8666 48.7526H40.5ZM37.619 57.4907C37.5 57.4907 37.4 57.3288 37.4 57.1288C37.4 56.9288 37.4952 56.7669 37.619 56.7669C37.7428 56.7669 37.8333 56.9288 37.8333 57.1288C37.8333 57.3288 37.7381 57.4907 37.619 57.4907ZM38.5142 59.5145C38.4333 59.6955 38.2952 59.8097 38.2047 59.7716C38.1142 59.7336 38.1095 59.5526 38.1904 59.3717C38.2714 59.1907 38.4095 59.0764 38.5 59.1145C38.5904 59.1526 38.5952 59.3336 38.5142 59.5145ZM39.019 58.9002C38.8761 58.4336 38.8666 58.6288 39.019 58.1621C39.2285 58.224 39.3714 58.3478 39.5714 58.3478C39.5095 58.6574 39.3238 58.8383 39.019 58.9002ZM39.9381 59.705C39.8857 59.7859 39.7047 59.7621 39.5381 59.6526C39.3714 59.5431 39.2809 59.3907 39.3333 59.305C39.3857 59.224 39.5666 59.2478 39.7333 59.3574C39.9 59.4669 39.9904 59.6193 39.9381 59.7002V59.705ZM63.1238 58.0907C63.2904 58.2002 63.3809 58.3526 63.3285 58.4336C63.2761 58.5145 63.0952 58.4907 62.9285 58.3812C62.7619 58.2716 62.6714 58.1145 62.7238 58.0336C62.7761 57.9526 62.9571 57.9764 63.1238 58.0859V58.0907ZM62.8285 57.0526C62.8285 57.4526 62.6428 57.0193 62.6428 57.4193C62.4095 57.4764 62.2857 57.3526 62.2761 57.0526H62.8285ZM61.5714 59.2859C61.6238 59.205 61.8047 59.2288 61.9714 59.3383C62.1381 59.4478 62.2285 59.6002 62.1762 59.6812C62.1238 59.7621 61.9428 59.7383 61.7761 59.6288C61.6095 59.5193 61.519 59.3621 61.5714 59.2812V59.2859ZM61.3523 58.7145C60.8476 58.8907 60.6 58.705 60.6142 58.1621C61.119 57.9859 61.3666 58.1716 61.3523 58.7145ZM60.5904 59.4907C60.6714 59.3097 60.8095 59.1907 60.9 59.2336C60.9904 59.2716 60.9952 59.4526 60.9142 59.6336C60.8333 59.8145 60.6952 59.9288 60.6047 59.8907C60.5142 59.8526 60.5095 59.6716 60.5904 59.4907ZM59.5047 47.0907C60.3476 47.5097 59.1 49.305 58.4 49.305C58.5 48.4002 59.0952 47.8478 59.5047 47.0907ZM57.4761 48.9336C57.4904 48.8859 57.5047 48.8478 57.519 48.8097L57.8476 48.3812C58.4761 49.2097 56.8285 51.024 56.1238 50.6431L57.4142 48.9478C57.4142 48.9478 57.4523 48.9478 57.4761 48.9336ZM55.4476 45.7955C53.8857 45.3812 54.7428 43.7526 55.8142 43.3955C55.8142 44.0478 55.6333 44.8812 55.4476 45.7955ZM55.8142 46.9002C55.7904 47.7383 55.7381 48.5621 54.8904 48.5621C55.0238 47.9859 55.2571 47.5097 55.2619 46.9002H55.8142ZM54.8904 40.4431C55.9285 41.124 55.4714 43.524 54.1523 43.024C53.8095 41.8859 54.3333 41.4002 54.8904 40.4431ZM52.1238 38.0431C52.7381 37.8716 52.9809 37.2812 53.6 37.1193C53.6 38.0097 52.1238 40.0859 52.1238 38.0431ZM53.4142 41.3669C52.6666 41.1764 52.6761 41.024 52.6761 40.2574C53.419 40.505 53.2714 40.6526 53.4142 41.3669ZM52.4904 43.0288C50.5761 43.0288 52.9333 40.3621 52.4904 43.0288V43.0288ZM53.0428 43.2145C54.5571 43.7193 53.2952 46.0383 52.3047 46.5383C51.6523 45.0764 52.4476 44.4717 53.0428 43.2145ZM53.5952 45.8002C55.9714 45.8002 53.2285 48.3336 53.2285 48.9383C51.2047 48.405 53.3666 46.8621 53.5952 45.8002ZM53.7809 40.6336C53.2 39.5336 53.2857 39.7621 53.9666 38.605C55.1952 38.9193 54.5761 40.6336 53.7809 40.6336ZM54.1476 34.1764C54.1476 34.9431 53.4333 35.3145 52.6714 35.4669C52.7285 34.3859 53.1714 34.3383 54.1476 34.1764ZM53.2238 36.205C52.9476 37.3383 52.1809 37.6812 51.9333 36.3907C52.3809 36.3812 52.7904 36.2859 53.2238 36.205ZM51.5619 40.6336C51.5619 40.1478 50.9952 39.6669 51.0095 38.9716C51.8761 39.2002 52.2809 40.7478 51.5619 40.6336ZM50.8238 43.4002C51.4476 43.4002 50.5571 45.3097 50.3857 45.6669C49.5952 47.305 49.5761 46.0764 48.8904 45.0336C48.2714 44.0907 49.2142 42.905 49.5333 44.1383C49.7809 44.0669 50.8238 42.7717 50.8238 43.4002ZM49.1428 48.6621C48.7238 47.8955 48.7952 47.7002 48.7952 47.0955C49.2142 46.9621 49.6238 47.8336 49.9047 48.0193C50.1333 47.6383 50.3809 47.2716 50.6428 46.9145C51.9857 47.3621 50.219 50.6336 49.1428 48.6669V48.6621ZM49.719 40.4478C50.9571 41.1907 50.5571 41.9478 50.0857 42.8478C48.7428 42.8478 49.3142 41.1431 49.719 40.4478ZM48.4285 39.524C48.4285 38.9526 48.5571 39.224 48.7952 38.7859C49.8 39.2907 48.719 40.3002 48.0571 40.6336C48.0571 40.0955 47.5333 40.1193 48.4285 39.5288V39.524ZM47.8761 45.2431C48.5381 45.2431 47.5095 46.2002 47.5095 46.3478C46.3428 46.0526 46.0047 44.3859 46.219 43.3955C47.0142 43.3955 47.8809 44.4955 47.8809 45.2383L47.8761 45.2431ZM47.3238 41.5526C48.5238 42.5145 47.8761 42.324 47.8761 43.4002C46.7142 43.0907 46.8904 42.3669 47.3238 41.5526ZM47.1381 38.9669C46.7809 38.1955 46.0333 37.7669 46.0333 36.9383C46.8523 37.0526 47.6952 38.2955 47.6952 38.7812C47.4904 38.7812 47.3523 38.905 47.1428 38.9669H47.1381ZM47.5095 37.305C46.9523 37.1574 46.219 36.5764 46.219 36.0145C47.1238 36.1193 47.7428 36.6145 47.5095 37.305ZM45.4809 34.1669C46.5666 34.3859 46.7714 34.7002 46.7714 35.4574C46.2142 35.305 45.4809 34.7288 45.4809 34.1669ZM45.2952 38.5955C46.5095 38.7431 46.3857 39.6907 46.219 40.624C45.1714 40.624 45.1428 39.3526 45.2952 38.5955ZM41.7904 48.7478C42.0238 48.7478 41.9904 48.6907 42.1619 48.5621C42.4809 49.524 42.819 49.7859 43.0857 50.5907C42.3857 50.5907 42.0857 49.3336 41.7952 48.7431L41.7904 48.7478ZM43.2666 49.4859C43.5238 49.6526 44.0047 50.1002 44.0047 50.4097C43.3666 50.2478 43.2666 50.124 43.2666 49.4859ZM44.3761 53.5478C44.7381 53.0716 45.3 52.4526 45.3 53.5478H44.3761ZM44.1904 47.0907C44.8381 47.2859 45.4571 48.2193 44.7428 48.7526C44.5571 48.2002 44.3761 47.6431 44.1904 47.0907ZM44.3761 45.8002C44.0571 44.8431 43.8238 44.8336 43.8238 43.5859C44.9285 43.8859 46.2952 45.8002 44.3761 45.8002ZM44.5619 40.4478C45.2809 40.8812 46.1857 42.1145 45.6666 42.9097C44.9047 44.0859 44.3095 41.1002 44.5619 40.4478ZM45.8523 45.9859C46.3761 46.1431 46.5142 46.9097 46.7761 46.9097C46.7761 47.7097 47.8952 47.4002 47.4 48.3764C47.2571 48.6621 46.9571 48.6002 46.9571 48.9383C45.4857 48.5621 45.1952 47.224 45.8523 45.9859ZM46.0095 50.524C45.6047 50.0478 45.6714 49.9526 45.6714 49.305C46.4285 49.5145 47.5142 51.4859 46.5952 51.3336C46.5952 51.0193 46.2142 50.7621 46.0142 50.524H46.0095ZM48.2571 55.1336C47.9571 56.9859 47.8142 58.424 47.6095 60.2907C47.519 61.0907 47.1476 62.4383 47.1476 62.9669C46.0047 62.8526 46.4904 62.0431 46.5952 61.1193C46.5904 61.1193 46.5857 61.124 46.5809 61.124L46.6904 60.5526C47.2952 59.6431 47.3952 55.8669 47.4238 55.124C47.4381 54.724 47.5619 51.3621 47.9904 53.1193C48.1619 53.8145 48.3761 54.4097 48.2571 55.1336ZM47.8857 49.3097C49.1333 49.4336 49.3571 50.4288 49.1761 51.3383C48.0095 51.1955 47.6904 50.2621 47.8857 49.3097ZM50.4714 57.3336C50.4285 58.2812 51.0666 63.3812 49.7523 63.0907C48.9857 62.9193 49.6047 60.0336 49.6714 59.2716C49.7714 58.1002 49.7523 56.7478 49.6428 55.5716C49.6095 55.2002 49.4809 53.1288 49.2381 52.9145C49.0476 52.7431 49.6333 51.9955 49.7333 51.705C51.4 51.705 50.5381 55.9717 50.4761 57.3288L50.4714 57.3336ZM50.7666 51.3431C50.2904 50.4574 50.8619 49.3097 51.9428 49.3097C52.0571 49.9097 52.2904 50.3764 51.8666 50.8621C51.6714 51.0859 51.1381 52.0383 50.7666 51.3431ZM53.419 62.5955C52.6761 63.3288 52.4952 60.3097 52.4952 59.8288C51.8857 57.7526 51.9047 55.5097 51.9428 53.3717C52.5952 53.3717 52.4095 55.7955 52.4952 56.5002C52.6285 57.6097 53.0523 58.7193 53.0523 59.8288C53.0523 60.3621 53.9095 62.1097 53.419 62.5955ZM53.0523 51.1526C53.0523 50.105 53.1571 49.3431 54.1571 48.7526C54.4523 49.6288 54.2857 51.1526 53.0523 51.1526ZM54.5285 53.0002C55.0857 53.0097 55.6333 52.924 55.6333 53.5526C55.0761 53.5431 54.5285 53.6288 54.5285 53.0002ZM55.8476 50.1478C55.8333 50.0621 55.8238 49.9717 55.8238 49.8621C55.1904 49.8621 55.4142 48.924 56.0095 49.3097C56.719 49.0717 56.4809 48.5717 57.1142 48.5717C57.0809 48.6716 57.0714 48.7478 57.0714 48.8097L55.8476 50.1478Z" fill="#000F9F"></path><path d="M35.6475 78.4905L35.4475 77.9524C35.5237 77.981 35.6047 78.0048 35.6856 78.0191C35.7666 78.0334 35.8475 78.0382 35.9285 78.0382C36.3713 78.0382 36.6999 77.8953 36.9142 77.6096C37.1285 77.3239 37.238 76.8858 37.238 76.2905C37.238 76.0477 37.238 75.7667 37.2285 75.4524C37.2237 75.1382 37.2189 74.9429 37.2189 74.8715C37.2189 73.8715 37.4285 73.1048 37.8523 72.562C38.2761 72.0239 38.8761 71.7524 39.657 71.7524C39.8761 71.7524 40.0856 71.7763 40.2856 71.8239C40.4856 71.8715 40.6904 71.9477 40.8951 72.0477L41.0951 72.5524C40.9904 72.5334 40.8904 72.5191 40.7951 72.5048C40.6999 72.4953 40.6094 72.4858 40.5237 72.4858C40.0808 72.4858 39.7618 72.6477 39.5713 72.9763C39.3808 73.3001 39.2808 73.8477 39.2808 74.6096C39.2808 74.6477 39.2808 74.7667 39.2808 74.9763C39.2808 75.1858 39.2856 75.3763 39.2856 75.5477C39.2856 76.1143 39.2475 76.5572 39.1713 76.881C39.0951 77.2048 38.9761 77.481 38.8047 77.7096C38.5618 78.0334 38.2666 78.2763 37.9237 78.4382C37.5808 78.6048 37.1904 78.6858 36.757 78.6858C36.5332 78.6858 36.3285 78.6667 36.1475 78.6382C35.9666 78.6048 35.7951 78.5572 35.638 78.4858L35.6475 78.4905Z" fill="#000F9F"></path><path d="M48.0286 71.8379L47.6667 72.6427H46.2619C46.2191 73.1427 46.1905 73.6522 46.1715 74.176C46.1524 74.695 46.1429 75.2236 46.1429 75.7665C46.1429 76.2331 46.1524 76.7046 46.1667 77.1807C46.181 77.6569 46.2048 78.1474 46.2334 78.6474C46.0858 78.6379 45.9381 78.6284 45.7905 78.6236C45.6429 78.6188 45.4953 78.6141 45.3429 78.6141C45.1905 78.6141 45.0429 78.6141 44.8953 78.6236C44.7429 78.6284 44.5953 78.6379 44.4477 78.6474L44.1334 78.3569C44.1619 77.8665 44.1858 77.3998 44.1953 76.9617C44.2096 76.5236 44.2143 76.0998 44.2143 75.6998C44.2143 75.176 44.2048 74.6617 44.1858 74.1522C44.1667 73.6474 44.1334 73.1427 44.0953 72.6474H42.6905L42.3381 71.8379C42.8953 71.8569 43.4143 71.8712 43.881 71.876C44.3524 71.8855 44.8 71.8903 45.2238 71.8903C45.6477 71.8903 46.0953 71.8903 46.5619 71.876C47.0286 71.8665 47.5191 71.8569 48.0286 71.8426V71.8379Z" fill="#000F9F"></path><path d="M49.6571 72.8143L49.8 72.5476C50.0714 72.4285 50.3381 72.2904 50.6047 72.1333C50.8666 71.9762 51.119 71.8047 51.3619 71.6143C51.6333 72.2571 51.9523 72.9524 52.319 73.6904C52.6809 74.4285 53.0857 75.2047 53.5285 76.0143L55.319 71.6381L56.1381 72.2762C55.6523 73.3428 55.2 74.4095 54.7857 75.4666C54.3714 76.5285 53.9952 77.5857 53.6571 78.6381C53.5762 78.6333 53.4952 78.6238 53.4095 78.6238C53.3238 78.619 53.2428 78.6143 53.1523 78.6143C53.0619 78.6143 52.9809 78.6143 52.8952 78.619C52.8095 78.619 52.7238 78.6285 52.6333 78.6381C52.1571 77.6 51.6714 76.6 51.1762 75.6285C50.6809 74.6619 50.1714 73.7238 49.6523 72.8143H49.6571Z" fill="#000F9F"></path><path d="M57.8334 72.8143L57.9762 72.5476C58.2477 72.4285 58.5191 72.2904 58.781 72.1333C59.0429 71.9762 59.2953 71.8047 59.5381 71.6143C59.8096 72.2571 60.1286 72.9524 60.4953 73.6904C60.8619 74.4285 61.2619 75.2047 61.7048 76.0143L63.4953 71.6381L64.3143 72.2762C63.8238 73.3428 63.3762 74.4095 62.9619 75.4666C62.5477 76.5285 62.1715 77.5857 61.8334 78.6381C61.7524 78.6333 61.6715 78.6238 61.5858 78.6238C61.5048 78.619 61.4191 78.6143 61.3286 78.6143C61.2381 78.6143 61.1572 78.6143 61.0715 78.619C60.9858 78.619 60.8953 78.6285 60.8096 78.6381C60.3334 77.6 59.8477 76.6 59.3524 75.6285C58.8572 74.6619 58.3477 73.7238 57.8286 72.8143H57.8334Z" fill="#000F9F"></path><path d="M30.7095 11.3384L31.1143 12.0717L28.9 13.2955L29.2476 13.9289L31.2143 12.8431L31.6143 13.5717L29.6476 14.6574L30.1333 15.5336L29.2714 16.0098L27.6333 13.0431L30.7095 11.3431V11.3384Z" fill="#000F9F"></path><path d="M36.3001 12.6237L35.762 12.1523L33.8286 12.938L33.7715 13.6523L32.7905 14.0523L33.1334 10.2571L34.3905 9.74756L37.281 12.2285L36.3048 12.6237H36.3001ZM33.8953 12.1142L35.1334 11.6095L34.0143 10.6333L33.8953 12.1142Z" fill="#000F9F"></path><path d="M41.3476 10.1764L40.7619 7.81927L41.7095 7.58594L42.5238 10.8764L41.1286 11.224L38.6048 9.34784L39.1905 11.705L38.2381 11.9431L37.4238 8.6526L38.8238 8.30499L41.3476 10.1812V10.1764Z" fill="#000F9F"></path><path d="M46.1189 6.96208L50.1998 6.79541L50.2332 7.62874L48.6856 7.69065L48.7903 10.243L47.8094 10.2811L47.7046 7.72874L46.1522 7.79065L46.1189 6.95731V6.96208Z" fill="#000F9F"></path><path d="M51.3905 8.49526C51.4857 7.37622 52.3143 6.78098 53.7381 6.90479C55.1572 7.0286 55.8762 7.75717 55.781 8.87145C55.6857 9.9905 54.8524 10.5953 53.4334 10.4715C52.0096 10.3476 51.2953 9.61907 51.3905 8.49526ZM54.7572 8.78574C54.8096 8.20003 54.5048 7.80955 53.6667 7.73812C52.8334 7.66669 52.4667 7.9905 52.4191 8.58574C52.3667 9.18098 52.6762 9.57145 53.5048 9.64288C54.3381 9.71431 54.7096 9.38098 54.7619 8.7905L54.7572 8.78574Z" fill="#000F9F"></path><path d="M61.6239 8.36681L59.6334 9.38109L60.881 11.6763L59.6763 11.4049L58.8096 9.8049L57.862 10.2859L57.7096 10.9573L56.7524 10.7382L57.5001 7.42871L58.462 7.643L58.1286 9.12871L60.1953 8.03823L61.6334 8.36204L61.6239 8.36681Z" fill="#000F9F"></path><path d="M66.3286 9.99553L66.0667 10.7193L63.6858 9.85744L63.5 10.367L65.7905 11.1955L65.5286 11.9193L63.2381 11.0908L63.0524 11.6003L65.4334 12.4622L65.1715 13.186L61.8667 11.9908L63.0191 8.80029L66.3238 9.99553H66.3286Z" fill="#000F9F"></path><path d="M69.7618 14.3526L70.8761 12.1907L71.7476 12.6383L70.1904 15.6526L68.9095 14.9907L68.2476 11.9097L67.1333 14.0716L66.2571 13.6193L67.8142 10.605L69.0999 11.2669L69.7618 14.3478V14.3526Z" fill="#000F9F"></path><path d="M27.3953 85.4763C27.2476 85.7192 27.3953 86.0239 28.1572 86.4858C28.8572 86.9049 29.0953 86.9001 29.2048 86.7192C29.3334 86.5097 29.2238 86.3906 28.3953 85.8144C27.2667 85.024 26.8905 84.4763 27.2762 83.8335C27.6429 83.2287 28.4619 83.3478 29.4667 83.9525C30.5857 84.6239 31.0238 85.3525 30.6619 86.0144L29.781 85.4859C29.9334 85.2287 29.7143 84.962 29.0619 84.5716C28.4429 84.2001 28.2429 84.2192 28.1476 84.3763C28.0381 84.5573 28.1476 84.6954 28.8953 85.2335C29.9143 85.9573 30.5619 86.4478 30.1048 87.2097C29.6572 87.9525 28.8381 87.7573 27.8048 87.1335C26.6286 86.4239 26.0905 85.7382 26.5096 84.9478L27.3905 85.4811L27.3953 85.4763Z" fill="#000F9F"></path><path d="M31.5238 87.1909C31.9714 86.1576 32.9428 85.8623 34.2571 86.429C35.5667 86.9957 36.0143 87.9147 35.5714 88.9433C35.1238 89.9766 34.1428 90.2814 32.8333 89.7147C31.519 89.148 31.0762 88.229 31.5238 87.1909ZM34.6286 88.5385C34.8619 87.9957 34.6952 87.5338 33.9238 87.1957C33.1571 86.8623 32.7047 87.0576 32.4714 87.6004C32.2333 88.1481 32.4047 88.6147 33.1667 88.948C33.9333 89.2814 34.3952 89.0814 34.6286 88.5338V88.5385Z" fill="#000F9F"></path><path d="M39.3047 88.2194C40.5047 88.5575 41.0428 89.2623 40.9047 90.129L39.9 89.848C39.919 89.529 39.6857 89.1909 39.0809 89.0242C38.3809 88.829 37.9476 89.0766 37.7857 89.648C37.6238 90.2242 37.8714 90.6671 38.5666 90.8623C39.1714 91.029 39.5476 90.8623 39.6952 90.5718L40.7 90.8528C40.3666 91.6718 39.5428 92.0004 38.3381 91.6671C37.0285 91.3004 36.4809 90.4909 36.7905 89.3718C37.1047 88.2575 37.9905 87.8528 39.3 88.2194H39.3047Z" fill="#000F9F"></path><path d="M43.3953 89.2289L42.7953 92.5623L41.8286 92.3861L42.4286 89.0527L43.3953 89.2289Z" fill="#000F9F"></path><path d="M44.4191 91.1481C44.5096 90.029 45.3334 89.4338 46.7572 89.5481C48.1763 89.6624 48.9001 90.3909 48.8049 91.5052C48.7144 92.6243 47.8858 93.229 46.462 93.1147C45.0382 93.0005 44.3191 92.2719 44.4144 91.1481H44.4191ZM47.7858 91.4243C47.8334 90.8386 47.5287 90.4528 46.6906 90.3814C45.8572 90.3148 45.4953 90.6433 45.443 91.2338C45.3953 91.829 45.7049 92.2148 46.5334 92.2862C47.3668 92.3528 47.7382 92.0195 47.7858 91.4243Z" fill="#000F9F"></path><path d="M51.119 92.048C51.1333 92.3337 51.4238 92.5051 52.3143 92.4575C53.1286 92.4146 53.3238 92.2766 53.3095 92.0623C53.2952 91.8146 53.1428 91.7813 52.1333 91.767C50.7571 91.7432 50.1333 91.5004 50.0952 90.748C50.0571 90.0432 50.8047 89.6813 51.9762 89.6242C53.2809 89.5575 54.0524 89.9099 54.119 90.6623L53.0952 90.7146C53.0809 90.4146 52.7476 90.3194 51.9857 90.3575C51.2666 90.3956 51.1095 90.5242 51.119 90.7051C51.1285 90.9146 51.2952 90.9718 52.219 91.0004C53.4666 91.0289 54.2809 91.0718 54.3285 91.9623C54.3714 92.8289 53.5857 93.1242 52.3809 93.1861C51.0095 93.2575 50.1762 92.9861 50.0857 92.0956L51.1143 92.0432L51.119 92.048Z" fill="#000F9F"></path><path d="M55.7428 92.0429L56.6809 91.9048L56.7857 92.6334L55.8476 92.7715L55.738 92.0429H55.7428Z" fill="#000F9F"></path><path d="M59.4811 88.5338C60.6953 88.2386 61.5096 88.5909 61.8144 89.4148L60.8001 89.6624C60.662 89.3719 60.2906 89.1957 59.6811 89.3433C58.9763 89.5148 58.7192 89.9433 58.8572 90.5243C59.0001 91.1052 59.4334 91.3719 60.1334 91.2005C60.743 91.0528 60.9906 90.7195 60.9763 90.3909L61.9906 90.1433C62.1001 91.0195 61.543 91.7148 60.3287 92.01C59.0049 92.3338 58.1287 91.8957 57.8525 90.7671C57.5763 89.6433 58.1525 88.8576 59.4763 88.5338H59.4811Z" fill="#000F9F"></path><path d="M63.1524 89.3907C62.7382 88.3431 63.2191 87.4431 64.5477 86.9193C65.8715 86.3955 66.8429 86.7288 67.2524 87.7717C67.6667 88.8193 67.1858 89.7288 65.862 90.2526C64.5334 90.7764 63.5667 90.4431 63.1524 89.3907ZM66.3001 88.1478C66.0858 87.6002 65.6382 87.3859 64.8572 87.6955C64.081 88.0002 63.8953 88.4574 64.1143 89.0097C64.3334 89.5669 64.7858 89.7764 65.5572 89.4717C66.3334 89.1669 66.5191 88.7002 66.3001 88.1478Z" fill="#000F9F"></path><path d="M69.3381 88.6907L67.6333 85.7574L68.9571 84.986L71.1095 86.3383L70.9952 83.8002L72.319 83.0288L74.0238 85.9621L73.1762 86.4526L71.9428 84.3288L72.0762 87.0955L71.2904 87.5526L68.9524 86.0717L70.1904 88.1955L69.3381 88.6907Z" fill="#000F9F"></path><path d="M23.019 81.8382C13.9952 74.1811 8.2666 62.7573 8.2666 50.0001C8.2666 37.243 14.2999 25.2144 23.738 17.562" stroke="#000F9F" stroke-miterlimit="10"></path><path d="M76.2666 17.5669C85.7047 25.2193 91.7333 36.905 91.7333 50.0002C91.7333 63.0955 86.0047 74.1859 76.9809 81.8431" stroke="#000F9F" stroke-miterlimit="10"></path></g><defs><clipPath id="clip0_101_22115"><rect width="100" height="100" fill="white"></rect></clipPath></defs></svg>