<svg xmlns="http://www.w3.org/2000/svg" width="100" height="100" viewBox="0 0 100 100" fill="none"><g clip-path="url(#clip0_101_22065)"><path d="M68.4762 93.738C74.1286 91.3475 79.2048 87.9237 83.5667 83.5665C87.9286 79.2046 91.3476 74.1284 93.7381 68.4761C96.2143 62.6237 97.4667 56.4094 97.4667 49.9999C97.4667 43.5903 96.2143 37.3761 93.7381 31.5237C91.3476 25.8713 87.9238 20.7951 83.5667 16.4332C79.2048 12.0713 74.1286 8.65225 68.4762 6.26177C62.6238 3.78558 56.4095 2.5332 50 2.5332V97.4665C56.4095 97.4665 62.6238 96.2142 68.4762 93.738Z" fill="#5A9FC9"></path><path d="M31.5239 6.26177C25.8715 8.65225 20.7954 12.0761 16.4334 16.4332C12.0715 20.7951 8.65249 25.8713 6.26202 31.5237C3.78583 37.3761 2.53345 43.5903 2.53345 49.9999C2.53345 56.4094 3.78583 62.6237 6.26202 68.4761C8.65249 74.1284 12.0763 79.2046 16.4334 83.5665C20.7954 87.9284 25.8715 91.3475 31.5239 93.738C37.3763 96.2142 43.5906 97.4665 50.0001 97.4665V2.5332C43.5906 2.5332 37.3763 3.78558 31.5239 6.26177Z" fill="#7F1416"></path><path d="M50 0C22.3857 0 0 22.3857 0 50C0 77.6143 22.3857 100 50 100C77.6143 100 100 77.6143 100 50C100 22.3857 77.6143 0 50 0ZM68.4762 93.7381C62.6238 96.2143 56.4095 97.4667 50 97.4667C43.5905 97.4667 37.3762 96.2143 31.5238 93.7381C25.8714 91.3476 20.7952 87.9238 16.4333 83.5667C12.0714 79.2048 8.65238 74.1286 6.2619 68.4762C3.78571 62.6238 2.53333 56.4095 2.53333 50C2.53333 43.5905 3.78571 37.3762 6.2619 31.5238C8.65238 25.8714 12.0762 20.7952 16.4333 16.4333C20.7952 12.0714 25.8714 8.65238 31.5238 6.2619C37.3762 3.78571 43.5905 2.53333 50 2.53333C56.4095 2.53333 62.6238 3.78571 68.4762 6.2619C74.1286 8.65238 79.2048 12.0762 83.5667 16.4333C87.9286 20.7952 91.3476 25.8714 93.7381 31.5238C96.2143 37.3762 97.4667 43.5905 97.4667 50C97.4667 56.4095 96.2143 62.6238 93.7381 68.4762C91.3476 74.1286 87.9238 79.2048 83.5667 83.5667C79.2048 87.9286 74.1286 91.3476 68.4762 93.7381Z" fill="#5F0F10"></path><path fill-rule="evenodd" clip-rule="evenodd" d="M49.9714 22.0146L49.1762 24.4575H46.6047L48.7 26.1004L47.8857 28.5337L50.0809 26.9718L52.1333 28.4956L51.3762 26.1004L53.3952 24.4575L50.8762 24.3766L49.9714 22.0146Z" fill="white"></path><path fill-rule="evenodd" clip-rule="evenodd" d="M33.4095 31.2145L33.3619 61.9288C33.3619 61.9288 33.1238 74.5478 45.1762 76.505C61.2524 79.1764 64.8905 68.6288 64.8905 68.6288C64.8905 68.6288 66.6381 64.4907 66.5238 61.0383C66.6905 57.1859 66.6095 33.1621 66.6095 33.1621C66.6095 33.1621 63.7476 36.0573 58.5048 34.4716C54.5905 32.9335 53.6191 32.105 51.481 31.1383C45.4905 28.205 40.2191 27.8002 33.4048 31.2145" fill="#7F1416"></path><path fill-rule="evenodd" clip-rule="evenodd" d="M51.1334 49.1431C46.6524 50.0812 42.0429 54.2574 42.0429 58.9717C42.0429 64.2384 46.981 67.4098 51.0953 67.4098C54.3667 67.4098 57.6191 66.0098 57.6286 62.3574C57.6286 59.505 55.6143 58.4384 53.1715 57.5384C51.0191 56.7431 49.4619 54.7289 49.4429 52.4193C49.4381 51.1812 50.0048 49.9003 51.1334 49.1431ZM66.6429 46.6336C64.2334 48.3336 60.9953 48.986 57.2286 48.986C56.6381 48.986 56.0857 48.9479 55.5715 48.886C56.6381 49.5003 57.2191 50.2289 57.5857 51.5336C56.8334 51.1908 56.0953 51.0051 55.6 51.0051C54.5238 51.0003 53.5048 51.7336 53.5524 52.8527C53.5857 53.5717 54.1238 54.2098 54.9238 54.5336C56.7477 55.2622 58.6096 55.8098 60.3048 56.8336C63.6715 58.886 64.3524 61.4193 64.3524 63.5431C64.3524 66.3003 63.0857 69.667 60.2143 72.1193C57.9096 74.086 54.5667 75.467 50.0096 75.467C45.0429 75.467 41.2096 73.5431 38.6334 70.7527C36.1381 68.0479 34.8334 64.5289 34.8334 61.1765C34.8334 56.4622 37.1857 52.4574 40.6953 49.8908C43.2715 48.0098 46.8096 46.8812 49.8286 46.9098C48.0048 46.0431 46.0667 45.2336 43.0286 45.2336C39.6667 45.2336 36.1715 46.5812 33.3762 49.8765V41.7241C35.7667 40.3193 39.3 39.3193 42.7334 39.3193C47.3667 39.3193 49.8 41.0717 52.0096 42.8336C54.2334 44.586 56.2477 46.3479 60.0381 46.3479C62.4286 46.3479 64.7286 45.3384 66.6477 44.0527V46.6336H66.6429Z" fill="#5A9FC9"></path><path fill-rule="evenodd" clip-rule="evenodd" d="M50.8238 70.1812L51.7048 70.1907L51.1857 71.0954C52.0048 70.9335 52.5619 72.9478 51.0715 73.024C50.0334 73.0192 50.0524 71.8097 50.2619 71.3716L50.8238 70.1859V70.1812ZM51.0048 71.6716C50.9143 71.6716 50.8429 71.8335 50.8429 72.0335C50.8429 72.2335 50.9143 72.3954 51.0048 72.3954C51.0953 72.3954 51.1667 72.2335 51.1667 72.0335C51.1667 71.8335 51.0953 71.6716 51.0048 71.6716Z" fill="white"></path><path fill-rule="evenodd" clip-rule="evenodd" d="M47.8334 70.2051L47.8191 72.9146L47.0858 72.9003V70.8003L46.781 70.7956V70.2051H47.8334Z" fill="white"></path><path fill-rule="evenodd" clip-rule="evenodd" d="M52.0904 70.205L52.0808 70.8526L52.9142 70.8383L51.9761 72.8954L52.8332 72.9145L53.8904 70.2002L52.0904 70.205Z" fill="white"></path><path fill-rule="evenodd" clip-rule="evenodd" d="M49.0761 72.0003L48.5142 72.8956H49.3333L49.9857 71.5813C50.4761 69.7956 47.7999 69.6003 48.2618 71.5003C48.3571 71.8432 48.5857 72.0146 49.0809 72.0003M49.0999 70.7337C49.1904 70.7337 49.2618 70.8956 49.2618 71.0956C49.2618 71.2956 49.1904 71.4575 49.0999 71.4575C49.0095 71.4575 48.938 71.2956 48.938 71.0956C48.938 70.8956 49.0095 70.7337 49.0999 70.7337Z" fill="white"></path><path d="M47.1618 37.4481C46.9856 37.029 46.8904 36.629 46.8713 36.1528C47.3571 35.5433 47.8713 35.0957 48.3904 34.7671C49.3856 34.1433 50.3856 33.9909 51.1904 34.0766C51.2285 34.3195 51.2237 34.5004 51.2142 34.7195C51.2047 34.9385 51.1713 35.1481 51.1285 35.3481C50.4761 35.3052 49.738 35.3766 48.9904 35.7671C48.3761 36.0766 47.7618 36.6004 47.1666 37.4433" fill="white"></path><path d="M51.9572 39.443C51.5143 39.6383 51.0715 39.6954 50.5619 39.6954C49.1762 39.6954 47.9619 38.924 47.3286 37.7907C47.6381 37.3192 47.8619 37.043 48.181 36.7573C48.5429 37.5335 49.2191 38.343 50.2905 38.9145C50.7524 39.1573 51.3381 39.3145 51.9572 39.443Z" fill="white"></path><path d="M53.3761 38.2622C53.0951 38.6336 52.8856 38.9003 52.4951 39.1479C51.7284 39.0288 51.0808 38.8098 50.5475 38.5241C49.5094 37.9765 48.8713 37.186 48.5522 36.4431C48.7475 36.2955 48.9427 36.1717 49.138 36.0717C49.3332 35.9717 49.3903 35.9384 49.5856 35.8765C49.8808 36.4622 50.3094 37.0669 51.0141 37.5241C51.5903 37.8955 52.3522 38.1717 53.3713 38.2669" fill="white"></path><path d="M52.8334 33.0576C53.7286 33.7386 54.2572 34.791 54.2572 36.0005C54.2572 36.6957 54.0619 37.3481 53.7238 37.9052C53.1619 37.8671 52.8095 37.8148 52.3953 37.6814C52.8905 36.9767 53.2524 35.9862 53.2095 34.7767C53.1953 34.2529 53.0286 33.6624 52.8334 33.0576Z" fill="white"></path><path d="M51.1286 32.3335C51.6 32.3906 51.9238 32.5287 52.3238 32.743C52.6048 33.4668 52.7381 34.1383 52.7571 34.743C52.8048 35.9192 52.4333 36.8621 51.9571 37.5144C51.7286 37.424 51.5238 37.3144 51.3381 37.1906C51.1476 37.0716 51.1476 36.9954 51 36.8573C51.3619 36.3049 51.6238 35.5906 51.6667 34.7478C51.6952 34.0573 51.5571 33.2621 51.1238 32.3335" fill="white"></path><path d="M50.5619 32.3003H50.6238C50.8762 32.8003 51.0143 33.1908 51.1096 33.6146C50.2572 33.5384 49.2191 33.7146 48.1905 34.3622C47.7476 34.6432 47.3048 35.0098 46.8762 35.4812C47.1 33.6527 48.681 32.3051 50.5667 32.3051" fill="white"></path><path d="M50.0904 77.0813C48.3238 77.0813 46.6428 76.9003 45.1523 76.6575C38.8571 75.6384 35.9428 71.6813 34.6047 68.5432C33.1619 65.1527 33.2047 61.9575 33.2047 61.9241L33.2523 31.1194L33.3381 31.0765C39.7809 27.8432 45.0571 27.8194 51.5523 30.9956C52.319 31.3432 52.9428 31.6765 53.6 32.0242C54.7571 32.6384 56.0666 33.3384 58.5619 34.3194C63.6428 35.8575 66.4714 33.0765 66.5 33.048L66.7666 32.7813V33.1575C66.7666 33.3956 66.8476 57.2289 66.6809 61.0384C66.7952 64.4718 65.0523 68.6432 65.0333 68.6813C65 68.7813 64.0761 71.3765 61.1571 73.6861C57.8571 76.2908 53.7952 77.0813 50.0857 77.0813H50.0904ZM33.5666 31.3099L33.519 61.9241C33.519 61.9575 33.4762 65.0956 34.9 68.4289C36.2047 71.4908 39.0523 75.348 45.2047 76.348C49.7523 77.1051 56.1762 77.2146 60.9523 73.4527C63.8095 71.2051 64.7381 68.5956 64.7428 68.5718C64.7619 68.5194 66.4762 64.4146 66.3666 61.0384C66.5238 57.4718 66.4619 36.4337 66.4571 33.4956C65.619 34.1575 62.8381 35.9432 58.4619 34.6146C55.9333 33.6242 54.619 32.9194 53.4523 32.3003C52.8 31.9527 52.1809 31.6242 51.419 31.2765C45.0476 28.1622 39.8714 28.167 33.5666 31.3099Z" fill="white"></path><path d="M30.7095 11.3384L31.1143 12.0717L28.9 13.2955L29.2476 13.9289L31.2143 12.8431L31.6143 13.5717L29.6476 14.6574L30.1333 15.5336L29.2714 16.0098L27.6333 13.0431L30.7095 11.3431V11.3384Z" fill="white"></path><path d="M36.3001 12.6237L35.762 12.1523L33.8286 12.938L33.7715 13.6523L32.7905 14.0523L33.1334 10.2571L34.3905 9.74756L37.281 12.2285L36.3048 12.6237H36.3001ZM33.8953 12.1142L35.1334 11.6095L34.0143 10.6333L33.8953 12.1142Z" fill="white"></path><path d="M41.3476 10.1764L40.7619 7.81927L41.7095 7.58594L42.5238 10.8764L41.1286 11.224L38.6048 9.34784L39.1905 11.705L38.2381 11.9431L37.4238 8.6526L38.8238 8.30499L41.3476 10.1812V10.1764Z" fill="white"></path><path d="M46.1189 6.96208L50.1998 6.79541L50.2332 7.62874L48.6856 7.69065L48.7903 10.243L47.8094 10.2811L47.7046 7.72874L46.1522 7.79065L46.1189 6.95731V6.96208Z" fill="white"></path><path d="M51.3905 8.49526C51.4857 7.37622 52.3143 6.78098 53.7381 6.90479C55.1572 7.0286 55.8762 7.75717 55.781 8.87145C55.6857 9.9905 54.8524 10.5953 53.4334 10.4715C52.0096 10.3476 51.2953 9.61907 51.3905 8.49526ZM54.7572 8.78574C54.8096 8.20003 54.5048 7.80955 53.6667 7.73812C52.8334 7.66669 52.4667 7.9905 52.4191 8.58574C52.3667 9.18098 52.6762 9.57145 53.5048 9.64288C54.3381 9.71431 54.7096 9.38098 54.7619 8.7905L54.7572 8.78574Z" fill="white"></path><path d="M61.6239 8.36681L59.6334 9.38109L60.881 11.6763L59.6763 11.4049L58.8096 9.8049L57.862 10.2859L57.7096 10.9573L56.7524 10.7382L57.5001 7.42871L58.462 7.643L58.1286 9.12871L60.1953 8.03823L61.6334 8.36204L61.6239 8.36681Z" fill="white"></path><path d="M66.3286 9.99553L66.0667 10.7193L63.6858 9.85744L63.5 10.367L65.7905 11.1955L65.5286 11.9193L63.2381 11.0908L63.0524 11.6003L65.4334 12.4622L65.1715 13.186L61.8667 11.9908L63.0191 8.80029L66.3238 9.99553H66.3286Z" fill="white"></path><path d="M69.7618 14.3526L70.8761 12.1907L71.7476 12.6383L70.1904 15.6526L68.9095 14.9907L68.2476 11.9097L67.1333 14.0716L66.2571 13.6193L67.8142 10.605L69.0999 11.2669L69.7618 14.3478V14.3526Z" fill="white"></path><path d="M27.3953 85.4763C27.2476 85.7192 27.3953 86.0239 28.1572 86.4858C28.8572 86.9049 29.0953 86.9001 29.2048 86.7192C29.3334 86.5097 29.2238 86.3906 28.3953 85.8144C27.2667 85.024 26.8905 84.4763 27.2762 83.8335C27.6429 83.2287 28.4619 83.3478 29.4667 83.9525C30.5857 84.6239 31.0238 85.3525 30.6619 86.0144L29.781 85.4859C29.9334 85.2287 29.7143 84.962 29.0619 84.5716C28.4429 84.2001 28.2429 84.2192 28.1476 84.3763C28.0381 84.5573 28.1476 84.6954 28.8953 85.2335C29.9143 85.9573 30.5619 86.4478 30.1048 87.2097C29.6572 87.9525 28.8381 87.7573 27.8048 87.1335C26.6286 86.4239 26.0905 85.7382 26.5096 84.9478L27.3905 85.4811L27.3953 85.4763Z" fill="white"></path><path d="M31.5238 87.1909C31.9714 86.1576 32.9428 85.8623 34.2571 86.429C35.5667 86.9957 36.0143 87.9147 35.5714 88.9433C35.1238 89.9766 34.1428 90.2814 32.8333 89.7147C31.519 89.148 31.0762 88.229 31.5238 87.1909ZM34.6286 88.5385C34.8619 87.9957 34.6952 87.5338 33.9238 87.1957C33.1571 86.8623 32.7047 87.0576 32.4714 87.6004C32.2333 88.1481 32.4047 88.6147 33.1667 88.948C33.9333 89.2814 34.3952 89.0814 34.6286 88.5338V88.5385Z" fill="white"></path><path d="M39.3049 88.2194C40.5096 88.5575 41.043 89.2623 40.9049 90.129L39.9001 89.848C39.9191 89.529 39.6858 89.1909 39.0811 89.0242C38.3811 88.829 37.9477 89.0766 37.7906 89.648C37.6287 90.2242 37.8763 90.6671 38.5715 90.8623C39.1763 91.029 39.5525 90.8623 39.7001 90.5718L40.7049 90.8528C40.3715 91.6718 39.5477 92.0004 38.343 91.6671C37.0334 91.3004 36.4858 90.4909 36.7953 89.3718C37.1096 88.2575 37.9953 87.8528 39.3049 88.2194Z" fill="white"></path><path d="M43.3953 89.2289L42.7953 92.5623L41.8286 92.3861L42.4286 89.0527L43.3953 89.2289Z" fill="white"></path><path d="M44.419 91.1481C44.5095 90.029 45.3333 89.4338 46.7571 89.5481C48.1762 89.6624 48.9 90.3909 48.8047 91.5052C48.7143 92.6243 47.8857 93.229 46.4666 93.1147C45.0428 93.0005 44.3238 92.2719 44.419 91.1481ZM47.7857 91.4243C47.8333 90.8386 47.5285 90.4528 46.6905 90.3814C45.8571 90.3148 45.4952 90.6433 45.4428 91.2338C45.3952 91.829 45.7047 92.2148 46.5333 92.2862C47.3666 92.3528 47.7381 92.0195 47.7857 91.4243Z" fill="white"></path><path d="M51.119 92.048C51.1333 92.3337 51.4238 92.5051 52.3143 92.4575C53.1286 92.4146 53.3238 92.2766 53.3095 92.0623C53.2952 91.8146 53.1428 91.7813 52.1333 91.767C50.7571 91.7432 50.1333 91.5004 50.0952 90.748C50.0571 90.0432 50.8047 89.6813 51.9762 89.6242C53.2809 89.5575 54.0524 89.9099 54.119 90.6623L53.0952 90.7146C53.0809 90.4146 52.7476 90.3194 51.9857 90.3575C51.2666 90.3956 51.1095 90.5242 51.119 90.7051C51.1285 90.9146 51.2952 90.9718 52.219 91.0004C53.4666 91.0289 54.2809 91.0718 54.3285 91.9623C54.3714 92.8289 53.5857 93.1242 52.3809 93.1861C51.0095 93.2575 50.1762 92.9861 50.0857 92.0956L51.1143 92.0432L51.119 92.048Z" fill="white"></path><path d="M55.7428 92.0429L56.6809 91.9048L56.7857 92.6334L55.8476 92.7715L55.738 92.0429H55.7428Z" fill="white"></path><path d="M59.4811 88.5382C60.6953 88.243 61.5096 88.5953 61.8144 89.4191L60.8001 89.6668C60.662 89.3763 60.2906 89.2001 59.6811 89.3477C58.9763 89.5192 58.7192 89.9477 58.8572 90.5287C59.0001 91.1096 59.4334 91.3763 60.1334 91.2049C60.743 91.0572 60.9906 90.7239 60.9763 90.3953L61.9906 90.1477C62.1001 91.0239 61.543 91.7191 60.3287 92.0144C59.0049 92.3382 58.1287 91.9001 57.8525 90.7715C57.5763 89.6477 58.1525 88.862 59.4763 88.5382H59.4811Z" fill="white"></path><path d="M63.1524 89.3907C62.7382 88.3431 63.2191 87.4431 64.5477 86.9193C65.8715 86.3955 66.8429 86.7288 67.2524 87.7717C67.6667 88.8193 67.1858 89.7288 65.862 90.2526C64.5334 90.7764 63.5667 90.4431 63.1524 89.3907ZM66.3001 88.1478C66.0858 87.6002 65.6382 87.3859 64.8572 87.6955C64.081 88.0002 63.8953 88.4574 64.1143 89.0097C64.3334 89.5669 64.7858 89.7764 65.5572 89.4717C66.3334 89.1669 66.5191 88.7002 66.3001 88.1478Z" fill="white"></path><path d="M69.3381 88.6907L67.6333 85.7574L68.9571 84.986L71.1095 86.3383L70.9952 83.8002L72.319 83.0288L74.0238 85.9621L73.1762 86.4526L71.9428 84.3288L72.0762 87.0955L71.2904 87.5526L68.9524 86.0717L70.1904 88.1955L69.3381 88.6907Z" fill="white"></path><path d="M23.019 81.8382C13.9952 74.1811 8.2666 62.7573 8.2666 50.0001C8.2666 37.243 14.2999 25.2144 23.738 17.562" stroke="#5F0F10" stroke-miterlimit="10"></path><path d="M76.2666 17.5669C85.7047 25.2193 91.7333 36.905 91.7333 50.0002C91.7333 63.0955 86.0047 74.1859 76.9809 81.8431" stroke="#5F0F10" stroke-miterlimit="10"></path></g><defs><clipPath id="clip0_101_22065"><rect width="100" height="100" fill="white"></rect></clipPath></defs></svg>