<svg xmlns="http://www.w3.org/2000/svg" width="100" height="100" viewBox="0 0 100 100" fill="none"><g clip-path="url(#clip0_101_22063)"><path d="M50 100C77.6142 100 100 77.6142 100 50C100 22.3858 77.6142 0 50 0C22.3858 0 0 22.3858 0 50C0 77.6142 22.3858 100 50 100Z" fill="white"></path><path d="M50 2.53333C76.1714 2.53333 97.4667 23.8286 97.4667 50C97.4667 76.1714 76.1714 97.4667 50 97.4667C23.8286 97.4667 2.53333 76.1714 2.53333 50C2.53333 23.8286 23.8286 2.53333 50 2.53333ZM50 0C22.3857 0 0 22.3857 0 50C0 77.6143 22.3857 100 50 100C77.6143 100 100 77.6143 100 50C100 22.3857 77.6143 0 50 0Z" fill="#2D2A26"></path><path d="M49.9763 72.4666C37.6429 72.4666 27.6191 62.4285 27.6191 50.0857C27.6191 37.7428 37.6477 27.7095 49.9763 27.7095C62.3049 27.7095 72.3525 37.7428 72.3525 50.0857C72.3525 62.4285 62.3191 72.4666 49.9763 72.4666Z" fill="white"></path><path d="M49.9621 71.9711C37.905 71.9711 28.0859 62.1521 28.0859 50.0854C28.0859 38.0188 37.905 28.1997 49.9621 28.1997C62.0193 28.1997 71.8336 38.014 71.8336 50.0854C71.8336 62.1568 62.0193 71.9711 49.9621 71.9711Z" fill="#A6A8AB"></path><path d="M32.6189 63.5855L49.9713 40.0093L67.3332 63.5855C66.3379 64.8712 65.1951 66.0379 63.9427 67.0712L49.9665 48.0902L35.9951 67.0759C34.7475 66.0426 33.5999 64.8759 32.6094 63.5902" fill="white"></path><path d="M52.6619 40.0044H59.819V52.1139C59.819 52.1139 60.0381 56.7425 56.4476 61.333C53.4857 65.1187 49.9809 66.5187 49.9809 66.5187C49.9809 66.5187 46.4905 65.1139 43.519 61.333C39.9286 56.7425 40.1476 52.1139 40.1476 52.1139V40.0044H52.6619Z" fill="white"></path><path d="M29.9141 47.319L30.0522 47.3428C29.9713 47.8475 30.0903 47.9904 30.6856 48.0856L33.8094 48.5809C34.8618 48.7475 35.3094 48.1904 35.4094 47.557C35.538 46.7428 35.0522 46.0904 34.0713 45.9332L31.1046 45.4618C30.4999 45.3666 30.3522 45.4618 30.2665 45.9904L30.1284 45.9666L30.376 44.3999L30.5141 44.4237C30.438 44.8951 30.5475 45.057 31.1522 45.1523L34.1522 45.6285C35.3522 45.819 35.8475 46.6428 35.6713 47.7428C35.5427 48.5475 35.0332 49.5618 33.5046 49.319L30.5618 48.8523C29.9475 48.757 29.8094 48.8666 29.7284 49.3713L29.5903 49.3475L29.9141 47.319Z" fill="white"></path><path d="M36.1857 44.2235C36.3285 44.114 36.4571 43.9425 36.5619 43.733C36.9952 42.8568 36.5381 42.0045 35.3285 41.4045C34.1 40.7949 33.0952 40.9664 32.6523 41.8616C32.5666 42.0378 32.5238 42.1664 32.4904 42.3949L36.1857 44.2235ZM32.4381 41.7426C33.1762 40.2568 34.5428 40.1378 35.6571 40.6902C36.9857 41.3473 37.319 42.6902 36.7523 43.8378L35.9238 45.514L35.819 45.4616C36.0428 45.0092 36.0095 44.8711 35.519 44.6283L32.5762 43.1711C32.0857 42.9283 31.9523 42.9902 31.7381 43.4378L31.6333 43.3854L32.4476 41.7426H32.4381Z" fill="white"></path><path d="M35.1808 37.4712L35.2761 37.5426C34.9808 37.9093 34.9856 38.0664 35.4142 38.395L38.0094 40.4045C38.4713 40.7617 38.6046 40.6807 38.8761 40.3283L38.9713 40.3998L37.8427 41.8569L37.7475 41.7855C38.0475 41.4045 38.0142 41.2474 37.6046 40.9283L35.0094 38.9188C34.5808 38.5855 34.4332 38.6283 34.1475 38.9998L34.0522 38.9283L35.1808 37.4712Z" fill="white"></path><path d="M36.5856 35.9762L40.6761 37.0524L40.6856 37.0429L38.938 34.9715C38.5952 34.5619 38.4333 34.5619 38.0523 34.8905L37.9761 34.8L39.0333 33.9048L39.1095 33.9953C38.8285 34.2286 38.819 34.4143 39.0571 34.6953L41.7999 37.9476L41.7237 38.0095L37.1285 36.7953L37.119 36.8048L39.0856 39.1381C39.4523 39.5715 39.6142 39.5476 40.0142 39.1905L40.0904 39.281L38.9571 40.2381L38.8809 40.1476C39.2095 39.8619 39.2047 39.6905 38.9523 39.3905L36.6666 36.681L36.3428 36.6048C36.1333 36.5524 36.0237 36.6 35.8618 36.7334L35.7856 36.6429L36.5809 35.9715L36.5856 35.9762Z" fill="white"></path><path d="M43.3188 32.8857L43.2045 32.9429C42.8331 32.3476 42.6045 32.3714 42.1093 32.6095L41.2331 33.0286L42.0426 34.7238L42.7283 34.3952C43.2093 34.1619 43.2664 33.9429 43.0283 33.4571L43.1379 33.4048L43.8617 34.9143L43.7521 34.9667C43.5283 34.4905 43.3283 34.4048 42.9617 34.581L42.1617 34.9667L42.9045 36.5143C43.0521 36.8191 43.1236 36.8524 43.3807 36.7286L43.9998 36.4286C44.5283 36.1762 44.6807 35.8143 44.5855 35.081L44.7093 35.0619L44.895 36.3L42.0426 37.6667L41.9902 37.5619C42.4426 37.3524 42.5045 37.2191 42.2664 36.7191L40.8474 33.7571C40.6283 33.3 40.495 33.2095 40.0236 33.4524L39.9712 33.3429L42.8045 31.981L43.3188 32.8905V32.8857Z" fill="white"></path><path d="M44.9237 34.6903L45.0523 34.6617C45.3142 35.5474 45.9904 35.8236 46.5189 35.6998C46.938 35.5998 47.1618 35.2046 47.057 34.7665C46.9904 34.4855 46.8523 34.295 46.5428 34.1093C46.2285 33.9188 45.4428 33.6808 45.0428 33.4331C44.7047 33.2284 44.4761 32.9617 44.3808 32.5712C44.2142 31.8808 44.5666 31.2903 45.238 31.1284C45.7523 31.0046 46.0713 31.176 46.2189 31.1379C46.3332 31.1093 46.4047 31.0046 46.4094 30.8474L46.5237 30.8188L46.8904 32.3427L46.7761 32.3712C46.5189 31.4712 45.7951 31.2665 45.3713 31.3712C44.9809 31.4665 44.757 31.7998 44.8428 32.1474C44.8999 32.395 45.0523 32.595 45.3142 32.7569C45.7047 32.995 46.4809 33.1855 46.9618 33.4808C47.2856 33.6808 47.5285 34.0046 47.6142 34.3569C47.7856 35.076 47.357 35.7617 46.6332 35.9379C46.1618 36.0522 45.8285 35.8712 45.6237 35.9188C45.4856 35.9522 45.4237 36.0474 45.4332 36.2188L45.3047 36.2522L44.9285 34.6855L44.9237 34.6903Z" fill="white"></path><path d="M50.924 31.6618H50.7954C50.7002 30.9713 50.4812 30.8998 49.9335 30.9141L48.9621 30.9379L49.0097 32.8141L49.7669 32.7951C50.3002 32.7808 50.4431 32.5998 50.424 32.0618H50.5431L50.5859 33.7332H50.4669C50.4621 33.2094 50.3097 33.0522 49.9002 33.0618L49.0145 33.0856L49.0573 34.7998C49.0669 35.1379 49.1192 35.1998 49.405 35.1951L50.0954 35.176C50.6764 35.1618 50.9669 34.8951 51.1812 34.1856L51.3002 34.2189L50.9669 35.4237L47.805 35.5046V35.3856C48.3002 35.3808 48.4097 35.2856 48.3954 34.7284L48.3097 31.4475C48.2954 30.9427 48.2145 30.8046 47.6812 30.8284V30.7094L50.8192 30.6284L50.9145 31.6665L50.924 31.6618Z" fill="white"></path><path d="M57.495 33.019L57.3522 32.9714C57.576 32.0286 57.2331 31.2714 56.4855 31.0333C55.5093 30.7238 54.7427 31.5095 54.176 33.2762C53.6474 34.9381 54.0236 35.8238 54.9665 36.1286C55.5855 36.3286 56.0998 36.1333 56.6903 35.5238L56.795 35.6286C56.1617 36.3428 55.4427 36.5857 54.6569 36.3333C53.5569 35.9809 52.7427 34.7286 53.2998 32.9809C53.8427 31.2809 55.1998 30.3381 56.495 30.7524C57.1331 30.9571 57.3427 31.3857 57.5379 31.4476C57.6379 31.4809 57.7141 31.4095 57.8236 31.1762L57.9569 31.219L57.4903 33.019H57.495Z" fill="white"></path><path d="M59.5999 34.6902L59.5857 34.6807L58.2476 35.8521L59.1285 36.4188L59.5999 34.6902ZM57.3095 36.6712C57.2428 36.7378 57.1904 36.7902 57.1666 36.8283C57.0666 36.9807 57.1095 37.1283 57.4095 37.3093L57.3428 37.4093L56.2476 36.7045L56.3095 36.6045C56.5999 36.7902 56.7761 36.7474 57.1952 36.3855L60.4571 33.5854L60.5523 33.6474L59.438 37.8283C59.2666 38.4759 59.3285 38.5426 59.6142 38.7283L59.5476 38.8283L58.1714 37.9426L58.2333 37.8426C58.4809 37.9997 58.619 37.9997 58.7237 37.8331C58.7666 37.7664 58.7857 37.714 58.8333 37.5283L59.0523 36.6902L58.0333 36.0378L57.2999 36.6712H57.3095Z" fill="white"></path><path d="M64.4764 37.1329L64.3859 37.2139C64.0526 36.8329 63.9097 36.8043 63.4907 37.1805L60.9859 39.4615C60.7526 39.6758 60.7431 39.7567 60.9431 39.9758L61.2812 40.3472C61.7907 40.9091 62.0526 40.9472 62.8764 40.5662L62.924 40.671L61.7574 41.2662L59.6431 38.9424L59.7335 38.8615C60.0954 39.271 60.2431 39.2424 60.624 38.8996L63.0526 36.6901C63.4621 36.3139 63.4478 36.1615 63.105 35.7948L63.1955 35.7139L64.4812 37.1282L64.4764 37.1329Z" fill="white"></path><path d="M66.4762 42.7666L66.4143 42.6571C67.1001 42.1999 67.3334 41.5285 67.0048 40.9476C66.5762 40.1856 65.6429 40.2285 64.262 41.0047C62.9667 41.7333 62.681 42.5047 63.0953 43.238C63.3667 43.7237 63.8001 43.8999 64.5191 43.8666V43.9904C63.7143 44.0666 63.1286 43.7999 62.781 43.1857C62.3 42.3285 62.5239 41.0714 63.8858 40.3095C65.2096 39.5666 66.6048 39.7666 67.1762 40.7809C67.4572 41.2761 67.3334 41.6666 67.4191 41.819C67.4667 41.8999 67.5524 41.8999 67.7572 41.819L67.8143 41.9237L66.4762 42.7714V42.7666Z" fill="white"></path><path d="M68.6523 44.5713L68.538 44.6094C68.3903 44.1618 68.257 44.0809 67.7475 44.2571L64.6427 45.3333C64.0903 45.5237 64.0856 45.6809 64.2332 46.0999L64.1189 46.138L63.5142 44.3952L63.6284 44.3571C63.7808 44.819 63.9332 44.8761 64.4284 44.7047L67.5284 43.6285C68.038 43.4523 68.0856 43.3094 67.9332 42.8618L68.0475 42.8237L68.6523 44.5666V44.5713Z" fill="white"></path><path d="M64.6095 47.9237C64.7381 48.7952 65.6381 48.8952 67.0048 48.6952C68.5715 48.4666 69.1905 48.0428 69.0762 47.2714C68.9572 46.4571 68.1429 46.2856 66.681 46.4999C65.1143 46.7285 64.4953 47.1523 64.6095 47.9237ZM69.3191 47.2333C69.5048 48.5047 68.3334 49.2952 67.1191 49.4714C65.881 49.6523 64.5524 49.2237 64.3667 47.9571C64.1905 46.7476 65.2619 45.9095 66.5667 45.719C67.7857 45.5428 69.1334 45.9618 69.3191 47.2333Z" fill="white"></path><path d="M40.2002 53.2901L49.9764 40.0044L59.7621 53.2901C59.6383 54.5425 59.224 56.6473 57.9907 58.9663L49.9764 48.0853L41.9764 58.9663C40.7335 56.6473 40.3288 54.5425 40.2002 53.2901Z" fill="#2D2A26"></path><path d="M23.3571 30.2093C22.0571 34.5903 24.419 37.1093 24.419 37.1093C25.4428 33.1617 23.3571 30.2093 23.3571 30.2093ZM28.3476 33.9903C30.3095 31.1617 29.1143 28.3855 29.1143 28.3855C29.1143 28.3855 29.0143 29.2522 28.3762 30.0427C27.7381 30.8331 26.3143 32.795 25.4952 35.6998C24.6809 38.6046 25.2428 39.5474 25.2428 39.5474C25.5476 38.1189 26.3905 36.8236 28.3524 33.995M27.819 26.1236C25.219 28.6712 25.2952 33.3617 25.2952 33.3617C28.3286 29.795 27.819 26.1236 27.819 26.1236ZM23.6905 42.5331C24.0476 40.6569 23.8619 39.4903 23.8619 39.4903C23.4 36.7998 22.3666 36.5522 22.3666 36.5522C22.419 36.8522 22.3333 38.0379 21.9095 41.2617C21.2524 46.2189 22.9857 48.2284 22.9857 48.2284C22.919 47.6093 23.3381 44.4093 23.6952 42.5331M21.2381 53.8617C20.1476 48.2617 17.2619 47.2712 17.2619 47.2712C17.6238 50.7855 21.2381 53.8617 21.2381 53.8617ZM21.7238 38.1236C21.8666 35.1712 20.7286 33.9665 20.7286 33.9665C19.2476 38.4903 20.7952 41.9665 20.7952 41.9665C20.7952 41.9665 21.5809 41.076 21.7286 38.1236M16.5762 52.1236C18.5047 55.7141 22.5381 56.4617 22.5381 56.4617C19.9 52.295 16.5762 52.1236 16.5762 52.1236ZM25.1666 41.2474C25.1666 41.2474 29.7428 38.2046 29.8905 35.0284C29.8905 35.0284 26.3333 36.4998 25.1666 41.2474ZM40.0762 20.1427C40.3238 20.0665 40.4857 20.2427 40.6428 20.7617L42.1286 25.6522C42.2905 26.1808 42.1857 26.5093 41.6524 26.6855L41.7095 26.8712L44.0905 26.1474L44.0333 25.9617C43.4905 26.1284 43.2095 25.9379 43.0333 25.357L41.0666 18.876L40.8809 18.9331L39.6238 20.2855L39.7476 20.4236C39.8238 20.3189 39.9571 20.1808 40.0762 20.1474M48.2 75.0712C48.2 75.0712 44.0286 72.0712 40.6666 72.6236C40.6666 72.6236 42.7381 75.3855 48.2 75.0712ZM33.6762 74.7046C33.6762 74.7046 36.7143 75.6141 40.4524 76.1998C44.1857 76.7855 45.9381 75.6903 45.9381 75.6903C45.3333 75.6808 43.3952 75.3474 42.4571 75.076C41.519 74.8046 40.0333 73.9427 37.3047 73.7284C34.5762 73.5141 33.6762 74.7046 33.6762 74.7046ZM36.719 29.2379C36.719 29.2379 32.6428 29.3379 30.2476 33.2617C30.2476 33.2617 34.5286 32.5474 36.719 29.2379ZM32.1095 22.4093C29.7143 25.2617 30.4047 29.495 30.4047 29.495C33.3095 25.1141 32.1095 22.4093 32.1095 22.4093ZM33.0286 67.457C34.9095 71.6712 38.6619 72.4665 38.6619 72.4665C35.8857 67.4998 33.0286 67.457 33.0286 67.457ZM38.0238 20.195C33.8714 22.2617 32.9286 26.2855 32.9286 26.2855C37.4619 23.4855 38.0238 20.195 38.0238 20.195ZM36.9286 26.2855C39.0714 24.1189 38.4809 22.6665 38.4809 22.6665C37.9952 23.176 35.5524 25.2141 33.3095 27.076C31.0666 28.9379 30.8381 31.5093 30.8381 31.5093C32.2666 29.6998 34.7857 28.4522 36.9286 26.2855ZM34.519 73.0427C29.7571 71.2331 26.9047 73.1427 26.9047 73.1427C31.5857 74.757 34.519 73.0427 34.519 73.0427ZM69.4 71.6046C69.4 71.6046 74.3095 71.2189 76.9667 68.1379C76.9667 68.1379 73.0286 67.7379 69.4 71.6046ZM56.3905 77.1712C59.8238 80.0665 63.6333 79.0284 63.6333 79.0284C60.4095 76.4855 56.3905 77.1712 56.3905 77.1712ZM60.8619 76.9379C60.8619 76.9379 67.1619 77.8712 69.3047 75.7855C69.3047 75.7855 66.719 74.4617 60.8619 76.9379ZM65.519 73.0427C65.519 73.0427 68.4524 74.757 73.1333 73.1427C73.1333 73.1427 70.2809 71.2331 65.519 73.0427ZM77.4905 56.4712C77.4905 56.4712 81.5238 55.7236 83.4524 52.1331C83.4524 52.1331 80.1286 52.3046 77.4905 56.4712ZM73.0571 66.176C73.0571 66.176 77.5667 66.4808 80.0333 63.6712C80.0333 63.6712 75.9619 63.157 73.0571 66.176ZM76.019 63.3665C76.019 63.3665 80.6809 60.8617 81.4476 57.957C81.4476 57.957 78.1428 58.357 76.019 63.3665ZM59.2047 80.2998C58.0381 79.2665 54.6571 75.8665 50.1095 75.7712C50.1095 75.7712 51.619 76.4427 53.4333 78.0855C55.2476 79.7284 57.8857 82.3284 61.2286 81.1808C61.2286 81.1808 60.3666 81.3331 59.2047 80.3046M23.0714 68.1427C25.7286 71.2236 30.6381 71.6093 30.6381 71.6093C27.0095 67.7427 23.0714 68.1427 23.0714 68.1427ZM26.7857 67.9522C27.5666 68.4665 29.8095 70.3712 32.6857 71.5665C35.5619 72.7617 37.2714 72.376 37.2714 72.376C35.3809 71.757 33.1286 70.1189 31.6952 68.895C30.2666 67.6712 28.9381 67.3331 28.9381 67.3331C26.7381 66.6998 25.8571 67.276 25.8571 67.276C25.8571 67.276 26.0047 67.4379 26.7857 67.957M24.0143 63.376C21.8952 58.3712 18.5857 57.9665 18.5857 57.9665C19.3524 60.8712 24.0143 63.376 24.0143 63.376ZM26.9762 66.1855C24.0714 63.1665 20 63.6808 20 63.6808C22.4666 66.4903 26.9762 66.1855 26.9762 66.1855ZM50.019 76.0855V76.0808C50.019 76.0808 50.019 76.0808 50.019 76.0855C46.1666 78.2427 45.8143 82.3046 45.8143 82.3046C48.8524 81.257 49.9476 76.4474 50.019 76.0998C50.0952 76.4474 51.1857 81.2522 54.2238 82.3046C54.2238 82.3046 53.8714 78.2427 50.019 76.0855ZM49.9238 75.7808C45.3762 75.876 41.9952 79.276 40.8286 80.3093C39.6619 81.3427 38.8047 81.1855 38.8047 81.1855C42.1476 82.3331 44.7857 79.7331 46.6 78.0903C48.4143 76.4474 49.9238 75.776 49.9238 75.776M30.7286 75.7903C32.8714 77.876 39.1714 76.9427 39.1714 76.9427C33.3143 74.4665 30.7286 75.7903 30.7286 75.7903ZM36.3952 79.0331C36.3952 79.0331 40.2095 80.0712 43.6381 77.176C43.6381 77.176 39.619 76.4903 36.3952 79.0331ZM18.6857 39.8379C18.6857 39.8379 17.1905 41.6998 21.1238 46.2808C21.1238 46.2808 21.3476 42.5141 18.6857 39.8379ZM79.2143 41.9617C79.2143 41.9617 80.7619 38.4855 79.2809 33.9617C79.2809 33.9617 78.1381 35.1665 78.2857 38.1189C78.4286 41.0712 79.219 41.9617 79.219 41.9617M82.7524 47.2617C82.7524 47.2617 79.8666 48.2569 78.7762 53.8522C78.7762 53.8522 82.3905 50.776 82.7524 47.2617ZM78.8809 46.276C82.8143 41.695 81.319 39.8331 81.319 39.8331C78.6571 42.5093 78.8809 46.276 78.8809 46.276ZM76.3238 42.5236C76.6809 44.3998 77.1 47.5998 77.0333 48.2189C77.0333 48.2189 78.7666 46.2141 78.1095 41.2522C77.6809 38.0284 77.6 36.8427 77.6524 36.5427C77.6524 36.5427 76.6143 36.7903 76.1571 39.4808C76.1571 39.4808 75.9714 40.6474 76.3286 42.5236M74.7714 39.5427C74.7714 39.5427 75.3333 38.5998 74.5143 35.695C73.7 32.7903 72.2714 30.8284 71.6381 30.0379C71 29.2474 70.9 28.3808 70.9 28.3808C70.9 28.3808 69.7047 31.157 71.6666 33.9855C73.6286 36.8141 74.4666 38.1141 74.7762 39.5379M76.6619 30.2046C76.6619 30.2046 74.5762 33.1569 75.6 37.1046C75.6 37.1046 77.9619 34.5855 76.6619 30.2046ZM72.2047 26.1141C72.2047 26.1141 71.6952 29.7855 74.7285 33.3522C74.7285 33.3522 74.8047 28.6665 72.2047 26.1141ZM74.8666 41.2379C73.7 36.4903 70.1428 35.0189 70.1428 35.0189C70.2857 38.195 74.8666 41.2379 74.8666 41.2379ZM59.3666 72.6093C56.0047 72.0569 51.8333 75.0569 51.8333 75.0569C57.2952 75.3712 59.3666 72.6093 59.3666 72.6093ZM59.5809 76.1855C63.3143 75.5998 66.3571 74.6903 66.3571 74.6903C66.3571 74.6903 65.4571 73.495 62.7286 73.7141C60 73.9284 58.5143 74.7903 57.5762 75.0617C56.6381 75.3379 54.7 75.6665 54.0952 75.676C54.0952 75.676 55.8428 76.7712 59.5809 76.1855ZM73.2524 67.9284C74.0333 67.4093 74.1809 67.2474 74.1809 67.2474C74.1809 67.2474 73.2952 66.6712 71.1 67.3046C71.1 67.3046 69.7714 67.6427 68.3428 68.8665C66.9143 70.0903 64.6571 71.7284 62.7666 72.3474C62.7666 72.3474 64.4762 72.7331 67.3524 71.5379C70.2286 70.3427 72.4714 68.4427 73.2524 67.9236M75.1619 62.9046C75.1619 62.9046 76.1381 61.9474 77.0524 60.3998C77.9714 58.8522 78.7524 57.7998 79 57.6284C79 57.6284 77.7381 57.1712 75.4476 59.2522C73.1524 61.3331 73.7095 63.1712 70.6143 66.076C70.6143 66.076 72.4857 65.8665 75.1619 62.9046ZM74.1571 42.4141C72.9905 45.195 75.9666 49.5379 75.9666 49.5379C76.819 45.4569 74.1571 42.4141 74.1571 42.4141ZM68.9143 66.957C68.9143 66.957 72.0667 64.7808 72.3524 59.8474C72.3524 59.8474 69.619 61.3189 68.9143 66.957ZM73.919 58.6998C73.919 58.6998 76.2524 55.2236 74.819 51.495C74.819 51.495 72.5809 53.8474 73.919 58.6998ZM79.8428 47.3665C79.8428 47.3665 78.4286 47.8617 77.6095 49.276C76.7857 50.6903 76.4238 52.9998 76.1381 54.4141C75.8524 55.8284 75.1809 57.776 75.1809 57.776C75.1809 57.776 77.3952 55.7903 78.1809 53.4379C78.9619 51.0855 79.6524 47.8379 79.8428 47.3617M52.3238 22.1569C51.6 22.095 51.2381 21.1474 51.3619 19.6379C51.4476 18.5903 51.8381 18.0189 52.4476 18.0712C53.2381 18.1379 53.5952 19.1427 53.4571 20.8331C53.4238 21.2379 53.4047 21.4665 53.3333 21.7855C52.9905 22.0617 52.6666 22.1855 52.3286 22.1569M52.7428 24.6665C53.8524 23.7236 54.4047 22.4427 54.5143 21.1046C54.6714 19.1903 53.9 17.8189 52.619 17.7141C51.2762 17.5998 50.4333 18.995 50.319 20.3808C50.219 21.5855 50.8857 22.5522 51.8809 22.6331C52.3762 22.676 52.8333 22.5189 53.2238 22.176L53.2428 22.1998C52.7095 24.095 51.4857 25.3236 50.1238 25.2998L50.1047 25.5046C51.1714 25.6617 52.019 25.2808 52.7381 24.6665M46.5714 18.0903C47.2 18.0236 47.6952 18.5189 47.7762 19.295C47.8476 19.995 47.6286 20.5855 47.0762 21.0855C46.0476 20.395 45.7047 19.8427 45.6524 19.3331C45.5809 18.6712 45.9619 18.1522 46.5666 18.0855M48.4619 24.0284C48.5333 24.7236 48.1286 25.2903 47.5 25.357C46.7238 25.4379 46.1666 24.8141 46.0571 23.757C45.9762 22.9665 46.1524 22.4046 46.6286 21.957C47.9714 22.8284 48.3857 23.295 48.4619 24.0284ZM46.3571 21.7331C45.5381 22.4998 45.1857 23.2331 45.2666 24.0093C45.3809 25.0903 46.3095 25.8236 47.4238 25.7046C48.5286 25.5903 49.2905 24.6331 49.1762 23.5189C49.0857 22.6522 48.5905 22.0331 47.3809 21.2855C48.3 20.5046 48.6286 19.9236 48.5571 19.2522C48.4809 18.5189 47.7952 17.6474 46.6047 17.7712C45.4905 17.8855 44.8 18.6998 44.9143 19.757C44.9905 20.4903 45.4143 21.0712 46.3619 21.7331M24.0714 49.5189C24.0714 49.5189 27.0476 45.176 25.8809 42.395C25.8809 42.395 23.219 45.4379 24.0714 49.5189ZM26.119 58.6855C27.4571 53.8331 25.219 51.4808 25.219 51.4808C23.7857 55.2093 26.119 58.6855 26.119 58.6855ZM31.1238 66.9427C30.419 61.3046 27.6857 59.8331 27.6857 59.8331C27.9714 64.7617 31.1238 66.9427 31.1238 66.9427ZM21.0333 57.6189C21.2809 57.7903 22.0666 58.8427 22.9809 60.3903C23.9 61.9379 24.8714 62.895 24.8714 62.895C27.5476 65.857 29.419 66.0665 29.419 66.0665C26.3238 63.1617 26.8762 61.3284 24.5857 59.2427C22.2905 57.1617 21.0333 57.6189 21.0333 57.6189ZM22.4286 49.2665C21.6047 47.8522 20.1952 47.3569 20.1952 47.3569C20.3857 47.8331 21.0762 51.0855 21.8571 53.4331C22.6381 55.7855 24.8571 57.7712 24.8571 57.7712C24.8571 57.7712 24.1905 55.8236 23.9 54.4093C23.6143 52.995 23.2524 50.6855 22.4286 49.2712M67.0047 67.4236C67.0047 67.4236 64.1476 67.4712 61.3714 72.4331C61.3714 72.4331 65.119 71.6379 67.0047 67.4236ZM69.1952 31.476C69.1952 31.476 68.9666 28.9046 66.7238 27.0427C64.4809 25.1808 62.0333 23.1427 61.5524 22.6331C61.5524 22.6331 60.9667 24.0855 63.1047 26.2522C65.2428 28.4189 67.7666 29.6665 69.1952 31.476ZM63.3095 29.2093C65.5 32.5236 69.7809 33.2331 69.7809 33.2331C67.3857 29.3093 63.3095 29.2093 63.3095 29.2093ZM56.4762 23.2855C56.5809 22.9046 56.6571 22.6808 56.7905 22.376C57.1762 22.1665 57.5238 22.1093 57.8476 22.2046C58.5428 22.3998 58.7238 23.3998 58.3143 24.8617C58.0333 25.876 57.5428 26.3617 56.9571 26.195C56.1952 25.9808 56.019 24.9236 56.4762 23.2903M56.7238 26.5189C58.0428 26.8855 59.1238 25.6284 59.4857 24.3284C59.8095 23.1617 59.3381 22.0903 58.3762 21.8236C57.8952 21.6903 57.419 21.757 56.9714 22.0189L56.9571 21.9903C57.8333 20.2379 59.2714 19.2522 60.6047 19.5331L60.6619 19.3379C58.8333 18.6998 56.3047 20.0093 55.5143 22.8331C54.9952 24.6855 55.4857 26.1712 56.7285 26.5189M67.9238 22.3855C67.9238 22.3855 66.7286 25.0855 69.6286 29.4712C69.6286 29.4712 70.319 25.2427 67.9238 22.3855ZM67.1095 26.257C67.1095 26.257 66.1666 22.2331 62.0143 20.1665C62.0143 20.1665 62.5762 23.4522 67.1095 26.257Z" fill="#997F54"></path><path d="M30.7095 11.3384L31.1143 12.0717L28.9 13.2955L29.2476 13.9289L31.2143 12.8431L31.6143 13.5717L29.6476 14.6574L30.1333 15.5336L29.2714 16.0098L27.6333 13.0431L30.7095 11.3431V11.3384Z" fill="#2D2A26"></path><path d="M36.3001 12.6237L35.762 12.1523L33.8286 12.938L33.7715 13.6523L32.7905 14.0523L33.1334 10.2571L34.3905 9.74756L37.281 12.2285L36.3048 12.6237H36.3001ZM33.8953 12.1142L35.1334 11.6095L34.0143 10.6333L33.8953 12.1142Z" fill="#2D2A26"></path><path d="M41.3476 10.1764L40.7619 7.81927L41.7095 7.58594L42.5238 10.8764L41.1286 11.224L38.6048 9.34784L39.1905 11.705L38.2381 11.9431L37.4238 8.6526L38.8238 8.30499L41.3476 10.1812V10.1764Z" fill="#2D2A26"></path><path d="M46.1191 6.96208L50.2001 6.79541L50.2334 7.62874L48.6858 7.69065L48.7906 10.243L47.8096 10.2811L47.7049 7.72874L46.1525 7.79065L46.1191 6.95731V6.96208Z" fill="#2D2A26"></path><path d="M51.3903 8.49526C51.4855 7.37622 52.3141 6.78098 53.7379 6.90479C55.1569 7.0286 55.876 7.75717 55.7807 8.87145C55.6855 9.9905 54.8522 10.5953 53.4331 10.4715C52.0093 10.3476 51.295 9.61907 51.3903 8.49526ZM54.7569 8.78574C54.8093 8.20003 54.5045 7.80955 53.6664 7.73812C52.8331 7.66669 52.4665 7.9905 52.4188 8.58574C52.3665 9.18098 52.676 9.57145 53.5045 9.64288C54.3379 9.71431 54.7093 9.38098 54.7617 8.7905L54.7569 8.78574Z" fill="#2D2A26"></path><path d="M61.6239 8.36681L59.6334 9.38109L60.881 11.6763L59.6763 11.4049L58.8096 9.8049L57.862 10.2859L57.7096 10.9573L56.7524 10.7382L57.5001 7.42871L58.462 7.643L58.1286 9.12871L60.1953 8.03823L61.6334 8.36204L61.6239 8.36681Z" fill="#2D2A26"></path><path d="M66.3286 9.99541L66.0667 10.7192L63.6858 9.85732L63.5 10.3668L65.7905 11.1954L65.5286 11.9192L63.2381 11.0906L63.0524 11.6002L65.4334 12.4573L65.1715 13.1811L61.8667 11.9859L63.0191 8.79541L66.3238 9.99065L66.3286 9.99541Z" fill="#2D2A26"></path><path d="M69.7621 14.3526L70.8764 12.1907L71.7478 12.6383L70.1907 15.6526L68.9097 14.9907L68.2478 11.9097L67.1335 14.0716L66.2573 13.6193L67.8145 10.605L69.1002 11.2669L69.7621 14.3478V14.3526Z" fill="#2D2A26"></path><path d="M27.395 85.4763C27.2474 85.7192 27.395 86.0239 28.1569 86.4858C28.8569 86.9049 29.095 86.9001 29.2045 86.7192C29.3331 86.5097 29.2236 86.3906 28.395 85.8144C27.2665 85.024 26.8903 84.4763 27.276 83.8335C27.6426 83.2287 28.4617 83.3478 29.4665 83.9525C30.5855 84.6239 31.0236 85.3525 30.6617 86.0144L29.7807 85.4859C29.9331 85.2287 29.7141 84.962 29.0617 84.5716C28.4426 84.2001 28.2426 84.2192 28.1474 84.3763C28.0379 84.5573 28.1474 84.6954 28.895 85.2335C29.9141 85.9573 30.5617 86.4478 30.1045 87.2097C29.6569 87.9525 28.8379 87.7573 27.8045 87.1335C26.6284 86.4239 26.0903 85.7382 26.5093 84.9478L27.3903 85.4811L27.395 85.4763Z" fill="#2D2A26"></path><path d="M31.5236 87.1909C31.9712 86.1576 32.9426 85.8623 34.2569 86.429C35.5664 86.9957 36.014 87.9147 35.5712 88.9433C35.1236 89.9766 34.1426 90.2814 32.8331 89.7147C31.5188 89.148 31.0759 88.229 31.5236 87.1909ZM34.6283 88.5385C34.8616 87.9957 34.695 87.5338 33.9236 87.1957C33.1569 86.8623 32.7045 87.0576 32.4712 87.6004C32.2331 88.1481 32.4045 88.6147 33.1664 88.948C33.9331 89.2814 34.395 89.0814 34.6283 88.5338V88.5385Z" fill="#2D2A26"></path><path d="M39.295 88.2146C40.495 88.5527 41.0331 89.2574 40.895 90.1241L39.8902 89.8431C39.9093 89.5241 39.6759 89.186 39.0712 89.0193C38.3712 88.8241 37.9378 89.0717 37.7759 89.6431C37.614 90.2193 37.8616 90.6622 38.5569 90.8574C39.1616 91.0241 39.5378 90.8574 39.6854 90.5669L40.6902 90.8479C40.3569 91.6669 39.5331 91.9955 38.3283 91.6622C37.0188 91.2955 36.4712 90.486 36.7807 89.3669C37.095 88.2527 37.9807 87.8479 39.2902 88.2146H39.295Z" fill="#2D2A26"></path><path d="M43.3948 89.2289L42.7948 92.5623L41.8281 92.3861L42.4281 89.0527L43.3948 89.2289Z" fill="#2D2A26"></path><path d="M44.4189 91.1481C44.5094 90.029 45.3332 89.4338 46.757 89.5481C48.176 89.6624 48.8999 90.3909 48.8046 91.5052C48.7141 92.6243 47.8856 93.229 46.4618 93.1147C45.0379 93.0005 44.3189 92.2719 44.4141 91.1481H44.4189ZM47.7856 91.4243C47.8332 90.8386 47.5284 90.4528 46.6903 90.3814C45.857 90.3148 45.4951 90.6433 45.4427 91.2338C45.3951 91.829 45.7046 92.2148 46.5332 92.2862C47.3665 92.3528 47.7379 92.0195 47.7856 91.4243Z" fill="#2D2A26"></path><path d="M51.1188 92.048C51.1331 92.3337 51.4235 92.5051 52.314 92.4575C53.1283 92.4146 53.3235 92.2766 53.3093 92.0623C53.295 91.8146 53.1426 91.7813 52.1331 91.767C50.7569 91.7432 50.1331 91.5004 50.095 90.748C50.0569 90.0432 50.8045 89.6813 51.9759 89.6242C53.2807 89.5575 54.0521 89.9099 54.1188 90.6623L53.095 90.7146C53.0807 90.4146 52.7474 90.3194 51.9854 90.3575C51.2664 90.3956 51.1093 90.5242 51.1188 90.7051C51.1283 90.9146 51.295 90.9718 52.2188 91.0004C53.4664 91.0289 54.2807 91.0718 54.3283 91.9623C54.3712 92.8289 53.5854 93.1242 52.3807 93.1861C51.0093 93.2575 50.1759 92.9861 50.0854 92.0956L51.114 92.0432L51.1188 92.048Z" fill="#2D2A26"></path><path d="M55.7426 92.0434L56.6806 91.9053L56.7854 92.6338L55.8473 92.7719L55.7378 92.0434H55.7426Z" fill="#2D2A26"></path><path d="M59.4808 88.5387C60.6951 88.2434 61.5094 88.5958 61.8141 89.4196L60.7999 89.6673C60.6618 89.3768 60.2903 89.2006 59.6808 89.3482C58.9761 89.5196 58.7189 89.9482 58.857 90.5292C58.9999 91.1101 59.4332 91.3768 60.1332 91.2054C60.7427 91.0577 60.9903 90.7244 60.9761 90.3958L61.9903 90.1482C62.0999 91.0244 61.5427 91.7196 60.3284 92.0149C59.0046 92.3387 58.1284 91.9006 57.8522 90.772C57.576 89.6482 58.1522 88.8625 59.4761 88.5387H59.4808Z" fill="#2D2A26"></path><path d="M63.1522 89.3956C62.7379 88.348 63.2189 87.4527 64.5474 86.9242C65.8712 86.4003 66.8427 86.7337 67.2522 87.7765C67.6665 88.8242 67.1855 89.7337 65.8617 90.2575C64.5331 90.7813 63.5665 90.448 63.1522 89.3956ZM66.2998 88.1527C66.0855 87.6051 65.6379 87.3908 64.857 87.7003C64.0808 88.0051 63.8951 88.4622 64.1141 89.0146C64.3331 89.5718 64.7855 89.7813 65.557 89.4765C66.3331 89.1718 66.5189 88.7051 66.2998 88.1527Z" fill="#2D2A26"></path><path d="M69.3332 88.6956L67.6284 85.7623L68.9522 84.9908L71.1046 86.3432L70.9903 83.8051L72.3141 83.0337L74.0189 85.967L73.1713 86.4575L71.9379 84.3337L72.0713 87.1004L71.2856 87.5575L68.9475 86.0765L70.1856 88.2004L69.3332 88.6956Z" fill="#2D2A26"></path><path d="M23.019 81.8382C13.9952 74.1811 8.2666 62.7573 8.2666 50.0001C8.2666 37.243 14.2999 25.2144 23.738 17.562" stroke="#997F54" stroke-miterlimit="10"></path><path d="M76.2666 17.5669C85.7047 25.2193 91.7333 36.905 91.7333 50.0002C91.7333 63.0955 86.0047 74.1859 76.9809 81.8431" stroke="#997F54" stroke-miterlimit="10"></path></g><defs><clipPath id="clip0_101_22063"><rect width="100" height="100" fill="white"></rect></clipPath></defs></svg>