<svg xmlns="http://www.w3.org/2000/svg" width="100" height="100" viewBox="0 0 100 100" fill="none"><g clip-path="url(#clip0_101_22060)"><path d="M50 100C77.6142 100 100 77.6142 100 50C100 22.3858 77.6142 0 50 0C22.3858 0 0 22.3858 0 50C0 77.6142 22.3858 100 50 100Z" fill="black"></path><path d="M50 2.53333C76.1714 2.53333 97.4667 23.8286 97.4667 50C97.4667 76.1714 76.1714 97.4667 50 97.4667C23.8286 97.4667 2.53333 76.1714 2.53333 50C2.53333 23.8286 23.8286 2.53333 50 2.53333ZM50 0C22.3857 0 0 22.3857 0 50C0 77.6143 22.3857 100 50 100C77.6143 100 100 77.6143 100 50C100 22.3857 77.6143 0 50 0Z" fill="white"></path><path d="M74.3953 45.0619V32.8333L73.6477 33.0476C73.5811 33.0666 66.8858 34.9523 64.062 32.0047C60.8287 28.6285 63.4525 22.2047 63.4763 22.1381L63.7049 21.5904L63.1525 21.3666C63.0525 21.3285 60.6953 20.3809 57.1572 19.7809C53.6334 19.1809 50.2477 19.1714 50.0096 19.1714H50.0001C49.8525 19.1714 46.4192 19.1714 42.843 19.7809C39.3049 20.3809 36.9477 21.3238 36.8477 21.3666L36.2953 21.5904L36.5239 22.1381C36.5525 22.2047 39.1811 28.619 35.9382 32.0047C33.1192 34.9476 26.4192 33.0666 26.3525 33.0476L25.6049 32.8333V45.0523C25.5953 45.5619 25.4906 57.6 31.8096 66.4523C40.0858 78.0428 49.4525 80.6761 49.8477 80.7857L50.0001 80.8285L50.1525 80.7857C50.5477 80.6809 59.9144 78.0428 68.1906 66.4523C74.5096 57.6047 74.4001 45.5619 74.3953 45.0619Z" fill="black"></path><path d="M73.2192 34.3665C71.2478 34.8094 65.9287 35.6618 63.2097 32.8189C61.6335 31.176 61.0002 28.7141 61.3716 25.7046C61.5573 24.2237 61.9335 22.957 62.1764 22.2618C61.3002 21.957 59.4097 21.357 56.9621 20.9427C53.4811 20.3522 50.0192 20.3475 50.0049 20.3522C49.9335 20.3522 46.5049 20.357 43.0478 20.9427C40.5954 21.357 38.7097 21.957 37.8335 22.2618C38.0764 22.957 38.4573 24.2189 38.6383 25.7046C39.0097 28.7141 38.3764 31.176 36.8002 32.8189C34.0764 35.6618 28.7621 34.8094 26.7906 34.3665V45.0618C26.7906 45.1903 26.6859 57.2379 32.7764 65.7713C36.9811 71.657 41.5002 75.1237 44.5525 76.9951C47.3573 78.7141 49.443 79.4284 50.0097 79.6046C50.5811 79.4237 52.6954 78.6998 55.5145 76.9665C58.5525 75.0951 63.0573 71.6332 67.2478 65.7665C73.343 57.2284 73.2335 45.1903 73.2335 45.0665V34.3618L73.2192 34.3665ZM28.3049 45.0951V36.1951C31.0859 36.5713 35.3097 36.576 37.8906 33.876C40.9525 30.676 40.4002 25.9856 39.7097 23.2665C40.6335 22.9998 41.8621 22.6951 43.2954 22.4522C46.6287 21.8856 49.9525 21.8808 50.0002 21.8808C50.0335 21.8808 53.3621 21.8808 56.7002 22.4522C58.1287 22.6951 59.3573 22.9998 60.2859 23.2665C59.8621 24.9332 59.4954 27.3332 59.9716 29.6808L30.8335 58.8189C28.2573 51.9951 28.3049 45.1808 28.3049 45.0951ZM65.9906 64.8856C59.4383 74.0617 52.043 77.2522 49.9906 77.9951C48.3621 77.4141 43.3859 75.3046 38.1002 69.8237L71.6906 36.2332V45.0951C71.6906 45.2094 71.7764 56.7808 65.9906 64.8856Z" fill="white"></path><path d="M59.6526 49.0283V48.9521C59.6526 48.9521 59.6431 48.9569 59.6431 48.9617L59.6526 49.0283Z" fill="white"></path><path d="M39.8857 56.7667C39.8857 56.7667 39.9 56.762 39.9143 56.7524C39.9096 56.7524 39.9 56.7524 39.8953 56.7572C39.8905 56.762 39.8857 56.7667 39.8857 56.7667Z" fill="white"></path><path d="M47.6332 72.6572C47.0189 72.181 46.676 71.562 46.676 70.9143C46.676 70.5715 46.7713 70.2334 46.9522 69.9239L46.4665 68.7715C45.8999 69.3858 45.5903 70.1286 45.5903 70.9143C45.5903 71.9048 46.0808 72.8286 46.9665 73.5143C47.4999 73.9239 48.1427 74.2191 48.838 74.381L48.2713 73.0429C48.038 72.9334 47.8237 72.8048 47.6284 72.6524L47.6332 72.6572Z" fill="white"></path><path d="M52.8286 66.5477L52.5571 67.1858C52.9143 67.281 53.2619 67.4 53.5857 67.5429L54.0333 66.4858C54.2047 66.1334 54.4428 65.8762 54.6428 65.8096H52.6857C52.8857 65.9762 52.9524 66.2667 52.8428 66.5239C52.8428 66.5286 52.8381 66.5381 52.8333 66.5477H52.8286Z" fill="white"></path><path d="M51.6238 72.1714H50.4477L50 73.2237L47.1715 66.538C47.1715 66.538 47.1715 66.5285 47.1667 66.5237C47.0572 66.2618 47.1286 65.9714 47.3238 65.8047H45.3667C45.5667 65.8714 45.8048 66.1285 45.9762 66.4809L50.0048 76.0047L51.6286 72.1666L51.6238 72.1714Z" fill="white"></path><path d="M53.4144 67.9379C53.0906 67.7998 52.7477 67.6808 52.3858 67.5855C52.2429 67.5474 52.1001 67.5141 51.9572 67.4855C51.3715 67.3665 50.7525 67.2998 50.1191 67.2998H50.0668C49.381 67.3046 48.7191 67.4331 48.1191 67.6665L48.5429 68.6665C49.0239 68.4808 49.562 68.3855 50.1191 68.3855H50.1477C50.6191 68.3855 51.081 68.4284 51.5239 68.5046C51.6715 68.5284 51.8144 68.5617 51.9572 68.595C52.3239 68.6808 52.6715 68.795 52.9906 68.9331C53.0477 68.9569 53.1715 69.0141 53.1715 69.0141C53.243 69.0522 53.3096 69.0998 53.3715 69.1617C53.5001 69.2903 53.5763 69.4522 53.5953 69.6188C53.5953 69.6331 53.5953 69.6427 53.5953 69.6427L53.781 69.3712L54.4001 68.4808C54.2144 68.3522 54.0144 68.2331 53.8049 68.1236C53.6763 68.0569 53.5477 67.995 53.4096 67.9379H53.4144Z" fill="white"></path><path d="M52.3334 69.1525C52.1572 69.0954 51.9762 69.0477 51.7858 69.0049L51.2715 70.2192H52.4477L52.8191 69.3382C52.662 69.2715 52.5001 69.2096 52.3286 69.1525H52.3334Z" fill="white"></path><path d="M49.9095 71.7381H53.281V72.7619C52.7953 73.0095 52.2286 73.1952 51.6143 73.3095L51.1191 74.4762C52.3572 74.3428 53.5 73.9619 54.3524 73.3857L54.3619 73.3762V70.6523H49.4429L49.9048 71.7381H49.9095Z" fill="white"></path><path d="M38.986 45.7142C38.6289 45.9618 38.2194 46.1713 37.7717 46.3475C37.6003 46.057 37.3956 45.7189 37.2051 45.3999C37.3813 45.338 37.7384 45.1808 37.767 45.1665C37.767 45.1665 37.7717 45.1665 37.7765 45.1618C37.8432 45.1237 37.9003 45.0808 37.9527 45.0284C38.0813 44.8999 38.1527 44.738 38.1765 44.5761C38.1765 44.5618 38.1765 44.5522 38.1765 44.5522L38.9813 45.7142H38.986Z" fill="white"></path><path d="M34.7144 45.8048H34.7001C34.4048 45.8048 34.1144 45.7762 33.8334 45.7238C33.6858 45.6953 33.5382 45.6619 33.4001 45.6191C33.0001 45.5 32.6334 45.3238 32.3144 45.0953C32.281 45.0714 32.2477 45.0476 32.2144 45.0191C32.0906 44.9238 31.981 44.8238 31.881 44.7191C31.4763 44.2953 31.2572 43.7953 31.2572 43.2762C31.2572 42.7572 31.4763 42.2572 31.881 41.8333V40.4429C31.7667 40.5143 31.6572 40.5905 31.5525 40.6714C30.662 41.3572 30.1763 42.281 30.1763 43.2714C30.1763 44.2619 30.6667 45.1857 31.5525 45.8714C31.6572 45.9524 31.7667 46.0286 31.881 46.1C32.0191 46.1905 32.1667 46.2714 32.3144 46.3429C32.6525 46.5095 33.0191 46.6429 33.4001 46.7286C33.5429 46.7619 33.6858 46.7905 33.8334 46.8143C34.1096 46.8572 34.3953 46.881 34.681 46.881H34.6953C35.062 46.881 35.4239 46.8619 35.7763 46.8191L35.1572 45.7857C35.0096 45.7953 34.8572 45.8 34.7096 45.8L34.7144 45.8048Z" fill="white"></path><path d="M32.3145 46.833C32.3145 46.833 32.3145 47.2806 32.3145 47.2902C32.3145 47.7616 32.0716 48.1711 31.7192 48.3616H33.9716C33.6335 48.1663 33.4002 47.7663 33.4002 47.3044C33.4002 47.2949 33.4002 47.2854 33.4002 47.2759V47.1902C33.024 47.1092 32.6573 46.9902 32.3145 46.8378V46.833Z" fill="white"></path><path d="M37.8479 47.3236C37.8479 47.3236 36.2955 44.7236 36.2241 44.6046C36.1384 44.4475 35.8955 44.0522 35.5479 43.8141C36.4051 43.457 37.0575 42.6332 37.2289 41.6284C36.9051 41.4998 36.5479 41.3998 36.1765 41.3284C36.0717 42.2236 35.4003 42.9189 34.5908 42.9189H33.4051V39.2522H34.2241C34.3622 39.2427 34.5003 39.2332 34.6384 39.2332C34.6432 39.2332 34.6479 39.2332 34.6527 39.2332H34.7051C35.4384 39.2332 36.1575 39.3141 36.8336 39.4713C36.3527 38.6856 35.5289 38.1665 34.5955 38.1665H31.7241C32.0765 38.3522 32.3241 38.7617 32.3241 39.2379V39.2475V44.5379C32.3765 44.5856 32.4289 44.6284 32.486 44.676C32.7527 44.8808 33.067 45.0475 33.4098 45.1617V44.0046H33.9384C33.9384 44.0046 34.2479 44.0046 34.467 44.1094C34.7336 44.2379 34.9146 44.5141 34.9479 44.5665L37.2098 48.357H39.0479C38.6051 48.2046 38.167 47.8427 37.8575 47.3236H37.8479Z" fill="white"></path><path d="M38.9858 40.8426L38.181 42.0045C38.1667 41.833 38.0905 41.6664 37.9572 41.533C37.9 41.4759 37.8334 41.4283 37.7619 41.3902C37.7572 41.3902 37.7143 41.3664 37.6953 41.3569C37.5572 41.2902 37.4191 41.2331 37.2715 41.1807C36.9286 41.0569 36.5619 40.9569 36.1762 40.8854C36.0286 40.8569 35.881 40.833 35.7286 40.814C35.4 40.7711 35.0667 40.7521 34.7239 40.7473H34.6953C34.4 40.7473 34.1096 40.7759 33.8286 40.8283V39.7283C33.9619 39.7092 34.0905 39.6902 34.2286 39.6807C34.3667 39.6711 34.5048 39.6616 34.6429 39.6616H34.6953C35.0143 39.6616 35.3334 39.6807 35.6477 39.7092C36.1429 39.7616 36.6191 39.8521 37.0715 39.9759C37.2429 40.0235 37.4143 40.0759 37.581 40.1378C38.1 40.3235 38.5762 40.5616 38.981 40.8426H38.9858Z" fill="white"></path><path d="M57.2526 57.9238C57.5764 57.3999 57.8669 56.8237 58.1193 56.2095C60.1097 54.9237 61.9002 52.6476 62.8097 49.7476C63.8002 46.5904 63.4812 43.1999 62.6764 40.8857H60.0097C60.3288 40.338 60.5812 39.7761 60.7526 39.2095C60.805 39.0428 60.8478 38.8761 60.8907 38.7095C61.2812 37.038 61.1145 35.419 60.1097 34.1666C59.1669 32.9952 57.6764 32.3999 56.1431 32.2237C56.2383 31.5857 56.0907 31.0476 55.8431 30.4857C55.5383 29.7857 54.9812 29.2333 54.2335 28.8428C54.205 28.8285 54.1716 28.8095 54.1431 28.7952C53.3526 28.3999 52.3621 28.1761 51.2478 28.1285V24.4761C51.2478 24.4761 51.2478 24.4714 51.2478 24.4618C51.2288 24.0666 50.9002 23.7476 50.5002 23.7476C50.1002 23.7476 49.7716 24.0618 49.7526 24.4618C49.7526 24.4761 49.7526 24.538 49.7526 24.5618C49.3145 24.6333 48.8716 24.7476 48.4288 24.919C47.8288 25.1428 47.2859 25.4428 46.8193 25.7857V26.3666C46.6288 26.4714 46.4478 26.5857 46.2716 26.7095C45.8954 26.9618 44.4002 28.0237 43.8097 29.5428C44.0764 29.4095 44.4859 29.1714 45.4669 28.8285C46.7907 28.3666 48.1716 28.1714 48.7574 28.2904C47.5193 28.4904 46.205 28.8714 44.8954 29.4428C44.8954 29.4428 43.7574 29.9857 43.6954 30.019C43.7574 30.0571 43.8145 30.0952 43.8669 30.1428C43.9431 30.1999 44.0145 30.2618 44.0859 30.3285C44.705 30.9285 44.9574 31.7809 44.8716 32.6857C44.8145 33.3047 44.5954 33.9428 44.2288 34.538C44.1002 34.7476 43.9526 34.9476 43.7907 35.1428H41.7907C42.1193 35.4238 42.4002 35.7618 42.6335 36.1476C42.6478 36.1666 42.6574 36.1904 42.6716 36.2095C42.905 36.6142 43.0859 37.0714 43.1954 37.5618C43.3002 38.0333 43.3383 38.5285 43.3097 39.0428H38.8907C39.0288 39.1952 39.1621 39.3618 39.2859 39.5571C39.6621 40.1237 39.9764 40.8666 40.2145 41.7428C40.3383 42.1904 40.4383 42.6666 40.5193 43.1761C40.7335 44.5142 40.8002 46.0428 40.6764 47.6618C40.424 51.0476 39.4193 53.9523 38.1431 55.438C39.3383 54.7476 40.6907 54.0761 42.1669 53.4666C41.5097 54.8476 40.7288 55.9904 39.924 56.7761C41.0383 56.1952 42.2621 55.6333 43.5621 55.1237C43.6907 57.3142 44.6764 59.1857 46.0764 60.1428C45.9383 60.1095 45.8002 60.0761 45.6716 60.038C45.5288 59.9952 45.3954 59.9476 45.2669 59.8904C45.1621 59.8476 45.0574 59.7999 44.9621 59.7476C44.5574 60.4857 43.7764 60.9857 42.8764 60.9857C42.524 60.9857 42.1907 60.9095 41.8907 60.7714C41.7193 60.6904 41.5526 60.5904 41.405 60.4761C41.2859 60.6285 41.1526 60.7714 41.0002 60.8999C40.9812 60.9142 40.9669 60.9285 40.9478 60.9428C40.8383 61.0333 40.7193 61.1142 40.6002 61.1904C40.4478 61.2809 40.2907 61.3571 40.1335 61.419C39.6002 61.6237 39.024 61.6618 38.4812 61.5428C38.8716 61.7999 39.324 61.9476 39.8097 61.9476C40.0193 61.9476 40.2288 61.919 40.424 61.8666C40.5145 61.8428 40.605 61.8142 40.6907 61.7761C40.9335 61.6809 41.1621 61.5428 41.3621 61.3714C41.8288 61.7666 42.424 62.0047 43.0764 62.0047C43.8812 62.0047 44.605 61.6428 45.105 61.0618C44.7193 62.1476 43.7193 62.919 42.5431 62.919C41.9431 62.919 41.3859 62.7142 40.9335 62.3714C41.5002 63.4142 42.7478 64.138 44.1859 64.138C44.9669 64.138 45.6859 63.9285 46.2716 63.5666C46.7859 63.9761 47.4859 64.2285 48.2574 64.2285C49.1478 64.2285 49.9478 63.8904 50.4716 63.3666C50.9574 63.7904 51.5764 64.0428 52.2478 64.0428C53.1669 64.0428 53.9859 63.5714 54.505 62.838C55.2193 63.3476 56.1288 63.6523 57.124 63.6523C58.7478 63.6523 60.1478 62.838 60.824 61.6571C60.4621 61.7857 60.0669 61.8523 59.6526 61.8523C58.4859 61.8523 57.4716 61.2999 56.9526 60.4904C56.3621 60.8142 55.7145 60.9618 55.0954 60.938C54.8526 60.9285 54.6145 60.8857 54.3859 60.8237C55.4193 60.2857 56.4335 59.2714 57.2574 57.9333L57.2526 57.9238Z" fill="black"></path><path d="M45.9857 36.867C46.2476 36.4622 46.4714 36.048 46.6571 35.6289H42.7476C43.4428 36.5527 43.8714 37.7908 43.8714 39.1622V39.2099C44.6428 38.6194 45.3761 37.8241 45.9904 36.867H45.9857Z" fill="white"></path><path d="M45.3856 28.4527C45.5522 28.3908 45.7141 28.3337 45.8808 28.2813C46.976 27.9289 48.057 27.7575 49.0618 27.7575C48.6189 27.548 48.1141 27.4194 47.576 27.3765C48.3665 27.1051 49.1665 27.0194 49.8951 27.1003C49.6427 26.9527 49.4951 26.6718 49.457 26.3384C49.4237 26.048 49.476 25.7194 49.6284 25.4051C49.676 25.3003 49.7379 25.2003 49.7999 25.1099C49.2046 25.1908 48.5951 25.3765 47.9999 25.6718C47.7618 25.7908 47.5332 25.9241 47.3237 26.067V26.7337C47.3237 26.7337 47.276 26.7527 47.2522 26.7622C46.9665 26.8765 46.6856 27.0146 46.4094 27.1765C46.2189 27.2861 46.0379 27.4051 45.8713 27.5337C45.857 27.5432 45.8475 27.548 45.8379 27.5575C45.3522 27.9194 44.9379 28.3337 44.6094 28.7765C44.7237 28.7241 44.8427 28.6718 44.9618 28.6241C45.1046 28.5622 45.2475 28.5051 45.3903 28.4527H45.3856Z" fill="white"></path><path d="M50.7523 24.5097C50.7523 24.3716 50.638 24.2573 50.4999 24.2573C50.3618 24.2573 50.2476 24.3668 50.2476 24.5097V28.1049C50.419 28.1288 50.5857 28.1573 50.7476 28.1907V24.5049L50.7523 24.5097Z" fill="white"></path><path d="M62.8477 44.8764C62.7953 43.724 62.6143 42.6193 62.3191 41.5717C62.3048 41.524 62.2905 41.4764 62.2762 41.4336H59.081C59.9 40.1669 60.4096 38.9002 60.5429 37.7383C60.6572 36.7479 60.5048 35.8288 60.0477 35.0336C59.2524 33.6574 57.6667 32.8859 55.6381 32.7002C55.7667 32.0526 55.7239 31.424 55.481 30.8479C54.4286 28.3336 49.9905 27.7955 45.5715 29.6479C45.181 29.8098 44.8048 29.9859 44.4477 30.1764C44.6286 30.3336 44.7905 30.5098 44.9286 30.7098C45.3429 31.3098 45.4953 32.0288 45.4191 32.7717C45.4048 32.9145 45.381 33.0574 45.3477 33.2002C45.2334 33.7336 45.0048 34.2669 44.6715 34.7717C45.0905 34.424 45.5477 34.086 46.0381 33.7669C46.1524 33.6907 46.2667 33.6193 46.381 33.5479C46.6239 33.4002 46.8715 33.2526 47.1239 33.1145C50.5905 31.224 53.9381 31.0288 54.7001 32.6526C53.6667 32.6526 52.5477 32.7764 51.3762 33.0431C50.1191 33.324 48.8096 33.7621 47.481 34.3479C47.3762 34.4098 47.2715 34.4764 47.1667 34.5479C47.7191 35.4288 48.0429 36.4669 48.0429 37.5812C48.0429 38.1907 47.9477 38.7764 47.7715 39.3288C47.6524 39.6955 47.5001 40.0431 47.3143 40.3717C47.0905 40.7669 46.5143 41.4669 46.5143 41.4669C46.5143 41.4669 46.6953 40.4526 46.7239 39.5621H39.9429C40.0953 39.8431 40.262 40.1764 40.3905 40.4859C40.7381 41.3098 41.0096 42.2383 41.181 43.2383C41.4429 44.7621 41.4858 46.4479 41.262 48.205C41.1667 48.9526 41.0286 49.6764 40.8524 50.3717C40.481 51.8193 39.9477 53.1383 39.2905 54.2574C40.2572 53.6812 41.3429 53.124 42.5286 52.605C42.5429 52.5764 42.5524 52.5431 42.5667 52.5145C42.5667 52.505 42.5715 52.5002 42.5762 52.4907C42.5762 52.4907 42.5762 52.486 42.5762 52.4812C42.7334 52.0431 43.2286 50.3717 43.2286 47.005C43.2286 43.1288 42.4953 41.4574 42.4477 41.3574C42.4477 41.3574 42.4477 41.3526 42.4477 41.3479C43 41.7955 43.4572 42.4002 43.8096 43.1145C43.8953 43.2907 43.9762 43.4764 44.0477 43.6621C44.7334 45.4431 44.8334 47.7812 44.2048 50.1955C44.1858 50.2812 44.162 50.3621 44.1381 50.4479C44.1096 50.5574 44.0762 50.6669 44.0429 50.7764C43.9191 51.1764 43.781 51.5669 43.6239 51.9431C43.5905 52.0288 43.5572 52.1098 43.5191 52.1907C42.9381 53.5336 42.1667 54.6907 41.3001 55.5907C42.4429 55.0193 43.7048 54.4812 45.0477 54.0002C45.162 53.9574 45.281 53.9193 45.3953 53.8764C49.0381 52.624 52.4953 52.0859 54.9667 52.2574V51.8669L59.8096 48.2145H60.4858V49.0336L57.1381 52.4669L57.1048 52.6574C58.1905 52.9002 58.9762 53.5098 59.0858 54.3098C59.1143 54.5288 59.0953 54.7431 59.0239 54.9526C61.4953 52.5955 63.0096 48.924 62.8286 44.8621L62.8477 44.8764ZM47.3762 41.4336C47.7143 41.2574 48.0667 41.0859 48.4239 40.9288C53.0143 38.8812 57.4524 38.9859 58.3429 41.1717C58.3762 41.2574 58.4048 41.3479 58.4286 41.4383H47.3762V41.4336Z" fill="white"></path><path d="M52.4431 62.9143C51.886 62.9143 51.3574 62.7905 50.8955 62.5619C51.2717 63.1143 51.8003 63.4619 52.3955 63.4809C52.9479 63.4952 53.4622 63.2286 53.8622 62.7619C53.9241 62.6905 53.9812 62.619 54.0336 62.5381C53.9146 62.5952 53.7955 62.6476 53.6717 62.6952C53.2907 62.8333 52.8765 62.9143 52.4431 62.9143Z" fill="white"></path><path d="M57.1953 62.9474C56.7619 62.9045 56.3667 62.7474 56.0238 62.5093C55.8143 62.614 55.6 62.695 55.3857 62.7521C55.7572 63.0378 56.2 63.2188 56.681 63.2664C57.3762 63.3331 58.0429 63.1093 58.5715 62.6807C58.1524 62.895 57.681 62.995 57.1953 62.9474Z" fill="white"></path><path d="M56.0097 61.6331C56.1859 61.8378 56.4002 62.0093 56.643 62.1331C57.2526 62.4569 58.0287 62.5093 58.7716 62.2617C58.143 62.2712 57.5526 62.0998 57.0954 61.7664C56.8859 61.614 56.7049 61.4283 56.5573 61.214C56.6859 61.095 56.8145 60.9712 56.9335 60.8331C56.7811 60.9236 56.6287 61.0045 56.4716 61.0807C56.2478 61.1807 56.0145 61.2617 55.7811 61.3188C55.624 61.3569 55.4668 61.3855 55.3097 61.4045C55.243 61.414 55.1764 61.4188 55.1049 61.4236C54.9145 61.4378 54.7287 61.4331 54.543 61.414C54.4954 61.414 54.4478 61.4045 54.4049 61.3997C53.7906 61.3093 53.224 61.0474 52.7811 60.5997C52.5954 60.414 52.443 60.2093 52.324 59.9902C52.2668 59.8902 52.2192 59.7855 52.1764 59.6807C52.1573 59.6331 52.1383 59.5807 52.1192 59.5283C52.0287 59.6569 51.924 59.7807 51.8097 59.8997C51.4954 60.2283 51.1097 60.514 50.6668 60.7426C50.5526 60.8045 50.4335 60.8569 50.3097 60.9093C50.1764 60.9617 50.043 61.014 49.9002 61.0569C49.7478 61.1045 49.5907 61.1474 49.4287 61.1807C49.2859 61.214 49.143 61.2378 48.9906 61.2569C48.3097 61.3426 47.6526 61.295 47.0621 61.1378C46.9716 61.114 46.8811 61.0902 46.7954 61.0569C46.8811 61.1474 46.9716 61.2331 47.0668 61.3093C47.7383 61.8712 48.5954 62.1569 49.4906 62.0426C49.6621 62.0188 49.8287 61.9855 49.9907 61.9331C50.0145 61.9283 50.0335 61.9188 50.0526 61.914C50.2002 61.8664 50.343 61.8093 50.4811 61.7378C50.5097 61.7236 50.5335 61.714 50.5573 61.695C51.0954 61.4045 51.543 60.9569 51.8526 60.4093C51.9526 60.9331 52.1954 61.3997 52.5859 61.7331C52.6002 61.7474 52.6192 61.7617 52.6335 61.7712C53.0716 62.1236 53.6192 62.2807 54.2002 62.2521C54.3097 62.2521 54.4192 62.2378 54.5335 62.2188C54.624 62.2045 54.7145 62.1855 54.8049 62.1616C55.0145 62.1093 55.2192 62.0378 55.4287 61.9426C55.6192 61.8569 55.8145 61.7521 56.0002 61.6283L56.0097 61.6331Z" fill="white"></path><path d="M46.6858 62.5428C46.5191 62.4523 46.3715 62.3476 46.2429 62.2285C46.1858 62.3238 46.1239 62.4142 46.0524 62.5047C45.6715 62.9714 45.1001 63.2714 44.4572 63.2714C44.381 63.2714 44.3048 63.2714 44.2334 63.2571C44.4763 63.3619 44.7429 63.4142 45.0191 63.4142C45.5239 63.4142 45.981 63.2285 46.3382 62.9238C46.7239 63.3428 47.3096 63.6142 47.9715 63.6142C48.8763 63.6142 49.6477 63.1095 49.9429 62.3999C49.4905 62.719 48.8763 62.9142 48.2001 62.9142C47.6334 62.9142 47.1096 62.7761 46.6858 62.5428Z" fill="white"></path><path d="M46.4905 56.3478C46.7286 56.4002 46.981 56.3192 47.2191 56.143C47.2048 56.143 47.1858 56.143 47.1715 56.1335C46.7239 56.0383 46.4477 55.4859 46.4334 54.7764L45.7144 55.0383C45.7572 55.7287 46.0429 56.2526 46.4905 56.3478Z" fill="#F49D19"></path><path d="M53.9716 60.6667C54.9859 58.8477 55.924 56.2239 56.524 53.2477C56.5716 53.0144 56.6145 52.7858 56.6573 52.5572L55.8811 52.4239L59.824 49.0905V48.7334L55.4716 52.1382C55.4716 52.3286 55.4621 52.5191 55.4573 52.7096C55.343 55.9334 54.7049 58.7953 53.8145 60.5905C53.8668 60.6191 53.924 60.6429 53.9764 60.6667H53.9716Z" fill="#F49D19"></path><path d="M54.3047 60.4999C54.8142 60.1618 55.3237 59.6999 55.8094 59.1284C55.7285 59.0237 55.638 58.9142 55.5523 58.8094C55.4761 58.7237 55.3999 58.638 55.3285 58.5522C55.0047 59.2903 54.6571 59.9427 54.3095 60.4999H54.3047Z" fill="#F49D19"></path><path d="M56.1336 58.7239C56.2812 58.5287 56.4288 58.3239 56.5717 58.1049C56.4526 57.9096 56.3098 57.681 56.1621 57.4668C56.0764 57.3477 55.9907 57.2287 55.905 57.1191C55.7907 57.4382 55.6717 57.7477 55.5479 58.0477C55.6717 58.1763 55.8098 58.3287 55.9431 58.4858C56.0098 58.5668 56.0764 58.6477 56.1431 58.7287L56.1336 58.7239Z" fill="#F49D19"></path><path d="M56.8666 57.6334C56.9857 57.4287 57.1047 57.2192 57.2143 57.0049C57.1 56.762 56.9428 56.4382 56.7666 56.1334C56.6524 55.9287 56.5238 55.7287 56.4143 55.562C56.3143 55.9049 56.2047 56.2382 56.0952 56.562C56.2333 56.7334 56.4095 56.9525 56.5714 57.1858C56.6762 57.3334 56.7762 57.4906 56.8666 57.6382V57.6334Z" fill="#F49D19"></path><path d="M57.6952 55.9622C57.7143 55.9193 57.7285 55.8765 57.7476 55.8336C57.5476 55.067 57.2428 54.386 56.8762 53.8193C56.7857 54.2003 56.6905 54.5717 56.5952 54.9336C56.7047 55.086 56.9714 55.4717 57.2047 55.8812C57.3095 56.067 57.4095 56.2527 57.4952 56.4289C57.5666 56.2765 57.6333 56.1193 57.6952 55.9622Z" fill="#F49D19"></path><path d="M48.567 60.2381C48.8956 60.1952 49.2099 60.1381 49.5146 60.0619C49.6575 60.0238 49.7956 59.9857 49.9289 59.9428C50.9908 59.6095 51.8432 59.0666 52.3337 58.4381C52.4099 58.9857 52.6241 59.5047 52.9908 59.9333C53.0384 59.9905 53.086 60.0428 53.1432 60.0952C53.1956 60.1476 53.2479 60.1905 53.3003 60.2381C53.3432 60.2714 53.3813 60.3047 53.4241 60.3381C53.7241 59.6952 53.9956 58.9333 54.2241 58.0762C53.6575 58.1238 52.4956 58.2762 50.8718 58.7857C49.6432 59.1714 48.3337 59.7286 47.1479 60.2905C47.2194 60.2905 47.2908 60.2952 47.3622 60.3C47.4575 60.3 47.5479 60.3047 47.6432 60.3C47.9432 60.3 48.2527 60.2762 48.567 60.2381Z" fill="#F49D19"></path><path d="M45.8857 59.419C46.1048 59.6237 46.3334 59.8095 46.5715 59.9761C47.8667 59.3476 49.3334 58.7095 50.7095 58.2809C52.5715 57.6952 53.8381 57.5666 54.3524 57.538C54.4476 57.1285 54.5381 56.6952 54.6143 56.2476C54.1096 56.2714 52.8905 56.3904 51.1667 56.9666C48.881 57.738 46.7476 58.9142 45.8857 59.419Z" fill="#F49D19"></path><path d="M45.5144 59.0286C46.3144 58.5572 48.5715 57.2858 51.0001 56.4715C52.9192 55.8286 54.2192 55.7286 54.7001 55.7191C54.762 55.3 54.8144 54.8715 54.8572 54.4334C54.3334 54.4477 53.1287 54.5524 51.4668 55.1572C49.1287 56.0096 47.9525 56.8334 47.943 56.8429C47.943 56.8429 48.8763 55.5429 51.2858 54.662C53.0858 54.0048 54.362 53.9096 54.9049 53.9C54.9334 53.5429 54.9573 53.181 54.9715 52.8096C53.0287 53.0334 50.8525 53.7239 48.7239 54.8905C48.6334 54.9381 48.5049 55.0143 48.4049 55.0715C48.3953 55.1143 48.3811 55.1572 48.3715 55.1953C48.0287 56.3143 47.143 57.0477 46.3906 56.8381C45.7953 56.6715 45.462 55.9572 45.5192 55.1096L44.062 55.6381C44.1239 56.3667 44.3382 57.1143 44.7049 57.8286C44.9334 58.2715 45.2096 58.6715 45.5192 59.0286H45.5144Z" fill="#F49D19"></path><path d="M53.8857 45.7858C54.0857 44.4858 54.8524 43.3763 55.9238 42.7144H50.5143C51.5905 43.3763 52.3524 44.4905 52.5524 45.7858C51.2524 45.5858 50.1429 44.8239 49.481 43.7477V49.1572C50.1429 48.081 51.2571 47.3191 52.5524 47.1191C52.3524 48.4191 51.5905 49.5286 50.5143 50.1905H55.9238C54.8476 49.5286 54.0857 48.4144 53.8857 47.1191C55.1857 47.3191 56.2952 48.081 56.9571 49.1572V43.7477C56.2952 44.8239 55.181 45.5858 53.8857 45.7858Z" fill="#E5302A"></path><path d="M30.7095 11.3384L31.1143 12.0717L28.9 13.2955L29.2476 13.9289L31.2143 12.8431L31.6143 13.5717L29.6476 14.6574L30.1333 15.5336L29.2714 16.0098L27.6333 13.0431L30.7095 11.3431V11.3384Z" fill="white"></path><path d="M36.3001 12.6237L35.762 12.1523L33.8286 12.938L33.7715 13.6523L32.7905 14.0523L33.1334 10.2571L34.3905 9.74756L37.281 12.2285L36.3048 12.6237H36.3001ZM33.8953 12.1142L35.1334 11.6095L34.0143 10.6333L33.8953 12.1142Z" fill="white"></path><path d="M41.3476 10.1764L40.7619 7.81927L41.7095 7.58594L42.5238 10.8764L41.1286 11.224L38.6048 9.34784L39.1905 11.705L38.2381 11.9431L37.4238 8.6526L38.8238 8.30499L41.3476 10.1812V10.1764Z" fill="white"></path><path d="M46.1191 6.96208L50.2001 6.79541L50.2334 7.62874L48.6858 7.69065L48.7906 10.243L47.8096 10.2811L47.7049 7.72874L46.1525 7.79065L46.1191 6.95731V6.96208Z" fill="white"></path><path d="M51.3903 8.49526C51.4855 7.37622 52.3141 6.78098 53.7379 6.90479C55.1569 7.0286 55.876 7.75717 55.7807 8.87145C55.6855 9.9905 54.8522 10.5953 53.4331 10.4715C52.0093 10.3476 51.295 9.61907 51.3903 8.49526ZM54.7569 8.78574C54.8093 8.20003 54.5045 7.80955 53.6664 7.73812C52.8331 7.66669 52.4665 7.9905 52.4188 8.58574C52.3665 9.18098 52.676 9.57145 53.5045 9.64288C54.3379 9.71431 54.7093 9.38098 54.7617 8.7905L54.7569 8.78574Z" fill="white"></path><path d="M61.6239 8.36681L59.6334 9.38109L60.881 11.6763L59.6763 11.4049L58.8096 9.8049L57.862 10.2859L57.7096 10.9573L56.7524 10.7382L57.5001 7.42871L58.462 7.643L58.1286 9.12871L60.1953 8.03823L61.6334 8.36204L61.6239 8.36681Z" fill="white"></path><path d="M66.3286 9.99553L66.0667 10.7193L63.6858 9.85744L63.5 10.367L65.7905 11.1955L65.5286 11.9193L63.2381 11.0908L63.0524 11.6003L65.4334 12.4622L65.1715 13.186L61.8667 11.9908L63.0191 8.80029L66.3238 9.99553H66.3286Z" fill="white"></path><path d="M69.7621 14.3526L70.8764 12.1907L71.7478 12.6383L70.1907 15.6526L68.9097 14.9907L68.2478 11.9097L67.1335 14.0716L66.2573 13.6193L67.8145 10.605L69.1002 11.2669L69.7621 14.3478V14.3526Z" fill="white"></path><path d="M27.395 85.4763C27.2474 85.7192 27.395 86.0239 28.1569 86.4858C28.8569 86.9049 29.095 86.9001 29.2045 86.7192C29.3331 86.5097 29.2236 86.3906 28.395 85.8144C27.2665 85.024 26.8903 84.4763 27.276 83.8335C27.6426 83.2287 28.4617 83.3478 29.4665 83.9525C30.5855 84.6239 31.0236 85.3525 30.6617 86.0144L29.7807 85.4859C29.9331 85.2287 29.7141 84.962 29.0617 84.5716C28.4426 84.2001 28.2426 84.2192 28.1474 84.3763C28.0379 84.5573 28.1474 84.6954 28.895 85.2335C29.9141 85.9573 30.5617 86.4478 30.1045 87.2097C29.6569 87.9525 28.8379 87.7573 27.8045 87.1335C26.6284 86.4239 26.0903 85.7382 26.5093 84.9478L27.3903 85.4811L27.395 85.4763Z" fill="white"></path><path d="M31.5236 87.1909C31.9712 86.1576 32.9426 85.8623 34.2569 86.429C35.5664 86.9957 36.014 87.9147 35.5712 88.9433C35.1236 89.9766 34.1426 90.2814 32.8331 89.7147C31.5188 89.148 31.0759 88.229 31.5236 87.1909ZM34.6283 88.5385C34.8616 87.9957 34.695 87.5338 33.9236 87.1957C33.1569 86.8623 32.7045 87.0576 32.4712 87.6004C32.2331 88.1481 32.4045 88.6147 33.1664 88.948C33.9331 89.2814 34.395 89.0814 34.6283 88.5338V88.5385Z" fill="white"></path><path d="M39.3047 88.2194C40.5047 88.5575 41.0428 89.2623 40.9047 90.129L39.9 89.848C39.919 89.529 39.6857 89.1909 39.0809 89.0242C38.3809 88.829 37.9476 89.0766 37.7857 89.648C37.6238 90.2242 37.8714 90.6671 38.5666 90.8623C39.1714 91.029 39.5476 90.8623 39.6952 90.5718L40.7 90.8528C40.3666 91.6718 39.5428 92.0004 38.3381 91.6671C37.0285 91.3004 36.4809 90.4909 36.7905 89.3718C37.1047 88.2575 37.9905 87.8528 39.3 88.2194H39.3047Z" fill="white"></path><path d="M43.3948 89.2289L42.7948 92.5623L41.8281 92.3861L42.4281 89.0527L43.3948 89.2289Z" fill="white"></path><path d="M44.4189 91.1481C44.5094 90.029 45.3332 89.4338 46.757 89.5481C48.176 89.6624 48.8999 90.3909 48.8046 91.5052C48.7141 92.6243 47.8856 93.229 46.4618 93.1147C45.0379 93.0005 44.3189 92.2719 44.4141 91.1481H44.4189ZM47.7856 91.4243C47.8332 90.8386 47.5284 90.4528 46.6903 90.3814C45.857 90.3148 45.4951 90.6433 45.4427 91.2338C45.3951 91.829 45.7046 92.2148 46.5332 92.2862C47.3665 92.3528 47.7379 92.0195 47.7856 91.4243Z" fill="white"></path><path d="M51.1188 92.048C51.1331 92.3337 51.4235 92.5051 52.314 92.4575C53.1283 92.4146 53.3235 92.2766 53.3093 92.0623C53.295 91.8146 53.1426 91.7813 52.1331 91.767C50.7569 91.7432 50.1331 91.5004 50.095 90.748C50.0569 90.0432 50.8045 89.6813 51.9759 89.6242C53.2807 89.5575 54.0521 89.9099 54.1188 90.6623L53.095 90.7146C53.0807 90.4146 52.7474 90.3194 51.9854 90.3575C51.2664 90.3956 51.1093 90.5242 51.1188 90.7051C51.1283 90.9146 51.295 90.9718 52.2188 91.0004C53.4664 91.0289 54.2807 91.0718 54.3283 91.9623C54.3712 92.8289 53.5854 93.1242 52.3807 93.1861C51.0093 93.2575 50.1759 92.9861 50.0854 92.0956L51.114 92.0432L51.1188 92.048Z" fill="white"></path><path d="M55.7426 92.0429L56.6806 91.9048L56.7854 92.6334L55.8473 92.7715L55.7378 92.0429H55.7426Z" fill="white"></path><path d="M59.4808 88.5382C60.6951 88.243 61.5094 88.5953 61.8141 89.4191L60.7999 89.6668C60.6618 89.3763 60.2903 89.2001 59.6808 89.3477C58.9761 89.5192 58.7189 89.9477 58.857 90.5287C58.9999 91.1096 59.4332 91.3763 60.1332 91.2049C60.7427 91.0572 60.9903 90.7239 60.9761 90.3953L61.9903 90.1477C62.0999 91.0239 61.5427 91.7191 60.3284 92.0144C59.0046 92.3382 58.1284 91.9001 57.8522 90.7715C57.576 89.6477 58.1522 88.862 59.4761 88.5382H59.4808Z" fill="white"></path><path d="M63.1522 89.3956C62.7379 88.348 63.2189 87.448 64.5474 86.9242C65.8712 86.4003 66.8427 86.7337 67.2522 87.7765C67.6665 88.8242 67.1855 89.7337 65.8617 90.2575C64.5331 90.7813 63.5665 90.448 63.1522 89.3956ZM66.2998 88.1527C66.0855 87.6051 65.6379 87.3908 64.857 87.7003C64.0808 88.0051 63.8951 88.4622 64.1141 89.0146C64.3331 89.5718 64.7855 89.7813 65.557 89.4765C66.3331 89.1718 66.5189 88.7051 66.2998 88.1527Z" fill="white"></path><path d="M69.3381 88.6907L67.6333 85.7574L68.9571 84.986L71.1095 86.3383L70.9952 83.8002L72.319 83.0288L74.0238 85.9621L73.1762 86.4526L71.9428 84.3288L72.0762 87.0955L71.2904 87.5526L68.9524 86.0717L70.1904 88.1955L69.3381 88.6907Z" fill="white"></path><path d="M23.019 81.8382C13.9952 74.1811 8.2666 62.7573 8.2666 50.0001C8.2666 37.243 14.2999 25.2144 23.738 17.562" stroke="white" stroke-miterlimit="10"></path><path d="M76.2666 17.5669C85.7047 25.2193 91.7333 36.905 91.7333 50.0002C91.7333 63.0955 86.0047 74.1859 76.9809 81.8431" stroke="white" stroke-miterlimit="10"></path></g><defs><clipPath id="clip0_101_22060"><rect width="100" height="100" fill="white"></rect></clipPath></defs></svg>