<svg xmlns="http://www.w3.org/2000/svg" width="100" height="100" viewBox="0 0 100 100" fill="none"><g clip-path="url(#clip0_101_22058)"><path d="M50 100C77.6142 100 100 77.6142 100 50C100 22.3858 77.6142 0 50 0C22.3858 0 0 22.3858 0 50C0 77.6142 22.3858 100 50 100Z" fill="#016538"></path><path d="M50 2.53333C76.1714 2.53333 97.4667 23.8286 97.4667 50C97.4667 76.1714 76.1714 97.4667 50 97.4667C23.8286 97.4667 2.53333 76.1714 2.53333 50C2.53333 23.8286 23.8286 2.53333 50 2.53333ZM50 0C22.3857 0 0 22.3857 0 50C0 77.6143 22.3857 100 50 100C77.6143 100 100 77.6143 100 50C100 22.3857 77.6143 0 50 0Z" fill="white"></path><path fill-rule="evenodd" clip-rule="evenodd" d="M49.9999 16.4766C68.5142 16.4766 83.5237 31.4861 83.5237 50.0004C83.5237 68.5147 68.5142 83.5242 49.9999 83.5242C31.4856 83.5242 16.4761 68.5147 16.4761 50.0004C16.4761 31.4861 31.4856 16.4766 49.9999 16.4766Z" fill="white"></path><path fill-rule="evenodd" clip-rule="evenodd" d="M49.9998 17.4336C67.9855 17.4336 82.5664 32.0145 82.5664 50.0003C82.5664 67.986 67.9855 82.5669 49.9998 82.5669C32.0141 82.5669 17.4331 67.986 17.4331 50.0003C17.4331 32.0145 32.0141 17.4336 49.9998 17.4336ZM49.9998 18.2717C67.5236 18.2717 81.7283 32.4765 81.7283 50.0003C81.7283 67.5241 67.5236 81.7288 49.9998 81.7288C32.476 81.7288 18.2712 67.5241 18.2712 50.0003C18.2712 32.4765 32.476 18.2717 49.9998 18.2717Z" fill="#016538"></path><path fill-rule="evenodd" clip-rule="evenodd" d="M49.9997 19.1812C67.0188 19.1812 80.8188 32.9764 80.8188 50.0002C80.8188 67.024 67.0235 80.8192 49.9997 80.8192C32.9759 80.8192 19.1807 67.024 19.1807 50.0002C19.1807 32.9764 32.9807 19.1812 49.9997 19.1812ZM49.9997 22.0526C59.3092 22.0526 66.8569 29.6002 66.8569 38.9097C66.8569 48.2192 59.3092 55.7669 49.9997 55.7669C40.6902 55.7669 33.1426 48.2192 33.1426 38.9097C33.1426 29.6002 40.6902 22.0526 49.9997 22.0526ZM32.7902 46.0954C33.0378 46.7383 33.7664 48.1383 34.0616 48.605C34.7949 49.7335 34.3092 51.0145 32.9378 51.7145L30.1283 53.1478C28.7902 53.8145 26.2473 53.5192 25.7664 51.7192C25.5521 51.105 25.4521 50.6192 25.3092 49.9669L21.295 51.0859C21.1997 49.6335 21.1854 49.3812 21.2711 48.1431L32.7854 46.1002L32.7902 46.0954ZM31.5664 48.2621L27.6997 49.3145C27.7473 49.6526 27.8045 49.9097 27.9092 50.2478C28.1902 51.1764 28.6235 51.1573 29.7092 50.7621L31.1235 50.2335C31.6902 49.9812 32.2569 49.724 31.9569 49.0812C31.7616 48.7288 31.5616 48.2478 31.5616 48.2669M36.4521 51.7812C36.895 52.2431 37.4378 52.7621 37.9807 53.2192L27.2092 67.5859C26.5188 66.6859 25.8092 65.624 25.2235 64.6335L28.2426 61.3764C27.5759 60.3764 26.9902 59.524 26.4426 58.2478L22.9521 59.7859C22.5664 58.7716 22.2378 57.6478 22.0759 56.8716L36.4521 51.7859V51.7812ZM34.0759 55.0145L28.6188 57.2907C29.0283 58.0954 29.4235 58.7192 29.9711 59.4478L34.0759 55.0145ZM27.5997 68.0621L39.814 54.5859C39.7664 54.5764 40.9188 55.2859 41.4711 55.5669L32.0378 68.0716C33.0235 69.0526 33.3997 69.3621 34.5997 70.2621L32.8902 73.1669C31.095 71.8764 28.7426 69.5859 27.5997 68.0621ZM33.6235 73.6859L43.0854 56.2954C43.6426 56.5288 44.2711 56.7288 44.833 56.8954L43.795 65.8526C44.0759 65.205 47.3092 57.4621 47.3092 57.4288C47.8045 57.5097 48.7378 57.5907 49.1521 57.6097L47.8807 78.7478C46.7997 78.7192 45.1283 78.4669 43.9473 78.1859L45.7521 67.5192L41.214 74.805L41.0997 65.9478C40.7235 67.0716 36.9711 75.6621 36.9711 75.6954C35.6283 75.0097 34.5283 74.3193 33.6283 73.6859M53.5902 57.2954C52.3045 57.524 51.5664 57.6192 49.8854 57.6335L49.4521 78.824C52.7569 78.9145 56.1188 78.3716 58.9616 77.424L58.014 73.8431C56.4902 74.3335 54.9997 74.6954 53.5188 74.8288L52.6807 67.5907C54.214 67.4288 55.0473 67.2431 56.1426 66.8859L55.414 64.1907C54.395 64.4812 53.4188 64.6383 52.3521 64.7621L51.7616 59.6478C52.5616 59.624 53.395 59.4859 54.133 59.3002L53.5902 57.3002V57.2954ZM54.214 57.1669C54.8521 57.0145 55.2711 56.9002 55.8759 56.7002L64.0854 75.1859C62.9759 75.7954 61.6092 76.4669 60.233 76.9812L54.214 57.1621V57.1669ZM65.3283 74.4383L56.533 56.4621C57.6616 56.0478 58.6188 55.5764 59.5759 55.0097C60.7854 54.2288 61.7949 55.0192 62.8092 55.9573L65.3807 58.3478C67.8188 60.6145 67.3759 62.305 66.8378 62.8478L73.2283 67.0478C72.5378 68.005 71.8521 68.8431 71.0854 69.6431L64.8473 64.605L64.1188 65.1002L68.7759 71.9097C67.7664 72.7954 66.4854 73.724 65.333 74.4431M62.7759 62.9573C63.9854 62.1716 64.7188 61.5526 63.2235 59.805L61.5569 57.7002C60.5426 56.3097 59.9473 57.0621 59.1854 57.4145L62.7759 62.9573ZM63.8664 51.5192C63.4378 51.9716 62.995 52.4383 62.4807 52.8812L73.4902 66.6954C74.1521 65.7907 74.8283 64.705 75.395 63.6954L72.3854 60.6907C73.033 59.6383 73.314 59.0383 73.8473 57.8097L77.2711 59.305C77.6569 58.3097 77.9521 57.4002 78.1616 56.4431L63.8711 51.5145L63.8664 51.5192ZM66.5854 54.7669L71.6521 56.8431C71.2616 57.6335 71.0664 58.0335 70.5235 58.8478L66.5854 54.7669ZM69.7807 48.4383C70.033 47.8954 70.2521 47.3288 70.4664 46.7431C69.8807 46.6383 69.4045 46.5573 68.9473 46.4764C67.8378 46.3002 67.1045 46.6621 66.7426 47.1526C66.3807 47.6383 66.1569 48.1002 65.895 48.7669C65.633 49.4335 65.6473 50.6478 67.5235 51.4859C69.1569 52.2383 70.3807 52.9907 72.9711 50.7812C74.4902 49.5621 75.0664 49.9716 75.6188 50.0907C76.414 50.3573 76.495 50.6764 76.3426 51.5097C76.133 52.5383 74.9711 51.9954 74.4092 51.7716C74.1949 52.5907 73.9711 53.2192 73.6092 54.105C73.9473 54.2478 74.3664 54.4431 74.7473 54.6002C76.4759 55.2907 78.4235 54.9145 78.8711 52.8288C79.1426 51.424 79.0616 50.7431 79.0616 50.5002C79.0378 49.2002 78.0807 48.0478 76.4283 47.7526C74.814 47.4288 73.7378 47.3383 71.4854 49.0383C70.3283 49.8954 70.133 50.2192 69.0854 49.805C68.5283 49.5954 67.9902 49.405 68.3045 48.7526C68.5426 48.2478 68.7902 48.1669 69.7807 48.4573M34.0188 26.9383L33.6426 27.8145L34.2854 28.5145L33.3426 28.424L32.8807 29.2573L32.6759 28.3288L31.7473 28.1431L32.5616 27.6573L32.4521 26.7097L33.1616 27.3383L34.0188 26.9383ZM31.2473 30.0431L30.9854 31.1907L31.9188 31.8954L30.7569 32.0002L30.3807 33.1097L29.9235 32.0288L28.7569 32.0145L29.6378 31.2431L29.2902 30.1192L30.2902 30.724L31.2426 30.0478L31.2473 30.0431ZM28.8759 34.0192L28.8569 35.5335L30.2283 36.1621L28.7902 36.6145L28.6188 38.1192L27.7473 36.8859L26.2711 37.1859L27.1711 35.9716L26.4283 34.6526L27.8569 35.1383L28.8711 34.0192H28.8759ZM27.1807 39.1097L27.6378 40.9907L29.533 41.3288L27.895 42.3478L28.1616 44.2669L26.6902 43.0145L24.9616 43.8621L25.6902 42.0716L24.3569 40.6764L26.2759 40.8192L27.1807 39.1145V39.1097ZM72.8188 39.1097L72.3616 40.9907L70.4664 41.3288L72.1045 42.3478L71.8378 44.2669L73.3092 43.0145L75.0378 43.8621L74.3092 42.0716L75.6426 40.6764L73.7235 40.8192L72.8188 39.1145V39.1097ZM71.1188 34.0192L71.133 35.5335L69.7616 36.1621L71.1997 36.6145L71.3711 38.1192L72.2426 36.8859L73.7188 37.1859L72.8188 35.9716L73.5616 34.6526L72.133 35.1383L71.1188 34.0192ZM68.7473 30.0431L69.0092 31.1907L68.0711 31.8954L69.233 32.0002L69.6092 33.1097L70.0664 32.0288L71.233 32.0145L70.3521 31.2431L70.6997 30.1192L69.6997 30.724L68.7473 30.0478V30.0431ZM65.9759 26.9383L66.3521 27.8145L65.7092 28.5145L66.6521 28.424L67.114 29.2573L67.3188 28.3288L68.2473 28.1431L67.433 27.6573L67.5426 26.7097L66.833 27.3383L65.9711 26.9383H65.9759Z" fill="#016538"></path><path fill-rule="evenodd" clip-rule="evenodd" d="M50.0001 22.9146C58.8335 22.9146 65.9954 30.0765 65.9954 38.9098C65.9954 47.7431 58.8335 54.905 50.0001 54.905C41.1668 54.905 34.0049 47.7431 34.0049 38.9098C34.0049 30.0765 41.1668 22.9146 50.0001 22.9146ZM62.7906 29.9717C63.0192 39.3526 58.3811 48.9669 50.2763 54.5669C58.7763 54.4193 65.6239 47.486 65.6239 38.9479C65.6239 35.6098 64.5763 32.5146 62.7906 29.9717ZM49.7335 54.5669C41.8096 49.0526 37.0049 39.286 37.2239 29.9574C35.4287 32.5003 34.3763 35.6003 34.3763 38.9479C34.3763 47.486 41.2287 54.4241 49.7335 54.5669ZM37.4239 29.6812C41.1144 28.8146 45.6477 26.9146 49.8096 23.3288C44.7287 23.3907 40.2335 25.8765 37.4239 29.6812ZM50.1906 23.3288C54.1954 26.9241 58.7668 28.7765 62.5811 29.6765C59.7715 25.8717 55.2715 23.386 50.1906 23.3288ZM62.4858 29.9622C55.1715 28.2479 50.7096 24.286 50.0096 23.5812C49.3287 24.2765 44.7144 28.2955 37.5525 29.9622C37.4096 45.6193 48.9858 53.6669 50.0096 54.3526C51.0239 53.6717 62.5858 45.9098 62.4858 29.9622Z" fill="#016538"></path><path d="M61.4761 30.5384C61.7571 39.1718 57.3237 48.167 49.9999 53.2337C42.8523 48.2479 38.2571 39.1146 38.5285 30.5384C41.8475 29.767 46.238 28.0622 49.9999 24.667C53.6142 28.0718 58.0475 29.7289 61.4761 30.5337M48.9952 25.9432H50.9856C50.4809 25.5384 50.1475 25.2337 50.0047 25.086C49.8666 25.2337 49.519 25.5432 48.9952 25.9432ZM51.1475 26.0718H48.8285C48.4713 26.3432 48.038 26.6527 47.538 26.9765H52.4047C51.9142 26.6479 51.4952 26.3432 51.1475 26.0718ZM52.5999 27.1051H47.3428C46.8856 27.4003 46.3809 27.7051 45.8237 28.0146H49.119C49.0333 28.0527 48.9523 28.0956 48.8666 28.1432H45.5904C45.0285 28.4479 44.4285 28.7527 43.7809 29.0479H47.5809C47.5333 29.0908 47.4856 29.1337 47.4428 29.1765H43.4999C42.7713 29.5003 41.9952 29.8051 41.1713 30.086H44.1952C44.1523 30.1289 44.1142 30.1718 44.0761 30.2146H40.7856C40.1618 30.4146 39.5094 30.6003 38.838 30.7622C38.838 30.8813 38.838 31.0003 38.838 31.1194H45.2571C45.2904 31.1575 45.3237 31.2003 45.3523 31.2479H38.838C38.8428 31.5527 38.8523 31.8575 38.8666 32.1575H45.4666V32.286H38.8713C38.8856 32.5908 38.9094 32.8908 38.9333 33.1908H45.4666V33.3194H38.9428C38.9713 33.6241 39.0047 33.9289 39.038 34.2289H45.4618V34.3575H39.0523C39.0904 34.6622 39.1333 34.967 39.1856 35.2622H45.4618V35.3908H39.2047C39.2571 35.7003 39.3142 36.0003 39.3761 36.3003H45.5523L45.4237 36.4289H39.4047C39.4666 36.7289 39.5333 37.0289 39.6094 37.3194H45.0999L45.238 37.4479H39.6428C39.7237 37.7622 39.8047 38.0718 39.8904 38.3718H45.4666V38.5003H39.9285C40.019 38.8051 40.1142 39.1098 40.2142 39.4051H45.4713V39.5337H40.2618C40.3666 39.8432 40.4761 40.1432 40.5904 40.4432H45.4761V40.5718H40.6428C40.7618 40.8813 40.8856 41.1813 41.0094 41.4765H45.4761V41.6051H41.0666C41.1999 41.9146 41.338 42.2194 41.4809 42.5146H45.4761V42.6432H41.5428C41.6952 42.9527 41.8475 43.2527 42.0047 43.5479H45.4761V43.6765H42.0713C42.2333 43.9765 42.3999 44.2718 42.5714 44.5622H45.4713C45.4713 44.6051 45.4713 44.6479 45.4713 44.6908H42.6475C42.8333 45.0003 43.019 45.3051 43.2094 45.5956H45.1523C45.1142 45.6432 45.0713 45.686 45.0333 45.7241H43.2952C43.4999 46.0384 43.7094 46.3432 43.919 46.6337H44.6952C44.7428 46.6813 44.7904 46.7241 44.838 46.7622H44.0094C44.238 47.0765 44.4618 47.3765 44.6904 47.667H46.6523C46.6713 47.7098 46.6904 47.7527 46.7094 47.7956H44.7904C45.0428 48.1146 45.2952 48.4146 45.5428 48.7051H47.3666C47.4142 48.7479 47.4618 48.7908 47.5094 48.8337H45.6475C45.9285 49.1527 46.2047 49.4575 46.4713 49.7384H53.5571C53.8285 49.4575 54.1047 49.1527 54.3904 48.8337H49.8285C49.7761 48.7908 49.7237 48.7479 49.6713 48.7051H54.5047C54.7571 48.4146 55.0094 48.1146 55.2618 47.7956H48.9428C48.919 47.7527 48.8999 47.7098 48.8761 47.667H55.3666C55.5952 47.3765 55.8237 47.0765 56.0523 46.7622H48.5618C48.5523 46.7194 48.5428 46.6765 48.5333 46.6337H56.1475C56.3571 46.3432 56.5666 46.0384 56.7713 45.7241H48.4047C48.4047 45.6813 48.3999 45.6384 48.3952 45.5956H56.8571C57.0475 45.3051 57.2333 45.0003 57.419 44.6908H48.3666C48.3666 44.6479 48.3666 44.6051 48.3666 44.5622H57.4952C57.6666 44.2765 57.8333 43.9813 57.9952 43.6765H48.3713V43.5479H58.0666C58.2237 43.2527 58.3761 42.9527 58.5285 42.6432H48.3713V42.5146H58.5856C58.7285 42.2194 58.8666 41.9146 58.9999 41.6051H48.3713V41.4765H59.0571C59.1856 41.1813 59.3047 40.8813 59.4237 40.5718H53.2809C53.3523 40.5479 53.4237 40.5241 53.4952 40.5003C53.5428 40.4813 53.5904 40.4622 53.6333 40.4432H59.4713C59.5856 40.1432 59.6904 39.8432 59.7952 39.5337H55.0761C55.1237 39.4908 55.1666 39.4479 55.2094 39.4051H59.8333C59.9333 39.1098 60.0237 38.8051 60.1142 38.5003H55.9475C55.9761 38.4575 56.0047 38.4146 56.0333 38.3718H60.1523C60.238 38.0718 60.3237 37.7622 60.3999 37.4479H56.5142C56.5333 37.4051 56.5475 37.3622 56.5666 37.3194H60.4333C60.5047 37.0289 60.5713 36.7289 60.6333 36.4289H56.8618C56.8761 36.386 56.8809 36.3432 56.8952 36.3003H60.6618C60.7237 36.0003 60.7761 35.6956 60.8285 35.3908H57.0618C57.0666 35.3479 57.0713 35.3051 57.0761 35.2622H60.8475C60.8952 34.9622 60.938 34.6622 60.9761 34.3575H57.1237C57.1237 34.3146 57.1237 34.2718 57.1237 34.2289H60.9904C61.0237 33.9289 61.0571 33.6241 61.0856 33.3194H57.0618C57.0618 33.2765 57.0475 33.2337 57.0428 33.1908H61.0952C61.119 32.8956 61.138 32.5908 61.1523 32.286H56.8618C56.8523 32.2432 56.838 32.2003 56.8285 32.1575H61.1618C61.1761 31.8575 61.1856 31.5527 61.1904 31.2479H56.5142C56.4952 31.2051 56.4761 31.1622 56.4571 31.1194H61.1904C61.1904 31.0003 61.1904 30.8813 61.1904 30.7622C60.4999 30.6003 59.8333 30.4146 59.1999 30.2146H55.9618C55.9333 30.1718 55.9047 30.1289 55.8761 30.086H58.8094C57.9666 29.8051 57.1809 29.4956 56.4475 29.1765H55.1047C55.0571 29.1337 55.0142 29.0908 54.9666 29.0479H56.1666C55.5142 28.7527 54.9094 28.4479 54.3523 28.1432H53.5856C53.4904 28.0956 53.3904 28.0575 53.2856 28.0146H54.119C53.5666 27.7051 53.0666 27.3956 52.619 27.1051M49.1333 28.0146H49.4809C49.3904 28.0527 49.2999 28.0956 49.2094 28.1432H48.8809C48.9618 28.1003 49.0475 28.0575 49.1333 28.0146ZM47.5952 29.0479H47.9618C47.9142 29.0908 47.8713 29.1337 47.8237 29.1765H47.4523C47.4999 29.1337 47.5428 29.0908 47.5904 29.0479M44.1999 30.086H44.4094C44.3714 30.1289 44.3333 30.167 44.2952 30.2146H44.0809C44.119 30.1718 44.1571 30.1289 44.1999 30.086ZM45.2666 31.1194H45.538C45.5523 31.1575 45.5571 31.2003 45.5618 31.2479H45.3571C45.3285 31.2003 45.2999 31.1575 45.2618 31.1194M45.4713 32.1575H45.5618V32.286H45.4713V32.1575ZM45.4713 33.1908H45.5618V33.3194H45.4713V33.1908ZM45.4713 34.2289H45.5571V34.3575H45.4713V34.2289ZM45.4713 35.2622H45.5571V35.3908H45.4713V35.2622ZM45.1047 37.3194H45.2952L45.4094 37.4479H45.2428L45.1047 37.3194ZM45.4713 38.3718H45.5571V38.5003H45.4713V38.3718ZM45.4713 39.4051H45.5571V39.5337H45.4713V39.4051ZM45.4713 40.4432H45.5571V40.5718H45.4713V40.4432ZM45.4713 41.4765H45.5571V41.6051H45.4713V41.4765ZM45.4713 42.5146H45.5523V42.6432H45.4713V42.5146ZM45.4713 43.5479H45.5523V43.6765H45.4713V43.5479ZM45.4713 44.5622H45.5523V44.6908H45.4713C45.4713 44.6479 45.4713 44.6051 45.4713 44.5622ZM45.1523 45.5956H45.5285C45.5237 45.6289 45.5142 45.6622 45.5094 45.6908C45.5047 45.7003 45.4952 45.7099 45.4856 45.7194H45.0333C45.0761 45.6813 45.1142 45.6384 45.1523 45.5908M44.6952 46.6289H44.9761C45.0428 46.6718 45.1094 46.7146 45.1761 46.7575H44.838C44.7904 46.7194 44.7428 46.6765 44.6952 46.6289ZM46.6523 47.6622H46.9333C46.9523 47.7051 46.9713 47.7479 46.9904 47.7908H46.7094C46.6904 47.7479 46.6713 47.7051 46.6523 47.6622ZM47.3714 48.7003H47.6475C47.6952 48.7432 47.7428 48.786 47.7904 48.8289H47.5142C47.4666 48.786 47.419 48.7479 47.3714 48.7003ZM49.8333 48.8289H49.4952C49.4475 48.786 49.4047 48.7432 49.3618 48.7003H49.6761C49.7285 48.7432 49.7809 48.786 49.8333 48.8289ZM48.9475 47.7908H48.7285C48.7094 47.7479 48.6856 47.7051 48.6666 47.6622H48.8809C48.9047 47.7051 48.9237 47.7479 48.9475 47.7908ZM48.5618 46.7575H48.338C48.3237 46.7146 48.3142 46.6718 48.3047 46.6289H48.5333C48.5428 46.6718 48.5523 46.7146 48.5618 46.7575ZM48.4047 45.7194H48.1475V45.7003V45.5908H48.3952C48.3952 45.6337 48.3999 45.6765 48.4047 45.7194ZM48.3666 44.686H48.1475V44.5575H48.3666C48.3666 44.6003 48.3666 44.6432 48.3666 44.686ZM48.3666 43.6718H48.1475V43.5432H48.3666V43.6718ZM48.3666 42.6384H48.1475V42.5098H48.3666V42.6384ZM48.3666 41.6003H48.1523V41.4718H48.3666V41.6003ZM53.2761 40.567H52.238C52.4856 40.5527 52.7475 40.5098 53.0237 40.4384H53.6237C53.5761 40.4575 53.5333 40.4765 53.4856 40.4956C53.4142 40.5194 53.3428 40.5432 53.2713 40.567M55.0666 39.5289H54.8761C54.9237 39.486 54.9761 39.4432 55.0237 39.4003H55.1999C55.1571 39.4432 55.1094 39.486 55.0666 39.5289ZM55.9428 38.4956H55.819C55.8475 38.4527 55.8761 38.4098 55.9047 38.367H56.0285C55.9999 38.4098 55.9713 38.4527 55.9428 38.4956ZM56.5047 37.4432H56.3999C56.419 37.4003 56.438 37.3575 56.4571 37.3146H56.5571C56.538 37.3575 56.5237 37.4003 56.5047 37.4432ZM56.8475 36.4241H56.7571C56.7666 36.3813 56.7809 36.3384 56.7904 36.2956H56.8809C56.8713 36.3384 56.8618 36.3813 56.8475 36.4241ZM57.0475 35.386H56.9666C56.9713 35.3432 56.9809 35.3003 56.9856 35.2575H57.0666C57.0618 35.3003 57.0571 35.3432 57.0523 35.386M57.1142 34.3527H57.0428C57.0428 34.3098 57.0428 34.267 57.0428 34.2241H57.1142C57.1142 34.267 57.1142 34.3098 57.1142 34.3527ZM57.0523 33.3146H56.9904C56.9904 33.2718 56.9809 33.2289 56.9761 33.186H57.0333C57.038 33.2289 57.0475 33.2718 57.0523 33.3146ZM56.8523 32.2813H56.8047C56.7952 32.2384 56.7809 32.1956 56.7713 32.1527H56.819C56.8285 32.1956 56.8428 32.2384 56.8523 32.2813ZM56.4999 31.2432H56.4571C56.438 31.2003 56.419 31.1575 56.3999 31.1146H56.4428C56.4618 31.1575 56.4809 31.2003 56.4999 31.2432ZM55.9475 30.2098H55.9047C55.8761 30.167 55.8523 30.1241 55.819 30.0813H55.8571C55.8856 30.1241 55.919 30.167 55.9428 30.2098M55.0856 29.1718H55.0237C54.9761 29.1289 54.9285 29.086 54.8809 29.0432H54.9428C54.9904 29.086 55.038 29.1289 55.0809 29.1718M53.5618 28.1384H53.3523C53.2333 28.0908 53.1094 28.0479 52.9856 28.0098H53.2618C53.3618 28.0479 53.4618 28.0908 53.5618 28.1384ZM48.1475 38.3622H48.3618V38.4908H48.1475V38.3622ZM48.3618 38.3622H48.8475C48.8523 38.4051 48.8618 38.4479 48.8713 38.4908H48.3666V38.3622H48.3618ZM48.8475 38.3622H49.0237C49.0333 38.4051 49.0475 38.4479 49.0571 38.4908H48.8713C48.8618 38.4479 48.8571 38.4051 48.8475 38.3622ZM48.1475 39.3956H48.3618V39.5241H48.1475V39.3956ZM48.3618 39.3956H49.1952C49.219 39.4384 49.2428 39.4813 49.2713 39.5241H48.3618V39.3956ZM49.1952 39.3956H49.5094C49.5428 39.4384 49.5761 39.4813 49.6142 39.5241H49.2761C49.2475 39.4813 49.2237 39.4384 49.1999 39.3956M48.1523 40.4337H48.3666V40.5622H48.1523V40.4337ZM48.3666 40.4337H50.219C50.2999 40.4813 50.3809 40.5241 50.4666 40.5622H48.3666V40.4337ZM50.219 40.4337H51.019C51.238 40.5003 51.4761 40.5432 51.7333 40.5622H50.4713C50.3856 40.5241 50.3047 40.4813 50.2237 40.4337M49.1094 30.0813H49.319C49.2761 30.1241 49.238 30.167 49.1999 30.2098H48.9904C49.0285 30.167 49.0666 30.1241 49.1047 30.0813M49.3142 30.0813H53.0047C53.0475 30.1241 53.0904 30.167 53.1285 30.2098H49.1952C49.2333 30.167 49.2713 30.1241 49.3142 30.0813ZM53.0047 30.0813H53.2999C53.338 30.1241 53.3713 30.167 53.4047 30.2098H53.1333C53.0952 30.167 53.0523 30.1241 53.0094 30.0813M48.4333 31.1146H48.6523C48.6333 31.1575 48.619 31.2003 48.5999 31.2432H48.3809C48.3952 31.2003 48.4142 31.1575 48.4333 31.1146ZM48.6523 31.1146H53.7428C53.7618 31.1575 53.7809 31.2003 53.7999 31.2432H48.5999C48.6142 31.2003 48.6333 31.1575 48.6523 31.1146ZM53.7428 31.1146H53.938C53.9571 31.1575 53.9713 31.2003 53.9904 31.2432H53.7999C53.7809 31.2003 53.7618 31.1575 53.7428 31.1146ZM48.1809 32.1527H48.3904C48.3904 32.1956 48.3809 32.2384 48.3809 32.2813H48.1761C48.1761 32.2384 48.1761 32.1956 48.1809 32.1527ZM48.3904 32.1527H54.0333C54.038 32.1956 54.0428 32.2384 54.0475 32.2813H48.3856C48.3856 32.2384 48.3904 32.1956 48.3952 32.1527M54.038 32.1527H54.219C54.2237 32.1956 54.2285 32.2384 54.2333 32.2813H54.0523C54.0523 32.2384 54.0475 32.1956 54.038 32.1527ZM48.1809 33.186H48.3809V33.3146H48.1761V33.186H48.1809ZM48.3856 33.186H53.9761C53.9618 33.2289 53.9523 33.2718 53.938 33.3146H48.3856V33.186ZM53.9761 33.186H54.1809C54.1713 33.2289 54.1618 33.2718 54.1475 33.3146H53.938C53.9523 33.2718 53.9618 33.2289 53.9761 33.186ZM48.1856 34.2241H48.3904V34.3527H48.1856V34.2241ZM48.3904 34.2241H53.4047C53.4047 34.2241 53.3904 34.2432 53.3809 34.2479C53.3999 34.2813 53.419 34.3146 53.438 34.3479H48.3952V34.2194L48.3904 34.2241ZM53.4047 34.2241H53.6666C53.6666 34.2241 53.6428 34.2527 53.6333 34.2622C53.6475 34.2908 53.6618 34.3194 53.6761 34.3479H53.438C53.419 34.3146 53.3999 34.2813 53.3809 34.2479C53.3904 34.2384 53.3999 34.2289 53.4047 34.2241ZM48.1856 35.2575H48.3904V35.386H48.1856V35.2575ZM48.3904 35.2575H53.8333C53.8475 35.3003 53.8618 35.3432 53.8761 35.386H48.3904V35.2575ZM53.8333 35.2575H54.0237C54.038 35.3003 54.0475 35.3432 54.0618 35.386H53.8761C53.8618 35.3432 53.8475 35.3003 53.8333 35.2575ZM48.1809 36.2956H48.3904V36.4241H48.1809V36.2956ZM48.3904 36.2956H49.5428C49.4952 36.3337 49.4475 36.3765 49.3999 36.4241H48.3904V36.2956ZM49.5428 36.2956H50.0047C49.9094 36.3289 49.819 36.3765 49.7333 36.4241H49.3999C49.4428 36.3765 49.4904 36.3337 49.5428 36.2956ZM51.1237 36.2956H51.6047C51.6475 36.3337 51.6904 36.3765 51.7285 36.4241H51.338C51.2713 36.3765 51.1999 36.3337 51.1237 36.2956ZM51.6047 36.2956H54.0475C54.0475 36.3384 54.0523 36.3813 54.0523 36.4241H51.7285C51.6904 36.3765 51.6475 36.3384 51.6047 36.2956ZM54.0475 36.2956H54.2285C54.2285 36.3384 54.2333 36.3813 54.238 36.4241H54.0571C54.0571 36.3813 54.0571 36.3384 54.0523 36.2956M48.1809 37.3146H48.3904V37.4432H48.1809V37.3146ZM48.3904 37.3146H48.919C48.9094 37.3575 48.8999 37.4003 48.8904 37.4432H48.3904V37.3146ZM48.919 37.3146H49.0571C49.0428 37.3575 49.0333 37.4003 49.0237 37.4432H48.8904C48.8999 37.4003 48.9094 37.3575 48.919 37.3146ZM51.8999 37.3146H52.0713C52.0713 37.3575 52.0713 37.4003 52.0713 37.4432H51.919C51.9142 37.4003 51.9094 37.3575 51.8999 37.3146ZM52.0713 37.3146H53.9666C53.9571 37.3575 53.9428 37.4003 53.9285 37.4432H52.0713C52.0713 37.4003 52.0713 37.3575 52.0713 37.3146ZM53.9666 37.3146H54.1904C54.1809 37.3575 54.1761 37.4003 54.1666 37.4432H53.9333C53.9475 37.4003 53.9571 37.3575 53.9713 37.3146M51.6571 38.367H51.7904C51.7571 38.4146 51.719 38.4575 51.6809 38.4956H51.438C51.5237 38.467 51.5952 38.4241 51.6571 38.367ZM51.7904 38.367H53.4666C53.4333 38.4098 53.3952 38.4527 53.3618 38.4956H51.6856C51.7237 38.4575 51.7618 38.4146 51.7952 38.367M53.4713 38.367H53.838C53.8142 38.4098 53.7904 38.4527 53.7618 38.4956H53.3666C53.4047 38.4527 53.438 38.4098 53.4713 38.367ZM53.4809 49.8527H46.6428C46.9523 50.1718 47.2523 50.4718 47.538 50.7384H52.5761C52.8618 50.4718 53.1666 50.1718 53.4809 49.8527ZM52.438 50.867H47.6713C48.0428 51.2146 48.3856 51.5194 48.6952 51.7718H51.4094C51.719 51.5194 52.0666 51.2146 52.4428 50.867M51.2571 51.9003H48.8523C49.4571 52.3956 49.8904 52.7003 50.0571 52.8051C50.2094 52.7003 50.6428 52.4003 51.2523 51.9003M44.3618 30.4051C44.9618 30.386 45.8237 30.8146 45.8237 31.6956V36.086L45.0666 36.8337L45.8237 37.5337V44.6241C45.8237 45.1194 45.7094 45.9003 44.8285 46.2384C45.4713 47.0146 46.0713 46.8718 46.7666 46.4908C46.9142 48.6289 48.619 49.3337 49.7428 49.0908C48.2666 48.0098 48.1094 46.2956 48.0999 44.8051V32.4289C48.0999 31.2098 48.9428 29.0479 51.2571 29.0527C53.8428 29.0575 55.2809 32.4527 53.7618 34.2622C56.4047 39.1575 50.0904 41.6146 49.8999 37.9194C51.9571 39.6765 52.438 36.3908 50.738 36.2527C47.9666 36.0241 48.8142 42.0622 53.538 40.167C58.4333 38.1622 58.2094 28.0575 50.9856 27.867C49.3237 27.8241 47.7999 29.1432 46.8094 30.4289C46.038 29.667 45.238 29.4718 44.3571 30.4051M45.5094 35.967V31.6956C45.5094 30.8622 44.5475 30.6384 43.7666 30.686C44.538 29.4622 45.6761 29.0527 46.7713 29.9765C47.5047 28.9479 49.2999 27.5289 50.9904 27.5765C58.5523 27.6956 58.8809 38.5479 53.5333 40.4908C48.3571 42.3718 47.5523 35.7241 50.7904 35.9527C52.8999 36.1337 52.238 39.6575 50.338 38.5479C51.0809 40.7098 55.8142 38.4956 53.3999 34.2479C54.9999 32.6146 53.6094 29.3575 51.2523 29.3241C49.2571 29.2956 48.419 31.1718 48.4094 32.4384V44.4575C48.3856 46.586 48.6856 48.2432 50.4428 49.1718C48.6666 50.0051 46.8237 48.7956 46.4952 46.9765C45.7333 47.3003 44.9285 47.0765 44.2856 46.0432C44.9428 45.9575 45.5142 45.5241 45.5094 44.5098V37.6479L44.6285 36.8194L45.5094 35.9575V35.967Z" fill="#016538"></path><path d="M30.7095 11.3384L31.1143 12.0717L28.9 13.2955L29.2476 13.9289L31.2143 12.8431L31.6143 13.5717L29.6476 14.6574L30.1333 15.5336L29.2714 16.0098L27.6333 13.0431L30.7095 11.3431V11.3384Z" fill="white"></path><path d="M36.3001 12.6237L35.762 12.1523L33.8286 12.938L33.7715 13.6523L32.7905 14.0523L33.1334 10.2571L34.3905 9.74756L37.281 12.2285L36.3048 12.6237H36.3001ZM33.8953 12.1142L35.1334 11.6095L34.0143 10.6333L33.8953 12.1142Z" fill="white"></path><path d="M41.3476 10.1764L40.7619 7.81927L41.7095 7.58594L42.5238 10.8764L41.1286 11.224L38.6048 9.34784L39.1905 11.705L38.2381 11.9431L37.4238 8.6526L38.8238 8.30499L41.3476 10.1812V10.1764Z" fill="white"></path><path d="M46.1191 6.96208L50.2001 6.79541L50.2334 7.62874L48.6858 7.69065L48.7906 10.243L47.8096 10.2811L47.7049 7.72874L46.1525 7.79065L46.1191 6.95731V6.96208Z" fill="white"></path><path d="M51.3903 8.49526C51.4855 7.37622 52.3141 6.78098 53.7379 6.90479C55.1569 7.0286 55.876 7.75717 55.7807 8.87145C55.6855 9.9905 54.8522 10.5953 53.4331 10.4715C52.0093 10.3476 51.295 9.61907 51.3903 8.49526ZM54.7569 8.78574C54.8093 8.20003 54.5045 7.80955 53.6664 7.73812C52.8331 7.66669 52.4665 7.9905 52.4188 8.58574C52.3665 9.18098 52.676 9.57145 53.5045 9.64288C54.3379 9.71431 54.7093 9.38098 54.7617 8.7905L54.7569 8.78574Z" fill="white"></path><path d="M61.6239 8.36681L59.6334 9.38109L60.881 11.6763L59.6763 11.4049L58.8096 9.8049L57.862 10.2859L57.7096 10.9573L56.7524 10.7382L57.5001 7.42871L58.462 7.643L58.1286 9.12871L60.1953 8.03823L61.6334 8.36204L61.6239 8.36681Z" fill="white"></path><path d="M66.3286 9.99553L66.0667 10.7193L63.6858 9.85744L63.5 10.367L65.7905 11.1955L65.5286 11.9193L63.2381 11.0908L63.0524 11.6003L65.4334 12.4622L65.1715 13.186L61.8667 11.9908L63.0191 8.80029L66.3238 9.99553H66.3286Z" fill="white"></path><path d="M69.7621 14.3526L70.8764 12.1907L71.7478 12.6383L70.1907 15.6526L68.9097 14.9907L68.2478 11.9097L67.1335 14.0716L66.2573 13.6193L67.8145 10.605L69.1002 11.2669L69.7621 14.3478V14.3526Z" fill="white"></path><path d="M27.395 85.4763C27.2474 85.7192 27.395 86.0239 28.1569 86.4858C28.8569 86.9049 29.095 86.9001 29.2045 86.7192C29.3331 86.5097 29.2236 86.3906 28.395 85.8144C27.2665 85.024 26.8903 84.4763 27.276 83.8335C27.6426 83.2287 28.4617 83.3478 29.4665 83.9525C30.5855 84.6239 31.0236 85.3525 30.6617 86.0144L29.7807 85.4859C29.9331 85.2287 29.7141 84.962 29.0617 84.5716C28.4426 84.2001 28.2426 84.2192 28.1474 84.3763C28.0379 84.5573 28.1474 84.6954 28.895 85.2335C29.9141 85.9573 30.5617 86.4478 30.1045 87.2097C29.6569 87.9525 28.8379 87.7573 27.8045 87.1335C26.6284 86.4239 26.0903 85.7382 26.5093 84.9478L27.3903 85.4811L27.395 85.4763Z" fill="white"></path><path d="M31.5236 87.1909C31.9712 86.1576 32.9426 85.8623 34.2569 86.429C35.5664 86.9957 36.014 87.9147 35.5712 88.9433C35.1236 89.9766 34.1426 90.2814 32.8331 89.7147C31.5188 89.148 31.0759 88.229 31.5236 87.1909ZM34.6283 88.5385C34.8616 87.9957 34.695 87.5338 33.9236 87.1957C33.1569 86.8623 32.7045 87.0576 32.4712 87.6004C32.2331 88.1481 32.4045 88.6147 33.1664 88.948C33.9331 89.2814 34.395 89.0814 34.6283 88.5338V88.5385Z" fill="white"></path><path d="M39.295 88.2146C40.495 88.5527 41.0331 89.2574 40.895 90.1241L39.8902 89.8431C39.9093 89.5241 39.6759 89.186 39.0712 89.0193C38.3712 88.8241 37.9378 89.0717 37.7759 89.6431C37.614 90.2193 37.8616 90.6622 38.5569 90.8574C39.1616 91.0241 39.5378 90.8574 39.6854 90.5669L40.6902 90.8479C40.3569 91.6669 39.5331 91.9955 38.3283 91.6622C37.0188 91.2955 36.4712 90.486 36.7807 89.3669C37.095 88.2527 37.9807 87.8479 39.2902 88.2146H39.295Z" fill="white"></path><path d="M43.3948 89.2289L42.7948 92.5623L41.8281 92.3861L42.4281 89.0527L43.3948 89.2289Z" fill="white"></path><path d="M44.4189 91.1481C44.5094 90.029 45.3332 89.4338 46.757 89.5481C48.176 89.6624 48.8999 90.3909 48.8046 91.5052C48.7141 92.6243 47.8856 93.229 46.4618 93.1147C45.0379 93.0005 44.3189 92.2719 44.4141 91.1481H44.4189ZM47.7856 91.4243C47.8332 90.8386 47.5284 90.4528 46.6903 90.3814C45.857 90.3148 45.4951 90.6433 45.4427 91.2338C45.3951 91.829 45.7046 92.2148 46.5332 92.2862C47.3665 92.3528 47.7379 92.0195 47.7856 91.4243Z" fill="white"></path><path d="M51.1188 92.048C51.1331 92.3337 51.4235 92.5051 52.314 92.4575C53.1283 92.4146 53.3235 92.2766 53.3093 92.0623C53.295 91.8146 53.1426 91.7813 52.1331 91.767C50.7569 91.7432 50.1331 91.5004 50.095 90.748C50.0569 90.0432 50.8045 89.6813 51.9759 89.6242C53.2807 89.5575 54.0521 89.9099 54.1188 90.6623L53.095 90.7146C53.0807 90.4146 52.7474 90.3194 51.9854 90.3575C51.2664 90.3956 51.1093 90.5242 51.1188 90.7051C51.1283 90.9146 51.295 90.9718 52.2188 91.0004C53.4664 91.0289 54.2807 91.0718 54.3283 91.9623C54.3712 92.8289 53.5854 93.1242 52.3807 93.1861C51.0093 93.2575 50.1759 92.9861 50.0854 92.0956L51.114 92.0432L51.1188 92.048Z" fill="white"></path><path d="M55.7426 92.0429L56.6806 91.9048L56.7854 92.6334L55.8473 92.7715L55.7378 92.0429H55.7426Z" fill="white"></path><path d="M59.4808 88.5382C60.6951 88.243 61.5094 88.5953 61.8141 89.4191L60.7999 89.6668C60.6618 89.3763 60.2903 89.2001 59.6808 89.3477C58.9761 89.5192 58.7189 89.9477 58.857 90.5287C58.9999 91.1096 59.4332 91.3763 60.1332 91.2049C60.7427 91.0572 60.9903 90.7239 60.9761 90.3953L61.9903 90.1477C62.0999 91.0239 61.5427 91.7191 60.3284 92.0144C59.0046 92.3382 58.1284 91.9001 57.8522 90.7715C57.576 89.6477 58.1522 88.862 59.4761 88.5382H59.4808Z" fill="white"></path><path d="M63.1522 89.3956C62.7379 88.348 63.2189 87.448 64.5474 86.9242C65.8712 86.4003 66.8427 86.7337 67.2522 87.7765C67.6665 88.8242 67.1855 89.7337 65.8617 90.2575C64.5331 90.7813 63.5665 90.448 63.1522 89.3956ZM66.2998 88.1527C66.0855 87.6051 65.6379 87.3908 64.857 87.7003C64.0808 88.0051 63.8951 88.4622 64.1141 89.0146C64.3331 89.5718 64.7855 89.7813 65.557 89.4765C66.3331 89.1718 66.5189 88.7051 66.2998 88.1527Z" fill="white"></path><path d="M69.3381 88.6907L67.6333 85.7574L68.9571 84.986L71.1095 86.3383L70.9952 83.8002L72.319 83.0288L74.0238 85.9621L73.1762 86.4526L71.9428 84.3288L72.0762 87.0955L71.2904 87.5526L68.9524 86.0717L70.1904 88.1955L69.3381 88.6907Z" fill="white"></path><path d="M23.019 81.8382C13.9952 74.1811 8.2666 62.7573 8.2666 50.0001C8.2666 37.243 14.2999 25.2144 23.738 17.562" stroke="white" stroke-miterlimit="10"></path><path d="M76.2666 17.5669C85.7047 25.2193 91.7333 36.905 91.7333 50.0002C91.7333 63.0955 86.0047 74.1859 76.9809 81.8431" stroke="white" stroke-miterlimit="10"></path></g><defs><clipPath id="clip0_101_22058"><rect width="100" height="100" fill="white"></rect></clipPath></defs></svg>