<svg xmlns="http://www.w3.org/2000/svg" width="100" height="100" viewBox="0 0 100 100" fill="none"><g clip-path="url(#clip0_101_22055)"><path d="M50 100C77.6142 100 100 77.6142 100 50C100 22.3858 77.6142 0 50 0C22.3858 0 0 22.3858 0 50C0 77.6142 22.3858 100 50 100Z" fill="#005596"></path><path d="M49.9999 98.7333C76.9146 98.7333 98.7333 76.9146 98.7333 49.9999C98.7333 23.0853 76.9146 1.2666 49.9999 1.2666C23.0853 1.2666 1.2666 23.0853 1.2666 49.9999C1.2666 76.9146 23.0853 98.7333 49.9999 98.7333Z" fill="#005596"></path><path d="M50 2.53333C76.1714 2.53333 97.4667 23.8286 97.4667 50C97.4667 76.1714 76.1714 97.4667 50 97.4667C23.8286 97.4667 2.53333 76.1714 2.53333 50C2.53333 23.8286 23.8286 2.53333 50 2.53333ZM50 0C22.3857 0 0 22.3857 0 50C0 77.6143 22.3857 100 50 100C77.6143 100 100 77.6143 100 50C100 22.3857 77.6143 0 50 0Z" fill="#005596"></path><path d="M50 100C77.6142 100 100 77.6142 100 50C100 22.3858 77.6142 0 50 0C22.3858 0 0 22.3858 0 50C0 77.6142 22.3858 100 50 100Z" fill="#F9CC11"></path><path d="M50 2.53333C76.1714 2.53333 97.4667 23.8286 97.4667 50C97.4667 76.1714 76.1714 97.4667 50 97.4667C23.8286 97.4667 2.53333 76.1714 2.53333 50C2.53333 23.8286 23.8286 2.53333 50 2.53333ZM50 0C22.3857 0 0 22.3857 0 50C0 77.6143 22.3857 100 50 100C77.6143 100 100 77.6143 100 50C100 22.3857 77.6143 0 50 0Z" fill="black"></path><path fill-rule="evenodd" clip-rule="evenodd" d="M49.9998 16.8047C68.3427 16.8047 83.2188 31.6714 83.2188 49.9999C83.2188 68.3285 68.3427 83.1952 49.9998 83.1952C31.6569 83.1952 16.7808 68.3285 16.7808 49.9999C16.7808 31.6714 31.6569 16.8047 49.9998 16.8047Z" fill="#F9CC11"></path><path fill-rule="evenodd" clip-rule="evenodd" d="M49.9999 16.519C68.4999 16.519 83.5046 31.5095 83.5046 50C83.5046 68.4857 68.4999 83.4809 49.9999 83.4809C31.4999 83.4809 16.4951 68.4857 16.4951 50C16.4951 31.5143 31.4999 16.519 49.9999 16.519ZM49.9999 16.9C68.2904 16.9 83.1237 31.7238 83.1237 50C83.1237 68.2762 68.2904 83.1 49.9999 83.1C31.7094 83.1 16.8761 68.2762 16.8761 50C16.8761 31.7238 31.7094 16.9 49.9999 16.9Z" fill="black" stroke="black" stroke-miterlimit="10"></path><path fill-rule="evenodd" clip-rule="evenodd" d="M50 24.8667C63.8857 24.8667 75.1524 36.1238 75.1524 50C75.1524 63.881 63.8905 75.1334 50 75.1334C36.1096 75.1334 24.8477 63.8762 24.8477 50C24.8477 36.1238 36.1096 24.8667 50 24.8667Z" fill="black"></path><path fill-rule="evenodd" clip-rule="evenodd" d="M59.1287 51.4764V57.1764H59.581C59.9144 57.1764 59.9525 57.0573 59.9525 56.8811V51.8097C59.9525 51.5764 59.8858 51.4811 59.5858 51.4811H59.1287V51.4764ZM46.5048 61.1573L35.962 61.1383L32.1667 57.243V54.5811H35.1334V48.6383L27.6715 41.8621H25.4382L22.1763 38.4954V35.8335H39.0001L42.4191 39.543L42.4286 41.9573H41.3477L43.1048 43.5383L48.7572 39.4525L47.7715 38.5049V35.8335H58.0715L61.5906 38.2144L61.6001 42.0525H57.7715L53.1953 45.3621H61.362C66.4572 45.3621 72.4715 48.824 72.462 54.6573C72.4572 57.6335 71.3572 59.6525 69.0382 61.224C71.2858 62.7383 72.6334 64.9335 72.6239 67.8954C72.6144 70.5811 71.4239 72.843 69.481 74.3144C68.1096 75.3573 66.3477 76.043 64.4477 76.043H47.662L43.9096 72.1478V69.243H46.5096V61.1668L46.5048 61.1573ZM59.0906 63.4525V69.2335H59.581C59.7906 69.2335 59.9096 69.1383 59.9096 68.8621V63.9859C59.9001 63.5383 59.8239 63.4764 59.5334 63.4573H59.0858" fill="white"></path><path fill-rule="evenodd" clip-rule="evenodd" d="M58.6572 50.9998V57.6474H59.5953C60.1429 57.6474 60.4287 57.4569 60.4287 56.895V51.7903C60.4287 51.1855 60.1906 50.9998 59.6001 50.9998H58.6572ZM46.9858 60.6808L36.1667 60.6617L32.6477 57.0474V55.0522H35.6144V48.4236L27.8572 41.3808H25.6429L22.6572 38.295V36.2998H38.8001L41.9525 39.7189V41.4712L40.1144 41.4617L43.0763 44.1379L49.5001 39.495L48.2525 38.295V36.2998H57.9334L61.1239 38.4569V41.5665H57.6239L51.7334 45.8189H61.362C65.8191 45.8189 72.0048 48.8427 71.9906 54.6427C71.981 58.2617 70.2953 59.8189 68.2477 61.176C68.8668 61.8474 72.1334 63.1855 72.1525 67.876C72.1763 72.576 68.2239 75.5474 64.4477 75.5474H47.8715L44.3906 71.9331V69.6903H46.9906V60.6665L46.9858 60.6808ZM58.6191 62.9712V69.6998H59.6001C60.1953 69.6998 60.3906 69.4569 60.3906 68.8617V63.9617C60.3906 63.376 60.1906 62.9712 59.562 62.9712H58.6191Z" fill="black"></path><path fill-rule="evenodd" clip-rule="evenodd" d="M55.338 47.8048V57.8381H59.6046C60.4332 57.8381 60.6189 57.3619 60.6189 56.9V48.7809C60.6189 48.0286 60.2332 47.8048 59.6046 47.8048H55.338ZM55.338 59.7V69.8952H59.6046C60.2903 69.8952 60.6189 69.5571 60.6189 68.8714V60.8762C60.6189 60.1143 60.2856 59.7 59.6046 59.7H55.338ZM47.1713 69.8952V47.8048H45.2237V46.019H61.3475C65.6427 46.019 68.8903 48.4286 69.0237 52.9333C69.0951 55.2619 67.738 57.6857 65.6475 58.9905C67.638 60.319 69.1189 61.6286 69.1046 65.0857C69.0856 69.2905 65.2618 71.7571 62.3618 71.7571H44.5713V69.8952H47.1713Z" fill="#F9CC11"></path><path fill-rule="evenodd" clip-rule="evenodd" d="M43.7618 46.119V55.2476H45.6285V56.8619H32.8332V55.2476H35.7999V48.0048L26.7094 39.7905L24.8571 38.1143H22.8428V36.5H38.6047V38.1143H36.1142L43.0571 44.3905L51.719 38.1143H48.438V36.5H57.738V38.1143H54.8142L43.7666 46.119" fill="#F9CC11"></path><path fill-rule="evenodd" clip-rule="evenodd" d="M49.9998 26.8667L50.8331 29.4286H53.5283L51.3474 31.0143L52.1807 33.5762L49.9998 31.9905L47.8188 33.5762L48.6521 31.0143L46.4712 29.4286H49.1664L49.9998 26.8667Z" fill="#F9CC11"></path><path fill-rule="evenodd" clip-rule="evenodd" d="M44.9334 80.8667L44.2715 80.7524L44.7001 78.2429C44.4191 78.4238 44.1191 78.5048 43.7524 78.5L43.8524 77.9143C44.3429 77.9 44.8429 77.6191 44.9763 77.3857L45.5143 77.4762L44.9334 80.8619" fill="black"></path><path fill-rule="evenodd" clip-rule="evenodd" d="M50.0905 80.443L50.7763 80.3716C50.8239 80.6097 51.1382 80.7382 51.4572 80.7001C52.1001 80.624 52.1429 80.143 52.162 79.7097C51.9572 79.9097 51.6001 80.0192 51.2763 80.0287C50.9286 80.043 50.6191 79.9525 50.3572 79.7573C50.0953 79.562 49.9524 79.2954 49.9382 78.9621C49.9239 78.6144 50.0429 78.3287 50.3048 78.1049C50.562 77.8811 50.8382 77.762 51.2477 77.743C52.3524 77.7001 52.762 78.4335 52.8048 79.4239C52.8524 80.4811 52.5334 81.1906 51.381 81.2382C50.7905 81.262 50.2477 80.9478 50.0858 80.4382L50.0905 80.443ZM52.062 78.9097C52.0429 78.4811 51.7143 78.2716 51.3001 78.2906C50.8858 78.3049 50.6239 78.543 50.6429 78.9287C50.662 79.3144 50.9667 79.562 51.4048 79.543C51.7858 79.5287 52.0858 79.3097 52.0667 78.9097" fill="black"></path><path fill-rule="evenodd" clip-rule="evenodd" d="M47.1902 79.295C46.9712 79.2188 46.8141 79.1188 46.7188 78.995C46.6188 78.8712 46.5712 78.7331 46.576 78.5807C46.576 78.3284 46.695 78.1188 46.9236 77.9522C47.1521 77.7855 47.4807 77.7093 47.8998 77.7141C48.3188 77.7141 48.6379 77.8046 48.8664 77.976C49.095 78.1426 49.2093 78.3569 49.2093 78.6093C49.2093 78.7665 49.1521 78.9093 49.0474 79.0331C48.9426 79.1569 48.7902 79.2474 48.5998 79.3141C48.8426 79.3903 49.0283 79.5046 49.1521 79.6522C49.276 79.7998 49.3379 79.9665 49.3379 80.1617C49.3379 80.476 49.2045 80.7331 48.9474 80.9284C48.6855 81.1236 48.3426 81.2188 47.9141 81.2141C47.5141 81.2141 47.1855 81.1236 46.9188 80.9569C46.6045 80.7617 46.4521 80.495 46.4521 80.1569C46.4521 79.9712 46.5141 79.8046 46.6331 79.6474C46.7521 79.495 46.9379 79.376 47.1902 79.295ZM47.2236 78.595C47.2236 78.9474 47.6093 79.0522 47.8902 79.0569C48.1712 79.0569 48.5426 78.9522 48.5474 78.6141C48.5474 78.2855 48.176 78.1855 47.9045 78.1807C47.6331 78.1807 47.2283 78.2617 47.2236 78.595ZM47.095 80.1188C47.095 80.5665 47.5141 80.695 47.9045 80.6998C48.2807 80.6998 48.6664 80.5379 48.6664 80.1284C48.6664 79.7331 48.2426 79.5855 47.8998 79.5807C47.5569 79.5807 47.0998 79.7188 47.095 80.1188Z" fill="black"></path><path fill-rule="evenodd" clip-rule="evenodd" d="M54.2714 78.9762C54.0428 78.9429 53.8714 78.8714 53.7571 78.7619C53.638 78.6572 53.5666 78.5286 53.5428 78.381C53.4999 78.1286 53.5761 77.9048 53.7761 77.7C53.9761 77.4953 54.2809 77.3619 54.6952 77.2953C55.1047 77.2286 55.438 77.2572 55.6952 77.381C55.9523 77.5048 56.0999 77.6953 56.1428 77.9476C56.1714 78.1048 56.1428 78.2524 56.0571 78.3905C55.9761 78.5286 55.8428 78.6476 55.6666 78.7429C55.919 78.7762 56.119 78.8572 56.2714 78.981C56.419 79.1048 56.5095 79.2619 56.5428 79.4476C56.5952 79.7572 56.5095 80.0334 56.2904 80.2714C56.0666 80.5095 55.7476 80.6619 55.3237 80.7333C54.9285 80.8 54.5904 80.7714 54.2999 80.6572C53.9571 80.5191 53.7571 80.281 53.7047 79.9524C53.6714 79.7714 53.7047 79.5953 53.7952 79.4191C53.8857 79.2476 54.0476 79.1 54.2856 78.9762H54.2714ZM54.1809 78.281C54.238 78.6238 54.638 78.6667 54.919 78.6191C55.1952 78.5714 55.5428 78.4 55.4856 78.0667C55.4333 77.7429 55.0428 77.7095 54.7761 77.7524C54.5095 77.7953 54.1237 77.9524 54.1809 78.2762V78.281ZM54.319 79.8048C54.3952 80.2476 54.8333 80.3 55.2142 80.2333C55.5856 80.1714 55.938 79.9429 55.8666 79.5381C55.7999 79.1476 55.3523 79.0762 55.0142 79.1333C54.6809 79.1905 54.2523 79.4095 54.319 79.8048Z" fill="black"></path><path fill-rule="evenodd" clip-rule="evenodd" d="M25.8237 31.1526L25.1475 31.9717L25.7189 32.4431L26.3951 31.624C26.5475 31.4383 26.6332 31.2955 26.6475 31.1907C26.6618 31.0859 26.6189 30.9907 26.5142 30.9098C26.4142 30.824 26.3094 30.8002 26.1999 30.8383C26.0951 30.8764 25.9713 30.9812 25.8237 31.1526ZM26.8237 33.3574L27.5856 32.4383C27.7427 32.2526 27.8237 32.105 27.8332 32.0002C27.8427 31.8955 27.7951 31.7955 27.6808 31.705C27.5665 31.6098 27.457 31.5812 27.3427 31.6145C27.2332 31.6479 27.1046 31.7526 26.9618 31.924L26.1999 32.8431L26.8189 33.3574H26.8237ZM26.7999 34.505L24.0332 32.2145L25.5142 30.4288C25.7713 30.1193 26.0189 29.9336 26.2665 29.8764C26.5094 29.8145 26.7475 29.8812 26.9761 30.0717C27.1094 30.1812 27.2046 30.3145 27.2522 30.4621C27.2999 30.6098 27.3094 30.7717 27.2665 30.9479C27.4475 30.8288 27.6332 30.7812 27.8142 30.7955C27.9951 30.8098 28.1761 30.8907 28.3475 31.0336C28.5903 31.2383 28.7189 31.4764 28.7284 31.7526C28.738 32.0288 28.6237 32.305 28.3903 32.5859L26.7951 34.5098" fill="black"></path><path fill-rule="evenodd" clip-rule="evenodd" d="M28.8334 30.3238L29.5048 29.6953L29.5286 29.7191C29.6667 29.8667 29.8381 29.9191 30.0381 29.8762C30.2429 29.8334 30.4667 29.6953 30.7143 29.4619C30.9048 29.281 31.0286 29.1191 31.081 28.9619C31.1334 28.8095 31.1096 28.681 31.0143 28.5762C30.9334 28.4905 30.8381 28.4572 30.7334 28.481C30.6286 28.5048 30.462 28.6 30.2334 28.7714L29.7239 29.1619C29.3477 29.4429 29.0286 29.6 28.7524 29.6286C28.481 29.6572 28.2429 29.5667 28.0381 29.3476C27.8 29.0905 27.7191 28.7715 27.7953 28.3953C27.8762 28.0191 28.1048 27.6524 28.4858 27.2953C28.8953 26.9143 29.2858 26.6905 29.662 26.6286C30.0381 26.5667 30.3477 26.6667 30.5953 26.9286L30.6143 26.9476L29.9619 27.5572C29.8239 27.4381 29.6715 27.4 29.5048 27.4334C29.3381 27.4667 29.1524 27.581 28.9524 27.7667C28.7667 27.9381 28.6477 28.1 28.5953 28.2476C28.5429 28.3953 28.5619 28.5191 28.6524 28.6143C28.7239 28.6905 28.8048 28.7191 28.9 28.7C28.9953 28.681 29.1667 28.5714 29.4286 28.381L29.9667 27.9762C30.3381 27.7 30.6572 27.5524 30.9334 27.5286C31.2096 27.5048 31.4524 27.6095 31.6619 27.8381C31.9334 28.1286 32.0239 28.4619 31.9286 28.8334C31.8334 29.2048 31.5572 29.6048 31.1 30.0334C30.6667 30.4381 30.2572 30.6714 29.8715 30.7286C29.4858 30.7857 29.1572 30.6667 28.881 30.3714L28.8286 30.3143" fill="black"></path><path fill-rule="evenodd" clip-rule="evenodd" d="M35.6998 24.9716C35.9189 25.3668 35.9522 25.7859 35.7998 26.2192C35.6474 26.6526 35.3331 27.0383 34.8569 27.3716C34.3189 27.7478 33.795 27.9049 33.276 27.8478C32.7617 27.7907 32.3379 27.5287 32.0093 27.0573C31.6808 26.5859 31.576 26.1002 31.6998 25.5954C31.8236 25.0907 32.1522 24.6526 32.6903 24.2764C33.157 23.9478 33.6236 23.7811 34.076 23.7764C34.5331 23.7764 34.895 23.9287 35.176 24.2478L34.3712 24.8097C34.195 24.6621 34.0046 24.5954 33.7903 24.6097C33.576 24.624 33.3522 24.7145 33.1093 24.8811C32.8141 25.0859 32.6427 25.3335 32.5903 25.6192C32.5379 25.9049 32.6141 26.1954 32.8189 26.4907C33.0236 26.7811 33.2665 26.9526 33.5569 27.0002C33.8427 27.0478 34.1331 26.9716 34.4331 26.7621C34.6903 26.5811 34.857 26.3859 34.9379 26.1668C35.0189 25.9526 35.0046 25.7383 34.895 25.5287L35.6998 24.9621" fill="black"></path><path fill-rule="evenodd" clip-rule="evenodd" d="M39.919 24.7713L39.4666 23.3094L37.3618 21.8046L38.4523 21.4665L39.6856 22.4284L40.1523 20.9427L41.238 20.6094L40.319 23.0427L40.7713 24.5046L39.9142 24.7713" fill="black"></path><path fill-rule="evenodd" clip-rule="evenodd" d="M44.0379 22.9239C44.3903 22.8429 44.6427 22.681 44.7951 22.4334C44.9522 22.1858 44.9903 21.8906 44.9093 21.5477C44.8284 21.2001 44.6665 20.9477 44.4189 20.7953C44.1713 20.6429 43.8713 20.6049 43.5236 20.6858C43.176 20.7668 42.9189 20.9287 42.7617 21.1763C42.6046 21.4239 42.5665 21.7191 42.6474 22.0668C42.7284 22.4144 42.8903 22.662 43.1379 22.8144C43.3855 22.9668 43.6855 23.0001 44.0379 22.9191V22.9239ZM41.6808 22.2906C41.5522 21.7334 41.6379 21.2429 41.9427 20.8191C42.2474 20.3953 42.7141 20.1144 43.3522 19.9668C43.9903 19.8191 44.5379 19.8668 44.9951 20.1144C45.4522 20.362 45.7427 20.762 45.8713 21.3239C45.9998 21.881 45.9141 22.3715 45.6141 22.7906C45.3141 23.2096 44.8427 23.4953 44.2046 23.6429C43.5665 23.7906 43.0189 23.7429 42.5617 23.4953C42.1046 23.2477 41.8141 22.8477 41.6808 22.2906Z" fill="black"></path><path fill-rule="evenodd" clip-rule="evenodd" d="M47.1378 19.5093L47.2711 21.4331C47.2949 21.7855 47.3902 22.0379 47.5473 22.1855C47.7045 22.3331 47.9521 22.3998 48.2759 22.376C48.4521 22.3617 48.5997 22.3284 48.7283 22.2712C48.8521 22.2141 48.9521 22.1331 49.0235 22.0284C49.0806 21.9474 49.1187 21.8569 49.1378 21.7617C49.1568 21.6617 49.1616 21.5093 49.1473 21.3046L49.014 19.3808L49.9045 19.3188L50.0473 21.3379C50.0854 21.8808 49.9568 22.3046 49.6664 22.6046C49.3759 22.9093 48.9283 23.0808 48.3283 23.1236C47.7283 23.1665 47.2616 23.0569 46.933 22.7998C46.6045 22.5427 46.4187 22.1427 46.3807 21.5998L46.2378 19.5808L47.133 19.5188" fill="black"></path><path fill-rule="evenodd" clip-rule="evenodd" d="M50.4141 22.8667L50.6664 19.2905L51.7664 19.3667L53.3807 22.0143L53.5569 19.4905L54.4188 19.5524L54.1664 23.1334L53.076 23.0572L51.4474 20.381L51.2712 22.9286L50.4141 22.8667Z" fill="black"></path><path fill-rule="evenodd" clip-rule="evenodd" d="M56.2952 23.7999C56.0238 23.738 55.7809 23.6428 55.5571 23.5095C55.3333 23.3809 55.1476 23.2237 55.0047 23.0428C54.8238 22.819 54.7095 22.5809 54.6524 22.3237C54.5952 22.0666 54.6047 21.7904 54.6762 21.4904C54.8047 20.9333 55.1 20.5285 55.5571 20.2809C56.0143 20.0333 56.5619 19.9856 57.2 20.1333C57.7381 20.2571 58.1619 20.4809 58.4619 20.8047C58.7666 21.1285 58.9 21.4904 58.8619 21.8904L57.9095 21.6714C57.8762 21.4571 57.7857 21.2856 57.6381 21.1475C57.4904 21.0142 57.2904 20.9142 57.0333 20.8523C56.6857 20.7714 56.3857 20.8095 56.1333 20.9618C55.8857 21.1142 55.719 21.3666 55.6381 21.7142C55.5571 22.0618 55.5952 22.3571 55.7524 22.6047C55.9095 22.8523 56.1619 23.0142 56.5143 23.0952C56.7524 23.1523 57.219 23.1999 57.7095 23.1618L57.8 22.7761L56.6285 22.5095L56.7905 21.8142L58.7666 22.2761L58.3857 23.7809C58.119 23.8571 57.8095 23.8999 57.4619 23.9142C57.0714 23.9333 56.6428 23.8904 56.3 23.8142" fill="black"></path><path fill-rule="evenodd" clip-rule="evenodd" d="M63.4096 23.2093L62.4524 22.7427L62.1286 23.4093L63.0857 23.876C63.3 23.9808 63.4619 24.0284 63.5667 24.0189C63.6715 24.0093 63.7524 23.9427 63.8096 23.8236C63.8667 23.7046 63.8667 23.5998 63.8096 23.5046C63.7477 23.4093 63.6191 23.3141 63.4143 23.2141L63.4096 23.2093ZM61.5 24.6998L62.5762 25.2236C62.7953 25.3284 62.9572 25.376 63.0619 25.3617C63.1667 25.3474 63.2477 25.276 63.3143 25.1427C63.3762 25.0141 63.381 24.8951 63.3238 24.7951C63.2667 24.6951 63.1334 24.5951 62.9334 24.4951L61.8572 23.9713L61.5048 24.6951L61.5 24.6998ZM60.3762 24.9474L61.9477 21.7236L64.0334 22.7427C64.3953 22.9189 64.6334 23.1189 64.7477 23.3427C64.8619 23.5665 64.8572 23.8093 64.7238 24.076C64.6477 24.2332 64.5429 24.3522 64.4096 24.4379C64.2762 24.5236 64.1191 24.5665 63.9381 24.5713C64.0953 24.7189 64.1905 24.8855 64.2191 25.0665C64.2477 25.2474 64.2143 25.4379 64.1143 25.6379C63.9762 25.9236 63.7715 26.1046 63.5048 26.176C63.2381 26.2474 62.9429 26.2046 62.6143 26.0474L60.3667 24.9522" fill="black"></path><path fill-rule="evenodd" clip-rule="evenodd" d="M66.1809 27.4474C66.4761 27.6522 66.7666 27.7332 67.0523 27.6808C67.338 27.6332 67.5856 27.4617 67.7904 27.1713C67.9952 26.876 68.0713 26.5855 68.0237 26.2998C67.9713 26.0141 67.7999 25.7665 67.5047 25.5617C67.2094 25.357 66.919 25.276 66.6332 25.3284C66.3475 25.376 66.0999 25.5474 65.8952 25.8427C65.6904 26.1332 65.6142 26.4236 65.6666 26.7093C65.719 26.9951 65.8952 27.2427 66.1904 27.4474H66.1809ZM65.0761 25.276C65.4047 24.8046 65.8285 24.5427 66.3428 24.4855C66.8571 24.4284 67.3856 24.5855 67.9237 24.9617C68.4618 25.3379 68.7904 25.776 68.9094 26.2808C69.0333 26.7855 68.9285 27.2713 68.5952 27.7427C68.2666 28.2141 67.8428 28.476 67.3285 28.5332C66.8142 28.5903 66.2856 28.4332 65.7523 28.057C65.2142 27.6808 64.8856 27.2427 64.7618 26.7379C64.638 26.2332 64.7428 25.7474 65.0713 25.276" fill="black"></path><path fill-rule="evenodd" clip-rule="evenodd" d="M68.4619 30.0474L69.5048 28.9284L69.7619 26.3569L70.6 27.1379L70.381 28.6855L71.9048 28.3522L72.7381 29.1284L70.1667 29.5426L69.1238 30.6617L68.4667 30.0474" fill="black"></path><path fill-rule="evenodd" clip-rule="evenodd" d="M71.5189 30.9714L72.0951 31.6857L72.0665 31.7048C71.9094 31.8333 71.8475 32 71.876 32.2048C71.9046 32.4095 72.0284 32.6429 72.2427 32.9095C72.4094 33.1143 72.5665 33.2476 72.7141 33.3095C72.8617 33.3714 72.9903 33.3571 73.0998 33.2714C73.1903 33.1952 73.2284 33.1048 73.2141 33C73.1998 32.8905 73.1141 32.7191 72.957 32.481L72.6046 31.9476C72.3475 31.5524 72.2141 31.2238 72.2046 30.9476C72.1951 30.6762 72.3046 30.4429 72.5332 30.2571C72.8046 30.0333 73.1284 29.9762 73.4998 30.0857C73.8713 30.1905 74.2189 30.4476 74.5475 30.8524C74.8998 31.2857 75.0951 31.6905 75.1332 32.0714C75.1713 32.4476 75.0475 32.7524 74.7665 32.981L74.7427 33L74.1808 32.3048C74.3094 32.1762 74.357 32.0238 74.3379 31.8571C74.3141 31.6857 74.2189 31.4952 74.0475 31.2857C73.8903 31.0905 73.7379 30.9619 73.5951 30.8952C73.4522 30.8333 73.3284 30.8429 73.2284 30.9238C73.1475 30.9905 73.1141 31.0714 73.1284 31.1619C73.1427 31.2571 73.2379 31.4381 73.4094 31.7095L73.776 32.2714C74.0284 32.6619 74.1522 32.9905 74.157 33.2667C74.157 33.5429 74.0427 33.7762 73.7998 33.9714C73.4903 34.2238 73.1522 34.2857 72.7856 34.1667C72.4189 34.0476 72.0427 33.7429 71.6475 33.2571C71.2713 32.7952 71.0713 32.3714 71.0379 31.9857C71.0046 31.6 71.1475 31.281 71.4618 31.0238L71.5189 30.9762" fill="black"></path><path d="M30.7095 11.3384L31.1143 12.0717L28.9 13.2955L29.2476 13.9289L31.2143 12.8431L31.6143 13.5717L29.6476 14.6574L30.1333 15.5336L29.2714 16.0098L27.6333 13.0431L30.7095 11.3431V11.3384Z" fill="black"></path><path d="M36.3001 12.6237L35.762 12.1523L33.8286 12.938L33.7715 13.6523L32.7905 14.0523L33.1334 10.2571L34.3905 9.74756L37.281 12.2285L36.3048 12.6237H36.3001ZM33.8953 12.1142L35.1334 11.6095L34.0143 10.6333L33.8953 12.1142Z" fill="black"></path><path d="M41.3476 10.1764L40.7619 7.81927L41.7095 7.58594L42.5238 10.8764L41.1286 11.224L38.6048 9.34784L39.1905 11.705L38.2381 11.9431L37.4238 8.6526L38.8238 8.30499L41.3476 10.1812V10.1764Z" fill="black"></path><path d="M46.1191 6.96208L50.2001 6.79541L50.2334 7.62874L48.6858 7.69065L48.7906 10.243L47.8096 10.2811L47.7049 7.72874L46.1525 7.79065L46.1191 6.95731V6.96208Z" fill="black"></path><path d="M51.3903 8.49526C51.4855 7.37622 52.3141 6.78098 53.7379 6.90479C55.1569 7.0286 55.876 7.75717 55.7807 8.87145C55.6855 9.9905 54.8522 10.5953 53.4331 10.4715C52.0093 10.3476 51.295 9.61907 51.3903 8.49526ZM54.7569 8.78574C54.8093 8.20003 54.5045 7.80955 53.6664 7.73812C52.8331 7.66669 52.4665 7.9905 52.4188 8.58574C52.3665 9.18098 52.676 9.57145 53.5045 9.64288C54.3379 9.71431 54.7093 9.38098 54.7617 8.7905L54.7569 8.78574Z" fill="black"></path><path d="M61.6239 8.36681L59.6334 9.38109L60.881 11.6763L59.6763 11.4049L58.8096 9.8049L57.862 10.2859L57.7096 10.9573L56.7524 10.7382L57.5001 7.42871L58.462 7.643L58.1286 9.12871L60.1953 8.03823L61.6334 8.36204L61.6239 8.36681Z" fill="black"></path><path d="M66.3286 9.99553L66.0667 10.7193L63.6858 9.85744L63.5 10.367L65.7905 11.1955L65.5286 11.9193L63.2381 11.0908L63.0524 11.6003L65.4334 12.4622L65.1715 13.186L61.8667 11.9908L63.0191 8.80029L66.3238 9.99553H66.3286Z" fill="black"></path><path d="M69.7621 14.3526L70.8764 12.1907L71.7478 12.6383L70.1907 15.6526L68.9097 14.9907L68.2478 11.9097L67.1335 14.0716L66.2573 13.6193L67.8145 10.605L69.1002 11.2669L69.7621 14.3478V14.3526Z" fill="black"></path><path d="M27.395 85.4763C27.2474 85.7192 27.395 86.0239 28.1569 86.4858C28.8569 86.9049 29.095 86.9001 29.2045 86.7192C29.3331 86.5097 29.2236 86.3906 28.395 85.8144C27.2665 85.024 26.8903 84.4763 27.276 83.8335C27.6426 83.2287 28.4617 83.3478 29.4665 83.9525C30.5855 84.6239 31.0236 85.3525 30.6617 86.0144L29.7807 85.4859C29.9331 85.2287 29.7141 84.962 29.0617 84.5716C28.4426 84.2001 28.2426 84.2192 28.1474 84.3763C28.0379 84.5573 28.1474 84.6954 28.895 85.2335C29.9141 85.9573 30.5617 86.4478 30.1045 87.2097C29.6569 87.9525 28.8379 87.7573 27.8045 87.1335C26.6284 86.4239 26.0903 85.7382 26.5093 84.9478L27.3903 85.4811L27.395 85.4763Z" fill="black"></path><path d="M31.5236 87.1909C31.9712 86.1576 32.9426 85.8623 34.2569 86.429C35.5664 86.9957 36.014 87.9147 35.5712 88.9433C35.1236 89.9766 34.1426 90.2814 32.8331 89.7147C31.5188 89.148 31.0759 88.229 31.5236 87.1909ZM34.6283 88.5385C34.8616 87.9957 34.695 87.5338 33.9236 87.1957C33.1569 86.8623 32.7045 87.0576 32.4712 87.6004C32.2331 88.1481 32.4045 88.6147 33.1664 88.948C33.9331 89.2814 34.395 89.0814 34.6283 88.5338V88.5385Z" fill="black"></path><path d="M39.3047 88.2194C40.5047 88.5575 41.0428 89.2623 40.9047 90.129L39.9 89.848C39.919 89.529 39.6857 89.1909 39.0809 89.0242C38.3809 88.829 37.9476 89.0766 37.7857 89.648C37.6238 90.2242 37.8714 90.6671 38.5666 90.8623C39.1714 91.029 39.5476 90.8623 39.6952 90.5718L40.7 90.8528C40.3666 91.6718 39.5428 92.0004 38.3381 91.6671C37.0285 91.3004 36.4809 90.4909 36.7905 89.3718C37.1047 88.2575 37.9905 87.8528 39.3 88.2194H39.3047Z" fill="black"></path><path d="M43.3948 89.2289L42.7948 92.5623L41.8281 92.3861L42.4281 89.0527L43.3948 89.2289Z" fill="black"></path><path d="M44.4189 91.1481C44.5094 90.029 45.3332 89.4338 46.757 89.5481C48.176 89.6624 48.8999 90.3909 48.8046 91.5052C48.7141 92.6243 47.8856 93.229 46.4618 93.1147C45.0379 93.0005 44.3189 92.2719 44.4141 91.1481H44.4189ZM47.7856 91.4243C47.8332 90.8386 47.5284 90.4528 46.6903 90.3814C45.857 90.3148 45.4951 90.6433 45.4427 91.2338C45.3951 91.829 45.7046 92.2148 46.5332 92.2862C47.3665 92.3528 47.7379 92.0195 47.7856 91.4243Z" fill="black"></path><path d="M51.1188 92.048C51.1331 92.3337 51.4235 92.5051 52.314 92.4575C53.1283 92.4146 53.3235 92.2766 53.3093 92.0623C53.295 91.8146 53.1426 91.7813 52.1331 91.767C50.7569 91.7432 50.1331 91.5004 50.095 90.748C50.0569 90.0432 50.8045 89.6813 51.9759 89.6242C53.2807 89.5575 54.0521 89.9099 54.1188 90.6623L53.095 90.7146C53.0807 90.4146 52.7474 90.3194 51.9854 90.3575C51.2664 90.3956 51.1093 90.5242 51.1188 90.7051C51.1283 90.9146 51.295 90.9718 52.2188 91.0004C53.4664 91.0289 54.2807 91.0718 54.3283 91.9623C54.3712 92.8289 53.5854 93.1242 52.3807 93.1861C51.0093 93.2575 50.1759 92.9861 50.0854 92.0956L51.114 92.0432L51.1188 92.048Z" fill="black"></path><path d="M55.7426 92.0429L56.6806 91.9048L56.7854 92.6334L55.8473 92.7715L55.7378 92.0429H55.7426Z" fill="black"></path><path d="M59.4808 88.5338C60.6951 88.2386 61.5094 88.5909 61.8141 89.4148L60.7999 89.6624C60.6618 89.3719 60.2903 89.1957 59.6808 89.3433C58.9761 89.5148 58.7189 89.9433 58.857 90.5243C58.9999 91.1052 59.4332 91.3719 60.1332 91.2005C60.7427 91.0528 60.9903 90.7195 60.9761 90.3909L61.9903 90.1433C62.0999 91.0195 61.5427 91.7148 60.3284 92.01C59.0046 92.3338 58.1284 91.8957 57.8522 90.7671C57.576 89.6433 58.1522 88.8576 59.4761 88.5338H59.4808Z" fill="black"></path><path d="M63.1522 89.3907C62.7379 88.3431 63.2189 87.4431 64.5474 86.9193C65.8712 86.3955 66.8427 86.7288 67.2522 87.7717C67.6665 88.8193 67.1855 89.7288 65.8617 90.2526C64.5331 90.7764 63.5665 90.4431 63.1522 89.3907ZM66.2998 88.1478C66.0855 87.6002 65.6379 87.3859 64.857 87.6955C64.0808 88.0002 63.8951 88.4574 64.1141 89.0097C64.3331 89.5669 64.7855 89.7764 65.557 89.4717C66.3331 89.1669 66.5189 88.7002 66.2998 88.1478Z" fill="black"></path><path d="M69.3381 88.6907L67.6333 85.7574L68.9571 84.986L71.1095 86.3383L70.9952 83.8002L72.319 83.0288L74.0238 85.9621L73.1762 86.4526L71.9428 84.3288L72.0762 87.0955L71.2904 87.5526L68.9524 86.0717L70.1904 88.1955L69.3381 88.6907Z" fill="black"></path><path d="M23.019 81.8382C13.9952 74.1811 8.2666 62.7573 8.2666 50.0001C8.2666 37.243 14.2999 25.2144 23.738 17.562" stroke="black" stroke-miterlimit="10"></path><path d="M76.2666 17.5669C85.7047 25.2193 91.7333 36.905 91.7333 50.0002C91.7333 63.0955 86.0047 74.1859 76.9809 81.8431" stroke="black" stroke-miterlimit="10"></path></g><defs><clipPath id="clip0_101_22055"><rect width="100" height="100" fill="white"></rect></clipPath></defs></svg>